<?xml version="1.0" encoding="iso-8859-1"?>
<!-- Generator: Adobe Illustrator 19.0.0, SVG Export Plug-In . SVG Version: 6.00 Build 0)  -->
<svg version="1.1" id="Capa_1" xmlns="http://www.w3.org/2000/svg" xmlns:xlink="http://www.w3.org/1999/xlink" x="0px" y="0px"
	 viewBox="0 0 512 512" style="enable-background:new 0 0 512 512;" xml:space="preserve">
<g>
	<g>
		<path d="M483.427,394.454c-0.129-0.086-0.26-0.171-0.392-0.253l-50.056-31.167c-15.024-9.89-34.324-9.689-49.023-0.282
			c-2.034-2.034-20.28-20.281-22.141-22.142c62.203-66.706,99.172-148.083,119.487-205.991
			c23.148-65.983,30.149-115.382,30.436-117.452c0.645-4.652-0.93-9.338-4.25-12.658c-3.32-3.32-8.007-4.896-12.658-4.249
			c-2.07,0.287-51.469,7.288-117.452,30.436c-57.907,20.317-139.285,57.285-205.99,119.489l-22.141-22.141
			c9.408-14.701,9.609-34.003-0.284-49.025l-31.165-50.054c-0.082-0.132-0.167-0.263-0.252-0.392
			C95.064-5.148,47.395-9.805,18.795,18.795c-28.658,28.659-23.874,76.315,9.778,98.75c0.13,0.086,0.26,0.171,0.393,0.253
			l50.056,31.167c15.13,9.961,34.408,9.624,49.016,0.276l22.147,22.147C87.981,238.093,51.013,319.47,30.697,377.378
			C7.549,443.362,0.548,492.761,0.261,494.832c-0.645,4.652,0.929,9.338,4.25,12.658c3.346,3.346,8.044,4.89,12.658,4.249
			c2.071-0.287,51.47-7.288,117.453-30.436c57.908-20.316,139.286-57.284,205.99-119.487l22.142,22.142
			c-9.407,14.7-9.609,34.002,0.283,49.024l31.167,50.054c0.082,0.132,0.166,0.263,0.253,0.392
			c22.474,33.711,70.14,38.386,98.749,9.777C521.862,464.548,517.08,416.89,483.427,394.454z M126.312,105.109l-22.704-22.704
			c-5.854-5.855-15.348-5.855-21.203,0s-5.855,15.348,0,21.203l22.703,22.703c-3.32,0.303-6.742-0.488-9.669-2.439
			c-0.129-0.086-0.26-0.171-0.392-0.253L45.031,92.477c-17.782-12.012-20.233-37.279-5.033-52.479
			c15.22-15.219,40.483-12.726,52.478,5.031l31.144,50.018c0.082,0.132,0.167,0.263,0.253,0.392
			C125.823,98.365,126.614,101.788,126.312,105.109z M125.368,452.771c-38.525,13.559-71.593,21.431-91.676,25.529
			c4.063-19.93,11.855-52.669,25.301-90.996c19.272-54.934,54.156-131.931,112.406-194.705l21.219,21.219
			c-49.299,53.456-83.958,122.154-105.413,192.253c-1.623,5.302-0.187,11.068,3.735,14.99c3.914,3.914,9.676,5.36,14.989,3.735
			c70.086-21.451,138.786-56.105,192.252-105.413l21.219,21.219C256.813,398.677,180.097,433.509,125.368,452.771z M335.229,229.212
			c-10.846,16.434-23.143,32.551-37.065,47.749l-63.125-63.126c15.198-13.922,31.314-26.22,47.748-37.066L335.229,229.212z
			 M309.121,160.698c26.75-15.084,53.467-26.651,77.594-35.416c-8.767,24.129-20.333,50.846-35.416,77.594L309.121,160.698z
			 M276.962,298.164c-15.199,13.922-31.315,26.22-47.749,37.066l-52.443-52.444c10.846-16.433,23.144-32.55,37.066-47.748
			L276.962,298.164z M202.879,351.302c-26.751,15.085-53.469,26.651-77.597,35.417c8.766-24.127,20.333-50.845,35.418-77.596
			L202.879,351.302z M340.603,319.399l-21.219-21.219c49.611-53.795,84.165-122.85,105.412-192.25
			c1.623-5.303,0.188-11.069-3.733-14.99c-3.921-3.921-9.688-5.359-14.99-3.735c-70.087,21.451-138.786,56.104-192.252,105.413
			l-21.219-21.219c62.587-58.076,139.302-92.909,194.033-112.171c38.525-13.559,71.593-21.431,91.675-25.529
			c-4.063,19.93-11.854,52.669-25.301,90.996C433.735,179.629,398.852,256.625,340.603,319.399z M472.002,472.001
			c-15.233,15.233-40.492,12.709-52.478-5.031l-31.143-50.018c-0.082-0.132-0.166-0.262-0.252-0.391
			c-1.952-2.927-2.743-6.349-2.441-9.67l22.703,22.703c5.854,5.855,15.348,5.855,21.203,0s5.855-15.348,0-21.203l-22.703-22.704
			c3.321-0.302,6.743,0.489,9.67,2.44c0.129,0.086,0.26,0.171,0.392,0.253l50.018,31.143
			C484.751,431.534,487.203,456.801,472.002,472.001z"/>
	</g>
</g>
<g>
</g>
<g>
</g>
<g>
</g>
<g>
</g>
<g>
</g>
<g>
</g>
<g>
</g>
<g>
</g>
<g>
</g>
<g>
</g>
<g>
</g>
<g>
</g>
<g>
</g>
<g>
</g>
<g>
</g>
</svg>
