<?xml version="1.0" encoding="iso-8859-1"?>
<!-- Generator: Adobe Illustrator 19.0.0, SVG Export Plug-In . SVG Version: 6.00 Build 0)  -->
<svg version="1.1" id="Layer_1" xmlns="http://www.w3.org/2000/svg" xmlns:xlink="http://www.w3.org/1999/xlink" x="0px" y="0px"
	 viewBox="0 0 511.996 511.996" style="enable-background:new 0 0 511.996 511.996;" xml:space="preserve">
<g>
	<g>
		<g>
			<path d="M45.773,227.115c-4.164,4.164-4.164,10.922,0,15.086s10.922,4.164,15.086,0s4.164-10.922,0-15.086
				C56.695,222.952,49.937,222.952,45.773,227.115z"/>
			<path d="M45.773,184.444c-4.164,4.172-4.164,10.922,0,15.086s10.922,4.164,15.086,0s4.164-10.914,0-15.086
				C56.695,180.28,49.937,180.28,45.773,184.444z"/>
			<path d="M181.319,202.671h-64c-5.891,0-10.672,4.773-10.672,10.664c0,5.898,4.782,10.671,10.672,10.671h64
				c5.891,0,10.664-4.772,10.664-10.671C191.983,207.444,187.21,202.671,181.319,202.671z"/>
			<path d="M501.324,202.655h-21.328v-10.648c0-5.891-4.781-10.672-10.672-10.672h-27.625
				c-7.016-17.555-17.516-28.227-18.172-28.891l-3.125-3.125H223.983h-10.664h-8.359c-20.969-32.078-57.195-53.32-98.296-53.32
				H95.999v11.203C42.171,112.569,0,158.124,0,213.335c0,55.219,42.171,100.771,95.999,106.131v11.219h10.664
				c7.281,0,14.406-0.688,21.32-1.969v55.281c0,17.641,14.359,32,32,32c17.648,0,32-14.359,32-32v-90.188
				c4.805-5.094,9.148-10.607,12.992-16.482h19.008c0.015,0,0.015,0,0.031,0h31.961c0,0,0.008,0,0.016,0h0.007h42.656h42.656h0.031
				h42.64h0.016h36.405l3.125-3.125c0.656-0.672,11.125-11.32,18.156-28.86h27.641c5.891,0,10.672-4.781,10.672-10.672v-10.679
				h21.328c5.891,0,10.672-4.773,10.672-10.664C511.996,207.429,507.215,202.655,501.324,202.655z M117.335,117.921
				c24.055,2.672,45.445,14.273,60.796,31.398h-60.796V117.921z M95.998,297.997c-3.772-0.469-7.459-1.187-11.061-2.125
				c-0.469-1.75-1.375-3.391-2.742-4.75c-3.656-3.654-9.305-4.107-13.445-1.344c-2.812-1.406-5.547-2.967-8.172-4.654
				c0.094-0.094,0.188-0.156,0.281-0.25c4.164-4.172,4.164-10.922,0-15.094c-4.164-4.164-10.922-4.164-15.086,0
				c-0.555,0.555-1.023,1.156-1.43,1.781c-2.102-2.242-4.086-4.602-5.938-7.07c0.391-0.289,0.766-0.602,1.117-0.953
				c4.164-4.172,4.164-10.923,0-15.087c-3.141-3.148-7.765-3.914-11.632-2.312c-4.172-9.984-6.5-20.93-6.555-32.405
				c0.102,2.594,1.125,5.156,3.102,7.133c4.172,4.163,10.921,4.163,15.085,0c4.164-4.164,4.164-10.922,0-15.086
				s-10.914-4.164-15.085,0c-1.977,1.977-3,4.539-3.102,7.125c0.055-11.469,2.391-22.414,6.562-32.398
				c3.867,1.602,8.484,0.836,11.625-2.305c4.164-4.172,4.164-10.922,0-15.086c-0.352-0.352-0.719-0.664-1.102-0.953
				c1.852-2.461,3.828-4.812,5.93-7.062c0.406,0.625,0.875,1.219,1.422,1.766c4.164,4.164,10.922,4.164,15.086,0
				s4.164-10.922,0-15.086c-0.086-0.086-0.18-0.156-0.266-0.242c2.633-1.695,5.359-3.242,8.18-4.648
				c4.141,2.742,9.773,2.289,13.422-1.359c1.352-1.359,2.266-2.992,2.734-4.719c3.602-0.953,7.297-1.672,11.07-2.141v9.984
				c-2.734,0-5.468,1.039-7.554,3.125c-2.539,2.539-3.523,6.031-2.969,9.32c-5.336,1.859-10.023,5.094-13.656,9.273
				c-1.727,0.477-3.359,1.383-4.711,2.742c-3.086,3.086-3.883,7.594-2.391,11.414c-0.477,2.188-0.734,4.461-0.734,6.789v64.007
				c0,2.328,0.258,4.602,0.734,6.789c-1.492,3.828-0.695,8.329,2.391,11.423c1.352,1.352,2.984,2.258,4.711,2.734
				c3.633,4.18,8.32,7.414,13.656,9.273c-0.555,3.297,0.43,6.797,2.969,9.328c2.086,2.078,4.82,3.125,7.554,3.125V297.997z
				 M127.983,306.95c-3.484,0.797-7.039,1.391-10.648,1.797v-31.42h10.648V306.95z M170.654,383.997
				c0.001,5.875-4.788,10.656-10.671,10.656s-10.664-4.781-10.664-10.656v-106.67h21.335V383.997z M191.983,255.99h-64h-32
				c-5.883,0-10.664-4.781-10.664-10.664v-64.007c0-5.875,4.781-10.664,10.664-10.664h117.335v85.335H191.983z M411.122,255.99
				h-16.469c0-5.891-4.781-10.664-10.656-10.664c-5.906,0-10.672,4.773-10.672,10.664h-21.328c0-5.891-4.78-10.664-10.671-10.664
				s-10.672,4.773-10.672,10.664h-21.328c0-5.891-4.781-10.664-10.672-10.664s-10.656,4.774-10.656,10.664h-21.344
				c0-5.891-4.773-10.664-10.664-10.664c-5.891,0-10.672,4.773-10.672,10.664h-10.664v-85.335h10.664
				c0,5.891,4.773,10.664,10.672,10.664c5.891,0,10.664-4.773,10.664-10.664h21.344c0,5.891,4.766,10.664,10.656,10.664
				s10.672-4.773,10.672-10.664h21.328c0,5.891,4.781,10.664,10.672,10.664s10.671-4.773,10.671-10.664h21.328
				c0,5.891,4.766,10.664,10.672,10.664c5.875,0,10.656-4.773,10.656-10.664h16.469c5.062,6.422,15.53,22.156,15.53,42.672
				C426.652,233.834,416.184,249.568,411.122,255.99z M458.652,224.006h-11.375c0.453-3.429,0.719-6.983,0.719-10.679
				c0-3.688-0.266-7.234-0.703-10.656h11.359V224.006z"/>
		</g>
	</g>
</g>
<g>
</g>
<g>
</g>
<g>
</g>
<g>
</g>
<g>
</g>
<g>
</g>
<g>
</g>
<g>
</g>
<g>
</g>
<g>
</g>
<g>
</g>
<g>
</g>
<g>
</g>
<g>
</g>
<g>
</g>
</svg>
