<svg width="129" height="128" viewBox="0 0 129 128" fill="none" xmlns="http://www.w3.org/2000/svg">
<path d="M6.79772 127.995C5.51622 127.512 4.2795 126.918 3.10167 126.22C2.16225 125.538 1.39448 124.646 0.859104 123.616C0.323732 122.586 0.0354213 121.445 0.0170344 120.284C0.00072814 120.034 0.0170344 119.782 0.0170344 119.529C0.0170344 82.472 0.0170344 45.415 0.0170344 8.35809C-0.114277 6.36345 0.517275 4.39343 1.78378 2.84688C3.05029 1.30033 4.85714 0.292825 6.83852 0.0283163C8.8434 -0.0700096 10.8527 0.0879794 12.8175 0.498471C27.6472 2.72518 42.4732 4.97726 57.2956 7.25471C60.8558 7.79825 64.4214 8.32005 67.9735 8.91795C70.0519 9.11828 71.9696 10.1232 73.3173 11.7181C74.6649 13.313 75.3356 15.3716 75.1863 17.4543C75.2026 27.0333 75.2026 36.6124 75.1863 46.1914V47.7867L85.4566 49.8358C97.7787 52.2818 110.103 54.7114 122.417 57.2144C123.922 57.4727 125.315 58.1735 126.419 59.2273C127.523 60.2812 128.288 61.6402 128.617 63.1309C128.683 63.327 128.762 63.5186 128.853 63.7043V121.192C128.608 121.979 128.325 122.752 128.002 123.51C127.417 124.66 126.577 125.662 125.547 126.44C124.518 127.217 123.325 127.751 122.059 128L6.79772 127.995ZM67.5006 120.409V118.841C67.5006 86.0639 67.5006 53.2864 67.5006 20.509C67.5006 20.1883 67.5006 19.8649 67.5006 19.5442C67.5316 19.2167 67.4975 18.8863 67.4001 18.572C67.3028 18.2577 67.1441 17.9659 66.9334 17.7132C66.7227 17.4606 66.4641 17.2521 66.1724 17.0999C65.8807 16.9477 65.5618 16.8548 65.234 16.8265C63.4295 16.4977 61.6168 16.2232 59.7986 15.9432L10.9966 8.38256C8.73277 8.03198 7.54781 9.01579 7.54781 11.372C7.54781 46.6806 7.54781 81.9882 7.54781 117.295C7.54781 119.537 8.50174 120.483 10.7248 120.488C14.276 120.497 17.8272 120.497 21.3783 120.488C21.7207 120.488 22.0631 120.45 22.5333 120.42V118.945C22.5333 111.914 22.5333 104.886 22.5333 97.8551C22.4423 96.7731 22.5844 95.6842 22.9501 94.6618C23.3157 93.6394 23.8964 92.7073 24.6529 91.9283C25.4094 91.1494 26.3241 90.5418 27.3354 90.1465C28.3467 89.7512 29.4311 89.5774 30.5153 89.6368C35.1589 89.6205 39.8026 89.6205 44.4463 89.6368C45.5505 89.5553 46.659 89.7178 47.6935 90.1126C48.7279 90.5074 49.6628 91.1248 50.432 91.9212C51.2012 92.7177 51.7858 93.6735 52.1444 94.721C52.503 95.7686 52.6267 96.8822 52.5069 97.9829C52.5069 104.973 52.5069 111.962 52.5069 118.95V120.426L67.5006 120.409ZM75.2515 121.271H118.811C121.529 121.271 122.398 120.401 122.398 117.716C122.398 100.883 122.398 84.0482 122.398 67.2129C122.398 64.6528 121.814 63.9788 119.246 63.4842C106.926 61.1017 94.5998 58.7155 82.2687 56.3257C79.9559 55.8773 77.6486 55.4425 75.2515 54.9859V121.271ZM46.4601 120.227V119.189C46.4601 112.355 46.4601 105.52 46.4601 98.684C46.4601 96.5588 45.6067 95.6674 43.582 95.6646C39.2789 95.6646 34.9768 95.6646 30.6756 95.6646C28.3791 95.6646 27.6399 96.4365 27.6371 98.839C27.6371 105.559 27.6371 112.279 27.6371 118.999C27.6371 119.401 27.6779 119.814 27.6997 120.23L46.4601 120.227Z" fill="#844299"/>
<path d="M24.1422 31.1705C22.4273 31.1705 20.7097 31.1922 18.9948 31.1705C18.6279 31.1961 18.2596 31.1463 17.9127 31.0239C17.5657 30.9016 17.2476 30.7095 16.9779 30.4594C16.7081 30.2093 16.4926 29.9065 16.3445 29.5698C16.1964 29.233 16.1189 28.8695 16.1168 28.5017C16.1101 28.1334 16.1808 27.7679 16.3244 27.4288C16.4679 27.0896 16.6812 26.7843 16.9502 26.5328C17.2191 26.2812 17.5379 26.0889 17.8859 25.9683C18.234 25.8478 18.6034 25.8016 18.9704 25.8329C22.4436 25.8039 25.9169 25.8039 29.3901 25.8329C29.7585 25.8054 30.1286 25.8561 30.4761 25.9816C30.8236 26.1072 31.1406 26.3047 31.4064 26.5613C31.6722 26.8179 31.8809 27.1277 32.0186 27.4706C32.1563 27.8134 32.22 28.1814 32.2056 28.5506C32.1983 28.9187 32.1157 29.2814 31.9629 29.6163C31.8101 29.9512 31.5903 30.2513 31.3171 30.498C31.0439 30.7447 30.7231 30.9329 30.3743 31.0509C30.0256 31.1689 29.6564 31.2142 29.2895 31.1841C27.5746 31.1895 25.8571 31.1705 24.1422 31.1705Z" fill="#19A3D2"/>
<path d="M24.2155 41.9571C25.9304 41.9571 27.6479 41.9326 29.3628 41.9571C29.7297 41.9294 30.0985 41.9786 30.4453 42.1015C30.7922 42.2243 31.1095 42.4181 31.3773 42.6705C31.645 42.9229 31.8572 43.2284 32.0003 43.5674C32.1434 43.9064 32.2142 44.2715 32.2082 44.6394C32.2056 45.0078 32.1272 45.3717 31.9779 45.7085C31.8286 46.0453 31.6115 46.3478 31.3403 46.5971C31.0691 46.8464 30.7495 47.0372 30.4014 47.1577C30.0532 47.2782 29.6839 47.3257 29.3166 47.2974C25.885 47.3209 22.4535 47.3209 19.0219 47.2974C18.6551 47.3268 18.2861 47.2806 17.9378 47.1617C17.5894 47.0428 17.2692 46.8537 16.9969 46.6061C16.7246 46.3585 16.506 46.0577 16.3546 45.7222C16.2032 45.3867 16.1222 45.0238 16.1167 44.6557C16.1065 44.2877 16.1738 43.9217 16.314 43.5812C16.4542 43.2408 16.6642 42.9337 16.9306 42.6795C17.1971 42.4254 17.5139 42.23 17.8605 42.1061C18.2072 41.9821 18.576 41.9322 18.9431 41.9598C20.7015 41.9299 22.4571 41.9571 24.2155 41.9571Z" fill="#19A3D2"/>
<path d="M24.1774 58.0922C25.8515 58.0922 27.5257 58.0759 29.1998 58.0922C29.5757 58.0448 29.9574 58.0779 30.3196 58.1892C30.6817 58.3005 31.0161 58.4875 31.3006 58.7377C31.585 58.988 31.813 59.2959 31.9695 59.6409C32.126 59.986 32.2074 60.3604 32.2083 60.7393C32.2099 61.1181 32.1317 61.4931 31.979 61.8398C31.8262 62.1865 31.6023 62.4972 31.3216 62.7517C31.041 63.0062 30.7099 63.1988 30.35 63.317C29.9901 63.4352 29.6093 63.4765 29.2324 63.438C25.8425 63.4561 22.4526 63.4561 19.0627 63.438C18.6865 63.4731 18.3072 63.4286 17.9493 63.3076C17.5914 63.1865 17.263 62.9914 16.9854 62.7351C16.7078 62.4788 16.4872 62.1669 16.338 61.8198C16.1889 61.4727 16.1143 61.0981 16.1194 60.7203C16.1221 60.3521 16.2016 59.9885 16.3528 59.6527C16.504 59.317 16.7236 59.0165 16.9976 58.7704C17.2715 58.5244 17.5937 58.3382 17.9437 58.2237C18.2937 58.1093 18.6637 58.0691 19.0301 58.1058C20.745 58.0705 22.4598 58.0922 24.1774 58.0922Z" fill="#19A3D2"/>
<path d="M24.1367 79.5812C22.4218 79.5812 20.7043 79.6029 18.9894 79.5812C18.6222 79.6064 18.2537 79.5561 17.9067 79.4333C17.5597 79.3105 17.2417 79.1178 16.9722 78.8671C16.7027 78.6165 16.4875 78.3131 16.3398 77.976C16.1922 77.6388 16.1154 77.275 16.114 76.9069C16.1077 76.5384 16.1788 76.1727 16.3228 75.8334C16.4669 75.4942 16.6806 75.189 16.9502 74.9376C17.2197 74.6863 17.5392 74.4943 17.8876 74.3743C18.2361 74.2543 18.6059 74.2088 18.973 74.2409C22.4463 74.2119 25.9196 74.2119 29.3928 74.2409C29.7611 74.2134 30.131 74.264 30.4784 74.3896C30.8257 74.5151 31.1427 74.7127 31.4083 74.9693C31.6739 75.2259 31.8822 75.5359 32.0196 75.8787C32.157 76.2215 32.2204 76.5895 32.2056 76.9586C32.1994 77.316 32.1217 77.6686 31.9767 77.9955C31.8318 78.3223 31.6228 78.6167 31.362 78.8613C31.1012 79.1058 30.7939 79.2955 30.4585 79.4192C30.123 79.5428 29.7662 79.5979 29.4091 79.5812C27.6534 79.6083 25.895 79.5812 24.1367 79.5812Z" fill="#19A3D2"/>
<path d="M50.9878 25.8193C52.7461 25.8193 54.5018 25.7921 56.2601 25.8193C56.6167 25.7994 56.9736 25.852 57.3094 25.9737C57.6451 26.0954 57.9527 26.2839 58.2137 26.5276C58.4748 26.7714 58.6838 27.0654 58.8281 27.3921C58.9725 27.7187 59.0493 28.0712 59.0539 28.4283C59.0625 28.7964 58.9946 29.1622 58.8545 29.5027C58.7144 29.8432 58.5051 30.1509 58.24 30.4063C57.9748 30.6618 57.6595 30.8594 57.314 30.9867C56.9686 31.114 56.6004 31.1683 56.2329 31.146C52.7615 31.1768 49.2892 31.1768 45.8159 31.146C45.4486 31.1752 45.0794 31.1267 44.7322 31.0035C44.3849 30.8803 44.0676 30.6852 43.8009 30.431C43.5341 30.1769 43.324 29.8693 43.1842 29.5284C43.0444 29.1875 42.9781 28.821 42.9896 28.4528C42.98 28.0844 43.0489 27.7183 43.1918 27.3786C43.3346 27.039 43.5481 26.7336 43.8179 26.4827C44.0878 26.2319 44.408 26.0413 44.7571 25.9236C45.1063 25.8059 45.4765 25.7639 45.8431 25.8003H50.9878V25.8193Z" fill="#19A3D2"/>
<path d="M51.0421 41.9544C52.7569 41.9544 54.4745 41.93 56.1867 41.9544C56.5534 41.9271 56.9218 41.9758 57.2688 42.0974C57.6158 42.2191 57.9339 42.411 58.2033 42.6613C58.4727 42.9115 58.6876 43.2147 58.8344 43.5519C58.9812 43.889 59.0569 44.2528 59.0566 44.6205C59.0569 44.9893 58.9811 45.3541 58.8338 45.6923C58.6866 46.0304 58.4711 46.3344 58.2009 46.5855C57.9308 46.8365 57.6117 47.029 57.2637 47.1511C56.9157 47.2731 56.5463 47.322 56.1786 47.2947C52.7072 47.3201 49.2348 47.3201 45.7616 47.2947C45.4044 47.3179 45.0463 47.2672 44.7096 47.1457C44.3729 47.0243 44.0648 46.8347 43.8046 46.5889C43.5445 46.343 43.3379 46.0461 43.1976 45.7168C43.0574 45.3875 42.9865 45.0328 42.9895 44.6749C42.9667 44.3066 43.0235 43.9378 43.1561 43.5935C43.2886 43.2493 43.4938 42.9375 43.7576 42.6797C44.0214 42.4218 44.3376 42.2238 44.6849 42.0991C45.0321 41.9744 45.4021 41.926 45.7697 41.9571C47.5253 41.9272 49.2837 41.9544 51.0421 41.9544Z" fill="#19A3D2"/>
<path d="M51.0883 63.4461C49.3734 63.4461 47.6586 63.4624 45.9437 63.4461C45.5675 63.4879 45.1866 63.449 44.8266 63.3319C44.4666 63.2148 44.1358 63.0222 43.8562 62.767C43.5766 62.5119 43.3546 62.1999 43.2051 61.8521C43.0557 61.5043 42.9822 61.1286 42.9896 60.7502C42.9755 60.381 43.0413 60.0132 43.1825 59.6719C43.3237 59.3306 43.5369 59.0237 43.8076 58.7724C44.0783 58.5211 44.4 58.3312 44.7508 58.2156C45.1017 58.1001 45.4733 58.0617 45.8404 58.1031C49.2701 58.0741 52.7009 58.0741 56.1324 58.1031C56.4986 58.0682 56.8679 58.1093 57.2174 58.224C57.5669 58.3386 57.8889 58.5243 58.1632 58.7693C58.4376 59.0142 58.6583 59.3133 58.8116 59.6476C58.9648 59.9819 59.0473 60.3443 59.0539 60.7121C59.0605 61.0912 58.9871 61.4675 58.8384 61.8164C58.6898 62.1653 58.4694 62.4789 58.1914 62.7369C57.9135 62.9949 57.5843 63.1914 57.2253 63.3136C56.8663 63.4358 56.4856 63.4809 56.108 63.4461C54.4366 63.4651 52.7624 63.4461 51.0883 63.4461Z" fill="#19A3D2"/>
<path d="M51.0502 74.2273C52.765 74.2273 54.4799 74.2028 56.1948 74.2273C56.5615 74.2011 56.9297 74.251 57.2763 74.3736C57.6229 74.4963 57.9404 74.6891 58.209 74.9402C58.4777 75.1912 58.6916 75.4949 58.8375 75.8324C58.9833 76.1699 59.0579 76.5339 59.0566 76.9016C59.0554 77.2703 58.9782 77.6347 58.8298 77.9723C58.6815 78.3098 58.4651 78.6132 58.1943 78.8634C57.9234 79.1136 57.6039 79.3052 57.2557 79.4264C56.9074 79.5475 56.538 79.5956 56.1703 79.5676C52.7406 79.593 49.31 79.593 45.8784 79.5676C45.5117 79.6033 45.1416 79.5618 44.792 79.4455C44.4424 79.3293 44.121 79.141 43.8487 78.8928C43.5765 78.6446 43.3593 78.342 43.2113 78.0046C43.0633 77.6673 42.9877 77.3026 42.9894 76.9341C42.965 75.2818 44.0493 74.2708 45.9055 74.2164H51.0529L51.0502 74.2273Z" fill="#19A3D2"/>
<path d="M99.3576 74.2272C101.072 74.2272 102.79 74.2028 104.505 74.2272C104.871 74.2 105.24 74.2485 105.586 74.37C105.933 74.4914 106.251 74.6832 106.521 74.9331C106.79 75.1831 107.005 75.486 107.152 75.8228C107.299 76.1596 107.375 76.5231 107.375 76.8905C107.375 77.2591 107.299 77.6237 107.152 77.9616C107.005 78.2995 106.79 78.6035 106.52 78.8545C106.25 79.1055 105.932 79.2981 105.584 79.4203C105.236 79.5425 104.867 79.5917 104.5 79.5648C101.026 79.5902 97.5539 79.5902 94.0825 79.5648C93.7253 79.5884 93.3671 79.538 93.0303 79.4169C92.6934 79.2958 92.3852 79.1065 92.1248 78.8609C91.8644 78.6153 91.6574 78.3186 91.5169 77.9894C91.3763 77.6602 91.3051 77.3056 91.3077 76.9477C91.2849 76.5795 91.3417 76.2106 91.4743 75.8663C91.6068 75.5221 91.812 75.2103 92.0758 74.9525C92.3396 74.6946 92.6559 74.4966 93.0031 74.3719C93.3503 74.2472 93.7203 74.1988 94.0879 74.23C95.8517 74.2001 97.5992 74.2272 99.3576 74.2272Z" fill="#19A3D2"/>
<path d="M99.4065 90.3678C101.121 90.3678 102.839 90.3406 104.551 90.3678C104.919 90.3451 105.287 90.3991 105.633 90.5262C105.979 90.6533 106.295 90.8509 106.56 91.1064C106.825 91.3619 107.035 91.6698 107.175 92.0105C107.315 92.3511 107.383 92.7172 107.375 93.0855C107.37 93.4437 107.293 93.7972 107.149 94.125C107.004 94.4527 106.795 94.7479 106.534 94.9927C106.272 95.2376 105.964 95.4272 105.628 95.5502C105.291 95.6731 104.933 95.7269 104.576 95.7082C101.061 95.739 97.5467 95.739 94.0336 95.7082C93.6768 95.7251 93.3204 95.6683 92.9866 95.5411C92.6528 95.414 92.3488 95.2194 92.0937 94.9694C91.8386 94.7194 91.6379 94.4194 91.504 94.0882C91.3702 93.7571 91.3061 93.4018 91.3159 93.0448C91.2992 92.6871 91.358 92.3299 91.4885 91.9964C91.6191 91.663 91.8184 91.3608 92.0735 91.1095C92.3286 90.8582 92.6338 90.6636 92.9692 90.5381C93.3046 90.4127 93.6626 90.3592 94.02 90.3814C95.8055 90.3352 97.6074 90.3678 99.4065 90.3678Z" fill="#19A3D2"/>
<path d="M99.2761 106.506C101.032 106.506 102.79 106.476 104.548 106.506C104.916 106.483 105.285 106.537 105.631 106.664C105.977 106.791 106.292 106.989 106.558 107.244C106.824 107.499 107.034 107.807 107.174 108.148C107.315 108.489 107.383 108.855 107.375 109.223C107.371 109.582 107.295 109.935 107.151 110.263C107.006 110.591 106.797 110.887 106.536 111.132C106.275 111.377 105.967 111.567 105.63 111.69C105.294 111.813 104.936 111.867 104.578 111.849C101.063 111.879 97.5494 111.879 94.0363 111.849C93.6798 111.865 93.3238 111.808 92.9904 111.681C92.657 111.554 92.3533 111.359 92.0984 111.11C91.8434 110.86 91.6425 110.561 91.5084 110.23C91.3742 109.899 91.3096 109.545 91.3186 109.188C91.3015 108.83 91.36 108.473 91.4902 108.139C91.6204 107.806 91.8194 107.504 92.0742 107.252C92.3291 107 92.6341 106.805 92.9693 106.68C93.3046 106.554 93.6626 106.5 94.02 106.522C95.762 106.473 97.5204 106.508 99.2761 106.506Z" fill="#19A3D2"/>
</svg>
