<svg width="129" height="128" viewBox="0 0 129 128" fill="none" xmlns="http://www.w3.org/2000/svg">
<path d="M51.6131 94.9676C53.2548 94.9652 54.8287 94.312 55.9895 93.1511C57.1504 91.9902 57.8037 90.4164 57.8061 88.7747V6.19299C57.8037 4.55124 57.1504 2.97742 55.9895 1.81653C54.8287 0.655637 53.2548 0.00239427 51.6131 0H6.19299C4.55124 0.00239427 2.97742 0.655637 1.81653 1.81653C0.655637 2.97742 0.00239427 4.55124 0 6.19299V88.7747C0.00239427 90.4164 0.655637 91.9902 1.81653 93.1511C2.97742 94.312 4.55124 94.9652 6.19299 94.9676H51.6131ZM53.6768 74.3304H4.12926V16.5171H53.6768V74.3304ZM6.19299 4.12926H51.6131C52.1608 4.12974 52.6859 4.34752 53.0731 4.73478C53.4604 5.12203 53.6781 5.64713 53.6786 6.1948V12.3878H4.12926V6.19299C4.13022 5.64595 4.34796 5.12159 4.73477 4.73477C5.12159 4.34796 5.64595 4.13022 6.19299 4.12926ZM4.12926 88.7747V78.456H53.6768V88.7747C53.6763 89.3223 53.4586 89.8474 53.0713 90.2347C52.684 90.6219 52.1589 90.8397 51.6113 90.8402H6.19299C5.64564 90.8392 5.121 90.6213 4.73413 90.234C4.34727 89.8468 4.12974 89.322 4.12926 88.7747Z" fill="white"/>
<path d="M22.7101 84.6454C22.7101 85.8702 23.0733 87.0676 23.7538 88.086C24.4343 89.1044 25.4015 89.8982 26.5331 90.3669C27.6647 90.8356 28.9099 90.9583 30.1113 90.7193C31.3126 90.4804 32.4161 89.8906 33.2822 89.0244C34.1483 88.1583 34.7381 87.0549 34.9771 85.8535C35.216 84.6522 35.0934 83.407 34.6246 82.2754C34.1559 81.1438 33.3621 80.1765 32.3437 79.496C31.3253 78.8156 30.1279 78.4524 28.9031 78.4524C27.2613 78.4548 25.6875 79.108 24.5266 80.2689C23.3657 81.4298 22.7125 83.0036 22.7101 84.6454ZM28.9031 82.5798C29.3116 82.5798 29.7109 82.7009 30.0506 82.9279C30.3903 83.1549 30.655 83.4775 30.8114 83.8549C30.9677 84.2323 31.0086 84.6476 30.9289 85.0483C30.8492 85.449 30.6525 85.817 30.3636 86.1059C30.0747 86.3948 29.7067 86.5915 29.306 86.6712C28.9054 86.7509 28.49 86.71 28.1126 86.5536C27.7352 86.3973 27.4126 86.1326 27.1856 85.7929C26.9587 85.4532 26.8375 85.0539 26.8375 84.6454C26.8385 84.098 27.0565 83.5733 27.4437 83.1865C27.8309 82.7996 28.3557 82.5821 28.9031 82.5816V82.5798Z" fill="white"/>
<path d="M39.2271 6.19303H26.8393V10.3223H39.2271V6.19303Z" fill="white"/>
<path d="M22.7101 6.19303H18.5808V10.3223H22.7101V6.19303Z" fill="white"/>
<path d="M121.807 33.0323H76.3941C74.7523 33.0347 73.1785 33.688 72.0176 34.8489C70.8567 36.0097 70.2035 37.5836 70.2011 39.2253V121.807C70.2035 123.449 70.8567 125.023 72.0176 126.183C73.1785 127.344 74.7523 127.998 76.3941 128H121.814C123.456 127.998 125.03 127.344 126.191 126.183C127.352 125.023 128.005 123.449 128.007 121.807V39.2253C128.005 37.5823 127.351 36.0074 126.188 34.8463C125.026 33.6852 123.45 33.0328 121.807 33.0323ZM76.3941 37.1616H121.814C122.362 37.1621 122.887 37.3798 123.274 37.7671C123.661 38.1544 123.879 38.6794 123.88 39.2271V45.4201H74.3231V39.2253C74.3236 38.9538 74.3775 38.6851 74.4819 38.4345C74.5862 38.1838 74.7389 37.9562 74.9312 37.7645C75.1235 37.5729 75.3517 37.421 75.6027 37.3176C75.8537 37.2141 76.1226 37.1611 76.3941 37.1616ZM123.878 49.5494V107.355H74.3231V49.5476L123.878 49.5494ZM121.814 123.873H76.3941C75.8464 123.872 75.3213 123.654 74.9341 123.267C74.5468 122.88 74.329 122.355 74.3285 121.807V111.488H123.878V121.807C123.878 122.079 123.824 122.347 123.72 122.598C123.615 122.849 123.463 123.077 123.27 123.268C123.078 123.46 122.85 123.612 122.599 123.715C122.348 123.819 122.078 123.871 121.807 123.871L121.814 123.873Z" fill="white"/>
<path d="M105.292 117.678C105.292 116.453 104.928 115.255 104.248 114.237C103.568 113.219 102.6 112.425 101.469 111.956C100.337 111.487 99.0918 111.365 97.8905 111.604C96.6892 111.843 95.5857 112.432 94.7196 113.299C93.8535 114.165 93.2637 115.268 93.0247 116.469C92.7858 117.671 92.9084 118.916 93.3771 120.048C93.8459 121.179 94.6396 122.146 95.6581 122.827C96.6765 123.507 97.8738 123.871 99.0987 123.871C100.74 123.868 102.314 123.215 103.475 122.054C104.636 120.893 105.289 119.319 105.292 117.678ZM99.0987 119.741C98.6902 119.741 98.2908 119.62 97.9512 119.393C97.6115 119.166 97.3467 118.844 97.1904 118.466C97.0341 118.089 96.9932 117.674 97.0729 117.273C97.1526 116.872 97.3493 116.504 97.6381 116.215C97.927 115.926 98.2951 115.73 98.6957 115.65C99.0964 115.57 99.5117 115.611 99.8892 115.768C100.267 115.924 100.589 116.189 100.816 116.528C101.043 116.868 101.164 117.267 101.164 117.676C101.164 117.947 101.111 118.216 101.007 118.467C100.903 118.718 100.751 118.946 100.559 119.138C100.367 119.33 100.139 119.482 99.888 119.586C99.6372 119.69 99.3684 119.743 99.0969 119.743L99.0987 119.741Z" fill="white"/>
<path d="M109.421 39.2252H97.0332V43.3545H109.421V39.2252Z" fill="white"/>
<path d="M92.9039 39.2252H88.7747V43.3545H92.9039V39.2252Z" fill="white"/>
<path d="M84.6454 92.9039V94.9695C84.6451 95.2408 84.6984 95.5095 84.8021 95.7602C84.9058 96.0109 85.058 96.2387 85.2498 96.4306C85.4417 96.6224 85.6695 96.7746 85.9202 96.8783C86.1709 96.982 86.4396 97.0352 86.7109 97.035H111.485C111.756 97.0352 112.025 96.982 112.275 96.8783C112.526 96.7746 112.754 96.6224 112.946 96.4306C113.138 96.2387 113.29 96.0109 113.393 95.7602C113.497 95.5095 113.55 95.2408 113.55 94.9695V92.9039C113.545 89.9134 112.613 86.9981 110.882 84.5592C109.152 82.1203 106.708 80.2777 103.887 79.2851C105.931 78.2143 107.557 76.489 108.506 74.3851C109.454 72.2812 109.67 69.9201 109.118 67.6792C108.567 65.4383 107.28 63.4469 105.464 62.0233C103.648 60.5997 101.406 59.8261 99.0987 59.8261C96.7909 59.8261 94.5498 60.5997 92.7334 62.0233C90.9171 63.4469 89.6304 65.4383 89.0789 67.6792C88.5275 69.9201 88.7433 72.2812 89.6916 74.3851C90.64 76.489 92.2662 78.2143 94.3105 79.2851C91.4892 80.2774 89.0448 82.1199 87.314 84.5588C85.5831 86.9977 84.6508 89.9132 84.6454 92.9039ZM99.0969 64.0009C100.322 64.0009 101.519 64.3641 102.538 65.0446C103.556 65.7251 104.35 66.6923 104.818 67.8239C105.287 68.9556 105.41 70.2008 105.171 71.4021C104.932 72.6034 104.342 73.7069 103.476 74.573C102.61 75.4391 101.506 76.0289 100.305 76.2679C99.1038 76.5068 97.8586 76.3842 96.727 75.9155C95.5953 75.4467 94.6281 74.653 93.9476 73.6345C93.2671 72.6161 92.9039 71.4187 92.9039 70.1939C92.9063 68.5521 93.5595 66.9783 94.7204 65.8174C95.8813 64.6565 97.4552 64.0033 99.0969 64.0009ZM99.0969 82.5817C101.832 82.586 104.454 83.6745 106.389 85.6087C108.323 87.5429 109.411 90.165 109.416 92.9003H88.7782C88.7826 90.165 89.8711 87.5429 91.8053 85.6087C93.7395 83.6745 96.3616 82.586 99.0969 82.5817Z" fill="#19A3D2"/>
<path d="M14.4515 59.8716V61.9371C14.4515 62.485 14.6691 63.0103 15.0565 63.3977C15.4439 63.7851 15.9692 64.0027 16.5171 64.0027H41.2908C41.8386 64.0027 42.364 63.7851 42.7514 63.3977C43.1388 63.0103 43.3564 62.485 43.3564 61.9371V59.8716C43.3511 56.8811 42.4191 53.9658 40.6885 51.5269C38.958 49.088 36.514 47.2454 33.6931 46.2528C35.7373 45.1819 37.3636 43.4567 38.3119 41.3528C39.2603 39.2489 39.476 36.8878 38.9246 34.6469C38.3732 32.406 37.0865 30.4146 35.2701 28.991C33.4538 27.5674 31.2126 26.7938 28.9049 26.7938C26.5971 26.7938 24.3559 27.5674 22.5396 28.991C20.7232 30.4146 19.4365 32.406 18.8851 34.6469C18.3337 36.8878 18.5494 39.2489 19.4978 41.3528C20.4461 43.4567 22.0724 45.1819 24.1166 46.2528C21.2953 47.2451 18.851 49.0875 17.1201 51.5265C15.3892 53.9654 14.4569 56.8809 14.4515 59.8716ZM28.9103 30.9686C30.1351 30.9686 31.3325 31.3318 32.3509 32.0123C33.3694 32.6928 34.1631 33.66 34.6319 34.7916C35.1006 35.9232 35.2232 37.1684 34.9843 38.3698C34.7453 39.5711 34.1555 40.6746 33.2894 41.5407C32.4233 42.4068 31.3198 42.9966 30.1185 43.2356C28.9172 43.4745 27.672 43.3519 26.5403 42.8831C25.4087 42.4144 24.4415 41.6206 23.761 40.6022C23.0805 39.5838 22.7173 38.3864 22.7173 37.1616C22.7197 35.5198 23.3729 33.946 24.5338 32.7851C25.6947 31.6242 27.2685 30.971 28.9103 30.9686ZM28.9103 49.5494C31.6456 49.5537 34.2677 50.6422 36.2019 52.5764C38.1361 54.5106 39.2246 57.1326 39.2289 59.868H18.5916C18.596 57.1326 19.6845 54.5106 21.6187 52.5764C23.5529 50.6422 26.1749 49.5537 28.9103 49.5494Z" fill="#19A3D2"/>
<path d="M117.678 28.903H121.811C121.802 21.2395 118.754 13.8924 113.334 8.47375C107.915 3.05515 100.567 0.00766636 92.9039 0H61.9353V4.12926H92.9039C99.4721 4.13645 105.769 6.74885 110.414 11.3933C115.058 16.0377 117.671 22.3348 117.678 28.903Z" fill="white"/>
<path d="M10.3222 99.097H6.19297C6.2016 106.76 9.2495 114.106 14.668 119.525C20.0865 124.943 27.4331 127.991 35.096 128H66.0646V123.871H35.096C28.5278 123.864 22.2307 121.251 17.5862 116.607C12.9418 111.962 10.3294 105.665 10.3222 99.097Z" fill="white"/>
</svg>
