<?xml version="1.0" encoding="UTF-8"?>
<svg width="78px" height="74px" viewBox="0 0 78 74" version="1.1" xmlns="http://www.w3.org/2000/svg" xmlns:xlink="http://www.w3.org/1999/xlink">
    <title>tlacc-icon</title>
    <defs>
        <linearGradient x1="95.5784478%" y1="66.5365821%" x2="4.29683045%" y2="40.7346806%" id="linearGradient-1">
            <stop stop-color="#59A532" offset="0%"></stop>
            <stop stop-color="#1E642D" offset="100%"></stop>
        </linearGradient>
        <radialGradient cx="37.2900121%" cy="64.7142096%" fx="37.2900121%" fy="64.7142096%" r="54.692546%" gradientTransform="translate(0.372900,0.647142),scale(0.863005,1.000000),rotate(120.500441),translate(-0.372900,-0.647142)" id="radialGradient-2">
            <stop stop-color="#59A532" offset="0%"></stop>
            <stop stop-color="#1E642D" offset="100%"></stop>
        </radialGradient>
        <linearGradient x1="43.7370444%" y1="-0.447620698%" x2="55.00715%" y2="106.840648%" id="linearGradient-3">
            <stop stop-color="#FCDA0A" offset="0%"></stop>
            <stop stop-color="#CD171B" offset="100%"></stop>
        </linearGradient>
        <radialGradient cx="76.5748876%" cy="46.4923954%" fx="76.5748876%" fy="46.4923954%" r="118.190588%" gradientTransform="translate(0.765749,0.464924),scale(1.000000,0.370819),rotate(-0.957874),translate(-0.765749,-0.464924)" id="radialGradient-4">
            <stop stop-color="#FCDA0A" offset="0%"></stop>
            <stop stop-color="#CD171B" offset="100%"></stop>
        </radialGradient>
        <linearGradient x1="22.3946037%" y1="79.7921538%" x2="80.5739067%" y2="21.3528368%" id="linearGradient-5">
            <stop stop-color="#5563A9" offset="0%"></stop>
            <stop stop-color="#181838" offset="100%"></stop>
        </linearGradient>
        <radialGradient cx="39.159905%" cy="22.6269309%" fx="39.159905%" fy="22.6269309%" r="107.026103%" gradientTransform="translate(0.391599,0.226269),scale(0.527536,1.000000),rotate(-119.657968),translate(-0.391599,-0.226269)" id="radialGradient-6">
            <stop stop-color="#5563A9" offset="0.2%"></stop>
            <stop stop-color="#181838" offset="100%"></stop>
        </radialGradient>
    </defs>
    <g id="Page-1" stroke="none" stroke-width="1" fill="none" fill-rule="evenodd" opacity="0.47">
        <g id="tlacc-icon" fill-rule="nonzero">
            <path d="M55.7697508,44.568125 C65.6771043,44.4933936 72.1380194,49.1544553 72.4681617,49.3583 C72.7983039,49.5621447 76.3112508,52.0928363 76.7154437,54.5459897 C77.0990669,56.8752926 77.6037081,64.4999966 74.4339309,71.5184292 C74.2652601,71.892086 74.0890471,72.2643394 73.8987782,72.633786 C71.4743066,77.3344939 60.5772119,69.1628125 57.5119969,59.4280878 L57.5119969,59.4280878 C57.208601,59.3478018 42.225066,55.4519338 34.0856089,67.0577037 C32.7698851,68.9700781 32.4107062,70.957332 32.3686633,71.2137997 L32.3642752,71.2416074 C32.3642752,71.2416074 28.5139867,63.4298996 33.2844225,55.7729173 C38.0548583,48.115935 45.8627401,44.6425055 55.7697508,44.568125 Z M48.3472064,0.0082349791 C53.5269775,-0.38506951 52.5461498,13.4037438 46.1133466,21.2308891 C46.1133466,21.2308891 46.1079358,21.2187531 46.0976204,21.1945441 L46.1059393,21.2150773 L46.1059393,21.2150773 L46.1130037,21.2312399 C46.1130037,21.2312399 50.7967043,36.5904644 64.8687186,37.4963629 C67.3141026,37.6310899 69.2469605,36.7676444 69.2469605,36.7676444 C69.2469605,36.7676444 64.8231226,44.2541129 55.9500778,44.1825392 C47.3084113,44.1128319 40.4227196,39.4372827 35.1533374,31.2932077 C38.4845521,38.7742447 37.5261044,46.8578281 33.1812316,55.1662951 C28.5064445,64.1056395 21.4164422,67.6832719 21.0835573,67.8822047 C20.7506724,68.0811374 16.8990126,70.0280122 14.6003585,69.2178962 C12.4182655,68.4488298 5.63440753,65.2553798 1.12794841,59.0491682 L1.12794841,59.0491682 L0.889734528,58.7168339 C0.732211933,58.4934585 0.577482742,58.2666525 0.426867474,58.0348567 C-2.44739295,53.607462 9.77712734,47.7226305 19.5967172,49.6242454 L19.5967172,49.6242454 C19.5967172,49.6238945 30.3820503,37.9170338 24.2553914,24.9204431 C23.1717157,22.6735903 21.4884358,21.3719314 21.4884358,21.3719314 C21.4884358,21.3719314 28.5939687,21.6021309 33.0981022,27.6710721 C29.5058583,20.3005706 29.8396645,13.9555801 29.834213,13.6068868 L29.8343033,13.5634561 C29.8425912,12.9638952 30.1099829,8.77509079 31.8747185,7.16911333 C33.5994804,5.59940389 39.6448893,1.11376794 47.1390845,0.136646614 L47.1390845,0.136646614 L47.5394809,0.0869556517 C47.8069113,0.055950778 48.0759161,0.0290521659 48.3472064,0.0082349791 Z" id="Combined-Shape" fill="#FFFFFF"></path>
            <g id="Group" transform="translate(31.000000, 44.000000)">
                <path d="M3.36131273,22.6523515 C11.5451708,10.9578007 26.6799506,15.041251 26.6799506,15.041251 C26.6799506,15.041251 30.6944158,15.5865511 36.9614725,18.9073513 C40.606364,20.8386514 43.0070579,23.7314016 43.5240517,27.1022518 C46.6792494,20.1008514 46.1769294,12.4946509 45.7950706,10.1710007 C45.3927368,7.72380053 41.8959479,5.19925035 41.5673241,4.99590034 C41.2387003,4.79255033 34.8075024,0.14280001 24.9457179,0.217350015 C15.0842748,0.29155002 7.3123055,3.75655026 2.56381142,11.3949508 C-2.18468265,19.0333513 1.64789636,26.8261018 1.64789636,26.8261018 C1.64789636,26.8261018 1.95809263,24.6963517 3.36131273,22.6523515 Z" id="Path" fill="url(#linearGradient-1)"></path>
                <path d="M36.9614725,18.9073513 C30.6944158,15.5865511 26.6799506,15.041251 26.6799506,15.041251 C29.731067,24.7523517 40.5780403,32.9042022 42.9913604,28.2149019 C43.1807542,27.8463519 43.3561567,27.4750019 43.5240517,27.1022518 C43.0070579,23.7314016 40.6060228,20.8386514 36.9614725,18.9073513 Z" id="Path" fill="url(#radialGradient-2)"></path>
            </g>
            <g id="Group" transform="translate(30.000000, 0.000000)">
                <path d="M35.0265849,37.6127526 C21.0192952,36.7090525 16.3571374,21.3871015 16.3571374,21.3871015 C16.3571374,21.3871015 14.6761397,17.6085012 14.092261,10.3985007 C13.7527172,6.20515042 14.8682635,2.58265018 17.3784987,0.343700023 C9.91877318,1.31845009 3.90117027,5.79320039 2.1843414,7.3591005 C0.376057526,9.00830061 0.147193745,13.3878509 0.15322126,13.7812509 C0.159363761,14.175001 -0.267198768,22.2334015 5.03002534,30.7646521 C10.3272495,39.2959027 17.3167324,44.211303 26.1489655,44.282703 C34.9811986,44.354103 39.3846889,36.8858025 39.3846889,36.8858025 C39.3846889,36.8858025 37.4607213,37.7471526 35.0265849,37.6127526 Z" id="Path" fill="url(#linearGradient-3)"></path>
                <path d="M14.0926022,10.3981507 C14.676481,17.6081512 16.3574786,21.3867515 16.3574786,21.3867515 C22.7606941,13.5786009 23.7370104,-0.176750012 18.5810638,0.215600015 C18.176,0.246750017 17.776055,0.29155002 17.3788399,0.343350023 C14.8682635,2.58230018 13.7530584,6.20515042 14.0926022,10.3981507 Z" id="Path" fill="url(#radialGradient-4)"></path>
            </g>
            <g id="Group" transform="translate(0.000000, 21.000000)">
                <path d="M24.2888117,3.71735025 C30.3872908,16.6824011 19.6515651,28.3608519 19.6515651,28.3608519 C19.6515651,28.3608519 17.2645212,31.7159522 11.4233445,35.7721024 C8.02620055,38.1311026 4.40110155,38.9098527 1.26774384,37.7632526 C5.75347539,43.954403 12.5061309,47.1401032 14.6781872,47.9073033 C16.9662687,48.7154533 20.8002127,46.7733032 21.1315664,46.5748532 C21.4629202,46.3764032 28.5203119,42.8074529 33.1735973,33.8898023 C37.8268826,24.9721517 38.5779739,16.3142011 34.3089361,8.38390057 C30.0398983,0.453600031 21.5345827,0.177450012 21.5345827,0.177450012 C21.5345827,0.177450012 23.2101203,1.4759501 24.2888117,3.71735025 Z" id="Path" fill="url(#linearGradient-5)"></path>
                <path d="M11.4233445,35.7724524 C17.2645212,31.7163022 19.6515651,28.3612019 19.6515651,28.3612019 C9.87714067,26.4642018 -2.29115266,32.3347522 0.569887539,36.7514025 C0.794771304,37.0982525 1.02886882,37.4339025 1.26774384,37.7636026 C4.40110155,38.9102027 8.0265418,38.1314526 11.4233445,35.7724524 Z" id="Path" fill="url(#radialGradient-6)"></path>
            </g>
        </g>
    </g>
</svg>