<svg width="128" height="128" viewBox="0 0 128 128" fill="none" xmlns="http://www.w3.org/2000/svg">
<path d="M83.745 102.009C83.1707 101.509 82.7154 100.886 82.4124 100.187C82.1094 99.4874 81.9664 98.7293 81.9936 97.9678C81.9911 97.1793 82.1452 96.3981 82.447 95.6696C82.7488 94.9411 83.1923 94.2798 83.7518 93.7241L107.517 69.9929H6.004C5.1992 69.9851 4.40399 69.8172 3.66477 69.4989C2.92554 69.1806 2.2571 68.7182 1.69843 68.1389C1.13976 67.5595 0.702047 66.8747 0.410815 66.1244C0.119582 65.3741 -0.0193364 64.5733 0.00216358 63.7688C0.047939 62.2124 0.702135 60.7361 1.82429 59.6568C2.94645 58.5775 4.44709 57.9812 6.004 57.9959H107.517L83.7585 34.2378C83.2014 33.6811 82.7595 33.02 82.4581 32.2925C82.1566 31.5649 82.0014 30.785 82.0014 29.9975C82.0014 29.2099 82.1566 28.43 82.4581 27.7025C82.7595 26.9749 83.2014 26.3138 83.7585 25.7571C84.3152 25.2001 84.9763 24.7582 85.7038 24.4567C86.4314 24.1552 87.2113 24 87.9988 24C88.7864 24 89.5663 24.1552 90.2938 24.4567C91.0214 24.7582 91.6825 25.2001 92.2392 25.7571L126.243 59.7473C126.8 60.3041 127.242 60.9651 127.543 61.6927C127.845 62.4203 128 63.2001 128 63.9877C128 64.7752 127.845 65.5551 127.543 66.2827C127.242 67.0103 126.8 67.6713 126.243 68.228L92.2459 102.232C91.684 102.795 91.0129 103.238 90.2739 103.534C89.5349 103.829 88.7433 103.971 87.9476 103.95C87.152 103.93 86.3689 103.747 85.6463 103.413C84.9237 103.079 84.2768 102.602 83.745 102.009Z" fill="black"/>
</svg>
