<svg width="128" height="128" viewBox="0 0 128 128" fill="none" xmlns="http://www.w3.org/2000/svg">
<path d="M30.0918 64.139C29.2937 63.3409 28.8452 62.2583 28.8452 61.1295C28.8452 60.0007 29.2937 58.9181 30.0918 58.1199C30.89 57.3218 31.9726 56.8733 33.1014 56.8733C34.2302 56.8733 35.3127 57.3218 36.1109 58.1199L53.2 75.2118L89.0991 39.3181C89.4943 38.9229 89.9635 38.6094 90.4799 38.3955C90.9963 38.1816 91.5497 38.0715 92.1086 38.0715C92.6676 38.0715 93.221 38.1816 93.7374 38.3955C94.2538 38.6094 94.723 38.9229 95.1182 39.3181C95.5134 39.7133 95.8269 40.1825 96.0408 40.6989C96.2547 41.2153 96.3648 41.7687 96.3648 42.3277C96.3648 42.8866 96.2547 43.44 96.0408 43.9564C95.8269 44.4728 95.5134 44.942 95.1182 45.3372L56.4646 83.9908C56.0364 84.4201 55.5278 84.7606 54.9679 84.9929C54.4079 85.2253 53.8076 85.3449 53.2014 85.3449C52.5951 85.3449 51.9949 85.2253 51.4349 84.9929C50.875 84.7606 50.3663 84.4201 49.9382 83.9908L30.0918 64.139Z" fill="black"/>
<path fill-rule="evenodd" clip-rule="evenodd" d="M64 4C52.1331 4 40.5328 7.51894 30.6658 14.1118C20.7989 20.7047 13.1085 30.0754 8.56725 41.039C4.026 52.0026 2.8378 64.0665 5.15291 75.7054C7.46802 87.3443 13.1825 98.0352 21.5736 106.426C29.9648 114.818 40.6557 120.532 52.2946 122.847C63.9335 125.162 75.9975 123.974 86.961 119.433C97.9246 114.891 107.295 107.201 113.888 97.3342C120.481 87.4673 124 75.8669 124 64C124 48.087 117.679 32.8258 106.426 21.5736C95.1742 10.3214 79.913 4 64 4ZM13.2318 64C13.2318 53.959 16.2093 44.1435 21.7878 35.7947C27.3663 27.4459 35.2952 20.9388 44.5719 17.0963C53.8485 13.2538 64.0563 12.2484 73.9044 14.2073C83.7525 16.1662 92.7985 21.0014 99.8985 28.1015C106.999 35.2015 111.834 44.2475 113.793 54.0956C115.752 63.9437 114.746 74.1515 110.904 83.4281C107.061 92.7048 100.554 100.634 92.2053 106.212C83.8565 111.791 74.041 114.768 64 114.768C50.5357 114.767 37.623 109.418 28.1023 99.8977C18.5816 90.377 13.2326 77.4643 13.2318 64Z" fill="black"/>
</svg>
