<svg width="128" height="128" viewBox="0 0 128 128" fill="none" xmlns="http://www.w3.org/2000/svg">
<path d="M111.212 60.775C111.719 58.9188 112 56.9875 112 55C112 43.3937 102.606 34 91 34C87.8594 34 84.835 34.6797 82 36.0156C76.075 27.5781 66.2125 22 55 22C37.3 22 22.7875 35.95 22.0375 53.5188C11.35 57.2688 4 67.4312 4 79C4 93.925 16.0712 106 31 106H100C113.266 106 124 95.2656 124 82C124 73.1875 119.181 64.9938 111.212 60.775ZM99.1562 100H32.0312C21.0981 100 11.2375 92.095 10.1125 81.2125C9.02312 70.6 15.8631 61.3563 25.4313 58.5813C27.0001 58.1517 28.015 56.6575 28.0056 55.03C28 55.1313 28 55.075 28 55C27.8313 43.6187 34.9562 33.1338 45.7562 29.5356C59.1569 25.0694 71.8563 30.7969 78.0625 40.9525C79.1845 42.7906 81.5031 43.2006 83.3538 42.0983C86.5188 40.2121 90.4375 39.4602 94.5925 40.4131C99.6269 41.5669 103.864 45.4756 105.329 50.4274C106.416 54.1043 106.136 57.6912 104.858 60.7699C104.083 62.6391 105.245 64.6606 107.105 65.2887C114.106 68.2831 118.809 75.6124 117.886 83.8981C116.856 93.3062 108.456 100 99.1562 100ZM51.1188 66.1187L61 56.2375V88C61 89.6582 62.3418 91 64 91C65.6582 91 67 89.6582 67 88V56.2375L76.8794 66.1169C78.0513 67.2888 79.9506 67.2888 81.1206 66.1169C82.2906 64.945 82.2925 63.0456 81.1206 61.8756L66.1206 46.8756C65.5375 46.3 64.7687 46 64 46C63.2313 46 62.4625 46.3 61.8813 46.8812L46.8812 61.8812C45.7094 63.0531 45.7094 64.9525 46.8812 66.1225C48.0531 67.2925 49.9563 67.3 51.1188 66.1187Z" fill="black"/>
</svg>
