<svg width="128" height="128" viewBox="0 0 128 128" fill="none" xmlns="http://www.w3.org/2000/svg">
<path d="M100.355 122.87L64.0769 95.2698L26.2746 124C30.5215 110.138 33.8052 97.6428 38.2711 85.585C38.9225 84.4043 39.3231 83.1018 39.4479 81.7591C39.5728 80.4164 39.4193 79.0624 38.9969 77.7818C38.5744 76.5011 37.892 75.3215 36.9926 74.3167C36.0933 73.3119 34.9965 72.5036 33.7704 71.9423C23.6565 64.937 14.1208 57.1699 3 48.6848H49.4621L63.3153 4.29769L64.6637 4L78.674 48.5359H125.084C120.198 52.3538 116.581 55.2171 112.921 58.0192C105.784 63.4921 98.7528 69.105 91.4235 74.3064C90.0408 75.044 89.0078 76.3006 88.5513 77.7998C88.0948 79.299 88.252 80.9182 88.9891 82.3013C93.3673 95.5237 97.273 108.886 101.362 122.196L100.355 122.87Z" fill="black"/>
</svg>
