<svg width="128" height="128" viewBox="0 0 128 128" fill="none" xmlns="http://www.w3.org/2000/svg">
<path d="M114.559 53.8982C114.144 53.8974 113.733 53.9785 113.35 54.1368C112.966 54.295 112.618 54.5274 112.324 54.8205C112.03 55.1137 111.797 55.4618 111.638 55.8451C111.479 56.2283 111.398 56.6392 111.398 57.0541V101.456C111.398 103.132 110.732 104.739 109.547 105.924C108.363 107.108 106.756 107.774 105.08 107.774H16.635C14.9595 107.774 13.3526 107.108 12.1679 105.924C10.9831 104.739 10.3175 103.132 10.3175 101.456V50.7366C10.3175 49.0611 10.9831 47.4542 12.1679 46.2694C13.3526 45.0847 14.9595 44.4191 16.635 44.4191H60.8576C61.6951 44.4191 62.4984 44.0868 63.0912 43.4951C63.6839 42.9034 64.0176 42.1007 64.0191 41.2631C64.0199 40.8478 63.9386 40.4363 63.78 40.0524C63.6214 39.6685 63.3885 39.3197 63.0948 39.0259C62.8011 38.7322 62.4522 38.4994 62.0683 38.3407C61.6844 38.1821 61.273 38.1008 60.8576 38.1016H16.635C13.284 38.1016 10.0702 39.4328 7.70071 41.8023C5.33119 44.1718 4 47.3856 4 50.7366V101.456C4 104.807 5.33119 108.021 7.70071 110.391C10.0702 112.76 13.284 114.091 16.635 114.091H105.08C108.431 114.091 111.645 112.76 114.014 110.391C116.384 108.021 117.715 104.807 117.715 101.456V57.0541C117.682 56.2277 117.339 55.4441 116.754 54.8593C116.169 54.2745 115.386 53.9314 114.559 53.8982V53.8982ZM121.253 21.3279L115.699 15.7741C114.823 14.893 113.78 14.1943 112.633 13.7182C111.485 13.242 110.254 12.9979 109.011 13C107.767 12.998 106.534 13.2421 105.384 13.7182C104.235 14.1942 103.19 14.893 102.312 15.7741L67.6636 50.4221C65.9038 52.1914 64.7079 54.4426 64.2269 56.8913L60.9193 73.3449C60.8478 73.6645 60.849 73.9962 60.923 74.3154C60.9969 74.6345 61.1417 74.9329 61.3466 75.1885C61.5516 75.4441 61.8113 75.6504 62.1068 75.792C62.4022 75.9336 62.7257 76.007 63.0533 76.0066C63.2116 76.0072 63.3696 75.9921 63.525 75.9617L79.9505 72.671C82.397 72.1829 84.6441 70.9812 86.4084 69.2174L121.056 34.5694C121.968 33.7317 122.699 32.717 123.205 31.5871C123.711 30.4572 123.981 29.236 123.999 27.9982C124.017 26.7603 123.782 25.5318 123.309 24.3878C122.836 23.2438 122.134 22.2084 121.247 21.3447L121.253 21.3279ZM82.1406 64.753C81.2597 65.6372 80.1357 66.2392 78.9116 66.4826L68.242 68.785L70.3703 58.1154C70.6141 56.8915 71.2161 55.7676 72.0999 54.8865L94.6633 32.3232L104.687 42.3469L82.1406 64.753ZM116.789 30.2735L109.151 37.8994L99.1389 27.8925L106.765 20.2553C107.059 19.9599 107.409 19.7258 107.795 19.5668C108.181 19.4077 108.594 19.3268 109.011 19.3288C109.428 19.3259 109.842 19.4063 110.228 19.5654C110.613 19.7246 110.963 19.9591 111.257 20.2553L116.811 25.8091C117.105 26.104 117.338 26.4544 117.497 26.84C117.655 27.2255 117.735 27.6386 117.732 28.0553C117.729 28.4691 117.644 28.8782 117.483 29.2589C117.321 29.6397 117.085 29.9845 116.789 30.2735V30.2735ZM54.5401 85.4857C54.5401 86.3242 54.8732 87.1284 55.4661 87.7213C56.059 88.3142 56.8631 88.6473 57.7016 88.6473H101.924C102.762 88.6473 103.565 88.3149 104.158 87.7232C104.751 87.1316 105.084 86.3288 105.086 85.4913C105.086 85.0769 105.004 84.6665 104.846 84.2836C104.687 83.9007 104.454 83.5528 104.161 83.2597C103.868 82.9667 103.52 82.7342 103.138 82.5756C102.755 82.417 102.344 82.3354 101.93 82.3354H57.7016C56.8752 82.3671 56.091 82.7089 55.5051 83.2926C54.9193 83.8764 54.5747 84.6594 54.5401 85.4857V85.4857ZM44.8645 84.4581C46.4143 76.4783 38.4571 74.4567 33.1897 73.1146L31.9543 72.8114C25.7772 71.1941 25.9512 70.1833 26.1478 69.1219C26.5016 67.2464 29.8765 66.3142 34.3802 66.8757C35.8059 67.1127 37.2119 67.4562 38.5863 67.9034C38.9819 68.0246 39.3975 68.0666 39.8094 68.0269C40.2213 67.9871 40.6213 67.8665 40.9865 67.672C41.3516 67.4774 41.6748 67.2126 41.9375 66.8929C42.2001 66.5732 42.3971 66.2048 42.5171 65.8088C42.7589 65.0097 42.6742 64.1475 42.2816 63.4108C41.8891 62.674 41.2206 62.1228 40.4225 61.8779C38.8107 61.3614 37.1626 60.9654 35.4921 60.693C35.4921 60.4178 35.5538 60.4964 35.5538 60.3954V57.2394C35.5561 56.8258 35.4765 56.4158 35.3198 56.033C35.163 55.6502 34.9321 55.3021 34.6404 55.0088C34.3487 54.7156 34.0019 54.4828 33.6199 54.324C33.238 54.1652 32.8284 54.0835 32.4147 54.0835C31.5747 54.0835 30.7688 54.416 30.1732 55.0084C29.5776 55.6009 29.2408 56.405 29.2363 57.245V60.4066C29.2363 60.4684 29.2644 60.5133 29.27 60.5751C27.121 60.601 25.0409 61.3363 23.353 62.6667C21.6651 63.9971 20.4642 65.848 19.937 67.9315C18.4039 75.8213 26.4623 77.9271 30.337 78.9436L31.623 79.2693C37.991 80.8922 38.9625 81.6952 38.6536 83.2844C38.2886 85.1488 34.7227 86.0922 30.3988 85.4969C28.5168 85.1651 26.6651 84.6806 24.8618 84.0481L23.8791 83.7336C23.08 83.4849 22.215 83.5618 21.4725 83.9478C20.7299 84.3338 20.17 84.9976 19.9145 85.7946C19.6626 86.5936 19.7382 87.4599 20.1246 88.2033C20.511 88.9466 21.1767 89.5062 21.9754 89.7591L22.9244 90.0624C25.0033 90.7825 27.1366 91.3346 29.3037 91.7134C29.3037 91.8088 29.2476 91.9043 29.2476 92.0054V95.1669C29.2505 96.0074 29.5869 96.8124 30.1828 97.4052C30.7787 97.9979 31.5855 98.33 32.426 98.3285C32.8444 98.3315 33.2592 98.2509 33.646 98.0913C34.0328 97.9318 34.3838 97.6965 34.6783 97.3993C34.9729 97.1021 35.205 96.7491 35.3612 96.3609C35.5173 95.9727 35.5943 95.5572 35.5875 95.1388V91.9829C35.5875 91.8818 35.537 91.7976 35.5314 91.7021C37.6573 91.6519 39.7111 90.9211 41.391 89.6173C43.0709 88.3134 44.2884 86.5051 44.8645 84.4581V84.4581Z" fill="black"/>
</svg>
