<svg width="128" height="128" viewBox="0 0 128 128" fill="none" xmlns="http://www.w3.org/2000/svg">
<path d="M123.988 64C123.99 59.9655 122.988 55.9939 121.071 52.4438C119.154 48.8938 116.383 45.8771 113.008 43.666C113.832 39.7252 113.659 35.6413 112.507 31.7839C111.354 27.9264 109.258 24.4173 106.408 21.574C103.562 18.7204 100.049 16.6223 96.1869 15.4698C92.325 14.3173 88.2365 14.1469 84.2921 14.974C82.0633 11.6237 79.0468 8.87133 75.5069 6.95807C71.967 5.04481 68.0118 4.02911 63.9881 4C59.9307 4.02534 55.9401 5.03564 52.3595 6.94406C48.7789 8.85248 45.7153 11.6019 43.4321 14.956C39.5253 14.1522 35.4799 14.3347 31.6614 15.4871C27.843 16.6394 24.3719 18.7252 21.5621 21.556C18.704 24.3972 16.6003 27.9068 15.4415 31.7666C14.2827 35.6264 14.1056 39.7144 14.9261 43.66C11.5605 45.8779 8.79965 48.8983 6.89229 52.4491C4.98493 55.9998 3.991 59.9694 4.00006 64C4.00068 68.0287 4.99946 71.9944 6.90713 75.5427C8.8148 79.0911 11.5719 82.1115 14.9321 84.334C14.1186 88.2769 14.2992 92.3603 15.4577 96.216C16.6162 100.072 18.7161 103.578 21.5681 106.42C24.3987 109.28 27.9012 111.385 31.7553 112.542C35.6094 113.699 39.6921 113.872 43.6301 113.044C45.852 116.412 48.8751 119.176 52.4281 121.088C55.9811 123 59.9532 124.001 63.9881 124C68.0162 124 71.9813 122.999 75.5266 121.087C79.0718 119.174 82.086 116.41 84.2981 113.044C88.2426 113.868 92.3302 113.696 96.1915 112.544C100.053 111.391 103.566 109.295 106.414 106.444C109.269 103.604 111.368 100.095 112.521 96.2365C113.673 92.3781 113.843 88.2927 113.014 84.352C116.391 82.139 119.162 79.1191 121.078 75.5657C122.994 72.0122 123.994 68.0371 123.988 64ZM86.5361 54.646L60.3101 80.896C59.8843 81.494 59.3164 81.9766 58.6575 82.3003C57.9987 82.6239 57.2696 82.7785 56.5361 82.75C55.0437 82.7492 53.6129 82.1557 52.5581 81.1L41.3081 69.85C40.7852 69.3279 40.3704 68.7078 40.0874 68.0252C39.8044 67.3426 39.6588 66.6109 39.6588 65.872C39.6588 65.1331 39.8044 64.4014 40.0874 63.7188C40.3704 63.0362 40.7852 62.4161 41.3081 61.894C41.8302 61.3712 42.4503 60.9564 43.1329 60.6734C43.8155 60.3904 44.5471 60.2447 45.2861 60.2447C46.025 60.2447 46.7567 60.3904 47.4392 60.6734C48.1218 60.9564 48.7419 61.3712 49.2641 61.894L56.5361 69.178L78.8081 46.906C79.3302 46.3832 79.9503 45.9684 80.6329 45.6854C81.3155 45.4024 82.0471 45.2567 82.7861 45.2567C83.525 45.2567 84.2567 45.4024 84.9392 45.6854C85.6218 45.9684 86.2419 46.3832 86.7641 46.906C87.2914 47.4106 87.707 48.0204 87.9838 48.6957C88.2606 49.3711 88.3925 50.0971 88.3711 50.8267C88.3496 51.5563 88.1751 52.2732 87.859 52.9312C87.5429 53.5891 87.0922 54.1733 86.5361 54.646V54.646Z" fill="black"/>
</svg>
