<svg width="139" height="128" viewBox="0 0 139 128" fill="none" xmlns="http://www.w3.org/2000/svg">
<path d="M138.969 26.0439C138.791 26.8376 138.637 27.6374 138.428 28.4188C137.583 31.4395 135.94 34.1769 133.672 36.3433C110.501 59.4893 87.3388 82.6456 64.1845 105.812C62.388 107.609 60.6163 109.424 58.789 111.177C58.3476 111.599 57.8018 111.897 57.2077 112.039C44.8123 114.643 32.4107 117.227 20.003 119.791C19.8189 119.845 19.64 119.915 19.4679 120L19 119.532C19.7075 116.296 20.4337 113.072 21.1104 109.83C23.0793 100.404 25.0174 90.9721 27.0047 81.5279C27.1324 81.0453 27.3897 80.607 27.749 80.2605C52.8884 55.1005 78.0362 29.9487 103.192 4.80517C105.622 2.33717 108.787 0.724381 112.212 0.209179C112.393 0.159339 112.569 0.0891753 112.735 0H116.715C116.887 0.0836793 117.066 0.149647 117.251 0.19688C120.678 0.684047 123.854 2.27605 126.295 4.73133C128.986 7.39745 131.652 10.0759 134.293 12.7666C136.231 14.7126 137.622 17.1335 138.329 19.7867C138.551 20.605 138.742 21.4356 138.945 22.2477L138.969 26.0439ZM44.2194 89.477L96.8855 36.8171L89.1888 29.0771L36.4919 81.7678L44.2194 89.477ZM57.2817 102.514L109.954 49.8421L102.195 42.0837L49.523 94.7498L57.2817 102.514ZM125.034 34.8728C126.473 33.4639 128.073 32.0303 129.513 30.4614C131.077 28.7883 131.954 26.5874 131.969 24.2968C131.984 22.0062 131.136 19.7941 129.593 18.1009C126.818 15.0923 123.914 12.1944 120.912 9.41346C119.341 7.94503 117.293 7.09387 115.145 7.01698C112.997 6.94009 110.893 7.64266 109.222 8.99508C107.485 10.612 105.865 12.3493 104.373 14.194L125.034 34.8728ZM28.0569 110.956L50.5384 106.274L32.7325 88.468L28.0569 110.956ZM94.5479 23.7551L115.22 44.4217L119.657 39.9979L98.9776 19.2945L94.5479 23.7551Z" fill="black"/>
</svg>
