<svg width="128" height="128" viewBox="0 0 128 128" fill="none" xmlns="http://www.w3.org/2000/svg">
<path fill-rule="evenodd" clip-rule="evenodd" d="M63.5 7C31.7436 7 6 32.7436 6 64.5C6 96.2564 31.7436 122 63.5 122C95.2564 122 121 96.2564 121 64.5C121 32.7436 95.2564 7 63.5 7ZM1 64.5C1 29.9822 28.9822 2 63.5 2C98.0178 2 126 29.9822 126 64.5C126 99.0178 98.0178 127 63.5 127C28.9822 127 1 99.0178 1 64.5Z" fill="black"/>
<path fill-rule="evenodd" clip-rule="evenodd" d="M70.1275 35.3275C72.9833 35.2399 75.8099 35.9266 78.3074 37.3153C80.8177 38.7111 82.9009 40.7635 84.3341 43.2526C85.023 44.4491 84.6115 45.9776 83.415 46.6666C82.2184 47.3555 80.6899 46.944 80.001 45.7475C79.0204 44.0444 77.5951 42.6402 75.8776 41.6852C74.1601 40.7302 72.2152 40.2604 70.2511 40.3261C70.2233 40.3271 70.1954 40.3275 70.1675 40.3275H56.8325C53.9592 40.3275 51.2036 41.4689 49.1719 43.5007C47.1402 45.5324 45.9988 48.288 45.9988 51.1613C45.9988 54.0346 47.1402 56.7902 49.1719 58.8219C51.2036 60.8536 53.9592 61.995 56.8325 61.995H70.165C74.3644 61.995 78.3918 63.6632 81.3612 66.6326C84.3306 69.602 85.9988 73.6294 85.9988 77.8288C85.9988 82.0281 84.3306 86.0555 81.3612 89.0249C78.3918 91.9943 74.3644 93.6625 70.165 93.6625H56.8728C54.0177 93.7507 51.1916 93.0649 48.6942 91.6773C46.184 90.2825 44.1004 88.2314 42.6665 85.7434C41.9771 84.5471 42.3879 83.0185 43.5842 82.329C44.7804 81.6396 46.3091 82.0504 46.9985 83.2467C47.9796 84.949 49.4052 86.3523 51.1227 87.3066C52.8401 88.2609 54.7848 88.7301 56.7484 88.6639C56.7764 88.663 56.8045 88.6625 56.8325 88.6625H70.165C73.0383 88.6625 75.7939 87.5211 77.8256 85.4894C79.8574 83.4577 80.9988 80.7021 80.9988 77.8288C80.9988 74.9555 79.8574 72.1999 77.8256 70.1682C75.7939 68.1364 73.0383 66.995 70.165 66.995H56.8325C52.6332 66.995 48.6058 65.3268 45.6364 62.3574C42.667 59.388 40.9988 55.3606 40.9988 51.1613C40.9988 46.9619 42.667 42.9345 45.6364 39.9651C48.6058 36.9957 52.6332 35.3275 56.8325 35.3275H70.1275Z" fill="black"/>
<path fill-rule="evenodd" clip-rule="evenodd" d="M63.5 22C64.8807 22 66 23.1193 66 24.5V37.8325C66 39.2132 64.8807 40.3325 63.5 40.3325C62.1193 40.3325 61 39.2132 61 37.8325V24.5C61 23.1193 62.1193 22 63.5 22ZM63.5 88.665C64.8807 88.665 66 89.7843 66 91.165V104.5C66 105.881 64.8807 107 63.5 107C62.1193 107 61 105.881 61 104.5V91.165C61 89.7843 62.1193 88.665 63.5 88.665Z" fill="black"/>
</svg>
