<svg width="128" height="128" viewBox="0 0 128 128" fill="none" xmlns="http://www.w3.org/2000/svg">
<path d="M115.592 4.04474C114.028 4.04846 112.482 4.38704 111.06 5.03771C103.216 9.02703 94.5972 11.2602 85.8028 11.5819C71.7547 11.5819 63.5911 4.11805 47.4038 4.11805C36.3053 4.51501 25.3894 7.06347 15.2625 11.6219V9.66265C15.2572 8.17024 14.6611 6.74066 13.6045 5.68661C12.548 4.63256 11.117 4.03983 9.62457 4.03808C8.88538 4.03808 8.15344 4.18378 7.4706 4.46686C6.78776 4.74994 6.16742 5.16484 5.64504 5.68783C5.12267 6.21083 4.7085 6.83166 4.42623 7.51484C4.14397 8.19801 3.99913 8.93012 4 9.66931V118.375C4 119.867 4.59259 121.298 5.6474 122.353C6.70221 123.407 8.13284 124 9.62457 124C11.1163 124 12.5469 123.407 13.6017 122.353C14.6566 121.298 15.2491 119.867 15.2491 118.375V94.0112C24.9654 89.3285 35.5742 86.7877 46.3575 86.5606C63.6111 86.5606 75.62 94.0045 92.8869 94.0045C101.831 93.8945 110.67 92.057 118.917 88.5932C120.354 88.1322 121.611 87.235 122.514 86.0263C123.417 84.8175 123.921 83.3574 123.955 81.8491V11.2087C123.909 10.1778 123.651 9.16738 123.199 8.23988C122.746 7.31238 122.108 6.48748 121.324 5.81612C120.541 5.14477 119.628 4.64121 118.642 4.33654C117.656 4.03187 116.618 3.93256 115.592 4.04474V4.04474ZM112.713 78.9701C106.374 81.3629 99.6682 82.6391 92.8935 82.7421C85.9485 82.4969 79.0637 81.3614 72.4078 79.3633C63.9443 76.8833 55.1941 75.5145 46.3775 75.2915C35.6855 75.4453 25.1225 77.6511 15.2625 81.7891V23.7507L19.4876 22.038C28.2932 18.0732 37.77 15.812 47.4171 15.3738C53.2917 15.5304 59.0978 16.6772 64.5907 18.7659C71.3916 21.2809 78.5608 22.6567 85.8095 22.8377C95.1133 22.6167 104.273 20.494 112.726 16.6001V78.9768L112.713 78.9701Z" fill="black"/>
</svg>
