<svg width="128" height="128" viewBox="0 0 128 128" fill="none" xmlns="http://www.w3.org/2000/svg">
<path d="M104.62 25.888L87.13 8.392C84.3105 5.58434 80.495 4.00554 76.516 4H34C30.0218 4 26.2064 5.58035 23.3934 8.3934C20.5804 11.2064 19 15.0218 19 19L19 109C19 112.978 20.5804 116.794 23.3934 119.607C26.2064 122.42 30.0218 124 34 124H94C97.9748 123.989 101.784 122.405 104.594 119.594C107.405 116.784 108.989 112.975 109 109V36.484C109.001 32.5113 107.426 28.7006 104.62 25.888V25.888ZM97.75 109C97.75 109.995 97.3549 110.948 96.6517 111.652C95.9484 112.355 94.9946 112.75 94 112.75H34C33.0065 112.748 32.0542 112.353 31.3522 111.65C30.6503 110.946 30.256 109.994 30.256 109V19.03C30.256 18.0365 30.6503 17.0836 31.3522 16.3805C32.0542 15.6774 33.0065 15.2816 34 15.28H71.5V34C71.5 35.9891 72.2902 37.8968 73.6967 39.3033C75.1032 40.7098 77.0109 41.5 79 41.5H97.54V109H97.75ZM41.5 69.628C41.5 71.1206 42.0929 72.5521 43.1484 73.6076C44.2039 74.6631 45.6354 75.256 47.128 75.256H80.878C81.6172 75.2584 82.3497 75.1146 83.0332 74.833C83.7167 74.5514 84.3378 74.1375 84.8608 73.615C85.3838 73.0926 85.7984 72.4719 86.0807 71.7887C86.3631 71.1055 86.5076 70.3732 86.506 69.634C86.5076 68.8953 86.3632 68.1635 86.0813 67.4807C85.7993 66.7979 85.3852 66.1775 84.8629 65.6551C84.3405 65.1328 83.7201 64.7187 83.0373 64.4367C82.3545 64.1548 81.6227 64.0104 80.884 64.012H47.122C45.6334 64.0167 44.2071 64.6098 43.154 65.6618C42.1009 66.7138 41.5063 68.1395 41.5 69.628V69.628ZM80.872 86.5H47.122C45.6303 86.5032 44.2007 87.0971 43.1459 88.1519C42.0911 89.2067 41.4972 90.6363 41.494 92.128C41.4956 93.6201 42.089 95.0507 43.1442 96.1058C44.1993 97.161 45.6298 97.7544 47.122 97.756H80.872C82.3636 97.756 83.7942 97.1639 84.8495 96.1097C85.9048 95.0556 86.4984 93.6256 86.5 92.134C86.5024 91.394 86.3585 90.6608 86.0765 89.9765C85.7946 89.2923 85.3803 88.6706 84.8573 88.147C84.3343 87.6234 83.7129 87.2084 83.029 86.9258C82.3451 86.6431 81.612 86.4984 80.872 86.5V86.5Z" fill="black"/>
</svg>
