<svg width="128" height="128" viewBox="0 0 128 128" fill="none" xmlns="http://www.w3.org/2000/svg">
<path d="M23.0011 113.456V14.5442C22.9806 13.5257 23.2467 12.5219 23.7692 11.6474C24.2917 10.7729 25.0494 10.0628 25.956 9.59818C26.8626 9.13355 27.8815 8.93309 28.8965 9.01966C29.9116 9.10623 30.8818 9.47634 31.6966 10.0878L103.598 59.5435C104.326 60.0426 104.922 60.7117 105.334 61.493C105.746 62.2742 105.961 63.144 105.961 64.0272C105.961 64.9103 105.746 65.7801 105.334 66.5614C104.922 67.3426 104.326 68.0117 103.598 68.5108L31.6966 117.912C30.8818 118.524 29.9116 118.894 28.8965 118.98C27.8815 119.067 26.8626 118.866 25.956 118.402C25.0494 117.937 24.2917 117.227 23.7692 116.353C23.2467 115.478 22.9806 114.474 23.0011 113.456Z" fill="black"/>
</svg>
