<svg width="128" height="128" viewBox="0 0 128 128" fill="none" xmlns="http://www.w3.org/2000/svg">
<path d="M52 91H40V81.8491C48.193 81.0926 55.8089 77.3062 61.3575 71.2307C66.906 65.1552 69.9879 57.2279 70 49C69.9891 40.2512 66.5088 31.8638 60.3225 25.6775C54.1362 19.4912 45.7488 16.0109 37 16C28.2518 16.0109 19.865 19.4907 13.6787 25.6763C7.49247 31.8619 4.01179 40.2484 4 48.9966C4.01126 57.225 7.09272 65.1532 12.6414 71.2294C18.19 77.3056 25.8064 81.0926 34 81.8491V91H22C21.6059 90.9995 21.2156 91.0768 20.8514 91.2274C20.4872 91.378 20.1563 91.599 19.8777 91.8777C19.599 92.1563 19.378 92.4872 19.2274 92.8514C19.0768 93.2156 18.9995 93.6059 19 94C18.9995 94.3941 19.0768 94.7844 19.2274 95.1486C19.378 95.5128 19.599 95.8437 19.8777 96.1223C20.1563 96.401 20.4872 96.622 20.8514 96.7726C21.2156 96.9232 21.6059 97.0005 22 97H34V109C34 109.796 34.3161 110.559 34.8787 111.121C35.4413 111.684 36.2044 112 37 112C37.7956 112 38.5587 111.684 39.1213 111.121C39.6839 110.559 40 109.796 40 109V97H52C52.3941 97.0005 52.7844 96.9232 53.1486 96.7726C53.5128 96.622 53.8437 96.401 54.1223 96.1223C54.401 95.8437 54.622 95.5128 54.7726 95.1486C54.9232 94.7844 55.0005 94.3941 55 94C54.9991 93.2046 54.6827 92.4421 54.1203 91.8797C53.5579 91.3173 52.7954 91.0009 52 91V91ZM37 76C29.8417 75.9918 22.9789 73.1446 17.9171 68.0829C12.8554 63.0212 10.0082 56.1583 10 49C10.0082 41.8417 12.8554 34.9789 17.9171 29.9171C22.9789 24.8554 29.8417 22.0082 37 22C44.1586 22.0073 51.022 24.8542 56.0839 29.9161C61.1458 34.978 63.9927 41.8414 64 49C63.9918 56.1583 61.1446 63.0212 56.0829 68.0829C51.0212 73.1446 44.1583 75.9918 37 76V76ZM123.774 17.8549C123.623 17.4905 123.402 17.1593 123.123 16.8805C122.844 16.6016 122.513 16.3805 122.149 16.2297C121.783 16.078 121.392 15.9999 120.997 16H96.9966C96.2012 16.0009 95.4387 16.3173 94.8763 16.8797C94.3138 17.4421 93.9975 18.2046 93.9966 19C93.9975 19.7954 94.3138 20.5579 94.8763 21.1203C95.4387 21.6827 96.2012 21.9991 96.9966 22H113.755L100.103 35.656C94.1823 30.7043 86.708 27.994 78.9897 28C77.8823 28 76.7954 28.0514 75.7154 28.1509C74.9231 28.2272 74.1936 28.615 73.687 29.2289C73.1804 29.8429 72.9383 30.6328 73.0137 31.4251C73.102 32.2124 73.493 32.9345 74.1041 33.4387C74.7151 33.9429 75.4983 34.1897 76.288 34.1269C77.1794 34.0377 78.0811 33.9897 79 33.9897C86.1583 33.9979 93.0211 36.8451 98.0829 41.9069C103.145 46.9686 105.992 53.8314 106 60.9897C105.995 68.1498 103.149 75.0153 98.0865 80.0792C93.0245 85.1432 86.1601 87.9918 79 88C73.1568 88.0175 67.4684 86.1221 62.8034 82.6034C62.4889 82.3653 62.1304 82.1917 61.7486 82.0925C61.3667 81.9934 60.969 81.9708 60.5784 82.0259C60.1877 82.081 59.8118 82.2128 59.4723 82.4137C59.1328 82.6146 58.8363 82.8807 58.6 83.1966C58.3636 83.5117 58.1916 83.8704 58.0939 84.252C57.9961 84.6337 57.9744 85.0308 58.0302 85.4208C58.1427 86.2085 58.5635 86.9192 59.2 87.3966C64.9021 91.7003 71.8561 94.0195 79 94C87.7482 93.9873 96.1346 90.5065 102.321 84.3205C108.506 78.1346 111.987 69.7482 112 61C112.006 53.2878 109.296 45.8199 104.344 39.9074L118 26.2446V43C118.003 43.7948 118.32 44.5563 118.882 45.1183C119.444 45.6804 120.205 45.9973 121 46C121.795 45.9973 122.556 45.6804 123.118 45.1183C123.68 44.5563 123.997 43.7948 124 43V19C124 18.6072 123.923 18.2183 123.774 17.8549V17.8549Z" fill="black"/>
</svg>
