<svg width="128" height="128" viewBox="0 0 128 128" fill="none" xmlns="http://www.w3.org/2000/svg">
<path d="M94.4996 33.979C97.483 33.9756 100.343 32.7886 102.452 30.6787C104.561 28.5687 105.747 25.7081 105.75 22.7247C105.75 17.0505 96.9639 5.92052 95.9653 4.66909C95.7868 4.45491 95.5623 4.28362 95.3086 4.16789C95.0549 4.05217 94.7784 3.99496 94.4996 4.00052C94.2212 3.99444 93.9449 4.05097 93.6912 4.16595C93.4375 4.28092 93.2129 4.45141 93.0339 4.66481C92.0397 5.91195 83.2497 17.0419 83.2497 22.7162C83.252 25.7003 84.4375 28.5618 86.5464 30.6731C88.6554 32.7844 91.5155 33.9733 94.4996 33.979V33.979ZM94.4996 15.4176C96.1228 17.6352 97.3882 20.0936 98.2496 22.7033C98.2485 23.6979 97.8532 24.6515 97.1503 25.3552C96.4474 26.0589 95.4942 26.4553 94.4996 26.4576C93.5241 26.4614 92.5857 26.084 91.8844 25.4059C91.1831 24.7278 90.7744 23.8027 90.7454 22.8276C91.5856 20.1686 92.8536 17.6643 94.4996 15.4133V15.4176ZM64.4998 33.979C67.4831 33.9756 70.3433 32.7886 72.4524 30.6787C74.5616 28.5687 75.7475 25.7081 75.7497 22.7247C75.7497 17.0505 66.964 5.92052 65.9655 4.66909C65.7869 4.45491 65.5625 4.28362 65.3088 4.16789C65.0551 4.05217 64.7786 3.99496 64.4998 4.00052C64.2231 3.99389 63.9485 4.05025 63.6968 4.16533C63.4451 4.28041 63.2229 4.45121 63.0469 4.66481C62.0398 5.91195 53.2498 17.0419 53.2498 22.7162C53.2521 25.7003 54.4377 28.5618 56.5466 30.6731C58.6555 32.7844 61.5156 33.9733 64.4998 33.979V33.979ZM64.4998 15.4176C66.123 17.6352 67.3883 20.0936 68.2498 22.7033C68.2486 23.6979 67.8533 24.6515 67.1504 25.3552C66.4475 26.0589 65.4944 26.4553 64.4998 26.4576C63.5117 26.4335 62.5659 26.0519 61.8377 25.3836C61.1095 24.7153 60.6484 23.8057 60.5398 22.8233C61.5752 20.2115 62.9037 17.7256 64.4998 15.4133V15.4176ZM34.4999 33.979C37.4833 33.9756 40.3434 32.7886 42.4526 30.6787C44.5617 28.5687 45.7476 25.7081 45.7499 22.7247C45.7499 17.0505 36.9642 5.92052 35.9656 4.66909C35.7864 4.45562 35.5619 4.28482 35.3083 4.16916C35.0547 4.0535 34.7786 3.99589 34.4999 4.00052C34.2216 3.99536 33.9456 4.05231 33.6921 4.16722C33.4385 4.28213 33.2138 4.45212 33.0342 4.66481C32.0313 5.91195 23.25 17.0419 23.25 22.7162C23.2533 25.7 24.4393 28.5608 26.548 30.6719C28.6566 32.783 31.5161 33.9722 34.4999 33.979V33.979ZM34.4999 15.4176C36.121 17.6358 37.3849 20.0941 38.2456 22.7033C38.2445 23.6979 37.8492 24.6515 37.1463 25.3552C36.4434 26.0589 35.4902 26.4553 34.4956 26.4576C33.5194 26.4613 32.5804 26.0834 31.879 25.4044C31.1775 24.7254 30.7693 23.7991 30.7413 22.8233C31.5753 20.157 32.8454 17.6473 34.4999 15.3962V15.4176ZM101.785 56.2903L98.2453 56.4789V45.2503C98.2465 44.2543 97.8522 43.2984 97.149 42.5929C96.4459 41.8874 95.4914 41.4898 94.4954 41.4875C93.5 41.492 92.5468 41.8903 91.8442 42.5954C91.1415 43.3004 90.7465 44.2549 90.7454 45.2503V56.4789H68.2455V45.2503C68.2466 44.2543 67.8523 43.2984 67.1492 42.5929C66.446 41.8874 65.4916 41.4898 64.4955 41.4875C63.5001 41.492 62.547 41.8903 61.8443 42.5954C61.1417 43.3004 60.7466 44.2549 60.7455 45.2503V56.4789H38.2499V45.2503C38.251 44.2543 37.8567 43.2984 37.1536 42.5929C36.4504 41.8874 35.496 41.4898 34.4999 41.4875C33.5045 41.492 32.5514 41.8903 31.8487 42.5954C31.1461 43.3004 30.751 44.2549 30.7499 45.2503V56.4789L26.9999 56.286C23.0537 56.2745 19.2628 57.8229 16.4532 60.594C13.6436 63.3651 12.043 67.1342 12 71.0802L12 112.75C12 115.734 13.1853 118.595 15.295 120.705C17.4048 122.815 20.2663 124 23.25 124H105.75C108.733 124 111.595 122.815 113.705 120.705C115.814 118.595 117 115.734 117 112.75V71.2859C116.955 67.285 115.332 63.4635 112.483 60.654C109.634 57.8445 105.791 56.2745 101.79 56.286L101.785 56.2903ZM109.5 112.75C109.498 113.744 109.103 114.697 108.4 115.4C107.697 116.103 106.744 116.499 105.75 116.5H23.25C22.2561 116.498 21.3036 116.102 20.6008 115.399C19.898 114.696 19.5022 113.744 19.5 112.75V97.7501C25.0415 97.3334 30.3014 95.1423 34.4999 91.5016C38.6991 95.1412 43.9586 97.3322 49.4998 97.7501C55.0414 97.3334 60.3012 95.1423 64.4998 91.5016C68.699 95.1412 73.9584 97.3322 79.4997 97.7501C85.0413 97.3334 90.3011 95.1423 94.4996 91.5016C98.6988 95.1412 103.958 97.3322 109.5 97.7501V112.75ZM109.5 90.0359C104.797 89.294 100.463 87.0456 97.1482 83.6287C96.4454 82.9287 95.4938 82.5356 94.5018 82.5356C93.5098 82.5356 92.5582 82.9287 91.8554 83.6287C88.5948 87.1207 84.2321 89.3846 79.4997 90.0401C74.7981 89.2962 70.4644 87.0481 67.1483 83.633C66.4455 82.933 65.4939 82.5399 64.5019 82.5399C63.5099 82.5399 62.5583 82.933 61.8555 83.633C58.5943 87.1234 54.2317 89.3857 49.4998 90.0401C44.7982 89.2962 40.4645 87.0481 37.1485 83.633C36.4456 82.933 35.494 82.5399 34.502 82.5399C33.51 82.5399 32.5585 82.933 31.8556 83.633C28.5977 87.1277 24.2334 89.3908 19.5 90.0401V71.4788C19.5022 69.4904 20.2931 67.5841 21.6992 66.178C23.1052 64.772 25.0115 63.9811 26.9999 63.9788H30.7499V67.7502C30.7499 68.2423 30.847 68.7295 31.0355 69.184C31.2241 69.6385 31.5005 70.0513 31.8488 70.3989C32.1971 70.7464 32.6106 71.0218 33.0655 71.2093C33.5204 71.3968 34.0079 71.4928 34.4999 71.4917C34.9918 71.4922 35.479 71.3959 35.9336 71.2082C36.3883 71.0205 36.8015 70.745 37.1498 70.3976C37.498 70.0502 37.7744 69.6376 37.9631 69.1833C38.1519 68.7291 38.2493 68.2421 38.2499 67.7502V63.9788H60.7498V67.7502C60.7498 68.2423 60.8468 68.7295 61.0354 69.184C61.224 69.6385 61.5003 70.0513 61.8486 70.3989C62.197 70.7464 62.6104 71.0218 63.0654 71.2093C63.5203 71.3968 64.0077 71.4928 64.4998 71.4917C64.9917 71.4922 65.4788 71.3959 65.9335 71.2082C66.3882 71.0205 66.8014 70.745 67.1496 70.3976C67.4979 70.0502 67.7742 69.6376 67.963 69.1833C68.1517 68.7291 68.2492 68.2421 68.2498 67.7502V63.9788H90.7497V67.7502C90.7497 68.2423 90.8467 68.7295 91.0353 69.184C91.2238 69.6385 91.5002 70.0513 91.8485 70.3989C92.1969 70.7464 92.6103 71.0218 93.0652 71.2093C93.5201 71.3968 94.0076 71.4928 94.4996 71.4917C94.9915 71.4922 95.4787 71.3959 95.9334 71.2082C96.388 71.0205 96.8013 70.745 97.1495 70.3976C97.4977 70.0502 97.7741 69.6376 97.9629 69.1833C98.1516 68.7291 98.2491 68.2421 98.2496 67.7502V63.9788H102C103.988 63.9834 105.893 64.7748 107.299 66.1803C108.706 67.5857 109.498 69.4907 109.504 71.4788V90.0401L109.5 90.0359Z" fill="black"/>
</svg>
