<svg width="128" height="128" viewBox="0 0 128 128" fill="none" xmlns="http://www.w3.org/2000/svg">
<path d="M121.232 108.01L93.1898 79.9598C99.8905 70.0011 102.68 57.9199 101.025 46.0315C99.5151 35.4793 94.6052 25.7074 87.04 18.1976C79.4748 10.6879 69.667 5.85003 59.104 4.4177C51.6892 3.44065 44.1491 4.18314 37.0673 6.5877C29.9855 8.99225 23.5522 12.9944 18.2653 18.2842C12.9784 23.574 8.97978 30.0095 6.57911 37.0926C4.17844 44.1757 3.44008 51.7162 4.4212 59.1305C5.85235 69.6939 10.6898 79.5024 18.1998 87.0678C25.7097 94.6333 35.4823 99.5428 46.035 101.052C57.917 102.699 69.9892 99.9066 79.9408 93.2088L107.991 121.259C108.861 122.128 109.893 122.818 111.03 123.288C112.166 123.758 113.384 124 114.614 124C115.844 124 117.062 123.757 118.198 123.286C119.334 122.815 120.367 122.125 121.236 121.255C122.105 120.385 122.795 119.352 123.265 118.216C123.736 117.079 123.978 115.862 123.977 114.632C123.977 113.402 123.734 112.184 123.263 111.048C122.792 109.912 122.102 108.879 121.232 108.01V108.01ZM71.4906 58.4031H58.1592V71.5246C58.1716 72.9838 57.6118 74.3897 56.5998 75.4409C55.5878 76.4921 54.2042 77.105 52.7457 77.1481C52.0066 77.1501 51.2745 77.006 50.5913 76.7241C49.9082 76.4422 49.2874 76.028 48.7649 75.5054C48.2423 74.9828 47.8281 74.3621 47.5462 73.679C47.2643 72.9958 47.1202 72.2637 47.1222 71.5246V58.4031H33.7908C32.3316 58.362 30.9469 57.7497 29.9345 56.698C28.9221 55.6464 28.3629 54.2394 28.3772 52.7797C28.3648 51.3205 28.9246 49.9146 29.9366 48.8634C30.9486 47.8121 32.3322 47.1993 33.7908 47.1562H47.1222V34.0347C47.1098 32.5756 47.6696 31.1697 48.6816 30.1184C49.6936 29.0672 51.0772 28.4543 52.5357 28.4112C54.0164 28.4455 55.4269 29.049 56.4742 30.0963C57.5214 31.1436 58.1249 32.5541 58.1592 34.0347V47.1562H71.2807C72.0353 47.1332 72.787 47.2613 73.4913 47.5332C74.1957 47.805 74.8386 48.2149 75.3821 48.7389C75.9257 49.2629 76.3589 49.8904 76.6564 50.5843C76.9538 51.2783 77.1095 52.0247 77.1141 52.7797C77.1161 53.5187 76.972 54.2509 76.6901 54.934C76.4082 55.6172 75.994 56.2379 75.4714 56.7605C74.9489 57.2831 74.3281 57.6972 73.645 57.9791C72.9618 58.261 72.2297 58.4051 71.4906 58.4031Z" fill="black"/>
</svg>
