<svg width="128" height="128" viewBox="0 0 128 128" fill="none" xmlns="http://www.w3.org/2000/svg">
<path d="M123.805 94.6953L118.352 118.327C117.985 119.944 117.078 121.387 115.78 122.418C114.482 123.45 112.871 124.008 111.213 124C82.785 123.97 55.5304 112.663 35.4303 92.5602C15.3301 72.4576 4.02647 45.2016 4 16.7739C3.9986 15.1214 4.5595 13.5176 5.59048 12.2262C6.62147 10.9347 8.06118 10.0325 9.67295 9.66777L33.3313 4.18814C35.0052 3.8015 36.7616 4.01482 38.2943 4.79088C39.8269 5.56695 41.0384 6.85648 41.7174 8.43452L52.59 33.8661C53.2094 35.3259 53.339 36.9471 52.9592 38.4867C52.5794 40.0263 51.7107 41.4013 50.4835 42.4055L37.8643 52.5382C45.8528 68.7839 58.996 81.9271 75.2418 89.9156L85.5744 77.3098C86.575 76.0757 87.9512 75.2021 89.4938 74.8219C91.0364 74.4416 92.661 74.5756 94.1205 75.2033L119.545 86.1025C121.089 86.8821 122.338 88.1407 123.106 89.6897C123.874 91.2388 124.119 92.995 123.805 94.6953V94.6953Z" fill="black"/>
</svg>
