<svg width="128" height="138" viewBox="0 0 128 138" fill="none" xmlns="http://www.w3.org/2000/svg">
<path fill-rule="evenodd" clip-rule="evenodd" d="M63.9999 44.5696C55.479 44.5696 48.5714 51.4772 48.5714 59.9982C48.5714 68.5192 55.479 75.4268 63.9999 75.4268C72.5209 75.4268 79.4285 68.5192 79.4285 59.9982C79.4285 51.4772 72.5209 44.5696 63.9999 44.5696ZM38.2856 59.9982C38.2856 45.7966 49.7983 34.2839 63.9999 34.2839C78.2015 34.2839 89.7142 45.7966 89.7142 59.9982C89.7142 74.1998 78.2015 85.7125 63.9999 85.7125C49.7983 85.7125 38.2856 74.1998 38.2856 59.9982Z" fill="black"/>
<path fill-rule="evenodd" clip-rule="evenodd" d="M64 10.2857C54.1676 10.2857 44.5559 13.2013 36.3805 18.6639C28.2051 24.1265 21.8331 31.8906 18.0703 40.9746C14.3074 50.0585 13.3228 60.0542 15.2408 69.6978C17.1588 79.3411 21.8932 88.1991 28.8453 95.1518C28.8455 95.152 28.8451 95.1517 28.8453 95.1518L57.9456 124.245C59.5528 125.851 61.7316 126.753 64.0034 126.753C66.2752 126.753 68.4541 125.851 70.0613 124.245L99.1542 95.1524C106.107 88.1996 110.841 79.3414 112.759 69.6978C114.677 60.0542 113.693 50.0585 109.93 40.9746C106.167 31.8906 99.7949 24.1265 91.6195 18.6639C83.4441 13.2013 73.8324 10.2857 64 10.2857ZM30.6661 10.1116C40.533 3.51886 52.1333 0 64 0C75.8667 0 87.467 3.51886 97.3339 10.1116C107.201 16.7043 114.891 26.0749 119.432 37.0383C123.974 48.0016 125.162 60.0655 122.847 71.7042C120.532 83.343 114.818 94.034 106.427 102.425L77.3325 131.52C73.7967 135.052 69.0014 137.038 64.0034 137.038C59.0055 137.038 54.212 135.054 50.6762 131.522L21.573 102.426C13.1822 94.0345 7.46755 83.343 5.15268 71.7042C2.83782 60.0655 4.0262 48.0016 8.56755 37.0383C13.1089 26.0749 20.7992 16.7043 30.6661 10.1116Z" fill="black"/>
</svg>
