<svg width="128" height="128" viewBox="0 0 128 128" fill="none" xmlns="http://www.w3.org/2000/svg">
<path d="M82.7533 60.2533C83.7387 60.2551 84.7148 60.0623 85.6255 59.686C86.5363 59.3097 87.3638 58.7573 88.0606 58.0606C88.7573 57.3638 89.3097 56.5363 89.686 55.6255C90.0623 54.7148 90.2551 53.7387 90.2533 52.7533C90.2551 51.7679 90.0623 50.7919 89.686 49.8811C89.3097 48.9704 88.7573 48.1429 88.0606 47.4461C87.3638 46.7493 86.5363 46.1969 85.6255 45.8207C84.7148 45.4444 83.7387 45.2516 82.7533 45.2533C81.7669 45.2489 80.7893 45.4399 79.877 45.8151C78.9647 46.1904 78.1357 46.7426 77.4379 47.4398C76.74 48.137 76.1871 48.9655 75.811 49.8775C75.4349 50.7895 75.2431 51.7669 75.2467 52.7533C75.2431 53.7398 75.4349 54.7172 75.811 55.6292C76.1871 56.5411 76.74 57.3696 77.4379 58.0669C78.1357 58.7641 78.9647 59.3163 79.877 59.6915C80.7893 60.0668 81.7669 60.2577 82.7533 60.2533V60.2533ZM45.04 60.2533C46.0265 60.2577 47.004 60.0668 47.9163 59.6915C48.8286 59.3163 49.6576 58.7641 50.3555 58.0669C51.0533 57.3696 51.6062 56.5411 51.9823 55.6292C52.3584 54.7172 52.5502 53.7398 52.5467 52.7533C52.5502 51.7669 52.3584 50.7895 51.9823 49.8775C51.6062 48.9655 51.0533 48.137 50.3555 47.4398C49.6576 46.7426 48.8286 46.1904 47.9163 45.8151C47.004 45.4399 46.0265 45.2489 45.04 45.2533C44.0546 45.2516 43.0785 45.4444 42.1678 45.8207C41.2571 46.1969 40.4296 46.7493 39.7328 47.4461C39.036 48.1429 38.4836 48.9704 38.1073 49.8811C37.731 50.7919 37.5382 51.7679 37.54 52.7533C37.5709 54.7328 38.371 56.6225 39.7709 58.0224C41.1708 59.4223 43.0605 60.2224 45.04 60.2533V60.2533ZM83.7067 77.2667C81.3028 80.16 78.2905 82.4876 74.8842 84.0835C71.4779 85.6795 67.7616 86.5046 64 86.5C60.2392 86.5095 56.5228 85.6872 53.1171 84.0921C49.7113 82.497 46.7004 80.1685 44.3 77.2733C43.3456 76.1279 41.9761 75.4076 40.4915 75.2701C39.007 75.1327 37.5285 75.5893 36.38 76.54C35.2406 77.4992 34.5264 78.8697 34.3928 80.3531C34.2592 81.8365 34.717 83.3126 35.6667 84.46C39.1211 88.6236 43.4512 91.9742 48.3486 94.273C53.2459 96.5719 58.5899 97.7625 64 97.76C69.4094 97.7624 74.7528 96.5724 79.65 94.2748C84.5471 91.9772 88.8776 88.6283 92.3333 84.4667C92.8104 83.9024 93.1709 83.2492 93.3938 82.5447C93.6167 81.8402 93.6976 81.0985 93.6319 80.3625C93.5662 79.6265 93.3551 78.9109 93.0109 78.257C92.6667 77.6032 92.1962 77.0241 91.6267 76.5533C90.4781 75.5975 88.9975 75.1358 87.5093 75.2695C86.021 75.4032 84.6464 76.1214 83.6867 77.2667H83.7067ZM64 4C48.087 4 32.8258 10.3214 21.5736 21.5736C10.3214 32.8258 4 48.087 4 64C4 79.913 10.3214 95.1742 21.5736 106.426C32.8258 117.679 48.087 124 64 124C79.913 124 95.1742 117.679 106.426 106.426C117.679 95.1742 124 79.913 124 64C124 48.087 117.679 32.8258 106.426 21.5736C95.1742 10.3214 79.913 4 64 4ZM64 112.753C51.0753 112.737 38.6846 107.596 29.5461 98.4559C20.4076 89.3161 15.2674 76.9247 15.2533 64C15.2692 51.0765 20.4101 38.6868 29.5484 29.5484C38.6868 20.4101 51.0765 15.2692 64 15.2533C76.9247 15.2674 89.3161 20.4076 98.4559 29.5461C107.596 38.6846 112.737 51.0753 112.753 64C112.739 76.9259 107.598 89.3183 98.4582 98.4582C89.3183 107.598 76.9259 112.739 64 112.753V112.753Z" fill="black"/>
</svg>
