<svg width="128" height="128" viewBox="0 0 128 128" fill="none" xmlns="http://www.w3.org/2000/svg">
<path d="M106.857 4H21.1429C16.5963 4 12.2359 5.80612 9.02103 9.02103C5.80612 12.2359 4 16.5963 4 21.1429L4 106.857C4 111.404 5.80612 115.764 9.02103 118.979C12.2359 122.194 16.5963 124 21.1429 124H106.857C111.404 124 115.764 122.194 118.979 118.979C122.194 115.764 124 111.404 124 106.857V21.1429C124 16.5963 122.194 12.2359 118.979 9.02103C115.764 5.80612 111.404 4 106.857 4ZM111.143 106.857C111.143 107.994 110.691 109.084 109.888 109.888C109.084 110.691 107.994 111.143 106.857 111.143H21.1429C20.0062 111.143 18.9161 110.691 18.1124 109.888C17.3087 109.084 16.8571 107.994 16.8571 106.857V21.1429C16.8571 20.0062 17.3087 18.9161 18.1124 18.1124C18.9161 17.3087 20.0062 16.8571 21.1429 16.8571H106.857C107.994 16.8571 109.084 17.3087 109.888 18.1124C110.691 18.9161 111.143 20.0062 111.143 21.1429V106.857ZM85.4286 42.3057C84.8316 41.7083 84.1227 41.2344 83.3425 40.9111C82.5623 40.5878 81.726 40.4214 80.8814 40.4214C80.0369 40.4214 79.2006 40.5878 78.4204 40.9111C77.6402 41.2344 76.9313 41.7083 76.3343 42.3057L64 54.9229L51.1429 42.3057C50.5459 41.7083 49.837 41.2344 49.0568 40.9111C48.2766 40.5878 47.4403 40.4214 46.5957 40.4214C45.7512 40.4214 44.9149 40.5878 44.1347 40.9111C43.3544 41.2344 42.6456 41.7083 42.0486 42.3057C41.4512 42.9027 40.9773 43.6116 40.654 44.3918C40.3306 45.172 40.1642 46.0083 40.1642 46.8529C40.1642 47.6974 40.3306 48.5337 40.654 49.3139C40.9773 50.0941 41.4512 50.803 42.0486 51.4L54.6743 64L42.3057 76.5914C41.7083 77.1884 41.2344 77.8973 40.9111 78.6775C40.5878 79.4577 40.4214 80.294 40.4214 81.1386C40.4214 81.9831 40.5878 82.8194 40.9111 83.5996C41.2344 84.3798 41.7083 85.0887 42.3057 85.6857C42.9027 86.2831 43.6116 86.757 44.3918 87.0803C45.172 87.4036 46.0083 87.5701 46.8529 87.5701C47.6974 87.5701 48.5337 87.4036 49.3139 87.0803C50.0941 86.757 50.803 86.2831 51.4 85.6857L64 73.0771L76.6 85.6771C77.197 86.2745 77.9059 86.7484 78.6861 87.0717C79.4663 87.3951 80.3026 87.5615 81.1471 87.5615C81.9917 87.5615 82.828 87.3951 83.6082 87.0717C84.3884 86.7484 85.0973 86.2745 85.6943 85.6771C86.2917 85.0801 86.7656 84.3713 87.0889 83.5911C87.4122 82.8108 87.5786 81.9746 87.5786 81.13C87.5786 80.2854 87.4122 79.4492 87.0889 78.6689C86.7656 77.8887 86.2917 77.1799 85.6943 76.5829L73.0943 64L85.6943 51.4C86.2974 50.7979 86.7709 50.0789 87.0858 49.287C87.4007 48.4952 87.5503 47.6473 87.5254 46.7955C87.5005 45.9437 87.3017 45.106 86.9411 44.3339C86.5805 43.5617 86.0658 42.8716 85.4286 42.3057V42.3057Z" fill="black"/>
</svg>
