<svg width="128" height="128" viewBox="0 0 128 128" fill="none" xmlns="http://www.w3.org/2000/svg">
<path d="M86.5 58.375H41.5C40.7608 58.373 40.0284 58.5172 39.3451 58.7991C38.6617 59.0811 38.0408 59.4954 37.5181 60.0181C36.9954 60.5408 36.5811 61.1617 36.2991 61.8451C36.0172 62.5284 35.873 63.2608 35.875 64C35.875 65.4918 36.4676 66.9226 37.5225 67.9775C38.5774 69.0324 40.0082 69.625 41.5 69.625H86.5C87.2392 69.627 87.9716 69.4828 88.6549 69.2009C89.3383 68.9189 89.9592 68.5046 90.4819 67.9819C91.0046 67.4592 91.4189 66.8383 91.7009 66.1549C91.9828 65.4716 92.127 64.7392 92.125 64C92.127 63.2608 91.9828 62.5284 91.7009 61.8451C91.4189 61.1617 91.0046 60.5408 90.4819 60.0181C89.9592 59.4954 89.3383 59.0811 88.6549 58.7991C87.9716 58.5172 87.2392 58.373 86.5 58.375V58.375ZM64 4C48.087 4 32.8258 10.3214 21.5736 21.5736C10.3214 32.8258 4 48.087 4 64C4 79.913 10.3214 95.1742 21.5736 106.426C32.8258 117.679 48.087 124 64 124C79.913 124 95.1742 117.679 106.426 106.426C117.679 95.1742 124 79.913 124 64C124 48.087 117.679 32.8258 106.426 21.5736C95.1742 10.3214 79.913 4 64 4V4ZM64 112.75C51.075 112.736 38.6833 107.595 29.5439 98.4561C20.4045 89.3167 15.2639 76.925 15.25 64C15.2639 51.075 20.4045 38.6833 29.5439 29.5439C38.6833 20.4045 51.075 15.2639 64 15.25C76.925 15.2639 89.3167 20.4045 98.4561 29.5439C107.595 38.6833 112.736 51.075 112.75 64C112.736 76.925 107.595 89.3167 98.4561 98.4561C89.3167 107.595 76.925 112.736 64 112.75Z" fill="black"/>
</svg>
