<svg width="128" height="128" viewBox="0 0 128 128" fill="none" xmlns="http://www.w3.org/2000/svg">
<path d="M124 34.9514V93.0792C123.795 93.8263 123.626 94.5868 123.386 95.3028C122.538 97.9512 120.837 100.244 118.548 101.824C116.259 103.403 113.511 104.18 110.734 104.032H44.784C35.5697 104.032 26.3553 104.032 17.1409 104.032C15.0637 104.113 12.9984 103.682 11.1261 102.779C9.25374 101.876 7.63151 100.527 6.40133 98.8515C5.20863 97.1119 4.39093 95.1431 4 93.0703V34.9514C4.20012 34.2043 4.36894 33.4438 4.60909 32.7278C5.45438 30.1042 7.13826 27.8309 9.4017 26.2577C11.6651 24.6844 14.3828 23.8984 17.1366 24.0205C38.1861 24.0205 59.2357 24.0205 80.2852 24.0205C90.4779 24.0205 100.669 24.0205 110.859 24.0205C112.96 23.8981 115.057 24.3259 116.942 25.2618C118.827 26.1977 120.435 27.6093 121.607 29.357C122.583 31.1406 123.384 33.014 124 34.9514V34.9514ZM9.03853 59.0991C9.03853 59.5438 8.9895 59.9173 8.98505 60.2998C8.98505 70.4925 8.98505 80.6852 8.98505 90.8779C8.89648 91.9654 9.04527 93.0592 9.42124 94.0834C9.79721 95.1077 10.3914 96.038 11.1625 96.8099C11.9335 97.5819 12.8632 98.177 13.8871 98.5541C14.9109 98.9312 16.0045 99.0812 17.0921 98.9938C48.3729 98.9938 79.6507 98.9938 110.926 98.9938C112.014 99.0792 113.108 98.9266 114.131 98.5467C115.154 98.1668 116.083 97.5687 116.852 96.7938C117.62 96.019 118.211 95.0861 118.583 94.0599C118.955 93.0337 119.1 91.9388 119.006 90.8513C119.006 80.6971 119.006 70.5429 119.006 60.3887V59.0991H9.03853ZM118.881 44.1346H9.1718V53.9182H118.881V44.1346ZM9.13624 38.9093H118.904C119.232 37.7178 119.272 36.4655 119.022 35.2552C118.772 34.0449 118.238 32.9113 117.465 31.9475C116.691 30.9837 115.7 30.2173 114.572 29.7113C113.445 29.2053 112.213 28.9741 110.979 29.0368C79.6596 29.0368 48.3417 29.0368 17.0253 29.0368C16.2792 29.0142 15.533 29.0784 14.8018 29.228C13.7919 29.4878 12.8436 29.9447 12.0109 30.5724C11.1783 31.2001 10.478 31.9862 9.95025 32.8855C9.42249 33.7848 9.07762 34.7796 8.93565 35.8126C8.79368 36.8456 8.85735 37.8965 9.12294 38.9049L9.13624 38.9093Z" fill="black"/>
<path d="M89.1207 78.9554C89.0317 77.6713 89.042 76.3822 89.1518 75.0997C89.3942 73.5636 90.1349 72.1498 91.26 71.0762C92.385 70.0026 93.832 69.3287 95.3778 69.1584C97.744 68.9293 100.127 68.9293 102.493 69.1584C104.279 69.3585 105.928 70.2132 107.122 71.5576C108.315 72.902 108.968 74.6409 108.955 76.4384C108.986 78.0794 108.955 79.7159 108.955 81.3568C109.015 83.2521 108.34 85.0971 107.071 86.5061C105.802 87.9151 104.037 88.779 102.146 88.9169C99.8917 89.1123 97.6235 89.0899 95.3733 88.8502C93.6497 88.6465 92.0573 87.8286 90.8877 86.5463C89.7181 85.264 89.0498 83.6032 89.0051 81.8682C88.9651 80.8943 89.0051 79.916 89.0051 78.9421L89.1207 78.9554ZM98.9532 83.9895C99.7715 83.9895 100.594 84.0162 101.412 83.9895C101.737 84.012 102.063 83.9678 102.37 83.8598C102.677 83.7518 102.958 83.5823 103.197 83.3616C103.436 83.1409 103.628 82.8737 103.76 82.5764C103.892 82.279 103.962 81.9579 103.965 81.6326C104.059 79.8773 104.059 78.118 103.965 76.3627C103.961 76.0468 103.894 75.7349 103.766 75.4459C103.638 75.157 103.453 74.897 103.222 74.6816C102.991 74.4662 102.718 74.3 102.421 74.193C102.124 74.086 101.808 74.0405 101.492 74.0592C99.8159 74.0147 98.1349 74.0147 96.4539 74.0592C96.1298 74.0518 95.8075 74.1105 95.5068 74.2317C95.2061 74.3529 94.9332 74.534 94.7048 74.7641C94.4763 74.9942 94.2971 75.2684 94.1781 75.57C94.0591 75.8716 94.0027 76.1943 94.0125 76.5183C93.968 78.1593 93.9724 79.8004 94.0125 81.4414C93.9964 81.7751 94.0495 82.1085 94.1683 82.4208C94.287 82.7332 94.469 83.0176 94.7028 83.2564C94.9365 83.4952 95.217 83.6831 95.5268 83.8085C95.8365 83.9339 96.1688 83.994 96.5028 83.9851C97.3211 84.0162 98.1438 83.9851 98.9621 83.9851L98.9532 83.9895Z" fill="black"/>
<path d="M36.5838 83.9934H50.6322C51.0605 83.9792 51.4892 84.0045 51.9129 84.069C52.4988 84.1552 53.0322 84.4549 53.4106 84.9105C53.789 85.366 53.9857 85.9453 53.963 86.5371C53.9738 87.1088 53.7784 87.6653 53.4125 88.1046C53.0467 88.544 52.5348 88.8369 51.9707 88.9298C51.5094 89.0067 51.0417 89.038 50.5743 89.0231H22.4777C20.1963 89.0231 18.9912 88.1337 19.009 86.475C19.0268 84.8162 20.2141 83.9846 22.5355 83.9846L36.5838 83.9934Z" fill="black"/>
<path d="M36.4599 74.0324C41.3739 74.0324 46.2924 74.0324 51.2065 74.0324C51.5372 73.9885 51.8735 74.0131 52.1943 74.1046C52.5152 74.1962 52.8138 74.3527 53.0716 74.5646C53.3294 74.7765 53.5408 75.0391 53.6928 75.3362C53.8447 75.6333 53.9338 75.9585 53.9547 76.2915C54.018 76.9399 53.8221 77.587 53.4095 78.0912C52.997 78.5954 52.4015 78.9158 51.7534 78.9821C51.4029 79.011 51.0509 79.0184 50.6994 79.0043H22.2381C21.9669 79.0043 21.6912 79.0043 21.4199 79.0043C20.769 78.9813 20.1522 78.7074 19.6988 78.2398C19.2453 77.7723 18.9904 77.1473 18.9874 76.496C18.985 76.1729 19.0471 75.8525 19.1703 75.5538C19.2936 75.255 19.4753 74.9839 19.7049 74.7565C19.9344 74.529 20.2072 74.3497 20.5071 74.2292C20.807 74.1087 21.1279 74.0493 21.451 74.0547C24.7685 74.0102 28.0816 74.0547 31.3991 74.0324H36.4599Z" fill="black"/>
</svg>
