<svg width="128" height="128" viewBox="0 0 128 128" fill="none" xmlns="http://www.w3.org/2000/svg">
<path d="M4 122.056V111.498C4.42799 109.441 5.34493 107.517 6.67339 105.889C7.6975 104.732 8.94872 103.797 10.3493 103.143C11.75 102.49 13.2701 102.131 14.8152 102.09V53.0752C12.3474 53.0752 9.96843 53.0144 7.5988 53.0752C6.86338 53.1804 6.11383 53.0423 5.46414 52.682C4.81445 52.3217 4.30028 51.759 4 51.0794V38.6658C4.508 38.0002 5.09855 37.4018 5.75739 36.8851C21.1218 27.715 36.5049 18.5745 51.9067 9.4637C55.1427 7.08532 58.7388 5.24072 62.5583 4H65.601C66.9223 4.428 68.2097 4.9545 69.4523 5.57507C87.0695 15.9915 104.674 26.4297 122.266 36.8897C122.804 37.1708 123.248 37.6017 123.545 38.1301C123.842 38.6586 123.979 39.262 123.94 39.867C123.902 42.7133 123.832 45.569 123.94 48.4107C124.117 52.6779 122.767 53.1967 119.299 53.0845C117.247 53.0097 115.19 53.0845 113.097 53.0845V102.113C113.335 102.141 113.489 102.164 113.643 102.178C116.126 102.281 118.493 103.253 120.33 104.926C122.167 106.598 123.357 108.863 123.692 111.325C123.944 114.278 124.018 117.244 123.912 120.205C123.94 123.136 123.094 123.944 120.173 123.944C82.7072 123.944 45.2434 123.954 7.78108 123.972C7.03196 124.063 6.27285 123.929 5.59978 123.588C4.92672 123.247 4.36999 122.714 4 122.056V122.056ZM9.43563 47.5274H118.509C118.509 45.7607 118.448 44.05 118.532 42.3441C118.588 41.9292 118.508 41.5074 118.305 41.1412C118.102 40.7751 117.787 40.4839 117.406 40.3109C100.661 30.4024 83.9302 20.469 67.2135 10.5106C66.2583 9.86302 65.1308 9.51686 63.9768 9.51686C62.8228 9.51686 61.6955 9.86302 60.7403 10.5106C53.3884 14.9321 45.9943 19.2834 38.6237 23.6628C29.2043 29.2714 19.7883 34.88 10.3752 40.4886C10.0106 40.7082 9.49647 41.0915 9.48713 41.4233C9.39832 43.4144 9.43563 45.4335 9.43563 47.5274V47.5274ZM9.55245 118.429H118.509C118.509 116.887 118.509 115.415 118.509 113.942C118.634 113.072 118.553 112.185 118.274 111.352C117.995 110.519 117.525 109.762 116.902 109.143C116.278 108.523 115.519 108.058 114.683 107.785C113.848 107.511 112.961 107.437 112.092 107.567H15.8529C15.4649 107.567 15.0723 107.567 14.6844 107.567C13.4406 107.592 12.2466 108.06 11.317 108.887C10.3874 109.714 9.78321 110.845 9.61321 112.078C9.47767 114.192 9.45739 116.313 9.55245 118.429V118.429ZM36.8289 53.1406V102.076H52.991V53.1406H36.8289ZM74.9394 53.1406V102.076H91.1434V53.1406H74.9394ZM20.4565 53.1126V102.066H31.1409V53.1079L20.4565 53.1126ZM58.6276 53.1126V102.057H69.2981V53.1126H58.6276ZM107.507 53.1406H96.7568V102.071H107.507V53.1406Z" fill="black"/>
<path d="M63.9141 20.3723C65.35 20.363 66.7737 20.6381 68.1028 21.1817C69.432 21.7252 70.6403 22.5264 71.6583 23.5392C72.6763 24.552 73.4838 25.7563 74.0341 27.0826C74.5845 28.4089 74.8668 29.8311 74.865 31.267C74.8528 34.1459 73.707 36.904 71.6757 38.9441C69.6444 40.9841 66.8912 42.1418 64.0124 42.1663C61.1124 42.1651 58.331 41.0151 56.2769 38.968C54.2228 36.921 53.0634 34.1436 53.0522 31.2436C53.0609 28.3647 54.2077 25.6059 56.2425 23.5693C58.2774 21.5327 61.0351 20.3834 63.9141 20.3723V20.3723ZM58.5345 31.2997C58.5395 32.7401 59.1156 34.1198 60.1363 35.1362C61.157 36.1525 62.5391 36.7226 63.9796 36.7213C65.4196 36.7127 66.7977 36.1339 67.812 35.1117C68.8263 34.0895 69.3945 32.7071 69.392 31.267C69.397 30.5441 69.2578 29.8275 68.9825 29.159C68.7071 28.4906 68.3012 27.8838 67.7885 27.3741C67.2758 26.8645 66.6666 26.4622 65.9966 26.1909C65.3265 25.9196 64.609 25.7846 63.8861 25.794C62.4461 25.8161 61.0736 26.4088 60.0703 27.442C59.0669 28.4752 58.5145 29.8643 58.5345 31.3044V31.2997Z" fill="black"/>
</svg>
