<svg width="128" height="128" viewBox="0 0 128 128" fill="none" xmlns="http://www.w3.org/2000/svg">
<path fill-rule="evenodd" clip-rule="evenodd" d="M20.9231 19.3847C18.8829 19.3847 16.9264 20.1951 15.4838 21.6377C14.0708 23.0507 13.2643 24.9568 13.2318 26.9516C14.6564 49.7735 24.3649 71.2923 40.5364 87.4637C56.7078 103.635 78.2266 113.344 101.048 114.768C103.043 114.736 104.949 113.929 106.362 112.516C107.805 111.074 108.615 109.117 108.615 107.077V85.5864L84.3969 75.899L77.1884 87.9131C75.9526 89.9728 73.3436 90.7403 71.1893 89.6779C56.9149 82.638 45.362 71.0852 38.3222 56.8108C37.2597 54.6565 38.0272 52.0475 40.0869 50.8117L52.1011 43.6032L42.4137 19.3847H20.9231ZM8.95665 15.1106C12.1303 11.9369 16.4348 10.1539 20.9231 10.1539H45.5385C47.4257 10.1539 49.1228 11.3029 49.8237 13.0552L62.1314 43.8244C62.9727 45.9277 62.1632 48.3307 60.2207 49.4962L48.6036 56.4665C54.1175 65.9768 62.0233 73.8826 71.5336 79.3964L78.5039 67.7793C79.6694 65.8368 82.0723 65.0273 84.1756 65.8687L114.945 78.1763C116.697 78.8772 117.846 80.5744 117.846 82.4616V107.077C117.846 111.565 116.063 115.87 112.889 119.043C109.716 122.217 105.411 124 100.923 124C100.83 124 100.736 123.997 100.643 123.992C75.5134 122.464 51.8114 111.793 34.0092 93.9909C16.207 76.1887 5.53565 52.4867 4.0085 27.357C4.00283 27.2638 4 27.1704 4 27.077C4 22.5887 5.78296 18.2843 8.95665 15.1106Z" fill="black"/>
<path fill-rule="evenodd" clip-rule="evenodd" d="M77.8462 33.2309C77.8462 30.6819 79.9126 28.6155 82.4616 28.6155C86.9499 28.6155 91.2543 30.3984 94.428 33.5721C97.6017 36.7458 99.3847 41.0503 99.3847 45.5386C99.3847 48.0876 97.3183 50.1539 94.7693 50.1539C92.2203 50.1539 90.1539 48.0876 90.1539 45.5386C90.1539 43.4984 89.3434 41.5419 87.9009 40.0993C86.4583 38.6567 84.5017 37.8462 82.4616 37.8462C79.9126 37.8462 77.8462 35.7799 77.8462 33.2309Z" fill="black"/>
<path fill-rule="evenodd" clip-rule="evenodd" d="M77.8462 8.61538C77.8462 6.06638 79.9126 4 82.4616 4C93.4783 4 104.044 8.37636 111.834 16.1663C119.624 23.9563 124 34.5218 124 45.5385C124 48.0875 121.934 50.1538 119.385 50.1538C116.836 50.1538 114.769 48.0875 114.769 45.5385C114.769 36.9699 111.365 28.7523 105.307 22.6935C99.2477 16.6346 91.0301 13.2308 82.4616 13.2308C79.9126 13.2308 77.8462 11.1644 77.8462 8.61538Z" fill="black"/>
</svg>
