<svg width="128" height="128" viewBox="0 0 128 128" fill="none" xmlns="http://www.w3.org/2000/svg">
<path d="M46.1327 6.55461L94.9187 58.3779C96.366 59.8936 97.1749 61.9079 97.178 64.0036C97.1705 66.094 96.362 68.102 94.9187 69.6143L46.1327 121.453C44.6383 123.024 42.5817 123.939 40.4138 123.997C38.2459 124.055 36.1435 123.251 34.5671 121.762C33.7852 121.024 33.1566 120.139 32.7172 119.157C32.2779 118.176 32.0365 117.118 32.0068 116.043C31.9772 114.968 32.1599 113.898 32.5444 112.894C32.929 111.89 33.5079 110.971 34.2479 110.191L78.0217 63.9936L34.243 17.796C33.5034 17.0173 32.9248 16.1001 32.5404 15.0973C32.156 14.0944 31.9735 13.0255 32.0031 11.9519C32.0328 10.8783 32.2741 9.82117 32.7132 8.84105C33.1524 7.86092 33.7807 6.97714 34.5622 6.2404C36.1387 4.74883 38.2429 3.94411 40.4125 4.00302C42.582 4.06194 44.6394 4.97968 46.1327 6.55461Z" fill="black"/>
</svg>
