<svg width="128" height="128" viewBox="0 0 128 128" fill="none" xmlns="http://www.w3.org/2000/svg">
<path d="M4 95.7041V62.0199C4.07212 61.9314 4.12776 61.8307 4.16432 61.7225C4.72252 58.06 6.62786 54.7378 9.50713 52.4065C12.3864 50.0751 16.0323 48.9025 19.7308 49.1183C20.7287 49.1692 21.7305 49.1183 22.8066 49.1183V47.5531C22.8066 36.8807 22.8066 26.207 22.8066 15.532C22.7038 13.4722 23.1898 11.4259 24.2079 9.63234C25.2259 7.83883 26.7338 6.37244 28.555 5.40482C29.7812 4.83407 31.0518 4.36424 32.3544 4H85.0877C85.2979 4.08668 85.5153 4.15478 85.7374 4.20349C90.2686 4.73731 94.4927 6.76543 97.7428 9.96752C104.544 16.6668 111.302 23.4078 118.017 30.1906C120.446 32.6343 122.199 35.6668 123.104 38.9912C123.456 40.2551 123.707 41.5464 124 42.826V114.17C123.917 114.385 123.845 114.605 123.785 114.828C123.307 117.365 121.948 119.651 119.948 121.284C117.949 122.917 115.437 123.792 112.855 123.753C86.5069 123.772 60.152 123.772 33.7905 123.753C31.4274 123.772 29.1276 122.991 27.2636 121.539C26.4105 120.881 25.6708 120.075 24.7316 119.191C23.726 120.232 22.689 121.276 21.6833 122.352C21.2049 122.981 20.5293 123.43 19.765 123.628C19.0007 123.826 18.1922 123.761 17.469 123.444C16.7432 123.14 16.1362 122.608 15.7401 121.928C15.344 121.248 15.1802 120.457 15.2736 119.676C15.3089 116.248 15.2738 112.816 15.2973 109.388C15.2973 108.629 15.1601 108.25 14.3267 107.991C11.2829 107.047 8.63275 105.131 6.78223 102.536C5.38594 100.479 4.43801 98.1515 4 95.7041V95.7041ZM29.8265 49.1379H104.262C104.771 49.1379 105.279 49.1379 105.784 49.1653C106.51 49.2152 107.2 49.5047 107.743 49.9884C108.287 50.4721 108.655 51.1226 108.79 51.838C108.921 52.392 108.916 52.9695 108.775 53.5211C108.634 54.0727 108.361 54.5819 107.98 55.005C107.599 55.4282 107.122 55.7527 106.588 55.9508C106.054 56.1489 105.48 56.2146 104.916 56.1424C97.1833 56.1424 89.4496 56.1424 81.7146 56.1424C81.3233 56.1424 80.932 56.1776 80.8185 56.1815L82.9435 64.1291H83.9568C88.4882 64.1291 93.0197 64.1291 97.5472 64.1291C98.4129 64.0406 99.2797 64.285 99.9717 64.8127C100.664 65.3404 101.129 66.1117 101.272 66.97C101.387 67.488 101.38 68.0257 101.252 68.5406C101.124 69.0554 100.878 69.5335 100.533 69.9371C100.189 70.3407 99.7554 70.6589 99.2671 70.8665C98.7788 71.0741 98.2491 71.1655 97.7194 71.1336C93.1098 71.161 88.5039 71.1336 83.8943 71.1336H82.6225V79.1398H91.3644C95.8958 79.1398 100.427 79.1398 104.955 79.1398C105.779 79.0441 106.611 79.2424 107.303 79.6999C107.995 80.1573 108.504 80.8445 108.739 81.6403C108.914 82.1933 108.949 82.7814 108.839 83.351C108.729 83.9206 108.478 84.4537 108.109 84.9015C107.74 85.3493 107.265 85.6977 106.727 85.9148C106.189 86.1318 105.605 86.2108 105.029 86.1443C97.9854 86.1443 90.9692 86.1443 83.9373 86.1443H82.5991V94.1936H87.5452C90.9809 94.1936 94.4206 94.1624 97.8563 94.2132C98.3077 94.189 98.7593 94.2579 99.183 94.4155C99.6067 94.5732 99.9936 94.8162 100.319 95.1296C100.645 95.443 100.903 95.82 101.077 96.2372C101.251 96.6544 101.338 97.103 101.331 97.555C101.362 98.005 101.303 98.4566 101.157 98.8833C101.011 99.31 100.781 99.7031 100.48 100.039C100.18 100.376 99.8149 100.648 99.4073 100.841C98.9996 101.034 98.5574 101.144 98.1068 101.163C97.6789 101.202 97.2489 101.217 96.8192 101.206C91.7791 101.206 86.743 101.206 81.7029 101.233C81.45 101.226 81.1984 101.27 80.963 101.363C80.7276 101.456 80.5135 101.596 80.3334 101.773C78.8679 104.048 76.8261 105.895 74.4157 107.125C72.0053 108.356 69.3122 108.926 66.61 108.778C56.5337 108.707 46.4575 108.75 36.3812 108.778C35.8154 108.768 35.263 108.951 34.8159 109.298C33.3524 110.641 31.9945 112.104 30.5545 113.478C30.4541 113.55 30.3702 113.644 30.3083 113.751C30.2464 113.859 30.2079 113.978 30.1953 114.101C30.1827 114.225 30.1965 114.349 30.2354 114.467C30.2744 114.585 30.3378 114.693 30.4215 114.785C30.8593 115.457 31.4729 115.998 32.1958 116.347C32.9187 116.696 33.7232 116.84 34.5223 116.765C60.4559 116.749 86.3896 116.749 112.323 116.765C112.958 116.855 113.606 116.796 114.214 116.591C114.822 116.386 115.374 116.042 115.825 115.585C116.276 115.129 116.614 114.573 116.811 113.962C117.008 113.351 117.059 112.703 116.96 112.069C116.96 89.9675 116.96 67.8648 116.96 45.7609C117.055 45.1244 116.998 44.4746 116.795 43.8641C116.592 43.2535 116.247 42.6995 115.79 42.2468C115.333 41.794 114.776 41.4554 114.163 41.2583C113.55 41.0611 112.9 41.0111 112.264 41.1121C107.733 41.1121 103.202 41.1121 98.6741 41.1121C97.6237 41.1288 96.5746 41.0357 95.5436 40.8343C92.9966 40.3035 90.7215 38.8837 89.1255 36.8289C87.5296 34.7741 86.7171 32.2184 86.8332 29.6192C86.8019 25.0213 86.8332 20.4195 86.8332 15.8215C86.8332 12.5149 85.3578 11.0554 82.0395 11.0554H34.6907C31.3137 11.0554 29.8227 12.5345 29.8227 15.8881C29.8227 26.4901 29.8227 37.0933 29.8227 47.6979L29.8265 49.1379ZM22.2979 111.83C25.2797 108.852 28.0188 106.187 30.668 103.436C31.1936 102.866 31.8376 102.418 32.5548 102.123C33.272 101.829 34.0451 101.695 34.8197 101.73C45.6773 101.777 56.5351 101.777 67.3927 101.73C68.4701 101.786 69.5471 101.615 70.5544 101.229C71.5618 100.843 72.4769 100.25 73.2414 99.4887C74.0058 98.7276 74.6026 97.8148 74.993 96.8092C75.3834 95.8035 75.559 94.7273 75.5084 93.6497C75.5293 83.8278 75.5293 74.0058 75.5084 64.1839C75.5627 63.1065 75.3892 62.0298 74.999 61.024C74.6088 60.0183 74.0109 59.1062 73.2442 58.3473C72.4776 57.5884 71.5593 56.9997 70.5497 56.6198C69.54 56.2399 68.4616 56.0772 67.3848 56.1424C51.294 56.1424 35.2033 56.1424 19.1125 56.1424C18.0353 56.0896 16.9591 56.2632 15.9531 56.6517C14.9471 57.0403 14.0337 57.6353 13.2717 58.3984C12.5097 59.1616 11.916 60.0759 11.5289 61.0824C11.1418 62.089 10.9697 63.1655 11.024 64.2426C11.024 74.0254 11.024 83.8082 11.024 93.591C10.9768 94.6285 11.1378 95.665 11.4971 96.6395C11.8565 97.6139 12.4071 98.5066 13.1167 99.265C13.8263 100.023 14.6804 100.632 15.6288 101.056C16.5772 101.479 17.6007 101.708 18.6391 101.73C19.1489 101.703 19.6583 101.788 20.1319 101.979C20.6054 102.169 21.0314 102.462 21.38 102.835C21.7287 103.207 21.9915 103.652 22.15 104.137C22.3086 104.623 22.3591 105.137 22.2979 105.643C22.3174 107.588 22.3096 109.521 22.3096 111.818L22.2979 111.83ZM111.717 34.092L93.9236 16.3381C93.904 16.6277 93.8572 16.9642 93.8572 17.2968C93.8572 21.3482 93.8572 25.3996 93.8572 29.451C93.7706 30.0854 93.8329 30.7313 94.0392 31.3375C94.2455 31.9438 94.59 32.4936 95.0456 32.9435C95.5013 33.3935 96.0555 33.7311 96.6642 33.9298C97.273 34.1284 97.9197 34.1826 98.553 34.088C102.145 34.088 105.734 34.088 109.326 34.088L111.717 34.092Z" fill="black"/>
<path d="M58.3891 26.0342C52.809 26.0342 47.2249 26.0342 41.6448 26.0342C41.1363 26.0829 40.6234 26.0161 40.1443 25.8389C39.6652 25.6616 39.2322 25.3785 38.8778 25.0105C38.5235 24.6426 38.2567 24.1994 38.0976 23.714C37.9384 23.2286 37.8909 22.7135 37.9587 22.2072C37.9946 21.5007 38.2601 20.8253 38.715 20.2836C39.1698 19.7418 39.7891 19.3634 40.4787 19.2058C40.971 19.0897 41.4754 19.0319 41.9813 19.0336C52.9094 19.0336 63.8387 19.0336 74.7694 19.0336C75.3543 18.9773 75.9444 19.0575 76.4931 19.268C77.0417 19.4785 77.5341 19.8135 77.9312 20.2467C78.3759 20.7465 78.665 21.3652 78.763 22.027C78.861 22.6887 78.7637 23.3647 78.483 23.972C78.2453 24.6022 77.8147 25.1414 77.2526 25.5124C76.6904 25.8834 76.0254 26.0674 75.3525 26.0381C71.7211 26.0655 68.0937 26.0381 64.4623 26.0381L58.3891 26.0342Z" fill="black"/>
<path d="M52.7059 34.0806C56.4156 34.0806 60.1408 34.0415 63.8309 34.0806C64.4108 34.0403 64.9915 34.1474 65.5189 34.392C66.0462 34.6366 66.5031 35.0107 66.8468 35.4795C67.1906 35.9483 67.4101 36.4964 67.4849 37.0729C67.5597 37.6494 67.4873 38.2354 67.2745 38.7764C67.0983 39.3383 66.7699 39.8406 66.3258 40.2274C65.8817 40.6142 65.3391 40.8704 64.7583 40.9678C64.3366 41.0481 63.908 41.0874 63.4787 41.0852C56.2968 41.0852 49.1149 41.0852 41.933 41.0852C41.31 41.0917 40.6901 40.9965 40.0978 40.8034C39.3592 40.5284 38.7412 40.0017 38.3526 39.316C37.9639 38.6303 37.8295 37.8296 37.9729 37.0546C38.0424 36.3288 38.3577 35.6484 38.8664 35.1261C39.3752 34.6038 40.0471 34.2709 40.7708 34.1824C42.0154 34.0869 43.2639 34.0543 44.5117 34.0846C47.2392 34.0807 49.9746 34.0806 52.7059 34.0806Z" fill="black"/>
<path d="M53.9439 78.9598C53.9439 82.5833 53.9439 86.2069 53.9439 89.8305C53.9901 90.3172 53.9344 90.8082 53.7804 91.2722C53.6264 91.7362 53.3775 92.1631 53.0496 92.5256C52.7216 92.8882 52.3217 93.1786 51.8754 93.3782C51.4291 93.5778 50.9461 93.6821 50.4572 93.6848C49.9682 93.6866 49.4843 93.5866 49.0361 93.3911C48.5879 93.1956 48.1854 92.9089 47.8541 92.5493C47.5228 92.1897 47.27 91.7649 47.1118 91.3022C46.9536 90.8395 46.8936 90.3489 46.9354 89.8618C46.9354 82.5755 46.9354 75.2893 46.9354 68.003C46.8901 67.514 46.9477 67.0208 47.1043 66.5553C47.2609 66.0898 47.513 65.6622 47.8447 65.3C48.1763 64.9377 48.5801 64.6489 49.03 64.452C49.48 64.2551 49.9661 64.1543 50.4572 64.1564C50.9481 64.1468 51.4356 64.2414 51.8872 64.434C52.3389 64.6266 52.7445 64.9128 53.0774 65.2737C53.4102 65.6347 53.6627 66.0622 53.8181 66.528C53.9736 66.9937 54.0285 67.4872 53.9791 67.9757C53.9556 71.6384 53.9439 75.2971 53.9439 78.9598Z" fill="black"/>
<path d="M39.6369 78.9837C39.6369 80.7759 39.6369 82.5681 39.6369 84.3603C39.6661 84.8377 39.5962 85.316 39.4316 85.7651C39.267 86.2142 39.0114 86.6243 38.6806 86.9698C38.3498 87.3153 37.9511 87.5886 37.5096 87.7725C37.068 87.9565 36.5933 88.0471 36.1151 88.0386C35.6448 88.0396 35.1791 87.9453 34.7463 87.7612C34.3135 87.5771 33.9226 87.3072 33.597 86.9678C33.2715 86.6284 33.0183 86.2265 32.8525 85.7864C32.6866 85.3463 32.6117 84.877 32.6324 84.4072C32.6037 80.7836 32.6037 77.1601 32.6324 73.5366C32.5991 73.0575 32.6648 72.5767 32.8253 72.1241C32.9859 71.6715 33.2379 71.2568 33.5657 70.9059C33.8936 70.555 34.2902 70.2753 34.7308 70.0843C35.1714 69.8933 35.6466 69.795 36.1268 69.7957C36.6166 69.7874 37.1027 69.8826 37.5531 70.0751C38.0036 70.2677 38.4083 70.5531 38.7408 70.913C39.0732 71.2728 39.326 71.6988 39.4825 72.163C39.6389 72.6273 39.6955 73.1194 39.6486 73.607C39.6486 75.3993 39.6369 77.1914 39.6369 78.9837Z" fill="black"/>
<path d="M68.2483 78.9638C68.2483 80.2081 68.2757 81.4564 68.2483 82.7007C68.2536 83.6076 67.9004 84.4799 67.2658 85.1277C66.6311 85.7755 65.7663 86.1466 64.8595 86.16C64.409 86.1842 63.9584 86.1188 63.5333 85.9677C63.1083 85.8166 62.7174 85.5827 62.3833 85.2796C62.0493 84.9765 61.7786 84.6101 61.587 84.2017C61.3955 83.7933 61.2867 83.351 61.2672 82.9003C61.1655 80.2589 61.1655 77.6059 61.2672 74.9606C61.2813 74.5095 61.3849 74.0657 61.5722 73.6551C61.7595 73.2445 62.0267 72.8753 62.3581 72.569C62.6896 72.2627 63.0787 72.0254 63.5028 71.871C63.9268 71.7166 64.3774 71.6481 64.8282 71.6696C65.2886 71.6693 65.7443 71.762 66.1679 71.9422C66.5916 72.1223 66.9745 72.3863 67.2936 72.7181C67.6127 73.05 67.8613 73.443 68.0247 73.8734C68.1881 74.3038 68.2629 74.7627 68.2444 75.2227C68.2679 76.471 68.2483 77.7194 68.2483 78.9638Z" fill="black"/>
<path d="M25.3266 78.8933C25.3266 79.5547 25.354 80.2161 25.3266 80.8774C25.3247 81.764 24.9754 82.6146 24.3536 83.2467C23.7318 83.8787 22.8869 84.2419 22.0004 84.2583C21.5534 84.3005 21.1023 84.2524 20.6743 84.1167C20.2462 83.981 19.8498 83.7607 19.5087 83.4685C19.1677 83.1764 18.889 82.8186 18.6892 82.4165C18.4893 82.0143 18.3725 81.576 18.3456 81.1278C18.2383 79.6532 18.2383 78.1728 18.3456 76.6982C18.4388 75.8177 18.8601 75.0045 19.5258 74.4207C20.1915 73.837 21.0527 73.5254 21.9378 73.548C22.8216 73.5881 23.6584 73.9572 24.284 74.5828C24.9095 75.2084 25.2786 76.0452 25.3187 76.929C25.3539 77.5708 25.3266 78.232 25.3266 78.8933Z" fill="black"/>
</svg>
