<svg width="128" height="128" viewBox="0 0 128 128" fill="none" xmlns="http://www.w3.org/2000/svg">
<path fill-rule="evenodd" clip-rule="evenodd" d="M122.672 5.32993C124.445 7.10317 124.445 9.97816 122.672 11.7514L56.0756 78.3478C54.3024 80.121 51.4274 80.121 49.6541 78.3478C47.8809 76.5746 47.8809 73.6996 49.6541 71.9263L116.251 5.32993C118.024 3.55669 120.899 3.55669 122.672 5.32993Z" fill="black"/>
<path fill-rule="evenodd" clip-rule="evenodd" d="M122.67 5.33006C123.915 6.57492 124.328 8.42716 123.73 10.083L84.3775 119.059C84.3348 119.177 84.2871 119.294 84.2347 119.408C83.6068 120.778 82.5988 121.939 81.3305 122.753C80.0622 123.567 78.5868 124 77.0797 124C75.5726 124 74.0972 123.567 72.8289 122.753C71.5868 121.956 70.5944 120.826 69.9641 119.493L49.4784 78.5216L8.50699 58.0359C7.17376 57.4057 6.04378 56.4133 5.24665 55.1711C4.43269 53.9028 4 52.4274 4 50.9203C4 49.4133 4.43269 47.9379 5.24665 46.6695C6.0606 45.4012 7.2216 44.3932 8.59166 43.7653C8.7061 43.7129 8.82267 43.6652 8.94108 43.6225L117.917 4.27005C119.573 3.67211 121.425 4.0852 122.67 5.33006ZM14.9543 51.1063L54.8935 71.0759C55.7722 71.5153 56.4847 72.2278 56.9241 73.1065L76.8937 113.046L111.903 16.0971L14.9543 51.1063Z" fill="black"/>
</svg>
