<svg width="128" height="128" viewBox="0 0 128 128" fill="none" xmlns="http://www.w3.org/2000/svg">
<path d="M64 4C56.1205 3.99943 48.3181 5.55098 41.0383 8.56606C33.7585 11.5811 27.1439 16.0007 21.5723 21.5723C16.0007 27.1439 11.5811 33.7585 8.56606 41.0383C5.55098 48.3181 3.99943 56.1205 4 64C3.99943 71.8795 5.55098 79.6819 8.56606 86.9617C11.5811 94.2415 16.0007 100.856 21.5723 106.428C27.1439 111.999 33.7585 116.419 41.0383 119.434C48.3181 122.449 56.1205 124.001 64 124C71.8795 124.001 79.6819 122.449 86.9617 119.434C94.2415 116.419 100.856 111.999 106.428 106.428C111.999 100.856 116.419 94.2415 119.434 86.9617C122.449 79.6819 124.001 71.8795 124 64C124.001 56.1205 122.449 48.3181 119.434 41.0383C116.419 33.7585 111.999 27.1439 106.428 21.5723C100.856 16.0007 94.2415 11.5811 86.9617 8.56606C79.6819 5.55098 71.8795 3.99943 64 4V4ZM88.9142 84.742C89.3913 85.3061 89.7526 85.9587 89.9775 86.6624C90.2025 87.3662 90.2865 88.1074 90.225 88.8436C90.1635 89.5799 89.9575 90.2968 89.6189 90.9535C89.2803 91.6101 88.8156 92.1937 88.2515 92.6707C87.2378 93.5284 85.9531 93.9993 84.6253 94C83.807 94.001 82.9984 93.8233 82.256 93.4792C81.5135 93.1351 80.8552 92.633 80.3271 92.008L64 72.7185L47.6642 92.0075C47.1099 92.654 46.4181 93.1684 45.6394 93.5131C44.8608 93.8579 44.0149 94.0242 43.1636 94C41.9038 93.9597 40.6959 93.4881 39.742 92.6642C38.6029 91.7005 37.8932 90.3239 37.7689 88.837C37.6446 87.3502 38.116 85.8749 39.0793 84.7355L56.6429 64.0005L39.088 43.2585C38.6099 42.6959 38.2475 42.0444 38.0215 41.3414C37.7956 40.6384 37.7106 39.8978 37.7714 39.1619C37.8322 38.426 38.0376 37.7094 38.3759 37.053C38.7141 36.3966 39.1785 35.8135 39.7425 35.3369C40.3052 34.8588 40.9567 34.4964 41.6597 34.2704C42.3627 34.0445 43.1033 33.9595 43.8392 34.0203C44.5751 34.0811 45.2917 34.2865 45.9481 34.6248C46.6044 34.963 47.1876 35.4275 47.6642 35.9915L64 55.2815L80.3287 35.9833C80.8055 35.4187 81.3889 34.9537 82.0456 34.6147C82.7023 34.2758 83.4193 34.0697 84.1557 34.0082C84.8921 33.9466 85.6334 34.0308 86.3372 34.256C87.041 34.4812 87.6936 34.843 88.2575 35.3205C89.3965 36.2842 90.1063 37.6608 90.2305 39.1477C90.3548 40.6345 89.8835 42.1099 88.9202 43.2493L71.3593 64L88.9142 84.742Z" fill="black"/>
</svg>
