<svg width="128" height="128" viewBox="0 0 128 128" fill="none" xmlns="http://www.w3.org/2000/svg">
<path d="M64 86.5C59.9888 86.4915 56.0965 85.1369 52.9467 82.6533L4 44.5933V97.7467C4 100.731 5.18562 103.594 7.29603 105.704C9.40644 107.814 12.2688 109 15.2533 109H112.753C115.736 109 118.597 107.815 120.706 105.706C122.815 103.597 124 100.736 124 97.7533V44.5933L75.06 82.68C71.8997 85.1459 68.0085 86.4898 64 86.5ZM7.82 38.0533L57.5533 76.72C59.3981 78.1558 61.669 78.9354 64.0067 78.9354C66.3443 78.9354 68.6152 78.1558 70.46 76.72L120.193 38.0533C121.343 37.096 122.277 35.9058 122.933 34.5614C123.589 33.2169 123.953 31.7486 124 30.2533C124 27.2699 122.815 24.4086 120.706 22.2984C118.597 20.1882 115.737 19.0018 112.753 19H15.2533C13.7753 18.9991 12.3115 19.2896 10.9458 19.8548C9.58012 20.42 8.33922 21.2489 7.29407 22.2941C6.24893 23.3392 5.42005 24.5801 4.85483 25.9458C4.2896 27.3115 3.99913 28.7753 4 30.2533C4.00048 31.7595 4.34484 33.2457 5.00685 34.5986C5.66886 35.9515 6.63102 37.1354 7.82 38.06V38.0533Z" fill="black"/>
</svg>
