<svg width="128" height="128" viewBox="0 0 128 128" fill="none" xmlns="http://www.w3.org/2000/svg">
<path d="M48.5042 97.7704C48.5239 98.2681 48.4405 98.7644 48.2592 99.2283C48.0779 99.6921 47.8027 100.114 47.4509 100.466C47.099 100.818 46.6781 101.094 46.2146 101.277C45.751 101.459 45.2548 101.543 44.7571 101.524C44.2589 101.544 43.762 101.46 43.2977 101.279C42.8333 101.097 42.4116 100.821 42.059 100.469C41.7064 100.116 41.4306 99.6943 41.249 99.2299C41.0673 98.7656 40.9837 98.2686 41.0034 97.7704V49.0117C40.9846 48.514 41.0689 48.0178 41.251 47.5542C41.4331 47.0907 41.7091 46.6698 42.0615 46.3179C42.414 45.9661 42.8354 45.6909 43.2993 45.5096C43.7632 45.3284 44.2595 45.2449 44.7571 45.2646C45.2542 45.2459 45.7498 45.33 46.2129 45.5117C46.676 45.6934 47.0966 45.9687 47.4483 46.3205C47.8001 46.6722 48.0754 47.0928 48.2571 47.5559C48.4388 48.019 48.5229 48.5146 48.5042 49.0117V97.7704ZM67.2596 97.7704C67.2793 98.2681 67.1959 98.7644 67.0146 99.2283C66.8333 99.6921 66.5581 100.114 66.2063 100.466C65.8544 100.818 65.4335 101.094 64.97 101.277C64.5064 101.459 64.0102 101.543 63.5126 101.524C63.0155 101.543 62.5199 101.459 62.0568 101.277C61.5937 101.095 61.1731 100.82 60.8214 100.468C60.4696 100.117 60.1943 99.696 60.0126 99.2329C59.8309 98.7698 59.7468 98.2742 59.7655 97.7771V49.0117C59.7467 48.514 59.831 48.0178 60.0131 47.5542C60.1952 47.0907 60.4711 46.6698 60.8236 46.3179C61.1761 45.9661 61.5975 45.6909 62.0614 45.5096C62.5252 45.3284 63.0216 45.2449 63.5192 45.2646C64.0158 45.2468 64.5107 45.3316 64.9729 45.5137C65.4352 45.6959 65.855 45.9713 66.206 46.323C66.5571 46.6746 66.8318 47.0949 67.0131 47.5575C67.1944 48.0201 67.2783 48.5152 67.2596 49.0117V97.7704ZM86.0151 97.7704C86.0347 98.2681 85.9513 98.7644 85.77 99.2283C85.5888 99.6921 85.3136 100.114 84.9617 100.466C84.6099 100.818 84.1889 101.094 83.7254 101.277C83.2618 101.459 82.7657 101.543 82.268 101.524C81.7709 101.543 81.2753 101.459 80.8122 101.277C80.3491 101.095 79.9285 100.82 79.5768 100.468C79.225 100.117 78.9497 99.696 78.768 99.2329C78.5863 98.7698 78.5022 98.2742 78.5209 97.7771V49.0117C78.5021 48.514 78.5864 48.0178 78.7685 47.5542C78.9506 47.0907 79.2266 46.6698 79.579 46.3179C79.9315 45.9661 80.3529 45.6909 80.8168 45.5096C81.2807 45.3284 81.777 45.2449 82.2746 45.2646C82.7706 45.2478 83.2648 45.3333 83.7263 45.5158C84.1878 45.6983 84.6067 45.974 84.957 46.3255C85.3073 46.6771 85.5815 47.097 85.7624 47.5591C85.9432 48.0213 86.027 48.5157 86.0084 49.0117L86.0151 97.7704ZM85.5483 9.86732L93.9893 22.7621H110.398C111.138 22.7586 111.871 22.9017 112.555 23.1832C113.24 23.4648 113.861 23.8792 114.385 24.4024C114.908 24.9257 115.322 25.5474 115.604 26.2317C115.885 26.9161 116.029 27.6494 116.025 28.3894C116.029 29.1293 115.885 29.8627 115.604 30.547C115.322 31.2314 114.908 31.8531 114.385 32.3763C113.861 32.8996 113.24 33.314 112.555 33.5955C111.871 33.8771 111.138 34.0202 110.398 34.0167H108.524V105.271C108.496 110.242 106.566 115.013 103.13 118.606C99.5376 122.042 94.7663 123.972 89.7955 124H37.2563C32.2855 123.972 27.5141 122.042 23.9215 118.606C20.486 115.013 18.556 110.242 18.5276 105.271V34.01H16.6274C15.8874 34.0135 15.154 33.8704 14.4697 33.5888C13.7854 33.3073 13.1636 32.8929 12.6404 32.3697C12.1171 31.8464 11.7028 31.2247 11.4212 30.5404C11.1397 29.856 10.9965 29.1227 11.0001 28.3827C10.9965 27.6427 11.1397 26.9094 11.4212 26.2251C11.7028 25.5407 12.1171 24.919 12.6404 24.3957C13.1636 23.8725 13.7854 23.4581 14.4697 23.1766C15.154 22.895 15.8874 22.7519 16.6274 22.7554H33.0025L41.6701 9.86066C42.8547 8.08033 44.4559 6.61597 46.3347 5.59467C48.2134 4.57337 50.3131 4.02598 52.4513 4H74.4538C76.6342 4.03149 78.7762 4.57973 80.7036 5.59967C82.6311 6.61962 84.2892 8.0822 85.5417 9.86732H85.5483ZM46.6307 22.7621H80.6345L76.1806 16.2014C76.006 15.9216 75.7648 15.6893 75.4786 15.5253C75.1925 15.3613 74.8702 15.2706 74.5405 15.2613H52.538C52.2285 15.2139 51.9124 15.2841 51.652 15.4581C51.3917 15.6321 51.2059 15.8973 51.1312 16.2014L46.6307 22.7621ZM29.7555 105.271C29.7222 106.266 29.8918 107.258 30.254 108.185C30.6163 109.112 31.1635 109.956 31.8624 110.665C32.5714 111.364 33.4153 111.911 34.3426 112.274C35.2699 112.636 36.2613 112.805 37.2563 112.772H89.7621C90.7571 112.805 91.7485 112.636 92.6759 112.274C93.6032 111.911 94.4471 111.364 95.1561 110.665C95.855 109.956 96.4022 109.112 96.7644 108.185C97.1266 107.258 97.2963 106.266 97.263 105.271V34.01H29.7555V105.271Z" fill="black"/>
</svg>
