<svg width="128" height="128" viewBox="0 0 128 128" fill="none" xmlns="http://www.w3.org/2000/svg">
<path d="M64 4C52.1331 4 40.5328 7.51894 30.6658 14.1118C20.7989 20.7047 13.1085 30.0754 8.56726 41.039C4.026 52.0026 2.8378 64.0666 5.15291 75.7054C7.46802 87.3443 13.1825 98.0353 21.5736 106.426C29.9648 114.818 40.6557 120.532 52.2946 122.847C63.9335 125.162 75.9975 123.974 86.961 119.433C97.9246 114.892 107.295 107.201 113.888 97.3342C120.481 87.4673 124 75.8669 124 64C124 48.087 117.679 32.8258 106.426 21.5736C95.1743 10.3214 79.913 4 64 4V4ZM64 116.5C53.6165 116.5 43.4662 113.421 34.8326 107.652C26.199 101.883 19.47 93.684 15.4964 84.0909C11.5228 74.4978 10.4831 63.9418 12.5088 53.7578C14.5345 43.5738 19.5347 34.2192 26.8769 26.8769C34.2192 19.5346 43.5738 14.5345 53.7578 12.5088C63.9418 10.483 74.4978 11.5227 84.0909 15.4963C93.684 19.4699 101.883 26.199 107.652 34.8326C113.421 43.4661 116.5 53.6165 116.5 64C116.483 77.9187 110.946 91.2624 101.104 101.104C91.2624 110.946 77.9187 116.483 64 116.5V116.5ZM64 47.125C65.1125 47.125 66.2001 46.7951 67.1251 46.177C68.0501 45.5589 68.7711 44.6804 69.1969 43.6526C69.6226 42.6248 69.734 41.4938 69.5169 40.4026C69.2999 39.3115 68.7642 38.3092 67.9775 37.5225C67.1908 36.7359 66.1886 36.2001 65.0974 35.9831C64.0063 35.766 62.8753 35.8774 61.8474 36.3032C60.8196 36.7289 59.9411 37.4499 59.323 38.3749C58.7049 39.2999 58.375 40.3875 58.375 41.5C58.375 42.9918 58.9677 44.4226 60.0226 45.4775C61.0774 46.5324 62.5082 47.125 64 47.125V47.125ZM75.25 86.5H67.75V60.25C67.7471 59.2563 67.3511 58.3042 66.6485 57.6016C65.9458 56.8989 64.9937 56.5029 64 56.5H56.5C55.5055 56.5 54.5516 56.8951 53.8484 57.5984C53.1451 58.3016 52.75 59.2554 52.75 60.25C52.75 61.2446 53.1451 62.1984 53.8484 62.9016C54.5516 63.6049 55.5055 64 56.5 64H60.25V86.5H52.75C51.7555 86.5 50.8016 86.8951 50.0984 87.5984C49.3951 88.3016 49 89.2554 49 90.25C49 91.2446 49.3951 92.1984 50.0984 92.9016C50.8016 93.6049 51.7555 94 52.75 94H75.25C76.2446 94 77.1984 93.6049 77.9017 92.9016C78.6049 92.1984 79 91.2446 79 90.25C79 89.2554 78.6049 88.3016 77.9017 87.5984C77.1984 86.8951 76.2446 86.5 75.25 86.5Z" fill="black"/>
</svg>
