<svg width="29" height="28" viewBox="0 0 29 28" fill="none" xmlns="http://www.w3.org/2000/svg">
<path d="M24.1304 14.7526L23.003 13.6383L19.9674 16.6749C19.9993 16.7124 20.0923 16.7688 20.1045 16.8477C20.1271 16.9774 20.1496 17.1681 20.0791 17.2348C20.0202 17.2664 19.9544 17.2829 19.8875 17.2829C19.8206 17.2829 19.7548 17.2664 19.6958 17.2348C19.524 17.1047 19.3665 16.9567 19.2261 16.7932L16.0373 13.6242L14.9099 14.7601C14.9756 14.8127 15.0846 14.9039 15.1992 14.9893C15.9509 15.5493 16.7025 16.1086 17.4541 16.6673L17.5725 16.7557C17.7341 16.875 17.8281 17.0225 17.689 17.2066C17.55 17.3908 17.3865 17.3532 17.2192 17.2311C16.7758 16.9022 16.3317 16.574 15.887 16.2464C15.6862 16.121 15.4975 15.9773 15.3233 15.8171C15.1301 15.6187 14.882 15.4828 14.6109 15.4269C14.3397 15.3709 14.058 15.3975 13.8022 15.5033C12.9593 15.7095 12.2228 16.2211 11.7352 16.9389C11.6509 17.0678 11.6047 17.2179 11.6018 17.372C11.5943 20.2031 11.5921 23.0345 11.5952 25.8663C11.5952 25.9555 11.6253 26.0617 11.5868 26.1284C11.5087 26.2384 11.4193 26.3398 11.3199 26.4309C11.2106 26.3391 11.1079 26.2396 11.0127 26.1331C10.9789 26.0908 11.0042 25.9997 11.0042 25.9302C11.0042 23.0984 11.0108 20.2676 10.9958 17.4359C10.9866 17.0913 11.1009 16.7547 11.3181 16.487C11.937 15.6689 12.8304 15.1017 13.8341 14.8898C13.9393 14.8672 14.022 14.7423 14.116 14.6615C14.1366 14.6436 14.1376 14.6041 14.1573 14.5844C14.7069 14.032 15.2519 13.4748 15.8118 12.9337C15.9687 12.7815 16.1388 12.866 16.2816 13.0088C16.57 13.3038 16.8613 13.597 17.1995 13.939C17.2512 13.5819 17.3057 13.2879 17.3282 12.9919C17.3339 12.9233 17.2474 12.8219 17.177 12.7758C16.5123 12.3608 15.9698 11.7769 15.6046 11.0836C15.2395 10.3904 15.0649 9.61261 15.0987 8.8298C15.0987 7.88276 15.1053 6.93572 15.0921 5.98867C15.0812 5.83651 15.026 5.69086 14.9334 5.56964C14.743 5.30846 14.6201 5.00421 14.5758 4.68404C14.5316 4.36386 14.5672 4.0377 14.6796 3.73464C14.792 3.43158 14.9775 3.16104 15.2199 2.94712C15.4622 2.73321 15.7537 2.58258 16.0683 2.50866C16.4606 2.48996 16.8537 2.52153 17.238 2.60261C19.4708 2.88945 21.7324 2.36572 23.6118 1.12662C23.9124 0.924618 24.0524 0.955623 24.2159 1.28258C24.7114 2.11988 24.9359 3.08995 24.8585 4.05982C24.7906 4.62381 24.5181 5.1433 24.0928 5.51985C24.0293 5.57128 23.9791 5.63722 23.9464 5.7121C23.9137 5.78698 23.8995 5.86862 23.9049 5.95015C23.9124 6.93666 23.9115 7.92316 23.9049 8.90966C23.9302 9.68331 23.7507 10.4499 23.3846 11.1319C23.0186 11.814 22.4788 12.3872 21.8201 12.7937C21.7779 12.8319 21.7445 12.8789 21.7221 12.9312C21.6997 12.9836 21.6889 13.0402 21.6904 13.0971C21.7026 13.3518 21.7553 13.6045 21.8032 13.9333C22.0597 13.6778 22.2833 13.4532 22.5078 13.2296C23.003 12.7373 23.0039 12.7382 23.5037 13.2381L24.6763 14.4097C24.711 14.4444 24.7702 14.4745 24.7777 14.5149C24.8613 14.9349 25.2306 14.8982 25.5218 14.9847C26.4993 15.2672 27.3367 15.9036 27.8707 16.7698C27.9468 16.8934 27.9886 17.0351 27.9918 17.1803C27.9987 20.1204 28.0009 23.0602 27.9984 25.9997C27.9984 26.2158 27.9702 26.4253 27.71 26.4262C27.4328 26.4262 27.4018 26.2064 27.4018 25.9818C27.4018 23.4664 27.4018 20.9507 27.4018 18.4346C27.3875 18.2576 27.3891 18.0796 27.4065 17.9028C27.4535 17.5594 27.3961 17.2099 27.242 16.8995C27.0879 16.589 26.8441 16.3321 26.5422 16.1619C25.9435 15.6841 25.2026 15.4196 24.4367 15.4103C24.3001 15.4176 24.169 15.4665 24.0609 15.5502C23.359 16.0595 22.6647 16.5837 21.9686 17.0977C21.8971 17.1503 21.8267 17.2048 21.7534 17.2546C21.723 17.2843 21.6865 17.3069 21.6464 17.3208C21.6062 17.3347 21.5635 17.3395 21.5213 17.3349C21.4791 17.3303 21.4384 17.3164 21.4022 17.2943C21.3659 17.2721 21.3351 17.2422 21.3118 17.2066C21.1878 17.0356 21.262 16.8891 21.4114 16.7726C21.5204 16.688 21.6331 16.6082 21.744 16.5255L24.1304 14.7526ZM23.266 6.10893C22.949 6.22759 22.6187 6.30679 22.2823 6.34476C20.0904 6.33066 17.8957 6.43119 15.6991 6.2865C15.6991 7.17906 15.6756 8.1261 15.7038 9.07127C15.7052 9.60097 15.8178 10.1245 16.0343 10.6079C16.2508 11.0913 16.5664 11.5239 16.9607 11.8776C17.355 12.2314 17.8192 12.4984 18.3232 12.6613C18.8272 12.8243 19.3598 12.8796 19.8866 12.8237C20.7275 12.7511 21.5185 12.3937 22.1289 11.8107C22.7392 11.2277 23.1324 10.4539 23.2435 9.61713C23.3431 8.44836 23.2651 7.26831 23.2651 6.11175L23.266 6.10893ZM23.7828 1.72885C21.577 3.08004 18.9472 3.56197 16.4056 3.08083C16.1624 3.06698 15.9218 3.13659 15.7235 3.27814C15.4868 3.45102 15.3109 3.69437 15.2209 3.97334C15.131 4.25231 15.1316 4.55259 15.2227 4.83118C15.3153 5.11009 15.4958 5.35145 15.7372 5.519C15.9786 5.68655 16.2679 5.77125 16.5616 5.76037C18.4362 5.76851 20.3106 5.76851 22.1846 5.76037C22.6193 5.73167 23.037 5.58083 23.3897 5.32519C23.7424 5.06955 24.0158 4.71952 24.1783 4.31538C24.392 3.43555 24.2495 2.50693 23.7818 1.73167L23.7828 1.72885ZM21.1004 13.1451C20.0714 13.5214 18.9425 13.5214 17.9135 13.1451C17.8572 13.5707 17.8008 13.9587 17.7595 14.3477C17.7582 14.424 17.7868 14.4979 17.8393 14.5534C18.3852 15.1077 18.9367 15.6564 19.5155 16.2342C20.0792 15.6611 20.6429 15.1068 21.1859 14.5374C21.2369 14.4683 21.2595 14.3822 21.2489 14.2969C21.2085 13.9305 21.154 13.5631 21.0995 13.1479L21.1004 13.1451Z" fill="black" stroke="black" stroke-width="0.5"/>
<path d="M11.3703 11.3902C11.3703 12.1202 11.3703 12.7994 11.3703 13.4778C11.3703 13.6563 11.3928 13.8808 11.1692 13.909C11.0117 13.9035 10.8628 13.8359 10.7549 13.7211C10.023 13.0024 9.31178 12.2639 8.57801 11.5471C8.45689 11.4405 8.30238 11.3797 8.14116 11.3751C6.26774 11.3545 4.39433 11.3469 2.52091 11.3385C2.31576 11.3548 2.10949 11.326 1.91668 11.254C1.72386 11.1821 1.54917 11.0688 1.40482 10.9221C1.26047 10.7755 1.15001 10.5989 1.08117 10.405C1.01234 10.2111 0.986814 10.0044 1.00639 9.79954C1.01642 8.04576 1.02735 6.29196 1.03925 4.53818C1.01846 4.3327 1.04338 4.12517 1.11219 3.93045C1.181 3.73572 1.29201 3.55862 1.43728 3.41182C1.58255 3.26503 1.75846 3.15216 1.95246 3.08132C2.14645 3.01048 2.35371 2.98342 2.55939 3.00206C5.67549 3.01208 8.79131 3.03024 11.9068 3.05655C12.0854 3.05391 12.2627 3.08702 12.4284 3.15393C12.594 3.22085 12.7446 3.32022 12.8713 3.44619C12.998 3.57216 13.0982 3.72219 13.166 3.88746C13.2338 4.05273 13.2679 4.22989 13.2662 4.40852C13.2738 6.28194 13.2678 8.15536 13.2484 10.0288C13.2428 10.3885 13.0972 10.7319 12.8425 10.9859C12.5877 11.2399 12.244 11.3846 11.8843 11.3892C11.7283 11.3977 11.5686 11.3902 11.3703 11.3902ZM10.7822 12.8624C10.7822 12.3034 10.7822 11.7754 10.7822 11.2473C10.7822 10.8922 10.8686 10.7973 11.2313 10.7973C11.4192 10.7973 11.6071 10.7973 11.795 10.7973C11.9112 10.806 12.0279 10.7895 12.1372 10.749C12.2465 10.7084 12.3457 10.6448 12.4282 10.5624C12.5106 10.48 12.5742 10.3807 12.6148 10.2714C12.6553 10.1622 12.6718 10.0454 12.6631 9.92919C12.6687 9.50546 12.6631 9.08362 12.6678 8.65707C12.6753 7.29664 12.6913 5.93244 12.6903 4.57576C12.7095 4.4498 12.6989 4.32111 12.6594 4.19997C12.62 4.07883 12.5528 3.96858 12.4631 3.87804C12.3735 3.78749 12.264 3.71915 12.1432 3.67847C12.0225 3.6378 11.8939 3.62591 11.7677 3.64375C10.4468 3.6353 9.12576 3.62214 7.80478 3.61557C6.051 3.6068 4.29723 3.60022 2.54345 3.59583C2.42258 3.58116 2.29996 3.59384 2.18465 3.63293C2.06933 3.67202 1.96426 3.73652 1.87722 3.82166C1.79018 3.90681 1.72341 4.01042 1.68179 4.12484C1.64018 4.23927 1.62477 4.36158 1.63678 4.48275C1.62738 5.04647 1.62116 5.6083 1.61803 6.16826C1.61145 7.41032 1.6011 8.65238 1.60392 9.89537C1.59503 10.007 1.60992 10.1192 1.64767 10.2246C1.68543 10.33 1.74519 10.4262 1.82292 10.5067C1.90065 10.5873 1.9946 10.6504 2.09857 10.6919C2.20255 10.7335 2.31416 10.7524 2.42601 10.7475C4.40747 10.7607 6.3889 10.7635 8.37037 10.786C8.54953 10.7951 8.72025 10.865 8.85424 10.9843C9.48936 11.5856 10.1104 12.2047 10.7822 12.8624Z" fill="black" stroke="black" stroke-width="0.5"/>
<path d="M14.3374 23.0918C14.3374 24.3038 14.3374 25.5158 14.3374 26.7278C14.3374 26.8161 14.3646 26.9213 14.327 26.9899C14.2688 27.0961 14.1607 27.2568 14.0818 27.2521C13.953 27.2173 13.8425 27.1346 13.7727 27.0209C13.7239 26.9533 13.7464 26.833 13.7464 26.7325C13.7464 24.3085 13.7464 21.8845 13.7464 19.4606C13.7464 19.4408 13.7464 19.4211 13.7464 19.4013C13.7464 19.1787 13.7464 18.9316 14.0471 18.9222C14.3656 18.9166 14.3374 19.1796 14.3374 19.3967C14.338 20.6281 14.338 21.8598 14.3374 23.0918Z" fill="black" stroke="black" stroke-width="0.5"/>
<path d="M25.1026 23.1218C25.1026 24.3639 25.1026 25.6056 25.1026 26.8471C25.1026 27.0585 25.0904 27.268 24.8151 27.268C24.5399 27.268 24.5107 27.0603 24.5107 26.8499C24.5107 24.3445 24.5107 21.841 24.5107 19.3393C24.5107 19.1411 24.5427 18.9428 24.7841 18.9203C25.0538 18.8949 25.1036 19.0838 25.1026 19.3074C25.1026 20.5795 25.1026 21.851 25.1026 23.1218Z" fill="black" stroke="black" stroke-width="0.5"/>
<path d="M22.1045 20.2122C22.4389 20.2122 22.7743 20.2122 23.1088 20.2122C23.3033 20.2122 23.4461 20.2799 23.4574 20.4856C23.4696 20.713 23.309 20.7994 23.1126 20.8013C22.443 20.8082 21.7735 20.8082 21.1039 20.8013C20.9075 20.8013 20.744 20.7158 20.7544 20.4894C20.7647 20.2629 20.9272 20.2075 21.1302 20.2075C21.4543 20.2207 21.7794 20.2122 22.1045 20.2122Z" fill="black" stroke="black" stroke-width="0.5"/>
<path d="M7.14289 7.48257C6.93734 7.5019 6.73027 7.4978 6.52564 7.47036C6.40538 7.44217 6.31425 7.29092 6.20996 7.19414C6.31143 7.09455 6.4063 6.91792 6.51434 6.91228C6.94594 6.88048 7.3793 6.88048 7.8109 6.91228C7.91143 6.9198 8.09278 7.10958 8.07399 7.18098C8.05255 7.24771 8.01589 7.30856 7.96699 7.35877C7.91809 7.40897 7.85823 7.44716 7.79209 7.47036C7.57679 7.49822 7.35909 7.50232 7.14289 7.48257V7.48257Z" fill="black" stroke="black" stroke-width="0.5"/>
<path d="M4.26624 7.48242H3.67715C3.4836 7.48242 3.33985 7.40161 3.33234 7.20055C3.32482 6.9995 3.4573 6.89708 3.65272 6.89426C4.06517 6.88957 4.47858 6.88863 4.89009 6.89426C5.08363 6.89426 5.21236 6.99386 5.20296 7.20243C5.19451 7.39598 5.06388 7.47396 4.88631 7.47771C4.67867 7.48523 4.472 7.48148 4.26624 7.48242Z" fill="black" stroke="black" stroke-width="0.5"/>
<path d="M10.0184 7.48248C9.81261 7.48248 9.60593 7.48812 9.40017 7.48248C9.36054 7.48652 9.3205 7.48188 9.28284 7.46887C9.24519 7.45587 9.21079 7.43483 9.18209 7.4072C9.15339 7.37957 9.13106 7.34602 9.11663 7.30888C9.10221 7.27175 9.09604 7.23192 9.09857 7.19216C9.09529 7.15231 9.10087 7.11223 9.11488 7.07478C9.1289 7.03732 9.15102 7.00343 9.17965 6.97551C9.20828 6.9476 9.24273 6.92635 9.28052 6.9133C9.31832 6.90024 9.35852 6.89569 9.39828 6.89998C9.82013 6.89246 10.2438 6.89434 10.6648 6.89998C10.7044 6.89521 10.7447 6.89936 10.7826 6.91212C10.8205 6.92488 10.855 6.94594 10.8838 6.97375C10.9125 7.00156 10.9346 7.03544 10.9486 7.0729C10.9625 7.11036 10.968 7.15046 10.9645 7.19028C10.9645 7.3998 10.8329 7.48249 10.6375 7.48343C10.4421 7.48437 10.2251 7.48248 10.0184 7.48248Z" fill="black" stroke="black" stroke-width="0.5"/>
</svg>
