<svg width="128" height="128" viewBox="0 0 128 128" fill="none" xmlns="http://www.w3.org/2000/svg">
<path d="M45.04 58.3744C45.7952 58.3981 46.5474 58.2704 47.2525 57.9987C47.9575 57.7271 48.6009 57.317 49.1449 56.7927C49.6889 56.2684 50.1224 55.6404 50.4199 54.9459C50.7173 54.2514 50.8727 53.5043 50.8768 52.7488C50.8727 51.9933 50.7173 51.2462 50.4199 50.5517C50.1224 49.8572 49.6889 49.2292 49.1449 48.7049C48.6009 48.1806 47.9575 47.7705 47.2525 47.4989C46.5474 47.2272 45.7952 47.0995 45.04 47.1232C43.5804 47.1646 42.1955 47.7772 41.1829 48.8293C40.1704 49.8813 39.6112 51.2887 39.6256 52.7488C39.6112 54.2089 40.1704 55.6163 41.1829 56.6683C42.1955 57.7204 43.5804 58.333 45.04 58.3744V58.3744ZM64 79.0144C58.8677 79.0097 53.7973 80.1338 49.1479 82.3071C44.4985 84.4804 40.384 87.6497 37.096 91.5904C36.779 91.9678 36.5399 92.4042 36.3923 92.8745C36.2448 93.3447 36.1918 93.8395 36.2364 94.3304C36.2811 94.8212 36.4224 95.2983 36.6523 95.7343C36.8822 96.1702 37.1962 96.5564 37.576 96.8704C37.9544 97.1912 38.3929 97.4336 38.8658 97.5833C39.3388 97.733 39.8369 97.7871 40.3309 97.7424C40.825 97.6978 41.3053 97.5552 41.7438 97.3231C42.1822 97.091 42.5701 96.7739 42.8848 96.3904C45.4431 93.3178 48.6412 90.8407 52.2559 89.132C55.8706 87.4233 59.8147 86.5242 63.8128 86.4976C67.8392 86.5234 71.8122 87.4216 75.4582 89.1302C79.1043 90.8389 82.3366 93.3174 84.9328 96.3952C85.2445 96.7784 85.6297 97.0953 86.0658 97.3275C86.5018 97.5596 86.9798 97.7022 87.4717 97.747C87.9637 97.7917 88.4596 97.7376 88.9303 97.5879C89.401 97.4382 89.8371 97.1959 90.2128 96.8752C90.5938 96.5619 90.9087 96.1761 91.1393 95.7401C91.37 95.3042 91.5117 94.8267 91.5564 94.3355C91.601 93.8443 91.5477 93.3492 91.3994 92.8787C91.2512 92.4083 91.011 91.972 90.6928 91.5952C87.4666 87.6356 83.3944 84.449 78.7753 82.2694C74.1562 80.0898 69.1075 78.9727 64 79V79.0144ZM82.5376 58.3744C83.2928 58.3981 84.045 58.2704 84.7501 57.9987C85.4551 57.7271 86.0986 57.317 86.6426 56.7927C87.1865 56.2684 87.62 55.6404 87.9175 54.9459C88.2149 54.2514 88.3703 53.5043 88.3744 52.7488C88.3757 52.0072 88.2301 51.2728 87.946 50.5878C87.662 49.9028 87.2451 49.2808 86.7194 48.7578C86.1937 48.2348 85.5696 47.8211 84.8832 47.5405C84.1967 47.26 83.4615 47.1181 82.72 47.1232C81.9815 47.1226 81.2502 47.2677 80.5679 47.5503C79.8856 47.8329 79.2658 48.2474 78.7441 48.7701C78.2223 49.2927 77.8089 49.9132 77.5274 50.596C77.246 51.2787 77.1021 52.0103 77.104 52.7488C77.0897 54.2121 77.6515 55.6223 78.6682 56.6749C79.6848 57.7275 81.0747 58.3379 82.5376 58.3744V58.3744ZM64 4C48.087 4 32.8258 10.3214 21.5736 21.5736C10.3214 32.8258 4 48.087 4 64C4 79.913 10.3214 95.1742 21.5736 106.426C32.8258 117.679 48.087 124 64 124C79.913 124 95.1742 117.679 106.426 106.426C117.679 95.1742 124 79.913 124 64C124 48.087 117.679 32.8258 106.426 21.5736C95.1742 10.3214 79.913 4 64 4ZM64 116.502C50.0814 116.485 36.738 110.947 26.8965 101.105C17.055 91.2625 11.5189 77.9186 11.5024 64C11.5202 50.0822 17.0569 36.7396 26.8982 26.8982C36.7396 17.0569 50.0822 11.5202 64 11.5024C77.9186 11.5189 91.2625 17.055 101.105 26.8965C110.947 36.738 116.485 50.0814 116.502 64C116.486 77.9194 110.949 91.264 101.107 101.107C91.264 110.949 77.9194 116.486 64 116.502V116.502Z" fill="black"/>
</svg>
