<svg width="128" height="128" viewBox="0 0 128 128" fill="none" xmlns="http://www.w3.org/2000/svg">
<path d="M81.6496 46.3504C80.9475 45.6539 79.9986 45.2632 79.0096 45.2632C78.0206 45.2632 77.0717 45.6539 76.3696 46.3504L64 58.7008L51.6496 46.3504C50.9475 45.6539 49.9986 45.2632 49.0096 45.2632C48.0206 45.2632 47.0717 45.6539 46.3696 46.3504C45.6731 47.0525 45.2824 48.0014 45.2824 48.9904C45.2824 49.9794 45.6731 50.9283 46.3696 51.6304L58.72 64L46.3504 76.36C45.6539 77.0621 45.2632 78.011 45.2632 79C45.2632 79.989 45.6539 80.9379 46.3504 81.64C47.0525 82.3365 48.0014 82.7272 48.9904 82.7272C49.9794 82.7272 50.9283 82.3365 51.6304 81.64L64 69.2992L76.3504 81.64C77.0525 82.3365 78.0014 82.7272 78.9904 82.7272C79.9794 82.7272 80.9283 82.3365 81.6304 81.64C82.3269 80.9379 82.7176 79.989 82.7176 79C82.7176 78.011 82.3269 77.0621 81.6304 76.36L69.28 64L81.6304 51.6496C81.9829 51.3048 82.2633 50.8933 82.4553 50.4391C82.6473 49.9849 82.7471 49.4971 82.7489 49.004C82.7507 48.5109 82.6544 48.0224 82.4657 47.5668C82.277 47.1113 81.9996 46.6978 81.6496 46.3504V46.3504ZM64 4C48.087 4 32.8258 10.3214 21.5736 21.5736C10.3214 32.8258 4 48.087 4 64C4 79.913 10.3214 95.1742 21.5736 106.426C32.8258 117.679 48.087 124 64 124C79.913 124 95.1742 117.679 106.426 106.426C117.679 95.1742 124 79.913 124 64C124 48.087 117.679 32.8258 106.426 21.5736C95.1742 10.3214 79.913 4 64 4ZM64 116.502C50.0814 116.485 36.738 110.947 26.8965 101.105C17.055 91.2625 11.5189 77.9186 11.5024 64C11.5202 50.0822 17.0569 36.7396 26.8982 26.8982C36.7396 17.0569 50.0822 11.5202 64 11.5024C77.9186 11.5189 91.2625 17.055 101.105 26.8965C110.947 36.738 116.485 50.0814 116.502 64C116.486 77.9194 110.949 91.264 101.107 101.107C91.264 110.949 77.9194 116.486 64 116.502V116.502Z" fill="black"/>
</svg>
