<svg width="128" height="128" viewBox="0 0 128 128" fill="none" xmlns="http://www.w3.org/2000/svg">
<path d="M36.5115 53.3671C37.5699 52.2085 38.1847 51.479 38.8498 50.8139C43.4699 46.1795 48.1474 41.5881 52.7174 36.918C53.6451 36.1221 54.3932 35.1385 54.9126 34.0321C55.432 32.9256 55.711 31.7215 55.7306 30.4994C55.7502 29.2773 55.5102 28.0649 55.0265 26.9424C54.5429 25.8198 53.8264 24.8127 52.9247 23.9875C52.1064 23.0465 51.0954 22.2926 49.9599 21.7771C48.8244 21.2616 47.5909 20.9966 46.3439 21C45.0968 21.0034 43.8653 21.2751 42.7326 21.7968C41.5999 22.3184 40.5928 23.0779 39.7796 24.0233C28.8707 34.8511 18 45.7171 7.16743 56.6212C6.17942 57.4672 5.38522 58.516 4.83864 59.6963C4.29205 60.8766 4.00621 62.1607 4.0001 63.4614C3.99399 64.7622 4.2678 66.0489 4.80328 67.2343C5.33876 68.4197 6.12324 69.4759 7.10326 70.3311C17.6689 81.221 28.2699 92.0751 38.907 102.893C39.6914 103.83 40.6646 104.59 41.7627 105.125C42.8608 105.66 44.0593 105.957 45.2801 105.998C46.5009 106.038 47.7166 105.821 48.8477 105.36C49.9788 104.899 51.0001 104.205 51.8448 103.322C52.8114 102.528 53.5929 101.533 54.1343 100.405C54.6757 99.277 54.964 98.0445 54.9789 96.7937C54.9939 95.5428 54.7353 94.3037 54.2212 93.1633C53.707 92.0229 52.9497 91.0088 52.0024 90.1918C47.4252 85.3786 42.7046 80.6727 38.106 75.8882C37.5339 75.2946 37.0337 74.6294 36.1897 73.6281H57.2017C75.844 73.6281 94.4886 73.6281 113.136 73.6281C115.432 73.772 117.71 73.1392 119.602 71.8315C121.495 70.5239 122.892 68.6175 123.57 66.4191C124.043 64.845 124.127 63.1794 123.815 61.5657C123.502 59.9519 122.802 58.4383 121.775 57.1551C120.748 55.8718 119.424 54.8573 117.918 54.1987C116.412 53.5401 114.768 53.2571 113.129 53.3742C88.8127 53.3408 64.5133 53.3408 40.2305 53.3742L36.5115 53.3671Z" fill="black"/>
</svg>
