<svg width="128" height="128" viewBox="0 0 128 128" fill="none" xmlns="http://www.w3.org/2000/svg">
<path d="M91.5057 53.7791C90.4458 52.5699 89.8337 51.8084 89.1693 51.1143C84.549 46.2774 79.8838 41.4854 75.3082 36.6112C74.3766 35.7576 73.629 34.7229 73.1112 33.5704C72.5933 32.4179 72.316 31.1719 72.2965 29.9085C72.2769 28.6452 72.5155 27.3911 72.9974 26.2231C73.4793 25.0551 74.1945 23.9978 75.0992 23.1158C75.8934 22.1392 76.8959 21.3526 78.0333 20.8135C79.1707 20.2744 80.4142 19.9965 81.6729 20C82.9316 20.0036 84.1736 20.2887 85.3079 20.8342C86.4423 21.3798 87.4403 22.1721 88.2289 23.1531C99.1317 34.4541 109.995 45.7948 120.818 57.1753C121.814 58.0797 122.612 59.1814 123.16 60.4106C123.707 61.6397 123.994 62.9694 124 64.315C124.006 65.6607 123.733 66.993 123.196 68.2272C122.66 69.4615 121.873 70.5706 120.885 71.4843C110.331 82.85 99.7363 94.1783 89.1022 105.469C88.3437 106.442 87.3812 107.236 86.2824 107.797C85.1836 108.357 83.9753 108.67 82.7427 108.712C81.51 108.755 80.283 108.527 79.1481 108.044C78.0132 107.561 76.998 106.835 76.174 105.917C75.2056 105.062 74.4272 104.014 73.8892 102.84C73.3512 101.665 73.0657 100.391 73.0509 99.0998C73.0361 97.8082 73.2924 96.5279 73.8034 95.3416C74.3144 94.1552 75.0686 93.0893 76.0173 92.2127C80.5929 87.1893 85.2804 82.2778 89.9083 77.2841C90.4831 76.6646 90.9757 75.9704 91.8267 74.9254H70.8371C52.2062 74.9254 33.5753 74.9254 14.9445 74.9254C12.6061 75.0492 10.2956 74.3709 8.39522 73.0027C6.49488 71.6344 5.11873 69.6583 4.49451 67.4014C3.98192 65.7949 3.8657 64.0883 4.15578 62.4272C4.44586 60.7661 5.13364 59.1998 6.16035 57.8621C7.18706 56.5245 8.5222 55.4552 10.0518 54.7455C11.5815 54.0358 13.2601 53.7067 14.9445 53.7865C39.2233 53.7517 63.5047 53.7517 87.7885 53.7865L91.5057 53.7791Z" fill="black"/>
</svg>
