<svg width="128" height="128" viewBox="0 0 128 128" fill="none" xmlns="http://www.w3.org/2000/svg">
<path d="M26.9689 124C25.3951 123.588 23.9545 122.777 22.7867 121.644C21.619 120.511 20.7638 119.096 20.3041 117.536C19.9608 116.269 19.9074 114.941 20.1478 113.65C20.3882 112.36 20.9163 111.14 21.6927 110.082C22.4692 109.024 23.474 108.154 24.6327 107.537C25.7914 106.921 27.0742 106.573 28.3857 106.52C28.9005 106.493 29.4198 106.52 30.176 106.52C30.176 102.288 30.176 98.2061 30.176 94.1198C30.1203 89.7357 31.0155 85.3917 32.8001 81.3869C35.5734 75.1624 40.433 70.1015 46.5398 67.0778C48.3939 66.1302 50.2389 65.1599 52.4211 64.0255C50.4166 62.9914 48.731 62.1304 47.0545 61.2557C41.8638 58.8153 37.5015 54.9081 34.5061 50.0166C31.5106 45.1251 30.0132 39.4635 30.1988 33.7307C30.1533 29.7628 30.1988 25.7948 30.1988 21.6128C29.3788 21.5672 28.6773 21.5354 27.9757 21.4807C25.8728 21.3106 23.9045 20.3783 22.4406 18.8591C20.9767 17.3398 20.1181 15.3382 20.0261 13.2305C19.9161 11.1958 20.5273 9.18757 21.7523 7.55926C22.9773 5.93096 24.7374 4.78703 26.7229 4.32886C27.6939 4.12831 28.6834 4.0306 29.6749 4.03732C52.6169 4.02213 75.5589 4.02213 98.501 4.03732C99.7767 3.91913 101.063 4.08246 102.269 4.51585C103.474 4.94923 104.57 5.64209 105.479 6.54542C106.387 7.44875 107.086 8.54055 107.527 9.74371C107.967 10.9469 108.138 12.232 108.027 13.5084C107.881 15.5723 106.996 17.5144 105.534 18.9787C104.072 20.443 102.132 21.3313 100.068 21.4807C99.4805 21.5217 98.8882 21.549 98.0409 21.5946C98.0044 22.3736 97.9634 23.1298 97.9315 23.8724C97.9973 29.3583 97.7434 34.8435 97.1708 40.2999C96.4906 44.5389 94.8273 48.5598 92.314 52.0406C89.8008 55.5213 86.5074 58.3653 82.6976 60.3446C80.5291 61.5837 78.2832 62.677 75.7549 63.989C78.2513 65.3056 80.5155 66.4263 82.7113 67.6654C86.3181 69.5997 89.4639 72.2911 91.933 75.5551C94.402 78.8192 96.136 82.5787 97.0159 86.5757C97.6062 89.6264 97.9112 92.7255 97.927 95.8327C98.0728 99.3177 97.9589 102.816 97.9589 106.388C99.0614 106.475 99.9816 106.475 100.87 106.634C102.711 106.947 104.401 107.847 105.688 109.199C106.975 110.551 107.791 112.283 108.013 114.137C108.275 116.056 107.886 118.007 106.908 119.679C105.93 121.35 104.42 122.646 102.619 123.358C102.164 123.558 101.676 123.781 101.207 123.995L26.9689 124ZM36.1302 21.6311C36.1302 25.763 35.9845 29.6762 36.1803 33.5667C36.317 36.3001 36.891 39.0335 37.301 41.7668C37.5197 43.2292 38.3169 43.7212 39.875 43.7121C55.4096 43.6437 70.9487 43.6711 86.4833 43.6711C90.4057 43.6711 90.8294 43.7121 91.212 39.7851C91.7861 33.8629 91.6949 27.9132 91.8771 21.9772C91.8771 21.877 91.7314 21.7768 91.6038 21.6083L36.1302 21.6311ZM91.7678 106.393V91.0857H36.3033V106.393H91.7678ZM37.8295 84.8993H90.2918C88.0305 79.2637 83.7463 74.6757 78.2787 72.0342C75.5453 70.6129 72.9349 68.9501 70.2653 67.4103C70.0071 67.2207 69.701 67.107 69.3816 67.0823C64.5025 67.5378 59.3592 65.6382 54.8538 69.4148C52.5864 70.8865 50.2036 72.1723 47.7288 73.2597C43.177 75.8729 39.6757 79.9879 37.8249 84.8993H37.8295ZM64.047 112.474H30.1533C29.4946 112.43 28.833 112.459 28.1807 112.561C27.5492 112.659 26.9766 112.989 26.5743 113.485C26.1719 113.982 25.9684 114.61 26.0031 115.249C25.9669 115.888 26.1692 116.517 26.5707 117.015C26.9721 117.514 27.5442 117.845 28.1761 117.946C28.8283 118.048 29.49 118.077 30.1487 118.032H97.927C98.5855 118.082 99.2475 118.055 99.8996 117.95C100.53 117.848 101.101 117.515 101.501 117.018C101.901 116.52 102.103 115.891 102.068 115.253C102.104 114.616 101.903 113.987 101.504 113.489C101.104 112.991 100.534 112.659 99.9041 112.556C99.252 112.453 98.59 112.425 97.9315 112.474H64.047ZM63.8784 15.5721H97.804C98.4645 15.5721 99.2937 15.7816 99.7492 15.4673C100.708 14.9191 101.483 14.0996 101.977 13.112C102.069 12.8064 102.095 12.4845 102.053 12.168C102.011 11.8514 101.902 11.5475 101.733 11.2766C101.564 11.0057 101.339 10.7741 101.073 10.5973C100.807 10.4204 100.506 10.3024 100.191 10.2512C99.4219 10.0666 98.6308 9.9899 97.8405 10.0234C75.2902 10.0234 52.7384 10.0234 30.1851 10.0234C29.3378 10.0234 28.2263 9.91404 27.7069 10.3787C26.8408 11.0753 26.2843 12.0852 26.158 13.1895C26.2081 14.0004 27.3515 14.8888 28.2034 15.4445C28.7273 15.7817 29.6202 15.5766 30.3446 15.5766L63.8784 15.5721ZM86.3557 50.3359L86.0141 49.8211H41.8019C42.1989 50.3711 42.6574 50.874 43.1686 51.3199C48.0349 54.7696 53.0938 57.9394 58.3206 60.8138C61.0798 61.4698 63.9428 61.5643 66.7393 61.0916C67.4636 61.0916 68.1926 61.1144 68.9169 61.0916C69.307 61.1036 69.6948 61.0273 70.0512 60.8684C73.2948 59.0098 76.5794 57.2239 79.7319 55.2013C82.0234 53.7161 84.1463 51.9531 86.3512 50.3313L86.3557 50.3359Z" fill="black"/>
</svg>
