<svg width="128" height="128" viewBox="0 0 128 128" fill="none" xmlns="http://www.w3.org/2000/svg">
<path d="M102 19H94.4974V7.7513C94.496 6.75682 94.1003 5.80346 93.3971 5.10025C92.6939 4.39705 91.7406 4.00138 90.7461 4C89.7516 4.00138 88.7983 4.39705 88.095 5.10025C87.3918 5.80346 86.9962 6.75682 86.9948 7.7513V19H42V7.7513C41.9986 6.75682 41.603 5.80346 40.8997 5.10025C40.1965 4.39705 39.2432 4.00138 38.2487 4C37.2542 4.00138 36.3009 4.39705 35.5976 5.10025C34.8944 5.80346 34.4988 6.75682 34.4974 7.7513V19H27C23.0218 19 19.2064 20.5804 16.3934 23.3934C13.5804 26.2064 12 30.0218 12 34V109C12 112.978 13.5804 116.794 16.3934 119.607C19.2064 122.42 23.0218 124 27 124H102C103.97 124 105.92 123.612 107.74 122.858C109.56 122.104 111.214 120.999 112.607 119.607C113.999 118.214 115.104 116.56 115.858 114.74C116.612 112.92 117 110.97 117 109V34C116.999 30.0222 115.418 26.2077 112.605 23.3949C109.792 20.5822 105.978 19.0014 102 19V19ZM19.4974 56.5026H42V71.5026H19.4974V56.5026ZM49.4974 71.5026V56.5026H79.4974V71.5026H49.4974ZM79.4974 79V94H49.4974V79H79.4974ZM19.4974 79H42V94H19.4974V79ZM27 116.503C25.0102 116.503 23.1019 115.712 21.6949 114.305C20.2878 112.898 19.4974 110.99 19.4974 109V101.696H42V116.503H27ZM49.5026 116.503V101.696H79.5026V116.503H49.5026ZM109.497 109C109.497 110.989 108.708 112.896 107.302 114.303C105.896 115.71 103.989 116.501 102 116.503H87V101.696H109.497V109ZM109.497 94H87V79H109.497V94ZM109.497 71.5026H87V56.5026H109.497V71.5026ZM109.497 49.0052H19.4974V34.0052C19.4988 32.0163 20.2898 30.1093 21.6967 28.7034C23.1036 27.2976 25.0111 26.5078 27 26.5078H102C103.99 26.5078 105.898 27.2983 107.305 28.7053C108.712 30.1123 109.503 32.0206 109.503 34.0104L109.497 49.0052Z" fill="black"/>
</svg>
