<svg xmlns="http://www.w3.org/2000/svg" width="269" height="211" viewBox="0 0 269 211">
  <g id="_" data-name="“" fill="none" stroke-miterlimit="10" opacity="0.207">
    <path d="M170,211v-98.59Q170,0,269,0V41.827q-48.192,6.349-48.192,62.74v7.1H269V211ZM0,211v-98.59Q0,0,99,0V41.827Q73.692,45.935,62.34,61.06T50.989,104.567v7.1H99V211Z" stroke="none"/>
    <path d="M 268.0000915527344 209.9996185302734 L 268.0000915527344 112.6620864868164 L 220.8078002929688 112.6620864868164 L 219.8078002929688 112.6620864868164 L 219.8078002929688 111.6620864868164 L 219.8078002929688 104.5665130615234 C 219.8078002929688 66.905029296875 236.0187225341797 45.50797271728516 268.0000915527344 40.95431900024414 L 268.0000915527344 1.002965807914734 C 260.2084350585938 1.049020171165466 252.7972717285156 1.634003162384033 245.9571533203125 2.743515968322754 C 238.8382263183594 3.898230314254761 232.1376953125 5.653623104095459 226.0416870117188 7.960837364196777 C 219.9567565917969 10.26387310028076 214.3022308349609 13.18194484710693 209.2351226806641 16.63397979736328 C 204.1720886230469 20.08326530456543 199.5511474609375 24.16412353515625 195.5006561279297 28.7631950378418 C 191.4468994140625 33.36601638793945 187.8487548828125 38.61926651000977 184.8062286376953 44.37701416015625 C 181.7581176757813 50.14526748657227 179.1812286376953 56.58312225341797 177.1471557617188 63.51180267333984 C 175.1092987060547 70.45337677001953 173.5589752197266 78.082763671875 172.5391845703125 86.18804931640625 C 171.5179443359375 94.30497741699219 171.0001220703125 103.1270141601563 171.0001220703125 112.4090881347656 L 171.0001220703125 209.9996185302734 L 268.0000915527344 209.9996185302734 M 98.00000762939453 209.9996185302734 L 98.00000762939453 112.6620864868164 L 50.98861694335938 112.6620864868164 L 49.98861694335938 112.6620864868164 L 49.98861694335938 111.6620864868164 L 49.98861694335938 104.5665130615234 C 49.98861694335938 85.51126861572266 53.87522506713867 70.67144775390625 61.54047393798828 60.45937347412109 C 69.10578155517578 50.37832260131836 81.36940002441406 43.82691955566406 98.00000762939453 40.97954940795898 L 98.00000762939453 1.002965807914734 C 90.20832824707031 1.049020171165466 82.79719543457031 1.634003162384033 75.95708465576172 2.743515968322754 C 68.83815002441406 3.898230314254761 62.13761901855469 5.653623104095459 56.04161834716797 7.960837364196777 C 49.9566535949707 10.26387310028076 44.30211639404297 13.18194484710693 39.23504638671875 16.63397979736328 C 34.17197418212891 20.08326530456543 29.55104637145996 24.16412353515625 25.50058174133301 28.7631950378418 C 21.44679641723633 33.36601638793945 17.84865379333496 38.61926651000977 14.80611705780029 44.37701416015625 C 11.7580099105835 50.14526748657227 9.181117057800293 56.58312225341797 7.147045612335205 63.51180267333984 C 5.109188556671143 70.45337677001953 3.558867216110229 78.082763671875 2.539081573486328 86.18804931640625 C 1.517831444740295 94.30497741699219 1.000010013580322 103.1270141601563 1.000010013580322 112.4090881347656 L 1.000010013580322 209.9996185302734 L 98.00000762939453 209.9996185302734 M 269.0000915527344 210.9996185302734 L 170.0001220703125 210.9996185302734 L 170.0001220703125 112.4090881347656 C 170.0001220703125 37.46969604492188 203.0003967285156 1.592145599715877e-05 269.0000915527344 1.592145599715877e-05 L 269.0000915527344 41.82658767700195 C 236.8719024658203 46.05930328369141 220.8078002929688 66.97258758544922 220.8078002929688 104.5665130615234 L 220.8078002929688 111.6620864868164 L 269.0000915527344 111.6620864868164 L 269.0000915527344 210.9996185302734 Z M 99.00000762939453 210.9996185302734 L 1.006208185572177e-05 210.9996185302734 L 1.006208185572177e-05 112.4090881347656 C 1.006208185572177e-05 37.46969604492188 33.00029754638672 1.592145599715877e-05 99.00000762939453 1.592145599715877e-05 L 99.00000762939453 41.82658767700195 C 82.127685546875 44.56529998779297 69.90750885009766 50.97601699829102 62.34029388427734 61.05958557128906 C 54.77219009399414 71.14230346679688 50.98861694335938 85.64490509033203 50.98861694335938 104.5665130615234 L 50.98861694335938 111.6620864868164 L 99.00000762939453 111.6620864868164 L 99.00000762939453 210.9996185302734 Z" stroke="none" fill="#fff"/>
  </g>
</svg>
