<svg id="Group_1190" data-name="Group 1190" xmlns="http://www.w3.org/2000/svg" width="46.885" height="46.876" viewBox="0 0 46.885 46.876">
  <g id="_4._Click" data-name=" 4. Click" transform="translate(112.902 20.94)">
    <path id="Path_21802" data-name="Path 21802" d="M-92.373,17.154A17.564,17.564,0,0,1-109.936-.411,17.565,17.565,0,0,1-92.371-17.974,17.564,17.564,0,0,1-74.808-.411a17.212,17.212,0,0,1-.468,4A1.462,1.462,0,0,1-76.955,4.8a1.463,1.463,0,0,1-1.209-1.679,1.38,1.38,0,0,1,.048-.2,14.637,14.637,0,0,0-10.929-17.58A14.637,14.637,0,0,0-106.624-3.735,14.637,14.637,0,0,0-95.7,13.845a14.64,14.64,0,0,0,6.646,0,1.464,1.464,0,0,1,1.843.943,1.463,1.463,0,0,1-.942,1.843,1.51,1.51,0,0,1-.228.054A17.287,17.287,0,0,1-92.373,17.154Z" fill="#0e72ba"/>
    <path id="Path_21803" data-name="Path 21803" d="M-73.344,25.936a1.461,1.461,0,0,1-1.039-.426L-79.2,20.68l-1.888,1.9a1.432,1.432,0,0,1-2.025-.015,1.431,1.431,0,0,1-.4-.863L-84.98,8.532a1.465,1.465,0,0,1,1.3-1.61,1.6,1.6,0,0,1,.309,0L-70.2,8.386a1.433,1.433,0,0,1,1.283,1.567,1.426,1.426,0,0,1-.4.863l-1.961,1.947,4.83,4.816a1.463,1.463,0,0,1,.01,2.069h0l-.009.009-5.854,5.852A1.461,1.461,0,0,1-73.344,25.936ZM-79.2,17.154a1.463,1.463,0,0,1,1.039.424l4.816,4.83,3.791-3.791-4.83-4.816a1.464,1.464,0,0,1-.01-2.069h0l.009-.009.776-.776-8.326-.921.922,8.328.776-.776A1.461,1.461,0,0,1-79.2,17.154Z" fill="#0e72ba"/>
    <path id="Path_21804" data-name="Path 21804" d="M-89.445,9.836H-95.3a1.464,1.464,0,0,1-1.464-1.464h0V3.981h-4.39a1.464,1.464,0,0,1-1.464-1.464V-3.338A1.465,1.465,0,0,1-101.154-4.8h4.391v-4.39A1.464,1.464,0,0,1-95.3-10.656h5.855a1.464,1.464,0,0,1,1.464,1.464h0V-4.8h4.391a1.464,1.464,0,0,1,1.464,1.464h0V2.518A1.463,1.463,0,0,1-83.59,3.982h-4.391V8.373A1.464,1.464,0,0,1-89.445,9.836Zm-4.391-2.927h2.928V2.517a1.465,1.465,0,0,1,1.464-1.464h4.391V-1.874h-4.392a1.464,1.464,0,0,1-1.464-1.464h0V-7.729h-2.927v4.391A1.463,1.463,0,0,1-95.3-1.874h-4.391V1.054H-95.3a1.464,1.464,0,0,1,1.464,1.464h0Z" fill="#2ca7df"/>
    <path id="Path_21805" data-name="Path 21805" d="M-109.937-9.193H-111.4a1.464,1.464,0,0,1-1.5-1.425,1.465,1.465,0,0,1,1.426-1.5c.025,0,.051,0,.076,0h1.463a1.464,1.464,0,0,1,1.5,1.425,1.464,1.464,0,0,1-1.425,1.5Z" fill="#2ca7df"/>
    <path id="Path_21806" data-name="Path 21806" d="M-108.473-15.047a1.464,1.464,0,0,1-1.039-.425l-1.464-1.468a1.47,1.47,0,0,1,.143-2.074,1.47,1.47,0,0,1,1.931,0l1.468,1.464a1.463,1.463,0,0,1,.01,2.069h0l-.009.009A1.459,1.459,0,0,1-108.473-15.047Z" fill="#2ca7df"/>
    <path id="Path_21807" data-name="Path 21807" d="M-102.618-16.511a1.464,1.464,0,0,1-1.464-1.464v-1.463a1.464,1.464,0,0,1,1.425-1.5,1.464,1.464,0,0,1,1.5,1.426c0,.025,0,.051,0,.076v1.463A1.464,1.464,0,0,1-102.618-16.511Z" fill="#2ca7df"/>
  </g>
</svg>
