<svg xmlns="http://www.w3.org/2000/svg" width="54.739" height="37.465" viewBox="0 0 54.739 37.465">
  <g id="Group_1196" data-name="Group 1196" transform="translate(268.193 40.813)">
    <path id="Path_21828" data-name="Path 21828" d="M-265.167-11.564v.177l.1-.177Z" transform="translate(0.304 2.936)" fill="#2ca7df"/>
    <path id="Path_21829" data-name="Path 21829" d="M-232.279-11.568h-.1c.033.057.067.117.1.175Z" transform="translate(3.595 2.935)" fill="#2ca7df"/>
    <path id="Path_21830" data-name="Path 21830" d="M-227.007-21.635c-1.02-.968-2.075-1.894-3.137-2.749-.524-.421-1.075-.79-1.612-1.143a3.7,3.7,0,0,0-.541-3.646,2.5,2.5,0,0,1-.426-1.763c.018-.39.013-.78.007-1.171l0-.272a4.212,4.212,0,0,0-4.295-4.337q-9.748-.028-19.5,0a4.223,4.223,0,0,0-4.309,4.323c0,.339,0,.678,0,1.016,0,.5.007,1-.042,1.588a4.219,4.219,0,0,0-.873,4.246,25.644,25.644,0,0,0-4.836,3.929,5.281,5.281,0,0,0-1.6,3.635c-.02,2.837-.02,5.673-.021,8.511l0,3.924a1.688,1.688,0,0,0,1.787,1.779l.6,0c.4,0,.81-.009,1.215.008.036,0,.072,0,.107,0a1.825,1.825,0,0,0,1.9-1.695A4.908,4.908,0,0,1-261.536-7.9a2.914,2.914,0,0,1,2.4-1.186h.011q12.4.035,24.807,0h.007a2.738,2.738,0,0,1,1.989.836,4.878,4.878,0,0,1,1.374,2.81,1.752,1.752,0,0,0,1.991,1.67h.219c.518,0,1.034,0,1.552,0a1.68,1.68,0,0,0,1.843-1.815q.007-6.084-.007-12.168A5.256,5.256,0,0,0-227.007-21.635ZM-231.1-10.143h3.517v4.109h-1.2A7.508,7.508,0,0,0-231.1-10.143Zm2.434-3.635v1.329H-264.9v-1.329ZM-251.81-33.4h14.577c.9,0,1.185.293,1.191,1.2v.668a24.73,24.73,0,0,0-5.4-.238c-.7.022-1.4.043-2.1.037a4.447,4.447,0,0,0-3.236,1.358,4.583,4.583,0,0,0-3.16-1.367c-.4,0-.811,0-1.221,0-1.774,0-3.6.032-5.559.1a4.679,4.679,0,0,0-.761.092,11.263,11.263,0,0,1,.036-1.2.886.886,0,0,1,.953-.642Q-254.155-33.406-251.81-33.4Zm16.736,6.589h-10.012a1.938,1.938,0,0,1,.414-.955,1.967,1.967,0,0,1,1.543-.675c1.85-.013,3.764-.026,5.68.056a5.852,5.852,0,0,1,1.8.44,1.222,1.222,0,0,1,.78,1.134C-234.911-26.814-234.966-26.815-235.074-26.816ZM-255.2-28.45c.491,0,.99,0,1.486.009,1,.01,2.042.022,3.076-.025a2.086,2.086,0,0,1,1.7.632,2.017,2.017,0,0,1,.476,1.019h-9.978a1.606,1.606,0,0,1-.249-.018,1.653,1.653,0,0,1,.054-.241,1.362,1.362,0,0,1,.818-.924A6.317,6.317,0,0,1-255.2-28.45Zm-3.476,4.947q11.9-.01,23.8-.024a29.726,29.726,0,0,1,5.1,3.751,3.3,3.3,0,0,1,1.141,2.634h-36.277a3.093,3.093,0,0,1,.932-2.416A26.843,26.843,0,0,1-258.674-23.5Zm-3.783,13.364a7.546,7.546,0,0,0-2.291,4.118h-1.216v-4.118Z" transform="translate(0 0.41)" fill="#0e72ba"/>
    <path id="Path_21831" data-name="Path 21831" d="M-218.815-28.62h-5.321v-2.224h.99a1.982,1.982,0,0,0,1.594-.616,1.985,1.985,0,0,0,.259-1.692q-.571-2.619-1.154-5.237a2.9,2.9,0,0,0-2.978-2.416c-.8-.008-1.605,0-2.41,0h-.577a2.942,2.942,0,0,0-3.187,2.58l-1.1,5.078a1.975,1.975,0,0,0,.246,1.7,1.96,1.96,0,0,0,1.6.609h1v2.224h-.435c-.716,0-1.432,0-2.15.006a1.639,1.639,0,0,0-1.2.482,1.628,1.628,0,0,0-.445,1.208,1.581,1.581,0,0,0,1.6,1.6c.154.007.308,0,.523.007H-220.2v2.565h-2.316q-2.144,0-4.289,0h0a1.646,1.646,0,0,0-1.833,1.655,1.642,1.642,0,0,0,1.826,1.676h6.61v2.556h-2.382l-3.029,0a1.572,1.572,0,0,0-1.022.218,1.676,1.676,0,0,0-.922,1.489,1.978,1.978,0,0,0,.884,1.379,1.619,1.619,0,0,0,1.149.237c.266,0,.529-.006.8-.012a7.831,7.831,0,0,1,1.428.041,1.6,1.6,0,0,1,1.367,1.719,1.706,1.706,0,0,0,1.91,1.877c.206,0,.413,0,.618,0h.62a1.693,1.693,0,0,0,1.92-1.947V-26.689A1.689,1.689,0,0,0-218.815-28.62Zm-10.273-5.555c.209-.969.416-1.926.629-2.882.031-.136.065-.293.1-.42.134,0,.307,0,.458,0h.736c.5,0,1,0,1.526,0,.051.215.1.43.143.645l.581,2.66Z" transform="translate(3.423)" fill="#2ca7df"/>
  </g>
</svg>
