<svg xmlns="http://www.w3.org/2000/svg" width="46" height="46.008" viewBox="0 0 46 46.008">
  <g id="Group_1201" data-name="Group 1201" transform="translate(436.064 44.536)">
    <path id="Path_21835" data-name="Path 21835" d="M-390.064-21.173a1.725,1.725,0,0,1-1.854,1.09c-1.121-.047-2.245-.008-3.368-.013a1.446,1.446,0,0,1-1.557-1.438,1.436,1.436,0,0,1,1.557-1.435c1.123-.005,2.247.035,3.368-.013a1.723,1.723,0,0,1,1.854,1.09Z" fill="#2ca7df"/>
    <path id="Path_21836" data-name="Path 21836" d="M-413.424,1.472a1.726,1.726,0,0,1-1.09-1.855c.048-1.12.008-2.245.012-3.368a1.436,1.436,0,0,1,1.436-1.556,1.443,1.443,0,0,1,1.437,1.557c.005,1.122-.034,2.247.013,3.368a1.725,1.725,0,0,1-1.09,1.854Z" fill="#2ca7df"/>
    <path id="Path_21837" data-name="Path 21837" d="M-399.41-21.514A13.683,13.683,0,0,1-413.085-7.876,13.681,13.681,0,0,1-426.72-21.553a13.677,13.677,0,0,1,13.674-13.636A13.679,13.679,0,0,1-399.41-21.514ZM-411.6-32.2v21.33a10.77,10.77,0,0,0,9.313-10.569A10.766,10.766,0,0,0-411.6-32.2Zm-2.922,5.875c-.042-.031-.054-.047-.066-.047q-3.945-.009-7.891-.007a.368.368,0,0,0-.279.155,9.872,9.872,0,0,0-.985,3.291h9.221Zm-9.2,6.323a10.68,10.68,0,0,0,.9,3.062.564.564,0,0,0,.607.386c2.424-.014,4.848-.007,7.272-.008.131,0,.262-.014.412-.023V-20Zm3.181-9.292h6.018v-2.923A10.849,10.849,0,0,0-420.541-29.293Zm6,18.439v-2.792h-5.872A10.858,10.858,0,0,0-414.536-10.854Z" fill="#0e72ba"/>
    <path id="Path_21838" data-name="Path 21838" d="M-392.944-32.255a1.37,1.37,0,0,1-.69,1.155c-1.146.675-2.293,1.349-3.456,1.994a1.415,1.415,0,0,1-1.939-.554,1.4,1.4,0,0,1,.5-1.92c1.14-.684,2.29-1.355,3.457-1.992A1.436,1.436,0,0,1-392.944-32.255Z" fill="#2ca7df"/>
    <path id="Path_21839" data-name="Path 21839" d="M-421.927-7.683a1.422,1.422,0,0,1,1.322,2.038c-.645,1.229-1.354,2.427-2.079,3.612a1.379,1.379,0,0,1-1.9.42,1.389,1.389,0,0,1-.559-1.834c.664-1.22,1.37-2.417,2.081-3.611A1.358,1.358,0,0,1-421.927-7.683Z" fill="#2ca7df"/>
    <path id="Path_21840" data-name="Path 21840" d="M-400.845-2.961a1.467,1.467,0,0,1-.988,1.474,1.346,1.346,0,0,1-1.59-.51c-.737-1.213-1.453-2.44-2.125-3.69a1.377,1.377,0,0,1,.576-1.79,1.371,1.371,0,0,1,1.875.387c.746,1.206,1.435,2.449,2.133,3.685A1.43,1.43,0,0,1-400.845-2.961Z" fill="#2ca7df"/>
    <path id="Path_21841" data-name="Path 21841" d="M-400.8-40.2a4.8,4.8,0,0,1-.274.745q-.921,1.641-1.878,3.264a1.438,1.438,0,0,1-1.994.616,1.449,1.449,0,0,1-.488-2.059c.628-1.1,1.26-2.206,1.907-3.3a1.389,1.389,0,0,1,1.612-.672A1.534,1.534,0,0,1-400.8-40.2Z" fill="#2ca7df"/>
    <path id="Path_21842" data-name="Path 21842" d="M-431.734-33.808a5.443,5.443,0,0,1,.783.3q1.621.909,3.225,1.855a1.441,1.441,0,0,1,.606,2.03,1.44,1.44,0,0,1-2.033.461q-1.656-.94-3.3-1.907a1.4,1.4,0,0,1-.682-1.608A1.541,1.541,0,0,1-431.734-33.808Z" fill="#2ca7df"/>
    <path id="Path_21843" data-name="Path 21843" d="M-431.629-9.312a1.466,1.466,0,0,1-1.479-.984,1.348,1.348,0,0,1,.507-1.591c1.213-.737,2.44-1.452,3.689-2.125a1.379,1.379,0,0,1,1.791.571,1.375,1.375,0,0,1-.383,1.876c-1.206.748-2.448,1.436-3.683,2.135A1.439,1.439,0,0,1-431.629-9.312Z" fill="#2ca7df"/>
    <path id="Path_21844" data-name="Path 21844" d="M-392.951-10.8a1.423,1.423,0,0,1-2.023,1.345c-1.241-.65-2.451-1.366-3.643-2.1a1.373,1.373,0,0,1-.4-1.87A1.38,1.38,0,0,1-397.194-14c1.233.667,2.442,1.38,3.647,2.1A1.341,1.341,0,0,1-392.951-10.8Z" fill="#2ca7df"/>
    <path id="Path_21845" data-name="Path 21845" d="M-414.5-41.122c0-.629,0-1.258,0-1.886a1.443,1.443,0,0,1,1.422-1.528,1.441,1.441,0,0,1,1.449,1.5q.012,1.885,0,3.772a1.432,1.432,0,0,1-1.445,1.5,1.44,1.44,0,0,1-1.426-1.522C-414.507-39.9-414.5-40.508-414.5-41.122Z" fill="#2ca7df"/>
    <path id="Path_21846" data-name="Path 21846" d="M-432.693-20.095c-.629,0-1.258.007-1.886,0a1.443,1.443,0,0,1-1.485-1.422,1.433,1.433,0,0,1,1.5-1.449q1.885-.012,3.772,0a1.434,1.434,0,0,1,1.505,1.443,1.438,1.438,0,0,1-1.52,1.429C-431.436-20.09-432.065-20.095-432.693-20.095Z" fill="#2ca7df"/>
    <path id="Path_21847" data-name="Path 21847" d="M-420.449-36.922a1.5,1.5,0,0,1-1,1.461,1.346,1.346,0,0,1-1.59-.515c-.732-1.2-1.439-2.414-2.108-3.649a1.389,1.389,0,0,1,.591-1.824,1.384,1.384,0,0,1,1.869.418c.726,1.185,1.4,2.4,2.087,3.61A1.951,1.951,0,0,1-420.449-36.922Z" fill="#2ca7df"/>
  </g>
</svg>
