<svg xmlns="http://www.w3.org/2000/svg" width="46" height="46.003" viewBox="0 0 46 46.003">
  <g id="Group_1203" data-name="Group 1203" transform="translate(456.187 -11.493)">
    <path id="Path_21853" data-name="Path 21853" d="M-410.187,34.761a2.257,2.257,0,0,1-1.748,1.821,2.208,2.208,0,0,1-2.64-1.51,2.243,2.243,0,0,1,1.4-2.782,2.234,2.234,0,0,1,2.828,1.3c.048.121.105.239.158.359Z" fill="#0e72ba"/>
    <path id="Path_21854" data-name="Path 21854" d="M-433.637,57.5c-.092-.039-.182-.085-.277-.118a2.232,2.232,0,0,1-1.5-2.467,2.261,2.261,0,0,1,2.222-1.9,2.262,2.262,0,0,1,2.222,1.9,2.235,2.235,0,0,1-1.5,2.467c-.094.033-.184.079-.276.118Z" fill="#0e72ba"/>
    <path id="Path_21855" data-name="Path 21855" d="M-449,34.475q0-4.851,0-9.7a7.209,7.209,0,0,1,7.587-7.153c1.505.1,3,.361,4.5.552q4.429.565,8.858,1.136c1.7.223,3.427.369,5.106.72a7.071,7.071,0,0,1,5.572,6.924q.025,7.524,0,15.048a7.193,7.193,0,0,1-6.319,7.131q-6.587.854-13.174,1.695c-1.617.2-3.235.49-4.858.539A7.15,7.15,0,0,1-449,44.223Q-449,39.349-449,34.475Zm3.594-.015c0,3.248-.007,6.5,0,9.746a3.61,3.61,0,0,0,4.142,3.556c.8-.113,1.6-.216,2.4-.319q7.387-.948,14.775-1.9a3.556,3.556,0,0,0,3.111-3.51q.023-7.545,0-15.091a3.565,3.565,0,0,0-3.079-3.5c-1.363-.191-2.728-.362-4.093-.536-4.347-.553-8.7-1.095-13.041-1.66a3.6,3.6,0,0,0-4.217,3.685Q-445.41,29.7-445.407,34.46Z" fill="#2ca7df"/>
    <path id="Path_21856" data-name="Path 21856" d="M-451.7,34.379a2.212,2.212,0,0,1-2.227,2.264,2.212,2.212,0,0,1-2.262-2.273,2.254,2.254,0,0,1,2.248-2.209A2.255,2.255,0,0,1-451.7,34.379Z" fill="#0e72ba"/>
    <path id="Path_21857" data-name="Path 21857" d="M-433.221,15.982a2.243,2.243,0,0,1-2.212-2.241,2.254,2.254,0,0,1,2.21-2.248,2.222,2.222,0,0,1,2.271,2.268A2.21,2.21,0,0,1-433.221,15.982Z" fill="#0e72ba"/>
    <path id="Path_21858" data-name="Path 21858" d="M-431.391,32.7c1.591,0,3.131,0,4.67,0a3.741,3.741,0,0,1,.67.04,1.753,1.753,0,0,1,1.475,1.9,1.733,1.733,0,0,1-1.753,1.647c-1.467.02-2.935.007-4.4.007h-.66v.483c0,1.527,0,3.055,0,4.582a1.8,1.8,0,0,1-1.789,1.943,1.8,1.8,0,0,1-1.8-1.928q0-2.27,0-4.538v-.542h-.51c-1.467,0-2.935,0-4.4,0a1.8,1.8,0,0,1-1.915-1.772,1.8,1.8,0,0,1,1.917-1.82c1.615-.006,3.231,0,4.91,0v-.5c0-1.527,0-3.055,0-4.583a1.806,1.806,0,0,1,1.81-1.926,1.806,1.806,0,0,1,1.782,1.91C-431.387,29.277-431.391,30.953-431.391,32.7Z" fill="#0e72ba"/>
  </g>
</svg>
