<svg xmlns="http://www.w3.org/2000/svg" width="46" height="46.019" viewBox="0 0 46 46.019">
  <g id="Group_1202" data-name="Group 1202" transform="translate(409.533 4.012)">
    <path id="Path_21848" data-name="Path 21848" d="M-372.175,19.6a12.1,12.1,0,0,1,4.2,2.366c3.469,3.1,5.042,6.973,4.207,11.585a10.283,10.283,0,0,1-10.245,8.421c-6.449.04-12.9.057-19.348,0A16.122,16.122,0,0,1-409,29.862a15.213,15.213,0,0,1,9-18.2,15.554,15.554,0,0,1,4.367-1.023.8.8,0,0,0,.521-.316,12.342,12.342,0,0,1,11.8-5.92,12.487,12.487,0,0,1,11.3,10.792,12.806,12.806,0,0,1-.1,3.947C-372.144,19.287-372.154,19.43-372.175,19.6Zm-11.671,18.193c3.313,0,6.627.018,9.941-.005a6.205,6.205,0,0,0,6.172-6.333,8.061,8.061,0,0,0-4.765-7.421,7.81,7.81,0,0,0-8.614.867,2.082,2.082,0,0,1-3.476-1.348c-1.168-6.241-6.584-9.851-12.655-8.39-5.609,1.349-8.859,6.463-7.945,12.442A11.892,11.892,0,0,0-393.2,37.791Q-388.523,37.8-383.846,37.791Zm-6.723-26.526a14.611,14.611,0,0,1,9.373,8.8,12.57,12.57,0,0,1,4.827-1.1,8.307,8.307,0,0,0-4.223-9.5A8.3,8.3,0,0,0-390.569,11.265Z" fill="#0e72ba"/>
    <path id="Path_21849" data-name="Path 21849" d="M-366.7,18.981c-.359,0-.718.01-1.076,0a2.073,2.073,0,0,1-2.015-1.892,1.986,1.986,0,0,1,1.728-2.228,13.835,13.835,0,0,1,2.775,0,2.011,2.011,0,0,1,1.747,2.131,2.1,2.1,0,0,1-2.035,1.988C-365.946,18.992-366.322,18.98-366.7,18.981Z" fill="#2ca7df"/>
    <path id="Path_21850" data-name="Path 21850" d="M-386.525-.9c0-.359-.011-.717,0-1.076a2.1,2.1,0,0,1,1.994-2.029A2.01,2.01,0,0,1-382.4-2.255a13.918,13.918,0,0,1,0,2.776,1.986,1.986,0,0,1-2.233,1.721A2.072,2.072,0,0,1-386.523.22C-386.535-.154-386.525-.529-386.525-.9Z" fill="#2ca7df"/>
    <path id="Path_21851" data-name="Path 21851" d="M-371.238,1.425a2.316,2.316,0,0,1,1.941,1.27,1.9,1.9,0,0,1-.232,2.2,16.989,16.989,0,0,1-1.829,1.83,2.031,2.031,0,0,1-2.754-.151,2.043,2.043,0,0,1-.132-2.8,16.246,16.246,0,0,1,1.767-1.753A5.532,5.532,0,0,1-371.238,1.425Z" fill="#2ca7df"/>
    <path id="Path_21852" data-name="Path 21852" d="M-397.453,1.517a4.738,4.738,0,0,1,1.105.55,15.366,15.366,0,0,1,1.6,1.577,2.065,2.065,0,0,1-.056,2.872,2.075,2.075,0,0,1-2.91.044c-.524-.489-1.035-.995-1.52-1.522a1.98,1.98,0,0,1-.377-2.269A2.156,2.156,0,0,1-397.453,1.517Z" fill="#2ca7df"/>
  </g>
</svg>
