<svg xmlns="http://www.w3.org/2000/svg" width="46" height="45.989" viewBox="0 0 46 45.989">
  <g id="Group_1204" data-name="Group 1204" transform="translate(512.706 -1.517)">
    <path id="Path_21859" data-name="Path 21859" d="M-479.652,1.517h1.527a1.464,1.464,0,0,0,.247.083,6.879,6.879,0,0,1,5.609,5.158.8.8,0,0,0,.393.46,4.127,4.127,0,0,1,2.464,3.4,1,1,0,0,0,.3.585,7.138,7.138,0,0,1,2.359,6.49h-9.459a17.607,17.607,0,0,1-.409,14.41,17.463,17.463,0,0,1-10.966,9.363,7.21,7.21,0,0,1,1.881,6.043h-27V45.35a.913.913,0,0,0,.081-.2,6.6,6.6,0,0,1,2.3-4.093.843.843,0,0,0,.335-.628,3.917,3.917,0,0,1,1.566-2.864,3.821,3.821,0,0,0,1.672-2.132.694.694,0,0,0-.087-.8,17.281,17.281,0,0,1-2.908-13.054,17.626,17.626,0,0,1,21.06-14.293.741.741,0,0,0,.57-.171,5.424,5.424,0,0,1,2.649-1.427.661.661,0,0,0,.518-.411,6.681,6.681,0,0,1,2.455-2.735A8.059,8.059,0,0,1-479.652,1.517Zm-14.1,16.168c0-.276.006-.485,0-.693a6.772,6.772,0,0,1,3.907-6.754c.107-.054.174-.188.285-.314a14.784,14.784,0,0,0-15.63,6.93,14.783,14.783,0,0,0,.444,15.963c.037-.024.076-.046.113-.073a6.735,6.735,0,0,1,10.211,2.425.718.718,0,0,0,.423.311,5.1,5.1,0,0,1,2.857,1.666,22.964,22.964,0,0,1,1.341,2.026c.048-.007.21-.018.368-.051a15.009,15.009,0,0,0,10.457-20.976.677.677,0,0,0-.727-.47c-4.489.016-8.979.01-13.468.01Zm2.94-2.722h21.132a4.749,4.749,0,0,0-2.786-2.656c.093-.35.175-.651.255-.953a1.307,1.307,0,0,0-1.36-1.752c-.4,0-.8,0-1.229,0,0-.469.005-.885,0-1.3a4.147,4.147,0,0,0-3.7-4.068,4.028,4.028,0,0,0-4.31,2.967c-.105.368-.2.739-.309,1.121-.38-.02-.722-.042-1.064-.056a2.63,2.63,0,0,0-2.768,2.178,5.815,5.815,0,0,0,0,1.383c.017.262-.057.38-.314.428a7.75,7.75,0,0,0-.911.234A4.028,4.028,0,0,0-490.814,14.963Zm-16.158,27.108c-.587.384-1.16.711-1.677,1.11a3.41,3.41,0,0,0-1.107,1.612h21.145A4.479,4.479,0,0,0-492.5,42a3.42,3.42,0,0,0-.7-3.14,3.46,3.46,0,0,0-3.114-.709c-.1-.378-.182-.709-.274-1.038a4.038,4.038,0,0,0-4.375-3.058,4.14,4.14,0,0,0-3.663,4.143c0,.4,0,.8,0,1.224-.5,0-.952-.018-1.4,0a1.286,1.286,0,0,0-1.212,1.648Q-507.1,41.573-506.972,42.071Z" fill="#0e72ba"/>
    <path id="Path_21860" data-name="Path 21860" d="M-512.706,6.906h2.687V4.235h2.683V6.9h2.69V9.579H-507.3V12.27h-2.683V9.6h-2.719Z" fill="#2ca7df"/>
    <path id="Path_21861" data-name="Path 21861" d="M-472.22,42.112h-2.662v2.675h-2.684V42.126h-2.69V39.442h2.661V36.751h2.684v2.661h2.691Z" fill="#2ca7df"/>
  </g>
</svg>
