<svg width="1366" height="351" viewBox="0 0 1366 351" fill="none" xmlns="http://www.w3.org/2000/svg">
<mask id="mask0_848_113" style="mask-type:alpha" maskUnits="userSpaceOnUse" x="0" y="0" width="1366" height="351">
<path d="M1366 351L0 351V60C0 44.087 6.32143 28.8258 17.5736 17.5736C28.8258 6.32139 44.087 0 60 0L1306 0C1321.91 0 1337.17 6.32139 1348.43 17.5736C1359.68 28.8258 1366 44.087 1366 60V351Z" fill="url(#paint0_linear_848_113)"/>
</mask>
<g mask="url(#mask0_848_113)">
<g style="mix-blend-mode:overlay">
<g style="mix-blend-mode:lighten">
<path d="M435.001 326C435.001 324.644 433.357 324 432.001 324C431.729 323.957 431.45 323.98 431.188 324.065C430.926 324.15 430.687 324.296 430.492 324.491C430.297 324.686 430.151 324.925 430.066 325.187C429.981 325.449 429.958 325.728 430.001 326C430.001 327.356 430.645 329 432.001 329C432.761 328.899 433.467 328.551 434.01 328.009C434.552 327.466 434.9 326.76 435.001 326V326Z" fill="white"/>
</g>
<g style="mix-blend-mode:lighten">
<path d="M451.501 324C450.12 324 449.001 325.119 449.001 326.5C449.001 327.881 450.12 329 451.501 329C452.882 329 454.001 327.881 454.001 326.5C454.001 325.119 452.882 324 451.501 324Z" fill="white"/>
</g>
<g style="mix-blend-mode:lighten">
<path d="M470.501 324C469.12 324 468.001 325.119 468.001 326.5C468.001 327.881 469.12 329 470.501 329C471.882 329 473.001 327.881 473.001 326.5C473.001 325.119 471.882 324 470.501 324Z" fill="white"/>
</g>
<g style="mix-blend-mode:lighten">
<path d="M493.001 326C493.001 324.644 491.357 324 490.001 324C489.729 323.958 489.45 323.98 489.188 324.065C488.926 324.151 488.688 324.297 488.493 324.492C488.298 324.687 488.152 324.925 488.066 325.187C487.981 325.449 487.958 325.728 488.001 326C488.001 327.356 488.646 329 490.001 329C490.761 328.899 491.467 328.551 492.01 328.009C492.552 327.466 492.9 326.76 493.001 326V326Z" fill="white"/>
</g>
<g style="mix-blend-mode:lighten">
<path d="M509.501 324C508.12 324 507.001 325.119 507.001 326.5C507.001 327.881 508.12 329 509.501 329C510.882 329 512.001 327.881 512.001 326.5C512.001 325.119 510.882 324 509.501 324Z" fill="white"/>
</g>
<g style="mix-blend-mode:lighten">
<path d="M531.001 326C531.044 325.728 531.022 325.449 530.936 325.187C530.851 324.925 530.705 324.686 530.51 324.491C530.315 324.296 530.077 324.15 529.815 324.065C529.552 323.98 529.274 323.957 529.001 324C527.645 324 526.001 324.644 526.001 326C526.102 326.76 526.45 327.466 526.993 328.009C527.535 328.551 528.241 328.899 529.001 329C530.357 329 531.001 327.356 531.001 326Z" fill="white"/>
</g>
<g style="mix-blend-mode:lighten">
<path d="M435.001 309C435.001 307.645 433.357 307 432.001 307C431.729 306.958 431.45 306.98 431.188 307.065C430.926 307.151 430.688 307.297 430.493 307.492C430.298 307.687 430.152 307.925 430.066 308.187C429.981 308.449 429.958 308.728 430.001 309C430.001 310.356 430.645 312 432.001 312C432.761 311.899 433.467 311.551 434.01 311.009C434.552 310.466 434.9 309.76 435.001 309Z" fill="white"/>
</g>
<g style="mix-blend-mode:lighten">
<path d="M451.501 307C450.12 307 449.001 308.119 449.001 309.5C449.001 310.881 450.12 312 451.501 312C452.882 312 454.001 310.881 454.001 309.5C454.001 308.119 452.882 307 451.501 307Z" fill="white"/>
</g>
<g style="mix-blend-mode:lighten">
<path d="M470.823 306.593C469.468 306.653 468.419 307.8 468.478 309.155C468.538 310.509 469.685 311.559 471.04 311.499C472.394 311.439 473.444 310.292 473.384 308.938C473.324 307.583 472.177 306.534 470.823 306.593Z" fill="white"/>
</g>
<g style="mix-blend-mode:lighten">
<path d="M493.001 309C493.001 307.645 491.357 307 490.001 307C489.729 306.958 489.45 306.98 489.188 307.065C488.926 307.151 488.688 307.297 488.493 307.492C488.298 307.687 488.152 307.925 488.066 308.187C487.981 308.449 487.958 308.728 488.001 309C488.001 310.356 488.646 312 490.001 312C490.761 311.899 491.467 311.551 492.01 311.009C492.552 310.466 492.9 309.76 493.001 309Z" fill="white"/>
</g>
<g style="mix-blend-mode:lighten">
<path d="M509.501 307C508.12 307 507.001 308.119 507.001 309.5C507.001 310.881 508.12 312 509.501 312C510.882 312 512.001 310.881 512.001 309.5C512.001 308.119 510.882 307 509.501 307Z" fill="white"/>
</g>
<g style="mix-blend-mode:lighten">
<path d="M531.002 309C531.044 308.728 531.022 308.449 530.936 308.187C530.851 307.925 530.704 307.687 530.51 307.492C530.315 307.297 530.077 307.151 529.814 307.065C529.552 306.98 529.274 306.958 529.002 307C527.646 307 526.002 307.645 526.002 309C526.102 309.76 526.451 310.466 526.993 311.009C527.535 311.551 528.241 311.899 529.002 312C530.358 312 531.002 310.356 531.002 309Z" fill="white"/>
</g>
<g style="mix-blend-mode:lighten">
<path d="M435.001 291.999C434.9 291.239 434.552 290.533 434.01 289.99C433.467 289.448 432.761 289.1 432.001 288.999C430.645 288.999 430.001 290.643 430.001 291.999C429.958 292.271 429.981 292.55 430.066 292.812C430.151 293.074 430.297 293.312 430.492 293.507C430.687 293.702 430.926 293.849 431.188 293.934C431.45 294.019 431.729 294.042 432.001 293.999C433.357 293.999 435.001 293.355 435.001 291.999Z" fill="white"/>
</g>
<g style="mix-blend-mode:lighten">
<path d="M451.501 289C450.12 289 449.001 290.119 449.001 291.5C449.001 292.881 450.12 294 451.501 294C452.882 294 454.001 292.881 454.001 291.5C454.001 290.119 452.882 289 451.501 289Z" fill="white"/>
</g>
<g style="mix-blend-mode:lighten">
<path d="M470.771 289.163C469.418 289.252 468.393 290.42 468.481 291.773C468.57 293.126 469.738 294.151 471.091 294.063C472.444 293.975 473.469 292.806 473.381 291.453C473.293 290.1 472.124 289.075 470.771 289.163Z" fill="white"/>
</g>
<g style="mix-blend-mode:lighten">
<path d="M493.001 291.999C492.9 291.239 492.552 290.533 492.01 289.991C491.467 289.448 490.761 289.1 490.001 288.999C488.646 288.999 488.001 290.643 488.001 291.999C487.958 292.271 487.981 292.55 488.066 292.812C488.152 293.074 488.298 293.312 488.493 293.507C488.688 293.702 488.926 293.848 489.188 293.934C489.45 294.019 489.729 294.042 490.001 293.999C491.357 293.999 493.001 293.355 493.001 291.999Z" fill="white"/>
</g>
<g style="mix-blend-mode:lighten">
<path d="M509.501 289C508.12 289 507.001 290.119 507.001 291.5C507.001 292.881 508.12 294 509.501 294C510.882 294 512.001 292.881 512.001 291.5C512.001 290.119 510.882 289 509.501 289Z" fill="white"/>
</g>
<g style="mix-blend-mode:lighten">
<path d="M531.001 291.999C531.001 290.643 530.357 288.999 529.001 288.999C528.241 289.1 527.535 289.448 526.993 289.99C526.45 290.533 526.102 291.239 526.001 291.999C526.001 293.355 527.645 293.999 529.001 293.999C529.274 294.042 529.552 294.019 529.815 293.934C530.077 293.849 530.315 293.702 530.51 293.507C530.705 293.312 530.851 293.074 530.936 292.812C531.022 292.55 531.044 292.271 531.001 291.999V291.999Z" fill="white"/>
</g>
</g>
<g style="mix-blend-mode:overlay">
<g style="mix-blend-mode:lighten">
<path d="M26.001 317C26.001 315.644 24.357 315 23.001 315C22.7286 314.957 22.45 314.98 22.1878 315.065C21.9256 315.15 21.6874 315.296 21.4924 315.491C21.2975 315.686 21.1513 315.925 21.0659 316.187C20.9805 316.449 20.9583 316.728 21.001 317C21.001 318.356 21.645 320 23.001 320C23.7613 319.899 24.4673 319.551 25.0096 319.009C25.5519 318.466 25.9003 317.76 26.001 317V317Z" fill="white"/>
</g>
<g style="mix-blend-mode:lighten">
<path d="M42.501 315C41.1203 315 40.001 316.119 40.001 317.5C40.001 318.881 41.1203 320 42.501 320C43.8817 320 45.001 318.881 45.001 317.5C45.001 316.119 43.8817 315 42.501 315Z" fill="white"/>
</g>
<g style="mix-blend-mode:lighten">
<path d="M61.501 315C60.1203 315 59.001 316.119 59.001 317.5C59.001 318.881 60.1203 320 61.501 320C62.8817 320 64.001 318.881 64.001 317.5C64.001 316.119 62.8817 315 61.501 315Z" fill="white"/>
</g>
<g style="mix-blend-mode:lighten">
<path d="M84.001 317C84.001 315.644 82.357 315 81.001 315C80.7286 314.958 80.4501 314.98 80.188 315.065C79.926 315.151 79.6878 315.297 79.4929 315.492C79.298 315.687 79.1518 315.925 79.0663 316.187C78.9809 316.449 78.9585 316.728 79.001 317C79.001 318.356 79.646 320 81.001 320C81.7613 319.899 82.4672 319.551 83.0095 319.009C83.5518 318.466 83.9003 317.76 84.001 317V317Z" fill="white"/>
</g>
<g style="mix-blend-mode:lighten">
<path d="M100.501 315C99.1203 315 98.001 316.119 98.001 317.5C98.001 318.881 99.1203 320 100.501 320C101.882 320 103.001 318.881 103.001 317.5C103.001 316.119 101.882 315 100.501 315Z" fill="white"/>
</g>
<g style="mix-blend-mode:lighten">
<path d="M122.002 317C122.045 316.728 122.023 316.449 121.937 316.187C121.852 315.925 121.706 315.686 121.511 315.491C121.316 315.296 121.078 315.15 120.815 315.065C120.553 314.98 120.275 314.957 120.002 315C118.646 315 117.002 315.644 117.002 317C117.103 317.76 117.451 318.466 117.994 319.009C118.536 319.551 119.242 319.899 120.002 320C121.358 320 122.002 318.356 122.002 317Z" fill="white"/>
</g>
</g>
<g style="mix-blend-mode:overlay">
<g style="mix-blend-mode:lighten">
<path d="M1183 269C1183 267.644 1181.36 267 1180 267C1179.73 266.957 1179.45 266.98 1179.19 267.065C1178.93 267.15 1178.69 267.296 1178.49 267.491C1178.3 267.686 1178.15 267.925 1178.07 268.187C1177.98 268.449 1177.96 268.728 1178 269C1178 270.356 1178.64 272 1180 272C1180.76 271.899 1181.47 271.551 1182.01 271.009C1182.55 270.466 1182.9 269.76 1183 269V269Z" fill="white"/>
</g>
<g style="mix-blend-mode:lighten">
<path d="M1199.5 267C1198.12 267 1197 268.119 1197 269.5C1197 270.881 1198.12 272 1199.5 272C1200.88 272 1202 270.881 1202 269.5C1202 268.119 1200.88 267 1199.5 267Z" fill="white"/>
</g>
<g style="mix-blend-mode:lighten">
<path d="M1218.5 267C1217.12 267 1216 268.119 1216 269.5C1216 270.881 1217.12 272 1218.5 272C1219.88 272 1221 270.881 1221 269.5C1221 268.119 1219.88 267 1218.5 267Z" fill="white"/>
</g>
<g style="mix-blend-mode:lighten">
<path d="M1241 269C1241 267.644 1239.36 267 1238 267C1237.73 266.958 1237.45 266.98 1237.19 267.065C1236.93 267.151 1236.69 267.297 1236.49 267.492C1236.3 267.687 1236.15 267.925 1236.07 268.187C1235.98 268.449 1235.96 268.728 1236 269C1236 270.356 1236.65 272 1238 272C1238.76 271.899 1239.47 271.551 1240.01 271.009C1240.55 270.466 1240.9 269.76 1241 269V269Z" fill="white"/>
</g>
<g style="mix-blend-mode:lighten">
<path d="M1257.5 267C1256.12 267 1255 268.119 1255 269.5C1255 270.881 1256.12 272 1257.5 272C1258.88 272 1260 270.881 1260 269.5C1260 268.119 1258.88 267 1257.5 267Z" fill="white"/>
</g>
<g style="mix-blend-mode:lighten">
<path d="M1279 269C1279.04 268.728 1279.02 268.449 1278.94 268.187C1278.85 267.925 1278.7 267.686 1278.51 267.491C1278.31 267.296 1278.08 267.15 1277.81 267.065C1277.55 266.98 1277.27 266.957 1277 267C1275.65 267 1274 267.644 1274 269C1274.1 269.76 1274.45 270.466 1274.99 271.009C1275.54 271.551 1276.24 271.899 1277 272C1278.36 272 1279 270.356 1279 269Z" fill="white"/>
</g>
<g style="mix-blend-mode:lighten">
<path d="M1183 252C1183 250.645 1181.36 250 1180 250C1179.73 249.958 1179.45 249.98 1179.19 250.065C1178.93 250.151 1178.69 250.297 1178.49 250.492C1178.3 250.687 1178.15 250.925 1178.07 251.187C1177.98 251.449 1177.96 251.728 1178 252C1178 253.356 1178.64 255 1180 255C1180.76 254.899 1181.47 254.551 1182.01 254.009C1182.55 253.466 1182.9 252.76 1183 252Z" fill="white"/>
</g>
<g style="mix-blend-mode:lighten">
<path d="M1199.5 250C1198.12 250 1197 251.119 1197 252.5C1197 253.881 1198.12 255 1199.5 255C1200.88 255 1202 253.881 1202 252.5C1202 251.119 1200.88 250 1199.5 250Z" fill="white"/>
</g>
<g style="mix-blend-mode:lighten">
<path d="M1218.82 249.593C1217.47 249.653 1216.42 250.8 1216.48 252.155C1216.54 253.509 1217.69 254.559 1219.04 254.499C1220.39 254.439 1221.44 253.292 1221.38 251.938C1221.32 250.583 1220.18 249.534 1218.82 249.593Z" fill="white"/>
</g>
<g style="mix-blend-mode:lighten">
<path d="M1241 252C1241 250.645 1239.36 250 1238 250C1237.73 249.958 1237.45 249.98 1237.19 250.065C1236.93 250.151 1236.69 250.297 1236.49 250.492C1236.3 250.687 1236.15 250.925 1236.07 251.187C1235.98 251.449 1235.96 251.728 1236 252C1236 253.356 1236.65 255 1238 255C1238.76 254.899 1239.47 254.551 1240.01 254.009C1240.55 253.466 1240.9 252.76 1241 252Z" fill="white"/>
</g>
<g style="mix-blend-mode:lighten">
<path d="M1257.5 250C1256.12 250 1255 251.119 1255 252.5C1255 253.881 1256.12 255 1257.5 255C1258.88 255 1260 253.881 1260 252.5C1260 251.119 1258.88 250 1257.5 250Z" fill="white"/>
</g>
<g style="mix-blend-mode:lighten">
<path d="M1279 252C1279.04 251.728 1279.02 251.449 1278.94 251.187C1278.85 250.925 1278.7 250.687 1278.51 250.492C1278.31 250.297 1278.08 250.151 1277.81 250.065C1277.55 249.98 1277.27 249.958 1277 250C1275.65 250 1274 250.645 1274 252C1274.1 252.76 1274.45 253.466 1274.99 254.009C1275.54 254.551 1276.24 254.899 1277 255C1278.36 255 1279 253.356 1279 252Z" fill="white"/>
</g>
<g style="mix-blend-mode:lighten">
<path d="M1183 234.999C1182.9 234.239 1182.55 233.533 1182.01 232.99C1181.47 232.448 1180.76 232.1 1180 231.999C1178.64 231.999 1178 233.643 1178 234.999C1177.96 235.271 1177.98 235.55 1178.07 235.812C1178.15 236.074 1178.3 236.312 1178.49 236.507C1178.69 236.702 1178.93 236.849 1179.19 236.934C1179.45 237.019 1179.73 237.042 1180 236.999C1181.36 236.999 1183 236.355 1183 234.999Z" fill="white"/>
</g>
<g style="mix-blend-mode:lighten">
<path d="M1199.5 232C1198.12 232 1197 233.119 1197 234.5C1197 235.881 1198.12 237 1199.5 237C1200.88 237 1202 235.881 1202 234.5C1202 233.119 1200.88 232 1199.5 232Z" fill="white"/>
</g>
<g style="mix-blend-mode:lighten">
<path d="M1218.77 232.163C1217.42 232.252 1216.39 233.42 1216.48 234.773C1216.57 236.126 1217.74 237.151 1219.09 237.063C1220.44 236.975 1221.47 235.806 1221.38 234.453C1221.29 233.1 1220.12 232.075 1218.77 232.163Z" fill="white"/>
</g>
<g style="mix-blend-mode:lighten">
<path d="M1241 234.999C1240.9 234.239 1240.55 233.533 1240.01 232.991C1239.47 232.448 1238.76 232.1 1238 231.999C1236.65 231.999 1236 233.643 1236 234.999C1235.96 235.271 1235.98 235.55 1236.07 235.812C1236.15 236.074 1236.3 236.312 1236.49 236.507C1236.69 236.702 1236.93 236.848 1237.19 236.934C1237.45 237.019 1237.73 237.042 1238 236.999C1239.36 236.999 1241 236.355 1241 234.999Z" fill="white"/>
</g>
<g style="mix-blend-mode:lighten">
<path d="M1257.5 232C1256.12 232 1255 233.119 1255 234.5C1255 235.881 1256.12 237 1257.5 237C1258.88 237 1260 235.881 1260 234.5C1260 233.119 1258.88 232 1257.5 232Z" fill="white"/>
</g>
<g style="mix-blend-mode:lighten">
<path d="M1279 234.999C1279 233.643 1278.36 231.999 1277 231.999C1276.24 232.1 1275.54 232.448 1274.99 232.99C1274.45 233.533 1274.1 234.239 1274 234.999C1274 236.355 1275.65 236.999 1277 236.999C1277.27 237.042 1277.55 237.019 1277.81 236.934C1278.08 236.849 1278.31 236.702 1278.51 236.507C1278.7 236.312 1278.85 236.074 1278.94 235.812C1279.02 235.55 1279.04 235.271 1279 234.999V234.999Z" fill="white"/>
</g>
</g>
<path opacity="0.32" d="M13.8596 351C-170.789 351 -249.532 190.78 -249.532 18.483C-249.532 -153.814 -99.8444 -293.49 84.8046 -293.49C269.454 -293.49 419.141 -153.815 419.141 18.483C419.141 190.781 198.509 351 13.8596 351Z" fill="#00CCEA"/>
<path d="M1079.45 294.149L1098.25 289.165L1086.38 275.976L1079.45 294.149ZM1076.2 297.082L1085.67 272.206L1101.93 290.259L1076.2 297.082Z" fill="#00D8E9"/>
<path d="M84.5 290C77.5964 290 72 295.596 72 302.5C72 309.404 77.5964 315 84.5 315C91.4036 315 97 309.404 97 302.5C97 295.596 91.4036 290 84.5 290Z" stroke="#00DEE9" stroke-width="2"/>
</g>
<defs>
<linearGradient id="paint0_linear_848_113" x1="1366" y1="0" x2="1316.3" y2="582.948" gradientUnits="userSpaceOnUse">
<stop stop-color="#008BEC"/>
<stop offset="1" stop-color="#00F6E8"/>
</linearGradient>
</defs>
</svg>
