<svg xmlns="http://www.w3.org/2000/svg" xmlns:xlink="http://www.w3.org/1999/xlink" width="99" height="99" viewBox="0 0 99 99">
  <defs>
    <filter id="Oval" x="0" y="0" width="99" height="99" filterUnits="userSpaceOnUse">
      <feOffset input="SourceAlpha"/>
      <feGaussianBlur stdDeviation="1.5" result="blur"/>
      <feFlood flood-opacity="0.149"/>
      <feComposite operator="in" in2="blur"/>
      <feComposite in="SourceGraphic"/>
    </filter>
  </defs>
  <g id="circle_google" data-name="circle/google" transform="translate(4.5 4.5)">
    <g id="circle_google-2" data-name="circle/google">
      <g transform="matrix(1, 0, 0, 1, -4.5, -4.5)" filter="url(#Oval)">
        <circle id="Oval-2" data-name="Oval" cx="45" cy="45" r="45" transform="translate(4.5 4.5)" fill="#fff"/>
      </g>
      <g id="Group" transform="translate(11.25 33.75)">
        <path id="Shape" d="M5.563,11.09A5.572,5.572,0,0,1,1.632,9.514,5.5,5.5,0,0,1,0,5.545,5.5,5.5,0,0,1,1.632,1.567,5.579,5.579,0,0,1,5.563,0a5.578,5.578,0,0,1,3.93,1.567,5.5,5.5,0,0,1,1.632,3.978,5.5,5.5,0,0,1-1.632,3.97A5.571,5.571,0,0,1,5.563,11.09Zm0-8.9a3.03,3.03,0,0,0-2.194.932,3.454,3.454,0,0,0-.934,2.428A3.215,3.215,0,0,0,5.563,8.9,3.215,3.215,0,0,0,8.69,5.545a3.454,3.454,0,0,0-.934-2.428A3.03,3.03,0,0,0,5.563,2.185Z" transform="translate(17.813 6.25)" fill="#ea4335"/>
        <path id="Shape-2" data-name="Shape" d="M5.563,11.09A5.572,5.572,0,0,1,1.632,9.514,5.5,5.5,0,0,1,0,5.545,5.5,5.5,0,0,1,1.632,1.568,5.578,5.578,0,0,1,5.563,0a5.578,5.578,0,0,1,3.93,1.567,5.5,5.5,0,0,1,1.632,3.978,5.5,5.5,0,0,1-1.632,3.97A5.571,5.571,0,0,1,5.563,11.09Zm0-8.9a3.03,3.03,0,0,0-2.194.932,3.454,3.454,0,0,0-.934,2.428A3.215,3.215,0,0,0,5.563,8.9,3.215,3.215,0,0,0,8.69,5.545a3.454,3.454,0,0,0-.934-2.428A3.03,3.03,0,0,0,5.563,2.185Z" transform="translate(29.813 6.25)" fill="#fbbc05"/>
        <path id="Shape-3" data-name="Shape" d="M5.36,16.058a5.157,5.157,0,0,1-3.237-1.083A5.468,5.468,0,0,1,.445,12.79l2.12-.882a3.056,3.056,0,0,0,2.793,1.967c1.881,0,2.96-1.185,2.96-3.25v-.8H8.232a3.775,3.775,0,0,1-2.92,1.26A5.493,5.493,0,0,1,0,5.565,5.516,5.516,0,0,1,5.313,0a3.843,3.843,0,0,1,2.92,1.24h.086v-.9H10.63V10.29a5.9,5.9,0,0,1-1.564,4.42A5.19,5.19,0,0,1,5.36,16.058ZM5.53,2.185A3.209,3.209,0,0,0,2.443,5.565,3.187,3.187,0,0,0,5.53,8.9a3.1,3.1,0,0,0,2.96-3.34A3.12,3.12,0,0,0,5.53,2.185Z" transform="translate(41.807 6.25)" fill="#4285f4"/>
        <path id="Path" d="M2.375,0V16.25H0V0Z" transform="translate(53.875 0.75)" fill="#34a853"/>
        <path id="Shape-4" data-name="Shape" d="M5.5,11.09A5.46,5.46,0,0,1,1.57,9.484,5.563,5.563,0,0,1,0,5.545,5.677,5.677,0,0,1,1.543,1.536,5.1,5.1,0,0,1,5.23,0,5.213,5.213,0,0,1,9.975,3.527l.253.63L2.815,7.228A2.808,2.808,0,0,0,5.5,8.907a3.149,3.149,0,0,0,2.73-1.535l1.89,1.26A5.534,5.534,0,0,1,5.5,11.09Zm-.19-8.945a2.974,2.974,0,0,0-2.04.915,3.1,3.1,0,0,0-.858,2.317L7.37,3.32A2.146,2.146,0,0,0,5.313,2.145Z" transform="translate(57.272 6.247)" fill="#ea4335"/>
        <path id="Path-2" data-name="Path" d="M8.733,10.235V7.883H16.66a7.8,7.8,0,0,1,.118,1.42,7.769,7.769,0,0,1-2.038,5.5A7.873,7.873,0,0,1,8.735,17.22,8.731,8.731,0,0,1,0,8.61,8.731,8.731,0,0,1,8.735,0a8.2,8.2,0,0,1,5.9,2.372l-1.66,1.66a6,6,0,0,0-4.243-1.68A6.176,6.176,0,0,0,2.557,8.61a6.176,6.176,0,0,0,6.175,6.258,5.76,5.76,0,0,0,4.347-1.722,4.876,4.876,0,0,0,1.275-2.913Z" transform="translate(0.09 0.117)" fill="#4285f4"/>
      </g>
    </g>
  </g>
</svg>
