<svg xmlns="http://www.w3.org/2000/svg" xmlns:xlink="http://www.w3.org/1999/xlink" width="99" height="99" viewBox="0 0 99 99">
  <defs>
    <filter id="Oval" x="0" y="0" width="99" height="99" filterUnits="userSpaceOnUse">
      <feOffset input="SourceAlpha"/>
      <feGaussianBlur stdDeviation="1.5" result="blur"/>
      <feFlood flood-opacity="0.149"/>
      <feComposite operator="in" in2="blur"/>
      <feComposite in="SourceGraphic"/>
    </filter>
  </defs>
  <g id="circle_salesforce" data-name="circle/salesforce" transform="translate(4.5 4.5)">
    <g id="circle_salesforce-2" data-name="circle/salesforce">
      <g transform="matrix(1, 0, 0, 1, -4.5, -4.5)" filter="url(#Oval)">
        <circle id="Oval-2" data-name="Oval" cx="45" cy="45" r="45" transform="translate(4.5 4.5)" fill="#00a1e0"/>
      </g>
      <g id="Group" transform="translate(13.5 22.5)">
        <path id="Combined_Shape" data-name="Combined Shape" d="M26.568,4.92A11.165,11.165,0,0,1,44.533,7.294a13.519,13.519,0,0,1,5.579-1.187,13.857,13.857,0,0,1,13.763,13.97,13.873,13.873,0,0,1-13.763,13.97,13.733,13.733,0,0,1-2.7-.272,10.051,10.051,0,0,1-13.2,4.179,11.462,11.462,0,0,1-21.357-.519A10.686,10.686,0,0,1,0,26.8a10.878,10.878,0,0,1,5.333-9.4A12.4,12.4,0,0,1,26.568,4.92" transform="translate(0.025)" fill="#fff"/>
      </g>
    </g>
  </g>
</svg>
