<svg xmlns="http://www.w3.org/2000/svg" xmlns:xlink="http://www.w3.org/1999/xlink" width="105" height="105" viewBox="0 0 105 105">
  <defs>
    <filter id="Oval" x="0" y="0" width="105" height="105" filterUnits="userSpaceOnUse">
      <feOffset input="SourceAlpha"/>
      <feGaussianBlur stdDeviation="2.5" result="blur"/>
      <feFlood flood-opacity="0.149"/>
      <feComposite operator="in" in2="blur"/>
      <feComposite in="SourceGraphic"/>
    </filter>
  </defs>
  <g id="circle_shopify" data-name="circle/shopify" transform="translate(7.5 7.5)">
    <g id="circle_shopify-2" data-name="circle/shopify">
      <g transform="matrix(1, 0, 0, 1, -7.5, -7.5)" filter="url(#Oval)">
        <circle id="Oval-2" data-name="Oval" cx="45" cy="45" r="45" transform="translate(7.5 7.5)" fill="#9ebe59"/>
      </g>
      <g id="Group" transform="translate(25.2 22.5)">
        <path id="Shape" d="M27.482,44.763h0L0,40c.005-.046.111-.87.287-2.234C1.111,31.374,3.3,14.4,3.406,13.686c.16-1.2.233-1.224,1.452-1.615.019-.018.9-.291,2.242-.7l2.008-.62a17.386,17.386,0,0,1,2.429-6.327C13.3,1.624,15.457.054,17.608,0h.109a3.5,3.5,0,0,1,2.663,1.14,1.186,1.186,0,0,0,.153.18l.005.005a1.529,1.529,0,0,1,.344-.026,4.5,4.5,0,0,1,4.012,2.779,8.817,8.817,0,0,1,.634,1.561l1.346-.423a1.793,1.793,0,0,1,.42-.054.76.76,0,0,1,.557.186C28.1,5.6,30.5,7.934,30.775,8.2l.007.007h.081c1.159.011,3.121.032,3.245.053a.442.442,0,0,1,.4.371c.025.2,4.377,29.734,4.874,33.1l.01.067L27.482,44.763ZM17.635,1.457c-1.046.033-2.67.6-4.462,3.137a17.063,17.063,0,0,0-2.561,5.678l.274-.086c1.122-.35,2.282-.713,3.5-1.079A12.564,12.564,0,0,1,17.24,3.125,5.931,5.931,0,0,1,18.929,1.8,2.322,2.322,0,0,0,17.635,1.457Zm2.244,1.509A4.611,4.611,0,0,0,18.321,4.1,11.086,11.086,0,0,0,16,8.6c1.169-.371,2.32-.727,3.433-1.07l.011,0,1.15-.355A9.907,9.907,0,0,0,19.879,2.966Zm1.479-.185a12.089,12.089,0,0,1,.66,3.944c.372-.112.723-.223,1.063-.33.38-.12.739-.233,1.075-.332C23.412,3.65,22.224,2.946,21.358,2.781Z" transform="translate(0 0.078)" fill="#fff"/>
        <path id="Path" d="M6.626,3.071C6.468,3.044,3.3,3.018,3.3,3.018S.634.424.37.159A.521.521,0,0,0,0,0V39.574l11.906-2.965S7.049,3.679,7.022,3.441A.472.472,0,0,0,6.626,3.071Z" transform="translate(27.482 5.268)" fill="#fff"/>
        <path id="Path-2" data-name="Path" d="M13.57.442,12.2,5.63a7.57,7.57,0,0,0-3.379-.582C6.125,5.206,6.1,6.9,6.125,7.351c.158,2.329,6.23,2.832,6.574,8.259.264,4.288-2.27,7.2-5.914,7.438A8.889,8.889,0,0,1,0,20.745L.924,16.8s2.429,1.826,4.356,1.721a1.7,1.7,0,0,0,1.663-1.853C6.758,13.651,1.8,13.809,1.478,8.859,1.214,4.677,3.96.442,10.006.045a7.032,7.032,0,0,1,3.564.4Z" transform="translate(7.313 14.038)" fill="#9ebe59"/>
      </g>
    </g>
  </g>
</svg>
