<svg xmlns="http://www.w3.org/2000/svg" xmlns:xlink="http://www.w3.org/1999/xlink" width="99" height="99" viewBox="0 0 99 99">
  <defs>
    <filter id="Oval" x="0" y="0" width="99" height="99" filterUnits="userSpaceOnUse">
      <feOffset input="SourceAlpha"/>
      <feGaussianBlur stdDeviation="1.5" result="blur"/>
      <feFlood flood-opacity="0.149"/>
      <feComposite operator="in" in2="blur"/>
      <feComposite in="SourceGraphic"/>
    </filter>
  </defs>
  <g id="circle_uber" data-name="circle/uber" transform="translate(4.5 4.5)">
    <g id="circle_uber-2" data-name="circle/uber">
      <g transform="matrix(1, 0, 0, 1, -4.5, -4.5)" filter="url(#Oval)">
        <circle id="Oval-2" data-name="Oval" cx="45" cy="45" r="45" transform="translate(4.5 4.5)"/>
      </g>
      <g id="Group" transform="translate(18.6 36)">
        <path id="Shape" d="M23.443,17.745A6.393,6.393,0,0,1,18.9,15.851v1.6H16.4V0h2.522V6.356A6.338,6.338,0,0,1,23.43,4.461h.013a6.632,6.632,0,0,1,6.691,6.655A6.568,6.568,0,0,1,28.193,15.8,6.679,6.679,0,0,1,23.443,17.745ZM23.269,6.7a4.381,4.381,0,1,0,3.083,1.28A4.364,4.364,0,0,0,23.269,6.7ZM6.616,17.745A6.563,6.563,0,0,1,1.9,15.873,6.848,6.848,0,0,1,0,10.916V0H2.622V10.767c0,2.73,1.766,4.636,4.294,4.636a4.328,4.328,0,0,0,4.294-4.636V0h2.622V17.447h-2.6v-1.62A6.33,6.33,0,0,1,6.616,17.745ZM38.4,17.72a6.834,6.834,0,0,1-4.816-1.894,6.542,6.542,0,0,1-1.95-4.735,6.623,6.623,0,0,1,1.876-4.648,6.453,6.453,0,0,1,4.665-1.956,6.248,6.248,0,0,1,4.56,1.882,6.743,6.743,0,0,1,1.807,4.723v.823H34.178A4.391,4.391,0,0,0,35.614,14.5,4.243,4.243,0,0,0,38.4,15.527a4.381,4.381,0,0,0,3.669-1.869L43.89,15A6.709,6.709,0,0,1,38.4,17.72ZM38.123,6.68a4,4,0,0,0-3.894,3.24h7.764A3.95,3.95,0,0,0,38.123,6.68ZM49.034,17.447H46.512V4.736h2.5v1.57a3.4,3.4,0,0,1,3.046-1.669h.874V6.979H51.88a2.7,2.7,0,0,0-2.041.882,3.46,3.46,0,0,0-.8,2.358v7.227Z" transform="translate(0.183 0.208)" fill="#fff"/>
      </g>
    </g>
  </g>
</svg>
