<svg width="128" height="128" viewBox="0 0 128 128" fill="none" xmlns="http://www.w3.org/2000/svg">
<path d="M122.765 119.769C83.5662 119.805 44.3678 119.817 5.17043 119.803C4.42295 119.781 3.67565 119.853 2.94601 120.017C2.4343 120.159 1.95588 120.4 1.53814 120.728C1.1204 121.056 0.77163 121.463 0.512216 121.926C0.252802 122.39 0.0878479 122.9 0.0267241 123.427C-0.0343997 123.955 0.00957028 124.489 0.156153 124.999C0.381034 125.715 0.779569 126.363 1.31626 126.887C1.85295 127.41 2.51102 127.793 3.23164 128H124.667C125.43 127.761 126.124 127.34 126.69 126.775C127.256 126.209 127.676 125.515 127.915 124.751V123.003C127.554 121.957 126.847 121.067 125.91 120.478C124.974 119.89 123.864 119.64 122.765 119.769Z" fill="#844299"/>
<path d="M71.0323 102.527C68.5338 103.97 66.243 105.782 63.7618 107.49C63.8685 107.53 63.7618 107.521 63.7185 107.469C58.4805 102.864 52.2429 99.5402 45.4989 97.761C38.0746 95.5654 30.4416 94.1498 22.7238 93.5372C18.5807 93.1593 14.4232 92.9227 10.2628 92.7582C9.6765 92.7241 9.09017 92.8226 8.54712 93.0462C8.00407 93.2699 7.51827 93.613 7.12604 94.0502C6.73382 94.4873 6.44521 95.0072 6.28149 95.5712C6.11777 96.1352 6.0832 96.7289 6.18042 97.3081C6.25872 98.2108 6.65438 99.0565 7.29721 99.6951C7.94003 100.334 8.78835 100.724 9.69156 100.796C13.9183 101.171 18.1624 101.373 22.3862 101.76C29.9784 102.374 37.4759 103.85 44.7343 106.16C46.9241 106.884 49.0448 107.821 51.1971 108.661L51.073 108.978C49.3419 108.823 47.6109 108.629 45.8567 108.517C38.4217 108.032 30.9897 107.487 23.5489 107.132C18.0672 106.872 12.5623 106.843 7.06617 106.774C6.52254 106.752 5.98005 106.841 5.47252 107.038C4.96498 107.234 4.50314 107.532 4.11571 107.914C3.72829 108.296 3.42363 108.754 3.22045 109.258C3.01727 109.763 2.91995 110.304 2.93465 110.848C2.9334 111.424 3.05303 111.994 3.28578 112.521C3.51853 113.047 3.85919 113.52 4.28582 113.907C4.71245 114.293 5.21555 114.587 5.76254 114.767C6.30954 114.947 6.8884 115.011 7.4615 114.954C12.1643 115.063 16.8669 115.112 21.5696 115.242C33.6439 115.594 45.6691 116.586 57.6712 117.911C60.0023 118.323 62.3669 118.517 64.734 118.488C73.2769 117.801 81.7823 116.636 90.3309 116.093C100.172 115.47 110.042 115.314 119.901 114.954C120.316 114.939 120.734 114.954 121.147 114.902C121.679 114.872 122.2 114.737 122.68 114.505C123.159 114.273 123.588 113.947 123.94 113.548C124.293 113.149 124.563 112.683 124.734 112.178C124.905 111.674 124.975 111.14 124.938 110.609C124.923 110.075 124.801 109.55 124.578 109.065C124.356 108.58 124.037 108.145 123.642 107.786C123.247 107.427 122.784 107.151 122.279 106.976C121.775 106.801 121.241 106.729 120.708 106.766C109.27 107.191 97.8332 107.658 86.3984 108.168C83.1844 108.312 79.9819 108.684 76.7737 108.952C77.8141 108.269 78.9269 107.703 80.0916 107.265C90.069 103.746 100.511 101.72 111.081 101.252C113.487 101.073 115.908 101.027 118.294 100.773C119.258 100.665 120.147 100.197 120.782 99.4628C121.417 98.7287 121.753 97.7821 121.721 96.8118C121.735 96.2361 121.625 95.6641 121.398 95.1349C121.17 94.6056 120.832 94.1316 120.405 93.7449C119.978 93.3583 119.473 93.0683 118.924 92.8945C118.375 92.7208 117.795 92.6674 117.223 92.738C108.816 92.9323 100.437 93.8006 92.1687 95.3347C84.7695 96.5291 77.6242 98.9606 71.0323 102.527Z" fill="#19A3D2"/>
<path d="M63.8685 73.3268C64.3284 73.6176 64.8426 73.8119 65.3799 73.8982C65.9171 73.9844 66.4663 73.9607 66.9941 73.8286C67.522 73.6964 68.0175 73.4585 68.4508 73.1293C68.884 72.8 69.2459 72.3863 69.5146 71.9131C69.792 71.4455 69.9726 70.927 70.0457 70.3883C70.1187 69.8495 70.0826 69.3016 69.9397 68.7771C69.7968 68.2525 69.5499 67.762 69.2137 67.3348C68.8775 66.9076 68.4589 66.5523 67.9826 66.29C66.4131 65.2716 64.7744 64.357 63.2106 63.3299C56.9512 59.5452 51.5474 54.5 47.3425 48.5147C42.305 40.8114 39.8786 32.56 42.7262 23.4141C43.4579 20.6905 44.754 18.1511 46.5304 15.9607C48.3068 13.7703 50.5239 11.9777 53.0377 10.6994C57.8842 8.38891 63.3351 7.66314 68.6174 8.625C71.4843 8.94946 74.2478 9.88732 76.7201 11.3748C79.1923 12.8624 81.3154 14.8647 82.9449 17.2457C85.9435 22.0921 87.3078 27.7728 86.8373 33.4524C86.3668 39.132 84.0862 44.5107 80.331 48.7975C77.5682 51.8088 74.2412 54.2486 70.5388 55.9786C70.0521 56.1993 69.6154 56.5169 69.2555 56.912C68.8956 57.3071 68.6201 57.7715 68.4457 58.2766C68.2712 58.7818 68.2016 59.3173 68.241 59.8503C68.2805 60.3833 68.4281 60.9026 68.675 61.3767C68.8909 61.8658 69.205 62.3054 69.5979 62.6682C69.9907 63.031 70.4538 63.3092 70.9586 63.4856C71.4634 63.6619 71.999 63.7327 72.5323 63.6935C73.0656 63.6543 73.5851 63.506 74.0587 63.2577C77.1167 61.7616 80.0074 59.9454 82.6823 57.8395C87.402 53.9452 90.9964 48.8614 93.0942 43.1133C95.192 37.3652 95.717 31.1612 94.6152 25.1423C94.0726 20.7564 92.499 16.5614 90.0232 12.9007C87.5474 9.23991 84.2399 6.21749 80.3714 4.08089C73.5066 0.327434 65.539 -0.888084 57.8673 0.647631C52.6471 1.41838 47.7545 3.66004 43.762 7.11029C40.4317 10.1103 37.7768 13.7837 35.9733 17.8872C34.1698 21.9906 33.2587 26.4305 33.3005 30.9126C33.5578 39.9018 36.7166 48.5665 42.305 55.6122C48.2114 62.924 55.5492 68.9521 63.8685 73.3268Z" fill="#844299"/>
<path d="M27.9833 78.0065C28.7594 77.4468 29.4258 76.7543 30.2048 76.1889C32.8389 74.2501 35.4932 72.3401 38.1591 70.4042C50.5997 91.8493 76.9092 92.4667 89.598 70.5023C90.8877 71.3678 92.1168 72.1381 93.3083 72.9748C99.1464 76.5083 103.865 81.6215 106.92 87.7236C107.136 88.2018 107.446 88.6312 107.832 88.9857C108.219 89.3402 108.673 89.6124 109.168 89.7856C109.663 89.9589 110.188 90.0297 110.712 89.9936C111.235 89.9575 111.745 89.8154 112.212 89.5758C113.161 89.1629 113.908 88.392 114.292 87.4309C114.675 86.4697 114.664 85.396 114.26 84.4432C113.444 82.4443 112.421 80.5357 111.21 78.748C105.43 71.2769 98.001 65.2437 89.5028 61.1198C88.612 60.6739 87.5828 60.5913 86.6322 60.8895C85.6817 61.1877 84.8841 61.8433 84.4076 62.7182C83.7643 63.7857 83.2537 64.934 82.6391 66.0159C80.3196 70.4333 76.7595 74.0766 72.3969 76.4976C64.5493 80.5858 55.8305 78.5749 49.3967 71.7486C47.0882 69.1749 45.1562 66.2871 43.6581 63.1712C43.4535 62.663 43.1448 62.2033 42.752 61.8214C42.3592 61.4396 41.8909 61.1441 41.3772 60.9539C40.8634 60.7637 40.3157 60.6831 39.7689 60.7171C39.2222 60.7512 38.6886 60.8991 38.2024 61.1516C32.6016 64.0216 27.4031 67.6166 22.741 71.8439C21.9752 72.5433 21.5167 73.517 21.4653 74.5528C21.414 75.5887 21.774 76.6029 22.4669 77.3746C23.1345 78.1604 24.0759 78.6628 25.1003 78.7801C26.1246 78.8975 27.1553 78.6209 27.9833 78.0065Z" fill="#844299"/>
<path d="M17.3573 88.7795C17.5917 89.1729 17.858 89.5463 18.1536 89.8961C18.6798 90.5211 19.3869 90.9676 20.1774 91.1743C20.9679 91.381 21.8031 91.3376 22.5679 91.0501C23.375 90.7483 24.078 90.22 24.5923 89.5286C25.1066 88.8372 25.4105 88.0121 25.4675 87.1523C25.1357 86.2325 24.7424 85.3361 24.2903 84.4691C19.1086 75.8907 13.9058 67.3248 8.68182 58.7713C8.47326 58.4113 8.23995 58.0662 7.98361 57.7384C7.52521 57.1364 6.90237 56.6798 6.19026 56.4238C5.47815 56.1678 4.70722 56.1234 3.97042 56.2959C3.26811 56.4188 2.61367 56.7342 2.07987 57.2069C1.54608 57.6795 1.15376 58.291 0.946706 58.9733C0.739071 59.6295 0.689662 60.3255 0.802485 61.0044C0.915308 61.6834 1.18727 62.326 1.59597 62.8797C6.85459 71.5101 12.1083 80.1434 17.3573 88.7795Z" fill="#844299"/>
</svg>
