<svg width="129" height="128" viewBox="0 0 129 128" fill="none" xmlns="http://www.w3.org/2000/svg">
<path d="M0 50.7443C0.210747 49.9075 0.409229 49.0675 0.638302 48.2368C1.6724 44.5375 3.85848 41.264 6.87918 38.8914C9.89989 36.5187 13.598 35.1704 17.437 35.0422C18.9144 34.8043 20.4275 34.9264 21.8477 35.398C23.2679 35.8697 24.5534 36.6769 25.5951 37.7513C26.6367 38.7725 27.7537 39.7138 28.9365 40.5674C29.9115 41.4404 31.1734 41.9247 32.4821 41.928C33.7909 41.9314 35.0552 41.4537 36.0347 40.5857C37.852 39.1227 39.599 37.5711 41.4377 36.1356C42.0281 35.6178 42.752 35.276 43.527 35.1491C47.4746 34.7005 51.4724 35.1913 55.1943 36.5815C57.6986 37.6289 59.9725 39.1586 61.8863 41.0836C63.6212 42.8245 65.3316 44.593 67.1245 46.2759C67.6007 46.6979 68.2057 46.9465 68.841 46.9814C71.9656 47.0517 75.0932 46.9478 78.2147 47.0456C79.5394 47.1108 80.8503 47.3458 82.1151 47.745C82.4233 47.8878 82.7719 47.9173 83.0998 47.8285C83.4277 47.7397 83.7138 47.5382 83.9079 47.2594C88.7378 41.7983 93.5942 36.3606 98.477 30.9463C99.0516 30.3015 99.7812 29.8137 100.597 29.5291C101.246 29.3474 101.938 29.3889 102.561 29.647C103.184 29.905 103.702 30.3647 104.033 30.9524C104.411 31.5366 104.583 32.2308 104.52 32.924C104.458 33.6172 104.164 34.2694 103.688 34.7764C101.953 36.8014 100.154 38.7684 98.3792 40.7598C95.108 44.425 91.843 48.0901 88.5474 51.7553C88.3036 51.9625 88.1397 52.2482 88.084 52.5632C88.0282 52.8782 88.0841 53.2028 88.242 53.481C88.9224 55.0222 89.217 56.706 89.1 58.3867C88.9829 60.0673 88.458 61.6941 87.5705 63.1261C86.683 64.5581 85.4598 65.7522 84.0068 66.6048C82.5538 67.4575 80.9148 67.9431 79.2318 68.0195C73.8287 68.2883 68.4012 68.1203 62.9859 68.0714C61.6267 68.0428 60.2871 67.7403 59.0475 67.1819C57.8079 66.6235 56.6938 65.8207 55.7717 64.8216C54.33 63.3759 52.8853 61.9333 51.4376 60.4937C51.2146 60.2738 50.9458 60.0966 50.4937 59.7393V121.51H51.9141C68.4582 121.51 85.0014 121.51 101.543 121.51C104.097 121.51 105.655 123.134 105.279 125.364C105.129 125.945 104.85 126.484 104.461 126.941C104.072 127.398 103.584 127.76 103.034 128H2.51369C1.9417 127.787 1.42226 127.453 0.990636 127.022C0.559017 126.59 0.225322 126.07 0.0122105 125.498V123.999C0.293746 123.161 0.863003 122.45 1.61897 121.992C2.37493 121.534 3.26867 121.359 4.1416 121.497C5.01208 121.562 5.89175 121.497 6.76528 121.497H14.5446V89.6562L13.1304 90.0105C10.4536 90.684 7.61946 90.2802 5.23719 88.886C2.85493 87.4918 1.11478 85.2186 0.390923 82.5549C0.268751 82.1182 0.140491 81.6845 0.0122105 81.2477L0 50.7443ZM43.8476 121.436V119.677C43.8476 103.591 43.8476 87.505 43.8476 71.4189C43.8476 67.711 43.8048 64.0031 43.8629 60.2952C43.8002 58.9041 44.1845 57.5295 44.9594 56.3726C45.7343 55.2157 46.8592 54.3373 48.1695 53.8658C49.4294 53.3299 50.8249 53.1993 52.1625 53.4921C53.5 53.7849 54.7133 54.4866 55.6342 55.4999C57.1827 57.0271 58.7313 58.5328 60.2157 60.0997C60.6828 60.6003 61.2514 60.9954 61.8835 61.2588C62.5155 61.5221 63.1965 61.6476 63.8809 61.6268C68.5906 61.6268 73.2973 61.6268 78.007 61.6116C78.6719 61.6175 79.3333 61.5143 79.9648 61.3061C80.8539 60.9805 81.5974 60.3479 82.0611 59.5224C82.5248 58.6968 82.6783 57.7328 82.4938 56.8041C82.2923 55.8587 81.7703 55.0121 81.016 54.4076C80.2618 53.803 79.3217 53.4779 78.3552 53.4871C74.5638 53.4525 70.7723 53.4525 66.9809 53.4871C66.3783 53.5094 65.7779 53.4014 65.2207 53.1705C64.6636 52.9397 64.1628 52.5913 63.7525 52.1493C61.6573 50.0113 59.5131 47.9038 57.3965 45.778C55.4815 43.7769 53.0042 42.4041 50.2922 41.841C48.926 41.3266 47.4376 41.2302 46.0164 41.5642C44.5952 41.8981 43.3055 42.6473 42.3113 43.7164C41.7288 44.3131 41.0917 44.854 40.4084 45.3321C38.2245 47.2855 35.3973 48.3654 32.4673 48.3654C29.5373 48.3654 26.71 47.2855 24.5261 45.3321C23.2066 44.2478 21.9085 43.1361 20.5769 42.0671C20.2707 41.7972 19.8988 41.6128 19.4987 41.5326C17.8705 41.3209 16.2159 41.4592 14.6454 41.9381C13.075 42.4169 11.6248 43.2255 10.3918 44.3096C9.15878 45.3938 8.17125 46.7285 7.4953 48.2248C6.81935 49.7211 6.47051 51.3443 6.47204 52.9862C6.44455 60.1944 6.47204 67.4025 6.47204 74.6076C6.47204 76.3578 6.43844 78.1079 6.47204 79.858C6.49052 80.912 6.92453 81.916 7.67958 82.6516C8.43463 83.3872 9.44965 83.7949 10.5037 83.7858C11.0243 83.8007 11.5425 83.7101 12.0272 83.5195C12.5118 83.3289 12.9529 83.0422 13.3238 82.6767C13.6948 82.3112 13.9879 81.8744 14.1856 81.3926C14.3834 80.9108 14.4815 80.394 14.4743 79.8733C14.511 78.5844 14.5659 77.2924 14.5659 76.0035C14.5659 69.8796 14.5659 63.7557 14.5659 57.6287C14.5538 57.0874 14.5865 56.5459 14.6637 56.01C14.7792 55.2826 15.1501 54.6202 15.7098 54.1416C16.2696 53.6631 16.9816 53.3996 17.718 53.3985C19.7827 53.3497 21.035 54.7516 21.0411 57.1859C21.0534 65.4732 21.0534 73.7606 21.0411 82.0479V121.342H29.193V119.744C29.193 107.37 29.193 94.9962 29.193 82.6221C29.1767 82.1638 29.187 81.7049 29.2236 81.2477C29.3096 80.5178 29.6439 79.8396 30.1705 79.3268C30.6971 78.8141 31.384 78.4981 32.116 78.4316C32.8481 78.3361 33.5902 78.5069 34.2069 78.9128C34.8236 79.3187 35.2739 79.9328 35.4757 80.643C35.6363 81.2868 35.7072 81.9497 35.6865 82.613C35.6987 95.0338 35.6987 107.45 35.6865 119.86V121.387L43.8476 121.436Z" fill="#844299"/>
<path d="M128.027 42.4916C128.027 53.2 128.027 63.9084 128.027 74.6168C128.109 75.9974 127.896 77.3796 127.404 78.672C126.911 79.9643 126.15 81.1375 125.17 82.1138C124.191 83.0902 123.015 83.8475 121.721 84.3358C120.427 84.8241 119.044 85.0322 117.664 84.9464C98.7437 84.9464 79.8244 84.9464 60.906 84.9464C60.3242 84.9583 59.7432 84.8957 59.1772 84.7601C58.4679 84.5647 57.8485 84.1288 57.4251 83.527C57.0016 82.9253 56.8004 82.1952 56.8559 81.4615C56.9094 80.7062 57.2286 79.9943 57.757 79.452C58.2853 78.9097 58.9887 78.572 59.7423 78.4988C60.2371 78.453 60.741 78.4713 61.2419 78.4713H116.876C117.252 78.4713 117.628 78.4713 118 78.4713C118.482 78.507 118.966 78.4364 119.418 78.2647C119.87 78.0929 120.279 77.8241 120.615 77.4773C120.952 77.1304 121.208 76.7139 121.367 76.2571C121.525 75.8003 121.581 75.3144 121.531 74.8336C121.531 53.2926 121.531 31.7516 121.531 10.2106C121.531 7.71831 120.236 6.54544 117.527 6.54544H55.8908C55.3489 6.56035 54.8065 6.5471 54.2659 6.50573C53.5345 6.43117 52.8526 6.10183 52.3394 5.57531C51.8263 5.04879 51.5147 4.35863 51.459 3.62554C51.3642 2.87345 51.5489 2.11272 51.978 1.48777C52.407 0.862819 53.0504 0.417141 53.7863 0.235258C54.3541 0.104896 54.9357 0.0443627 55.5182 0.0550362C76.1877 0.0550362 96.8551 0.0550362 117.521 0.0550362C118.933 -0.0497702 120.351 0.152484 121.677 0.647899C123.003 1.14331 124.207 1.92013 125.204 2.92493C126.202 3.92972 126.97 5.13866 127.456 6.46859C127.941 7.79851 128.133 9.21785 128.018 10.629C128.026 21.2458 128.029 31.8667 128.027 42.4916Z" fill="#19A3D2"/>
<path d="M32.6139 31.3586C30.5467 31.3747 28.4966 30.9826 26.5812 30.2048C24.6659 29.427 22.923 28.2788 21.4523 26.826C19.9816 25.3732 18.8121 23.6443 18.0109 21.7386C17.2098 19.8329 16.7926 17.7878 16.7834 15.7206C16.7865 11.5675 18.4316 7.58419 21.36 4.63925C24.2883 1.6943 28.2624 0.0266482 32.4153 4.27477e-05C34.4827 -0.00477551 36.5308 0.397765 38.4426 1.18465C40.3544 1.97153 42.0923 3.12734 43.5573 4.58607C45.0223 6.0448 46.1855 7.77788 46.9805 9.68627C47.7756 11.5947 48.1869 13.641 48.1909 15.7084C48.1655 19.8386 46.5184 23.7935 43.6047 26.7209C40.6911 29.6483 36.7439 31.3139 32.6139 31.3586ZM32.562 6.49655C31.3519 6.48608 30.1515 6.71424 29.0297 7.16794C27.9078 7.62165 26.8865 8.29202 26.0238 9.14073C25.1612 9.98945 24.4744 10.9999 24.0025 12.1142C23.5306 13.2285 23.283 14.425 23.2738 15.635C23.2705 18.0791 24.2358 20.4249 25.9583 22.1589C27.6808 23.8928 30.0201 24.8736 32.4642 24.8866C34.8869 24.883 37.2115 23.9291 38.9386 22.2301C40.6656 20.531 41.6573 18.2223 41.7005 15.8C41.7176 13.3556 40.7656 11.0039 39.0529 9.25974C37.3402 7.51556 35.0063 6.52093 32.562 6.49352V6.49655Z" fill="#844299"/>
<path d="M84.4607 14.7371C90.0012 14.7371 95.5418 14.7127 101.079 14.7371C101.665 14.6986 102.25 14.8215 102.771 15.0923C103.292 15.3632 103.728 15.7716 104.033 16.2733C104.338 16.7749 104.499 17.3506 104.5 17.9376C104.5 18.5246 104.34 19.1005 104.036 19.6026C103.694 20.1537 103.204 20.5976 102.621 20.8838C102.039 21.17 101.389 21.287 100.743 21.2214C94.1215 21.2072 87.5038 21.2072 80.8902 21.2214C76.5592 21.2214 72.2282 21.2367 67.8941 21.2214C67.4657 21.2538 67.035 21.2003 66.6275 21.0643C66.2199 20.9282 65.8436 20.7122 65.5205 20.4289C65.1974 20.1457 64.9342 19.8008 64.7459 19.4145C64.5577 19.0283 64.4484 18.6083 64.4245 18.1793C64.3894 17.7199 64.4538 17.2584 64.6135 16.8262C64.7732 16.394 65.0243 16.0013 65.3497 15.6751C65.675 15.3489 66.067 15.0967 66.4988 14.9359C66.9305 14.7751 67.3919 14.7094 67.8514 14.7432C73.3828 14.7371 78.9202 14.7371 84.4607 14.7371Z" fill="#19A3D2"/>
<path d="M76.098 29.4344C78.9263 29.4344 81.7577 29.3978 84.586 29.4497C85.2595 29.4455 85.915 29.6666 86.4485 30.0778C86.982 30.489 87.3628 31.0666 87.5303 31.719C87.7377 32.3359 87.7409 33.0031 87.5396 33.622C87.3383 34.2408 86.9431 34.7784 86.4124 35.1551C85.7529 35.5784 84.9931 35.8197 84.2102 35.8546C78.7593 35.9116 73.3084 35.9177 67.8575 35.8729C67.4081 35.9093 66.9561 35.8503 66.5312 35.6998C66.1062 35.5492 65.7179 35.3105 65.3917 34.9993C65.0655 34.6881 64.8087 34.3114 64.6384 33.894C64.468 33.4766 64.3879 33.0279 64.4031 32.5773C64.4092 32.1278 64.5094 31.6846 64.6972 31.2763C64.885 30.8679 65.1562 30.5033 65.4934 30.2061C65.8306 29.9089 66.2263 29.6856 66.6551 29.5506C67.0838 29.4156 67.5361 29.3718 67.9827 29.4222C70.6858 29.3978 73.3919 29.4222 76.098 29.4222V29.4344Z" fill="#19A3D2"/>
</svg>
