<svg xmlns="http://www.w3.org/2000/svg" width="54.192" height="54.218" viewBox="0 0 54.192 54.218">
  <g id="logo-mini" transform="translate(-48.713 -293)">
    <g id="Group_850" data-name="Group 850" transform="translate(48.713 293)">
      <path id="Path_2334" data-name="Path 2334" d="M342.8,334.333l3.432,2.972h-3.318v10.157l14.215-8.207a27.107,27.107,0,0,0-14.33-22.771Z" transform="translate(-302.937 -313.3)" fill="#5a5b5e"/>
      <path id="Path_2335" data-name="Path 2335" d="M276.657,512.711v0l-10.5,6.064,12.2,7.045a27.094,27.094,0,0,0,12.5-21.306Z" transform="translate(-236.68 -475.845)" fill="#0060ad"/>
      <path id="Path_2336" data-name="Path 2336" d="M200.306,311.941l.073.064V295.073a27.2,27.2,0,0,0-19.622-.467Z" transform="translate(-162.859 -293)" fill="#0060ad"/>
      <path id="Path_2337" data-name="Path 2337" d="M62.968,329.7v-5.491l6.306.019v1.06l4.885-4.23-9.948-8.821a27.141,27.141,0,0,0-14.892,30.216Z" transform="translate(-48.713 -309.629)" fill="#5a5b5e"/>
      <path id="Path_2338" data-name="Path 2338" d="M181.3,580.851l-.022.013-10.574-6.1v13.887a27.17,27.17,0,0,0,22.782-.759Z" transform="translate(-154.165 -536.568)" fill="#5a5b5e"/>
      <path id="Path_2339" data-name="Path 2339" d="M71.024,472.667h.049v-1.244L58.1,482.576a27.187,27.187,0,0,0,12.92,15.612Z" transform="translate(-56.831 -447.239)" fill="#0060ad"/>
      <g id="Group_849" data-name="Group 849" transform="translate(23.781 25.314)">
        <rect id="Rectangle_33" data-name="Rectangle 33" width="2.503" height="2.502" fill="#0060ad"/>
        <rect id="Rectangle_34" data-name="Rectangle 34" width="2.503" height="2.502" transform="translate(3.828)" fill="#0060ad"/>
        <rect id="Rectangle_35" data-name="Rectangle 35" width="2.503" height="2.502" transform="translate(0 3.491)" fill="#0060ad"/>
        <rect id="Rectangle_36" data-name="Rectangle 36" width="2.503" height="2.502" transform="translate(3.828 3.491)" fill="#0060ad"/>
      </g>
    </g>
  </g>
</svg>
