<svg xmlns="http://www.w3.org/2000/svg" width="46.75" height="46.755" viewBox="0 0 46.75 46.755">
  <g id="Group_1193" data-name="Group 1193" transform="translate(213.436 38.424)">
    <g id="Group_1191" data-name="Group 1191">
      <path id="Path_21808" data-name="Path 21808" d="M-203.976-17.524q1.237,1.24,2.478,2.478a1.321,1.321,0,0,0,2.138,0l.865-.863c1.039-1.034,2.078-2.068,3.1-3.116a.951.951,0,0,1,.774-.332h0q8.994.021,17.989.01h2a3.062,3.062,0,0,0,3.27-3.263q0-6.267,0-12.534a3.082,3.082,0,0,0-3.294-3.282h-21.11a3.083,3.083,0,0,0-3.3,3.28v9.989a3.233,3.233,0,0,0-3.093,1.053l-.457-.466c-.576-.587-1.138-1.16-1.709-1.722a1.257,1.257,0,0,0-1.775-.031,1.248,1.248,0,0,0-.024,1.81,1.682,1.682,0,0,0,.123.117l-2.334,2.324a1.207,1.207,0,0,0-1.233-.175,1.359,1.359,0,0,0-.819,1.466l.008.133a1.743,1.743,0,0,1-.007.438,1.338,1.338,0,0,1-.2.518c-.5.53-1.022,1.045-1.54,1.561-.287.285-.573.57-.857.858a1.254,1.254,0,0,0-.279,1.628,1.244,1.244,0,0,0,.905.613,1.383,1.383,0,0,0,1.137-.411c.269-.262.528-.534.8-.824V5.784h-.275c-.486,0-.966-.005-1.445.006a1.353,1.353,0,0,0-1.13.614,1.146,1.146,0,0,0-.069,1.1,1.728,1.728,0,0,0,.454.548c.059.053.118.106.171.161l.111.117h6.925l.1-.065a1.419,1.419,0,0,0,.744-1.54,1.389,1.389,0,0,0-1.536-.942h-1.469V3.725q0-11.209.009-22.419a.533.533,0,0,1,.148-.264c.975-.993,1.961-1.976,2.946-2.959l.56-.56.213.191-.029.03A3.122,3.122,0,0,0-203.976-17.524Zm8.507-15.352q.007,3.995,0,7.99a.955.955,0,0,1-.017.152c-.3.318-.6.629-.915.945-.127-2.051-.189-8.03-.107-10.3.362.365.711.718,1.028,1.043A.674.674,0,0,1-195.469-32.876Zm17.942.61v6.755H-192.9v-6.755Zm-16.146,9.339a.831.831,0,0,1,.18-.009q8.283,0,16.57.007a.514.514,0,0,1,.287.123c.317.289.622.589.949.915l-12.773,0c-.951,0-1.9,0-2.851-.006-.445,0-.89,0-1.334.006-.67.009-1.358.016-2.038-.012Zm16.934-11.921a.5.5,0,0,1-.16.014q-8.307.008-16.613,0c-.1,0-.136-.007-.13.006-.348-.331-.69-.67-1.046-1.026h18.965C-176.083-35.495-176.423-35.156-176.739-34.848Zm1.789,1.841h0c.331-.348.67-.689,1.025-1.045V-23.7c-.36-.363-.7-.7-1.006-1.022a.513.513,0,0,1-.014-.161q-.007-3.995,0-7.989C-174.947-32.965-174.941-33.007-174.95-33.007Zm-27.378,12.713q1.088-1.123,2.212-2.21a.626.626,0,0,1,.413-.195.515.515,0,0,1,.361.164c.525.5,1.031,1.024,1.529,1.536l.35.358-2.973,2.971-.371-.356c-.533-.508-1.076-1.025-1.6-1.566A.5.5,0,0,1-202.328-20.294Z" fill="#0e72ba"/>
      <path id="Path_21809" data-name="Path 21809" d="M-166.7-2.217a3.73,3.73,0,0,0-2.125-2.542.547.547,0,0,1-.009-.078c-.007-.522-.006-1.044-.006-1.567v-.945a6.158,6.158,0,0,0-6.258-6.275q-1.584,0-3.169,0h-1.689c-.422,0-.843-.006-1.266.011a1.247,1.247,0,0,0-1.209,1.179,1.271,1.271,0,0,0,.982,1.319,2.526,2.526,0,0,0,.573.038l1.945,0c1.328,0,2.653,0,3.979.011a3.517,3.517,0,0,1,3.475,2.986,17.984,17.984,0,0,1,.084,2.536c0,.259-.007.519-.008.778a.436.436,0,0,1-.083.057,3.4,3.4,0,0,0-2.057,3.171c0,.166-.005.332,0,.5a5.292,5.292,0,0,0-2.729-.725h-4.783q-6.546,0-13.1.015a6.541,6.541,0,0,0-1.862.322,4.372,4.372,0,0,0-.852.387c0-.158,0-.313,0-.469a3.338,3.338,0,0,0-2.086-3.2l-.154.341h0l.08-.458c.01-.55.009-1.1.007-1.651v-.736a3.656,3.656,0,0,1,3.846-3.863l5.748,0a1.3,1.3,0,0,0,1.452-1.252,1.194,1.194,0,0,0-.336-.88,1.543,1.543,0,0,0-1.131-.413H-190.7c-1.562,0-3.123-.005-4.682,0a6.176,6.176,0,0,0-6.195,6.2V-6.5c0,.558,0,1.114-.01,1.666,0,.024-.057.08-.007.072a3.488,3.488,0,0,0-2.142,3.408c.009,2.694.014,5.388-.007,8.081a1.6,1.6,0,0,0,.835,1.555l36.219.045V-2.107Zm-34.481,6.633c0-1.964-.005-3.929,0-5.893a.99.99,0,0,1,.406-.836.815.815,0,0,1,.78-.074.773.773,0,0,1,.564.743c.011,1.967.007,3.934,0,5.9l0,1.517h-1.75Zm4.278,1.349c.007-.237.01-.473.013-.709a15.811,15.811,0,0,1,.153-2.375,2.469,2.469,0,0,1,2.5-1.893c1.658-.01,3.314-.008,4.973-.006l12.81,0a2.66,2.66,0,0,1,2.915,2.926V5.765ZM-171,3.673q0-2.57,0-5.137a1,1,0,0,1,.4-.847.826.826,0,0,1,.776-.079.761.761,0,0,1,.564.691c.017,1.928.014,3.858.012,5.8v1.66H-171Z" fill="#0e72ba"/>
    </g>
    <g id="Group_1192" data-name="Group 1192">
      <path id="Path_21810" data-name="Path 21810" d="M-188.964-7.512c0-.153,0-.3,0-.449a1.282,1.282,0,0,0-1.259-1.348,1.269,1.269,0,0,0-1.285,1.328c0,.152,0,.3,0,.465-.165,0-.324,0-.481,0a1.285,1.285,0,0,0-1.311,1.241,1.273,1.273,0,0,0,1.314,1.3c.159,0,.316,0,.478,0,0,.166,0,.318,0,.469a1.279,1.279,0,0,0,1.269,1.323h.021a1.281,1.281,0,0,0,1.253-1.3c.005-.165.005-.331,0-.5,1.068-.1,1.794-.315,1.792-1.273a1.569,1.569,0,0,0-.033-.321C-187.355-7.24-188.008-7.413-188.964-7.512Z" fill="#2ca7df"/>
      <path id="Path_21811" data-name="Path 21811" d="M-185.226-13.622a1.279,1.279,0,0,0-1.252,1.257,1.28,1.28,0,0,0,.377.911,1.274,1.274,0,0,0,.893.373h.018a1.279,1.279,0,0,0,1.252-1.256,1.277,1.277,0,0,0-.376-.911A1.262,1.262,0,0,0-185.226-13.622Z" fill="#2ca7df"/>
      <path id="Path_21812" data-name="Path 21812" d="M-178.379-7.51c-.172-.009-.344-.009-.523-.006,0-.164,0-.319,0-.475a1.284,1.284,0,0,0-1.3-1.318A1.284,1.284,0,0,0-181.448-8c-.005.164-.005.328,0,.49-1.067.093-1.835.31-1.78,1.3,0,.029.044.729.474.911a7.874,7.874,0,0,0,1.112.346l.194.051c0,.136,0,.288,0,.44a1.275,1.275,0,0,0,1.262,1.293h.009a1.284,1.284,0,0,0,1.269-1.282c.007-.168.007-.335.005-.51.188,0,.363,0,.537-.006a1.269,1.269,0,0,0,1.255-1.247A1.274,1.274,0,0,0-178.379-7.51Z" fill="#2ca7df"/>
    </g>
    <path id="Path_21813" data-name="Path 21813" d="M-184.314-13.248a1.308,1.308,0,0,0-.912-.374,1.279,1.279,0,0,0-1.252,1.257,1.28,1.28,0,0,0,.377.911,1.274,1.274,0,0,0,.893.373h.018a1.279,1.279,0,0,0,1.252-1.256A1.277,1.277,0,0,0-184.314-13.248Z" fill="#2ca7df"/>
  </g>
</svg>
