<svg xmlns="http://www.w3.org/2000/svg" width="46" height="46.045" viewBox="0 0 46 46.045">
  <g id="Group_1197" data-name="Group 1197" transform="translate(362.807 46.811)">
    <path id="Path_21832" data-name="Path 21832" d="M-362.807-2.115V-25.587a.547.547,0,0,0,.037-.082,1.416,1.416,0,0,1,1.665-1.216h25.879v-5.673c-1.376-.233-1.857-.58-1.846-1.359a1.757,1.757,0,0,1,.277-.873,1.525,1.525,0,0,1,1.5-.53c0-.419,0-.776,0-1.134a4.031,4.031,0,0,1,4.265-4.248h2.005c.18-1.266.536-1.773,1.305-1.779a1.747,1.747,0,0,1,.879.253,1.5,1.5,0,0,1,.557,1.526h2.042a4.045,4.045,0,0,1,4.295,4.271c0,.355,0,.71,0,1.054,1.327.239,1.791.582,1.77,1.366a1.75,1.75,0,0,1-.294.869c-.331.5-.9.518-1.548.547v5.71h1.471c1.283,0,1.738.452,1.738,1.726V-2.5c0,1.27-.463,1.732-1.731,1.732h-42.4C-362.168-.766-362.429-.955-362.807-2.115ZM-335.724-3.5h16.184V-18.783h-16.184Zm-24.314-15.3v15.3h9.409v-15.3Zm12.157,15.3h9.41v-15.28h-9.41Zm28.359-20.654h-40.526v2.616h40.526ZM-332.6-32.607c0,1.431,0,2.82,0,4.209a1.353,1.353,0,0,0,1.492,1.51q3.48.01,6.96,0a1.366,1.366,0,0,0,1.509-1.5c.009-1.287,0-2.574,0-3.861a3.4,3.4,0,0,0-.037-.355Zm9.982-2.733a15.221,15.221,0,0,0-.09-1.664,1.221,1.221,0,0,0-1.224-1q-3.686-.017-7.372,0a1.209,1.209,0,0,0-1.233.984,11.441,11.441,0,0,0-.017,1.678Z" fill="#0e72ba"/>
    <path id="Path_21833" data-name="Path 21833" d="M-336.727-46.811c.059.039.115.083.177.116a1.348,1.348,0,0,1,.768,1.517,1.348,1.348,0,0,1-1.378,1.06c-1.664.007-3.327,0-4.991,0h-.367v1.637c0,.72.021,1.44-.009,2.158a.649.649,0,0,0,.442.7,3.964,3.964,0,0,1,2.224,4.017,4.035,4.035,0,0,1-2.816,3.447,4.047,4.047,0,0,1-4.939-2.368,4.009,4.009,0,0,1,2.011-5.12.583.583,0,0,0,.406-.632c-.023-1.256-.009-2.514-.009-3.807h-8.078v.453c0,1.109.014,2.218-.009,3.327a.614.614,0,0,0,.413.672,3.989,3.989,0,0,1,2.274,3.865,4.064,4.064,0,0,1-2.853,3.614,4.049,4.049,0,0,1-4.933-2.383,4.013,4.013,0,0,1,2.028-5.115.576.576,0,0,0,.395-.633c-.023-1.256-.009-2.513-.009-3.837h-5.088c-.933,0-1.475-.332-1.645-1.008-.179-.709.141-1.257.985-1.687Zm-16.563,10.8a1.378,1.378,0,0,0-1.354-1.343,1.354,1.354,0,0,0-1.334,1.354,1.34,1.34,0,0,0,1.344,1.336A1.367,1.367,0,0,0-353.29-36.016Zm8.086-.019a1.338,1.338,0,0,0,1.311,1.367,1.355,1.355,0,0,0,1.368-1.318,1.366,1.366,0,0,0-1.319-1.373A1.348,1.348,0,0,0-345.2-36.035Z" fill="#2ca7df"/>
    <path id="Path_21834" data-name="Path 21834" d="M-355.98-11.159c0-.285-.006-.569,0-.853a1.329,1.329,0,0,1,1.276-1.354,1.314,1.314,0,0,1,1.4,1.228,14.6,14.6,0,0,1,0,2.017,1.334,1.334,0,0,1-1.4,1.232,1.355,1.355,0,0,1-1.268-1.373C-355.985-10.561-355.98-10.86-355.98-11.159Z" fill="#0e72ba"/>
  </g>
</svg>
