<svg width="1040" height="198" viewBox="0 0 1040 198" fill="none" xmlns="http://www.w3.org/2000/svg">
<mask id="mask0_757_3" style="mask-type:alpha" maskUnits="userSpaceOnUse" x="0" y="0" width="1040" height="198">
<rect width="1040" height="198" fill="#C4C4C4"/>
</mask>
<g mask="url(#mask0_757_3)">
<path d="M520.5 196.507C497.046 196.507 473.311 195.431 449.954 193.307C426.549 191.178 402.96 187.948 379.844 183.704L50.7303 123.287C22.2043 118.05 1.5 93.1988 1.5 64.196V1C1.5 -4.23827 5.76173 -8.5 11 -8.5H1030C1035.24 -8.5 1039.5 -4.23827 1039.5 1V64.196C1039.5 93.1988 1018.8 118.05 990.27 123.287L661.156 183.704C638.04 187.948 614.451 191.178 591.046 193.307C567.689 195.431 543.954 196.507 520.5 196.507Z" fill="#2CA7DF"/>
<path d="M520.5 195.007C567.489 195.007 614.478 190.748 660.885 182.229L989.999 121.812C1017.81 116.707 1038 92.4689 1038 64.196V1C1038 -3.418 1034.42 -7 1030 -7H11C6.582 -7 3 -3.418 3 1V64.196C3 92.4689 23.194 116.707 51.0011 121.812L380.115 182.229C426.522 190.748 473.511 195.007 520.5 195.007ZM520.5 198.007C497.001 198.007 473.22 196.929 449.818 194.801C426.368 192.668 402.734 189.431 379.573 185.18L50.4593 124.763C21.2212 119.395 0 93.9229 0 64.196V1C0 -1.93813 1.14427 -4.70039 3.22187 -6.77814C5.2996 -8.85573 8.06187 -10 11 -10H1030C1032.94 -10 1035.7 -8.85573 1037.78 -6.77814C1039.86 -4.70039 1041 -1.93813 1041 1V64.196C1041 93.9229 1019.78 119.395 990.541 124.763L661.427 185.18C638.266 189.431 614.632 192.668 591.182 194.801C567.78 196.929 543.999 198.007 520.5 198.007Z" fill="white"/>
</g>
</svg>
