<?xml version="1.0" encoding="iso-8859-1"?>
<!-- Generator: Adobe Illustrator 19.0.0, SVG Export Plug-In . SVG Version: 6.00 Build 0)  -->
<svg version="1.1" id="Capa_1" xmlns="http://www.w3.org/2000/svg" xmlns:xlink="http://www.w3.org/1999/xlink" x="0px" y="0px"
	 viewBox="0 0 512 512" style="enable-background:new 0 0 512 512;" xml:space="preserve">
<g>
	<g>
		<polygon points="271,108.384 271,88.668 357.63,88.668 357.63,5.334 241,5.334 241,108.368 32.208,235.668 479.445,235.668 		"/>
	</g>
</g>
<g>
	<g>
		<path d="M30.428,265.668c3.039,21.997,21.952,38.994,44.77,38.994s41.731-16.997,44.771-38.994H30.428z"/>
	</g>
</g>
<g>
	<g>
		<path d="M391.678,265.668c3.039,21.997,21.952,38.994,44.771,38.994c22.819,0,41.732-16.997,44.771-38.994H391.678z"/>
	</g>
</g>
<g>
	<g>
		<path d="M271.261,265.668c3.039,21.997,21.952,38.994,44.771,38.994c22.819,0,41.732-16.997,44.771-38.994H271.261z"/>
	</g>
</g>
<g>
	<g>
		<path d="M150.844,265.668c3.039,21.997,21.952,38.994,44.771,38.994c22.819,0,41.732-16.997,44.771-38.994H150.844z"/>
	</g>
</g>
<g>
	<g>
		<path d="M484.511,476.668V317.249c-13.043,10.864-29.801,17.412-48.063,17.412c-24.6,0-46.478-11.871-60.208-30.186
			c-13.73,18.315-35.608,30.186-60.208,30.186c-16.578,0-31.915-5.396-44.36-14.518c2.141,24.79,9.487,49.014,21.601,70.82
			c14.571,26.231,35.738,48.477,61.213,64.333l34.336,21.371h-56.488c-26.982-18.196-49.464-42.651-65.286-71.136
			c-4.171-7.508-7.853-15.265-11.047-23.208c-3.193,7.943-6.876,15.699-11.046,23.207c-15.822,28.485-38.304,52.94-65.286,71.136
			H123.18l34.337-21.371c25.475-15.855,46.642-38.101,61.212-64.333c12.158-21.887,19.513-46.208,21.622-71.094
			c-12.511,9.288-27.991,14.792-44.734,14.792c-24.601,0-46.479-11.871-60.209-30.186C121.679,322.79,99.8,334.66,75.2,334.66
			c-18.096,0-34.717-6.427-47.708-17.114v159.12H0v30h512v-29.999H484.511z"/>
	</g>
</g>
<g>
</g>
<g>
</g>
<g>
</g>
<g>
</g>
<g>
</g>
<g>
</g>
<g>
</g>
<g>
</g>
<g>
</g>
<g>
</g>
<g>
</g>
<g>
</g>
<g>
</g>
<g>
</g>
<g>
</g>
</svg>
