<?xml version="1.0" encoding="iso-8859-1"?>
<!-- Generator: Adobe Illustrator 17.1.0, SVG Export Plug-In . SVG Version: 6.00 Build 0)  -->
<!DOCTYPE svg PUBLIC "-//W3C//DTD SVG 1.1//EN" "http://www.w3.org/Graphics/SVG/1.1/DTD/svg11.dtd">
<svg version="1.1" id="Capa_1" xmlns="http://www.w3.org/2000/svg" xmlns:xlink="http://www.w3.org/1999/xlink" x="0px" y="0px"
	 viewBox="0 0 188.737 188.737" style="enable-background:new 0 0 188.737 188.737;" xml:space="preserve">
<path d="M29.54,188.737c-7.471,0-14.941-2.844-20.628-8.531l-0.381-0.381c-11.374-11.375-11.374-29.883,0-41.257L138.568,8.531
	c11.373-11.375,29.883-11.375,41.256,0l0.383,0.384c11.373,11.372,11.373,29.88-0.002,41.254L50.168,180.206
	C44.481,185.894,37.011,188.737,29.54,188.737z M159.196,4.987c-6.457,0-12.527,2.514-17.093,7.079L12.066,142.104
	c-9.425,9.425-9.425,24.761,0,34.187l0.381,0.381c4.565,4.565,10.636,7.08,17.093,7.08s12.527-2.515,17.093-7.08L176.67,46.634
	c4.565-4.565,7.08-10.636,7.08-17.093s-2.515-12.527-7.08-17.093l-0.384-0.384C171.724,7.501,165.653,4.987,159.196,4.987z
	 M181.883,178.114h-69.18c-1.321,0-2.415-1.028-2.495-2.348c-0.031-0.508-0.674-12.511,6.985-18.259
	c3.478-2.608,8.025-3.354,12.423-4.075c4.408-0.723,8.947-1.467,12.455-4.055c0.021-0.016,0.042-0.031,0.063-0.047
	c0.461-0.345,0.904-0.722,1.327-1.135c1.31-1.281,2.574-3.373,3.739-5.832c0.005-0.011,0.01-0.021,0.015-0.031
	c0.015-0.034,0.031-0.068,0.048-0.102c1.346-2.861,2.558-6.205,3.556-9.344c0.015-0.057,0.032-0.112,0.052-0.169
	c0.004-0.011,0.008-0.021,0.012-0.033c1.135-3.595,1.985-6.899,2.426-8.877c0.153-0.686,0.588-1.276,1.197-1.625
	c0.611-0.349,1.339-0.425,2.008-0.211l26.134,8.396c1.034,0.332,1.735,1.294,1.735,2.38v42.865
	C184.383,176.995,183.264,178.114,181.883,178.114z M115.241,173.114h64.142v-2.112h-63.918
	C115.352,171.773,115.283,172.49,115.241,173.114z M116.826,166.002h62.557v-31.431l-21.832-7.014
	c-0.306,1.204-0.71,2.722-1.206,4.418l4.827,1.678c1.304,0.453,1.993,1.878,1.54,3.183c-0.453,1.304-1.875,1.994-3.183,1.54
	l-4.693-1.632c-0.607,1.775-1.289,3.604-2.039,5.375l4.43,2.01c1.258,0.57,1.814,2.052,1.244,3.31
	c-0.569,1.256-2.049,1.815-3.309,1.243l-4.524-2.052c-1.08,1.972-2.259,3.704-3.524,4.986l2.809,3.248
	c0.902,1.044,0.788,2.623-0.257,3.526c-1.045,0.902-2.622,0.788-3.526-0.257l-3.012-3.484c-1.859,1.06-3.829,1.789-5.817,2.334
	l0.795,2.657c0.396,1.322-0.354,2.716-1.678,3.111c-1.326,0.398-2.716-0.355-3.111-1.678l-0.91-3.038
	c-0.668,0.115-1.329,0.224-1.979,0.331c-3.979,0.651-7.735,1.268-10.231,3.141C118.643,162.672,117.568,164.285,116.826,166.002z
	 M81.024,131.191c-2.788,0-5.409-1.086-7.381-3.058l-13.04-13.041c-1.972-1.971-3.058-4.592-3.058-7.381
	c0-2.788,1.086-5.409,3.058-7.381l0.113-0.113c4.067-4.069,10.69-4.07,14.762,0l13.041,13.041c4.069,4.069,4.069,10.691,0,14.762
	l-0.119,0.118C86.43,130.107,83.811,131.191,81.024,131.191z M68.098,102.163c-1.393,0-2.785,0.53-3.846,1.59l-0.113,0.113
	c-1.027,1.027-1.593,2.394-1.593,3.846c0,1.453,0.565,2.818,1.593,3.846l13.04,13.041c1.027,1.027,2.394,1.593,3.846,1.593
	c1.453,0,2.818-0.565,3.846-1.593c0.002-0.003,0.005-0.005,0.008-0.008l0.114-0.113c2.112-2.113,2.112-5.563-0.008-7.684
	l-13.041-13.041C70.883,102.693,69.49,102.163,68.098,102.163z M120.639,91.577c-2.788,0-5.409-1.086-7.381-3.058l-13.041-13.041
	c-4.069-4.069-4.069-10.691,0-14.762l0.122-0.121c4.06-4.062,10.683-4.063,14.754,0.008l13.04,13.041
	c4.07,4.069,4.07,10.692,0,14.762l-0.113,0.113C126.049,90.491,123.427,91.577,120.639,91.577z M107.712,62.549
	c-1.393,0-2.785,0.53-3.846,1.59l-0.122,0.121c-2.112,2.113-2.112,5.563,0.008,7.684l13.041,13.041
	c1.027,1.027,2.394,1.593,3.846,1.593c1.453,0,2.818-0.565,3.846-1.593l0,0l0.113-0.113c2.12-2.12,2.12-5.571,0-7.691l-13.04-13.041
	C110.497,63.079,109.104,62.549,107.712,62.549z"/>
<g>
</g>
<g>
</g>
<g>
</g>
<g>
</g>
<g>
</g>
<g>
</g>
<g>
</g>
<g>
</g>
<g>
</g>
<g>
</g>
<g>
</g>
<g>
</g>
<g>
</g>
<g>
</g>
<g>
</g>
</svg>
