<?xml version="1.0" encoding="UTF-8"?>
<svg width="60px" height="60px" viewBox="0 0 60 60" version="1.1" xmlns="http://www.w3.org/2000/svg" xmlns:xlink="http://www.w3.org/1999/xlink">
    <!-- Generator: Sketch 54.1 (76490) - https://sketchapp.com -->
    <title>pencil copy 2</title>
    <desc>Created with Sketch.</desc>
    <g id="Final" stroke="none" stroke-width="1" fill="none" fill-rule="evenodd">
        <g id="Landing-page_3" transform="translate(-1002.000000, -1511.000000)" fill="#1F206B" fill-rule="nonzero">
            <g id="pencil-copy-2" transform="translate(1002.000000, 1511.000000)">
                <path d="M29.999,0 C46.5668,0 59.9996,13.4314 59.9996,29.9994 C59.9996,46.5674 46.5668,60 29.999,60 C13.4312,60 6.67910172e-13,46.5666 6.67910172e-13,29.9994 C6.67910172e-13,13.4322 13.4312,0 29.999,0 Z M22.522663,18.8899944 C23.1940811,17.3287965 24.342176,16.0193803 25.7832624,15.1464363 C24.5884296,13.8093795 22.7156455,13.2000273 20.9255322,13.6432839 C18.6881418,14.1976059 17.1807176,16.2291985 17.1902663,18.4454814 C18.9595234,17.9479485 20.8483894,18.1019827 22.522663,18.8899944 Z M34.1523688,15.1464363 C35.5934552,16.0193803 36.7418014,17.3287965 37.4132195,18.8899944 C39.087493,18.1017314 40.9763591,17.9479485 42.7456162,18.4454814 C42.7549136,16.2291985 41.2474894,14.1976059 39.010099,13.6432839 C37.220237,13.199776 35.3474528,13.8093795 34.1523688,15.1464363 Z M34.9378677,34.142393 L30.9327279,40.8701434 L30.9327279,32.7080911 C30.6131007,32.7699058 30.291212,32.801567 29.9678156,32.801567 C29.6446705,32.801567 29.3225305,32.7699058 29.0031546,32.7080911 L29.0031546,40.8701434 L24.9977635,34.142393 C24.7168333,34.3904056 24.4125342,34.6039929 24.0856199,34.7806422 C23.8431354,34.9115587 23.5900972,35.0208652 23.3277617,35.1090642 L29.0031546,44.6420961 L29.0031546,46.4301991 L30.9327279,46.4301991 L30.9327279,44.6420961 L36.6078695,35.1090642 C36.345534,35.0208652 36.0924958,34.9115587 35.8500113,34.7806422 C35.523097,34.6039929 35.2187979,34.3904056 34.9378677,34.142393 Z M43.4142703,20.7848912 C41.6950178,19.8559118 39.6581482,19.8634502 37.9620134,20.7728298 C38.0313664,21.1982455 38.0680532,21.6347175 38.0680532,22.0797331 C38.0680532,24.2364628 37.2056628,26.8764025 35.817345,28.9693072 C35.5127946,29.4283944 35.1929161,29.8492872 34.8604737,30.2302265 C35.3069969,31.9643045 36.1296851,32.7384958 36.7674318,33.0829997 C37.9469365,33.7204952 39.6928248,33.5159538 41.5580705,32.5221444 C43.3378814,31.5735654 44.9405403,30.0646335 45.7406134,28.5843475 C46.4715848,27.2319626 46.6321523,25.6757903 46.1926648,24.2027914 C45.7534287,22.7297925 44.7666552,21.5158625 43.4142703,20.7848912 Z M23.1681994,33.083251 C23.8059461,32.7384958 24.6288856,31.9643045 25.0751575,30.2302265 C24.7427151,29.8492872 24.4230879,29.4286458 24.1182862,28.9693072 C22.7302196,26.8764025 21.8678293,24.2364628 21.8678293,22.0797331 C21.8678293,21.6347175 21.9042648,21.1982455 21.9736178,20.7728298 C20.277483,19.8634502 18.2408648,19.8559118 16.5213609,20.7848912 C15.1692273,21.5158625 14.1822025,22.7297925 13.7427151,24.2027914 C13.3034789,25.6760416 13.4640464,27.2319626 14.1947664,28.5843475 C14.9948395,30.0648847 16.5977498,31.5735654 18.3775607,32.5221444 C20.2428064,33.5159538 21.9889459,33.7204952 23.1681994,33.083251 Z M29.9678156,30.8719937 C31.4116661,30.8719937 32.9577873,29.789734 34.2094092,27.9026269 C35.3992164,26.1087444 36.1384799,23.8776361 36.1384799,22.0797331 C36.1384799,18.6771609 33.3703878,15.9090688 29.9678156,15.9090688 C26.5652434,15.9090688 23.7974026,18.6771609 23.7974026,22.0797331 C23.7974026,23.8776361 24.5364148,26.1087444 25.7264733,27.9026269 C26.9780952,29.789734 28.5239651,30.8719937 29.9678156,30.8719937 Z" id="Combined-Shape"></path>
            </g>
        </g>
    </g>
</svg>