<?xml version="1.0" encoding="UTF-8"?>
<svg width="60px" height="60px" viewBox="0 0 60 60" version="1.1" xmlns="http://www.w3.org/2000/svg" xmlns:xlink="http://www.w3.org/1999/xlink">
    <!-- Generator: Sketch 54.1 (76490) - https://sketchapp.com -->
    <title>pencil copy</title>
    <desc>Created with Sketch.</desc>
    <g id="Final" stroke="none" stroke-width="1" fill="none" fill-rule="evenodd">
        <g id="Landing-page_3" transform="translate(-692.000000, -1511.000000)" fill="#1F206B" fill-rule="nonzero">
            <g id="pencil-copy" transform="translate(692.000000, 1511.000000)">
                <path d="M29.999,0 C46.5668,0 59.9996,13.4314 59.9996,29.9994 C59.9996,46.5674 46.5668,60 29.999,60 C13.4312,60 0,46.5666 0,29.9994 C0,13.4322 13.4312,0 29.999,0 Z M16.25,30.9615005 L16.25,42.9615005 C16.25,44.0655005 17.148,44.9615005 18.25,44.9615005 L28.25,44.9615005 L28.25,30.9615005 L16.25,30.9615005 Z M44.25,22.9615005 L37.922,22.9615005 C38.376,22.6515005 38.766,22.3435005 39.038,22.0675005 C40.652,20.4455005 40.652,17.8055005 39.038,16.1835005 C37.47,14.6035005 34.738,14.6075005 33.172,16.1835005 C32.304,17.0535005 30.004,20.5955005 30.322,22.9615005 L30.178,22.9615005 C30.494,20.5955005 28.194,17.0535005 27.328,16.1835005 C25.76,14.6075005 23.028,14.6075005 21.462,16.1835005 C19.85,17.8055005 19.85,20.4455005 21.46,22.0675005 C21.734,22.3435005 22.124,22.6515005 22.578,22.9615005 L16.25,22.9615005 C15.148,22.9615005 14.25,23.8595005 14.25,24.9615005 L14.25,27.9615005 C14.25,28.5135005 14.698,28.9615005 15.25,28.9615005 L28.25,28.9615005 L28.25,24.9615005 L32.25,24.9615005 L32.25,28.9615005 L45.25,28.9615005 C45.802,28.9615005 46.25,28.5135005 46.25,27.9615005 L46.25,24.9615005 C46.25,23.8595005 45.354,22.9615005 44.25,22.9615005 Z M28.132,22.8955005 C28.132,22.8955005 28.048,22.9615005 27.762,22.9615005 C26.38,22.9615005 23.742,21.5255005 22.88,20.6575005 C22.042,19.8135005 22.042,18.4375005 22.88,17.5935005 C23.286,17.1855005 23.824,16.9615005 24.396,16.9615005 C24.966,16.9615005 25.504,17.1855005 25.91,17.5935005 C27.258,18.9495005 28.598,22.4135005 28.132,22.8955005 Z M32.736,22.9615005 C32.452,22.9615005 32.368,22.8975005 32.368,22.8955005 C31.902,22.4135005 33.242,18.9495005 34.59,17.5935005 C35.396,16.7795005 36.806,16.7755005 37.62,17.5935005 C38.46,18.4375005 38.46,19.8135005 37.62,20.6575005 C36.758,21.5255005 34.12,22.9615005 32.736,22.9615005 Z M32.25,30.9615005 L32.25,44.9615005 L42.25,44.9615005 C43.354,44.9615005 44.25,44.0655005 44.25,42.9615005 L44.25,30.9615005 L32.25,30.9615005 Z" id="Shape"></path>
            </g>
        </g>
    </g>
</svg>