<svg xmlns="http://www.w3.org/2000/svg" width="13.192" height="13.152" viewBox="0 0 13.192 13.152">
  <path id="instagram-icon" d="M11.63,13.152H1.562A1.564,1.564,0,0,1,0,11.607V1.545A1.564,1.564,0,0,1,1.566,0H11.607a1.578,1.578,0,0,1,1.585,1.545V11.607a1.564,1.564,0,0,1-1.562,1.544ZM1.258,5.319V11.5a.4.4,0,0,0,.4.4h9.883a.4.4,0,0,0,.394-.4H12V5.319H10.351a2.021,2.021,0,0,1,.323,1.257,4.025,4.025,0,0,1-8.05,0,2.581,2.581,0,0,1,.287-1.257ZM6.531,4.061a2.516,2.516,0,0,0,0,5.031h.1a2.516,2.516,0,1,0,0-5.031h-.09ZM9.847,1.653a.4.4,0,0,0-.4.4V3.271a.4.4,0,0,0,.4.394h1.221a.4.4,0,0,0,.4-.394V2.048a.4.4,0,0,0-.4-.4Z" transform="translate(0 0)" fill="#666"/>
</svg>
