<?xml version="1.0" encoding="UTF-8"?>
<svg width="60px" height="60px" viewBox="0 0 60 60" version="1.1" xmlns="http://www.w3.org/2000/svg" xmlns:xlink="http://www.w3.org/1999/xlink">
    <!-- Generator: Sketch 54.1 (76490) - https://sketchapp.com -->
    <title>pencil</title>
    <desc>Created with Sketch.</desc>
    <g id="Final" stroke="none" stroke-width="1" fill="none" fill-rule="evenodd">
        <g id="Landing-page_3" transform="translate(-379.000000, -1511.000000)" fill="#1F206B" fill-rule="nonzero">
            <g id="pencil" transform="translate(379.000000, 1511.000000)">
                <path d="M29.9992,0 C13.4314,0 0.0002,13.4322 0.0002,29.9994 C0.0002,46.5666 13.4314,60 29.9992,60 C46.567,60 59.9998,46.5674 59.9998,29.9994 C59.9998,13.4314 46.567,0 29.9992,0 Z M44.2604,21.589 L41.411,24.4384 L35.6108,18.6386 L33.4104,20.839 L39.2106,26.6392 L24.9842,40.8644 L19.1844,35.0652 L16.984,37.2656 L22.7838,43.0654 L21.3662,44.483 L21.3392,44.456 C21.182,44.7148 20.9264,44.9036 20.6228,44.971 L15.2142,46.177 C15.1332,46.1952 15.0508,46.204 14.9694,46.204 C14.6742,46.204 14.3874,46.0878 14.1748,45.8746 C13.902,45.6028 13.7884,45.2102 13.8724,44.834 L15.0778,39.427 C15.1458,39.1236 15.335,38.8674 15.5934,38.7106 L15.566,38.6832 L38.46,15.7882 C38.7956,15.4532 39.3408,15.4532 39.6764,15.7892 L44.2608,20.3726 C44.5964,20.7082 44.5964,21.2534 44.2604,21.589 Z" id="Shape"></path>
            </g>
        </g>
    </g>
</svg>