<svg xmlns="http://www.w3.org/2000/svg" width="16.641" height="32" viewBox="0 0 16.641 32">
  <g id="facebook-icon" transform="translate(-123 511.522)">
    <path id="Path_3239" data-name="Path 3239" d="M133.948-511.464a6.693,6.693,0,0,0-4.1,1.989,6.849,6.849,0,0,0-1.727,3.428,16.787,16.787,0,0,0-.156,3.391l-.025,2.8H123v5.693l2.459.013,2.452.019.019,7.3.013,7.307h5.88V-494.16h2.44c1.345,0,2.44-.006,2.44-.019.169-1.139.726-5.593.707-5.63s-1.276-.044-2.809-.044h-2.784l.019-2.333c.019-2.277.025-2.333.169-2.7a2.092,2.092,0,0,1,1.833-1.289c.25-.031,1.207-.063,2.133-.063h1.67l-.013-2.552-.019-2.546-.813-.075A36.778,36.778,0,0,0,133.948-511.464Z" fill="#3b5999"/>
  </g>
</svg>
