<svg xmlns="http://www.w3.org/2000/svg" xmlns:xlink="http://www.w3.org/1999/xlink" width="21" height="21" viewBox="0 0 21 21">
  <defs>
    <radialGradient id="radial-gradient" cx="0.5" cy="0.5" fx="0.28430044651031494" fy="0.9330993294715881" r="0.909" gradientUnits="objectBoundingBox">
      <stop offset="0" stop-color="#fd5"/>
      <stop offset="0.1" stop-color="#fd5"/>
      <stop offset="0.366" stop-color="#ff543e"/>
      <stop offset="0.425" stop-color="#fc5242"/>
      <stop offset="0.489" stop-color="#f64f4f"/>
      <stop offset="0.554" stop-color="#eb4964"/>
      <stop offset="0.621" stop-color="#dc4182"/>
      <stop offset="0.689" stop-color="#c937a8"/>
      <stop offset="0.692" stop-color="#c837ab"/>
    </radialGradient>
    <linearGradient id="linear-gradient" x1="0.237" y1="-0.069" x2="0.624" y2="0.768" gradientUnits="objectBoundingBox">
      <stop offset="0" stop-color="#3771c8"/>
      <stop offset="0.142" stop-color="#3771c8"/>
      <stop offset="1" stop-color="#60f" stop-opacity="0"/>
    </linearGradient>
  </defs>
  <g id="instagram-icon" transform="translate(205.188 59.176)">
    <circle id="Ellipse_19" data-name="Ellipse 19" cx="10.5" cy="10.5" r="10.5" transform="translate(-205.188 -59.176)" fill="url(#radial-gradient)"/>
    <circle id="Ellipse_20" data-name="Ellipse 20" cx="10.5" cy="10.5" r="10.5" transform="translate(-205.188 -59.176)" fill="url(#linear-gradient)"/>
    <path id="Path_110" data-name="Path 110" d="M-164.653-24.953c-1.714,0-1.929.007-2.6.038a4.636,4.636,0,0,0-1.532.293,3.09,3.09,0,0,0-1.118.728,3.1,3.1,0,0,0-.728,1.118,4.612,4.612,0,0,0-.293,1.532c-.03.673-.038.888-.038,2.6s.008,1.929.038,2.6a4.637,4.637,0,0,0,.293,1.532,3.091,3.091,0,0,0,.728,1.118,3.09,3.09,0,0,0,1.117.729,4.635,4.635,0,0,0,1.532.293c.673.031.888.038,2.6.038s1.928-.007,2.6-.038a4.638,4.638,0,0,0,1.533-.293,3.087,3.087,0,0,0,1.117-.729,3.1,3.1,0,0,0,.729-1.118,4.679,4.679,0,0,0,.293-1.532c.03-.673.038-.888.038-2.6s-.008-1.929-.038-2.6a4.677,4.677,0,0,0-.293-1.532,3.1,3.1,0,0,0-.729-1.118,3.082,3.082,0,0,0-1.118-.728,4.65,4.65,0,0,0-1.533-.293c-.673-.031-.888-.038-2.6-.038Zm-.566,1.137h.566c1.685,0,1.885.006,2.55.036a3.5,3.5,0,0,1,1.172.217,1.953,1.953,0,0,1,.725.472,1.961,1.961,0,0,1,.472.726,3.486,3.486,0,0,1,.217,1.171c.03.665.037.865.037,2.549s-.006,1.884-.037,2.549a3.491,3.491,0,0,1-.217,1.172,1.952,1.952,0,0,1-.472.725,1.951,1.951,0,0,1-.725.472,3.481,3.481,0,0,1-1.172.217c-.665.03-.865.037-2.55.037s-1.885-.007-2.55-.037a3.5,3.5,0,0,1-1.172-.218,1.952,1.952,0,0,1-.726-.472,1.956,1.956,0,0,1-.472-.725,3.487,3.487,0,0,1-.217-1.172c-.03-.665-.036-.865-.036-2.551s.006-1.884.036-2.549a3.492,3.492,0,0,1,.217-1.172,1.954,1.954,0,0,1,.472-.726,1.957,1.957,0,0,1,.726-.472,3.482,3.482,0,0,1,1.172-.217c.582-.026.808-.034,1.984-.036Zm3.935,1.048a.757.757,0,0,0-.757.757.758.758,0,0,0,.757.757.758.758,0,0,0,.757-.757.757.757,0,0,0-.757-.757Zm-3.369.885a3.241,3.241,0,0,0-3.241,3.241,3.241,3.241,0,0,0,3.241,3.24,3.24,3.24,0,0,0,3.24-3.24,3.241,3.241,0,0,0-3.241-3.241Zm0,1.137a2.1,2.1,0,0,1,2.1,2.1,2.1,2.1,0,0,1-2.1,2.1,2.1,2.1,0,0,1-2.1-2.1A2.1,2.1,0,0,1-164.653-20.746Z" transform="translate(-30.035 -30.035)" fill="#fff" stroke="#fff" stroke-width="0.2"/>
  </g>
</svg>
