<svg width="128" height="128" viewBox="0 0 128 128" fill="none" xmlns="http://www.w3.org/2000/svg">
<path d="M52.3851 93.0278C53.924 93.0255 55.3993 92.4131 56.4874 91.3249C57.5756 90.2367 58.188 88.7615 58.1904 87.2225V9.80526C58.188 8.26633 57.5756 6.79109 56.4874 5.7029C55.3993 4.61471 53.924 4.00234 52.3851 4L9.80527 4C8.26633 4.00234 6.7911 4.61471 5.7029 5.7029C4.61471 6.79109 4.00234 8.26633 4 9.80526L4 87.2284C4.00234 88.7673 4.61471 90.2426 5.7029 91.3308C6.7911 92.419 8.26633 93.0313 9.80527 93.0337H52.3851V93.0278ZM54.3192 73.6749H7.87116V19.4846H54.3221L54.3192 73.6749ZM9.80527 7.87116H52.3851C52.8986 7.87194 53.3908 8.07627 53.7539 8.43937C54.117 8.80247 54.3214 9.29471 54.3221 9.80821V15.6135H7.87116V9.80526C7.87271 9.29278 8.07698 8.80174 8.43936 8.43936C8.80174 8.07698 9.29279 7.87271 9.80527 7.87116V7.87116ZM7.87116 87.2225V77.5461H54.3221V87.2225C54.3221 87.4769 54.272 87.7288 54.1747 87.9638C54.0773 88.1988 53.9347 88.4124 53.7548 88.5922C53.5749 88.7721 53.3614 88.9148 53.1264 89.0121C52.8913 89.1095 52.6395 89.1596 52.3851 89.1596H9.80527C9.29204 89.1588 8.8001 88.9544 8.43747 88.5912C8.07484 88.228 7.87116 87.7358 7.87116 87.2225Z" fill="#662D91"/>
<path d="M25.2891 83.3592C25.2891 84.5074 25.6295 85.6298 26.2674 86.5844C26.9053 87.5391 27.812 88.2832 28.8728 88.7226C29.9335 89.162 31.1008 89.2769 32.2269 89.0529C33.353 88.8289 34.3874 88.276 35.1993 87.4642C36.0111 86.6523 36.5641 85.6178 36.788 84.4917C37.012 83.3656 36.8971 82.1984 36.4577 81.1376C36.0183 80.0769 35.2742 79.1702 34.3196 78.5323C33.3649 77.8944 32.2425 77.554 31.0943 77.554C29.5554 77.5563 28.0802 78.1687 26.992 79.2569C25.9038 80.345 25.2914 81.8203 25.2891 83.3592ZM31.0943 81.4222C31.4774 81.4222 31.852 81.5357 32.1705 81.7486C32.489 81.9614 32.7373 82.264 32.8839 82.6179C33.0305 82.9719 33.0689 83.3613 32.9942 83.7371C32.9194 84.1128 32.7349 84.458 32.464 84.7289C32.1931 84.9998 31.848 85.1843 31.4722 85.2591C31.0965 85.3338 30.707 85.2954 30.3531 85.1488C29.9991 85.0022 29.6966 84.7539 29.4837 84.4354C29.2709 84.1168 29.1573 83.7423 29.1573 83.3592C29.1565 83.1044 29.206 82.8518 29.303 82.6161C29.4 82.3804 29.5426 82.1662 29.7225 81.9857C29.9025 81.8052 30.1163 81.662 30.3517 81.5643C30.5871 81.4666 30.8395 81.4163 31.0943 81.4163V81.4222Z" fill="#662D91"/>
<path d="M40.7755 9.80457H29.162V13.6757H40.7755V9.80457Z" fill="#662D91"/>
<path d="M25.2897 9.80457H21.4186V13.6757H25.2897V9.80457Z" fill="#662D91"/>
<path d="M118.189 34.9666H75.6087C74.0698 34.9689 72.5946 35.5813 71.5064 36.6695C70.4182 37.7576 69.8058 39.2329 69.8035 40.7718V118.195C69.8058 119.734 70.4182 121.209 71.5064 122.297C72.5946 123.386 74.0698 123.998 75.6087 124H118.189C119.727 123.998 121.203 123.386 122.291 122.297C123.379 121.209 123.991 119.734 123.994 118.195V40.7718C123.991 39.2329 123.379 37.7576 122.291 36.6695C121.203 35.5813 119.727 34.9689 118.189 34.9666V34.9666ZM75.6087 38.8377H118.189C118.702 38.8385 119.194 39.0428 119.557 39.4059C119.92 39.769 120.125 40.2613 120.126 40.7748V46.58H73.6746V40.7718C73.6754 40.2591 73.8794 39.7676 74.242 39.4051C74.6045 39.0425 75.096 38.8385 75.6087 38.8377V38.8377ZM120.123 50.4512V104.641H73.6746V50.4512H120.123ZM118.189 120.126H75.6087C75.095 120.126 74.6023 119.922 74.239 119.559C73.8758 119.196 73.6717 118.703 73.6717 118.189V108.513H120.123V118.189C120.123 118.702 119.919 119.195 119.556 119.558C119.194 119.921 118.702 120.125 118.189 120.126V120.126Z" fill="#662D91"/>
<path d="M102.708 114.326C102.708 113.178 102.367 112.055 101.729 111.101C101.092 110.146 100.185 109.402 99.1242 108.962C98.0634 108.523 96.8961 108.408 95.77 108.632C94.6439 108.856 93.6095 109.409 92.7976 110.221C91.9857 111.033 91.4328 112.067 91.2088 113.193C90.9848 114.319 91.0998 115.487 91.5392 116.547C91.9786 117.608 92.7227 118.515 93.6774 119.153C94.632 119.791 95.7544 120.131 96.9026 120.131C98.4415 120.129 99.9167 119.516 101.005 118.428C102.093 117.34 102.706 115.865 102.708 114.326V114.326ZM96.9026 116.26C96.5195 116.26 96.1449 116.146 95.8264 115.933C95.5078 115.721 95.2596 115.418 95.113 115.064C94.9664 114.71 94.928 114.321 95.0027 113.945C95.0775 113.569 95.2619 113.224 95.5328 112.953C95.8037 112.682 96.1489 112.498 96.5247 112.423C96.9004 112.348 97.2899 112.387 97.6438 112.533C97.9978 112.68 98.3003 112.928 98.5132 113.247C98.726 113.565 98.8396 113.94 98.8396 114.323C98.838 114.836 98.6329 115.328 98.2692 115.69C97.9054 116.052 97.4128 116.255 96.8996 116.254L96.9026 116.26Z" fill="#662D91"/>
<path d="M106.579 40.7733H94.9651V44.6445H106.579V40.7733Z" fill="#662D91"/>
<path d="M91.0928 40.7733H87.2217V44.6445H91.0928V40.7733Z" fill="#662D91"/>
<path d="M83.3512 91.0934V93.0305C83.3508 93.285 83.4007 93.537 83.4979 93.7722C83.5951 94.0074 83.7377 94.2211 83.9177 94.401C84.0976 94.581 84.3113 94.7236 84.5465 94.8208C84.7817 94.918 85.0337 94.9679 85.2882 94.9675H108.512C108.767 94.9679 109.019 94.918 109.254 94.8208C109.489 94.7236 109.703 94.581 109.883 94.401C110.063 94.2211 110.205 94.0074 110.303 93.7722C110.4 93.537 110.45 93.285 110.449 93.0305V91.0934C110.445 88.29 109.571 85.5569 107.949 83.2704C106.327 80.984 104.036 79.2566 101.391 78.3259C103.309 77.3221 104.834 75.7044 105.724 73.7314C106.614 71.7584 106.817 69.5441 106.3 67.4424C105.783 65.3406 104.576 63.4729 102.873 62.1376C101.169 60.8024 99.0676 60.0768 96.9032 60.0768C94.7388 60.0768 92.637 60.8024 90.9336 62.1376C89.2302 63.4729 88.0236 65.3406 87.5067 67.4424C86.9899 69.5441 87.1926 71.7584 88.0824 73.7314C88.9722 75.7044 90.4978 77.3221 92.4153 78.3259C89.7697 79.2556 87.4774 80.9826 85.8541 83.2691C84.2308 85.5557 83.3564 88.2892 83.3512 91.0934V91.0934ZM96.8929 64.01C98.041 64.01 99.1635 64.3505 100.118 64.9884C101.073 65.6263 101.817 66.5329 102.256 67.5937C102.696 68.6545 102.811 69.8217 102.587 70.9478C102.363 72.074 101.81 73.1083 100.998 73.9202C100.186 74.7321 99.1515 75.285 98.0254 75.509C96.8993 75.733 95.7321 75.618 94.6713 75.1786C93.6106 74.7393 92.7039 73.9952 92.066 73.0405C91.4281 72.0858 91.0876 70.9635 91.0876 69.8153C91.0872 69.0518 91.2372 68.2957 91.5291 67.5901C91.8209 66.8846 92.2488 66.2434 92.7884 65.7032C93.328 65.1631 93.9688 64.7345 94.674 64.4419C95.3793 64.1494 96.1352 63.9986 96.8987 63.9983L96.8929 64.01ZM96.8929 81.4287C99.4583 81.4319 101.918 82.4524 103.732 84.2664C105.546 86.0804 106.566 88.5398 106.569 91.1052H87.2135C87.2135 88.5362 88.2338 86.0724 90.0501 84.2556C91.8663 82.4388 94.3298 81.4178 96.8987 81.417L96.8929 81.4287Z" fill="#19A3A9"/>
<path d="M17.5481 60.1269V62.0639C17.5481 62.3183 17.5982 62.5702 17.6955 62.8052C17.7929 63.0402 17.9356 63.2537 18.1154 63.4336C18.2953 63.6135 18.5089 63.7562 18.7439 63.8535C18.9789 63.9509 19.2308 64.001 19.4851 64.001H42.7091C43.2229 64.001 43.7156 63.7969 44.0788 63.4336C44.4421 63.0703 44.6462 62.5776 44.6462 62.0639V60.1269C44.6412 57.3231 43.7672 54.5897 42.1445 52.3032C40.5217 50.0168 38.2301 48.2895 35.585 47.3594C37.5025 46.3556 39.0281 44.7379 39.918 42.7649C40.8078 40.7919 41.0105 38.5776 40.4936 36.4758C39.9767 34.3741 38.7702 32.5063 37.0668 31.1711C35.3634 29.8358 33.2615 29.1102 31.0971 29.1102C28.9328 29.1102 26.8309 29.8358 25.1275 31.1711C23.4241 32.5063 22.2176 34.3741 21.7007 36.4758C21.1838 38.5776 21.3865 40.7919 22.2763 42.7649C23.1662 44.7379 24.6918 46.3556 26.6093 47.3594C23.9642 48.2895 21.6726 50.0168 20.0498 52.3032C18.4271 54.5897 17.5531 57.3231 17.5481 60.1269ZM31.0898 33.0435C32.238 33.0435 33.3603 33.3839 34.315 34.0218C35.2697 34.6597 36.0138 35.5664 36.4532 36.6272C36.8925 37.6879 37.0075 38.8552 36.7835 39.9813C36.5595 41.1074 36.0066 42.1418 35.1947 42.9537C34.3829 43.7656 33.3484 44.3185 32.2223 44.5425C31.0962 44.7665 29.929 44.6515 28.8682 44.2121C27.8074 43.7727 26.9008 43.0286 26.2629 42.074C25.625 41.1193 25.2845 39.9969 25.2845 38.8487C25.2841 38.0852 25.4341 37.3291 25.726 36.6236C26.0178 35.918 26.4457 35.2769 26.9854 34.7367C27.525 34.1965 28.1657 33.7679 28.8709 33.4754C29.5762 33.1829 30.3322 33.0321 31.0957 33.0317L31.0898 33.0435ZM31.0898 50.4622C33.6531 50.4653 36.1108 51.4842 37.9245 53.2956C39.7381 55.1071 40.76 57.5635 40.7662 60.1269H21.4192C21.4224 57.5615 22.4428 55.102 24.2568 53.288C26.0709 51.474 28.5303 50.4535 31.0957 50.4504L31.0898 50.4622Z" fill="#19A3A9"/>
<path d="M114.317 31.0834H118.188C118.177 23.9038 115.321 17.0213 110.244 11.9446C105.167 6.86782 98.2846 4.0109 91.105 4H62.0728V7.87116H91.105C97.2576 7.88283 103.155 10.3321 107.506 14.6828C111.856 19.0334 114.306 24.9307 114.317 31.0834V31.0834Z" fill="#662D91"/>
<path d="M13.6757 96.8993H9.80457C9.81547 104.079 12.6724 110.961 17.7491 116.038C22.8259 121.115 29.7083 123.972 36.888 123.983H65.9202V120.112H36.8997C30.745 120.103 24.8446 117.655 20.4915 113.304C16.1383 108.953 13.6874 103.054 13.6757 96.8993V96.8993Z" fill="#662D91"/>
</svg>
