<svg xmlns="http://www.w3.org/2000/svg" width="41.146" height="41.017" viewBox="0 0 41.146 41.017">
  <g id="smile-rating3" transform="translate(0.501 0.499)">
    <g id="Group_640" data-name="Group 640" transform="translate(0)">
      <g id="Group_636" data-name="Group 636">
        <path id="Path_25224" data-name="Path 25224" d="M-1505.64,578.532a20.891,20.891,0,0,1,14.4-4.2c11.276.934,19.831,11.914,17.914,23.064-.153.892-.349,1.776-.524,2.664a22.9,22.9,0,0,1-5.712,8.942,20.1,20.1,0,0,1-28.182-1.038,19.964,19.964,0,0,1,.586-27.96Q-1506.4,579.265-1505.64,578.532Z" transform="translate(1513.171 -574.252)" fill="#fef000" stroke="#662d91" stroke-width="1"/>
      </g>
      <g id="Group_637" data-name="Group 637" transform="translate(9.966 12.166)">
        <path id="Path_25225" data-name="Path 25225" d="M-1470.8,634.462c-.02-1.98-1.035-3.387-2.434-3.375-1.353.012-2.386,1.5-2.386,3.427,0,1.947,1.021,3.431,2.372,3.449C-1471.82,637.983-1470.781,636.5-1470.8,634.462Z" transform="translate(1475.622 -631.088)" fill="#662d91"/>
        <path id="Path_25226" data-name="Path 25226" d="M-1413.191,634.531c0-1.937-1.024-3.431-2.373-3.444-1.426-.014-2.478,1.484-2.452,3.494.025,1.959,1.061,3.4,2.438,3.385S-1413.2,636.49-1413.191,634.531Z" transform="translate(1433.306 -631.088)" fill="#662d91"/>
      </g>
    </g>
    <g id="Group_641" data-name="Group 641" transform="translate(14.62 25.31)">
      <path id="Path_25229" data-name="Path 25229" d="M-750.277,154.716a8.644,8.644,0,0,1-2.568-4.516c-.3-1.189-.008-1.546,1.207-1.552q4.094-.019,8.188,0c1.27,0,1.563.352,1.259,1.624a7.882,7.882,0,0,1-2.611,4.471C-746.332,152.816-748.523,152.864-750.277,154.716Z" transform="translate(752.953 -148.638)" fill="#662d91"/>
      <path id="Path_25230" data-name="Path 25230" d="M-742.382,168.508c1.754-1.852,3.945-1.9,5.474.023C-738.716,170.139-740.438,170.132-742.382,168.508Z" transform="translate(745.058 -162.43)" fill="#d4322d"/>
    </g>
  </g>
</svg>
