<?xml version="1.0" encoding="UTF-8"?>
<svg width="80px" height="45px" viewBox="0 0 80 45" version="1.1" xmlns="http://www.w3.org/2000/svg" xmlns:xlink="http://www.w3.org/1999/xlink">
    <!-- Generator: Sketch 63.1 (92452) - https://sketch.com -->
    <title>truck</title>
    <desc>Created with Sketch.</desc>
    <g id="Page-1" stroke="none" stroke-width="1" fill="none" fill-rule="evenodd">
        <g id="1-copy" transform="translate(-230.000000, -2290.000000)" fill-rule="nonzero">
            <g id="Group-21-Copy" transform="translate(-2.000000, 2242.000000)">
                <g id="Group-19">
                    <g id="Group-15" transform="translate(222.000000, 20.000000)">
                        <g id="truck" transform="translate(10.000000, 28.000000)">
                            <g id="Group" fill="#B3B3B3">
                                <path d="M52.5,0 C53.88,0 55,1.12 55,2.5 L55,2.5 L55,40 L17.5,40 C16.12,40 15,38.88 15,37.5 L15,37.5 L15,30 L12.5,30 C11.1752,30 10.090016,28.967808 10.005321,27.664297 L10,27.5 C10,26.12 11.12,25 12.5,25 L12.5,25 L15,25 L15,20 L7.5,20 C6.1752,20 5.090016,18.967808 5.00532096,17.664297 L5,17.5 C5,16.12 6.12,15 7.5,15 L7.5,15 L15,15 L15,10 L2.5,10 C1.1752,10 0.090016,8.967808 0.00532096,7.66429696 L0,7.5 C0,6.12 1.12,5 2.5,5 L2.5,5 L15,5 L15,2.5 C15,1.1752 16.032192,0.090016 17.335703,0.00532096 L17.5,0 Z" id="Combined-Shape"></path>
                            </g>
                            <path d="M79.645,23.715 L72.145,11.215 C71.695,10.46 70.88,10 70,10 L52.5,10 C51.12,10 50,11.12 50,12.5 L50,37.5 C50,38.88 51.12,40 52.5,40 L77.5,40 C78.88,40 80,38.88 80,37.5 L80,25 C80,24.545 79.88,24.1 79.645,23.715 Z" id="Path" fill="#DFDFDF"></path>
                            <polygon id="Path" fill="#FAFAFA" points="60 15 68.585 15 74.585 25 60 25"></polygon>
                            <circle id="Oval" fill="#FAFAFA" cx="67.5" cy="37.5" r="5"></circle>
                            <path d="M67.5,45 C63.365,45 60,41.635 60,37.5 C60,33.365 63.365,30 67.5,30 C71.635,30 75,33.365 75,37.5 C75,41.635 71.635,45 67.5,45 Z M67.5,35 C66.125,35 65,36.125 65,37.5 C65,38.875 66.125,40 67.5,40 C68.875,40 70,38.875 70,37.5 C70,36.125 68.875,35 67.5,35 Z" id="Shape" fill="#1F2027"></path>
                            <path d="M55,40 L17.5,40 C16.12,40 15,38.88 15,37.5 L15,30 L55,30 L55,40 Z" id="Path" fill="#DFDFDF"></path>
                            <circle id="Oval" fill="#FAFAFA" cx="32.5" cy="37.5" r="5"></circle>
                            <path d="M32.5,45 C28.365,45 25,41.635 25,37.5 C25,33.365 28.365,30 32.5,30 C36.635,30 40,33.365 40,37.5 C40,41.635 36.635,45 32.5,45 Z M32.5,35 C31.12,35 30,36.125 30,37.5 C30,38.875 31.12,40 32.5,40 C33.88,40 35,38.875 35,37.5 C35,36.125 33.88,35 32.5,35 Z" id="Shape" fill="#1F2027"></path>
                        </g>
                    </g>
                </g>
            </g>
        </g>
    </g>
</svg>