<svg xmlns="http://www.w3.org/2000/svg" xmlns:xlink="http://www.w3.org/1999/xlink" width="99" height="99" viewBox="0 0 99 99">
  <defs>
    <filter id="Oval" x="0" y="0" width="99" height="99" filterUnits="userSpaceOnUse">
      <feOffset input="SourceAlpha"/>
      <feGaussianBlur stdDeviation="1.5" result="blur"/>
      <feFlood flood-opacity="0.149"/>
      <feComposite operator="in" in2="blur"/>
      <feComposite in="SourceGraphic"/>
    </filter>
  </defs>
  <g id="circle_dribbble" data-name="circle/dribbble" transform="translate(4.5 4.5)">
    <g transform="matrix(1, 0, 0, 1, -4.5, -4.5)" filter="url(#Oval)">
      <circle id="Oval-2" data-name="Oval" cx="45" cy="45" r="45" transform="translate(4.5 4.5)" fill="#d75887"/>
    </g>
    <path id="Shape" d="M22.5,45A22.506,22.506,0,0,1,13.744,1.769,22.5,22.5,0,1,1,22.5,45Zm3.416-19.376a.419.419,0,0,1-.061.024.439.439,0,0,0-.061.024,29.23,29.23,0,0,0-11.475,7.156,20.213,20.213,0,0,0-3.606,4.851A19.092,19.092,0,0,0,22.5,41.73a18.85,18.85,0,0,0,7.516-1.538A80.052,80.052,0,0,0,25.916,25.624Zm7.554-1.183a25.671,25.671,0,0,0-3.991.305,81.99,81.99,0,0,1,3.733,13.69,19.1,19.1,0,0,0,8.224-12.861A27.565,27.565,0,0,0,33.471,24.441Zm-30.2-2.5v.586A19.169,19.169,0,0,0,8.2,35.361a32.1,32.1,0,0,1,9.06-9.441A25.994,25.994,0,0,1,23.818,22.7c.121-.036.248-.073.375-.109s.26-.074.382-.111c-.573-1.287-1.069-2.327-1.562-3.271A70.747,70.747,0,0,1,3.968,21.946C3.562,21.946,3.331,21.94,3.27,21.938Zm29.483-.482h0a48.152,48.152,0,0,1,8.885.859l.068.013a19.132,19.132,0,0,0-4.344-11.957,26.012,26.012,0,0,1-10.713,7.564c.486,1,.913,1.937,1.269,2.783.06.139.116.28.17.417.081.2.158.4.245.583A35.6,35.6,0,0,1,32.752,21.457ZM14.324,5.125a19.48,19.48,0,0,0-6.866,5.442,19.22,19.22,0,0,0-3.773,8H3.82a72.689,72.689,0,0,0,17.631-2.343A121.462,121.462,0,0,0,14.324,5.125ZM22.5,3.319a19.556,19.556,0,0,0-4.514.512l.027.037A102.967,102.967,0,0,1,25.16,15.081C32.049,12.5,34.933,8.588,35.239,8.15A19.211,19.211,0,0,0,22.5,3.319Z" transform="translate(22.5 22.5)" fill="#fff"/>
  </g>
</svg>
