<?xml version="1.0" encoding="UTF-8"?>
<svg width="1440px" height="19px" viewBox="0 0 1440 19" version="1.1" xmlns="http://www.w3.org/2000/svg" xmlns:xlink="http://www.w3.org/1999/xlink">
    <!-- Generator: Sketch 54.1 (76490) - https://sketchapp.com -->
    <title>Rectangle</title>
    <desc>Created with Sketch.</desc>
    <g id="Final" stroke="none" stroke-width="1" fill="none" fill-rule="evenodd">
        <g id="Font-and-Colours" transform="translate(0.000000, -577.000000)" fill="#FFFFFF">
            <path d="M0,577 L1440,577 L1440,596 C1437,592.675552 1434,591.013328 1431,591.013328 C1428,591.013328 1425,592.675552 1422,596 C1419,592.675552 1416,591.013328 1413,591.013328 C1410,591.013328 1407,592.675552 1404,596 C1401,592.675552 1398,591.013328 1395,591.013328 C1392,591.013328 1389,592.675552 1386,596 C1383,592.675552 1380,591.013328 1377,591.013328 C1374,591.013328 1371,592.675552 1368,596 C1365,592.675552 1362,591.013328 1359,591.013328 C1356,591.013328 1353,592.675552 1350,596 C1347,592.675552 1344,591.013328 1341,591.013328 C1338,591.013328 1335,592.675552 1332,596 C1329,592.675552 1326,591.013328 1323,591.013328 C1320,591.013328 1317,592.675552 1314,596 C1311,592.675552 1308,591.013328 1305,591.013328 C1302,591.013328 1299,592.675552 1296,596 C1293,592.675552 1290,591.013328 1287,591.013328 C1284,591.013328 1281,592.675552 1278,596 C1275,592.675552 1272,591.013328 1269,591.013328 C1266,591.013328 1263,592.675552 1260,596 C1257,592.675552 1254,591.013328 1251,591.013328 C1248,591.013328 1245,592.675552 1242,596 C1239,592.675552 1236,591.013328 1233,591.013328 C1230,591.013328 1227,592.675552 1224,596 C1221,592.675552 1218,591.013328 1215,591.013328 C1212,591.013328 1209,592.675552 1206,596 C1203,592.675552 1200,591.013328 1197,591.013328 C1194,591.013328 1191,592.675552 1188,596 C1185,592.675552 1182,591.013328 1179,591.013328 C1176,591.013328 1173,592.675552 1170,596 C1167,592.675552 1164,591.013328 1161,591.013328 C1158,591.013328 1155,592.675552 1152,596 C1149,592.675552 1146,591.013328 1143,591.013328 C1140,591.013328 1137,592.675552 1134,596 C1131,592.675552 1128,591.013328 1125,591.013328 C1122,591.013328 1119,592.675552 1116,596 C1113,592.675552 1110,591.013328 1107,591.013328 C1104,591.013328 1101,592.675552 1098,596 C1095,592.675552 1092,591.013328 1089,591.013328 C1086,591.013328 1083,592.675552 1080,596 C1077,592.675552 1074,591.013328 1071,591.013328 C1068,591.013328 1065,592.675552 1062,596 C1059,592.675552 1056,591.013328 1053,591.013328 C1050,591.013328 1047,592.675552 1044,596 C1041,592.675552 1038,591.013328 1035,591.013328 C1032,591.013328 1029,592.675552 1026,596 C1023,592.675552 1020,591.013328 1017,591.013328 C1014,591.013328 1011,592.675552 1008,596 C1005,592.675552 1002,591.013328 999,591.013328 C996,591.013328 993,592.675552 990,596 C987,592.675552 984,591.013328 981,591.013328 C978,591.013328 975,592.675552 972,596 C969,592.675552 966,591.013328 963,591.013328 C960,591.013328 957,592.675552 954,596 C951,592.675552 948,591.013328 945,591.013328 C942,591.013328 939,592.675552 936,596 C933,592.675552 930,591.013328 927,591.013328 C924,591.013328 921,592.675552 918,596 C915,592.675552 912,591.013328 909,591.013328 C906,591.013328 903,592.675552 900,596 C897,592.675552 894,591.013328 891,591.013328 C888,591.013328 885,592.675552 882,596 C879,592.675552 876,591.013328 873,591.013328 C870,591.013328 867,592.675552 864,596 C861,592.675552 858,591.013328 855,591.013328 C852,591.013328 849,592.675552 846,596 C843,592.675552 840,591.013328 837,591.013328 C834,591.013328 831,592.675552 828,596 C825,592.675552 822,591.013328 819,591.013328 C816,591.013328 813,592.675552 810,596 C807,592.675552 804,591.013328 801,591.013328 C798,591.013328 795,592.675552 792,596 C789,592.675552 786,591.013328 783,591.013328 C780,591.013328 777,592.675552 774,596 C771,592.675552 768,591.013328 765,591.013328 C762,591.013328 759,592.675552 756,596 C753,592.675552 750,591.013328 747,591.013328 C744,591.013328 741,592.675552 738,596 C735,592.675552 732,591.013328 729,591.013328 C726,591.013328 723,592.675552 720,596 C717,592.675552 714,591.013328 711,591.013328 C708,591.013328 705,592.675552 702,596 C699,592.675552 696,591.013328 693,591.013328 C690,591.013328 687,592.675552 684,596 C681,592.675552 678,591.013328 675,591.013328 C672,591.013328 669,592.675552 666,596 C663,592.675552 660,591.013328 657,591.013328 C654,591.013328 651,592.675552 648,596 C645,592.675552 642,591.013328 639,591.013328 C636,591.013328 633,592.675552 630,596 C627,592.675552 624,591.013328 621,591.013328 C618,591.013328 615,592.675552 612,596 C609,592.675552 606,591.013328 603,591.013328 C600,591.013328 597,592.675552 594,596 C591,592.675552 588,591.013328 585,591.013328 C582,591.013328 579,592.675552 576,596 C573,592.675552 570,591.013328 567,591.013328 C564,591.013328 561,592.675552 558,596 C555,592.675552 552,591.013328 549,591.013328 C546,591.013328 543,592.675552 540,596 C537,592.675552 534,591.013328 531,591.013328 C528,591.013328 525,592.675552 522,596 C519,592.675552 516,591.013328 513,591.013328 C510,591.013328 507,592.675552 504,596 C501,592.675552 498,591.013328 495,591.013328 C492,591.013328 489,592.675552 486,596 C483,592.675552 480,591.013328 477,591.013328 C474,591.013328 471,592.675552 468,596 C465,592.675552 462,591.013328 459,591.013328 C456,591.013328 453,592.675552 450,596 C447,592.675552 444,591.013328 441,591.013328 C438,591.013328 435,592.675552 432,596 C429,592.675552 426,591.013328 423,591.013328 C420,591.013328 417,592.675552 414,596 C411,592.675552 408,591.013328 405,591.013328 C402,591.013328 399,592.675552 396,596 C393,592.675552 390,591.013328 387,591.013328 C384,591.013328 381,592.675552 378,596 C375,592.675552 372,591.013328 369,591.013328 C366,591.013328 363,592.675552 360,596 C357,592.675552 354,591.013328 351,591.013328 C348,591.013328 345,592.675552 342,596 C339,592.675552 336,591.013328 333,591.013328 C330,591.013328 327,592.675552 324,596 C321,592.675552 318,591.013328 315,591.013328 C312,591.013328 309,592.675552 306,596 C303,592.675552 300,591.013328 297,591.013328 C294,591.013328 291,592.675552 288,596 C285,592.675552 282,591.013328 279,591.013328 C276,591.013328 273,592.675552 270,596 C267,592.675552 264,591.013328 261,591.013328 C258,591.013328 255,592.675552 252,596 C249,592.675552 246,591.013328 243,591.013328 C240,591.013328 237,592.675552 234,596 C231,592.675552 228,591.013328 225,591.013328 C222,591.013328 219,592.675552 216,596 C213,592.675552 210,591.013328 207,591.013328 C204,591.013328 201,592.675552 198,596 C195,592.675552 192,591.013328 189,591.013328 C186,591.013328 183,592.675552 180,596 C177,592.675552 174,591.013328 171,591.013328 C168,591.013328 165,592.675552 162,596 C159,592.675552 156,591.013328 153,591.013328 C150,591.013328 147,592.675552 144,596 C141,592.675552 138,591.013328 135,591.013328 C132,591.013328 129,592.675552 126,596 C123,592.675552 120,591.013328 117,591.013328 C114,591.013328 111,592.675552 108,596 C105,592.675552 102,591.013328 99,591.013328 C96,591.013328 93,592.675552 90,596 C87,592.675552 84,591.013328 81,591.013328 C78,591.013328 75,592.675552 72,596 C69,592.675552 66,591.013328 63,591.013328 C60,591.013328 57,592.675552 54,596 C51,592.675552 48,591.013328 45,591.013328 C42,591.013328 39,592.675552 36,596 C33,592.675552 30,591.013328 27,591.013328 C24,591.013328 21,592.675552 18,596 C15,592.675552 12,591.013328 9,591.013328 C6,591.013328 3,592.675552 0,596 L0,577 Z" id="Rectangle" transform="translate(720.000000, 586.500000) scale(1, -1) translate(-720.000000, -586.500000) "></path>
        </g>
    </g>
</svg>