<?xml version="1.0" encoding="UTF-8"?>
<svg width="1440px" height="19px" viewBox="0 0 1440 19" version="1.1" xmlns="http://www.w3.org/2000/svg" xmlns:xlink="http://www.w3.org/1999/xlink">
    <!-- Generator: Sketch 54.1 (76490) - https://sketchapp.com -->
    <title>Rectangle Copy 11</title>
    <desc>Created with Sketch.</desc>
    <g id="Final" stroke="none" stroke-width="1" fill="none" fill-rule="evenodd">
        <g id="Landing-page_3" transform="translate(0.000000, -2976.000000)" fill="#E3C76B">
            <path d="M0,2976 L1440,2976 L1440,2995 C1437,2991.67555 1434,2990.01333 1431,2990.01333 C1428,2990.01333 1425,2991.67555 1422,2995 C1419,2991.67555 1416,2990.01333 1413,2990.01333 C1410,2990.01333 1407,2991.67555 1404,2995 C1401,2991.67555 1398,2990.01333 1395,2990.01333 C1392,2990.01333 1389,2991.67555 1386,2995 C1383,2991.67555 1380,2990.01333 1377,2990.01333 C1374,2990.01333 1371,2991.67555 1368,2995 C1365,2991.67555 1362,2990.01333 1359,2990.01333 C1356,2990.01333 1353,2991.67555 1350,2995 C1347,2991.67555 1344,2990.01333 1341,2990.01333 C1338,2990.01333 1335,2991.67555 1332,2995 C1329,2991.67555 1326,2990.01333 1323,2990.01333 C1320,2990.01333 1317,2991.67555 1314,2995 C1311,2991.67555 1308,2990.01333 1305,2990.01333 C1302,2990.01333 1299,2991.67555 1296,2995 C1293,2991.67555 1290,2990.01333 1287,2990.01333 C1284,2990.01333 1281,2991.67555 1278,2995 C1275,2991.67555 1272,2990.01333 1269,2990.01333 C1266,2990.01333 1263,2991.67555 1260,2995 C1257,2991.67555 1254,2990.01333 1251,2990.01333 C1248,2990.01333 1245,2991.67555 1242,2995 C1239,2991.67555 1236,2990.01333 1233,2990.01333 C1230,2990.01333 1227,2991.67555 1224,2995 C1221,2991.67555 1218,2990.01333 1215,2990.01333 C1212,2990.01333 1209,2991.67555 1206,2995 C1203,2991.67555 1200,2990.01333 1197,2990.01333 C1194,2990.01333 1191,2991.67555 1188,2995 C1185,2991.67555 1182,2990.01333 1179,2990.01333 C1176,2990.01333 1173,2991.67555 1170,2995 C1167,2991.67555 1164,2990.01333 1161,2990.01333 C1158,2990.01333 1155,2991.67555 1152,2995 C1149,2991.67555 1146,2990.01333 1143,2990.01333 C1140,2990.01333 1137,2991.67555 1134,2995 C1131,2991.67555 1128,2990.01333 1125,2990.01333 C1122,2990.01333 1119,2991.67555 1116,2995 C1113,2991.67555 1110,2990.01333 1107,2990.01333 C1104,2990.01333 1101,2991.67555 1098,2995 C1095,2991.67555 1092,2990.01333 1089,2990.01333 C1086,2990.01333 1083,2991.67555 1080,2995 C1077,2991.67555 1074,2990.01333 1071,2990.01333 C1068,2990.01333 1065,2991.67555 1062,2995 C1059,2991.67555 1056,2990.01333 1053,2990.01333 C1050,2990.01333 1047,2991.67555 1044,2995 C1041,2991.67555 1038,2990.01333 1035,2990.01333 C1032,2990.01333 1029,2991.67555 1026,2995 C1023,2991.67555 1020,2990.01333 1017,2990.01333 C1014,2990.01333 1011,2991.67555 1008,2995 C1005,2991.67555 1002,2990.01333 999,2990.01333 C996,2990.01333 993,2991.67555 990,2995 C987,2991.67555 984,2990.01333 981,2990.01333 C978,2990.01333 975,2991.67555 972,2995 C969,2991.67555 966,2990.01333 963,2990.01333 C960,2990.01333 957,2991.67555 954,2995 C951,2991.67555 948,2990.01333 945,2990.01333 C942,2990.01333 939,2991.67555 936,2995 C933,2991.67555 930,2990.01333 927,2990.01333 C924,2990.01333 921,2991.67555 918,2995 C915,2991.67555 912,2990.01333 909,2990.01333 C906,2990.01333 903,2991.67555 900,2995 C897,2991.67555 894,2990.01333 891,2990.01333 C888,2990.01333 885,2991.67555 882,2995 C879,2991.67555 876,2990.01333 873,2990.01333 C870,2990.01333 867,2991.67555 864,2995 C861,2991.67555 858,2990.01333 855,2990.01333 C852,2990.01333 849,2991.67555 846,2995 C843,2991.67555 840,2990.01333 837,2990.01333 C834,2990.01333 831,2991.67555 828,2995 C825,2991.67555 822,2990.01333 819,2990.01333 C816,2990.01333 813,2991.67555 810,2995 C807,2991.67555 804,2990.01333 801,2990.01333 C798,2990.01333 795,2991.67555 792,2995 C789,2991.67555 786,2990.01333 783,2990.01333 C780,2990.01333 777,2991.67555 774,2995 C771,2991.67555 768,2990.01333 765,2990.01333 C762,2990.01333 759,2991.67555 756,2995 C753,2991.67555 750,2990.01333 747,2990.01333 C744,2990.01333 741,2991.67555 738,2995 C735,2991.67555 732,2990.01333 729,2990.01333 C726,2990.01333 723,2991.67555 720,2995 C717,2991.67555 714,2990.01333 711,2990.01333 C708,2990.01333 705,2991.67555 702,2995 C699,2991.67555 696,2990.01333 693,2990.01333 C690,2990.01333 687,2991.67555 684,2995 C681,2991.67555 678,2990.01333 675,2990.01333 C672,2990.01333 669,2991.67555 666,2995 C663,2991.67555 660,2990.01333 657,2990.01333 C654,2990.01333 651,2991.67555 648,2995 C645,2991.67555 642,2990.01333 639,2990.01333 C636,2990.01333 633,2991.67555 630,2995 C627,2991.67555 624,2990.01333 621,2990.01333 C618,2990.01333 615,2991.67555 612,2995 C609,2991.67555 606,2990.01333 603,2990.01333 C600,2990.01333 597,2991.67555 594,2995 C591,2991.67555 588,2990.01333 585,2990.01333 C582,2990.01333 579,2991.67555 576,2995 C573,2991.67555 570,2990.01333 567,2990.01333 C564,2990.01333 561,2991.67555 558,2995 C555,2991.67555 552,2990.01333 549,2990.01333 C546,2990.01333 543,2991.67555 540,2995 C537,2991.67555 534,2990.01333 531,2990.01333 C528,2990.01333 525,2991.67555 522,2995 C519,2991.67555 516,2990.01333 513,2990.01333 C510,2990.01333 507,2991.67555 504,2995 C501,2991.67555 498,2990.01333 495,2990.01333 C492,2990.01333 489,2991.67555 486,2995 C483,2991.67555 480,2990.01333 477,2990.01333 C474,2990.01333 471,2991.67555 468,2995 C465,2991.67555 462,2990.01333 459,2990.01333 C456,2990.01333 453,2991.67555 450,2995 C447,2991.67555 444,2990.01333 441,2990.01333 C438,2990.01333 435,2991.67555 432,2995 C429,2991.67555 426,2990.01333 423,2990.01333 C420,2990.01333 417,2991.67555 414,2995 C411,2991.67555 408,2990.01333 405,2990.01333 C402,2990.01333 399,2991.67555 396,2995 C393,2991.67555 390,2990.01333 387,2990.01333 C384,2990.01333 381,2991.67555 378,2995 C375,2991.67555 372,2990.01333 369,2990.01333 C366,2990.01333 363,2991.67555 360,2995 C357,2991.67555 354,2990.01333 351,2990.01333 C348,2990.01333 345,2991.67555 342,2995 C339,2991.67555 336,2990.01333 333,2990.01333 C330,2990.01333 327,2991.67555 324,2995 C321,2991.67555 318,2990.01333 315,2990.01333 C312,2990.01333 309,2991.67555 306,2995 C303,2991.67555 300,2990.01333 297,2990.01333 C294,2990.01333 291,2991.67555 288,2995 C285,2991.67555 282,2990.01333 279,2990.01333 C276,2990.01333 273,2991.67555 270,2995 C267,2991.67555 264,2990.01333 261,2990.01333 C258,2990.01333 255,2991.67555 252,2995 C249,2991.67555 246,2990.01333 243,2990.01333 C240,2990.01333 237,2991.67555 234,2995 C231,2991.67555 228,2990.01333 225,2990.01333 C222,2990.01333 219,2991.67555 216,2995 C213,2991.67555 210,2990.01333 207,2990.01333 C204,2990.01333 201,2991.67555 198,2995 C195,2991.67555 192,2990.01333 189,2990.01333 C186,2990.01333 183,2991.67555 180,2995 C177,2991.67555 174,2990.01333 171,2990.01333 C168,2990.01333 165,2991.67555 162,2995 C159,2991.67555 156,2990.01333 153,2990.01333 C150,2990.01333 147,2991.67555 144,2995 C141,2991.67555 138,2990.01333 135,2990.01333 C132,2990.01333 129,2991.67555 126,2995 C123,2991.67555 120,2990.01333 117,2990.01333 C114,2990.01333 111,2991.67555 108,2995 C105,2991.67555 102,2990.01333 99,2990.01333 C96,2990.01333 93,2991.67555 90,2995 C87,2991.67555 84,2990.01333 81,2990.01333 C78,2990.01333 75,2991.67555 72,2995 C69,2991.67555 66,2990.01333 63,2990.01333 C60,2990.01333 57,2991.67555 54,2995 C51,2991.67555 48,2990.01333 45,2990.01333 C42,2990.01333 39,2991.67555 36,2995 C33,2991.67555 30,2990.01333 27,2990.01333 C24,2990.01333 21,2991.67555 18,2995 C15,2991.67555 12,2990.01333 9,2990.01333 C6,2990.01333 3,2991.67555 0,2995 L0,2976 Z" id="Rectangle-Copy-11" transform="translate(720.000000, 2985.500000) scale(1, -1) translate(-720.000000, -2985.500000) "></path>
        </g>
    </g>
</svg>