<svg xmlns="http://www.w3.org/2000/svg" width="803" height="7" viewBox="0 0 803 7">
  <path id="team-border" d="M801,0q-4.5,0-9-5-4.5,5-9,5t-9-5q-4.5,5-9,5t-9-5q-4.5,5-9,5t-9-5q-4.5,5-9,5t-9-5q-4.5,5-9,5t-9-5q-4.5,5-9,5t-9-5q-4.5,5-9,5t-9-5q-4.5,5-9,5t-9-5q-4.5,5-9,5t-9-5q-4.5,5-9,5t-9-5q-4.5,5-9,5t-9-5q-4.5,5-9,5t-9-5q-4.5,5-9,5t-9-5q-4.5,5-9,5t-9-5q-4.5,5-9,5t-9-5q-4.5,5-9,5t-9-5q-4.5,5-9,5t-9-5q-4.5,5-9,5t-9-5q-4.5,5-9,5t-9-5q-4.5,5-9,5t-9-5q-4.5,5-9,5t-9-5q-4.5,5-9,5t-9-5q-4.5,5-9,5t-9-5q-4.5,5-9,5t-9-5q-4.5,5-9,5t-9-5q-4.5,5-9,5t-9-5q-4.5,5-9,5t-9-5q-4.5,5-9,5t-9-5q-4.5,5-9,5t-9-5q-4.5,5-9,5t-9-5q-4.5,5-9,5t-9-5q-4.5,5-9,5t-9-5q-4.5,5-9,5t-9-5q-4.5,5-9,5t-9-5q-4.5,5-9,5t-9-5q-4.5,5-9,5t-9-5q-4.5,5-9,5t-9-5q-4.5,5-9,5t-9-5q-4.5,5-9,5T90-5q-4.5,5-9,5T72-5q-4.5,5-9,5T54-5q-4.5,5-9,5T36-5q-4.5,5-9,5T18-5Q13.5,0,9,0T0-5" transform="translate(1 6)" fill="none" stroke="#d6b340" stroke-linecap="round" stroke-linejoin="round" stroke-miterlimit="10" stroke-width="2" opacity="0.8"/>
</svg>
