<svg xmlns="http://www.w3.org/2000/svg" width="783.4" height="5.387" viewBox="0 0 783.4 5.387">
  <path id="Rectangle_Copy_56" data-name="Rectangle Copy 56" d="M783,0q-4.5,0-9-4.987Q769.5,0,765,0t-9-4.987Q751.5,0,747,0t-9-4.987Q733.5,0,729,0t-9-4.987Q715.5,0,711,0t-9-4.987Q697.5,0,693,0t-9-4.987Q679.5,0,675,0t-9-4.987Q661.5,0,657,0t-9-4.987Q643.5,0,639,0t-9-4.987Q625.5,0,621,0t-9-4.987Q607.5,0,603,0t-9-4.987Q589.5,0,585,0t-9-4.987Q571.5,0,567,0t-9-4.987Q553.5,0,549,0t-9-4.987Q535.5,0,531,0t-9-4.987Q517.5,0,513,0t-9-4.987Q499.5,0,495,0t-9-4.987Q481.5,0,477,0t-9-4.987Q463.5,0,459,0t-9-4.987Q445.5,0,441,0t-9-4.987Q427.5,0,423,0t-9-4.987Q409.5,0,405,0t-9-4.987Q391.5,0,387,0t-9-4.987Q373.5,0,369,0t-9-4.987Q355.5,0,351,0t-9-4.987Q337.5,0,333,0t-9-4.987Q319.5,0,315,0t-9-4.987Q301.5,0,297,0t-9-4.987Q283.5,0,279,0t-9-4.987Q265.5,0,261,0t-9-4.987Q247.5,0,243,0t-9-4.987Q229.5,0,225,0t-9-4.987Q211.5,0,207,0t-9-4.987Q193.5,0,189,0t-9-4.987Q175.5,0,171,0t-9-4.987Q157.5,0,153,0t-9-4.987Q139.5,0,135,0t-9-4.987Q121.5,0,117,0t-9-4.987Q103.5,0,99,0T90-4.987Q85.5,0,81,0T72-4.987Q67.5,0,63,0T54-4.987Q49.5,0,45,0T36-4.987Q31.5,0,27,0T18-4.987Q13.5,0,9,0T0-4.987" transform="translate(0.2 5.187)" fill="none" stroke="#d8d8d8" stroke-linecap="round" stroke-linejoin="round" stroke-miterlimit="10" stroke-width="0.4"/>
</svg>
