<svg xmlns="http://www.w3.org/2000/svg" width="531.506" height="517.866" viewBox="0 0 531.506 517.866">
  <g id="reset-password" transform="translate(-16068.01 716)">
    <g id="Group_422" data-name="Group 422" transform="translate(16068.01 -716)">
      <g id="Floor" transform="translate(0 204.201)">
        <path id="Floor-2" data-name="Floor" d="M98.625,477.23c103.783,61.246,272.048,61.248,375.83,0s103.783-160.548,0-221.794-272.048-61.248-375.831,0S-5.158,415.984,98.625,477.23Z" transform="translate(-20.787 -209.501)" fill="#d6c7e2"/>
      </g>
      <g id="Plant" transform="translate(13.895 231.811)">
        <g id="Plants">
          <path id="Path_2997" data-name="Path 2997" d="M80.047,296.917c-.651.353-12.679,3.768-17.136-2.118s2.938-15.06-1.243-18.441-15.893.02-18.712-7.1,5.538-10.175.841-17.343c-2.958-4.516-10.223-7.044-10.863-11.218-1.07-6.976,10.491-10.182,20.378-3.6s15.866,3.57,19,3.127,9.9.533,9.684,11.546S80.047,296.917,80.047,296.917Z" transform="translate(-32.865 -233.5)" fill="#27debf"/>
          <g id="Group_392" data-name="Group 392" transform="translate(6.489 4.364)">
            <path id="Path_2998" data-name="Path 2998" d="M79.993,280.684a.656.656,0,0,1-.647-.549c-3.442-20.9-27.737-37.908-40.368-41.558a.655.655,0,1,1,.364-1.259c12.917,3.733,37.764,21.162,41.3,42.6a.657.657,0,0,1-.541.754A.672.672,0,0,1,79.993,280.684Z" transform="translate(-38.505 -237.293)" fill="#fff"/>
          </g>
          <g id="Group_393" data-name="Group 393" transform="translate(18.678 25.224)">
            <path id="Path_2999" data-name="Path 2999" d="M49.757,260.464a.655.655,0,0,1-.336-1.218c.393-.235,9.74-5.7,18.949-3.142a.655.655,0,1,1-.351,1.262c-8.663-2.4-17.838,2.953-17.929,3.006A.658.658,0,0,1,49.757,260.464Z" transform="translate(-49.1 -255.425)" fill="#fff"/>
          </g>
        </g>
      </g>
      <g id="Device" transform="translate(56.393 0)">
        <g id="Laptop">
          <path id="Path_3000" data-name="Path 3000" d="M77.929,311.259a10.682,10.682,0,0,0,4.983,8.272l139.581,80.587a11.011,11.011,0,0,0,9.964,0L423.443,289.853a9.359,9.359,0,0,0,0-16.545L283.861,192.721a11.009,11.009,0,0,0-9.963,0L82.911,302.986A10.681,10.681,0,0,0,77.929,311.259Z" transform="translate(-68.583 -8.004)" fill="#4f1e74"/>
          <path id="Path_3001" data-name="Path 3001" d="M227.477,375.907v10.78a10.161,10.161,0,0,1-4.982-1.185L82.909,304.912A9.33,9.33,0,0,1,82.4,288.69c-2.232,1.6-2.058,3.946.506,5.43l139.586,80.59A10.166,10.166,0,0,0,227.477,375.907Z" transform="translate(-68.583 6.616)" fill="#330853"/>
          <path id="Path_3002" data-name="Path 3002" d="M74.478,327.168a10.683,10.683,0,0,1-4.673-8.45V152.147a11.009,11.009,0,0,1,4.982-8.629L265.773,33.253a10.682,10.682,0,0,1,9.655-.178,10.681,10.681,0,0,1,4.674,8.45V208.1a11.014,11.014,0,0,1-4.982,8.629L84.133,326.99A10.682,10.682,0,0,1,74.478,327.168Z" transform="translate(-69.805 -32.007)" fill="#662d91"/>
          <path id="Path_3003" data-name="Path 3003" d="M83.544,312.218a10.7,10.7,0,0,1-9.065-.127,10.671,10.671,0,0,1-4.672-8.444V137.071a10.064,10.064,0,0,1,1.461-4.9l9.342,5.384v.012a10.212,10.212,0,0,0-1.461,4.9V309.043C79.149,311.988,81.07,313.311,83.544,312.218Z" transform="translate(-69.805 -16.936)" fill="#330853"/>
          <path id="Path_3004" data-name="Path 3004" d="M77.929,156.763V323.334c0,3.176,2.23,4.465,4.982,2.876L273.9,215.944a11.014,11.014,0,0,0,4.982-8.629V40.745c0-3.176-2.231-4.465-4.982-2.876L82.911,148.135A11.011,11.011,0,0,0,77.929,156.763Z" transform="translate(-68.583 -31.228)" fill="#8135bb"/>
          <path id="Path_3005" data-name="Path 3005" d="M82.529,308.739l139.582,80.587a11.011,11.011,0,0,0,9.964,0L423.061,279.06c2.752-1.589,2.752-4.164,0-5.752L283.479,192.721a11.009,11.009,0,0,0-9.963,0L82.529,302.986C79.777,304.575,79.777,307.15,82.529,308.739Z" transform="translate(-68.201 -8.004)" fill="#662d91"/>
          <path id="Path_3006" data-name="Path 3006" d="M84.979,155.613,269.115,49.33c1.651-.953,2.989-.181,2.989,1.726V195.249a6.605,6.605,0,0,1-2.989,5.177L84.979,306.708c-1.651.953-2.989.179-2.989-1.726V160.79A6.609,6.609,0,0,1,84.979,155.613Z" transform="translate(-67.972 -29.462)" fill="#fff"/>
          <path id="Path_3007" data-name="Path 3007" d="M84.979,155.613,269.115,49.33c1.651-.953,2.989-.181,2.989,1.726V195.249a6.605,6.605,0,0,1-2.989,5.177L84.979,306.708c-1.651.953-2.989.179-2.989-1.726V160.79A6.609,6.609,0,0,1,84.979,155.613Z" transform="translate(-67.972 -29.462)" fill="#804095" opacity="0.6"/>
          <g id="Group_394" data-name="Group 394" transform="translate(91.974 115.822)">
            <path id="Path_3008" data-name="Path 3008" d="M165.434,133.894c4.9-2.831,8.877-.536,8.877,5.124s-3.975,12.545-8.877,15.375-8.877.536-8.877-5.125S160.532,136.724,165.434,133.894Z" transform="translate(-148.726 -132.681)" fill="#f0f0f0"/>
            <path id="Path_3009" data-name="Path 3009" d="M183.952,161.449c0-9.3-6.53-13.429-14.583-8.779l-5.036,2.907c-8.053,4.65-14.583,15.959-14.583,25.26v2.5l34.2-19.733Z" transform="translate(-149.75 -129.962)" fill="#f0f0f0"/>
          </g>
          <g id="Group_396" data-name="Group 396" transform="translate(79.448 151.195)">
            <path id="Path_3010" data-name="Path 3010" d="M202.886,164.137c-.326-.75-1.153-.939-2.087-.4L141.069,198.2a4.9,4.9,0,0,0-2.207,3.828v7.028c0,1.2.713,1.781,1.679,1.509.1-.029.158-.049.158-.049a2.635,2.635,0,0,0,.37-.182l59.73-34.463a4.876,4.876,0,0,0,2.21-3.828v-7.027A2.751,2.751,0,0,0,202.886,164.137Z" transform="translate(-138.862 -163.428)" fill="#f0f0f0"/>
            <g id="Group_395" data-name="Group 395" transform="translate(5.507 7.303)">
              <path id="Path_3011" data-name="Path 3011" d="M145.747,194.444c1.159-.67,2.1-.127,2.1,1.211a4.639,4.639,0,0,1-2.1,3.634c-1.159.668-2.1.127-2.1-1.211A4.636,4.636,0,0,1,145.747,194.444Z" transform="translate(-143.649 -166.106)" fill="#27debf"/>
              <path id="Path_3012" data-name="Path 3012" d="M151.78,190.961c1.159-.67,2.1-.127,2.1,1.211a4.639,4.639,0,0,1-2.1,3.634c-1.16.668-2.1.127-2.1-1.211A4.633,4.633,0,0,1,151.78,190.961Z" transform="translate(-142.741 -166.631)" fill="#27debf"/>
              <path id="Path_3013" data-name="Path 3013" d="M157.813,187.478c1.159-.67,2.1-.128,2.1,1.211a4.635,4.635,0,0,1-2.1,3.633c-1.16.67-2.1.128-2.1-1.211A4.633,4.633,0,0,1,157.813,187.478Z" transform="translate(-141.833 -167.155)" fill="#27debf"/>
              <path id="Path_3014" data-name="Path 3014" d="M163.846,183.993c1.159-.668,2.1-.127,2.1,1.213a4.635,4.635,0,0,1-2.1,3.633c-1.16.67-2.1.127-2.1-1.211A4.637,4.637,0,0,1,163.846,183.993Z" transform="translate(-140.926 -167.679)" fill="#27debf"/>
              <path id="Path_3015" data-name="Path 3015" d="M169.879,180.51c1.159-.668,2.1-.127,2.1,1.211a4.635,4.635,0,0,1-2.1,3.634c-1.16.67-2.1.127-2.1-1.211A4.637,4.637,0,0,1,169.879,180.51Z" transform="translate(-140.018 -168.203)" fill="#27debf"/>
              <path id="Path_3016" data-name="Path 3016" d="M175.911,177.027c1.16-.668,2.1-.127,2.1,1.211a4.635,4.635,0,0,1-2.1,3.634c-1.159.67-2.1.127-2.1-1.211A4.639,4.639,0,0,1,175.911,177.027Z" transform="translate(-139.11 -168.727)" fill="#27debf"/>
              <path id="Path_3017" data-name="Path 3017" d="M181.944,173.544c1.159-.668,2.1-.127,2.1,1.211a4.64,4.64,0,0,1-2.1,3.634c-1.159.67-2.1.127-2.1-1.211A4.639,4.639,0,0,1,181.944,173.544Z" transform="translate(-138.202 -169.251)" fill="#27debf"/>
              <path id="Path_3018" data-name="Path 3018" d="M187.977,170.061c1.16-.668,2.1-.127,2.1,1.211a4.637,4.637,0,0,1-2.1,3.634c-1.159.668-2.1.127-2.1-1.211A4.637,4.637,0,0,1,187.977,170.061Z" transform="translate(-137.295 -169.775)" fill="#27debf"/>
            </g>
          </g>
          <path id="Path_3019" data-name="Path 3019" d="M96.477,303.124l177.277-102.35a5.508,5.508,0,0,1,4.982,0l9.067,5.236c1.376.794,1.376,2.081,0,2.875L110.5,311.219a5.508,5.508,0,0,1-4.982,0L96.477,306C95.1,305.205,95.1,303.918,96.477,303.124Z" transform="translate(-65.947 -6.703)" fill="#37474f"/>
          <path id="Path_3020" data-name="Path 3020" d="M116.789,314.85,294.064,212.5a5.508,5.508,0,0,1,4.982,0l55.771,32.2c1.376.795,1.375,2.082,0,2.876L177.744,349.786a5.531,5.531,0,0,1-4.987.007l-55.963-32.074C115.415,316.928,115.413,315.644,116.789,314.85Z" transform="translate(-62.89 -4.938)" fill="#263238"/>
          <path id="Path_3021" data-name="Path 3021" d="M275.058,257.979l5.55-3.2c.236-.137.222-.366-.031-.512l-6.418-3.706a.976.976,0,0,0-.885-.017l-5.551,3.2c-.236.136-.222.365.032.511l6.417,3.706A.982.982,0,0,0,275.058,257.979ZM264.1,245.246l-5.551,3.205c-.235.136-.221.365.032.511L265,252.668a.98.98,0,0,0,.885.018l5.551-3.205c.236-.136.222-.365-.031-.511l-6.418-3.706A.982.982,0,0,0,264.1,245.246ZM246.172,255.6l-9.394,5.423c-.235.136-.221.365.032.511l6.418,3.7a.976.976,0,0,0,.885.018l9.394-5.422c.236-.137.222-.366-.032-.512l-6.417-3.706A.979.979,0,0,0,246.172,255.6Zm9.82-5.671-5.551,3.205c-.235.136-.222.365.032.511l6.419,3.706a.98.98,0,0,0,.885.018l5.55-3.2c.236-.137.223-.366-.031-.512l-6.418-3.7A.977.977,0,0,0,255.992,249.929ZM234.217,262.5l-5.551,3.2c-.236.137-.221.366.031.512l6.42,3.706a.98.98,0,0,0,.885.018l5.551-3.205c.235-.136.221-.365-.032-.511L235.1,262.52A.98.98,0,0,0,234.217,262.5Zm-8.113,4.684-5.55,3.205c-.236.136-.222.365.031.511l6.418,3.7a.975.975,0,0,0,.886.018l5.55-3.2c.236-.137.222-.365-.031-.511L226.99,267.2A.982.982,0,0,0,226.1,267.185Zm25.246,15.069,5.551-3.205c.235-.136.222-.365-.032-.511l-6.417-3.706a.979.979,0,0,0-.886-.017l-5.55,3.2c-.236.136-.222.365.031.511l6.418,3.706A.98.98,0,0,0,251.35,282.254Zm-8.112,4.684,5.551-3.2c.236-.137.221-.366-.032-.512l-6.417-3.706a.982.982,0,0,0-.886-.018L235.9,282.7c-.236.136-.221.365.031.511l6.418,3.706A.982.982,0,0,0,243.238,286.938Zm-8.112,4.684,5.55-3.205c.236-.136.222-.364-.031-.511l-6.418-3.706a.98.98,0,0,0-.885-.018l-5.551,3.205c-.236.137-.222.365.032.511l6.417,3.706A.982.982,0,0,0,235.126,291.621Zm-8.113,4.684,5.551-3.2c.236-.137.222-.366-.032-.512l-6.417-3.7a.979.979,0,0,0-.886-.018l-5.55,3.2c-.236.136-.222.365.031.512l6.418,3.7A.976.976,0,0,0,227.013,296.3Zm39.933-33.642,5.55-3.2c.236-.137.222-.366-.031-.512l-6.418-3.7a.976.976,0,0,0-.885-.018l-5.551,3.2c-.236.137-.222.365.031.512l6.418,3.706A.982.982,0,0,0,266.946,262.663Zm-7.483,14.908,12.381-7.149c.236-.136.222-.365-.031-.511l-15.588-9a.98.98,0,0,0-.885-.018l-6.4,3.7c-.236.136-.222.365.031.511l8.252,4.764c.253.146.267.375.031.512l-5.123,2.958c-.236.136-.222.365.031.511l6.418,3.706A.982.982,0,0,0,259.463,277.571Zm-41.471-5.7-5.551,3.205c-.235.136-.221.365.032.511l6.418,3.706a.98.98,0,0,0,.885.018l5.551-3.205c.236-.136.222-.365-.032-.511l-6.417-3.706A.982.982,0,0,0,217.992,271.869Zm-8.112,4.684-5.551,3.205c-.236.136-.222.365.032.511l6.417,3.706a.982.982,0,0,0,.886.018l5.55-3.205c.237-.136.222-.365-.031-.511l-6.418-3.706A.98.98,0,0,0,209.88,276.552Zm-40.538,52.52a.98.98,0,0,0,.885.018l5.551-3.205c.236-.136.222-.366-.032-.511l-6.417-3.706a.982.982,0,0,0-.886-.018l-5.55,3.2c-.236.137-.222.366.031.512Zm-24.361-15.05-5.55,3.2c-.236.136-.222.365.031.512l6.418,3.7a.979.979,0,0,0,.886.018l5.55-3.2c.236-.137.222-.366-.031-.512l-6.418-3.7A.979.979,0,0,0,144.981,314.022Zm13.057,10.989a.982.982,0,0,0,.886.018l5.551-3.205c.235-.136.221-.365-.032-.511l-6.417-3.706a.982.982,0,0,0-.886-.018l-5.551,3.205c-.236.136-.221.365.032.511Zm25.628,6.907,5.551-3.2c.236-.137.221-.366-.031-.512l-6.418-3.706a.982.982,0,0,0-.886-.017l-5.551,3.2c-.235.136-.221.366.032.512l6.417,3.7A.979.979,0,0,0,183.666,331.919Zm-9,4.665a.979.979,0,0,0,.886.018l5.55-3.2c.236-.137.222-.365-.031-.511l-6.418-3.706a.976.976,0,0,0-.885-.018l-5.551,3.2c-.236.137-.222.365.032.511Zm-21.574-27.245-5.551,3.2c-.236.137-.221.365.032.511l6.417,3.706a.982.982,0,0,0,.886.018l5.55-3.2c.237-.137.222-.365-.031-.512l-6.417-3.7A.975.975,0,0,0,153.094,309.339Zm40.561-23.419-5.551,3.205c-.235.136-.221.365.032.511l6.418,3.706a.98.98,0,0,0,.885.018l5.551-3.205c.236-.136.221-.365-.031-.511l-6.418-3.706A.982.982,0,0,0,193.655,285.92Zm-32.449,18.735-5.55,3.2c-.236.136-.222.366.031.511l6.417,3.706a.979.979,0,0,0,.886.018l5.551-3.2c.236-.137.221-.366-.032-.512l-6.417-3.706A.982.982,0,0,0,161.206,304.655Zm40.561-23.419-5.55,3.205c-.236.136-.222.365.032.511l6.417,3.706a.982.982,0,0,0,.886.018l5.55-3.205c.236-.136.222-.365-.031-.511l-6.418-3.706A.982.982,0,0,0,201.767,281.236ZM185.543,290.6l-5.55,3.2c-.237.136-.223.365.031.511l6.418,3.706a.98.98,0,0,0,.885.018l5.551-3.205c.236-.136.222-.365-.032-.511l-6.418-3.706A.976.976,0,0,0,185.543,290.6Zm-8.112,4.682-5.551,3.205c-.236.136-.222.365.031.511l6.418,3.706a.982.982,0,0,0,.886.018l5.551-3.2c.235-.137.221-.366-.032-.512l-6.417-3.706A.982.982,0,0,0,177.431,295.287Zm-8.112,4.685-5.551,3.2c-.236.136-.222.365.031.511l6.418,3.706a.982.982,0,0,0,.886.018l5.55-3.2c.236-.137.222-.366-.031-.512l-6.418-3.706A.976.976,0,0,0,169.319,299.971Zm41.47,5.7,5.55-3.2c.236-.136.222-.366-.031-.511l-6.418-3.706a.976.976,0,0,0-.885-.018l-5.551,3.2c-.236.137-.222.365.032.512l6.417,3.706A.979.979,0,0,0,210.789,305.672Zm71.247-70.779-5.55,3.205c-.236.136-.222.365.031.511l6.418,3.706a.982.982,0,0,0,.886.018l5.55-3.205c.236-.136.222-.365-.031-.511l-6.418-3.706A.982.982,0,0,0,282.037,234.893Zm-9.82,5.669-5.55,3.205c-.236.136-.222.365.031.511l6.418,3.706A.98.98,0,0,0,274,248l5.551-3.205c.236-.136.222-.365-.031-.511l-6.418-3.706A.982.982,0,0,0,272.216,240.562Zm17.932-10.353-5.55,3.205c-.236.136-.222.365.031.511l6.418,3.706a.976.976,0,0,0,.885.017l5.551-3.2c.236-.136.222-.365-.031-.511l-6.418-3.706A.982.982,0,0,0,290.149,230.209Zm-41.99,43.3,5.551-3.2c.236-.137.222-.366-.032-.512l-6.417-3.706a.982.982,0,0,0-.886-.018l-5.55,3.205c-.236.136-.222.365.031.511l6.418,3.706A.98.98,0,0,0,248.159,273.51Zm50.988-47.965a.98.98,0,0,0-.885-.018l-5.55,3.2c-.236.137-.222.366.031.512l6.418,3.706a.98.98,0,0,0,.885.018l5.55-3.205c.236-.136.223-.365-.031-.511ZM218.9,300.988l5.551-3.2c.236-.137.221-.366-.032-.512L218,293.567a.982.982,0,0,0-.886-.018l-5.551,3.205c-.236.137-.221.366.032.511l6.417,3.706A.979.979,0,0,0,218.9,300.988Zm99.482-57.436,5.551-3.2c.236-.137.221-.366-.032-.512l-6.418-3.706a.976.976,0,0,0-.885-.017l-5.551,3.2c-.235.136-.221.365.032.512l6.417,3.7A.982.982,0,0,0,318.384,243.552Zm-17.28-.61,5.55-3.205c.236-.136.222-.365-.032-.511l-6.417-3.706a.982.982,0,0,0-.886-.018l-5.55,3.205c-.236.136-.222.365.031.511l6.418,3.706A.982.982,0,0,0,301.1,242.943Zm7.212-12.105a.982.982,0,0,0-.886-.018l-5.55,3.205c-.236.136-.222.365.031.511l6.418,3.706a.98.98,0,0,0,.885.018l5.551-3.205c.236-.136.222-.365-.031-.511Zm1.708-.986,15.587,9a.98.98,0,0,0,.885.018l5.551-3.2c.236-.137.222-.366-.031-.512l-15.588-9a.982.982,0,0,0-.886-.018l-5.55,3.205C309.756,229.476,309.77,229.705,310.024,229.851Zm-18.818,10.336-5.551,3.2c-.236.136-.222.365.032.511l6.418,3.706a.98.98,0,0,0,.885.018l5.551-3.205c.235-.136.222-.365-.032-.511l-6.417-3.706A.979.979,0,0,0,291.206,240.187Zm-61.055,35.249-5.551,3.205c-.236.136-.222.365.032.511l6.417,3.706a.982.982,0,0,0,.886.018l5.55-3.2c.237-.137.222-.366-.031-.512l-6.418-3.706A.98.98,0,0,0,230.151,275.437Zm79.236-27.219a.98.98,0,0,0,.885.018l5.551-3.2c.235-.137.222-.366-.032-.512l-6.418-3.706a.98.98,0,0,0-.885-.018L302.936,244c-.236.136-.222.366.032.511Zm-71.124,22.537-5.551,3.2c-.236.136-.221.365.032.511l6.417,3.706a.982.982,0,0,0,.886.018l5.551-3.205c.236-.136.221-.365-.032-.511l-6.417-3.706A.979.979,0,0,0,238.263,270.754Zm-60.808,53.635a.979.979,0,0,0,.886.017l5.55-3.2c.236-.136.222-.365-.031-.511l-6.418-3.706a.98.98,0,0,0-.885-.018L171,320.173c-.236.136-.221.365.031.511Zm-12.2-11.483-5.55,3.205c-.236.136-.222.365.031.511l6.418,3.706a.98.98,0,0,0,.885.018l5.551-3.205c.236-.136.222-.365-.032-.511l-6.417-3.706A.982.982,0,0,0,165.251,312.906Zm21.2,6.816,5.55-3.2c.236-.136.222-.365-.031-.511l-6.418-3.706a.979.979,0,0,0-.886-.018l-5.55,3.2c-.236.137-.222.366.032.512l6.417,3.7A.979.979,0,0,0,186.452,319.723Zm8.112-4.682,5.551-3.205c.236-.136.222-.365-.031-.511l-6.42-3.706a.98.98,0,0,0-.885-.018l-5.551,3.2c-.235.137-.221.366.032.512l6.418,3.706A.98.98,0,0,0,194.564,315.04Zm8.112-4.685,5.551-3.2c.236-.137.221-.365-.031-.512l-6.418-3.706a.982.982,0,0,0-.886-.017l-5.55,3.2c-.236.136-.222.366.031.511l6.418,3.706A.976.976,0,0,0,202.676,310.356Zm-29.313-2.133-5.55,3.2c-.236.137-.222.366.031.512l6.418,3.7a.975.975,0,0,0,.886.018l5.55-3.2c.236-.136.222-.365-.031-.512l-6.418-3.7A.982.982,0,0,0,173.363,308.223Zm8.113-4.684-5.551,3.2c-.236.137-.222.365.031.512l6.418,3.706a.982.982,0,0,0,.886.018l5.551-3.205c.235-.137.221-.365-.032-.511l-6.418-3.706A.98.98,0,0,0,181.476,303.539ZM213.925,284.8l-5.551,3.2c-.236.137-.221.365.032.512l6.417,3.7a.979.979,0,0,0,.886.018l5.551-3.2c.236-.136.221-.366-.031-.512l-6.418-3.7A.979.979,0,0,0,213.925,284.8Zm-8.112,4.684-5.551,3.2c-.236.136-.222.366.032.511l6.417,3.706a.979.979,0,0,0,.886.018l5.55-3.2c.236-.137.222-.365-.031-.512l-6.418-3.706A.976.976,0,0,0,205.814,289.488Zm16.224-9.368-5.55,3.205c-.236.136-.222.365.031.511l6.418,3.706a.976.976,0,0,0,.885.018l5.551-3.205c.236-.136.222-.365-.032-.511l-6.417-3.706A.982.982,0,0,0,222.037,280.12Zm-32.449,18.735-5.55,3.2c-.236.137-.222.366.031.511l6.418,3.706a.976.976,0,0,0,.885.018l5.551-3.2c.236-.137.222-.365-.032-.512l-6.417-3.7A.979.979,0,0,0,189.588,298.855Zm8.112-4.684-5.55,3.2c-.236.137-.222.366.031.512l6.418,3.706a.98.98,0,0,0,.885.018l5.551-3.205c.236-.137.222-.366-.031-.511l-6.418-3.706A.982.982,0,0,0,197.7,294.172Zm-5.923,33.063,5.551-3.2c.236-.137.221-.365-.031-.512l-6.418-3.706a.979.979,0,0,0-.886-.017l-5.55,3.2c-.236.137-.222.365.031.511l6.418,3.707A.983.983,0,0,0,191.778,327.235Zm-47.6-4.807-6.418-3.7a.979.979,0,0,0-.886-.018l-5.55,3.2c-.237.137-.222.365.031.512l6.417,3.706a.982.982,0,0,0,.886.017l5.551-3.2C144.441,322.8,144.426,322.576,144.174,322.429ZM156.331,326l-6.418-3.706a.98.98,0,0,0-.885-.018l-8.54,4.931c-.236.136-.221.365.032.511l6.417,3.706a.978.978,0,0,0,.886.017l8.539-4.93C156.6,326.372,156.584,326.143,156.331,326Zm-22.005-10.733-6.417-3.7a.975.975,0,0,0-.886-.018l-6.831,3.944c-.236.136-.222.365.032.511l6.417,3.706a.982.982,0,0,0,.886.018l6.831-3.944C134.594,315.641,134.579,315.411,134.326,315.265Zm5.238-3.023a.98.98,0,0,0,.885.018L146,309.054c.236-.136.222-.365-.031-.511l-6.418-3.706a.982.982,0,0,0-.886-.018l-5.55,3.205c-.236.136-.222.365.031.511Zm28.07,17.817-6.417-3.706a.982.982,0,0,0-.886-.018L149.657,332.5c-.236.136-.222.365.031.511l6.418,3.706a.98.98,0,0,0,.885.018l10.675-6.163C167.9,330.434,167.887,330.2,167.634,330.059Zm5.327,7.511-6.418-3.7a.976.976,0,0,0-.885-.018l-6.831,3.944c-.237.136-.222.366.031.511l6.418,3.706a.98.98,0,0,0,.885.018l6.831-3.944C173.228,337.946,173.213,337.716,172.961,337.57Zm26.919-60.152a.98.98,0,0,0,.885.018l5.551-3.205c.236-.136.222-.364-.031-.51l-6.418-3.707a.982.982,0,0,0-.886-.018l-5.55,3.205c-.236.137-.222.365.031.511Zm-16.225,9.367a.979.979,0,0,0,.886.018l5.55-3.205c.236-.136.222-.364-.031-.511l-6.418-3.7a.976.976,0,0,0-.885-.018l-5.551,3.2c-.236.137-.221.365.031.512Zm-35.979,20.773a.98.98,0,0,0,.885.018l5.551-3.205c.236-.136.222-.365-.031-.511l-6.418-3.706a.982.982,0,0,0-.886-.018l-5.55,3.205c-.236.136-.222.365.031.511ZM191.766,282.1a.979.979,0,0,0,.886.018l5.551-3.2c.236-.137.221-.366-.032-.512l-6.417-3.706a.982.982,0,0,0-.886-.017l-5.55,3.2c-.236.136-.222.365.031.512Zm-16.224,9.368a.982.982,0,0,0,.886.017l5.55-3.2c.236-.136.222-.366-.031-.512l-6.418-3.7a.979.979,0,0,0-.886-.018l-5.55,3.2c-.236.137-.222.366.031.512Zm1.876,46.7a.979.979,0,0,0-.886-.018l-8.539,4.93c-.236.136-.221.366.032.512l6.417,3.7a.979.979,0,0,0,.886.018l8.539-4.93c.236-.136.222-.365-.031-.511ZM163.9,298.19a.976.976,0,0,0,.885.017l5.551-3.2c.236-.136.221-.365-.032-.511l-6.417-3.706a.982.982,0,0,0-.886-.018l-5.55,3.205c-.237.136-.222.365.031.511Zm-8.113,4.684a.982.982,0,0,0,.886.018l5.55-3.205c.236-.136.222-.365-.031-.511l-6.418-3.706a.98.98,0,0,0-.885-.018l-5.551,3.205c-.236.136-.222.365.032.511ZM327.71,251.4a.982.982,0,0,0-.886-.018l-13.663,7.889c-.236.136-.222.365.031.511l6.42,3.706a.98.98,0,0,0,.885.018l13.663-7.889c.236-.136.222-.365-.032-.511Zm-17.932,10.353a.982.982,0,0,0-.886-.018l-5.551,3.205c-.236.136-.221.365.032.511l6.417,3.706a.982.982,0,0,0,.886.018l5.551-3.205c.236-.136.221-.365-.032-.511Zm-109.887,60.8,5.55-3.2c.236-.137.222-.366-.031-.512l-6.418-3.706a.976.976,0,0,0-.885-.017l-5.551,3.2c-.236.136-.222.365.031.511l6.418,3.706A.982.982,0,0,0,199.891,322.552Zm93.662-51.429a.982.982,0,0,0-.886-.018l-5.55,3.205c-.236.137-.222.365.031.511l6.418,3.706a.98.98,0,0,0,.885.018L300,275.339c.236-.136.222-.365-.031-.511Zm42.269-24.4a.982.982,0,0,0-.886-.018l-5.55,3.205c-.236.136-.222.365.031.511l6.418,3.706a.98.98,0,0,0,.885.018l5.551-3.205c.236-.136.222-.365-.031-.511Zm14.53-.978-15.587-9a.982.982,0,0,0-.886-.018l-5.551,3.205c-.236.136-.221.366.032.511l15.587,9a.982.982,0,0,0,.886.018l5.55-3.205C350.62,246.116,350.606,245.887,350.353,245.741Zm-87.115,42.884a.976.976,0,0,0-.885-.017l-6.831,3.944c-.236.136-.222.365.031.511l6.419,3.706a.978.978,0,0,0,.886.017l6.83-3.944c.236-.136.222-.365-.031-.511Zm20.494-11.833a.976.976,0,0,0-.885-.017l-8.54,4.93c-.236.136-.221.365.031.511l6.418,3.706a.982.982,0,0,0,.886.018l8.539-4.93c.236-.137.222-.365-.031-.512Zm-39.281,22.679a.982.982,0,0,0-.886-.018l-45.684,26.377c-.236.136-.222.365.031.511l6.418,3.706a.98.98,0,0,0,.885.018L250.9,303.687c.236-.136.222-.365-.031-.511Zm-48.246,27.855a.982.982,0,0,0-.886-.018l-6.831,3.944c-.236.137-.222.366.031.512l6.418,3.706a.976.976,0,0,0,.885.017l6.833-3.944c.235-.136.221-.365-.032-.511Zm57.64-33.279a.982.982,0,0,0-.886-.018l-6.831,3.944c-.236.137-.222.366.031.512l6.418,3.7a.979.979,0,0,0,.886.02l6.831-3.945c.236-.136.221-.365-.032-.511Zm-67.033,38.7a.982.982,0,0,0-.886-.018l-6.831,3.944c-.236.137-.221.366.032.512l6.417,3.706a.982.982,0,0,0,.886.018l6.831-3.945c.236-.136.222-.365-.031-.511ZM272.632,283.2a.973.973,0,0,0-.885-.018l-6.833,3.944c-.235.136-.221.365.032.511l6.418,3.706a.98.98,0,0,0,.885.018l6.832-3.945c.236-.136.222-.365-.031-.511Zm29.033-16.764a.98.98,0,0,0-.885-.018l-5.551,3.205c-.236.136-.222.365.032.511l6.417,3.706a.982.982,0,0,0,.886.018l5.55-3.2c.236-.137.222-.366-.031-.512Zm17.775-12.909,5.551-3.2c.236-.137.222-.366-.031-.512l-6.418-3.7a.979.979,0,0,0-.886-.018l-5.55,3.2c-.236.136-.222.366.031.512l6.418,3.7A.976.976,0,0,0,319.44,253.529Zm-36.27-.234,5.551-3.2c.236-.137.221-.366-.031-.512l-6.418-3.7a.975.975,0,0,0-.886-.018l-5.55,3.2c-.237.137-.222.365.031.511l6.417,3.706A.982.982,0,0,0,283.17,253.3Zm-18.381,31.787,16.225-9.368c.236-.136.221-.365-.032-.511l-6.417-3.706a.982.982,0,0,0-.886-.018l-16.225,9.368c-.236.136-.221.365.032.511l6.417,3.7A.979.979,0,0,0,264.789,285.083ZM310.443,258.2a.976.976,0,0,0,.885.017l5.551-3.2c.236-.136.222-.365-.032-.511l-6.418-3.707a.983.983,0,0,0-.885-.017l-5.551,3.205c-.235.136-.221.365.032.511Zm-8.283-5.276,5.551-3.2c.235-.137.221-.366-.032-.511L301.26,245.5a.976.976,0,0,0-.885-.018l-5.551,3.2c-.236.137-.222.365.031.511l6.418,3.706A.982.982,0,0,0,302.16,252.92Zm-45.483,36.847,5.55-3.205c.236-.136.222-.365-.031-.511l-6.418-3.706a.98.98,0,0,0-.885-.018l-5.551,3.205c-.236.136-.222.365.032.511l6.417,3.706A.982.982,0,0,0,256.677,289.767Zm35.833-21.218a.982.982,0,0,0,.886.018l5.551-3.205c.236-.136.221-.365-.032-.511l-6.417-3.706a.982.982,0,0,0-.886-.018l-5.551,3.2c-.236.137-.221.366.032.512Zm-76.394,44.636,5.55-3.205c.236-.136.222-.365-.031-.511l-6.418-3.706a.982.982,0,0,0-.886-.018l-5.55,3.205c-.236.136-.222.365.031.511l6.418,3.706A.982.982,0,0,0,216.116,313.185Zm8.112-4.684,5.55-3.205c.236-.136.222-.365-.031-.511l-6.418-3.706a.976.976,0,0,0-.885-.017l-5.551,3.2c-.236.136-.222.365.031.511l6.418,3.706A.979.979,0,0,0,224.228,308.5ZM208,317.868l5.551-3.205c.236-.136.221-.365-.032-.511l-6.417-3.706a.979.979,0,0,0-.886-.017l-5.551,3.2c-.236.136-.221.365.032.511l6.417,3.707A.986.986,0,0,0,208,317.868Zm32.449-18.734,5.551-3.2c.236-.137.222-.366-.032-.512l-6.417-3.706a.982.982,0,0,0-.886-.018l-5.551,3.205c-.235.136-.221.365.032.511l6.417,3.706A.982.982,0,0,0,240.452,299.134Zm-8.112,4.682,5.55-3.2c.236-.136.222-.365-.031-.511L231.44,296.4a.982.982,0,0,0-.886-.018L225,299.583c-.236.136-.222.365.032.511l6.418,3.706A.976.976,0,0,0,232.34,303.816Zm16.224-9.366,5.551-3.205c.236-.136.222-.365-.031-.511l-6.418-3.706a.982.982,0,0,0-.886-.018l-5.55,3.205c-.236.136-.222.365.031.511l6.418,3.706A.98.98,0,0,0,248.564,294.45Zm37.114-69.287a.982.982,0,0,0,.886.018l5.55-3.205c.236-.137.222-.365-.031-.511l-1.708-.987a.982.982,0,0,0-.886-.018l-5.551,3.205c-.235.136-.221.365.032.511Zm-39.914,25.762a.975.975,0,0,0,.886.018l5.55-3.2c.236-.136.222-.365-.031-.511l-6.418-3.706a.976.976,0,0,0-.885-.018l-5.551,3.2c-.236.137-.222.366.031.512Zm16.225-9.366a.98.98,0,0,0,.885.017l5.551-3.2c.236-.137.221-.365-.031-.512l-6.42-3.706a.976.976,0,0,0-.885-.017l-5.551,3.2c-.235.137-.221.366.032.511Zm-26.131,15.086a.976.976,0,0,0,.885.017l5.551-3.2c.236-.136.222-.365-.032-.511l-6.417-3.706a.982.982,0,0,0-.886-.018l-5.55,3.205c-.236.136-.222.365.031.511Zm18.018-10.4a.982.982,0,0,0,.886.018l5.551-3.205c.235-.136.221-.366-.032-.511l-6.419-3.706a.98.98,0,0,0-.885-.018l-5.551,3.2c-.236.137-.222.366.031.512Zm-34.243,19.77a.979.979,0,0,0,.886.017l5.55-3.2c.236-.136.222-.365-.031-.511l-6.418-3.706a.98.98,0,0,0-.885-.018l-5.551,3.205c-.236.136-.221.365.032.511Zm8.112-4.684a.982.982,0,0,0,.886.018l5.551-3.205c.236-.136.221-.365-.032-.511l-6.417-3.706a.982.982,0,0,0-.886-.018l-5.55,3.2c-.237.137-.222.366.031.512Zm41.708-26.8a.982.982,0,0,0,.886.018l5.551-3.205c.236-.136.221-.365-.032-.511l-1.708-.987a.98.98,0,0,0-.885-.018l-5.551,3.205c-.236.136-.222.365.031.511Zm24.337-14.052a.979.979,0,0,0,.886.018l5.551-3.2c.236-.137.221-.365-.032-.512l-1.708-.986a.976.976,0,0,0-.885-.017l-5.551,3.2c-.236.136-.222.365.031.511Zm13.482,7.785a.982.982,0,0,0,.886.017l5.551-3.2c.236-.137.221-.365-.031-.511l-6.418-3.706a.975.975,0,0,0-.886-.018l-5.551,3.205c-.236.136-.221.365.032.51Zm20.28,20.582,5.55-3.205c.236-.135.222-.364-.031-.51l-6.418-3.706a.98.98,0,0,0-.885-.018l-5.551,3.2c-.236.137-.222.365.032.511l6.417,3.707A.979.979,0,0,0,327.553,248.846Zm-49.987-19a.973.973,0,0,0,.885.018l5.551-3.2c.236-.136.222-.365-.032-.512l-1.708-.986a.976.976,0,0,0-.885-.017l-5.551,3.2c-.235.136-.222.365.032.511ZM211.521,270.7a.98.98,0,0,0,.885.018l5.551-3.205c.236-.136.222-.365-.031-.511l-6.418-3.706a.982.982,0,0,0-.886-.018l-5.55,3.205c-.236.136-.222.365.031.511Z" transform="translate(-62.249 -4.37)" fill="#455a64"/>
          <path id="Path_3022" data-name="Path 3022" d="M230.986,310.056l54.774-31.624a6.609,6.609,0,0,1,5.978,0l31.409,18.134c1.651.953,1.651,2.5,0,3.451l-54.775,31.624a6.61,6.61,0,0,1-5.978,0l-31.408-18.134C229.335,312.553,229.335,311.008,230.986,310.056Z" transform="translate(-45.738 4.965)" fill="#263238"/>
        </g>
      </g>
      <g id="Shield" transform="translate(240.483 155.434)">
        <g id="Shield-2" data-name="Shield">
          <path id="Path_3023" data-name="Path 3023" d="M331.7,174.62a.011.011,0,0,1,.012-.011l-.069-.046-9.351-5.386c-.541-.242-1.335-.012-2.289.713-8.7,6.66-20.4,8.724-29.958,5.682a22.708,22.708,0,0,1-1.751-1.814c-.058-.069-.115-.138-.173-.2h-.011a3.674,3.674,0,0,0-.966-.794l-.161-.092-9.363-5.375c-1.07-.506-2.036,0-2.681,1.588-9.043,22.469-28.313,45.236-41.164,50.931a7.269,7.269,0,0,0-2.531,1.887,5.391,5.391,0,0,0-1.427,3.682l1.852,50.448c0,14.576,6.155,29.97,18.707,37.459l9.685,5.594.173.092a34.074,34.074,0,0,0,17.165,4.36c1.346,0,2.715-.058,4.13-.2a13.858,13.858,0,0,0,7.317-3.658c28.083-29,41.739-68.257,41.739-89.978l1.852-52.772C332.486,175.6,332.21,174.9,331.7,174.62Z" transform="translate(-229.818 -167.112)" fill="#fbb613"/>
          <path id="Path_3024" data-name="Path 3024" d="M331.217,176.034l-1.852,52.772c0,21.721-13.656,60.975-41.739,89.978a13.858,13.858,0,0,1-7.317,3.658c-1.415.138-2.784.2-4.13.2a34.074,34.074,0,0,1-17.165-4.36l-.173-.092-.334-.207c-12.552-7.49-18.707-22.883-18.707-37.459l-1.852-50.448a5.391,5.391,0,0,1,1.427-3.682,7.268,7.268,0,0,1,2.531-1.887c12.851-5.695,32.121-28.463,41.164-50.931.644-1.588,1.622-2.105,2.692-1.6h0l.161.092a3.674,3.674,0,0,1,.966.794h.011c.058.058.115.127.173.2,9.595,11.171,28.463,11.16,41.06,1.519.955-.725,1.749-.955,2.289-.713l.069.046a.011.011,0,0,0-.012.011C330.987,174.193,331.263,174.895,331.217,176.034Z" transform="translate(-228.595 -166.409)" fill="#fbb613"/>
          <g id="Group_397" data-name="Group 397" transform="translate(0.796 0)">
            <path id="Path_3025" data-name="Path 3025" d="M323.77,174.3c-.542-.242-1.335-.012-2.289.713-11.861,9.077-29.292,9.618-39.289.3,9.56,3.049,21.237.978,29.934-5.683.955-.725,1.749-.955,2.289-.713Z" transform="translate(-222.736 -166.851)" fill="#fff" opacity="0.4"/>
            <path id="Path_3026" data-name="Path 3026" d="M286.885,172.67c-1.07-.506-2.049.012-2.692,1.6-9.044,22.469-28.314,45.236-41.165,50.931a7.28,7.28,0,0,0-2.531,1.887,6.085,6.085,0,0,0-.644.886l-9.341-5.4a6.462,6.462,0,0,1,.632-.874,4.984,4.984,0,0,1,.415-.426l.012-.012c.056-.046.1-.1.161-.161a1.91,1.91,0,0,0,.161-.15,6.916,6.916,0,0,1,1.783-1.139c12.851-5.695,32.121-28.463,41.163-50.931.645-1.588,1.612-2.094,2.681-1.588Z" transform="translate(-230.512 -167.109)" fill="#fff" opacity="0.4"/>
            <path id="Path_3027" data-name="Path 3027" d="M231.433,214.193a.906.906,0,0,1,.161-.15c-.059.058-.1.115-.161.161C231.433,214.2,231.421,214.193,231.433,214.193Z" transform="translate(-230.374 -160.047)" fill="#27debf"/>
            <path id="Path_3028" data-name="Path 3028" d="M231.594,214.043c-.059.058-.1.115-.161.161,0,0-.012-.011,0-.011A.906.906,0,0,1,231.594,214.043Z" transform="translate(-230.374 -160.047)" opacity="0.15"/>
          </g>
          <path id="Path_3029" data-name="Path 3029" d="M260.241,311.721l-.174-.081-9.687-5.6c-12.55-7.49-18.705-22.883-18.705-37.459l-1.852-50.448a4.99,4.99,0,0,1,.794-2.807l9.341,5.4a5.052,5.052,0,0,0-.781,2.8l1.851,50.448c0,14.576,6.156,29.97,18.708,37.459l.332.207Z" transform="translate(-229.817 -159.858)" opacity="0.15"/>
          <g id="Group_398" data-name="Group 398" transform="translate(47.902 63.995)">
            <path id="Path_3030" data-name="Path 3030" d="M287.017,264.187l-14.952,8.633,2.317-27.048c-1.789-.946-2.928-3.272-2.928-6.613,0-5.956,3.621-12.874,8.088-15.453s8.087.159,8.087,6.115a20.325,20.325,0,0,1-2.928,9.994Z" transform="translate(-271.455 -222.737)" fill="#455a64"/>
            <path id="Path_3031" data-name="Path 3031" d="M286.938,259.789,273.4,251.97l-1.409,16.451Z" transform="translate(-271.375 -218.338)" fill="#37474f"/>
            <path id="Path_3032" data-name="Path 3032" d="M279.387,223.707c-2.923,1.687-5.475,5.235-6.9,9.152l12.056,6.96v0a20.328,20.328,0,0,0,2.928-9.994C287.474,223.866,283.853,221.129,279.387,223.707Z" transform="translate(-271.299 -222.737)" fill="#37474f"/>
          </g>
        </g>
      </g>
      <g id="Key" transform="translate(109.445 397.406)">
        <g id="Key-2" data-name="Key">
          <path id="Path_3033" data-name="Path 3033" d="M115.918,397.435v4.5c-.018,5.284,3.464,10.572,10.446,14.6,10.516,6.072,25.961,7.553,38.9,4.456l12.012,6.935,9.229-2.086,6.3,3.637.344,7.613,3.393,1.959,8.523.749,6.125,3.417v4.291l7.686,4.437h19.546l7.006-4.043v-4.539l-62.514-31.554a14.387,14.387,0,0,0,4.329-9.827v-4.546c-.94-4.388-4.6-6.652-10.432-10.022-13.929-8.042-36.512-8.042-50.441,0C120.1,391.029,116.55,392.707,115.918,397.435Zm19.147-5.253a15.793,15.793,0,0,1,14.289,0c3.946,2.278,3.946,5.972,0,8.25a15.792,15.792,0,0,1-14.289,0C131.119,398.154,131.119,394.459,135.065,392.182Z" transform="translate(-115.918 -376.843)" fill="#fbb613"/>
          <path id="Path_3034" data-name="Path 3034" d="M115.918,397.435v4.5c-.018,5.284,3.464,10.572,10.446,14.6,10.516,6.072,25.961,7.553,38.9,4.456l12.012,6.935,9.229-2.086,6.3,3.637.344,7.613,3.393,1.959,8.523.749,6.125,3.417v4.291l7.686,4.437h19.546l7.006-4.043v-4.539l-62.514-31.554a14.387,14.387,0,0,0,4.329-9.827v-4.546c-.94-4.388-4.6-6.652-10.432-10.022-13.929-8.042-36.512-8.042-50.441,0C120.1,391.029,116.55,392.707,115.918,397.435Zm19.147-5.253a15.793,15.793,0,0,1,14.289,0c3.946,2.278,3.946,5.972,0,8.25a15.792,15.792,0,0,1-14.289,0C131.119,398.154,131.119,394.459,135.065,392.182Z" transform="translate(-115.918 -376.843)" opacity="0.1"/>
          <path id="Path_3035" data-name="Path 3035" d="M126.364,412.59c10.516,6.071,25.961,7.552,38.9,4.456l12.012,6.935,9.229-2.087,6.3,3.637.344,7.614,3.393,1.959,8.523.749,6.645,3.707-.52,4L218.87,448h19.546l7.006-4.043-62.514-36.094c7.362-7.811,5.342-17.786-6.1-24.393-13.929-8.042-36.512-8.042-50.441,0S112.436,404.548,126.364,412.59Zm8.7-24.353a15.785,15.785,0,0,1,14.289,0c3.946,2.278,3.946,5.971,0,8.25a15.792,15.792,0,0,1-14.289,0C131.119,394.207,131.119,390.514,135.065,388.237Z" transform="translate(-115.918 -377.436)" fill="#fbb613"/>
          <path id="Path_3036" data-name="Path 3036" d="M151.068,414.153c-8.841,0-17.1-1.953-23.244-5.5-5.383-3.11-8.471-7.17-8.471-11.14s3.088-8.03,8.471-11.139c6.147-3.548,14.4-5.5,23.244-5.5s17.1,1.953,23.244,5.5c5.383,3.109,8.471,7.17,8.471,11.139s-3.088,8.03-8.471,11.14C168.165,412.2,159.91,414.153,151.068,414.153Zm0-31.7c-8.569,0-16.543,1.879-22.454,5.29-4.88,2.819-7.681,6.381-7.681,9.77s2.8,6.951,7.681,9.771c5.911,3.411,13.885,5.29,22.454,5.29s16.544-1.879,22.455-5.29c4.88-2.82,7.679-6.38,7.679-9.771s-2.8-6.951-7.681-9.77C167.612,384.33,159.638,382.452,151.068,382.452Z" transform="translate(-115.401 -376.92)" opacity="0.3"/>
          <path id="Path_3037" data-name="Path 3037" d="M135.762,412.055v4.537a60.488,60.488,0,0,0,26.511-.19v-4.537A60.487,60.487,0,0,1,135.762,412.055Z" transform="translate(-113.351 -372.046)" opacity="0.1"/>
          <path id="Path_3038" data-name="Path 3038" d="M169.247,418.166V422.7l9.229-2.086v-4.539Z" transform="translate(-107.893 -371.622)" opacity="0.1"/>
          <path id="Path_3039" data-name="Path 3039" d="M182.744,419.24v4.539l.344,7.613v-4.539Z" transform="translate(-105.862 -371.146)" opacity="0.1"/>
          <path id="Path_3040" data-name="Path 3040" d="M185.992,427.561V432.1l8.523.749v-4.539Z" transform="translate(-105.374 -369.894)" opacity="0.1"/>
          <rect id="Rectangle_290" data-name="Rectangle 290" width="19.546" height="4.539" transform="translate(102.953 70.561)" opacity="0.1"/>
          <path id="Path_3041" data-name="Path 3041" d="M229.4,435.255v4.539l-7.006,4.043V439.3l3.07-1.773v1.959l1.695-.978v-1.979Z" transform="translate(-99.896 -368.737)" opacity="0.15"/>
          <path id="Path_3042" data-name="Path 3042" d="M226.759,436.36l-1.695,1v1.959l1.695-.978Z" transform="translate(-99.495 -368.57)" fill="#27debf"/>
          <path id="Path_3043" data-name="Path 3043" d="M234.922,441.073v1.979l-64.11-37.018,1.7-1Z" transform="translate(-107.658 -373.284)" opacity="0.15"/>
          <path id="Path_3044" data-name="Path 3044" d="M172.507,405.036v1.98l-1.7-.981Z" transform="translate(-107.658 -373.284)" opacity="0.15"/>
        </g>
      </g>
      <g id="Character" transform="translate(349.903 208.423)">
        <g id="Character-2" data-name="Character">
          <g id="Group_399" data-name="Group 399" transform="translate(83.287 44.097)">
            <path id="Path_3045" data-name="Path 3045" d="M417.124,294.137c.806-29.965-1.6-37.146-9.573-42.636l-3.09,17.364s3.634,20.461,3.244,27.275c-.343,5.986-.926,13.477-2.341,18.315a3.655,3.655,0,0,1-1.586,2.054c-2.033,1.27-2.852,2.575-4.381,4.176-1.2,1.254-2.218,1.567-2.06,1.966a1.97,1.97,0,0,0,2.525.894,13.812,13.812,0,0,0,2.883-1.563,18.313,18.313,0,0,1-2.952,5.074c-2.849,3.492-2.974,5.637,2.777,5.688,3.6.032,6.479-2.192,9.191-10.132a64.766,64.766,0,0,0,2.533-8.917C415.671,305.835,416.994,298.96,417.124,294.137Z" transform="translate(-397.32 -251.501)" fill="#b16668"/>
          </g>
          <path id="Path_3046" data-name="Path 3046" d="M400.379,249.543c3.807-.552,8.984.246,12.327,6.225s4.162,16.267,4.543,26.5c0,0-6.641,5.553-14.607,2.823Z" transform="translate(-313.573 -207.72)" fill="#27debf"/>
          <path id="Path_3047" data-name="Path 3047" d="M400.379,249.543c3.807-.552,8.984.246,12.327,6.225s4.162,16.267,4.543,26.5c0,0-6.641,5.553-14.607,2.823Z" transform="translate(-313.573 -207.72)" fill="#08aba4" opacity="0.7"/>
          <g id="Group_421" data-name="Group 421" transform="translate(43.954)">
            <g id="Group_406" data-name="Group 406" transform="translate(0 93.134)">
              <g id="Group_400" data-name="Group 400" transform="translate(36.676 102.75)">
                <path id="Path_3048" data-name="Path 3048" d="M412.39,394.181c.6.229.757,1.381.848,3.671.07,1.733.441,4.757-1.589,5.361s-5,.3-6.3-1.338c-1.623-2.039-2.721-3.832-5.038-6.32-2.01-2.158-4.184-4.173-5-7.2-.733-2.735-.123-3.921,1.743-4.716,2.566-1.093,6.6,2.479,8.606,3.042C407.392,387.168,411.785,393.953,412.39,394.181Z" transform="translate(-395.011 -383.435)" fill="#444"/>
              </g>
              <g id="Group_401" data-name="Group 401" transform="translate(46.211 110.358)">
                <path id="Path_3049" data-name="Path 3049" d="M411.143,391.066v2.812a6.882,6.882,0,0,1-7.105.192c-.123-.27-.739-4.022-.739-4.022Z" transform="translate(-403.299 -390.048)" fill="#b16668"/>
              </g>
              <g id="Group_402" data-name="Group 402" transform="translate(0 129.7)">
                <path id="Path_3050" data-name="Path 3050" d="M394.417,406.861s.806,2.445,1.241,4.583c.345,1.7.84,4.541.245,5.819s-2.918,2.1-6.517,2.077c-2.331-.017-5.965,1.566-8.452,2.953-2.569,1.435-7.913,2.005-10.63,1.685-3.2-.375-6.521-2.233-7.039-3.56s.169-2.7,7.717-5.919c.069-.03,10.493-3.419,14.145-7.449Z" transform="translate(-363.132 -406.861)" fill="#444"/>
              </g>
              <g id="Group_403" data-name="Group 403" transform="translate(21.991 126.661)">
                <path id="Path_3051" data-name="Path 3051" d="M391.541,404.219s-.01,2.086,0,3.279-1.4,2.969-5.044,2.838c-2.56-.091-4.348-.78-4.246-2.888v-3.04Z" transform="translate(-382.246 -404.219)" fill="#b16668"/>
              </g>
              <g id="Group_404" data-name="Group 404" transform="translate(11.629)">
                <path id="Path_3052" data-name="Path 3052" d="M417.494,368.188a76.425,76.425,0,0,0-3.32-14.643s1-12.634,1.485-24.613c.52-12.939-.028-29.2.219-32.431,0,0-41.751-8.448-42.5,6.509s1.649,53.031,2.142,59.6,1.629,12.381,2.987,23.031c1.34,10.511,5.1,35.332,5.1,35.332a9.861,9.861,0,0,0,9.29-.19s2.938-29.906,2.63-37.489a64.791,64.791,0,0,0-2.876-16.548s.793-12.332,1.491-23.06,1.439-15.88,1.6-20.546l.9-.445s.916,18.506,1.409,25.078,1.539,12.87,3.44,25.074c1.649,10.588,6.56,32.99,6.56,32.99,4.77,2.578,7.616-.338,7.616-.338S418.781,377.374,417.494,368.188Z" transform="translate(-373.239 -294.124)" fill="#662d91"/>
              </g>
              <g id="Group_405" data-name="Group 405" transform="translate(34.132 19.525)">
                <path id="Path_3053" data-name="Path 3053" d="M392.8,320.588S402.928,315.6,408,311.1c0,0-4.707,6.632-10.885,9.572,0,0-2.2,22.99-2.187,22.534l-1.269-22.648Z" transform="translate(-392.799 -311.095)" fill="#662d91"/>
              </g>
            </g>
            <g id="Group_408" data-name="Group 408" transform="translate(25.118 34.372)">
              <g id="Group_407" data-name="Group 407">
                <path id="Path_3054" data-name="Path 3054" d="M384.964,245.761l2.47,13.6,12.283-.9-2.579-15.414Z" transform="translate(-384.964 -243.047)" fill="#b16668"/>
              </g>
            </g>
            <g id="Group_410" data-name="Group 410" transform="translate(11.655 41.822)">
              <g id="Group_409" data-name="Group 409">
                <path id="Path_3055" data-name="Path 3055" d="M414.449,256.494c-1.216-3.7-5.905-7.721-10.6-6.85a138.63,138.63,0,0,0-20.554,5.133c-4.3,1.535-8.212,5.248-8.568,19.384,0,0-1.439,32.952-1.465,39.324,10.79,4.271,22.013,4.138,28.215,2.783,12.914-2.821,14.471-8.178,14.471-8.178s.167-23.7-.22-33.93C415.4,265.466,415.284,259.032,414.449,256.494Z" transform="translate(-373.262 -249.523)" fill="#27debf"/>
              </g>
            </g>
            <g id="Group_412" data-name="Group 412" transform="translate(11.655 41.822)" opacity="0.15">
              <g id="Group_411" data-name="Group 411">
                <path id="Path_3056" data-name="Path 3056" d="M414.449,256.494c-1.216-3.7-5.905-7.721-10.6-6.85a138.63,138.63,0,0,0-20.554,5.133c-4.3,1.535-8.212,5.248-8.568,19.384,0,0-1.439,32.952-1.465,39.324,10.79,4.271,22.013,4.138,28.215,2.783,12.914-2.821,14.471-8.178,14.471-8.178s.167-23.7-.22-33.93C415.4,265.466,415.284,259.032,414.449,256.494Z" transform="translate(-373.262 -249.523)" fill="#02cec5"/>
              </g>
            </g>
            <g id="Group_415" data-name="Group 415" transform="translate(12.872 6.031)">
              <g id="Group_413" data-name="Group 413" transform="translate(0 14.515)">
                <path id="Path_3057" data-name="Path 3057" d="M377.089,231.03s-3.115,4.965-2.737,5.438,2.761.852,2.761.852Z" transform="translate(-374.32 -231.03)" fill="#9a4a4d"/>
              </g>
              <g id="Group_414" data-name="Group 414" transform="translate(2.644)">
                <path id="Path_3058" data-name="Path 3058" d="M385.393,219.189c-6.494,1.524-8.314,4.435-8.7,14.816-.4,10.847.785,14.227,2.24,15.653.984.963,6.325,1.02,9,.217,3.349-1.006,10.905-3.876,14.351-9.405,4.051-6.506,4.958-15.218.385-18.681C396.239,216.916,388.035,218.569,385.393,219.189Z" transform="translate(-376.618 -218.413)" fill="#b16668"/>
              </g>
            </g>
            <g id="Group_420" data-name="Group 420" transform="translate(14.38)">
              <g id="Group_417" data-name="Group 417">
                <g id="Group_416" data-name="Group 416">
                  <path id="Path_3059" data-name="Path 3059" d="M376.916,222.678c1.906,3.264,6.043,4.824,6.043,4.824,1.246,1.419.559,6.952,2.751,7.83,0,0,.942-4.027,4.328-3.6,3.409.43,3.965,4.75,1.883,7.429s-4.1,1.715-4.1,1.715.235,5.721,2.843,8.9c0,0,2.907.869,8.188-.382,3.247-.769,7.768-4.95,9.61-9.312,3.9-9.227,4-17.453-1.888-19.783-.726-4.2-4.082-6.008-7.88-6.79-8.174-1.685-13.443,3.416-19.735,2.973C375.356,216.234,374.683,218.855,376.916,222.678Z" transform="translate(-375.631 -213.171)" fill="#263238"/>
                </g>
              </g>
              <g id="Group_419" data-name="Group 419" transform="translate(30.735 5.076)">
                <g id="Group_418" data-name="Group 418">
                  <path id="Path_3060" data-name="Path 3060" d="M402.687,221.046l3.853-2.39a2.267,2.267,0,1,0-3.853,2.39Z" transform="translate(-402.346 -217.584)" fill="#263238"/>
                </g>
              </g>
            </g>
          </g>
          <path id="Path_3061" data-name="Path 3061" d="M338.63,278.575c2.02.9,25.817,18.485,29.527,16.437S390.9,270.724,390.9,270.724a15.363,15.363,0,0,0,0-16.683s-6.1,1.127-9.3,5.956-16.987,22.129-16.987,22.129q-5.112-2.557-10.187-5.186c-2.789-1.443-5.582-2.885-8.312-4.437a10.323,10.323,0,0,1-2.146-1.323c-1.345-1.331-1.115-4.551-1.09-6.3a23.9,23.9,0,0,1,.119-2.453c.116-1,.307-3.449-1.493-2.671a2.237,2.237,0,0,0-.859.723,4.048,4.048,0,0,0-.645,1.228c-.339,1.058-.23,2.217-.542,3.285a.923.923,0,0,1-.221.426.787.787,0,0,1-.568.175c-2.623-.079-5.1-3.755-6.309-5.705a5.341,5.341,0,0,0-1.989-2.269c-1.436-.67-3.159.29-4.083,1.577a8.3,8.3,0,0,0-1.3,5.778,11.493,11.493,0,0,0,3.419,7.246A35.177,35.177,0,0,0,338.63,278.575Z" transform="translate(-324.926 -207.021)" fill="#b16668"/>
          <path id="Path_3062" data-name="Path 3062" d="M386.945,253.417c-2.625.3-6.986.5-11.257,5.338-5,5.657-11.573,14.892-11.573,14.892a14.581,14.581,0,0,0,11.509,10.835s9-9.226,11.509-14.3S390.036,256.845,386.945,253.417Z" transform="translate(-319.03 -207.115)" fill="#27debf"/>
          <path id="Path_3063" data-name="Path 3063" d="M386.945,253.417c-2.625.3-6.986.5-11.257,5.338-5,5.657-11.573,14.892-11.573,14.892a14.581,14.581,0,0,0,11.509,10.835s9-9.226,11.509-14.3S390.036,256.845,386.945,253.417Z" transform="translate(-319.03 -207.115)" fill="#08aba4" opacity="0.7"/>
        </g>
      </g>
    </g>
  </g>
</svg>
