<svg xmlns="http://www.w3.org/2000/svg" width="49.884" height="50" viewBox="0 0 49.884 50">
  <g id="customer-service_1_" data-name="customer-service (1)" transform="translate(-0.058)">
    <g id="Group" transform="translate(3.226)">
      <path id="Path" d="M4.839,15.323a.807.807,0,0,1-.8-.943l.53-3.09H2.419A2.422,2.422,0,0,1,0,8.871V2.419A2.422,2.422,0,0,1,2.419,0H13.71a2.422,2.422,0,0,1,2.419,2.419V8.871A2.422,2.422,0,0,1,13.71,11.29H11.522L5.266,15.2A.808.808,0,0,1,4.839,15.323Z" transform="translate(30.587)" fill="#0097ff"/>
      <rect id="Rectangle" width="2.949" height="6.843" transform="translate(6.925 31.843) rotate(135)" fill="#0097ff"/>
      <path id="Path-2" data-name="Path" d="M4.853,6.965,7.174,4.839,2.335,0,0,2.112Z" transform="translate(12.929 39.907)" fill="#0097ff"/>
    </g>
    <path id="Shape" d="M16.545,41.936a5.609,5.609,0,0,1-3.992-1.654l-10.9-10.9a5.645,5.645,0,0,1,0-7.983l3.6-3.6,5.979,5.979L8.047,26.963a.807.807,0,0,0,0,1.141l2.747,2.747.322-.968a5.646,5.646,0,0,1,4.345-3.769l5.39-.98v-.418a8.069,8.069,0,0,1-3.879-5.427A3.239,3.239,0,0,1,14.4,16.129V10.484a10.484,10.484,0,1,1,20.967,0v9.677a2.422,2.422,0,0,1-2.419,2.42H31.32a8.066,8.066,0,0,1-2.4,2.134v.418l5.389.98a5.648,5.648,0,0,1,4.346,3.769l1.868,5.6H23.214l1.225,1.222-3.929,3.6A5.559,5.559,0,0,1,16.545,41.936ZM3.235,22.1l-.444.444a4.033,4.033,0,0,0,0,5.7l10.9,10.9a4.033,4.033,0,0,0,5.7,0l.463-.424L16.141,35l-.061.055a2.418,2.418,0,0,1-3.392-.029L6.9,29.246a2.425,2.425,0,0,1,0-3.422l.029-.03Zm15.17,10.859-1.066.963,3.707,3.707,1.059-.969-3.7-3.7Zm2.982-6.281L15.749,27.7a4.034,4.034,0,0,0-3.1,2.693l-.577,1.733,1.761,1.761a.823.823,0,0,0,1.14,0l3.49-3.157L21.6,33.871H38.282l-1.16-3.478a4.036,4.036,0,0,0-3.1-2.693l-5.637-1.024-3.5,3.5Zm1.078-1.24v.038l2.419,2.419L27.3,25.473v-.038a8.058,8.058,0,0,1-4.838,0ZM5.252,20.08h0l-.876.876,3.7,3.7.876-.876-3.7-3.7Zm19.632-9.267a10.4,10.4,0,0,1-6.452,2.867v4.063a6.442,6.442,0,0,0,10.706,4.839H24.884V20.967h5.579a6.43,6.43,0,0,0,.872-3.226V13.679a10.39,10.39,0,0,1-6.451-2.867Zm8.87,8.094h0a3.162,3.162,0,0,1-.959.382,8,8,0,0,1-.526,1.679h.678a.807.807,0,0,0,.806-.806V18.906Zm-.806-4.166v2.777a1.6,1.6,0,0,0,.806-1.389A1.618,1.618,0,0,0,32.948,14.74Zm-16.129,0a1.618,1.618,0,0,0-.806,1.389,1.6,1.6,0,0,0,.806,1.389V14.74Zm8.065-6.2h0l.943.943A8.873,8.873,0,0,0,32.142,12.1h.806v.921a3.19,3.19,0,0,1,.806.334V10.484a8.871,8.871,0,1,0-17.742,0v2.867a3.209,3.209,0,0,1,.806-.334V12.1h.806a8.87,8.87,0,0,0,6.313-2.615l.944-.943Z" transform="translate(0.058 8.065)" fill="#fff"/>
    <rect id="Rectangle-2" data-name="Rectangle" width="9.677" height="1.613" transform="translate(37.039 3.226)" fill="#fafcfd"/>
    <rect id="Rectangle-3" data-name="Rectangle" width="6.452" height="1.613" transform="translate(37.039 6.452)" fill="#fafcfd"/>
    <rect id="Rectangle-4" data-name="Rectangle" width="1.613" height="1.613" transform="translate(45.104 6.452)" fill="#fafcfd"/>
    <path id="Path-3" data-name="Path" d="M7.558,17.627l-.83-1.383L4.543,17.555A20.973,20.973,0,0,1,31.1,2.548l.477-1.54A22.581,22.581,0,0,0,2.911,17.456L1.383,14.908,0,15.738l2.835,4.723Z" transform="translate(0.058 2.419)" fill="#fff"/>
    <path id="Path-4" data-name="Path" d="M8.318,2.835,3.594,0,.76,4.723l1.383.83L3.554,3.2A20.882,20.882,0,0,1,4.677,9.977,21.017,21.017,0,0,1,0,23.179L1.252,24.2A22.631,22.631,0,0,0,6.29,9.977,22.473,22.473,0,0,0,5.117,2.8l2.37,1.422Z" transform="translate(41.233 15.023)" fill="#fff"/>
  </g>
</svg>
