<svg xmlns="http://www.w3.org/2000/svg" width="49.989" height="49.036" viewBox="0 0 49.989 49.036">
  <g id="guarantee_1_" data-name="guarantee (1)" transform="translate(-0.005)">
    <path id="Path" d="M10.277,21.647l-.246-.081C9.93,21.534,0,18.175,0,8.23V3.293l.911.141A11.117,11.117,0,0,0,9.718.557L10.274,0l.56.556c.037.036,3.756,3.658,8.808,2.878l.911-.141V8.23c0,9.945-9.93,13.3-10.031,13.337Z" transform="translate(14.723 24.181)" fill="#0097ff"/>
    <path id="Path-2" data-name="Path" d="M3.721,8.791,0,5.07,1.118,3.953l2.6,2.6L10.277,0l1.118,1.118Z" transform="translate(19.698 31.79)" fill="#fafcfd"/>
    <path id="Path-3" data-name="Path" d="M14.229,11.394,10.277,7.7,7.115,10.655,3.953,7.7,0,11.394V0H14.229Z" transform="translate(17.885 0.791)" fill="#0097ff"/>
    <path id="Shape" d="M24.995,49.036h0l-.192-.049c-.07-.017-7.1-1.868-10.875-7.916v.035H12.346v1.581a1.583,1.583,0,0,1-1.581,1.581H0l1.976-3.953L0,36.364H6.813V34.782a1.582,1.582,0,0,1,1.58-1.58h3.186l-.007-.157c-.008-.192-.017-.391-.017-.593v-.832H6.813a1.583,1.583,0,0,1-1.581-1.581V1.581A1.583,1.583,0,0,1,6.813,0H43.177a1.583,1.583,0,0,1,1.58,1.581V30.039a1.583,1.583,0,0,1-1.58,1.581H38.434v.832c0,.195-.009.387-.017.573v.006q0,.085-.007.171H41.6a1.583,1.583,0,0,1,1.581,1.58v1.581h6.812l-1.976,3.953,1.976,3.953H39.224a1.583,1.583,0,0,1-1.581-1.581V41.107h-1.58v-.036c-3.778,6.048-10.806,7.9-10.876,7.916L25,49.036ZM13.136,25.845v6.607a14.69,14.69,0,0,0,1.638,6.925,14.918,14.918,0,0,0,3.718,4.516A19.312,19.312,0,0,0,25,47.4a18.93,18.93,0,0,0,6.532-3.472,14.694,14.694,0,0,0,3.7-4.509,14.891,14.891,0,0,0,1.626-6.968V25.845a10.5,10.5,0,0,1-3.009.445c-4.284,0-7.615-2.678-8.848-3.829-1.234,1.151-4.569,3.83-8.849,3.83a10.487,10.487,0,0,1-3.01-.446ZM39.224,41.107v1.581h8.207l-1.186-2.371,1.186-2.372H43.177v1.58A1.583,1.583,0,0,1,41.6,41.107ZM2.558,37.945l1.186,2.372L2.558,42.688h8.207V41.107H8.393a1.583,1.583,0,0,1-1.58-1.581v-1.58Zm35.729-3.163a15.737,15.737,0,0,1-1.379,4.743H41.6V34.782Zm-29.893,0h0v4.743h4.687A15.739,15.739,0,0,1,11.7,34.782Zm30.04-11.24h0v6.5h4.743V1.581H6.813V30.039h4.743v-6.5l1.093.453a9.156,9.156,0,0,0,3.508.712c4.782,0,8.209-3.844,8.243-3.883l.593-.678.6.677c.141.159,3.5,3.9,8.2,3.9a9.286,9.286,0,0,0,3.557-.724l1.091-.452Z" transform="translate(0.006)" fill="#fff"/>
  </g>
</svg>
