<svg id="online-store" xmlns="http://www.w3.org/2000/svg" width="49.936" height="49.936" viewBox="0 0 49.936 49.936">
  <rect id="Rectangle" width="20.135" height="17.719" transform="translate(29.8 5.638)" fill="#0097ff"/>
  <rect id="Rectangle-2" data-name="Rectangle" width="1.611" height="1.611" transform="translate(16.108 3.222)" fill="#fff"/>
  <rect id="Rectangle-3" data-name="Rectangle" width="4.832" height="1.611" transform="translate(10.471 3.222)" fill="#fff"/>
  <path id="Shape" d="M2.819,5.638A2.819,2.819,0,1,1,5.638,2.819,2.822,2.822,0,0,1,2.819,5.638Zm0-4.027A1.208,1.208,0,1,0,4.027,2.819,1.209,1.209,0,0,0,2.819,1.611Z" transform="translate(11.276 42.687)" fill="#fff"/>
  <path id="Shape-2" data-name="Shape" d="M25.773,49.936H2.417A2.419,2.419,0,0,1,0,47.519V2.417A2.419,2.419,0,0,1,2.417,0H25.773A2.42,2.42,0,0,1,28.19,2.417L28.206,27.5l1.345-.879,6.608-2.318a2.471,2.471,0,0,1,1.949.129,2.461,2.461,0,0,1,1.256,1.5,2.49,2.49,0,0,1-1.214,2.919l-1.742.926.045.022h2.485l1.048-2.619a2.239,2.239,0,0,1,4.2,1.547l-.243.723,1.767-.966A2.332,2.332,0,0,1,46.82,28.2a2.293,2.293,0,0,1,.729.118,2.327,2.327,0,0,1,1.374,1.239,2.3,2.3,0,0,1-1.083,3.027l-4.173,2.029-8.133,1.627-7.346-.011V47.519A2.419,2.419,0,0,1,25.773,49.936ZM1.611,42.687v4.832a.806.806,0,0,0,.805.806H25.773a.806.806,0,0,0,.806-.806V42.687H1.611Zm0-34.633V41.076H26.579V36.23l-1.76,0-3.073-.613v1.434H10.471V26.579H21.746V28.19H26.6L26.582,8.054ZM12.082,28.19v7.249h8.054V28.19Zm9.664,1.61v4.172l3.318.661H35.376l7.872-1.575,3.88-1.914a.7.7,0,0,0-.089-1.294.682.682,0,0,0-.557.05l-2.767,1.511H36.07l-3.177-1.588,4.5-2.393a.882.882,0,0,0,.429-1.03.872.872,0,0,0-.444-.528.858.858,0,0,0-.4-.1.892.892,0,0,0-.292.05L30.18,28.111,27.645,29.8Zm20.33-2.4a.626.626,0,0,0-.6.375L40.672,29.8h1.453l.534-1.587a.62.62,0,0,0-.085-.567A.6.6,0,0,0,42.076,27.4ZM2.417,1.611a.806.806,0,0,0-.805.805V6.443H26.582l0-4.026a.807.807,0,0,0-.806-.806Z" transform="translate(0)" fill="#fff"/>
  <path id="Path" d="M1.611,6.846a5.235,5.235,0,0,1,10.47,0V9.665h1.611V6.846A6.846,6.846,0,0,0,0,6.846V9.665H1.611V6.846Z" transform="translate(33.022)" fill="#fff"/>
</svg>
