<?xml version="1.0" encoding="UTF-8"?>
<svg width="125px" height="63px" viewBox="0 0 125 63" version="1.1" xmlns="http://www.w3.org/2000/svg" xmlns:xlink="http://www.w3.org/1999/xlink">
    <!-- Generator: Sketch 63.1 (92452) - https://sketch.com -->
    <title>footer-logo</title>
    <desc>Created with Sketch.</desc>
    <g id="Page-1" stroke="none" stroke-width="1" fill="none" fill-rule="evenodd">
        <g id="Home-screen" transform="translate(-129.000000, -2793.000000)" fill-rule="nonzero">
            <g id="footer-logo" transform="translate(129.000000, 2793.000000)">
                <path d="M35.1218295,42.1272642 L29.8607239,36.9963245 L24.598838,31.8661457 C25.3790702,29.4988977 24.8329077,26.8120598 22.9065144,24.9371324 C20.9840223,23.0500301 17.1725881,23.2029767 17.1725881,23.2029767 C16.4048396,23.2349357 16.221485,23.6892099 16.7660871,24.2203379 L19.2191371,26.6157403 C19.7554415,27.1485133 19.7554415,28.0020285 19.2191371,28.5348015 L16.6677778,31.0207543 C16.121489,31.5437899 15.2463211,31.5437899 14.7000323,31.0207543 L12.246202,28.6276348 C11.7086221,28.1033551 11.2358014,28.2760859 11.2030316,29.0240784 C11.2030316,29.0240784 11.0469852,32.7412133 12.9741587,34.6222281 C14.9013322,36.5032429 17.6516506,37.0275226 20.0789529,36.2726817 L25.3400586,41.4036214 L30.6011642,46.5345611 C29.820932,48.9018091 30.3670945,51.588647 32.2934878,53.4696618 C34.2198811,55.3506767 38.033656,55.1969691 38.033656,55.1969691 C38.7943824,55.1650102 38.9785172,54.7107359 38.440157,54.179608 L35.9863267,51.7864884 C35.4500223,51.2537154 35.4500223,50.4002001 35.9863267,49.8674271 L38.5314441,47.3784306 C39.0777329,46.855395 39.9529009,46.855395 40.4991897,47.3784306 L42.9538001,49.773072 C43.4913801,50.2973516 43.9642008,50.1246209 43.9969706,49.3766284 C43.9969706,49.3766284 44.153017,45.6594935 42.2258435,43.7784787 C40.29867,41.8974638 37.5491318,41.3724233 35.1218295,42.1272642 Z M36.696338,46.3078044 L34.9548598,48.0061965 L18.8633512,32.3128106 L20.6048294,30.6144186 L36.696338,46.3078044 Z" id="Shape" fill="#09458F"></path>
                <path d="M22.894171,41.2018475 C22.3336317,41.2788807 21.7684992,41.3176707 21.2026918,41.3179485 C14.442157,41.3179485 8.96099551,35.8927249 8.96099551,29.2011545 C8.96099551,22.5095841 14.4413881,17.0835916 21.2026918,17.0835916 C27.9639955,17.0835916 33.4443881,22.5088152 33.4443881,29.2011545 C33.4471056,31.8826564 32.550485,34.4876031 30.8979431,36.5993265 L34.262449,39.7778801 C35.6117881,39.1850729 37.057234,36.3040762 37.3655445,35.5328886 L41.6311475,35.5774837 C41.9792279,34.4828401 42.2363853,33.3613378 42.4000017,32.2243942 L38.5365094,30.4329017 C38.5657259,30.0253948 38.581103,29.6140435 38.581103,29.2026922 C38.581103,28.791341 38.5657259,28.3769142 38.5365094,27.9724828 L42.4000017,26.1809903 C42.2363956,25.0440447 41.979238,23.9225416 41.6311475,22.8279007 L37.3655445,22.8724958 C37.0585209,22.105517 36.6962065,21.3618474 36.2814601,20.6473545 L38.9724497,17.3757663 C38.3234148,16.4215712 37.5980574,15.5215928 36.8035121,14.6846832 L32.9838445,16.557677 C32.3720453,15.9994553 31.7212261,15.4855652 31.0363368,15.0199153 L32.0296965,10.9125535 C31.0289612,10.3308408 29.9827111,9.83122552 28.9012288,9.41861794 L26.2771294,12.7478722 C25.4801422,12.5071723 24.6669134,12.3239646 23.843706,12.1996601 L22.94184,8.07000085 C22.3687873,8.02438059 21.7895839,8.00105787 21.2042295,8.00000032 C20.6188752,7.99900752 20.0396717,8.02233024 19.4666191,8.07000085 L18.5593711,12.1935091 C17.7361676,12.3178343 16.9229403,12.5010417 16.1259477,12.7417212 L13.5018483,9.4124669 C12.42035,9.8250372 11.374097,10.3246539 10.3733807,10.9064025 L11.3667403,15.0137642 C10.6818077,15.4793551 10.0309844,15.9932485 9.41923261,16.551526 L5.59648961,14.6816077 C4.80191118,15.5184883 4.07655156,16.4184695 3.42755195,17.3726908 L6.1185416,20.644279 C5.7037497,21.3587477 5.34143374,22.1024206 5.0344572,22.8694203 L0.768854184,22.8248252 C0.420810906,23.919479 0.163654241,25.0409782 0,26.1779148 L3.86349227,27.9694073 C3.83427582,28.3769142 3.81889873,28.7882654 3.81889873,29.1996167 C3.81889873,29.610968 3.83427582,30.0253948 3.86349227,30.4298262 L0,32.2213186 C0.163654241,33.3582553 0.420810906,34.4797544 0.768854184,35.5744082 L5.0344572,35.5298131 C5.3414511,36.2968052 5.70376645,37.0404768 6.1185416,37.7549544 L3.42755195,41.0265426 C4.076557,41.9807599 4.80191628,42.8807406 5.59648961,43.7176258 L9.41923261,41.8454008 C10.0310386,42.4036146 10.6818572,42.9175042 11.3667403,43.3831626 L10.3733807,47.4905243 C11.3740938,48.0722789 12.4203474,48.5718958 13.5018483,48.9844599 L16.1259477,45.6552056 C16.9228761,45.8968736 17.7361009,46.0811082 18.5593711,46.2064932 L19.4635437,50.3300015 C20.0365963,50.3756217 20.6157998,50.3989445 21.2011541,50.400002 C21.7865084,50.4009948 22.3657119,50.3776721 22.9387646,50.3300015 L23.8429371,46.2064932 C24.6661348,46.0821368 25.4793599,45.89893 26.2763606,45.6582812 L22.894171,41.2018475 Z" id="Path" fill="#D3161C"></path>
                <path d="M61.2841259,0 C61.514759,0 61.6615955,0.203197493 61.5747237,0.405628203 L54.9201881,19.5943726 C54.843921,19.8223815 54.6377575,19.9823486 54.3974196,20 L48.0034996,20 C47.7631617,19.9823486 47.5569982,19.8223815 47.4807311,19.5943726 L40.8254267,0.406394986 C40.7385549,0.203197493 40.8838538,0.000766782993 41.1160245,0.000766782993 L47.5968164,0.000766782993 C47.8474273,0.00848038119 48.067151,0.169946007 48.1487985,0.406394986 L51.2000752,12.317602 L54.251352,0.406394986 C54.3329404,0.169131228 54.5534917,0.00720206011 54.8048715,0 L61.2841259,0 Z" id="Path" fill="#09458F"></path>
                <path d="M76.3644076,14.7826093 C76.5948814,14.7826093 76.8000031,14.9566757 76.8000031,15.1591142 L76.8000031,19.594357 C76.7813903,19.8214887 76.5927066,19.9971985 76.3644076,20 L62.86095,20 C62.6573648,20 62.4545479,19.7699571 62.4000025,19.5652182 L62.4000025,0.405643755 C62.4000025,0.144927542 62.5452009,0 62.8064045,0 L76.0202335,0 C76.2814371,0 76.481181,0.203205284 76.481181,0.405643755 L76.481181,4.78184207 C76.481181,5.04255829 76.2775959,5.2166247 76.0202335,5.2166247 L68.4368785,5.2166247 L68.4368785,7.5063265 L74.5897597,7.5063265 C74.8509633,7.5063265 74.9961618,7.70953178 74.9669684,7.88283138 L74.5605663,11.9408026 C74.5003572,12.1635004 74.2976786,12.3179787 74.0665842,12.3173074 L68.4368785,12.3173074 L68.4368785,14.7810757 L76.3644076,14.7826093 Z" id="Path" fill="#09458F"></path>
                <path d="M94.772114,0.00230005971 C94.8862003,0 94.9962235,0.0453244192 95.0769079,0.127308382 C95.1575923,0.209292344 95.202002,0.321087544 95.2000038,0.437011345 L95.2000038,19.5942087 C95.1913353,19.8259318 95.0002121,20.007118 94.772114,19.9997859 L89.8374628,19.9997859 C89.6375114,19.9997859 89.3847425,19.8548821 89.238363,19.6233428 L84.275794,10.6094088 L84.275794,19.5942087 C84.2671946,19.8259318 84.0760714,20.007118 83.8479733,19.9997859 L78.7993875,19.9997859 C78.5809603,19.9949151 78.4050327,19.816154 78.4002391,19.5942087 L78.4002391,0.434711286 C78.3926042,0.202779605 78.5711515,0.00832425535 78.7993875,0 L83.7332842,0 C83.9898257,0 84.2750395,0.144903762 84.3889741,0.376443106 L89.3236253,9.38961043 L89.3236253,0.434711286 C89.3263827,0.206875734 89.499279,0.0185749268 89.7227737,0 L94.772114,0.00230005971 Z" id="Path" fill="#09458F"></path>
                <path d="M104.827951,0.0023001726 C111.05709,0.0023001726 115.200005,3.97316481 115.200005,10.0011505 C115.200005,15.9716318 111.05709,20 104.827951,20 L98.0111862,20 C97.7809533,19.981425 97.6028444,19.7931149 97.6000039,19.5652682 L97.6000039,0.434732622 C97.6028444,0.206885888 97.7809533,0.0185758385 98.0111862,0 L104.827951,0.0023001726 Z M105.180837,14.7832093 C107.443506,14.7832093 108.970865,12.8702324 108.970865,10.0011505 C108.970865,7.13206852 107.442728,5.21909164 105.180837,5.21909164 L103.6527,5.21909164 L103.6527,14.7839761 L105.180837,14.7832093 Z" id="Shape" fill="#09458F"></path>
                <path d="M54.0679154,38.2956077 C54.1548478,38.0067612 54.3587157,37.920413 54.5910482,38.0663645 C55.9288835,38.8175181 57.5282852,39.3654094 58.6330187,39.4525218 C59.5638874,39.4525218 60.1716447,39.0192521 60.1716447,38.3552109 C60.1716447,36.6511697 52.0000021,36.737518 52.0000021,30.4409711 C52.0000021,26.5705815 54.9372391,24.000001 59.3577115,24.000001 C61.4225476,24.000001 64.0397504,24.8405594 65.8714846,26.080001 C66.1022785,26.2244243 66.1915188,26.4551958 66.1022785,26.599619 L64.2705443,30.6725067 C64.1836119,30.9613532 63.979744,31.0477015 63.7474114,30.9017499 C62.3272597,30.0917573 60.6701595,29.485791 59.6515891,29.4002069 C58.7499543,29.4002069 58.1683536,29.8044391 58.1683536,30.4402069 C58.1683536,32.1442482 66.4000026,32.0288624 66.4000026,38.387305 C66.4000026,42.2286571 63.4050672,44.8000018 58.9261269,44.8000018 C56.4835582,44.8000018 53.9255925,44.0488482 52.4700523,42.8934624 C52.2392584,42.7200017 52.1500181,42.5182677 52.2392584,42.3738444 L54.0679154,38.2956077 Z" id="Path" fill="#09458F"></path>
                <path d="M84.3593828,24.8031383 C84.4768634,24.8010374 84.5901601,24.8461674 84.6732451,24.9281605 C84.7563301,25.0101536 84.802061,25.1219613 84.8000034,25.237898 L84.8000034,44.3941644 C84.7910769,44.6259134 84.5942673,44.8071198 84.3593828,44.7997869 L78.866889,44.7997869 C78.641963,44.7949156 78.460801,44.6161344 78.4558649,44.3941644 L78.4558649,37.9011386 L74.3440701,37.9011386 L74.3440701,44.3941644 C74.3352148,44.6259134 74.1384052,44.8071198 73.9035206,44.7997869 L68.4110268,44.7997869 C68.1905471,44.7849602 68.0150268,44.6117465 68.0000027,44.3941644 L68.0000027,25.2348309 C68.0028421,25.00697 68.1808825,24.8186482 68.4110268,24.800001 L73.9035206,24.800001 C74.0210013,24.7979704 74.1342979,24.8431003 74.2173829,24.9250934 C74.3004679,25.0070865 74.3461989,25.1188942 74.3440701,25.2348309 L74.3440701,32.7998041 L78.4558649,32.7998041 L78.4558649,25.2348309 C78.4480028,25.0028734 78.6318623,24.8083964 78.866889,24.800001 L84.3593828,24.8031383 Z" id="Path" fill="#09458F"></path>
                <path d="M96.8000038,44.8000018 C90.5595386,44.8000018 86.4000034,40.6401545 86.4000034,34.4290431 C86.4000034,28.162141 90.5603136,24.000001 96.8000038,24.000001 C103.039694,24.000001 107.200004,28.1598483 107.200004,34.4290431 C107.200004,40.6401545 103.042019,44.8000018 96.8000038,44.8000018 Z M96.8000038,29.8350982 C94.3974402,29.8350982 92.7861726,31.6838343 92.7861726,34.4282789 C92.7861726,37.1727234 94.3974402,39.0214595 96.8000038,39.0214595 C99.2025675,39.0214595 100.813835,37.1727234 100.813835,34.4282789 C100.813835,31.6838343 99.2025675,29.8350982 96.8000038,29.8350982 L96.8000038,29.8350982 Z" id="Shape" fill="#09458F"></path>
                <path d="M116.767811,24.8030669 C121.787932,24.8030669 124.800005,27.5555294 124.800005,31.7014691 C124.800005,35.8474088 121.787932,38.5998712 116.767811,38.5998712 L115.591517,38.5998712 L115.591517,44.394529 C115.591517,44.5976487 115.390408,44.800001 115.136177,44.800001 L110.001462,44.800001 C109.786114,44.7851806 109.614679,44.6120308 109.600004,44.394529 L109.600004,25.2346003 C109.602778,25.0068234 109.776674,24.8185711 110.001462,24.800001 L116.767811,24.8030669 Z M117.025837,33.4084404 C118.029861,33.4084404 118.718183,32.7132347 118.718183,31.6991696 C118.718183,30.6851045 118.029861,29.9898989 117.025837,29.9898989 L115.533841,29.9898989 L115.533841,33.4084404 L117.025837,33.4084404 Z" id="Shape" fill="#09458F"></path>
                <path d="M52.8000021,49.600002 L55.4093436,49.600002 C56.6348058,49.600002 57.5214874,49.7902878 58.0693886,50.1708595 C58.6172898,50.5514311 58.8909881,51.154265 58.8904836,51.9793611 C58.8904836,52.5481218 58.7378684,53.0175459 58.432638,53.3876335 C58.1274076,53.7577211 57.6819226,53.9972821 57.0961829,54.1063164 L57.0961829,54.1715797 C58.4987292,54.4211005 59.2000024,55.1869616 59.2000024,56.4691631 C59.2000024,57.3267599 58.9210066,57.9964297 58.3630152,58.4781726 C57.8050238,58.9599155 57.0247944,59.2005248 56.0223269,59.2000015 L52.8000021,59.2000015 L52.8000021,49.600002 Z M53.870831,53.7092323 L55.6401583,53.7092323 C56.3969279,53.7092323 56.9423065,53.5855203 57.2762941,53.3380963 C57.6102817,53.0906723 57.776771,52.6739306 57.7757666,52.0878712 C57.7757666,51.5495144 57.5903535,51.1610796 57.2195364,50.9225671 C56.8487193,50.6840546 56.2589435,50.5647983 55.4502091,50.5647983 L53.870831,50.5647983 L53.870831,53.7092323 Z M53.870831,54.6527969 L53.870831,58.2438537 L55.7975664,58.2438537 C56.5432366,58.2438537 57.1045074,58.0939315 57.4813787,57.7940872 C57.8582499,57.4942428 58.0466855,57.0248187 58.0466855,56.3858148 C58.0466855,55.7908439 57.8539615,55.3531341 57.4685136,55.0726853 C57.0830656,54.7922365 56.4965692,54.6522742 55.7090243,54.6527969 L53.870831,54.6527969 Z" id="Shape" fill="#09458F"></path>
                <path d="M60.0000024,52.0000021 L61.1076661,52.0000021 L62.5984651,56.0928594 C62.925944,57.0273089 63.1291896,57.7018695 63.2082019,58.1165413 L63.2581437,58.1165413 C63.3118124,57.8937794 63.4248647,57.5128357 63.5973005,56.9737101 C63.7697362,56.4345845 64.334749,54.7766818 65.292339,52.0000021 L66.4000026,52.0000021 L63.4676009,60.1731668 C63.1773921,60.9805479 62.8382353,61.553663 62.4501306,61.8925121 C62.0620259,62.2313611 61.5859641,62.4005242 61.0219451,62.4000025 C60.7078665,62.4000025 60.3947909,62.3627059 60.0887049,62.2886203 L60.0887049,61.4179665 C60.3404854,61.4728078 60.5971253,61.4991037 60.8542302,61.4964038 C61.5638506,61.4964038 62.0699768,61.0780716 62.372609,60.2414073 L62.7520174,59.2217226 L60.0000024,52.0000021 Z" id="Path" fill="#09458F"></path>
                <path d="M72.0000029,49.600002 L74.6087274,49.600002 C75.8338998,49.600002 76.7203719,49.7903502 77.2681435,50.1710465 C77.8159151,50.5517429 78.0895488,51.1547744 78.0890444,51.9801409 C78.0890444,52.549088 77.9364652,53.018666 77.631307,53.3888749 C77.3261488,53.7590837 76.8812735,53.9976744 76.2966811,54.104647 L76.2966811,54.1699317 C77.6988958,54.4195343 78.4000031,55.1856464 78.4000031,56.4682681 C78.4000031,57.3261459 78.1210734,57.9960352 77.5632139,58.477936 C77.0053544,58.9598368 76.2253094,59.200525 75.223079,59.2000015 L72.0000029,59.2000015 L72.0000029,49.600002 Z M73.073605,53.710579 L74.8425139,53.710579 C75.5991046,53.710579 76.1443542,53.5868265 76.4782629,53.3393214 C76.8121716,53.0918163 76.9786215,52.674938 76.9776173,52.0886866 C76.9776173,51.5501533 76.792248,51.1615913 76.4215186,50.9230006 C76.0507892,50.6844099 75.4611529,50.5651145 74.6526097,50.5651145 L73.073605,50.5651145 L73.073605,53.710579 Z M73.073605,54.6544544 L73.073605,58.2466866 L74.9998848,58.2466866 C75.7453787,58.2466866 76.3065168,58.0967153 76.6832989,57.7967727 C77.0600811,57.49683 77.2484722,57.0272521 77.2484722,56.3880387 C77.2484722,55.7928729 77.0557937,55.3550196 76.6704369,55.0744789 C76.2850801,54.7939382 75.6989745,54.6544544 74.9121202,54.6560275 L73.073605,54.6544544 Z" id="Shape" fill="#09458F"></path>
                <path d="M83.1647455,59.1991275 C82.1858199,59.1991275 81.4138727,58.8863206 80.8489039,58.2607067 C80.283935,57.6350928 80.0009681,56.7667752 80.0000032,55.6557538 C80.0000032,54.5361276 80.2629477,53.6465513 80.7888367,52.9870247 C81.3147258,52.3274981 82.020575,51.998494 82.9063844,52.0000073 C83.7362276,52.0000073 84.3928652,52.286246 84.8762972,52.8587131 C85.3597291,53.4311802 85.6009626,54.1866241 85.6000005,55.1250449 L85.6000005,55.7908985 L81.0406845,55.7908985 C81.0609481,56.6063224 81.2573122,57.2253562 81.6297767,57.6479999 C82.0022412,58.0706436 82.5269241,58.2819654 83.2038253,58.2819654 C83.9318505,58.2786527 84.6515175,58.1189692 85.3184782,57.812755 L85.3184782,58.7511758 C84.994987,58.901242 84.6579934,59.01697 84.3125345,59.0966301 C83.9342646,59.1717213 83.5496708,59.2060655 83.1647455,59.1991275 Z M82.8926341,52.8792126 C82.3619204,52.8792126 81.9380731,53.0609241 81.6210923,53.424347 C81.3041115,53.7877699 81.1178792,54.29064 81.0623955,54.9329572 L84.5245787,54.9329572 C84.5245787,54.2693813 84.3836983,53.7611965 84.1019376,53.408403 C83.8201769,53.0556094 83.4173169,52.8792126 82.8933578,52.8792126 L82.8926341,52.8792126 Z" id="Shape" fill="#09458F"></path>
                <path d="M90.224323,59.2000024 C89.2626775,59.2000024 88.5183338,58.89048 87.9912921,58.2714354 C87.4642503,57.6523908 87.2004874,56.7767185 87.2000035,55.6444185 C87.2000035,54.4802299 87.4676381,53.5822862 88.0029073,52.9505874 C88.5381765,52.3188885 89.300911,52.0020267 90.2911107,52.0000021 C90.6130379,52.000373 90.9340165,52.0365139 91.2486425,52.1078161 C91.50824,52.1591943 91.7606596,52.244388 92.0000037,52.3614067 L91.6914737,53.2512517 C91.4556919,53.1551776 91.2129315,53.0790088 90.9655209,53.0234757 C90.7370715,52.9666102 90.5034022,52.9358071 90.2686061,52.931606 C88.9193018,52.931606 88.2446496,53.8318275 88.2446496,55.6322705 C88.2446496,56.4856713 88.4091989,57.140654 88.7382975,57.5972184 C89.0673962,58.0537828 89.5552365,58.2815588 90.2018185,58.2805464 C90.7874648,58.2735456 91.3661008,58.1463703 91.9049038,57.9062345 L91.9049038,58.8378385 C91.4591688,59.0787749 90.8989752,59.1994962 90.224323,59.2000024 Z" id="Path" fill="#09458F"></path>
                <path d="M94.6470401,55.4502062 C94.907642,55.0784265 95.1869398,54.7214093 95.4837514,54.3806657 L97.7437897,51.8741303 L99.001916,51.8741303 L96.1667342,54.9962919 L99.2000039,59.2000024 L97.9166387,59.2000024 L95.4455105,55.7376052 L94.6470401,56.458104 L94.6470401,59.1984012 L93.6000037,59.1984012 L93.6000037,48.8000019 L94.6470401,48.8000019 L94.6470401,54.3142197 C94.6470401,54.5591893 94.6299591,54.9378515 94.5957973,55.4502062 L94.6470401,55.4502062 Z" id="Path" fill="#09458F"></path>
                <path d="M103.07511,58.3206178 C103.25058,58.321152 103.425818,58.3072603 103.599192,58.2790721 C103.734357,58.2585514 103.868206,58.2295189 104.000004,58.1921338 L104.000004,59.007661 C103.843389,59.0765585 103.678496,59.1228902 103.509877,59.1453774 C103.317441,59.1796438 103.122695,59.1979097 102.927481,59.2000024 C101.620967,59.2000024 100.96771,58.4819281 100.96771,57.0457795 L100.96771,52.8604322 L100.000004,52.8604322 L100.000004,52.3464962 L100.968448,51.9033418 L101.399524,50.400002 L101.990039,50.400002 L101.990039,52.0318258 L103.94981,52.0318258 L103.94981,52.8604322 L101.990039,52.8604322 L101.990039,57.0034644 C101.990039,57.4276411 102.08649,57.7530827 102.279391,57.979789 C102.472293,58.2064953 102.737533,58.3201049 103.07511,58.3206178 Z" id="Path" fill="#09458F"></path>
                <path d="M107.964746,59.1991275 C106.985821,59.1991275 106.213874,58.8863206 105.648905,58.2607067 C105.083936,57.6350928 104.800969,56.7667752 104.800004,55.6557538 C104.800004,54.5361276 105.062949,53.6465513 105.588838,52.9870247 C106.114727,52.3274981 106.820576,51.998494 107.706385,52.0000073 C108.536229,52.0000073 109.192866,52.286246 109.676298,52.8587131 C110.15973,53.4311802 110.400964,54.1866241 110.400002,55.1250449 L110.400002,55.7908985 L105.840685,55.7908985 C105.860949,56.6063224 106.057313,57.2253562 106.429778,57.6479999 C106.802242,58.0706436 107.326925,58.2819654 108.003826,58.2819654 C108.731851,58.2786527 109.451519,58.1189692 110.118479,57.812755 L110.118479,58.7511758 C109.794988,58.901242 109.457994,59.01697 109.112535,59.0966301 C108.734266,59.1717213 108.349672,59.2060655 107.964746,59.1991275 Z M107.692635,52.8792126 C107.161921,52.8792126 106.738074,53.0609241 106.421093,53.424347 C106.104112,53.7877699 105.91788,54.29064 105.862396,54.9329572 L109.32458,54.9329572 C109.32458,54.2693813 109.183699,53.7611965 108.901939,53.408403 C108.620178,53.0556094 108.217077,52.8792126 107.692635,52.8792126 Z" id="Shape" fill="#09458F"></path>
                <path d="M115.024324,59.2000024 C114.062678,59.2000024 113.318335,58.89048 112.791293,58.2714354 C112.264251,57.6523908 112.000488,56.7767185 112.000004,55.6444185 C112.000004,54.4802299 112.267639,53.5822862 112.802908,52.9505874 C113.338178,52.3188885 114.100912,52.0020267 115.091112,52.0000021 C115.413039,52.000373 115.734018,52.0365139 116.048643,52.1078161 C116.308241,52.1591943 116.560661,52.244388 116.800005,52.3614067 L116.488571,53.2512517 C116.252789,53.1551776 116.010029,53.0790088 115.762618,53.0234757 C115.534169,52.9666102 115.300499,52.9358071 115.065703,52.931606 C113.716399,52.931606 113.041747,53.8318275 113.041747,55.6322705 C113.041747,56.4856713 113.206296,57.140654 113.535395,57.5972184 C113.864493,58.0537828 114.352334,58.2815588 114.998916,58.2805464 C115.584562,58.2735456 116.163198,58.1463703 116.702001,57.9062345 L116.702001,58.8378385 C116.258686,59.0787749 115.69946,59.1994962 115.024324,59.2000024 Z" id="Path" fill="#09458F"></path>
                <path d="M123.785751,59.1984015 L123.785751,54.4598498 C123.785751,53.8627282 123.661502,53.4171549 123.413003,53.1231299 C123.164505,52.8291049 122.775159,52.6820924 122.244964,52.6820924 C121.53999,52.6820924 121.025418,52.8915386 120.701247,53.3104308 C120.377076,53.7293231 120.214991,54.4152924 120.214991,55.368339 L120.214991,59.1976011 L119.200005,59.1976011 L119.200005,48.8000019 L120.214991,48.8000019 L120.214991,51.9472968 C120.218415,52.2621906 120.202021,52.5769691 120.165926,52.8894041 L120.226708,52.8894041 C120.434043,52.5301636 120.729697,52.2419593 121.079853,52.0577562 C121.472881,51.8490437 121.905476,51.7448227 122.342361,51.7535925 C123.161576,51.7535925 123.775987,51.9670407 124.185594,52.3939373 C124.595201,52.8208338 124.800005,53.4969312 124.800005,54.4222295 L124.800005,59.2000024 L123.785751,59.1984015 Z" id="Path" fill="#09458F"></path>
            </g>
        </g>
    </g>
</svg>