<?xml version="1.0" encoding="UTF-8"?>
<svg width="219px" height="52px" viewBox="0 0 219 52" version="1.1" xmlns="http://www.w3.org/2000/svg" xmlns:xlink="http://www.w3.org/1999/xlink">
    <!-- Generator: Sketch 63.1 (92452) - https://sketch.com -->
    <title>vend shop copy</title>
    <desc>Created with Sketch.</desc>
    <g id="Page-1" stroke="none" stroke-width="1" fill="none" fill-rule="evenodd">
        <g id="vend-shop-copy" fill-rule="nonzero">
            <path d="M38.6340133,37.5399911 L32.8467969,31.8959573 L27.0587224,26.2527605 C27.9169778,23.6487876 27.316199,20.6932659 25.1971664,18.6308457 C23.082425,16.5550332 18.8898473,16.7232744 18.8898473,16.7232744 C18.0453239,16.7584293 17.8436339,17.2581309 18.4426962,17.8423717 L21.1410512,20.4773144 C21.7309861,21.0633647 21.7309861,22.0022315 21.1410512,22.5882818 L18.334556,25.32283 C17.7336383,25.8981691 16.7709536,25.8981691 16.1700358,25.32283 L13.4708225,22.6903984 C12.8794846,22.1136908 12.3593818,22.3036946 12.323335,23.1264864 C12.323335,23.1264864 12.151684,27.2153349 14.2715748,29.2844512 C16.3914657,31.3535676 19.4168161,31.9302752 22.0868487,31.0999501 L27.874065,36.7439839 L33.6612813,42.3880177 C32.8030259,44.9919906 33.4038047,47.9475124 35.5228374,50.0166288 C37.64187,52.0857451 41.8370225,51.9166668 41.8370225,51.9166668 C42.6738215,51.8815119 42.8763698,51.3818103 42.2841736,50.7975695 L39.5849603,48.1651379 C38.9950254,47.5790876 38.9950254,46.6402208 39.5849603,46.0541705 L42.3845895,43.3162742 C42.9855072,42.7409351 43.9481919,42.7409351 44.5491096,43.3162742 L47.2491812,45.9503799 C47.8405192,46.5270875 48.360622,46.3370837 48.3966687,45.5142918 C48.3966687,45.5142918 48.5683198,41.4254434 46.4484289,39.356327 C44.328538,37.2872107 41.3040459,36.7096661 38.6340133,37.5399911 Z M40.3659727,42.1385854 L38.4503466,44.0068167 L20.7496868,26.7440919 L22.6653129,24.8758607 L40.3659727,42.1385854 Z" id="Shape" fill="#09458F"></path>
            <path d="M25.1835887,36.5220327 C24.5669954,36.6067692 23.9453497,36.6494382 23.3229615,36.6497438 C15.886373,36.6497438 9.85709528,30.6819977 9.85709528,23.3212701 C9.85709528,15.9605425 15.8855273,9.99195061 23.3229615,9.99195061 C30.7603957,9.99195061 36.7888278,15.9596967 36.7888278,23.3212701 C36.791817,26.2709223 35.8055343,29.1363637 33.9877381,31.4592594 L37.6886947,34.9556685 C39.1729678,34.3035806 40.7629582,31.1344841 41.1020998,30.2861778 L45.7942632,30.3352324 C46.1771517,29.1311244 46.4600248,27.8974719 46.6400029,26.6468338 L42.3901613,24.676192 C42.4222994,24.2279345 42.4392142,23.775448 42.4392142,23.3229616 C42.4392142,22.8704752 42.4222994,22.4146057 42.3901613,21.9697312 L46.6400029,19.9990894 C46.4600362,18.7484493 46.1771628,17.5147958 45.7942632,16.3106908 L41.1020998,16.3597454 C40.7643738,15.5160686 40.3658281,14.6980321 39.909607,13.9120899 L42.8696956,10.3133428 C42.1557572,9.26372819 41.3578641,8.27375194 40.4838642,7.35315132 L36.2822297,9.41344461 C35.6092506,8.79940068 34.8933495,8.23412156 34.1399713,7.7219066 L35.2326669,3.20380859 C34.1318581,2.56392459 32.9809829,2.01434777 31.7913523,1.56047942 L28.904843,5.2226592 C28.0281571,4.95788926 27.1336054,4.75636082 26.2280771,4.6196259 L25.2360245,0.0770005906 C24.6056666,0.0268182964 23.9685428,0.00116330333 23.324653,1.68043361e-13 C22.6807632,-0.00109208068 22.0436394,0.0245629124 21.4132815,0.0770005906 L20.4153087,4.61285975 C19.5097848,4.74961752 18.6152347,4.9511456 17.7385428,5.21589305 L14.8520335,1.55371327 C13.6623853,2.00754062 12.5115069,2.55711899 11.410719,3.19704244 L12.5034146,7.71514045 C11.7499887,8.22729048 11.0340831,8.79257316 10.3611561,9.40667846 L6.1561387,7.34976824 C5.28210242,8.27033701 4.48420682,9.26031632 3.77030723,10.3099598 L6.7303959,13.9087069 C6.2741248,14.6946224 5.87557725,15.5126626 5.53790304,16.3563624 L0.845739621,16.3073077 C0.462892007,17.5114269 0.180019668,18.7450761 4.29878364e-14,19.9957064 L4.24984159,21.9663481 C4.21770349,22.4146057 4.2007887,22.8670921 4.2007887,23.3195785 C4.2007887,23.772065 4.21770349,24.2279345 4.24984159,24.672809 L4.29878364e-14,26.6434507 C0.180019668,27.894081 0.462892007,29.1277302 0.845739621,30.3318493 L5.53790304,30.2827947 C5.87559634,31.126486 6.27414323,31.9445249 6.7303959,32.7304502 L3.77030723,36.3291973 C4.4842128,37.3788363 5.28210802,38.3688152 6.1561387,39.2893889 L10.3611561,37.2299413 C11.0341426,37.8439765 11.7500431,38.4092551 12.5034146,38.9214793 L11.410719,43.4395773 C12.5115034,44.0795074 13.6623824,44.629086 14.8520335,45.0829065 L17.7385428,41.4207267 C18.6151641,41.6865616 19.5097114,41.8892196 20.4153087,42.0271431 L21.4098985,46.5630023 C22.0402564,46.6131846 22.6773803,46.6388396 23.32127,46.6400029 C23.9651598,46.6410949 24.6022837,46.61544 25.2326416,46.5630023 L26.2272314,42.0271431 C27.1327489,41.8903511 28.0272965,41.6888236 28.9039973,41.4241098 L25.1835887,36.5220327 Z" id="Path" fill="#D3161C"></path>
            <g id="Group-3" transform="translate(50.600001, 6.600000)" fill="#09458F">
                <path d="M22.5325372,1.10000002 C22.7862337,1.10000002 22.9477537,1.32351727 22.8521947,1.54619106 L15.5322055,22.6538103 C15.4483117,22.9046202 15.2215318,23.0805839 14.9571601,23.1 L7.92384791,23.1 C7.65947624,23.0805839 7.43269637,22.9046202 7.34880254,22.6538103 L0.0279676388,1.54703452 C-0.0675913706,1.32351727 0.092237415,1.10084349 0.34762521,1.10084349 L7.47649644,1.10084349 C7.7521684,1.10932844 7.99386446,1.28694064 8.08367669,1.54703452 L11.4400812,14.6493625 L14.7964857,1.54703452 C14.8862329,1.28604438 15.1288394,1.10792229 15.4053572,1.10000002 L22.5325372,1.10000002 Z" id="Path"></path>
                <path d="M39.1208475,17.3608706 C39.3743686,17.3608706 39.6000024,17.5523436 39.6000024,17.775026 L39.6000024,22.6537932 C39.5795285,22.9036381 39.3719763,23.0969189 39.1208475,23.1 L24.2670437,23.1 C24.0431001,23.1 23.8200015,22.8469533 23.7600015,22.6217405 L23.7600015,1.54620816 C23.7600015,1.25942032 23.9197198,1.10000002 24.2070437,1.10000002 L38.7422559,1.10000002 C39.0295799,1.10000002 39.2492982,1.32352584 39.2492982,1.54620816 L39.2492982,6.36002642 C39.2492982,6.64681426 39.0253545,6.83828732 38.7422559,6.83828732 L30.4005652,6.83828732 L30.4005652,9.35695935 L37.1687347,9.35695935 C37.4560586,9.35695935 37.615777,9.58048517 37.5836643,9.77111473 L37.136622,14.2348831 C37.070392,14.4798508 36.8474455,14.6497768 36.5932417,14.6490385 L30.4005652,14.6490385 L30.4005652,17.3591836 L39.1208475,17.3608706 Z" id="Path"></path>
                <path d="M59.3693249,1.10253009 C59.4948199,1.10000002 59.6158453,1.14985689 59.7045982,1.24003925 C59.7933511,1.33022161 59.8422017,1.45319633 59.8400037,1.58071251 L59.8400037,22.6536301 C59.8304683,22.9085255 59.6202328,23.1078303 59.3693249,23.099765 L53.9412085,23.099765 C53.7212619,23.099765 53.4432162,22.9403708 53.2821986,22.6856776 L47.8233727,12.7703499 L47.8233727,22.6536301 C47.8139133,22.9085255 47.6036777,23.1078303 47.3527699,23.099765 L41.7993254,23.099765 C41.5590555,23.0944072 41.365535,22.8977699 41.3602622,22.6536301 L41.3602622,1.57818245 C41.3518637,1.32305759 41.5482658,1.1091567 41.7993254,1.10000002 L47.2266118,1.10000002 C47.5088075,1.10000002 47.8225427,1.25939417 47.9478707,1.51408745 L53.3759872,11.4285717 L53.3759872,1.57818245 C53.3790203,1.32756334 53.5692062,1.12043244 53.8150504,1.10000002 L59.3693249,1.10253009 Z" id="Path"></path>
                <path d="M70.4307458,1.10253021 C77.2827994,1.10253021 81.840005,5.47048141 81.840005,12.1012658 C81.840005,18.6687954 77.2827994,23.1 70.4307458,23.1 L62.9323044,23.1 C62.6790482,23.079568 62.4831284,22.8724269 62.4800038,22.6217955 L62.4800038,1.57820592 C62.4831284,1.32757451 62.6790482,1.12043345 62.9323044,1.10000002 L70.4307458,1.10253021 Z M70.8189206,17.3615306 C73.3078559,17.3615306 74.9879514,15.257256 74.9879514,12.1012658 C74.9879514,8.94527557 73.3070009,6.84100095 70.8189206,6.84100095 L69.1379701,6.84100095 L69.1379701,17.362374 L70.8189206,17.3615306 Z" id="Shape"></path>
                <g id="Group" transform="translate(88.220000, 0.000000)">
                    <path d="M2.2747047,15.7251678 C2.37033031,15.4074367 2.59458505,15.3124535 2.85015083,15.4730002 C4.32176969,16.2992692 6.0811116,16.9019496 7.29631843,16.9977733 C8.32027404,16.9977733 8.98880705,16.5211766 8.98880705,15.7907313 C8.98880705,13.9162859 0,14.011269 0,7.0850673 C0,2.82763867 3.23096077,-8.20676878e-14 8.09348057,-8.20676878e-14 C10.3648003,-8.20676878e-14 13.2437234,0.924614311 15.2586311,2.28800014 C15.5125044,2.44686569 15.6106688,2.70071435 15.5125044,2.8595799 L13.4975967,7.33975651 C13.4019711,7.65748761 13.1777164,7.75247072 12.9221506,7.59192405 C11.3599836,6.70093208 9.53717336,6.03436922 8.4167459,5.94022667 C7.42494757,5.94022667 6.78518687,6.3848821 6.78518687,7.08422674 C6.78518687,8.95867212 15.840001,8.83174779 15.840001,15.8260348 C15.840001,20.0515222 12.5455719,22.8800014 7.61873751,22.8800014 C4.93191183,22.8800014 2.11814951,22.0537324 0.517055273,20.782808 C0.26318198,20.5920013 0.16501764,20.3700938 0.26318198,20.2112283 L2.2747047,15.7251678 Z" id="Path"></path>
                    <path d="M35.5953196,0.883451069 C35.7245483,0.881140163 35.8491746,0.930783142 35.9405681,1.02097556 C36.0319616,1.11116798 36.0822656,1.23415641 36.0800022,1.36168681 L36.0800022,22.4335803 C36.0701831,22.6885042 35.8536926,22.8878312 35.5953196,22.879765 L29.5535762,22.879765 C29.3061576,22.8744066 29.1068795,22.6777473 29.1014497,22.4335803 L29.1014497,15.2912518 L24.5784753,15.2912518 L24.5784753,22.4335803 C24.5687345,22.6885042 24.3522439,22.8878312 24.0938709,22.879765 L18.0521276,22.879765 C17.8096,22.8634557 17.6165276,22.6729206 17.6000011,22.4335803 L17.6000011,1.35831302 C17.6031245,1.10766596 17.7989689,0.90051197 18.0521276,0.880000054 L24.0938709,0.880000054 C24.2230997,0.877766366 24.3477259,0.927409345 24.4391194,1.01760176 C24.5305129,1.10779418 24.580817,1.23078261 24.5784753,1.35831302 L24.5784753,9.67978367 L29.1014497,9.67978367 L29.1014497,1.35831302 C29.0928014,1.10315971 29.2950469,0.889234974 29.5535762,0.880000054 L35.5953196,0.883451069 Z" id="Path"></path>
                    <path d="M49.280003,22.8800014 C42.4154911,22.8800014 37.8400023,18.3041693 37.8400023,11.4719466 C37.8400023,4.57835419 42.4163436,-8.20676878e-14 49.280003,-8.20676878e-14 C56.1436624,-8.20676878e-14 60.7200037,4.57583214 60.7200037,11.4719466 C60.7200037,18.3041693 56.14622,22.8800014 49.280003,22.8800014 Z M49.280003,6.4186071 C46.637183,6.4186071 44.8647885,8.45221686 44.8647885,11.4711059 C44.8647885,14.489995 46.637183,16.5236048 49.280003,16.5236048 C51.9228231,16.5236048 53.6952175,14.489995 53.6952175,11.4711059 C53.6952175,8.45221686 51.9228231,6.4186071 49.280003,6.4186071 L49.280003,6.4186071 Z" id="Shape"></path>
                    <path d="M71.2445917,0.883372606 C76.766725,0.883372606 80.0800049,3.91108137 80.0800049,8.47161513 C80.0800049,13.0321489 76.766725,16.0598577 71.2445917,16.0598577 L69.9506678,16.0598577 L69.9506678,22.4339814 C69.9506678,22.657413 69.7294486,22.8800001 69.4497941,22.8800001 L63.8016076,22.8800001 C63.5647246,22.8636981 63.3761458,22.6732334 63.3600039,22.4339814 L63.3600039,1.35805933 C63.3630546,1.10750476 63.5543409,0.900427212 63.8016076,0.880000054 L71.2445917,0.883372606 Z M71.5284202,10.3492836 C72.6328468,10.3492836 73.390001,9.58455737 73.390001,8.46908572 C73.390001,7.35361406 72.6328468,6.58888785 71.5284202,6.58888785 L69.8872238,6.58888785 L69.8872238,10.3492836 L71.5284202,10.3492836 Z" id="Shape"></path>
                </g>
            </g>
            <g id="Group-2" transform="translate(95.700002, 33.000000)" fill="#09458F">
                <path d="M4.20108402e-14,0.880000054 L2.87027569,0.880000054 C4.21828413,0.880000054 5.193634,1.08931447 5.79632529,1.5079433 C6.39901659,1.92657213 6.70008476,2.58968943 6.6995298,3.49729519 C6.6995298,4.12293194 6.53165308,4.63929849 6.19589964,5.04639485 C5.8601462,5.45349121 5.37011266,5.71700826 4.72579904,5.83694599 L4.72579904,5.90873565 C6.26859997,6.18320855 7.04000043,7.02565582 7.04000043,8.43607748 C7.04000043,9.37943391 6.73310514,10.1160707 6.11931455,10.6459879 C5.50552397,11.1759052 4.64727158,11.4405754 3.54455739,11.4399998 L4.20108402e-14,11.4399998 L4.20108402e-14,0.880000054 Z M1.17791186,5.40015351 L3.12417188,5.40015351 C3.95661843,5.40015351 4.55653491,5.26407031 4.92392131,4.99190391 C5.29130772,4.71973751 5.47444596,4.26132164 5.47334105,3.6166563 C5.47334105,3.02446372 5.26938663,2.59718554 4.86148782,2.33482174 C4.45358902,2.07245794 3.80483568,1.94127604 2.9152278,1.94127604 L1.17791186,1.94127604 L1.17791186,5.40015351 Z M1.17791186,6.43807462 L1.17791186,10.3882371 L3.29732077,10.3882371 C4.11755809,10.3882371 4.73495595,10.2233227 5.14951433,9.89349397 C5.56407271,9.56366519 5.7713519,9.04729864 5.7713519,8.3443943 C5.7713519,7.68992636 5.55935551,7.20844555 5.13536274,6.89995185 C4.71136996,6.59145815 4.06622389,6.43749961 3.19992452,6.43807462 L1.17791186,6.43807462 Z" id="Shape"></path>
                <path d="M7.92000049,3.52000022 L9.13843056,3.52000022 L10.7783095,8.02214342 C11.1385363,9.05003787 11.3621065,9.79205458 11.44902,10.2481935 L11.503956,10.2481935 C11.5629916,10.0031555 11.6873491,9.58411734 11.8770284,8.99107918 C12.0667078,8.39804103 12.6882219,6.57434804 13.7415708,3.52000022 L14.9600009,3.52000022 L11.734359,12.5104817 C11.4151292,13.3986009 11.0420567,14.0290275 10.6151416,14.4017614 C10.1882264,14.7744954 9.6645584,14.9605748 9.04413752,14.9600009 C8.698651,14.9600009 8.35426786,14.9189746 8.01757329,14.8374806 L8.01757329,13.8797613 C8.29453184,13.9400868 8.57683568,13.9690122 8.85965114,13.9660423 C9.64023353,13.9660423 10.1969724,13.5058769 10.5298679,12.5855461 L10.9472171,11.463893 L7.92000049,3.52000022 Z" id="Path"></path>
                <path d="M21.1200013,0.880000054 L23.9895984,0.880000054 C25.3372881,0.880000054 26.3124073,1.08938307 26.9149561,1.5081491 C27.5175049,1.92691513 27.8185019,2.59024975 27.8179471,3.49815297 C27.8179471,4.12399476 27.6501101,4.64053055 27.314436,5.04776032 C26.978762,5.4549901 26.4893991,5.71743988 25.8463475,5.83510968 L25.8463475,5.90692286 C27.3887836,6.18148571 28.1600017,7.02420909 28.1600017,8.43509299 C28.1600017,9.37875859 27.853179,10.1156368 27.2395335,10.6457277 C26.6258881,11.1758186 25.7678386,11.4405756 24.6653851,11.4399998 L21.1200013,11.4399998 L21.1200013,0.880000054 Z M22.3009637,5.40163492 L24.2467635,5.40163492 C25.0790132,5.40163492 25.6787879,5.26550712 26.0460874,4.99325152 C26.413387,4.72099592 26.5964819,4.26242981 26.5953773,3.6175532 C26.5953773,3.02516654 26.3914711,2.59774832 25.9836687,2.33529853 C25.5758663,2.07284875 24.9272664,1.94162386 24.0378688,1.94162386 L22.3009637,1.94162386 L22.3009637,5.40163492 Z M22.3009637,6.43989781 L22.3009637,10.3913533 L24.4198715,10.3913533 C25.2399149,10.3913533 25.8571667,10.2263849 26.2716271,9.896448 C26.6860875,9.56651113 26.8933176,9.04997534 26.8933176,8.34684064 C26.8933176,7.69215821 26.6813714,7.2105196 26.2574789,6.90192479 C25.8335863,6.59332999 25.1888702,6.43989781 24.3233305,6.44162825 L22.3009637,6.43989781 Z" id="Shape"></path>
                <path d="M33.4012184,11.4390384 C32.3244003,11.4390384 31.4752584,11.0949507 30.8537926,10.4067755 C30.2323269,9.71860019 29.9210633,8.76345076 29.9200018,7.54132719 C29.9200018,6.30973842 30.2092408,5.33120439 30.7877188,4.60572511 C31.3661967,3.88024583 32.1426309,3.51834136 33.1170212,3.52000593 C34.0298488,3.52000593 34.7521502,3.83486858 35.2839253,4.46458237 C35.8157005,5.09429616 36.0810573,5.92528451 36.0799991,6.95754743 L36.0799991,7.68998641 L31.0647513,7.68998641 C31.0870413,8.58695273 31.3030418,9.26788992 31.7127528,9.73279798 C32.1224637,10.197706 32.6996149,10.4301601 33.4442062,10.4301601 C34.245034,10.4265161 35.0366677,10.2508642 35.7703244,9.91402861 L35.7703244,10.9462915 C35.4144841,11.1113643 35.0437912,11.2386651 34.6637864,11.3262912 C34.2476895,11.4088916 33.8246363,11.4466702 33.4012184,11.4390384 Z M33.1018959,4.4871318 C32.5181108,4.4871318 32.0518788,4.68701443 31.7031999,5.08677968 C31.354521,5.48654493 31.1496655,6.039702 31.0886334,6.74625089 L34.897035,6.74625089 C34.897035,6.0163174 34.7420666,5.45731418 34.4321298,5.06924123 C34.122193,4.68116828 33.6790471,4.4871318 33.102692,4.4871318 L33.1018959,4.4871318 Z" id="Shape"></path>
                <path d="M41.1667539,11.4400007 C40.1089438,11.4400007 39.2901658,11.0995261 38.7104198,10.418577 C38.1306738,9.73762793 37.8405347,8.77438839 37.8400023,7.52885842 C37.8400023,6.24825094 38.1344004,5.26051282 38.7231966,4.56564406 C39.3119927,3.87077531 40.1510007,3.52222736 41.2402203,3.52000022 C41.5943403,3.52040828 41.9474168,3.56016319 42.2935053,3.6385956 C42.5790626,3.69511165 42.8567242,3.78882476 43.1200026,3.91754532 L42.7806197,4.89637487 C42.5212597,4.79069337 42.2542232,4.70690761 41.9820715,4.64582123 C41.7307773,4.5832692 41.4737411,4.54938581 41.2154653,4.54476459 C39.7312305,4.54476459 38.9891131,5.53500825 38.9891131,7.51549556 C38.9891131,8.45423652 39.1701173,9.17471743 39.5321258,9.67693827 C39.8941343,10.1791591 40.4307587,10.4297128 41.1419989,10.4285992 C41.7862099,10.4208983 42.4227095,10.2810055 43.0153928,10.016856 L43.0153928,11.0416204 C42.5250843,11.3066505 41.9088713,11.4394439 41.1667539,11.4400007 Z" id="Path"></path>
                <path d="M46.0317428,7.31522484 C46.3184049,6.90626713 46.6256325,6.51354823 46.9521253,6.13873027 L49.4381675,3.38154127 L50.8221064,3.38154127 L47.7034064,6.81591913 L51.0400031,11.4400007 L49.6283013,11.4400007 L46.9100602,7.63136372 L46.0317428,8.42391246 L46.0317428,11.4382395 L44.8800028,11.4382395 L44.8800028,8.40216803e-14 L46.0317428,8.40216803e-14 L46.0317428,6.06563966 C46.0317428,6.33510623 46.0129537,6.75163462 45.9753757,7.31522484 L46.0317428,7.31522484 Z" id="Path"></path>
                <path d="M55.3026201,10.4726777 C55.4956374,10.4732653 55.6883985,10.4579845 55.8791103,10.4269774 C56.0277919,10.4044046 56.1750257,10.3724688 56.3200035,10.3313453 L56.3200035,11.2284252 C56.1477263,11.3042125 55.9663443,11.3551774 55.7808634,11.3799133 C55.5691836,11.4176063 55.3549638,11.4376988 55.1402285,11.4400007 C53.7030629,11.4400007 52.9844801,10.650119 52.9844801,9.07035551 L52.9844801,4.46647343 L51.9200032,4.46647343 L51.9200032,3.9011438 L52.9852921,3.41367393 L53.4594755,1.76000011 L54.1090419,1.76000011 L54.1090419,3.55500634 L56.2647903,3.55500634 L56.2647903,4.46647343 L54.1090419,4.46647343 L54.1090419,9.02380891 C54.1090419,9.49040333 54.2151377,9.84838902 54.4273294,10.097766 C54.6395211,10.3471429 54.9312847,10.4721135 55.3026201,10.4726777 Z" id="Path"></path>
                <path d="M60.6812201,11.4390384 C59.604402,11.4390384 58.75526,11.0949507 58.1337943,10.4067755 C57.5123285,9.71860019 57.2010649,8.76345076 57.2000035,7.54132719 C57.2000035,6.30973842 57.4892425,5.33120439 58.0677204,4.60572511 C58.6461984,3.88024583 59.4226325,3.51834136 60.3970229,3.52000593 C61.3098505,3.52000593 62.0321519,3.83486858 62.563927,4.46458237 C63.0957021,5.09429616 63.361059,5.92528451 63.3600007,6.95754743 L63.3600007,7.68998641 L58.344753,7.68998641 C58.367043,8.58695273 58.5830434,9.26788992 58.9927544,9.73279798 C59.4024654,10.197706 59.9796166,10.4301601 60.7242079,10.4301601 C61.5250357,10.4265161 62.3166694,10.2508642 63.0503261,9.91402861 L63.0503261,10.9462915 C62.6944858,11.1113643 62.3237929,11.2386651 61.943788,11.3262912 C61.5276911,11.4088916 61.104638,11.4466702 60.6812201,11.4390384 Z M60.3818976,4.4871318 C59.7981125,4.4871318 59.3318805,4.68701443 58.9832016,5.08677968 C58.6345227,5.48654493 58.4296672,6.039702 58.3686351,6.74625089 L62.1770367,6.74625089 C62.1770367,6.0163174 62.0220683,5.45731418 61.7121315,5.06924123 C61.4021947,4.68116828 60.9587834,4.4871318 60.3818976,4.4871318 Z" id="Shape"></path>
                <path d="M68.4467556,11.4400007 C67.3889455,11.4400007 66.5701674,11.0995261 65.9904215,10.418577 C65.4106755,9.73762793 65.1205364,8.77438839 65.120004,7.52885842 C65.120004,6.24825094 65.4144021,5.26051282 66.0031982,4.56564406 C66.5919944,3.87077531 67.4310023,3.52222736 68.520222,3.52000022 C68.874342,3.52040828 69.2274185,3.56016319 69.573507,3.6385956 C69.8590642,3.69511165 70.1367259,3.78882476 70.4000043,3.91754532 L70.0574272,4.89637487 C69.7980672,4.79069337 69.5310307,4.70690761 69.258879,4.64582123 C69.0075847,4.5832692 68.7505485,4.54938581 68.4922728,4.54476459 C67.008038,4.54476459 66.2659206,5.53500825 66.2659206,7.51549556 C66.2659206,8.45423652 66.4469248,9.17471743 66.8089333,9.67693827 C67.1709418,10.1791591 67.7075662,10.4297128 68.4188064,10.4285992 C69.0630174,10.4208983 69.699517,10.2810055 70.2922003,10.016856 L70.2922003,11.0416204 C69.8045536,11.3066505 69.1894053,11.4394439 68.4467556,11.4400007 Z" id="Path"></path>
                <path d="M78.0843254,11.4382398 L78.0843254,6.22583275 C78.0843254,5.56899903 77.9476514,5.07886842 77.6743032,4.75544091 C77.400955,4.43201341 76.9726737,4.27029965 76.3894594,4.27029965 C75.6139883,4.27029965 75.0479589,4.50069039 74.6913711,4.96147187 C74.3347833,5.42225334 74.1564895,6.17681969 74.1564895,7.22517092 L74.1564895,11.4373593 L73.0400045,11.4373593 L73.0400045,8.40216803e-14 L74.1564895,8.40216803e-14 L74.1564895,3.46202438 C74.1602557,3.80840764 74.1422227,4.15466394 74.102518,4.49834246 L74.1693782,4.49834246 C74.3974464,4.10317789 74.7226659,3.78615314 75.1078377,3.58352981 C75.5401681,3.35394601 76.0160233,3.23930286 76.4965968,3.24894963 C77.3977328,3.24894963 78.0735848,3.48374274 78.5241529,3.95332896 C78.9747209,4.42291517 79.2000049,5.16662234 79.2000049,6.18445047 L79.2000049,11.4400007 L78.0843254,11.4382398 Z" id="Path"></path>
            </g>
        </g>
    </g>
</svg>