<?xml version="1.0" encoding="UTF-8"?>
<svg width="23px" height="23px" viewBox="0 0 23 23" version="1.1" xmlns="http://www.w3.org/2000/svg" xmlns:xlink="http://www.w3.org/1999/xlink">
    <!-- Generator: Sketch 54.1 (76490) - https://sketchapp.com -->
    <title>Instagram</title>
    <desc>Created with Sketch.</desc>
    <g id="Landing-pages" stroke="none" stroke-width="1" fill="none" fill-rule="evenodd">
        <g id="Our-story" transform="translate(-401.000000, -3496.000000)" fill="#D7D7D7">
            <g id="Instagram" transform="translate(401.000000, 3496.000000)">
                <path d="M16.1199167,0 L6.83983333,0 C3.06833333,0 0,3.06833333 0,6.83983333 L0,16.1199167 C0,19.8914167 3.06833333,22.95975 6.83983333,22.95975 L16.1199167,22.95975 C19.8914167,22.95975 22.95975,19.8914167 22.95975,16.1199167 L22.95975,6.83983333 C22.9597083,3.06833333 19.891375,0 16.1199167,0 L16.1199167,0 Z M20.65,16.1199167 C20.65,18.6217917 18.6217917,20.65 16.1199167,20.65 L6.83983333,20.65 C4.33795833,20.65 2.30975,18.6217917 2.30975,16.1199167 L2.30975,6.83983333 C2.30975,4.33791667 4.33795833,2.30975 6.83983333,2.30975 L16.1199167,2.30975 C18.6217917,2.30975 20.65,4.33791667 20.65,6.83983333 L20.65,16.1199167 L20.65,16.1199167 L20.65,16.1199167 Z" id="XMLID_17_"></path>
                <path d="M11.479875,5.54166667 C8.20554167,5.54166667 5.54166667,8.20554167 5.54166667,11.4798333 C5.54166667,14.754125 8.20554167,17.4180417 11.479875,17.4180417 C14.7542083,17.4180417 17.4180833,14.7541667 17.4180833,11.4798333 C17.4180833,8.2055 14.7542083,5.54166667 11.479875,5.54166667 L11.479875,5.54166667 Z M11.479875,15.1083333 C9.47591667,15.1083333 7.85141667,13.4838333 7.85141667,11.479875 C7.85141667,9.47591667 9.47595833,7.85141667 11.479875,7.85141667 C13.4838333,7.85141667 15.1083333,9.47591667 15.1083333,11.479875 C15.1083333,13.4837917 13.4837917,15.1083333 11.479875,15.1083333 L11.479875,15.1083333 Z" id="XMLID_81_"></path>
                <circle id="XMLID_83_" cx="17.4294167" cy="5.58633333" r="1.422875"></circle>
            </g>
        </g>
    </g>
</svg>