<?xml version="1.0" encoding="UTF-8"?>
<svg width="22px" height="18px" viewBox="0 0 22 18" version="1.1" xmlns="http://www.w3.org/2000/svg" xmlns:xlink="http://www.w3.org/1999/xlink">
    <!-- Generator: Sketch 54.1 (76490) - https://sketchapp.com -->
    <title>Shape</title>
    <desc>Created with Sketch.</desc>
    <g id="Landing-pages" stroke="none" stroke-width="1" fill="none" fill-rule="evenodd">
        <g id="Our-story" transform="translate(-329.000000, -3646.000000)" fill="#D7D7D7">
            <g id="Twitter" transform="translate(329.000000, 3646.000000)">
                <path d="M22,2.14185542 C21.1902778,2.50261446 20.3214575,2.74727711 19.4086013,2.85650602 C20.3406895,2.29528916 21.0541797,1.40512048 21.3923399,0.347674699 C20.5180196,0.86739759 19.5529314,1.24478313 18.5246111,1.44936145 C17.7011569,0.566096386 16.5298725,0.015939759 15.2307222,0.015939759 C12.7383235,0.015939759 10.717451,2.04787952 10.717451,4.55255422 C10.717451,4.90778313 10.757317,5.25473494 10.834317,5.58650602 C7.08403595,5.39710843 3.75854902,3.59049398 1.53284641,0.845277108 C1.14378431,1.51431325 0.922454248,2.29387952 0.922454248,3.12603614 C0.922454248,4.70045783 1.71981046,6.08963855 2.92959477,6.90238554 C2.18997059,6.87751807 1.49434641,6.67293976 0.885356209,6.33289157 L0.885356209,6.38956627 C0.885356209,8.58737349 2.44156863,10.4216386 4.50503922,10.8391084 C4.12697712,10.9413976 3.72831699,10.9980723 3.31588889,10.9980723 C3.02446078,10.9980723 2.74263072,10.9690482 2.46630065,10.913747 C3.04092484,12.7176145 4.70713725,14.0293735 6.68127778,14.0653373 C5.13743137,15.281747 3.19079085,16.0046747 1.07645425,16.0046747 C0.712160131,16.0046747 0.353330065,15.9825542 3.59477124e-05,15.9424699 C1.99754248,17.2321446 4.36897712,17.9840964 6.91774183,17.9840964 C15.2197941,17.9840964 19.7578333,11.0699639 19.7578333,5.07368675 L19.7426993,4.48622892 C20.6293856,3.85033735 21.3964739,3.05139759 22,2.14185542 L22,2.14185542 Z" id="Shape"></path>
            </g>
        </g>
    </g>
</svg>