<svg xmlns="http://www.w3.org/2000/svg" width="24.891" height="24.96" viewBox="0 0 24.891 24.96">
  <g id="pie-chart-stats" transform="translate(0)">
    <path id="Shape" d="M8.507,11.562a.384.384,0,0,1-.271-.113L.113,3.326A.39.39,0,0,1,0,3.034a.384.384,0,0,1,.142-.277,12.459,12.459,0,0,1,20.233,8.38.385.385,0,0,1-.381.424Z" transform="translate(4.513)"/>
    <path id="Shape-2" data-name="Shape" d="M4.836,17.833A12.481,12.481,0,0,1,2.757.143a.382.382,0,0,1,.569-.03L11.1,7.891a.382.382,0,0,1,.056.47L5.4,17.731a.384.384,0,0,1-.257.176.422.422,0,0,1-.068.006A.386.386,0,0,1,4.836,17.833Z" transform="translate(0 4.513)"/>
    <path id="Path" d="M17.6,0H6.3a.382.382,0,0,0-.326.182L.057,9.809a.383.383,0,0,0,.161.546,12.359,12.359,0,0,0,5.358,1.206,12.479,12.479,0,0,0,8.359-3.183A12.441,12.441,0,0,0,17.984.423.383.383,0,0,0,17.6,0Z" transform="translate(6.904 13.399)"/>
  </g>
</svg>
