<svg xmlns="http://www.w3.org/2000/svg" width="28.6" height="21.354" viewBox="0 0 28.6 21.354">
  <g id="Group_4" data-name="Group 4" transform="translate(-45 -15)">
    <path id="Fill_37" data-name="Fill 37" d="M0,.041A.956.956,0,0,1,.6.064a6.432,6.432,0,0,1,4.01,2.805,8.028,8.028,0,0,1,1.134,2.64c.1.4.04.472-.371.474-1.367.007-2.734,0-4.1,0a1.067,1.067,0,0,1-.2-.055c.536-.339.524-.817.5-1.34a8.457,8.457,0,0,0-.78-3.355A2.913,2.913,0,0,0,.147.315C.078.253-.015.2,0,.041" transform="translate(67.815 21.065)" fill="#d6b340"/>
    <g id="Group_2" data-name="Group 2" transform="translate(45 15)">
      <path id="Fill_23" data-name="Fill 23" d="M.028,21.172c.053-.188.221-.207.335-.284A1.973,1.973,0,0,0,1.3,19.2c.006-.358,0-.717,0-1.076q0-7.782,0-15.563c0-.2,0-.392,0-.587A1.942,1.942,0,0,0,.43.407C.3.314.159.232,0,.129.185-.052.391.011.572.01Q3.764,0,6.955.007c.28,0,.561,0,.841,0a.412.412,0,0,1,.315.079C8.066.239,7.933.246,7.839.3A1.986,1.986,0,0,0,6.762,2.1C6.74,3.048,6.756,4,6.756,4.941q0,7.733,0,15.465c0,.832,0,.833-.854.834q-2.647,0-5.294,0a1.131,1.131,0,0,1-.579-.066" fill="#d6b340"/>
      <path id="Fill_26" data-name="Fill 26" d="M12.611,11.965A5.122,5.122,0,0,1,10.989,13.9a6.543,6.543,0,0,1-9.445-1.453,8.1,8.1,0,0,1-1.5-4.036A7.937,7.937,0,0,1,1.6,2.745,6.688,6.688,0,0,1,5.925.044,1.806,1.806,0,0,1,6.641.031a.137.137,0,0,1-.015.194,6.3,6.3,0,0,0-1.569,2.9,10.046,10.046,0,0,0-.025,5.742,7.111,7.111,0,0,0,2,3.376A3.861,3.861,0,0,0,9.474,13.3a3.776,3.776,0,0,0,2.442-.8c.238-.171.464-.358.7-.538" transform="translate(15.194 6.051)" fill="#d6b340"/>
      <path id="Fill_39" data-name="Fill 39" d="M0,5.4A7.921,7.921,0,0,0,6.505,0c.163.084.111.213.111.313q.006,2.3,0,4.6c0,.54-.057.6-.588.6q-2.819.008-5.638,0C.27,5.514.129,5.557,0,5.4" transform="translate(7.856 15.722)" fill="#d6b340"/>
    </g>
  </g>
</svg>
