<?xml version="1.0" encoding="UTF-8"?>
<svg width="44px" height="44px" viewBox="0 0 44 44" version="1.1" xmlns="http://www.w3.org/2000/svg" xmlns:xlink="http://www.w3.org/1999/xlink">
    <!-- Generator: Sketch 54.1 (76490) - https://sketchapp.com -->
    <title>Group 16</title>
    <desc>Created with Sketch.</desc>
    <g id="Final" stroke="none" stroke-width="1" fill="none" fill-rule="evenodd">
        <g id="Landing-page_3" transform="translate(-1068.000000, -4886.000000)">
            <g id="Group-16" transform="translate(1068.364486, 4886.000000)">
                <g id="Group-14" transform="translate(16.551402, 16.689655)" fill="#E3C76B" fill-rule="nonzero">
                    <path d="M7.24123832,0 L3.29147196,0 C1.47392114,0 0,1.48623276 0,3.31896552 L0,7.30172414 C0,9.1344569 1.47392114,10.6206897 3.29147196,10.6206897 L7.24123832,10.6206897 C9.05878914,10.6206897 10.5327103,9.1344569 10.5327103,7.30172414 L10.5327103,3.31896552 C10.5327103,1.48623276 9.05878914,0 7.24123832,0 Z M9.54526869,7.30172414 C9.54526869,8.58284483 8.5117465,9.625 7.24123832,9.625 L3.29147196,9.625 C2.02096379,9.625 0.987441589,8.58284483 0.987441589,7.30172414 L0.987441589,3.31896552 C0.987441589,2.03784483 2.02096379,0.995689655 3.29147196,0.995689655 L7.24123832,0.995689655 C8.5117465,0.995689655 9.54526869,2.03784483 9.54526869,3.31896552 L9.54526869,7.30172414 Z" id="Shape"></path>
                    <path d="M5.26635514,2.65517241 C3.81218283,2.65517241 2.63317757,3.84402586 2.63317757,5.31034483 C2.63317757,6.77666379 3.81218283,7.96551724 5.26635514,7.96551724 C6.72052745,7.96551724 7.89953271,6.77666379 7.89953271,5.31034483 C7.89953271,3.84402586 6.72052745,2.65517241 5.26635514,2.65517241 Z M5.26635514,6.96982759 C4.35922547,6.96982759 3.62061916,6.22505172 3.62061916,5.31034483 C3.62061916,4.39497414 4.35922547,3.65086207 5.26635514,3.65086207 C6.17348481,3.65086207 6.91209112,4.39497414 6.91209112,5.31034483 C6.91209112,6.22505172 6.17348481,6.96982759 5.26635514,6.96982759 Z" id="Shape"></path>
                    <ellipse id="Oval" cx="8.09702103" cy="2.45603448" rx="1" ry="1"></ellipse>
                </g>
                <rect id="Rectangle-Copy-2" stroke="#E3C76B" stroke-width="0.5" x="0.25" y="0.25" width="43.135514" height="43.5"></rect>
            </g>
        </g>
    </g>
</svg>