<?xml version="1.0" encoding="UTF-8"?>
<svg width="20px" height="20px" viewBox="0 0 20 20" version="1.1" xmlns="http://www.w3.org/2000/svg" xmlns:xlink="http://www.w3.org/1999/xlink">
    <!-- Generator: Sketch 54.1 (76490) - https://sketchapp.com -->
    <title>qr-code (4)</title>
    <desc>Created with Sketch.</desc>
    <g id="Final" stroke="none" stroke-width="1" fill="none" fill-rule="evenodd">
        <g id="Landing-page_3" transform="translate(-687.000000, -4755.000000)" fill="#D6B340" fill-rule="nonzero">
            <g id="qr-code-(4)" transform="translate(687.000000, 4755.000000)">
                <path d="M2.41528319,2.76892091 L2.41528319,8.19274903 C2.41528319,8.40942381 2.59094238,8.58496094 2.80749512,8.58496094 L8.23144531,8.58496094 C8.44799806,8.58496094 8.62365722,8.40942381 8.62365722,8.19274903 L8.62365722,7.16430663 C8.62365722,6.94763184 8.44799806,6.77209472 8.23144531,6.77209472 C8.01489256,6.77209472 7.83935547,6.94763184 7.83935547,7.16430663 L7.83935547,7.80065919 L3.19970703,7.80065919 L3.19970703,3.16101075 L7.83935547,3.16101075 L7.83935547,4.10522462 C7.83935547,4.32189941 8.01489256,4.49755859 8.23144531,4.49755859 C8.44799806,4.49755859 8.62365722,4.32189941 8.62365722,4.10522462 L8.62365722,2.76892091 C8.62365722,2.55224609 8.44799806,2.376709 8.23144531,2.376709 L2.80749512,2.376709 C2.59094238,2.376709 2.41528319,2.55224609 2.41528319,2.76892091 Z" id="Path"></path>
                <path d="M8.23144531,11.3857422 L2.80749512,11.3857422 C2.59094238,11.3857422 2.41528319,11.5612793 2.41528319,11.777832 L2.41528319,17.2019043 C2.41528319,17.418457 2.59094238,17.5939941 2.80749512,17.5939941 L8.23144531,17.5939941 C8.44799806,17.5939941 8.62365722,17.418457 8.62365722,17.2019043 L8.62365722,11.777832 C8.62365722,11.5612793 8.44799806,11.3857422 8.23144531,11.3857422 L8.23144531,11.3857422 Z M7.83935547,16.8096924 L3.19970703,16.8096924 L3.19970703,12.1700439 L7.83935547,12.1700439 L7.83935547,16.8096924 Z" id="Shape"></path>
                <path d="M11.84375,8.58496094 L17.2678223,8.58496094 C17.4842529,8.58496094 17.6599121,8.40942381 17.6599121,8.19274903 L17.6599121,2.76892091 C17.6599121,2.55224609 17.4842529,2.376709 17.2678223,2.376709 L11.84375,2.376709 C11.6271973,2.376709 11.4515381,2.55224609 11.4515381,2.76892091 L11.4515381,8.19274903 C11.4515381,8.40942381 11.6271973,8.58496094 11.84375,8.58496094 L11.84375,8.58496094 Z M12.2358398,3.16101075 L16.8754883,3.16101075 L16.8754883,7.80065919 L12.2358398,7.80065919 L12.2358398,3.16101075 Z" id="Shape"></path>
                <path d="M17.6599121,17.2019043 L17.6599121,11.777832 C17.6599121,11.5612793 17.4842529,11.3857422 17.2678223,11.3857422 L11.84375,11.3857422 C11.6271973,11.3857422 11.4515381,11.5612793 11.4515381,11.777832 L11.4515381,17.2019043 C11.4515381,17.418457 11.6271973,17.5939941 11.84375,17.5939941 L17.2678223,17.5939941 C17.4842529,17.5939941 17.6599121,17.418457 17.6599121,17.2019043 Z M16.8754883,16.8096924 L12.2358398,16.8096924 L12.2358398,12.1700439 L16.8754883,12.1700439 L16.8754883,16.8096924 Z" id="Shape"></path>
                <path d="M17.2678222,10.4012451 C17.4842529,10.4012451 17.6599121,10.2255859 17.6599121,10.0090332 C17.6599121,9.79235841 17.4842529,9.61694337 17.2678222,9.61694337 L10.3918457,9.61694337 L10.3918457,2.72546388 C10.3918457,2.50891113 10.2161865,2.33325194 9.99975587,2.33325194 C9.782959,2.33325194 9.60742188,2.50891113 9.60742188,2.72546388 L9.60742188,9.61694337 L3.13842775,9.61694338 C2.92199706,9.61694338 2.74633788,9.79248047 2.74633788,10.0090332 C2.74633788,10.225708 2.92199706,10.4012451 3.13842775,10.4012451 L9.60742188,10.4012451 L9.60742188,17.2019043 C9.60742188,17.418457 9.782959,17.5939941 9.99975587,17.5939941 C10.2161865,17.5939941 10.3918457,17.418457 10.3918457,17.2019043 L10.3918457,10.4012451 L17.2678222,10.4012451 Z" id="Path"></path>
                <path d="M0.392089844,3.22265625 C0.608886719,3.22265625 0.78430175,3.04711913 0.78430175,2.83056641 L0.78430175,0.79467775 L2.74609375,0.79467775 C2.96276856,0.79467775 3.13842775,0.619262688 3.13842775,0.402587875 C3.13842775,0.186035156 2.96276856,0.0103759688 2.74609375,0.0103759688 L0.392089844,0.0103759688 C0.175659188,0.0103759688 0,0.186035156 0,0.402587875 L0,2.83056641 C0,3.04711913 0.175659188,3.22265625 0.392089844,3.22265625 Z" id="Path"></path>
                <path d="M19.6079102,0.0103759688 L17.2539062,0.0103759688 C17.0372314,0.0103759688 16.8615722,0.186035156 16.8615722,0.402587875 C16.8615722,0.619262688 17.0372314,0.79467775 17.2539062,0.79467775 L19.2156982,0.79467775 L19.2156982,2.83056641 C19.2156982,3.04711913 19.3911133,3.22265625 19.6079102,3.22265625 C19.8243408,3.22265625 20,3.04711913 20,2.83056641 L20,0.402587875 C20,0.186035156 19.8243408,0.0103759688 19.6079102,0.0103759688 Z" id="Path"></path>
                <path d="M2.74609375,19.2092285 L0.78430175,19.2092285 L0.78430175,17.1734619 C0.78430175,16.9570312 0.608886719,16.7813721 0.392089844,16.7813721 C0.175659188,16.7813721 0,16.9570312 0,17.1734619 L0,19.6014404 C0,19.8179932 0.175659188,19.9936523 0.392089844,19.9936523 L2.74609375,19.9936523 C2.96276856,19.9936523 3.13842775,19.8179932 3.13842775,19.6014404 C3.13842775,19.3847656 2.96276856,19.2092285 2.74609375,19.2092285 L2.74609375,19.2092285 Z" id="Path"></path>
                <path d="M19.6079102,16.7813721 C19.3911133,16.7813721 19.2156982,16.9570312 19.2156982,17.1734619 L19.2156982,19.2092285 L17.2539062,19.2092285 C17.0372314,19.2092285 16.8615722,19.3847656 16.8615722,19.6014404 C16.8615722,19.8179932 17.0372314,19.9936523 17.2539062,19.9936523 L19.6079102,19.9936523 C19.8243408,19.9936523 20,19.8179932 20,19.6014404 L20,17.1734619 C20,16.9570313 19.8243408,16.7813721 19.6079102,16.7813721 L19.6079102,16.7813721 Z" id="Path"></path>
            </g>
        </g>
    </g>
</svg>