<?xml version="1.0" encoding="UTF-8"?>
<svg width="11px" height="11px" viewBox="0 0 11 11" version="1.1" xmlns="http://www.w3.org/2000/svg" xmlns:xlink="http://www.w3.org/1999/xlink">
    <!-- Generator: Sketch 54.1 (76490) - https://sketchapp.com -->
    <title>baseline-search-24px</title>
    <desc>Created with Sketch.</desc>
    <g id="Final" stroke="none" stroke-width="1" fill="none" fill-rule="evenodd">
        <g id="Landing-page_3" transform="translate(-1390.000000, -25.000000)">
            <g id="baseline-search-24px" transform="translate(1389.000000, 24.000000)">
                <path d="M9.04166667,8.16666667 L8.58083333,8.16666667 L8.4175,8.00916667 C8.98916667,7.34416667 9.33333333,6.48083333 9.33333333,5.54166667 C9.33333333,3.4475 7.63583333,1.75 5.54166667,1.75 C3.4475,1.75 1.75,3.4475 1.75,5.54166667 C1.75,7.63583333 3.4475,9.33333333 5.54166667,9.33333333 C6.48083333,9.33333333 7.34416667,8.98916667 8.00916667,8.4175 L8.16666667,8.58083333 L8.16666667,9.04166667 L11.0833333,11.9525 L11.9525,11.0833333 L9.04166667,8.16666667 Z M5.54166667,8.16666667 C4.08916667,8.16666667 2.91666667,6.99416667 2.91666667,5.54166667 C2.91666667,4.08916667 4.08916667,2.91666667 5.54166667,2.91666667 C6.99416667,2.91666667 8.16666667,4.08916667 8.16666667,5.54166667 C8.16666667,6.99416667 6.99416667,8.16666667 5.54166667,8.16666667 Z" id="Shape" fill="#6D7278" fill-rule="nonzero"></path>
                <polygon id="Path" points="0 0 14 0 14 14 0 14"></polygon>
            </g>
        </g>
    </g>
</svg>