<svg xmlns="http://www.w3.org/2000/svg" width="13.477" height="11.283" viewBox="0 0 13.477 11.283">
  <path id="twitter-icon" d="M13.011.216A5,5,0,0,1,11.25.9,2.77,2.77,0,0,0,9.238,0,2.808,2.808,0,0,0,6.471,2.839a3.957,3.957,0,0,0,.072.647A7.782,7.782,0,0,1,.865.539,2.758,2.758,0,0,0,.506,1.977,2.993,2.993,0,0,0,1.727,4.348,2.554,2.554,0,0,1,.47,3.989v.036A2.785,2.785,0,0,0,2.7,6.792,2.317,2.317,0,0,1,1.98,6.9a2.21,2.21,0,0,1-.5-.036A2.819,2.819,0,0,0,4.063,8.84,5.424,5.424,0,0,1,.647,10.062,3.9,3.9,0,0,1,0,10.026a7.74,7.74,0,0,0,4.241,1.258,7.928,7.928,0,0,0,7.87-8.049V2.875A5.346,5.346,0,0,0,13.477,1.4a4.932,4.932,0,0,1-1.583.431A3.963,3.963,0,0,0,13.011.216Z" transform="translate(0 0)" fill="#666"/>
</svg>
