<?xml version="1.0" encoding="UTF-8"?>
<svg width="45px" height="44px" viewBox="0 0 45 44" version="1.1" xmlns="http://www.w3.org/2000/svg" xmlns:xlink="http://www.w3.org/1999/xlink">
    <!-- Generator: Sketch 54.1 (76490) - https://sketchapp.com -->
    <title>Group 11</title>
    <desc>Created with Sketch.</desc>
    <g id="Final" stroke="none" stroke-width="1" fill="none" fill-rule="evenodd">
        <g id="Landing-page_3" transform="translate(-1009.000000, -4886.000000)">
            <g id="Group-11" transform="translate(1009.682243, 4886.000000)">
                <path d="M27.9200415,17.9467964 C27.4463577,18.1601122 26.9374529,18.3041511 26.4031327,18.3689585 C26.9484594,18.0369985 27.3671103,17.5116321 27.5644285,16.8854994 C27.0541228,17.1928773 26.4887841,17.4159447 25.8872236,17.5362142 C25.4053349,17.0151142 24.7191238,16.6896552 23.9594687,16.6896552 C22.5007948,16.6896552 21.3182863,17.8901153 21.3182863,19.3707302 C21.3182863,19.5807955 21.3415002,19.7855787 21.3865272,19.9818292 C19.1916122,19.8698892 17.2456464,18.8024975 15.9428659,17.1804847 C15.7157298,17.5762363 15.5852516,18.0367953 15.5852516,18.5282343 C15.5852516,19.4582913 16.051531,20.2790493 16.7601555,20.7599241 C16.3272962,20.7459062 15.9200522,20.6254335 15.5640389,20.4245103 C15.5638388,20.435684 15.5638388,20.4470609 15.5638388,20.4582346 C15.5638388,21.7574294 16.4743843,22.8410738 17.682308,23.0873012 C17.4605751,23.1486549 17.2272353,23.1815665 16.9864911,23.1815665 C16.8165893,23.1815665 16.65089,23.1647043 16.4897935,23.1332149 C16.8255947,24.198575 17.8011792,24.9736225 18.9568716,24.9951572 C18.05293,25.7143362 16.9142478,26.1429994 15.6767064,26.1429994 C15.4635787,26.1429994 15.2532527,26.1304036 15.046729,26.1054152 C16.2154292,26.8662416 17.6036609,27.3103448 19.0951544,27.3103448 C23.953265,27.3103448 26.6098566,23.2248391 26.6098566,19.6815618 C26.6098566,19.5653555 26.607255,19.4497587 26.602252,19.3347713 C27.1181611,18.9566944 27.5658293,18.4843522 27.9200415,17.9467964" id="ic_twitter" fill="#E3C76B"></path>
                <rect id="Rectangle-Copy" stroke="#E3C76B" stroke-width="0.5" x="0.25" y="0.25" width="43.135514" height="43.5"></rect>
            </g>
        </g>
    </g>
</svg>