<svg xmlns="http://www.w3.org/2000/svg" width="395.224" height="409.415" viewBox="0 0 395.224 409.415" style="">
  <g id="shape-eyes" transform="translate(0.2 0.214)" opacity="0.5">
    <path id="Fill_1" data-name="Fill 1" d="M4.351,250.2c-7.784-11.3-1.642-31.226-1.642-31.226l20.79-.937s-7.662,16.809-4.234,21.781c9.937,8.367,101.542,5.068,150.69-21.455C218.922,191.94,320.01,47.642,321.987,30.325c-.559-4.873-20.068-15.2-20.068-15.2L312.762,0s25.812,15.307,27.266,29.094c2.8,26.422-111.95,178.586-161.5,205.327-32.249,17.408-86.211,27.744-125.885,27.744C28.739,262.166,10.017,258.41,4.351,250.2Z" transform="translate(32.921 146.834)" fill="none" stroke="#789ac1" stroke-miterlimit="10" stroke-width="1" class="qNCQZrhB_0"></path>
    <path id="Fill_5" data-name="Fill 5" d="M0,213.987c4.341.027,8.527.009,12.64-.036C24.262,185.923,61.382,101.3,94.162,79.579c61.564-40.8,133.358-46.165,133.358-46.165S160.4,51.533,118.087,79.579c-32.407,21.47-69.236,104.8-81.212,133.582,53.929-2.97,85.134-13.978,110.534-31.5C178.123,160.484,287,0,287,0S165.273,10.59,93.807,57.954C48,88.316,0,213.987,0,213.987Z" transform="translate(29 134)" fill="none" stroke="#789ac1" stroke-miterlimit="10" stroke-width="1" class="qNCQZrhB_1"></path>
    <path id="Fill_7" data-name="Fill 7" d="M0,176V110.455S83.854,43.346,160.887,15.307,395,6.317,395,6.317,278.891,4.07,199.963,32.163,61.852,113.827,0,176" fill="none" stroke="#789AC1" stroke-miterlimit="10" stroke-width="1" class="qNCQZrhB_2"></path>
  </g>
<style data-made-with="vivus-instant">.qNCQZrhB_0{stroke-dasharray:1006 1008;stroke-dashoffset:1007;animation:qNCQZrhB_draw 2000ms linear 0ms forwards;}.qNCQZrhB_1{stroke-dasharray:1325 1327;stroke-dashoffset:1326;animation:qNCQZrhB_draw 2000ms linear 500ms forwards;}.qNCQZrhB_2{stroke-dasharray:936 938;stroke-dashoffset:937;animation:qNCQZrhB_draw 2000ms linear 1000ms forwards;}@keyframes qNCQZrhB_draw{100%{stroke-dashoffset:0;}}@keyframes qNCQZrhB_fade{0%{stroke-opacity:1;}94.44444444444444%{stroke-opacity:1;}100%{stroke-opacity:0;}}</style></svg>
