<?xml version="1.0" encoding="UTF-8"?>
<svg width="1440px" height="19px" viewBox="0 0 1440 19" version="1.1" xmlns="http://www.w3.org/2000/svg" xmlns:xlink="http://www.w3.org/1999/xlink">
    <!-- Generator: Sketch 54.1 (76490) - https://sketchapp.com -->
    <title>Rectangle Copy 12</title>
    <desc>Created with Sketch.</desc>
    <g id="Final" stroke="none" stroke-width="1" fill="none" fill-rule="evenodd">
        <g id="Landing-page_3" transform="translate(0.000000, -3348.000000)" fill="#E3C76B">
            <path d="M0,3348 L1440,3348 L1440,3367 C1437,3363.67555 1434,3362.01333 1431,3362.01333 C1428,3362.01333 1425,3363.67555 1422,3367 C1419,3363.67555 1416,3362.01333 1413,3362.01333 C1410,3362.01333 1407,3363.67555 1404,3367 C1401,3363.67555 1398,3362.01333 1395,3362.01333 C1392,3362.01333 1389,3363.67555 1386,3367 C1383,3363.67555 1380,3362.01333 1377,3362.01333 C1374,3362.01333 1371,3363.67555 1368,3367 C1365,3363.67555 1362,3362.01333 1359,3362.01333 C1356,3362.01333 1353,3363.67555 1350,3367 C1347,3363.67555 1344,3362.01333 1341,3362.01333 C1338,3362.01333 1335,3363.67555 1332,3367 C1329,3363.67555 1326,3362.01333 1323,3362.01333 C1320,3362.01333 1317,3363.67555 1314,3367 C1311,3363.67555 1308,3362.01333 1305,3362.01333 C1302,3362.01333 1299,3363.67555 1296,3367 C1293,3363.67555 1290,3362.01333 1287,3362.01333 C1284,3362.01333 1281,3363.67555 1278,3367 C1275,3363.67555 1272,3362.01333 1269,3362.01333 C1266,3362.01333 1263,3363.67555 1260,3367 C1257,3363.67555 1254,3362.01333 1251,3362.01333 C1248,3362.01333 1245,3363.67555 1242,3367 C1239,3363.67555 1236,3362.01333 1233,3362.01333 C1230,3362.01333 1227,3363.67555 1224,3367 C1221,3363.67555 1218,3362.01333 1215,3362.01333 C1212,3362.01333 1209,3363.67555 1206,3367 C1203,3363.67555 1200,3362.01333 1197,3362.01333 C1194,3362.01333 1191,3363.67555 1188,3367 C1185,3363.67555 1182,3362.01333 1179,3362.01333 C1176,3362.01333 1173,3363.67555 1170,3367 C1167,3363.67555 1164,3362.01333 1161,3362.01333 C1158,3362.01333 1155,3363.67555 1152,3367 C1149,3363.67555 1146,3362.01333 1143,3362.01333 C1140,3362.01333 1137,3363.67555 1134,3367 C1131,3363.67555 1128,3362.01333 1125,3362.01333 C1122,3362.01333 1119,3363.67555 1116,3367 C1113,3363.67555 1110,3362.01333 1107,3362.01333 C1104,3362.01333 1101,3363.67555 1098,3367 C1095,3363.67555 1092,3362.01333 1089,3362.01333 C1086,3362.01333 1083,3363.67555 1080,3367 C1077,3363.67555 1074,3362.01333 1071,3362.01333 C1068,3362.01333 1065,3363.67555 1062,3367 C1059,3363.67555 1056,3362.01333 1053,3362.01333 C1050,3362.01333 1047,3363.67555 1044,3367 C1041,3363.67555 1038,3362.01333 1035,3362.01333 C1032,3362.01333 1029,3363.67555 1026,3367 C1023,3363.67555 1020,3362.01333 1017,3362.01333 C1014,3362.01333 1011,3363.67555 1008,3367 C1005,3363.67555 1002,3362.01333 999,3362.01333 C996,3362.01333 993,3363.67555 990,3367 C987,3363.67555 984,3362.01333 981,3362.01333 C978,3362.01333 975,3363.67555 972,3367 C969,3363.67555 966,3362.01333 963,3362.01333 C960,3362.01333 957,3363.67555 954,3367 C951,3363.67555 948,3362.01333 945,3362.01333 C942,3362.01333 939,3363.67555 936,3367 C933,3363.67555 930,3362.01333 927,3362.01333 C924,3362.01333 921,3363.67555 918,3367 C915,3363.67555 912,3362.01333 909,3362.01333 C906,3362.01333 903,3363.67555 900,3367 C897,3363.67555 894,3362.01333 891,3362.01333 C888,3362.01333 885,3363.67555 882,3367 C879,3363.67555 876,3362.01333 873,3362.01333 C870,3362.01333 867,3363.67555 864,3367 C861,3363.67555 858,3362.01333 855,3362.01333 C852,3362.01333 849,3363.67555 846,3367 C843,3363.67555 840,3362.01333 837,3362.01333 C834,3362.01333 831,3363.67555 828,3367 C825,3363.67555 822,3362.01333 819,3362.01333 C816,3362.01333 813,3363.67555 810,3367 C807,3363.67555 804,3362.01333 801,3362.01333 C798,3362.01333 795,3363.67555 792,3367 C789,3363.67555 786,3362.01333 783,3362.01333 C780,3362.01333 777,3363.67555 774,3367 C771,3363.67555 768,3362.01333 765,3362.01333 C762,3362.01333 759,3363.67555 756,3367 C753,3363.67555 750,3362.01333 747,3362.01333 C744,3362.01333 741,3363.67555 738,3367 C735,3363.67555 732,3362.01333 729,3362.01333 C726,3362.01333 723,3363.67555 720,3367 C717,3363.67555 714,3362.01333 711,3362.01333 C708,3362.01333 705,3363.67555 702,3367 C699,3363.67555 696,3362.01333 693,3362.01333 C690,3362.01333 687,3363.67555 684,3367 C681,3363.67555 678,3362.01333 675,3362.01333 C672,3362.01333 669,3363.67555 666,3367 C663,3363.67555 660,3362.01333 657,3362.01333 C654,3362.01333 651,3363.67555 648,3367 C645,3363.67555 642,3362.01333 639,3362.01333 C636,3362.01333 633,3363.67555 630,3367 C627,3363.67555 624,3362.01333 621,3362.01333 C618,3362.01333 615,3363.67555 612,3367 C609,3363.67555 606,3362.01333 603,3362.01333 C600,3362.01333 597,3363.67555 594,3367 C591,3363.67555 588,3362.01333 585,3362.01333 C582,3362.01333 579,3363.67555 576,3367 C573,3363.67555 570,3362.01333 567,3362.01333 C564,3362.01333 561,3363.67555 558,3367 C555,3363.67555 552,3362.01333 549,3362.01333 C546,3362.01333 543,3363.67555 540,3367 C537,3363.67555 534,3362.01333 531,3362.01333 C528,3362.01333 525,3363.67555 522,3367 C519,3363.67555 516,3362.01333 513,3362.01333 C510,3362.01333 507,3363.67555 504,3367 C501,3363.67555 498,3362.01333 495,3362.01333 C492,3362.01333 489,3363.67555 486,3367 C483,3363.67555 480,3362.01333 477,3362.01333 C474,3362.01333 471,3363.67555 468,3367 C465,3363.67555 462,3362.01333 459,3362.01333 C456,3362.01333 453,3363.67555 450,3367 C447,3363.67555 444,3362.01333 441,3362.01333 C438,3362.01333 435,3363.67555 432,3367 C429,3363.67555 426,3362.01333 423,3362.01333 C420,3362.01333 417,3363.67555 414,3367 C411,3363.67555 408,3362.01333 405,3362.01333 C402,3362.01333 399,3363.67555 396,3367 C393,3363.67555 390,3362.01333 387,3362.01333 C384,3362.01333 381,3363.67555 378,3367 C375,3363.67555 372,3362.01333 369,3362.01333 C366,3362.01333 363,3363.67555 360,3367 C357,3363.67555 354,3362.01333 351,3362.01333 C348,3362.01333 345,3363.67555 342,3367 C339,3363.67555 336,3362.01333 333,3362.01333 C330,3362.01333 327,3363.67555 324,3367 C321,3363.67555 318,3362.01333 315,3362.01333 C312,3362.01333 309,3363.67555 306,3367 C303,3363.67555 300,3362.01333 297,3362.01333 C294,3362.01333 291,3363.67555 288,3367 C285,3363.67555 282,3362.01333 279,3362.01333 C276,3362.01333 273,3363.67555 270,3367 C267,3363.67555 264,3362.01333 261,3362.01333 C258,3362.01333 255,3363.67555 252,3367 C249,3363.67555 246,3362.01333 243,3362.01333 C240,3362.01333 237,3363.67555 234,3367 C231,3363.67555 228,3362.01333 225,3362.01333 C222,3362.01333 219,3363.67555 216,3367 C213,3363.67555 210,3362.01333 207,3362.01333 C204,3362.01333 201,3363.67555 198,3367 C195,3363.67555 192,3362.01333 189,3362.01333 C186,3362.01333 183,3363.67555 180,3367 C177,3363.67555 174,3362.01333 171,3362.01333 C168,3362.01333 165,3363.67555 162,3367 C159,3363.67555 156,3362.01333 153,3362.01333 C150,3362.01333 147,3363.67555 144,3367 C141,3363.67555 138,3362.01333 135,3362.01333 C132,3362.01333 129,3363.67555 126,3367 C123,3363.67555 120,3362.01333 117,3362.01333 C114,3362.01333 111,3363.67555 108,3367 C105,3363.67555 102,3362.01333 99,3362.01333 C96,3362.01333 93,3363.67555 90,3367 C87,3363.67555 84,3362.01333 81,3362.01333 C78,3362.01333 75,3363.67555 72,3367 C69,3363.67555 66,3362.01333 63,3362.01333 C60,3362.01333 57,3363.67555 54,3367 C51,3363.67555 48,3362.01333 45,3362.01333 C42,3362.01333 39,3363.67555 36,3367 C33,3363.67555 30,3362.01333 27,3362.01333 C24,3362.01333 21,3363.67555 18,3367 C15,3363.67555 12,3362.01333 9,3362.01333 C6,3362.01333 3,3363.67555 0,3367 L0,3348 Z" id="Rectangle-Copy-12"></path>
        </g>
    </g>
</svg>