<?xml version="1.0" encoding="UTF-8"?>
<svg width="11px" height="15px" viewBox="0 0 11 15" version="1.1" xmlns="http://www.w3.org/2000/svg" xmlns:xlink="http://www.w3.org/1999/xlink">
    <!-- Generator: Sketch 54.1 (76490) - https://sketchapp.com -->
    <title>Group 19</title>
    <desc>Created with Sketch.</desc>
    <g id="Final" stroke="none" stroke-width="1" fill="none" fill-rule="evenodd">
        <g id="Landing-page_3" transform="translate(-951.000000, -4755.000000)" fill="#E3C76B" fill-rule="nonzero">
            <g id="Group-19" transform="translate(951.000000, 4755.000000)">
                <path d="M5.15625,0 C2.31309375,0 0,2.36566406 0,5.2734375 C0,6.25587891 0.266091146,7.21464844 0.769684896,8.04644531 L4.86274479,14.7922559 C4.94114844,14.9214844 5.07927865,15 5.22783594,15 C5.22898177,15 5.23009896,15 5.23124479,15 C5.38109115,14.9987988 5.51950781,14.9178516 5.59647917,14.7863672 L9.58521094,7.97519531 C10.0610182,7.16097656 10.3125,6.22672852 10.3125,5.2734375 C10.3125,2.36566406 7.99940625,0 5.15625,0 Z M8.84772396,7.52396484 L5.22133333,13.7163867 L1.50009635,7.58337891 C1.08092187,6.89103516 0.853645833,6.09228516 0.853645833,5.2734375 C0.853645833,2.85029297 2.78695312,0.873046875 5.15625,0.873046875 C7.52554687,0.873046875 9.45598958,2.85029297 9.45598958,5.2734375 C9.45598958,6.06799805 9.24369531,6.84632812 8.84772396,7.52396484 Z" id="Shape"></path>
                <path d="M5.15625,2.63671875 C3.73467188,2.63671875 2.578125,3.81955078 2.578125,5.2734375 C2.578125,6.71803711 3.71585156,7.91015625 5.15625,7.91015625 C6.61440885,7.91015625 7.734375,6.7021582 7.734375,5.2734375 C7.734375,3.81955078 6.57782812,2.63671875 5.15625,2.63671875 Z M5.15625,7.03710938 C4.20357552,7.03710938 3.43177083,6.24512695 3.43177083,5.2734375 C3.43177083,4.30417969 4.20853125,3.50976562 5.15625,3.50976562 C6.10396875,3.50976562 6.87786458,4.30417969 6.87786458,5.2734375 C6.87786458,6.23094727 6.12402083,7.03710938 5.15625,7.03710938 Z" id="Shape"></path>
            </g>
        </g>
    </g>
</svg>