<svg id="logo" xmlns="http://www.w3.org/2000/svg" width="136.676" height="32" viewBox="0 0 136.676 32">
  <path id="EVENTS" d="M66.688,6.7a6.118,6.118,0,0,1-1.6-.28v-.9a4.29,4.29,0,0,0,1.728.5,1.228,1.228,0,0,0,.839-.28A.941.941,0,0,0,67.971,5a1,1,0,0,0-.209-.638A2.767,2.767,0,0,0,67,3.78l-.428-.255a4.07,4.07,0,0,1-1.12-.877,1.5,1.5,0,0,1-.326-.959A1.578,1.578,0,0,1,65.642.476,1.9,1.9,0,0,1,66.97,0a5.182,5.182,0,0,1,1.517.246v.827a4.466,4.466,0,0,0-1.467-.4,1.14,1.14,0,0,0-.757.25.789.789,0,0,0-.3.629.831.831,0,0,0,.218.564,3.491,3.491,0,0,0,.8.586l.446.259a3.922,3.922,0,0,1,1.127.887,1.612,1.612,0,0,1,.319,1,1.668,1.668,0,0,1-.6,1.336A2.392,2.392,0,0,1,66.688,6.7ZM38.94,6.54h-.757V.159h.866l3.132,4.927V.159h.757V6.538h-.862L38.94,1.612V6.539Zm15.707,0h-.883V.836H51.557V.159h5.3V.836H54.647v5.7Zm-25.213,0H25.776V.159h3.478V.836H26.659V2.884h2.174v.668H26.659v2.31h2.775v.676Zm-14.5,0h-.832L11.755.159h.883l1.926,5.224L16.421.159H17.2L14.937,6.538Zm-11.28,0H0V.159H3.477V.836H.883V2.884H3.056v.668H.883v2.31H3.658v.676Z" transform="translate(37.432 25.302)" fill="#d6b340"/>
  <path id="Fill_22" data-name="Fill 22" d="M8.166.1C8.1.24,7.951.237,7.844.3A1.947,1.947,0,0,0,6.81,2.027q0,1.689,0,3.377v14.98c0,.851,0,.852-.837.853q-2.7,0-5.4,0a1.067,1.067,0,0,1-.563-.062c.02-.153.137-.16.218-.2a2.073,2.073,0,0,0,1.124-1.834c.008-.114,0-.228,0-.343q0-8.176,0-16.351a3.019,3.019,0,0,0-.087-.873A2.016,2.016,0,0,0,.312.316C.205.256.065.234,0,.1.435-.037,7.779-.031,8.166.1" transform="translate(33.494 0.001)" fill="#d6b340"/>
  <path id="Fill_23" data-name="Fill 23" d="M.028,21.172c.053-.188.221-.207.335-.284A1.973,1.973,0,0,0,1.3,19.2c.006-.358,0-.717,0-1.076q0-7.782,0-15.563c0-.2,0-.392,0-.587A1.942,1.942,0,0,0,.43.407C.3.314.159.232,0,.129.185-.052.391.011.572.01Q3.764,0,6.955.007c.28,0,.561,0,.841,0a.412.412,0,0,1,.315.079C8.066.239,7.933.246,7.839.3A1.986,1.986,0,0,0,6.762,2.1C6.74,3.048,6.756,4,6.756,4.941q0,7.733,0,15.465c0,.832,0,.833-.854.834q-2.647,0-5.294,0a1.131,1.131,0,0,1-.579-.066" transform="translate(0 0)" fill="#d6b340"/>
  <path id="Fill_24" data-name="Fill 24" d="M12.683,11.908a6.122,6.122,0,0,1-2.176,2.341,6.46,6.46,0,0,1-8.122-.839A7.762,7.762,0,0,1,0,7.6,7.762,7.762,0,0,1,2.432,1.8,6.486,6.486,0,0,1,6,.037a1.447,1.447,0,0,1,.729.02c-.168.191-.322.351-.46.525A6.653,6.653,0,0,0,5.146,2.8a10.124,10.124,0,0,0,.32,7.266,5.908,5.908,0,0,0,1.9,2.458,3.609,3.609,0,0,0,4.167.232,10.881,10.881,0,0,0,1.151-.846" transform="translate(96.24 6.048)" fill="#d6b340"/>
  <path id="Fill_25" data-name="Fill 25" d="M6.749.064c-.171.192-.327.353-.465.527A6.683,6.683,0,0,0,5.16,2.81a10.138,10.138,0,0,0,.327,7.265,5.884,5.884,0,0,0,1.9,2.455,3.613,3.613,0,0,0,4.168.22,9.56,9.56,0,0,0,1.138-.856,3.357,3.357,0,0,1-.83,1.222,6.483,6.483,0,0,1-9.431.316A7.9,7.9,0,0,1,.384,5.181,7.122,7.122,0,0,1,3.548.956,6.494,6.494,0,0,1,6.032.038a1.314,1.314,0,0,1,.718.026" transform="translate(123.252 6.047)" fill="#d6b340"/>
  <path id="Fill_26" data-name="Fill 26" d="M12.611,11.965A5.122,5.122,0,0,1,10.989,13.9a6.543,6.543,0,0,1-9.445-1.453,8.1,8.1,0,0,1-1.5-4.036A7.937,7.937,0,0,1,1.6,2.745,6.688,6.688,0,0,1,5.925.044,1.806,1.806,0,0,1,6.641.031a.137.137,0,0,1-.015.194,6.3,6.3,0,0,0-1.569,2.9,10.046,10.046,0,0,0-.025,5.742,7.111,7.111,0,0,0,2,3.376A3.861,3.861,0,0,0,9.474,13.3a3.776,3.776,0,0,0,2.442-.8c.238-.171.464-.358.7-.538" transform="translate(15.194 6.051)" fill="#d6b340"/>
  <path id="Fill_27" data-name="Fill 27" d="M6.645,14.829q-3.269.1-6.478.051c-.041-.149.013-.188.067-.223A1.851,1.851,0,0,0,1.1,12.994q0-5.233,0-10.466A1.9,1.9,0,0,0,0,.78,4.757,4.757,0,0,1,1.242.522C2.365.348,3.491.2,4.616.037,5.524-.093,5.754.1,5.755,1q0,5.967,0,11.933a2.038,2.038,0,0,0,.379,1.334c.151.194.379.306.514.559" transform="translate(110.583 6.344)" fill="#d6b340"/>
  <path id="Fill_28" data-name="Fill 28" d="M0,.783A1.54,1.54,0,0,1,.631.6Q2.538.323,4.446.052A4.151,4.151,0,0,1,5.134,0a.5.5,0,0,1,.551.5,4.233,4.233,0,0,1,.015.537q0,5.944,0,11.887a1.878,1.878,0,0,0,.894,1.742c.035.022.053.073.081.113a48.07,48.07,0,0,1-6.522,0c.043-.176.211-.241.326-.348a1.665,1.665,0,0,0,.561-1.26q0-.636,0-1.272c0-3.114-.006-6.228,0-9.343A1.986,1.986,0,0,0,.609,1.246,2.829,2.829,0,0,0,0,.783" transform="translate(64.717 6.351)" fill="#d6b340"/>
  <path id="Fill_29" data-name="Fill 29" d="M6.608,14.8A59.089,59.089,0,0,1,.1,14.8c-.027-.149.108-.188.188-.253A1.855,1.855,0,0,0,.98,13c-.01-3.1,0-6.2,0-9.3,0-.376-.012-.751,0-1.126A1.763,1.763,0,0,0,.107.923.92.92,0,0,1,0,.831C.025.655.168.693.268.678,1.751.456,3.235.234,4.72.022c.676-.1.913.11.914.79q.006,5.335,0,10.67c0,.489.006.979,0,1.468a1.831,1.831,0,0,0,.872,1.7.341.341,0,0,1,.073.065c.01.011.011.029.029.082" transform="translate(88.643 6.353)" fill="#d6b340"/>
  <path id="Fill_30" data-name="Fill 30" d="M6.63,14.235a1.812,1.812,0,0,1-.7.157c-1.319.2-2.641.385-3.961.576-.706.1-.976-.121-.979-.846-.006-1.94,0-3.881,0-5.821,0-1.875-.011-3.751.005-5.626A1.853,1.853,0,0,0,.094.893C.058.872.043.819,0,.754A5.748,5.748,0,0,1,1.31.512C2.384.342,3.463.2,4.538.039c1-.151,1.116.122,1.114.96-.012,3.718.006,7.436-.014,11.154a2.094,2.094,0,0,0,.95,1.966c.021.013.022.056.042.116" transform="translate(56.949 6.35)" fill="#d6b340"/>
  <path id="Fill_31" data-name="Fill 31" d="M.88,15.144c.023-.04.031-.078.055-.093a1.946,1.946,0,0,0,.911-1.831c-.022-2.692.009-5.385-.018-8.077a2.946,2.946,0,0,1,.889-2.3,3.326,3.326,0,0,0,.514-.656A.991.991,0,0,0,2.914.737,2.141,2.141,0,0,0,1.75.37,6.036,6.036,0,0,0,.223.445.2.2,0,0,1,0,.382,4.351,4.351,0,0,1,1,.129a6.385,6.385,0,0,1,2.65.021,3.4,3.4,0,0,1,2.7,2.685A5.876,5.876,0,0,1,6.5,4.193c0,2.938.011,5.875-.011,8.811a2.1,2.1,0,0,0,.973,2.076c-.024.174-.143.156-.232.156q-3.019.006-6.038,0a.363.363,0,0,1-.311-.1" transform="translate(79.96 5.997)" fill="#d6b340"/>
  <path id="Fill_32" data-name="Fill 32" d="M7.467,15.134c-.088.137-.233.1-.358.1A53.539,53.539,0,0,1,.9,15.146c-.017-.081.047-.109.1-.145a1.847,1.847,0,0,0,.847-1.667c-.016-2.35-.006-4.7-.006-7.05q0-.734,0-1.469A2.551,2.551,0,0,1,2.574,3a6.1,6.1,0,0,0,.6-.715,1.039,1.039,0,0,0-.4-1.647A2.153,2.153,0,0,0,1.78.36,8.4,8.4,0,0,0,0,.465.4.4,0,0,1,.3.271,7.834,7.834,0,0,1,3.291.065,3.5,3.5,0,0,1,6.348,2.806,5.771,5.771,0,0,1,6.5,4.164c0,2.986.008,5.973-.009,8.959a2.017,2.017,0,0,0,.93,1.925c.023.014.028.055.043.087" transform="translate(71.935 6.003)" fill="#d6b340"/>
  <path id="Fill_33" data-name="Fill 33" d="M7.252,14.652a2.768,2.768,0,0,1-1.124.288,5.9,5.9,0,0,1-2.21-.076A3.473,3.473,0,0,1,1.11,11.772a13.257,13.257,0,0,1-.1-1.61c.008-2.512,0-5.024.007-7.536A1.906,1.906,0,0,0,.58,1.262,6.416,6.416,0,0,0,0,.765,5.906,5.906,0,0,1,1.345.512C2.419.342,3.5.2,4.574.039c.9-.133,1.113.048,1.109.918q-.022,4.6,0,9.2A2.629,2.629,0,0,1,4.9,12.1a3.843,3.843,0,0,0-.614.763.931.931,0,0,0,.292,1.368,2.483,2.483,0,0,0,1.387.462,9.651,9.651,0,0,0,1.291-.037" transform="translate(48.899 6.35)" fill="#d6b340"/>
  <path id="Fill_34" data-name="Fill 34" d="M0,.907A8.67,8.67,0,0,1,2.536.039,2.953,2.953,0,0,1,3.993.163,2.337,2.337,0,0,1,5.577,2.736,2.469,2.469,0,0,1,3.183,4.754,2.412,2.412,0,0,1,.831,2.5a4.9,4.9,0,0,1,.04-.681c.062-.55-.091-.739-.655-.784-.064,0-.127-.013-.191-.019L0,.907" transform="translate(116.991 5.716)" fill="#d6b340"/>
  <path id="Fill_35" data-name="Fill 35" d="M1.128,5.9a1.107,1.107,0,0,0,.545-1.214,9.6,9.6,0,0,0-.643-3.1A3.828,3.828,0,0,0,0,.069.8.8,0,0,1,.6.052a6.207,6.207,0,0,1,3.844,2.48,7.936,7.936,0,0,1,1.389,3c.082.357.044.439-.245.441-1.466.01-2.932,0-4.4,0L1.128,5.9" transform="translate(103.776 6.066)" fill="#d6b340"/>
  <path id="Fill_36" data-name="Fill 36" d="M1.165,5.883a1.1,1.1,0,0,0,.521-1.2,9.574,9.574,0,0,0-.643-3.1A3.588,3.588,0,0,0,0,.075.792.792,0,0,1,.61.051,6.209,6.209,0,0,1,4.455,2.528a7.948,7.948,0,0,1,1.389,3c.088.385.046.447-.341.448-1.385.007-2.771,0-4.156,0a.164.164,0,0,1-.182-.1" transform="translate(130.793 6.067)" fill="#d6b340"/>
  <path id="Fill_37" data-name="Fill 37" d="M0,.041A.956.956,0,0,1,.6.064a6.432,6.432,0,0,1,4.01,2.805,8.028,8.028,0,0,1,1.134,2.64c.1.4.04.472-.371.474-1.367.007-2.734,0-4.1,0a1.067,1.067,0,0,1-.2-.055c.536-.339.524-.817.5-1.34a8.457,8.457,0,0,0-.78-3.355A2.913,2.913,0,0,0,.147.315C.078.253-.015.2,0,.041" transform="translate(22.815 6.065)" fill="#d6b340"/>
  <path id="Fill_38" data-name="Fill 38" d="M.005,2.342A2.375,2.375,0,0,1,2.421,0,2.416,2.416,0,0,1,4.779,2.42a2.415,2.415,0,0,1-2.436,2.34A2.372,2.372,0,0,1,.005,2.342" transform="translate(89.595 0.029)" fill="#d6b340"/>
  <path id="Fill_39" data-name="Fill 39" d="M0,5.4A7.921,7.921,0,0,0,6.505,0c.163.084.111.213.111.313q.006,2.3,0,4.6c0,.54-.057.6-.588.6q-2.819.008-5.638,0C.27,5.514.129,5.557,0,5.4" transform="translate(7.856 15.722)" fill="#d6b340"/>
  <path id="Fill_40" data-name="Fill 40" d="M0,5.381A8.226,8.226,0,0,0,6.39,0c.134.084.106.2.106.3,0,1.534,0,3.068,0,4.6,0,.441-.057.511-.466.513-1.947.007-3.894,0-5.841,0A1.034,1.034,0,0,1,0,5.381" transform="translate(41.457 15.818)" fill="#d6b340"/>
  <path id="Fill_41" data-name="Fill 41" d="M6.085,3.99a1.09,1.09,0,0,1-.657-.169q-2-1.116-4-2.225C1.013,1.364.6,1.128.186.894.1.846,0,.8,0,.688,0,.553.118.5.232.47.714.364,1.2.265,1.68.165A1.34,1.34,0,0,0,1.97.113,1.054,1.054,0,0,1,3.289.443c.339.354.7.686,1.059,1.024.687.654,1.379,1.3,2.064,1.961.114.109.306.215.246.389-.07.2-.3.145-.474.173a.69.69,0,0,1-.1,0" transform="translate(99.912 1.4)" fill="#d6b340"/>
</svg>
