<?xml version="1.0" encoding="utf-8"?>
<!-- Generator: Adobe Illustrator 21.1.0, SVG Export Plug-In . SVG Version: 6.00 Build 0)  -->
<svg version="1.1" id="waves-shape" xmlns="http://www.w3.org/2000/svg" xmlns:xlink="http://www.w3.org/1999/xlink" x="0px"
	 y="0px" viewBox="0 0 2184 29" style="enable-background:new 0 0 2184 29;" xml:space="preserve">
<style type="text/css">
	.st0{opacity:0.194;fill:#FFFFFF;enable-background:new    ;}
	.st1{fill:#FFFFFF;}
</style>
<g>
	<path id="Rectangle_Copy_26" class="st0" d="M-1,1.3c0,0,273.1,15.5,546.3,15.5S818.4,0,1091.5,0s273.1,16.8,546.3,16.8
		S2184,1.3,2184,1.3V29H-1V1.3z"/>
	<path id="Rectangle_Copy_27" class="st0" d="M-1,1.3c0,0,242,15.5,525.8,15.5S808.7,0,1092.5,0s283.8,16.8,567.7,16.8
		S2184,1.3,2184,1.3V29H-1V1.3z"/>
	<path id="Rectangle_Copy_25" class="st1" d="M-1,1c0,0,273.1,22.3,546.3,22.3S818.4,1,1091.5,1s273.1,22.3,546.3,22.3
		S2184,1,2184,1v28H-1V1z"/>
</g>
</svg>
