<svg id="plus" xmlns="http://www.w3.org/2000/svg" width="55.573" height="55.573" viewBox="0 0 55.573 55.573">
  <path id="Path_57" data-name="Path 57" d="M13.052,26.718C13.052,11.962,23.579,0,36.564,0a26.718,26.718,0,1,0,0,53.436C23.579,53.436,13.052,41.474,13.052,26.718Z" transform="translate(-8.777 0)" fill="#fff"/>
  <g id="Group_35216" data-name="Group 35216" transform="translate(0 0)">
    <path id="Path_58" data-name="Path 58" d="M27.787,55.573A27.787,27.787,0,1,1,55.573,27.787,27.786,27.786,0,0,1,27.787,55.573Zm0-53.436A25.649,25.649,0,1,0,53.436,27.787,25.649,25.649,0,0,0,27.787,2.137Z" fill="#0c406b"/>
    <path id="Path_59" data-name="Path 59" d="M247.223,156.855a1.068,1.068,0,0,1-1.069-1.069V129.069a1.069,1.069,0,1,1,2.137,0v26.718a1.068,1.068,0,0,1-1.069,1.069Z" transform="translate(-219.436 -114.107)" fill="#275c89"/>
    <path id="Path_60" data-name="Path 60" d="M150.864,248.291H124.146a1.069,1.069,0,1,1,0-2.137h26.718a1.069,1.069,0,1,1,0,2.137Z" transform="translate(-109.718 -219.436)" fill="#275c89"/>
  </g>
</svg>
