<?xml version="1.0" encoding="UTF-8"?>
<svg width="113px" height="81px" viewBox="0 0 113 81" version="1.1" xmlns="http://www.w3.org/2000/svg" xmlns:xlink="http://www.w3.org/1999/xlink">
    <title>logo</title>
    <defs>
        <filter id="filter-1">
            <feColorMatrix in="SourceGraphic" type="matrix" values="0 0 0 0 1.000000 0 0 0 0 1.000000 0 0 0 0 1.000000 0 0 0 1.000000 0"></feColorMatrix>
        </filter>
    </defs>
    <g id="Symbols" stroke="none" stroke-width="1" fill="none" fill-rule="evenodd">
        <g id="logo" transform="translate(-221.000000, -298.000000)" filter="url(#filter-1)">
            <g transform="translate(221.350000, 298.870299)">
                <path d="M12.8912738,14.6650921 C12.8912738,12.348001 12.8912738,10.0330917 12.8912738,7.72036425 C12.8912738,7.60254606 12.8912738,7.48472787 12.8912738,7.36690968 C12.8912738,7.24909149 12.8258192,7.20000057 12.7145465,7.22290966 C12.1352737,7.34400058 11.5200009,7.28509149 10.96691,7.52072787 C9.93272806,7.95600063 8.97709162,8.47963704 8.34872794,9.48436439 C7.83081358,10.3791992 7.56081569,11.3959276 7.56654606,12.4298192 C7.5741047,12.9337429 7.66250183,13.4331867 7.82836426,13.909092 C7.85345452,14.0505301 7.8622392,14.1943792 7.85454608,14.3378193 C7.85454608,14.7076375 7.61563697,14.7403648 7.32436422,14.7403648 L0.474545492,14.7403648 L0.474545492,14.6618193 C0.526909133,14.6618193 0.605454594,14.6127284 0.579272773,14.5800012 C0.463940057,14.3982094 0.426222622,14.1777981 0.474545492,13.9680011 C0.474545492,13.2218192 0.474545492,12.4789101 0.474545492,11.7327282 C0.535437806,10.482707 0.800772105,9.25111359 1.2600001,8.08690973 C1.88539311,6.5670944 2.7938679,5.17994891 3.93709122,3.99927305 C5.3273511,2.54723452 7.0742279,1.48534106 9.00327344,0.919636437 C9.79641285,0.688180322 10.6132942,0.547641597 11.4381827,0.500727313 C16.1770922,0.173454559 20.9290926,0.409090942 25.6614566,0.356727301 C26.5614567,0.356727301 27.3730931,0.778909153 28.1520022,1.21418191 C29.2374165,1.81256632 30.1417733,2.69205325 30.7701843,3.76036394 C31.435458,4.79685572 31.7992057,5.99801651 31.8208811,7.22945512 C31.8208811,8.03781882 31.8370934,8.86581889 31.5294571,9.60872804 C31.1506487,10.6680497 30.5245928,11.6217191 29.7032751,12.3905464 C29.5993054,12.4873895 29.5009629,12.5901028 29.4087296,12.6981828 C30.1336064,13.2252095 30.8064808,13.8202759 31.4181843,14.4752739 C31.3658207,14.8254557 31.0909116,14.7109103 30.8912752,14.7109103 C25.0854565,14.7109103 19.2796379,14.7109103 13.4738193,14.7109103 C13.278437,14.7254837 13.0819752,14.7100317 12.8912738,14.6650921 Z M19.7149107,9.10145527 C19.7149107,9.63818258 19.7149107,10.1749099 19.7149107,10.7083645 C19.7149107,10.9538191 19.770547,11.0356372 20.0421834,11.0356372 C20.8930926,11.0192736 21.7440017,11.0683645 22.5883654,11.0160009 C23.2134564,10.9767281 23.8058201,10.7803645 24.1003656,10.1323644 C24.2686491,9.72630306 24.3063943,9.27793578 24.2083656,8.84945525 C24.1317641,8.14210876 23.6435541,7.54726341 22.9647291,7.3341824 C21.956729,7.00690965 20.935638,7.24909149 19.9243652,7.18690966 C19.7280016,7.18690966 19.7247288,7.30800058 19.7280016,7.44545514 L19.7149107,9.10145527 Z" id="Shape" fill="#FFFFFF" fill-rule="nonzero"></path>
                <path d="M12.8912738,14.6650921 C13.0792165,14.7207212 13.2745764,14.7472106 13.4705465,14.7436375 C19.2763652,14.7436375 25.0821838,14.7436375 30.8880025,14.7436375 C31.0843661,14.7436375 31.3625479,14.858183 31.4149116,14.5080012 C31.7831776,14.850318 32.0869159,15.2560414 32.3116389,15.7058194 C32.8234942,16.5373739 33.2198552,17.434691 33.4898208,18.3730924 C33.6698209,19.0440015 33.8170936,19.7149107 33.9349118,20.395638 L33.9349118,23.6290928 C33.8508519,24.4192335 33.6672134,25.1955734 33.3883663,25.9396384 C32.9661844,27.1767294 32.2167298,28.2141841 31.4803661,29.2516387 C30.7889981,30.204575 29.9734203,31.0608766 29.055275,31.7978207 C28.2521086,32.4075067 27.3785706,32.918444 26.4534566,33.319639 C25.4431487,33.7853347 24.3757252,34.1154656 23.2789109,34.3014573 C22.5327291,34.4345482 21.7865472,34.5621846 21.0403653,34.6843664 C20.7593195,34.7335141 20.4747498,34.759782 20.1894561,34.7629119 C19.8000016,34.7890937 19.4007288,34.6549118 19.0210924,34.8381846 C18.9327288,34.9592755 18.8018197,34.9069119 18.6938197,34.9069119 C17.7120014,34.9069119 16.7530922,34.965821 15.7876376,34.9069119 C14.8223157,34.833236 13.8618939,34.7053983 12.9109101,34.5240027 C11.7327282,34.3014573 10.5709099,34.0396391 9.41563711,33.72873 C9.15381891,33.6600027 9.08836436,33.5258208 9.08836436,33.2705481 C9.10145527,31.2152752 9.10145527,29.1600023 9.08836436,27.1047294 C9.08836436,26.7447294 9.17345527,26.7283658 9.51054621,26.8069112 C10.8196372,27.1080022 12.1058191,27.4287295 13.4116374,27.7069113 C14.8738931,28.0081221 16.3677027,28.1279346 17.8592741,28.0636386 C19.3819498,28.0364888 20.8835147,27.7025604 22.2741836,27.0818203 C23.3989307,26.5710955 24.3753415,25.7827592 25.1116384,24.7909111 C25.8446248,23.8354397 26.1383654,22.6140969 25.9200021,21.4298199 C25.8935221,21.0991412 25.8421031,20.7709349 25.7661839,20.4480016 C25.3981141,19.219655 24.4498923,18.2506335 23.22982,17.8560014 C22.0221836,17.4207287 20.7883653,17.4567287 19.5447288,17.4894559 C19.3941834,17.5974559 19.4661834,17.7545469 19.4661834,17.885456 C19.4661834,19.3189106 19.4661834,20.7512744 19.4661834,22.1825472 C19.4824562,22.3998797 19.4285387,22.6166966 19.3123652,22.8010927 L18.2520015,23.2920019 L13.1727283,25.6450929 C12.9829101,25.7334566 12.8650919,25.7694566 12.8650919,25.4814566 C12.8803647,21.8705472 12.8890919,18.2650924 12.8912738,14.6650921 Z" id="Path" fill="#0181C0" fill-rule="nonzero"></path>
                <path d="M45.4680036,29.2647296 C44.6513214,29.1703362 43.8477724,28.9848173 43.0723671,28.7116386 C41.9114881,28.3118549 40.810462,27.7558367 39.7996395,27.0589112 C38.5571433,26.2075131 37.4830374,25.1334072 36.6316393,23.890911 C35.6496993,22.4819113 34.9934871,20.8721231 34.7105482,19.1781833 C34.6221846,18.6970924 34.59273,18.1963651 34.5338209,17.7152741 C34.5829118,17.3192741 34.4781846,16.9134559 34.6123664,16.5207286 C34.7923664,15.7189103 34.7269119,14.8843648 35.0116391,14.0923648 C35.1883664,14.2854557 34.8120028,14.5636375 35.1000028,14.7469103 C35.3880028,14.930183 35.5810937,14.6749103 35.8265483,14.7469103 C35.8787079,14.7534472 35.9314796,14.7534472 35.9836392,14.7469103 L40.3363668,14.7469103 C40.5574956,14.7542705 40.7783993,14.7266575 40.9909123,14.6650921 C39.3545486,18.6316378 42.1036397,22.9876382 46.1814582,23.4752746 C46.1814582,23.5996382 46.2730946,23.6160019 46.3712764,23.6160019 L48.0076402,23.6160019 C48.105822,23.6160019 48.1909129,23.5996382 48.1974584,23.4752746 C48.4657981,23.4430218 48.7323241,23.3971443 48.9960039,23.33782 C49.7480157,23.1238631 50.4560867,22.7781383 51.0872768,22.316729 C51.9054821,21.7209188 52.5862699,20.9564276 53.0836406,20.0749107 C53.4140814,19.4594334 53.6491254,18.7973378 53.7807315,18.1112742 C53.8069134,18.0720014 53.8560043,18.029456 53.8560043,17.9901832 C53.8560043,17.4174559 53.8560043,16.8480013 53.8560043,16.2785467 C53.8560043,16.1770922 53.8265497,16.0985467 53.7120043,16.0854558 C53.5909133,15.6436376 53.607277,15.1658194 53.3847315,14.7534557 L59.6650957,14.7534557 C59.8854415,15.9061107 59.9350634,17.0849061 59.8123684,18.2520015 C59.7333947,19.4336903 59.4510694,20.5928847 58.9778229,21.6785472 C58.5321856,22.7319329 57.9501163,23.7222211 57.24655,24.624002 C56.6157079,25.3841555 55.9071299,26.0762805 55.132368,26.689093 C54.2282863,27.4006588 53.2277566,27.9802608 52.1607314,28.4105477 C51.0967482,28.9008118 49.9521288,29.1925123 48.7832766,29.2712751 L45.4680036,29.2647296 Z" id="Path" fill="#0281C0" fill-rule="nonzero"></path>
                <path d="M80.5712791,14.7272739 C80.6793391,15.0860791 80.7344653,15.458732 80.7349155,15.8334558 C80.827193,17.3134162 80.6745972,18.7984603 80.2832791,20.2287289 C79.8438307,21.7862734 79.084805,23.235221 78.0545517,24.4832747 C77.6950312,24.9136436 77.3092017,25.3213331 76.8992788,25.704002 C76.0895729,26.4343718 75.1778249,27.0429388 74.1927332,27.5105476 C73.4593895,27.8791553 72.6922006,28.176167 71.9018239,28.3974568 C70.903071,28.720419 69.8543928,28.8612035 68.8058237,28.8130932 C66.2694598,28.8130932 63.7363687,28.8130932 61.2000049,28.8130932 C60.9185503,28.8130932 60.7810957,28.7738205 60.7810957,28.4367295 C60.7941866,23.8745474 60.7941866,19.3123652 60.7810957,14.750183 L65.3269143,14.750183 C65.4966621,14.7674802 65.6678606,14.7368686 65.8210961,14.6618193 C66.3706484,14.9772662 66.8390552,15.4165377 67.1890962,15.9447285 C67.4640054,16.3374558 67.6538236,16.7858195 67.9614599,17.1687286 C68.3544967,16.4831617 69.1993269,16.2015517 69.9250965,16.5141831 C70.6778238,16.7890922 71.2341875,17.3160014 71.852733,17.7709105 C72.657824,18.3567287 73.161824,19.0963652 73.0800058,20.1403652 C73.0636422,20.3367289 73.161824,20.2941834 73.2927331,20.2483652 C73.6200059,20.1305471 73.9701877,20.035638 74.3367332,19.9210925 C73.9407331,20.6214562 73.3549149,21.0992744 72.8280058,21.6392744 C72.737119,21.7421984 72.5857231,21.7655959 72.4680058,21.6949108 C71.72659,21.3384374 71.0170852,20.9190851 70.3472783,20.4414562 C69.7196936,19.998281 69.1375759,19.4939982 68.60946,18.9360015 C68.60946,19.2927288 68.60946,19.5381834 68.60946,19.7803652 C68.6323691,20.1698198 68.5440054,20.5658198 68.7338236,20.9454562 C69.0783012,21.6062306 69.6068947,22.1530123 70.2556419,22.5196382 C70.6810965,22.7814564 70.687642,22.7912745 70.3374601,23.1414564 C69.7815728,23.6878701 69.3369928,24.3369569 69.0283691,25.0527293 C68.9203691,25.2981838 68.7403691,25.5992748 68.86146,25.8349111 C68.9138237,25.933093 69.2901873,25.7236384 69.5160055,25.6516384 C71.1883693,25.1083656 72.8705512,24.5814565 74.2745514,23.4556382 C74.956345,22.9624503 75.5627043,22.3726282 76.0745515,21.704729 C76.615999,20.8914088 77.0021462,19.9848505 77.2134607,19.0309106 C77.2396425,18.9916379 77.2920061,18.9523651 77.2920061,18.9130924 C77.2920061,18.3403651 77.2920061,17.7709105 77.2920061,17.2014559 C77.2920061,17.1000014 77.269097,17.0214559 77.1512789,17.008365 C77.1108433,16.6793977 77.0122163,16.3602452 76.8600061,16.0658195 C76.5474511,15.6152482 76.2716523,15.1402614 76.0352788,14.6454557 C76.4677848,14.7166457 76.9063654,14.744057 77.3443698,14.7272739 C78.4145517,14.7240012 79.4945518,14.7272739 80.5712791,14.7272739 Z" id="Path" fill="#0281C0" fill-rule="nonzero"></path>
                <path d="M59.0760047,48.8127312 L59.0465501,52.5076405 C58.9989718,52.5462333 58.9763593,52.6077894 58.9876411,52.6680042 L58.9876411,52.6680042 C58.8141865,52.9134588 58.9385501,53.1916406 58.9025501,53.4567315 C58.6733947,54.6111044 58.1516412,55.6872914 57.3872773,56.5821863 C56.1600045,57.9109137 54.5956407,58.5654592 52.874186,58.9581865 C51.9676405,59.1676411 51.0578222,59.0400047 50.1545494,59.1152774 C48.8618221,59.216732 47.6410947,58.8894592 46.4203673,58.555641 C45.4588669,58.2085498 44.5381382,57.7575134 43.6745489,57.21055 C43.5796398,57.1516409 43.445458,57.1647318 43.5567307,56.9552773 C44.0901853,55.9341863 44.5974581,54.9000044 45.1047309,53.8625497 C45.2160036,53.6334588 45.3174581,53.5647315 45.5727309,53.7087315 C46.5970946,54.2847316 47.6607311,54.808368 48.8454584,54.9360044 C50.1807313,55.0832771 51.5552768,55.2632771 52.7432769,54.363277 C53.4534241,53.9039629 53.8879114,53.1209038 53.9018225,52.2752769 L53.9018225,50.400004 C52.9527315,51.493095 51.8923678,52.1967314 50.5276404,52.3636405 L48.7145493,52.3636405 C47.7200558,52.3150202 46.7588859,51.9897186 45.9392764,51.4243677 C44.1720035,50.3312767 43.2687307,48.6785493 42.9120034,46.688731 C42.7909125,46.0341855 42.7385489,45.3370945 42.6698216,44.6596399 C42.6698216,44.502549 42.6010943,44.3323672 42.7385489,44.1818217 L47.6050947,44.1818217 C47.6334952,44.2885839 47.6131204,44.402443 47.5494583,44.4927308 C47.4250947,44.5941854 47.4905492,44.6334581 47.6050947,44.6530945 C47.5640455,45.3506042 47.6757357,46.0486683 47.9323674,46.6985492 C48.1677761,47.3118973 48.594729,47.8329635 49.1498221,48.1843675 C49.7505269,48.5279326 50.4462414,48.6679939 51.133095,48.5836402 C52.4358985,48.4463481 53.4973485,47.4764481 53.751277,46.1912764 C53.8893306,45.5308173 53.9475658,44.8561685 53.9247316,44.1818217 L59.0563683,44.1818217 C59.0563683,45.5563673 59.0563683,46.9320037 59.0563683,48.3087311 C59.0563683,48.4756402 59.072732,48.645822 59.0760047,48.8127312 Z" id="Path" fill="#FFFFFF" fill-rule="nonzero"></path>
                <path d="M108.389463,14.5636375 C108.932736,16.2556377 109.476009,17.9378196 109.999645,19.6461834 C110.038918,19.7640016 110.169827,19.842547 110.130554,19.9734561 C109.924196,20.1100378 109.675704,20.1680968 109.430191,20.1370925 L103.149826,20.1370925 C103.018917,20.1370925 102.861826,20.0683652 102.750554,20.215638 L102.750554,23.0367291 C102.868372,23.19382 103.038554,23.1185473 103.185826,23.1185473 C104.970554,23.1185473 106.756372,23.1185473 108.543281,23.1185473 C108.760108,23.1031104 108.976346,23.1557397 109.161827,23.2690928 L109.161827,28.6363659 C108.975943,28.7516485 108.758038,28.8044044 108.540009,28.7869114 L97.196735,28.7869114 C96.6174622,28.7869114 96.607644,28.7869114 96.607644,28.191275 C96.607644,25.5512748 96.607644,22.9080018 96.607644,20.2614562 C96.607644,20.1174561 96.715644,19.9080016 96.4669168,19.8327288 C95.9912804,18.2487287 95.5210985,16.6658195 95.0563712,15.0840012 C94.9719313,14.9248947 94.9217627,14.7498621 94.9090985,14.570183 C95.0500072,14.6865958 95.2310007,14.7430093 95.4130985,14.7272739 C99.5760079,14.7272739 103.738917,14.7272739 107.901827,14.7272739 C108.078714,14.732824 108.251729,14.6747654 108.389463,14.5636375 Z" id="Path" fill="#0181C1" fill-rule="nonzero"></path>
                <path d="M59.6781866,14.7240012 L53.3978224,14.7240012 C52.8316406,13.585092 52.1705496,12.5312737 51.0774586,11.8014555 C50.2221391,11.2413935 49.262644,10.8595991 48.2563675,10.6789099 C47.0177538,10.4652134 45.7438788,10.6094043 44.5843672,11.0945463 C43.7776279,11.4084682 43.0509413,11.8981432 42.4570943,12.528001 C41.853097,13.1410143 41.3652113,13.8584281 41.0170942,14.6454557 C40.8045811,14.7070211 40.5836775,14.7346341 40.3625487,14.7272739 L36.009821,14.7272739 C35.9576614,14.7338108 35.9048898,14.7338108 35.8527301,14.7272739 C35.6072756,14.6650921 35.3650937,14.8810921 35.1261846,14.7272739 C34.8872755,14.5734557 35.2145483,14.2789102 35.037821,14.0727284 L35.0574573,13.8436375 C35.325821,13.7127284 35.145821,13.4705465 35.1949119,13.2840011 C35.3127301,12.4330919 35.8036392,11.7392737 36.1963665,10.9930918 C36.839164,9.86877087 37.6629393,8.85812581 38.6345485,8.00181882 C39.6474279,7.10253767 40.7961648,6.36911334 42.0381852,5.82872774 C42.6671471,5.523165 43.3249267,5.28088283 44.0018217,5.10545495 C44.7643672,4.92218221 45.5530945,4.86000039 46.328731,4.7421822 L47.673822,4.7421822 C49.3311008,4.76804936 50.9649181,5.13805436 52.4716405,5.82872774 C53.4990732,6.27484732 54.4542907,6.87158248 55.3058226,7.59927333 C56.3322047,8.45562271 57.2323827,9.45275982 57.979641,10.5610917 C58.4988999,11.338906 58.9157859,12.1803778 59.2200047,13.0647283 C59.2363683,13.1858192 59.1610956,13.3461829 59.360732,13.3920011 L59.360732,13.6178193 C59.2516838,13.9013126 59.3406838,14.2227753 59.5800047,14.4098193 L59.6061866,14.4850921 C59.4785502,14.5898193 59.5472775,14.6258193 59.6618229,14.6454557 L59.6781866,14.7240012 Z" id="Path" fill="#FFFFFF" fill-rule="nonzero"></path>
                <path d="M87.9545524,6.00872775 C87.9545524,6.16581867 87.9545524,6.3360005 87.9545524,6.47672779 C87.9545524,11.8287282 87.9545524,17.1741832 87.9545524,22.5130927 C87.9545524,22.8567291 88.020007,22.9712746 88.3930979,22.9680018 C90.5007345,22.9680018 92.6050983,22.9680018 94.7094621,22.9680018 C94.7094621,24.8138202 94.7094621,26.6563658 94.7094621,28.5021841 C94.7094621,28.8589114 94.5949166,28.9309114 94.2610984,28.9309114 C90.2749163,28.9309114 86.2865523,28.9309114 82.2960065,28.9309114 C82.0783364,28.9459794 81.8615633,28.8909259 81.677461,28.7738205 C81.677461,26.0029112 81.677461,23.22982 81.677461,20.4545471 C81.677461,19.6036379 81.6512792,18.7527288 81.677461,17.9018196 C81.834552,13.7880011 81.7167338,9.66763713 81.7461883,5.5505459 C81.7461883,5.27563678 81.8280065,5.20036405 82.0996429,5.20353557 C83.9029158,5.20353557 85.6996432,5.22000041 87.516007,5.20353557 C87.8956433,5.20353557 88.0167343,5.3247277 87.9447343,5.67818227 C87.7712797,5.28545497 87.4178251,5.36727315 87.1003706,5.36727315 C85.5196432,5.36727315 83.935643,5.36727315 82.3516429,5.36727315 C81.9916429,5.36727315 81.8280065,5.50800044 81.8312792,5.87454592 C81.8312792,8.63672796 81.8312792,11.3978191 81.8312792,14.1578193 C81.8312792,14.5767284 81.978552,14.7174557 82.3876429,14.7174557 C84.0240067,14.7174557 85.6832795,14.7174557 87.3327342,14.7174557 C87.7156433,14.7174557 87.8072797,14.6094557 87.8072797,14.2363648 C87.8072797,11.6181827 87.8072797,9.02945526 87.8072797,6.42436415 C87.8170979,6.29345505 87.7058252,6.08727321 87.9545524,6.00872775 Z" id="Path" fill="#0181C0" fill-rule="nonzero"></path>
                <path d="M23.4032746,53.283277 L23.1676382,53.283277 C22.8020542,53.0767832 22.3550403,53.0767832 21.9894563,53.283277 L19.4760015,53.283277 C19.3254561,53.0050951 19.0636379,53.2014588 18.8640015,53.139277 L18.8640015,51.6076405 C17.8677057,52.742474 16.4460477,53.4142074 14.9367285,53.463277 L13.5163647,53.463277 C12.6203642,53.4827473 11.73766,53.2441786 10.9734554,52.7760042 C9.6643644,51.9447314 8.81345525,50.7567313 8.80690979,49.1170948 C8.80690979,48.5149129 8.72181887,47.9061856 8.89200071,47.3138219 C9.18883062,46.1763586 9.94681954,45.2143414 10.9832736,44.6596399 C11.3073443,44.4791459 11.6540359,44.3426705 12.0141828,44.2538217 C12.2596373,44.3880035 12.4625464,44.1720035 12.708001,44.1752394 C16.2949104,44.190549 19.8807289,44.190549 23.4654564,44.1752394 C23.8254564,44.1752394 23.8941837,44.2898217 23.8941837,44.6236399 C23.8941837,47.2123674 23.8941837,49.8043676 23.8941837,52.3930951 C23.8941837,52.7203678 24.0316383,53.1720042 23.4523655,53.211277 C23.4196382,53.2080042 23.4130928,53.2538224 23.4032746,53.283277 Z M17.1654559,46.5381855 C16.5881652,46.5096432 16.009467,46.5370437 15.4374558,46.6200037 C14.8483648,46.7410946 14.197092,46.724731 13.8567284,47.3923674 C13.7587982,47.6411255 13.6896219,47.9002618 13.6505465,48.1647311 C13.5933052,48.7439664 13.8617068,49.3072319 14.3476375,49.6276403 C15.0081204,49.9660269 15.7640003,50.0698883 16.491274,49.9221858 C17.3843027,49.7889212 18.1695262,49.2598273 18.6283651,48.4821857 C18.9752742,47.9552765 18.8083651,47.372731 18.857456,46.8130946 C18.8770924,46.580731 18.7789106,46.5250946 18.5629106,46.5316401 C18.1472742,46.5480037 17.7218196,46.5381855 17.1654559,46.5381855 Z" id="Shape" fill="#FFFFFF" fill-rule="nonzero"></path>
                <path d="M108.389463,14.5636375 C108.247909,14.6797305 108.06833,14.7392015 107.885463,14.7305466 C103.722554,14.7305466 99.5596443,14.7305466 95.3967349,14.7305466 C95.214637,14.746282 95.0336436,14.6898685 94.8927348,14.5734557 C94.7749166,14.4458193 94.8174621,14.2789102 94.7552803,14.0989102 C95.2167348,14.0989102 95.6618258,14.0760011 96.1003713,14.0989102 C96.4472804,14.125092 96.5389168,14.017092 96.5389168,13.6701829 C96.5225531,10.9996372 96.5389168,8.32909157 96.5192804,5.6585459 C96.5192804,5.29527315 96.6174622,5.21018223 96.9709168,5.21018223 C100.911281,5.22327314 104.851645,5.22327314 108.792009,5.21018223 C109.1651,5.21018223 109.269827,5.3018186 109.263281,5.681455 C109.240372,7.46181877 109.263281,9.24218255 109.263281,11.0225463 C109.263281,11.3498191 109.188009,11.4414555 108.85419,11.4381827 C106.890554,11.4218191 104.953099,11.4381827 103.005826,11.4185464 C102.658917,11.4185464 102.557463,11.5036373 102.573826,11.8538191 C102.603281,12.5083646 102.593463,13.189092 102.573826,13.8567284 C102.573826,14.1185466 102.655645,14.1840011 102.901099,14.1840011 C104.563645,14.1840011 106.22619,14.1840011 107.888736,14.1840011 C108.1931,14.1676375 108.363281,14.2560011 108.389463,14.5636375 Z" id="Path" fill="#FFFFFF" fill-rule="nonzero"></path>
                <path d="M65.8374598,14.6389103 C65.6842242,14.7139595 65.5130257,14.7445711 65.3432779,14.7272739 L60.7974594,14.7272739 C60.7974594,11.7207282 60.7974594,8.71200069 60.7974594,5.70109136 C60.7792368,5.48447279 60.8308469,5.2677102 60.9447321,5.08254586 C63.4156414,5.08254586 65.8865507,5.05963677 68.35746,5.08254586 C68.9141296,5.07222309 69.4700468,5.12825428 70.0134601,5.24945496 C70.7498238,5.43600043 71.528733,5.37709134 72.2389148,5.64218227 C73.0298164,5.9001951 73.8046437,6.20509894 74.5592787,6.55527325 C75.3310867,6.93604154 76.0541306,7.40854745 76.7127334,7.96254609 C77.319827,8.49107716 77.8865015,9.06431542 78.4080062,9.67745531 C79.1084337,10.5648034 79.6609984,11.5594199 80.04437,12.6229101 C80.0907991,12.7153816 80.115429,12.8172597 80.11637,12.9207283 C80.1687336,13.0778192 79.9854609,13.3167283 80.2767337,13.3952738 L80.2767337,13.3952738 C80.2767337,13.7912738 80.2080064,14.2036375 80.5712791,14.498183 L80.5712791,14.7370921 C79.4945518,14.7370921 78.4145517,14.7370921 77.3378243,14.7370921 C76.89982,14.7538752 76.4612393,14.7264639 76.0287333,14.6552739 C75.9469151,14.6356375 75.9567333,14.5669102 75.9501879,14.5080012 L75.888006,14.4196375 C75.754788,14.2143769 75.645011,13.9948228 75.5607333,13.765092 C75.060006,12.3610919 74.578915,10.9407281 73.737824,9.70036441 C73.2861876,9.0458189 72.7756421,8.41090976 71.9803694,8.10981883 C71.8427054,8.04264996 71.6783545,8.06319382 71.5614602,8.16218247 C71.2112784,8.4043643 70.8414602,8.61381887 70.4781874,8.83309161 C70.2498482,9.01352287 69.9298027,9.02152401 69.6927328,8.85272798 C69.4808162,8.70684604 69.2431665,8.60245784 68.9923691,8.54509159 C67.903831,8.29440035 66.7808038,8.22912094 65.6705507,8.35200066 C64.5222147,8.50255435 63.4183489,8.89280991 62.4305504,9.4974553 C62.8069141,9.86400078 63.2618232,10.125819 63.5563687,10.6036372 C63.1112777,10.7345463 62.7185504,10.5447281 62.302914,10.5087281 C62.7712011,11.8867709 63.6826412,13.0709526 64.8949142,13.8763647 C65.0902854,13.9973747 65.321915,14.0460169 65.5494598,14.0138193 C66.2220297,13.9812696 66.866054,13.732155 67.3854599,13.3036374 C67.2871174,13.830905 66.9116544,14.263939 66.4036416,14.4360011 C66.2170962,14.498183 66.027278,14.570183 65.8374598,14.6389103 Z" id="Path" fill="#FFFFFF" fill-rule="nonzero"></path>
                <path d="M36.7625484,37.4170939 C38.3008828,37.4419398 39.7367343,38.1932433 40.634185,39.4429122 C41.4035569,40.4295664 41.8092588,41.6512954 41.7829124,42.9021852 C41.7829124,45.9720037 41.7829124,49.042913 41.7829124,52.1149132 C41.7829124,52.2425496 41.7829124,52.3734587 41.7829124,52.5043678 C41.5374578,52.4258223 41.6487306,52.2163678 41.6487306,52.069095 C41.6487306,49.5687312 41.6487306,47.0694583 41.6487306,44.5712763 C41.6487306,44.2440035 41.5570942,44.1687308 41.2494578,44.1720035 C39.914185,44.1720035 38.5789122,44.1949126 37.2436393,44.1720035 C36.8672757,44.1720035 36.7625484,44.2701853 36.7625484,44.6498217 C36.778912,47.1240037 36.7625484,49.5981858 36.7625484,52.0723678 C36.7625484,52.2196405 36.8738211,52.4258223 36.6250938,52.5043678 C36.6250938,49.8534585 36.598912,47.2025492 36.6250938,44.5483672 C36.620417,43.367059 35.809782,42.3416057 34.6614573,42.064367 C33.2378208,41.7567306 32.1218207,42.2967306 31.3592752,43.4683671 C31.1269116,43.8283671 31.1596388,44.2800035 30.9665479,44.6530945 C31.0156388,44.2930944 30.8912752,44.1621853 30.5018206,44.1687308 C29.0781841,44.1949126 27.6545477,44.1916399 26.2309112,44.1687308 C25.8741839,44.1687308 25.7694566,44.2603672 25.7694566,44.6236399 C25.7694566,47.1043674 25.7694566,49.5883676 25.7694566,52.069095 C25.7694566,52.2163678 25.8774566,52.4225496 25.632002,52.5010951 C25.632002,49.1323675 25.632002,45.76364 25.632002,42.3949125 C25.632002,40.8403669 25.632002,39.2858213 25.632002,37.7345485 C25.8080569,37.6155549 26.0189517,37.5590857 26.2309112,37.5741848 C27.4189113,37.5741848 28.6036386,37.5741848 29.7916387,37.5741848 C30.773457,37.5741848 30.773457,37.5741848 30.7898206,38.5560031 C30.7898206,39.0043667 30.6981843,39.4592759 30.8585479,39.8978214 C31.0745479,39.9796395 31.0745479,39.7538213 31.1236388,39.6720032 C31.6845611,38.8109458 32.5088174,38.154296 33.4734572,37.800003 C33.947924,37.5387129 34.4798252,37.3992716 35.0214573,37.3941848 L36.7625484,37.4170939 Z" id="Path" fill="#0281C0" fill-rule="nonzero"></path>
                <path d="M59.0563683,44.1818217 L53.8985497,44.1818217 C53.8734772,44.0569569 53.8417963,43.9335106 53.8036406,43.8120035 C53.6170952,43.2785489 53.4927315,42.7189125 53.0640042,42.3032761 C52.2720042,41.5276397 51.3589132,41.1316396 50.2232767,41.3476396 C49.4128073,41.4661196 48.6882743,41.9167293 48.2236402,42.5912761 C47.8963674,43.085458 47.7916402,43.6483671 47.5887311,44.1818217 L42.7221852,44.1818217 C42.767943,42.5670336 43.3159026,41.0066642 44.2898217,39.7178213 C45.0305146,38.6738572 46.1267195,37.9360717 47.372731,37.6429121 C47.7767922,37.514799 48.1961135,37.4410601 48.6196402,37.4236393 L50.2003676,37.4236393 C51.7221852,37.4661848 52.838186,38.2843667 53.895277,39.4560031 L53.895277,37.5905484 L59.0563683,37.5905484 L59.0563683,44.1818217 Z" id="Path" fill="#0281C0" fill-rule="nonzero"></path>
                <path d="M0.474545492,14.7240012 L7.32109149,14.7240012 C7.61236424,14.7240012 7.85127335,14.6912739 7.85127335,14.3214557 C8.1425461,14.6487284 8.26036429,15.1003648 8.53200068,15.4603649 C8.9979275,16.0416813 9.56708599,16.5320673 10.2109099,16.9069104 C10.7923476,17.2599591 11.4431923,17.4832335 12.1189101,17.5614559 C12.2043931,17.5669867 12.2836991,17.607909 12.3377401,17.6743732 C12.3917812,17.7408375 12.4156629,17.8268243 12.4036373,17.9116378 C12.4036373,20.0454561 12.4036373,22.1770927 12.4036373,24.3065474 C12.4036373,24.4996383 12.3349101,24.5421838 12.1516373,24.552002 C10.4570437,24.6277763 8.77016732,24.2814044 7.24254603,23.5440019 C6.49248087,23.2120489 5.77205792,22.8168017 5.08909131,22.3625472 C4.38893671,21.8609779 3.73208844,21.3015621 3.12545479,20.6901835 C2.44083548,20.0098683 1.88627548,19.2101928 1.48909103,18.3305469 C0.982450119,17.3216527 0.66204259,16.2296063 0.54327277,15.1069103 C0.526855329,14.9781936 0.50391674,14.8503929 0.474545492,14.7240012 Z" id="Path" fill="#0281C0" fill-rule="nonzero"></path>
                <path d="M73.3712786,38.2090939 C73.3712786,40.2883668 73.3712786,42.3676397 73.3712786,44.4469126 C73.3712786,47.2581856 73.3712786,50.0694585 73.3712786,52.8807315 C73.3712786,53.2080042 73.3156422,53.3029133 72.9752785,53.2997218 C71.5090966,53.2800042 70.0440056,53.2800042 68.5800055,53.2997218 C68.2527327,53.2997218 68.1709145,53.2080042 68.1741872,52.8840042 C68.1741872,49.3778221 68.1741872,45.8738218 68.1741872,42.3720034 C68.1741872,42.2149124 68.1741872,42.0447306 68.1578236,41.9007306 L68.1872781,37.7345485 C68.3443691,37.692003 68.4621873,37.5741848 68.6487327,37.5773907 C70.2163692,37.5773907 71.7840057,37.5773907 73.3483695,37.5773907 L73.3712786,38.2090939 Z" id="Path" fill="#FFFFFF" fill-rule="nonzero"></path>
                <path d="M23.4032746,53.283277 C23.4032746,53.2603679 23.4196382,53.2145497 23.4294564,53.2145497 C24.0087292,53.175277 23.8712746,52.7400042 23.8712746,52.3963678 C23.8712746,49.8076403 23.8712746,47.2156401 23.8712746,44.6269126 C23.8712746,44.2996399 23.8025473,44.1752762 23.4425473,44.178549 C19.8556379,44.1916399 16.2698195,44.1916399 12.6850919,44.178549 C12.4396374,44.178549 12.2367282,44.3912763 11.9912737,44.2570944 C12.5221863,44.0417624 13.0850505,43.9156985 13.657092,43.8840035 C14.0138193,43.8447308 14.3803648,43.8840035 14.7436375,43.8840035 L18.5400015,43.8840035 C18.6381833,43.8840035 18.7527288,43.9200035 18.8181833,43.8021853 C19.0374561,42.5160034 17.9738196,41.6127306 16.7825468,41.4261851 C14.8680012,41.1250942 13.1825465,41.7534579 11.4938191,42.4636397 C11.2680009,42.5585488 11.1665463,42.5454579 11.0520009,42.3065488 C10.6200008,41.2625487 10.1749099,40.2250941 9.74290987,39.1876395 C9.6872735,39.0567304 9.74290987,39.0534576 9.84763715,38.9978213 C11.284395,38.3308493 12.8013203,37.8523413 14.3607284,37.5741848 C15.2018194,37.4334575 16.023274,37.210912 16.8905468,37.2469121 C18.4090924,37.3254575 19.9047289,37.4792757 21.272729,38.2287303 C22.3228782,38.7822731 23.1427287,39.6902546 23.5865473,40.791276 C23.8508691,41.4502151 23.9767529,42.1565014 23.9563655,42.8661852 C23.9563655,46.1650946 23.9563655,49.4618221 23.9563655,52.7563678 C23.9530928,53.3061861 23.9530928,53.3061861 23.4032746,53.283277 Z" id="Path" fill="#0381BF" fill-rule="nonzero"></path>
                <path d="M65.9880052,43.3145489 C65.9880052,43.6025489 65.9716416,43.8905489 65.9618234,44.178549 L61.5141867,44.178549 C61.245823,44.178549 60.9840048,44.1589126 60.8072776,44.4141853 C60.8072776,43.8807308 60.8072776,43.3440034 60.8072776,42.8072761 C60.8072776,39.2072758 60.8072776,35.6072756 60.8072776,32.0072753 C60.8072776,31.6800025 60.8792776,31.5883661 61.2130958,31.5949116 C62.6923686,31.614548 64.1585506,31.6112752 65.6476416,31.5949116 C65.9487325,31.5949116 66.0076416,31.6832752 66.0076416,31.9680025 C66.0076416,35.5767301 66.0076416,39.1865486 66.0076416,42.7974579 C65.9749143,42.977458 65.9847325,43.1378216 65.9880052,43.3145489 Z" id="Path" fill="#0181C0" fill-rule="nonzero"></path>
                <path d="M87.9545524,6.00872775 C87.7058252,6.08727321 87.8170979,6.29345505 87.8170979,6.44072778 C87.8170979,9.05890981 87.8170979,11.6476373 87.8170979,14.2527284 C87.8170979,14.6258193 87.7254615,14.7403648 87.3425524,14.7338194 C85.7061886,14.714183 84.043643,14.7338194 82.3974611,14.7338194 C81.9883702,14.7338194 81.8410974,14.5930921 81.8410974,14.1741829 C81.8410974,11.4141827 81.8410974,8.6530916 81.8410974,5.89090956 C81.8410974,5.52436408 82.0014611,5.38363679 82.3614611,5.38363679 C83.9454612,5.38363679 85.5294613,5.38363679 87.1101887,5.38363679 C87.4374615,5.38363679 87.7810979,5.3018186 87.9545524,5.69454591 L87.9545524,6.00872775 Z" id="Path" fill="#FFFFFF" fill-rule="nonzero"></path>
                <path d="M60.8072776,44.4141853 C60.9840048,44.1589126 61.245823,44.1752762 61.5141867,44.178549 L65.9618234,44.178549 C65.9618234,47.132731 65.967278,50.0858222 65.9781871,53.0378224 C65.9781871,53.2570951 65.8898234,53.2930951 65.7000052,53.2930951 C64.1585506,53.2930951 62.6170959,53.2930951 61.0756412,53.2930951 C60.7483685,53.2930951 60.7909139,53.1163679 60.7909139,52.9200042 L60.7909139,48.105822 C60.7909139,47.9487311 60.7909139,47.7785493 60.7745503,47.6345492 L60.8072776,44.4141853 Z" id="Path" fill="#FFFFFF" fill-rule="nonzero"></path>
                <path d="M25.6156384,52.5043678 C25.861093,52.4258223 25.753093,52.2196405 25.753093,52.0723678 C25.753093,49.5916403 25.753093,47.1076401 25.753093,44.6269126 C25.753093,44.2636399 25.8578202,44.1654581 26.2145475,44.1720035 C27.638184,44.1916399 29.0618205,44.1949126 30.485457,44.1720035 C30.8749115,44.1720035 30.9992752,44.2963672 30.9501843,44.6563672 L30.9501843,44.6563672 C30.7341843,44.6792763 30.8029115,44.8461854 30.7930934,44.9836399 L30.7930934,53.2930951 C29.1501841,53.2930951 27.5072749,53.2930951 25.8643657,53.2930951 C25.6843657,53.2930951 25.5992748,53.2407315 25.6156384,53.0509133 C25.632002,52.8610951 25.6123657,52.6876406 25.6156384,52.5043678 Z" id="Path" fill="#FFFFFF" fill-rule="nonzero"></path>
                <path d="M36.6120029,52.5043678 C36.8607302,52.4258223 36.7494575,52.2196405 36.7494575,52.0723678 C36.7494575,49.5981858 36.7494575,47.1240037 36.7494575,44.6498217 C36.7494575,44.2701853 36.8541847,44.1654581 37.2305484,44.1720035 C38.5658212,44.1949126 39.9010941,44.1720035 41.2363669,44.1720035 C41.5440033,44.1720035 41.6389124,44.2570944 41.6356397,44.5712763 C41.6225488,47.0716401 41.6225488,49.570913 41.6356397,52.069095 C41.6356397,52.2163678 41.5243669,52.4258223 41.7698215,52.5043678 C41.8189124,53.2930951 41.8189124,53.2930951 41.0334578,53.2930951 C39.7243668,53.2930951 38.3989121,53.2930951 37.0832757,53.2930951 C36.6938211,53.2930951 36.526912,53.2047315 36.598912,52.8054587 C36.6109824,52.7055786 36.6153589,52.6049186 36.6120029,52.5043678 Z" id="Path" fill="#FFFFFF" fill-rule="nonzero"></path>
                <path d="M73.5152786,33.0185481 C73.6723695,34.7465482 72.1309148,35.7021847 71.0705511,35.7840028 C70.2824272,35.8842171 69.4902624,35.6313773 68.9059271,35.0931074 C68.3215919,34.5548374 68.0046995,33.7860512 68.0400054,32.9923663 C68.0402514,31.5936974 69.0941732,30.4198514 70.4847329,30.269457 C72.3632785,30.1156388 73.6461877,31.5098207 73.5152786,33.0185481 Z" id="Path" fill="#0580BD" fill-rule="nonzero"></path>
                <path d="M60.9349139,5.07927313 C60.8210287,5.26443748 60.7694186,5.48120006 60.7876412,5.69781863 C60.7876412,8.70872796 60.7876412,11.7174555 60.7876412,14.7240012 C60.7876412,19.2861834 60.7876412,23.8483655 60.7876412,28.4105477 C60.7876412,28.7378205 60.9250958,28.7901841 61.2065503,28.7869114 C63.7429142,28.7869114 66.2760053,28.7869114 68.8123691,28.7869114 C68.7567327,28.8949114 68.6520055,28.8589114 68.5701873,28.8589114 L60.7156412,28.8589114 C60.7156412,24.1636383 60.7156412,19.4661834 60.7156412,14.7665466 C60.7156412,11.5330918 60.7156412,8.30072793 60.7156412,5.06945495 L60.9349139,5.07927313 Z" id="Path" fill="#32728A" fill-rule="nonzero"></path>
                <path d="M96.463644,19.8294561 C96.7123713,19.9047289 96.6043713,20.1141834 96.6043713,20.2581834 C96.6043713,22.9025473 96.6043713,25.5458202 96.6043713,28.1880022 C96.6043713,28.7770932 96.6043713,28.7836387 97.1934623,28.7836387 L108.540009,28.7836387 C108.758038,28.8011316 108.975943,28.7483758 109.161827,28.6330932 C109.161827,28.7345477 109.21419,28.8523659 109.044009,28.8589114 C108.939281,28.8589114 108.834554,28.8589114 108.716736,28.8589114 C104.789463,28.8589114 100.86219,28.8589114 96.9349168,28.8589114 C96.607644,28.8589114 96.4930986,28.7967296 96.4963713,28.4367295 C96.4963713,25.7269111 96.4963713,23.0170927 96.4963713,20.3105471 C96.520758,20.149719 96.5095866,19.9854999 96.463644,19.8294561 Z" id="Path" fill="#32728A" fill-rule="nonzero"></path>
                <path d="M81.6970974,28.7869114 C81.8811997,28.9040168 82.0979728,28.9590703 82.3156429,28.9440023 C86.3040069,28.9440023 90.2923708,28.9440023 94.2807348,28.9440023 C94.6080075,28.9440023 94.7323712,28.8720023 94.7290984,28.515275 C94.7094621,26.6694567 94.7290984,24.8269111 94.7290984,22.9810927 C94.902553,23.0563655 94.8141894,23.2101837 94.8141894,23.3083655 C94.8141894,25.0887293 94.8141894,26.8658203 94.8141894,28.6461841 C94.8141894,28.9407296 94.7356439,29.0160023 94.4443711,29.0160023 C90.2989163,29.0160023 86.1534614,29.0160023 82.0080065,29.0160023 C81.8476429,29.0225478 81.6381883,29.0880023 81.6970974,28.7869114 Z" id="Path" fill="#32728A" fill-rule="nonzero"></path>
                <path d="M30.7800024,53.283277 L30.7800024,44.9738218 C30.8004438,44.9689528 30.8217429,44.9689528 30.8421843,44.9738218 C30.8421843,47.6792765 30.8421843,50.3847313 30.8421843,53.090186 C30.8650934,53.1589133 30.8912752,53.2505497 30.7800024,53.283277 Z" id="Path" fill="#32728A" fill-rule="nonzero"></path>
                <path d="M102.750554,20.2287289 C102.861826,20.0814561 103.018917,20.1534561 103.149826,20.1501834 L109.430191,20.1501834 C109.675704,20.1811877 109.924196,20.1231287 110.130554,19.986547 C110.222191,20.0978198 110.258191,20.1960016 110.0651,20.2254562 C109.987785,20.2320461 109.91005,20.2320461 109.832736,20.2254562 L102.750554,20.2287289 Z" id="Path" fill="#32728A" fill-rule="nonzero"></path>
                <path d="M30.8585479,39.9207304 C30.6981843,39.482185 30.7996388,39.0272758 30.7898206,38.5789122 C30.7701843,37.5970939 30.7898206,37.5970939 29.7916387,37.5970939 C28.6036386,37.5970939 27.4189113,37.5970939 26.2309112,37.5970939 C26.0138667,37.5772588 25.7966085,37.6327289 25.6156384,37.7541848 C25.5763657,37.5938212 25.6156384,37.512003 25.8021839,37.5152757 C27.4189113,37.5152757 29.0356387,37.5152757 30.6523661,37.5152757 C30.8716388,37.5152757 30.8716388,37.6363666 30.8683661,37.7901848 L30.8585479,39.9207304 Z" id="Path" fill="#32728A" fill-rule="nonzero"></path>
                <path d="M109.161827,23.2789109 C108.976346,23.1655579 108.760108,23.1129286 108.543281,23.1283655 C106.756372,23.1283655 104.970554,23.1283655 103.185826,23.1283655 C103.038554,23.1283655 102.858554,23.2036382 102.750554,23.0465473 L108.850918,23.0465473 C108.99819,23.04982 109.230554,22.9680018 109.161827,23.2789109 Z" id="Path" fill="#32728A" fill-rule="nonzero"></path>
                <path d="M19.3254561,22.8043654 C19.4416297,22.6199693 19.4955471,22.4031525 19.4792743,22.1858199 C19.4792743,20.7545471 19.4792743,19.3221834 19.4792743,17.8887287 C19.4792743,17.7578196 19.4072743,17.6007287 19.5578197,17.4927287 L19.5578197,22.40182 C19.5610925,22.58182 19.5807288,22.7716382 19.3254561,22.8043654 Z" id="Path" fill="#32728A" fill-rule="nonzero"></path>
                <path d="M73.3483695,37.5905484 C71.7840057,37.5905484 70.2163692,37.5905484 68.6487327,37.5905484 C68.4621873,37.5905484 68.3443691,37.7050939 68.1872781,37.7476394 C68.1676418,37.6265484 68.1512781,37.5087303 68.3378236,37.512003 L73.2796422,37.512003 C73.3025513,37.512003 73.3254604,37.5741848 73.3483695,37.5905484 Z" id="Path" fill="#32728A" fill-rule="nonzero"></path>
                <path d="M59.0563683,37.5741848 L53.895277,37.5741848 C53.9247316,37.4367302 54.0360043,37.4858212 54.1145498,37.4858212 C55.6898226,37.4858212 57.2629136,37.4858212 58.8338229,37.4858212 C58.9058229,37.5021848 59.0170956,37.4530939 59.0563683,37.5741848 Z" id="Path" fill="#32728A" fill-rule="nonzero"></path>
                <path d="M18.8280015,43.7923671 C18.7625469,43.9101853 18.6480015,43.8741853 18.5498197,43.8741853 L14.7534557,43.8741853 C14.8680012,43.7367307 15.0218194,43.8021853 15.1560012,43.8021853 C16.3800013,43.7923671 17.6040014,43.7923671 18.8280015,43.7923671 Z" id="Path" fill="#32728A" fill-rule="nonzero"></path>
                <path d="M0.474545492,11.7196373 C0.474545492,12.4658192 0.474545492,13.2087283 0.474545492,13.9549102 C0.433615753,14.1607962 0.474717731,14.3745265 0.589090956,14.5505466 C0.615272776,14.5832739 0.536727315,14.6225466 0.484363675,14.6323648 C0.481315275,14.6205584 0.481315275,14.6081712 0.484363675,14.5963648 C0.301121692,13.6465169 0.297791306,12.6707139 0.474545492,11.7196373 L0.474545492,11.7196373 Z" id="Path" fill="#0281C0" fill-rule="nonzero"></path>
                <path d="M45.4680036,29.2647296 L48.7832766,29.2647296 C48.7472766,29.3367296 48.6818221,29.3367296 48.6163675,29.3367296 L45.6381854,29.3367296 C45.5694582,29.3367296 45.5040036,29.3367296 45.4680036,29.2647296 Z" id="Path" fill="#32728A" fill-rule="nonzero"></path>
                <path d="M33.9349118,23.6061837 L33.9349118,20.3727289 C33.9578209,20.4021834 34.0003663,20.431638 34.0003663,20.4610925 C34.0003663,21.4821835 34.0003663,22.5000018 34.0003663,23.5210928 C34.0003663,23.5505473 33.9578209,23.5800019 33.9349118,23.6061837 Z" id="Path" fill="#32728A" fill-rule="nonzero"></path>
                <path d="M21.9894563,53.283277 C22.3550403,53.0767832 22.8020542,53.0767832 23.1676382,53.283277 L21.9894563,53.283277 Z" id="Path" fill="#0381BF" fill-rule="nonzero"></path>
                <path d="M80.5680064,14.4883648 C80.2047336,14.1938193 80.2669155,13.7814556 80.2734609,13.3854556 C80.4138898,13.7404888 80.5127301,14.1105906 80.5680064,14.4883648 Z" id="Path" fill="#0580BD" fill-rule="nonzero"></path>
                <path d="M48.6916402,52.3570951 L50.5047313,52.3570951 C49.9065993,52.4798345 49.2897722,52.4798345 48.6916402,52.3570951 L48.6916402,52.3570951 Z" id="Path" fill="#32728A" fill-rule="nonzero"></path>
                <path d="M36.7625484,37.4170939 L35.0214573,37.4170939 C35.5953334,37.2943718 36.1886723,37.2943718 36.7625484,37.4170939 Z" id="Path" fill="#32728A" fill-rule="nonzero"></path>
                <path d="M50.1938222,37.4170939 L48.6130948,37.4170939 C49.1328589,37.2943783 49.6740581,37.2943783 50.1938222,37.4170939 Z" id="Path" fill="#32728A" fill-rule="nonzero"></path>
                <path d="M13.5032738,53.4567315 L14.9236375,53.4567315 C14.4579316,53.5778697 13.9689798,53.5778697 13.5032738,53.4567315 Z" id="Path" fill="#32728A" fill-rule="nonzero"></path>
                <path d="M47.6803674,4.7421822 L46.3352764,4.7421822 C46.775469,4.62112686 47.2401748,4.62112686 47.6803674,4.7421822 Z" id="Path" fill="#32728A" fill-rule="nonzero"></path>
                <path d="M59.5963684,14.4098193 C59.3594055,14.2210643 59.2731425,13.8999007 59.3836411,13.6178193 C59.5042478,13.8658977 59.5764461,14.1346976 59.5963684,14.4098193 L59.5963684,14.4098193 Z" id="Path" fill="#0281C0" fill-rule="nonzero"></path>
                <path d="M18.8640015,53.1327315 C19.0636379,53.1949133 19.3254561,52.9985497 19.4760015,53.2767315 C19.2763652,53.2080042 18.9981833,53.4796406 18.8640015,53.1327315 Z" id="Path" fill="#0381BF" fill-rule="nonzero"></path>
                <path d="M34.6254573,16.5207286 C34.4912755,16.9134559 34.5960027,17.3192741 34.5469118,17.7152741 C34.3898209,17.3454559 34.4945482,16.9625468 34.4978209,16.5829104 C34.5109118,16.563274 34.5796391,16.540365 34.6254573,16.5207286 Z" id="Path" fill="#32728A" fill-rule="nonzero"></path>
                <path d="M19.0210924,34.8381846 C19.4007288,34.6549118 19.8000016,34.7890937 20.1894561,34.7629119 C19.8098198,34.9265482 19.4072743,34.7956391 19.0210924,34.8381846 Z" id="Path" fill="#32728A" fill-rule="nonzero"></path>
                <path d="M80.2734609,13.3887283 C79.9821882,13.3101829 80.1654609,13.0614556 80.1130973,12.9141828 C80.2160643,13.0510713 80.2722858,13.2174412 80.2734609,13.3887283 L80.2734609,13.3887283 Z" id="Path" fill="#0580BD" fill-rule="nonzero"></path>
                <path d="M35.181821,13.3036374 C35.1327301,13.4901829 35.3127301,13.7323647 35.0443664,13.8632738 C35.0487992,13.6689332 35.0957152,13.477918 35.181821,13.3036374 L35.181821,13.3036374 Z" id="Path" fill="#0281C0" fill-rule="nonzero"></path>
                <path d="M30.8520025,44.9738218 C30.8315611,44.9689528 30.810262,44.9689528 30.7898206,44.9738218 C30.7898206,44.8494581 30.7309115,44.682549 30.9469116,44.646549 C30.9610655,44.7640048 30.9268,44.8821619 30.8520025,44.9738218 L30.8520025,44.9738218 Z" id="Path" fill="#0281C0" fill-rule="nonzero"></path>
                <path d="M59.360732,13.3920011 C59.1610956,13.3527283 59.2363683,13.1923647 59.2200047,13.0647283 C59.3312774,13.1498192 59.3050956,13.2872738 59.360732,13.3920011 Z" id="Path" fill="#0281C0" fill-rule="nonzero"></path>
                <path d="M59.6781866,14.6454557 C59.5636411,14.6258193 59.4949138,14.5898193 59.6225502,14.4850921 C59.7109138,14.5178193 59.6880047,14.5832739 59.6781866,14.6454557 Z" id="Path" fill="#0281C0" fill-rule="nonzero"></path>
                <path d="M111.226918,65.9421871 C111.196784,66.897396 111.096147,67.8490753 110.925827,68.78946 C110.663042,70.5338847 110.123917,72.2252804 109.328736,73.8000059 C108.815532,74.7254753 108.203205,75.5923898 107.502554,76.3854606 C106.790058,77.223249 105.950809,77.9443412 105.015281,78.5225517 C104.326788,78.9295961 103.587211,79.2432555 102.816008,79.455279 C101.518493,79.8432435 100.156087,79.9656819 98.8101897,79.8152791 C97.960148,79.7627325 97.1264994,79.5576461 96.3490986,79.2098245 C95.5360173,78.8595906 94.7670716,78.4147006 94.0581893,77.8843698 C93.4395414,77.3689823 92.864833,76.8030313 92.3400073,76.1923697 C91.8844873,75.6686087 91.4872454,75.0968876 91.15528,74.4872786 C90.4152611,73.1897278 89.891323,71.7804008 89.6040071,70.314551 C89.2431906,68.5099909 89.1210543,66.6658427 89.2407344,64.8294597 C89.3693618,63.4324586 89.5879978,62.0452128 89.8952799,60.6763685 C90.1553576,59.4522449 90.5053987,58.2489786 90.9425527,57.0763682 C91.3385527,61.690914 93.0829165,65.847278 95.2461894,69.8694601 C94.5720075,70.0134601 93.8552802,69.6730964 92.3007346,68.4850964 C92.2944543,68.7042539 92.3098013,68.9234966 92.3465528,69.1396419 C92.5781604,70.7610634 93.0944619,72.328803 93.8716438,73.7705513 C94.1725006,74.3551469 94.5722111,74.8832963 95.0530985,75.3316424 C95.4498017,75.7203262 95.8765832,76.0770718 96.3294622,76.3985515 C97.2604511,77.0162877 98.3574602,77.3359157 99.4745534,77.3149152 C100.358439,77.362452 101.243943,77.2584053 102.092735,77.0072788 C103.8453,76.3897151 105.391879,75.2974794 106.560008,73.8523695 C107.82833,72.2892005 108.730747,70.4620028 109.2011,68.5047327 C109.445842,67.5520946 109.569003,66.5723058 109.567645,65.5887325 C109.613519,64.1525385 109.584024,62.7149268 109.479281,61.2818231 C109.390918,60.4407321 109.152009,59.6160047 109.030918,58.7781865 C108.651281,56.3138227 107.872372,53.9541861 107.119645,51.5781859 C106.700284,50.1471571 106.186428,48.7455325 105.581463,47.3825492 C105.430917,46.9309128 105.293463,46.472731 105.126554,46.02764 C104.874307,45.4684767 104.655734,44.8947247 104.472008,44.3094581 C104.464836,44.2581602 104.437013,44.2120211 104.39499,44.1817397 C104.352967,44.1514583 104.300394,44.139665 104.249463,44.1490944 L103.856736,44.1490944 C103.745463,43.8218217 103.657099,43.4552762 103.529463,43.1247307 C103.389409,42.7929173 103.202007,42.4831525 102.973099,42.2050943 C102.47988,41.6437155 101.781758,41.3040883 101.035644,41.2625487 C100.260997,41.1407997 99.4705514,41.3458177 98.8527351,41.8287306 C98.1497789,42.4291795 97.6853293,43.2617054 97.5436441,44.1752762 L93.4200074,44.1752762 C92.6967346,44.1752762 92.6967346,44.1752762 92.6836437,44.8920036 C92.5560074,44.790549 92.608371,44.6498217 92.6149165,44.5287308 C92.7327346,42.4734579 93.269462,40.6014578 94.7978257,39.0960031 C95.4946542,38.3403222 96.4099172,37.8209104 97.4160077,37.6101848 C98.5974624,37.3974575 99.7985534,37.1585484 100.989826,37.5152757 C101.882562,37.7525825 102.69023,38.2369558 103.320008,38.9127304 C103.392008,38.9912758 103.457463,39.1320031 103.585099,39.0927304 C103.712736,39.0534576 103.630917,38.8996395 103.673463,38.8145485 C104.17419,37.8327303 104.586554,36.7920029 105.696008,36.2814574 C106.167281,36.0654574 106.605827,35.8003665 107.152372,35.8494574 C108.500736,35.9672756 109.557827,36.9850938 109.207645,38.4676394 C108.937814,39.511212 108.235298,40.3899516 107.276736,40.8829123 C106.749827,41.1905487 106.200008,41.5014578 106.062554,42.1920034 C105.989159,42.6806088 106.068004,43.1799635 106.288372,43.6221853 C106.76619,44.7381854 106.978918,45.9360037 107.397827,47.0683674 C107.84619,48.2760038 108.268372,49.4901858 108.621827,50.7305495 C109.276372,53.0640042 110.045463,55.3778226 110.474191,57.7669137 C110.7131,59.0760047 110.945463,60.4047321 111.066554,61.7432776 C111.148372,62.6629141 111.210554,63.5825505 111.2171,64.5054597 L111.226918,65.9421871 Z M90.7232799,61.2883685 C90.8116436,61.3374594 90.7854618,61.4225503 90.7985527,61.4945503 C90.8934618,62.1720049 90.9523709,62.8527323 91.0930981,63.5203687 C91.2601637,64.3247538 91.5090964,65.1099337 91.8360073,65.8636416 C92.2385528,66.7865508 92.6967346,67.6832781 93.5312802,68.3247327 C92.8983461,67.0055822 92.3517415,65.6467231 91.8949164,64.2567324 C91.5509342,63.3737425 91.2794901,62.4641861 91.08328,61.5370958 C91.0014618,61.0200048 90.8214618,60.5160048 90.7723709,59.9890957 C90.7723709,59.9498229 90.7232799,59.9890957 90.7134618,60.0250957 L90.7134618,60.0610957 C90.5906094,60.4614857 90.5940374,60.8899953 90.7232799,61.2883685 Z M104.370554,39.4887304 C104.386917,39.7210941 104.370554,39.9730941 104.593099,40.1072759 C104.815645,40.2414577 105.031645,40.0778214 105.21819,39.9469123 C105.998702,39.3826918 106.492706,38.5047284 106.569827,37.5447303 C106.59199,37.2903695 106.464225,37.0463378 106.242554,36.9196393 C106.039645,36.8018211 105.915281,37.0243666 105.745099,37.1127302 C105.459021,37.2920586 105.221783,37.5394154 105.054554,37.8327303 C104.710609,38.3293859 104.477349,38.8941215 104.370554,39.4887304 L104.370554,39.4887304 Z" id="Shape" fill="#0580BD" fill-rule="nonzero"></path>
                <path d="M87.0250978,53.283277 C86.4752796,53.3127315 86.4752796,53.3127315 86.4752796,52.766186 C86.4752796,50.0694585 86.5014614,47.372731 86.4752796,44.6792763 C86.4752796,43.5730944 86.0040068,42.6665488 84.9010977,42.2247306 C84.1156244,41.8740205 83.214901,41.8905996 82.4428661,42.2699779 C81.6708311,42.6493562 81.1073756,43.3522754 80.9050973,44.1883671 C80.7301984,44.8522162 80.6519386,45.5378165 80.6727337,46.2240037 C80.6727337,48.4101857 80.6727337,50.5963677 80.6727337,52.7694587 C80.6727337,53.3160042 80.6727337,53.3160042 80.1229155,53.2865497 C80.7120064,53.0345497 80.5941882,52.5174587 80.5941882,52.046186 C80.5941882,49.7334585 80.5941882,47.420731 80.5941882,45.1080036 C80.5865728,44.9264478 80.6041955,44.7447136 80.6465519,44.5680035 C80.7807337,44.1327308 80.7938246,44.1360035 80.3945518,44.1883671 C80.3029811,44.1932735 80.2112134,44.1932735 80.1196427,44.1883671 L75.5738242,44.1883671 C75.5738242,42.0960033 75.5738242,40.0058214 75.5738242,37.9178212 C75.5738242,37.656003 75.6621878,37.5905484 75.9010969,37.5905484 C77.1021879,37.5905484 78.3065517,37.5905484 79.5010972,37.5905484 C79.8480063,37.5905484 80.2898246,37.4334575 80.5156428,37.6690939 C80.741461,37.9047303 80.5549155,38.3236394 80.5876428,38.6509122 C80.6236428,39.073094 80.4960064,39.505094 80.65637,39.9207304 C80.7709155,40.0320032 80.8265519,39.9207304 80.8625519,39.8487304 C81.6512792,38.4774576 82.9603702,37.8196394 84.3938249,37.4563666 C85.4181886,37.1978211 86.4883705,37.3549121 87.552007,37.5447303 C88.5719942,37.7405915 89.4951726,38.277189 90.170189,39.0665486 C90.8999222,39.8415313 91.3680935,40.8259502 91.5087345,41.8810942 C91.5445397,42.0977287 91.5674889,42.3162929 91.5774618,42.5356397 C91.5774618,45.8083673 91.5774618,49.0810948 91.5774618,52.3538223 C91.5774618,52.406186 91.5774618,52.4585496 91.5774618,52.5109133 C91.3287345,52.4323678 91.4400073,52.226186 91.4400073,52.0789132 C91.4400073,49.5818221 91.4400073,47.084731 91.4400073,44.5876399 C91.4400073,44.3716399 91.4727345,44.178549 91.1389163,44.1818217 C89.7512799,44.1818217 88.3669161,44.1818217 86.9792796,44.1818217 C86.7043705,44.1818217 86.5701887,44.3061853 86.5701887,44.5843672 C86.5701887,47.2920038 86.5701887,49.9985494 86.5701887,52.7040042 C86.5568227,52.8914343 86.6708713,53.0645198 86.8483705,53.126186 C86.9170978,53.1556406 87.0120069,53.1589133 87.0250978,53.283277 Z" id="Path" fill="#0381BF" fill-rule="nonzero"></path>
                <path d="M92.6770983,44.8952763 C92.6770983,44.1818217 92.6770983,44.178549 93.413462,44.178549 L97.5370987,44.178549 C97.5370987,44.3749126 97.5600078,44.5712763 97.5370987,44.7643672 C97.4082384,45.9756254 97.8756372,47.1740214 98.7905533,47.9781856 C99.6054625,48.7243675 100.613463,48.7472766 101.539644,48.501822 C103.051645,48.0992765 103.85019,46.5643673 103.830554,45.1963672 C103.830554,44.8690945 103.830554,44.5156399 103.830554,44.1752762 L104.223281,44.1752762 C104.274212,44.1658468 104.326785,44.1776402 104.368808,44.2079216 C104.410831,44.238203 104.438655,44.284342 104.445826,44.3356399 C104.629553,44.9209065 104.848125,45.4946585 105.100372,46.0538218 C105.267281,46.4989128 105.404736,46.9570946 105.555281,47.408731 C105.264788,48.4043241 104.753567,49.3216124 104.059645,50.0923676 C103.231645,50.9923677 102.400372,51.8956405 101.137099,52.2360042 C100.278329,52.4337019 99.3897476,52.465913 98.5189169,52.3309132 C97.5978362,52.2119431 96.7086383,51.9151733 95.9007349,51.457095 C95.244407,51.068895 94.6760041,50.5484163 94.2316439,49.9287312 C93.5418387,49.040896 93.0719423,48.0024138 92.860371,46.8981855 C92.7654619,46.24364 92.7392801,45.5661854 92.6770983,44.8952763 Z" id="Path" fill="#FFFFFF" fill-rule="nonzero"></path>
                <path d="M75.564006,44.1818217 L80.1098245,44.1818217 C80.2013952,44.186728 80.293163,44.186728 80.3847337,44.1818217 C80.7840064,44.1294581 80.7709155,44.1261853 80.6367337,44.5614581 C80.5943773,44.7381682 80.5767546,44.9199023 80.58437,45.1014581 C80.58437,47.4163674 80.58437,49.7290949 80.58437,52.0396405 C80.58437,52.5109133 80.7021882,53.0214588 80.1130973,53.2800042 L75.7047333,53.2800042 C75.6621878,53.126186 75.5509151,53.0050951 75.5509151,52.8185497 C75.564006,49.9363676 75.5683696,47.0574583 75.564006,44.1818217 Z" id="Path" fill="#FFFFFF" fill-rule="nonzero"></path>
                <path d="M87.0250978,53.283277 C87.0250978,53.1654588 86.9170978,53.162186 86.8320069,53.1294588 C86.6545077,53.0677926 86.5404591,52.894707 86.5538251,52.7072769 C86.5538251,50.0018222 86.5538251,47.2952765 86.5538251,44.5876399 C86.5538251,44.3094581 86.6880069,44.1850944 86.962916,44.1850944 C88.3505525,44.1850944 89.7349162,44.1850944 91.1225527,44.1850944 C91.4498254,44.1850944 91.4236436,44.3749126 91.4236436,44.5909126 C91.4236436,47.0880037 91.4236436,49.5850948 91.4236436,52.082186 C91.4236436,52.2294587 91.3123709,52.4356405 91.5610982,52.514186 C91.6069164,53.2996406 91.6069164,53.3029133 90.8149163,53.2996406 L87.0250978,53.283277 Z" id="Path" fill="#FFFFFF" fill-rule="nonzero"></path>
                <path d="M75.564006,44.1818217 C75.564006,47.0596401 75.564006,49.9374585 75.564006,52.8152769 C75.564006,53.0018224 75.6752787,53.1229133 75.7178242,53.2767315 C75.6130969,53.2767315 75.4952787,53.3160042 75.4952787,53.1490951 C75.4952787,53.0443679 75.4952787,52.9396406 75.4952787,52.8218224 C75.4952787,47.853822 75.4952787,42.8858216 75.4952787,37.9178212 C75.4952787,37.5905484 75.5574606,37.4727303 75.9174606,37.4759369 C77.3934607,37.4989121 78.8629154,37.4923666 80.3487337,37.4759369 C80.6236428,37.4759369 80.7087337,37.548003 80.6989155,37.8261848 C80.6760064,38.5167303 80.6989155,39.2105486 80.6825519,39.9043668 C80.5221882,39.4887304 80.6498246,39.0567304 80.6138246,38.6345485 C80.5810973,38.3072758 80.7512791,37.8687303 80.5418246,37.6527303 C80.33237,37.4367302 79.8872791,37.5774575 79.527279,37.5741848 C78.326188,37.5741848 77.1218243,37.5741848 75.9272788,37.5741848 C75.6752787,37.5741848 75.600006,37.6461848 75.600006,37.9014576 C75.5803696,39.9960032 75.5683696,42.0894579 75.564006,44.1818217 Z" id="Path" fill="#32728A" fill-rule="nonzero"></path>
                <path d="M111.226918,65.9421871 L111.226918,64.5185506 C111.346334,64.9855835 111.346334,65.4751542 111.226918,65.9421871 Z" id="Path" fill="#32728A" fill-rule="nonzero"></path>
                <path d="M58.9058229,53.4534588 C58.9418229,53.1883679 58.8174592,52.910186 58.9909138,52.6647315 C58.9483683,52.9265497 59.0563683,53.2014588 58.9058229,53.4534588 Z" id="Path" fill="#0281C0" fill-rule="nonzero"></path>
                <path d="M58.9876411,52.6680042 C58.9763593,52.6077894 58.9989718,52.5462333 59.0465501,52.5076405 C59.0563683,52.5730951 59.0563683,52.6287315 58.9876411,52.6680042 Z" id="Path" fill="#0281C0" fill-rule="nonzero"></path>
                <path d="M46.1945491,23.4556382 C46.8636433,23.5440188 47.5414552,23.5440188 48.2105493,23.4556382 C48.2105493,23.5800019 48.1189129,23.5963655 48.0207311,23.5963655 L46.3843673,23.5963655 C46.292731,23.5963655 46.2010946,23.5800019 46.1945491,23.4556382 Z" id="Path" fill="#32728A" fill-rule="nonzero"></path>
                <path d="M53.7938225,18.0850923 C53.7610952,17.4109105 53.8658225,16.7334559 53.7349134,16.059274 C53.8494588,16.059274 53.8789134,16.1509104 53.8789134,16.2523649 C53.8789134,16.8218195 53.8789134,17.3912741 53.8789134,17.9640014 C53.8690952,18.0032742 53.8200043,18.0458196 53.7938225,18.0850923 Z" id="Path" fill="#32728A" fill-rule="nonzero"></path>
                <path d="M77.197097,19.0309106 C77.2293061,18.3562875 77.2107081,17.6801972 77.1414607,17.008365 C77.2592789,17.008365 77.282188,17.1000014 77.282188,17.2014559 C77.282188,17.7709105 77.282188,18.3403651 77.282188,18.9130924 C77.2756425,18.9523651 77.2232789,18.9916379 77.197097,19.0309106 Z" id="Path" fill="#32728A" fill-rule="nonzero"></path>
                <path d="M47.5265492,44.4894581 C47.6050947,44.5221854 47.5952765,44.5843672 47.5821856,44.6498217 C47.4676401,44.6301854 47.4021856,44.5909126 47.5265492,44.4894581 Z" id="Path" fill="#0281C0" fill-rule="nonzero"></path>
                <path d="M75.9469151,14.498183 C75.9258647,14.497063 75.9064926,14.4863444 75.894361,14.4691049 C75.8822295,14.4518653 75.8786806,14.4300119 75.8847333,14.4098193 L75.9469151,14.498183 Z" id="Path" fill="#0281C0" fill-rule="nonzero"></path>
                <path d="M90.710189,60.0610957 C90.710189,60.4701866 90.710189,60.8792776 90.710189,61.2883685 C90.5841458,60.8889862 90.5841458,60.460478 90.710189,60.0610957 Z" id="Path" fill="#32728A" fill-rule="nonzero"></path>
                <path d="M65.1894597,10.0832735 C65.1737258,9.93162331 65.2288718,9.78120074 65.3388959,9.67565435 C65.44892,9.57010797 65.6015028,9.52125582 65.7523689,9.54327349 C66.0282138,9.56798061 66.2506363,9.77955321 66.2890962,10.053819 C66.2804227,10.3636802 66.0414426,10.6181238 65.7327325,10.6461827 C65.5818382,10.6578872 65.433599,10.6016037 65.3284964,10.4927022 C65.2233938,10.3838007 65.172407,10.2336574 65.1894597,10.0832735 Z" id="Path" fill="#0580BD" fill-rule="nonzero"></path>
            </g>
        </g>
    </g>
</svg>