<svg width="128" height="104" viewBox="0 0 128 104" fill="none" xmlns="http://www.w3.org/2000/svg">
<path d="M62.0099 34.5515H28.2018C27.5702 34.5543 26.9652 34.8065 26.5185 35.2532C26.0719 35.6998 25.8197 36.3048 25.8168 36.9365V46.8791H18.9096C17.3003 46.8816 15.7575 47.522 14.6196 48.66C13.4816 49.7979 12.8412 51.3407 12.8387 52.95V62.0099C12.8412 63.6193 13.4816 65.162 14.6196 66.3C15.7575 67.438 17.3003 68.0784 18.9096 68.0808H25.8323V74.4615H12.9316C12.3 74.4643 11.695 74.7165 11.2483 75.1632C10.8017 75.6098 10.5495 76.2148 10.5466 76.8465V85.1785H6.05542C4.44774 85.1817 2.90709 85.8229 1.77174 86.9611C0.636398 88.0994 -0.000823213 89.6417 7.98173e-07 91.2494V97.2118C0.00245845 98.8212 0.642859 100.364 1.78084 101.502C2.91882 102.64 4.46155 103.28 6.0709 103.283H19.7924C21.4017 103.28 22.9445 102.64 24.0824 101.502C25.2204 100.364 25.8608 98.8212 25.8633 97.2118V91.2184C25.8608 89.609 25.2204 88.0663 24.0824 86.9283C22.9445 85.7903 21.4017 85.1499 19.7924 85.1475H15.3166V79.1385H41.1025V85.1475H36.6112C35.0019 85.1499 33.4592 85.7903 32.3212 86.9283C31.1832 88.0663 30.5428 89.609 30.5403 91.2184V97.2118C30.5403 98.822 31.18 100.366 32.3185 101.505C33.457 102.643 35.0011 103.283 36.6112 103.283H50.3327C51.13 103.283 51.9194 103.126 52.656 102.821C53.3925 102.516 54.0618 102.068 54.6255 101.505C55.1892 100.941 55.6364 100.272 55.9415 99.5351C56.2466 98.7985 56.4036 98.0091 56.4036 97.2118V91.2184C56.3983 89.6099 55.757 88.0688 54.6196 86.9315C53.4823 85.7941 51.9412 85.1528 50.3327 85.1475H45.8415V76.7845C45.8386 76.1528 45.5865 75.5479 45.1398 75.1012C44.6931 74.6546 44.0882 74.4024 43.4565 74.3995H30.5713V68.0034H37.494C39.1025 67.9981 40.6436 67.3568 41.7809 66.2194C42.9183 65.082 43.5596 63.541 43.5649 61.9325V52.8726C43.5649 52.0753 43.4079 51.2859 43.1028 50.5494C42.7977 49.8128 42.3505 49.1436 41.7868 48.5798C41.223 48.0161 40.5538 47.5689 39.8172 47.2638C39.0807 46.9587 38.2912 46.8017 37.494 46.8017H30.5713V39.244H61.9944V46.8017H54.731C53.1217 46.8041 51.579 47.4445 50.441 48.5825C49.303 49.7205 48.6626 51.2632 48.6601 52.8726V61.948C48.6634 63.5556 49.3046 65.0963 50.4428 66.2316C51.5811 67.367 53.1234 68.0042 54.731 68.0034H73.3154C74.9239 67.9981 76.465 67.3568 77.6023 66.2194C78.7397 65.082 79.381 63.541 79.3863 61.9325V52.8726C79.3863 51.2625 78.7467 49.7183 77.6082 48.5798C76.4697 47.4413 74.9255 46.8017 73.3154 46.8017H66.718V39.244H97.4596V46.8017H90.537C88.9276 46.8041 87.3849 47.4445 86.2469 48.5825C85.1089 49.7205 84.4685 51.2632 84.4661 52.8726V61.948C84.4661 63.5581 85.1057 65.1022 86.2442 66.2407C87.3827 67.3793 88.9269 68.0189 90.537 68.0189H97.4596V74.3995H84.5745C83.9428 74.4024 83.3378 74.6546 82.8912 75.1012C82.4445 75.5479 82.1923 76.1528 82.1895 76.7845V85.1475H77.6982C76.0889 85.1499 74.5462 85.7903 73.4082 86.9283C72.2702 88.0663 71.6298 89.609 71.6273 91.2184V97.2118C71.6298 98.8212 72.2702 100.364 73.4082 101.502C74.5462 102.64 76.0889 103.28 77.6982 103.283H91.4197C93.0291 103.28 94.5718 102.64 95.7098 101.502C96.8478 100.364 97.4882 98.8212 97.4906 97.2118V91.2184C97.4882 89.609 96.8478 88.0663 95.7098 86.9283C94.5718 85.7903 93.0291 85.1499 91.4197 85.1475H86.9285V79.1385H112.73V85.1475H108.239C106.628 85.1475 105.084 85.7871 103.946 86.9256C102.807 88.0641 102.168 89.6083 102.168 91.2184V97.2118C102.173 98.8203 102.814 100.361 103.952 101.499C105.089 102.636 106.63 103.277 108.239 103.283H121.96C123.562 103.275 125.096 102.633 126.227 101.499C127.359 100.365 127.996 98.8294 128 97.2273V91.2339C127.998 89.6245 127.357 88.0818 126.219 86.9438C125.081 85.8058 123.538 85.1654 121.929 85.163H117.438V76.8C117.435 76.1683 117.183 75.5634 116.736 75.1167C116.29 74.67 115.685 74.4178 115.053 74.415H102.168V68.0189H109.09C110.699 68.0136 112.24 67.3723 113.377 66.2349C114.515 65.0975 115.156 63.5564 115.161 61.948V52.8881C115.161 51.278 114.522 49.7338 113.383 48.5953C112.245 47.4568 110.7 46.8172 109.09 46.8172H102.168V36.89C102.165 36.2584 101.913 35.6534 101.466 35.2067C101.019 34.7601 100.414 34.5079 99.7827 34.505H66.718L62.0099 34.5515ZM21.1243 91.2339V97.2273C21.1195 97.5709 20.9809 97.899 20.7379 98.1419C20.495 98.3848 20.1669 98.5234 19.8234 98.5282H6.05542C5.71101 98.5217 5.3823 98.3829 5.13729 98.1408C4.89227 97.8987 4.74968 97.5716 4.73902 97.2273V91.2339C4.74469 90.8879 4.88568 90.558 5.13177 90.3148C5.37786 90.0716 5.70944 89.9345 6.05542 89.933H19.7769C19.9478 89.9286 20.1179 89.9581 20.2774 90.0196C20.4369 90.0811 20.5827 90.1735 20.7064 90.2915C20.8301 90.4095 20.9294 90.5507 20.9984 90.7071C21.0674 90.8635 21.105 91.032 21.1088 91.2029C21.1243 91.2029 21.1243 91.2184 21.1243 91.2339ZM51.6491 91.2339V97.2273C51.6434 97.5733 51.5025 97.9032 51.2564 98.1464C51.0103 98.3896 50.6787 98.5267 50.3327 98.5282H36.6112C36.2668 98.5217 35.9381 98.3829 35.6931 98.1408C35.4481 97.8987 35.3055 97.5716 35.2949 97.2273V91.2339C35.3005 90.8879 35.4415 90.558 35.6876 90.3148C35.9337 90.0716 36.2653 89.9345 36.6112 89.933H50.3327C50.6755 89.9276 51.0064 90.0582 51.2531 90.2962C51.4998 90.5341 51.6422 90.8602 51.6491 91.2029C51.6646 91.2029 51.6646 91.2184 51.6491 91.2339ZM38.8259 52.9036V61.9789C38.8202 62.3249 38.6792 62.6548 38.4331 62.898C38.1871 63.1412 37.8555 63.2783 37.5095 63.2799H18.9251C18.5807 63.2733 18.252 63.1346 18.007 62.8924C17.762 62.6503 17.6194 62.3233 17.6087 61.9789V52.9036C17.6144 52.5576 17.7554 52.2277 18.0015 51.9845C18.2475 51.7413 18.5791 51.6042 18.9251 51.6027H37.5095C37.8555 51.6042 38.1871 51.7413 38.4331 51.9845C38.6792 52.2277 38.8202 52.5576 38.8259 52.9036ZM74.6473 52.9036V61.9789C74.6416 62.3249 74.5006 62.6548 74.2546 62.898C74.0085 63.1412 73.6769 63.2783 73.3309 63.2799H54.7465C54.4021 63.2733 54.0734 63.1346 53.8284 62.8924C53.5834 62.6503 53.4408 62.3233 53.4301 61.9789V52.9036C53.4358 52.5576 53.5768 52.2277 53.8229 51.9845C54.069 51.7413 54.4005 51.6042 54.7465 51.6027H73.3309C73.6762 51.6066 74.0064 51.7444 74.252 51.9871C74.4976 52.2298 74.6393 52.5584 74.6473 52.9036ZM89.2206 52.9036C89.2262 52.5576 89.3672 52.2277 89.6133 51.9845C89.8594 51.7413 90.191 51.6042 90.537 51.6027H109.121C109.466 51.6092 109.794 51.748 110.039 51.9901C110.285 52.2322 110.427 52.5593 110.438 52.9036V61.9789C110.432 62.3249 110.291 62.6548 110.045 62.898C109.799 63.1412 109.467 63.2783 109.121 63.2799H90.537C90.1942 63.2852 89.8633 63.1547 89.6166 62.9167C89.3699 62.6787 89.2275 62.3526 89.2206 62.0099V52.9036ZM92.7516 91.2339V97.2273C92.7468 97.5709 92.6082 97.899 92.3653 98.1419C92.1223 98.3848 91.7942 98.5234 91.4507 98.5282H77.7292C77.3857 98.5234 77.0576 98.3848 76.8147 98.1419C76.5717 97.899 76.4331 97.5709 76.4283 97.2273V91.2339C76.4331 90.8903 76.5717 90.5622 76.8147 90.3193C77.0576 90.0764 77.3857 89.9378 77.7292 89.933H91.4507C91.7934 89.9276 92.1244 90.0582 92.3711 90.2962C92.6178 90.5341 92.7602 90.8602 92.7671 91.2029C92.7516 91.2029 92.7516 91.2184 92.7516 91.2339ZM123.292 97.2118C123.286 97.5578 123.145 97.8877 122.899 98.1309C122.653 98.3741 122.322 98.5112 121.976 98.5128H108.254C107.91 98.5062 107.581 98.3675 107.336 98.1253C107.091 97.8832 106.948 97.5562 106.938 97.2118V91.2184C106.943 90.8725 107.084 90.5425 107.33 90.2993C107.577 90.0561 107.908 89.9191 108.254 89.9175H121.976C122.32 89.9241 122.649 90.0628 122.894 90.3049C123.139 90.547 123.281 90.8741 123.292 91.2184V97.2118Z" fill="white"/>
<path d="M48.8769 23.9119H79.2315C79.4705 23.9131 79.7074 23.8672 79.9287 23.7768C80.1499 23.6863 80.3512 23.5532 80.5209 23.3849C80.6907 23.2166 80.8255 23.0165 80.9179 22.796C81.0102 22.5755 81.0581 22.339 81.0589 22.0999V4.19698C81.0581 3.71255 80.8653 3.24821 80.5228 2.90567C80.1802 2.56313 79.7159 2.37033 79.2315 2.36951H48.8769C48.3925 2.37033 47.9282 2.56313 47.5856 2.90567C47.2431 3.24821 47.0503 3.71255 47.0495 4.19698V22.0845C47.0487 22.3247 47.0954 22.5627 47.1869 22.7848C47.2785 23.0068 47.4131 23.2086 47.5829 23.3785C47.7528 23.5483 47.9546 23.6829 48.1766 23.7745C48.3987 23.866 48.6367 23.9127 48.8769 23.9119Z" fill="#19A3D2"/>
<path d="M77.6208 26.2659C79.2302 26.2635 80.7729 25.6231 81.9109 24.4851C83.0489 23.3471 83.6893 21.8044 83.6917 20.195V6.0709C83.6893 4.46155 83.0489 2.91882 81.9109 1.78084C80.7729 0.642858 79.2302 0.00245765 77.6208 0H51.0142C49.404 0 47.8599 0.639611 46.7214 1.77813C45.5829 2.91664 44.9433 4.4608 44.9433 6.0709V20.2415C44.9486 21.85 45.5899 23.391 46.7272 24.5284C47.8646 25.6658 49.4057 26.3071 51.0142 26.3124" fill="#19A3D2"/>
<path d="M49.4035 20.226V6.05541C49.4092 5.70948 49.5502 5.37954 49.7963 5.13635C50.0423 4.89316 50.3739 4.75608 50.7199 4.75451H77.3575C77.7011 4.75931 78.0292 4.89791 78.2721 5.14085C78.515 5.38378 78.6536 5.71189 78.6584 6.05541V20.226C78.6536 20.5695 78.515 20.8976 78.2721 21.1406C78.0292 21.3835 77.7011 21.5221 77.3575 21.5269H50.7354C50.5625 21.5292 50.3908 21.4973 50.2302 21.4331C50.0696 21.3689 49.9233 21.2736 49.7995 21.1528C49.6758 21.032 49.5772 20.8879 49.5092 20.7289C49.4412 20.5698 49.4053 20.3989 49.4035 20.226Z" fill="#19A3D2"/>
<path d="M66.718 26.2969H61.917V34.5205H66.718V26.2969Z" fill="white"/>
</svg>
