<svg width="119" height="128" viewBox="0 0 119 128" fill="none" xmlns="http://www.w3.org/2000/svg">
<path d="M15.8483 82.5651C13.336 82.5634 10.8754 83.2784 8.75522 84.6261C6.63505 85.9739 4.94336 87.8986 3.87871 90.1742C2.81407 92.4497 2.42065 94.9817 2.74465 97.4731C3.06865 99.9644 4.09662 102.312 5.70789 104.239L6.6315 105.342L5.42384 106.131C3.75859 107.208 2.38971 108.685 1.44226 110.428C0.494811 112.17 -0.00103275 114.122 1.61499e-06 116.105V125.515C0.000512505 126.174 0.262216 126.805 0.727691 127.271C1.19317 127.737 1.82441 127.999 2.48295 128H29.2118C29.8703 127.999 30.5015 127.737 30.967 127.271C31.4325 126.805 31.6942 126.174 31.6947 125.515V116.105C31.6957 114.121 31.1994 112.169 30.2512 110.427C29.3031 108.684 27.9333 107.207 26.267 106.131L25.0613 105.342L25.9849 104.239C27.596 102.312 28.6239 99.965 28.948 97.474C29.2722 94.983 28.8791 92.4513 27.8149 90.1759C26.7507 87.9005 25.0596 85.9758 22.94 84.6277C20.8204 83.2797 18.3603 82.5641 15.8483 82.5651ZM15.8483 87.5348C17.4791 87.5344 19.0734 88.0177 20.4295 88.9234C21.7856 89.8291 22.8427 91.1167 23.467 92.6232C24.0914 94.1297 24.2549 95.7876 23.937 97.3871C23.6191 98.9866 22.834 100.456 21.681 101.609C20.528 102.762 19.0589 103.548 17.4595 103.866C15.8601 104.184 14.2022 104.021 12.6955 103.397C11.1888 102.773 9.90106 101.716 8.99501 100.361C8.08896 99.0047 7.60535 97.4105 7.60535 95.7797C7.6079 93.5945 8.47686 91.4994 10.0217 89.9539C11.5665 88.4083 13.6612 87.5384 15.8464 87.5348H15.8483ZM26.7288 116.107V123.042H4.97168V116.105C4.97321 114.269 5.70327 112.508 7.00161 111.209C8.29995 109.911 10.0605 109.18 11.8969 109.178H19.8017C21.6376 109.181 23.3974 109.912 24.6952 111.211C25.993 112.509 26.7229 114.269 26.725 116.105L26.7288 116.107Z" fill="#19A3D2"/>
<path d="M92.6669 104.239L93.5944 105.342L92.3829 106.131C90.7176 107.208 89.3487 108.685 88.4013 110.428C87.4538 112.17 86.958 114.122 86.959 116.105V125.515C86.96 126.174 87.2222 126.805 87.688 127.271C88.1537 127.737 88.7852 127.999 89.4439 128H116.169C116.827 127.998 117.459 127.736 117.924 127.271C118.39 126.805 118.652 126.174 118.654 125.515V116.105C118.654 114.122 118.157 112.17 117.209 110.427C116.261 108.685 114.892 107.208 113.226 106.131L112.02 105.342L112.942 104.239C114.553 102.311 115.581 99.9632 115.906 97.4713C116.23 94.9795 115.837 92.4469 114.773 90.1705C113.708 87.8941 112.017 85.9685 109.897 84.6194C107.777 83.2703 105.316 82.5537 102.803 82.5537C100.291 82.5537 97.8299 83.2703 95.7099 84.6194C93.5899 85.9685 91.8986 87.8941 90.8343 90.1705C89.77 92.4469 89.377 94.9795 89.7012 97.4713C90.0255 99.9632 91.0536 102.311 92.6649 104.239H92.6669ZM102.811 87.5348C104.442 87.5344 106.036 88.0177 107.392 88.9234C108.748 89.8291 109.806 91.1167 110.43 92.6232C111.054 94.1297 111.218 95.7876 110.9 97.3871C110.582 98.9866 109.797 100.456 108.644 101.609C107.491 102.762 106.022 103.548 104.422 103.866C102.823 104.184 101.165 104.021 99.6584 103.397C98.1517 102.773 96.8639 101.716 95.9579 100.361C95.0518 99.0047 94.5682 97.4105 94.5682 95.7797C94.5703 93.594 95.4393 91.4983 96.9847 89.9526C98.53 88.4069 100.625 87.5374 102.811 87.5348ZM98.8578 109.176H106.763C108.599 109.178 110.36 109.909 111.659 111.207C112.957 112.506 113.688 114.267 113.69 116.103V123.042H91.9249V116.105C91.9269 114.268 92.6575 112.508 93.9561 111.209C95.2547 109.911 97.0154 109.18 98.852 109.178L98.8578 109.176Z" fill="#19A3D2"/>
<path d="M99.4163 62.0484C100.075 62.0484 100.707 61.7867 101.173 61.3207C101.639 60.8547 101.901 60.2226 101.901 59.5636C101.901 58.9046 101.639 58.2725 101.173 57.8065C100.707 57.3405 100.075 57.0787 99.4163 57.0787H81.0367V41.2053C81.0389 38.483 80.2943 35.8123 78.8838 33.484C77.4732 31.1556 75.451 29.2589 73.0372 28.0003L71.7812 27.3394L72.5696 26.1569C73.8178 24.2864 74.4823 22.0872 74.4786 19.8384V11.4312C74.4786 10.7722 74.2168 10.1401 73.7508 9.67414C73.2848 9.20813 72.6528 8.94633 71.9937 8.94633C71.3347 8.94633 70.7027 9.20813 70.2367 9.67414C69.7707 10.1401 69.5088 10.7722 69.5088 11.4312V19.8384C69.5039 21.5409 68.8292 23.1731 67.6306 24.3821C66.432 25.5912 64.8058 26.2801 63.1034 26.2999H55.5561C53.8519 26.2826 52.2229 25.5949 51.022 24.3856C49.821 23.1763 49.1446 21.5428 49.1391 19.8384V11.4312C49.1411 9.71814 49.8226 8.07585 51.0339 6.86454C52.2452 5.65322 53.8874 4.97181 55.6005 4.96976H63.0474C63.7064 4.96976 64.3385 4.70796 64.8045 4.24195C65.2705 3.77595 65.5323 3.14393 65.5323 2.4849C65.5323 1.82587 65.2705 1.19381 64.8045 0.727808C64.3385 0.261803 63.7064 0 63.0474 0H55.6005C52.5704 0.0035796 49.6654 1.20889 47.5228 3.35151C45.3801 5.49414 44.1748 8.39915 44.1713 11.4293V19.8365C44.1684 22.0857 44.8343 24.285 46.0842 26.155L46.8726 27.3375L45.6147 27.9983C43.2005 29.2567 41.1778 31.1533 39.7669 33.4817C38.3561 35.81 37.6111 38.4809 37.6132 41.2033V57.0768H19.2356C18.5765 57.0768 17.9445 57.3386 17.4785 57.8046C17.0125 58.2706 16.7507 58.9026 16.7507 59.5617C16.7507 60.2207 17.0125 60.8527 17.4785 61.3187C17.9445 61.7847 18.5765 62.0465 19.2356 62.0465H27.0824L34.2917 108.45C34.3791 109.037 34.6755 109.574 35.1267 109.961C35.5778 110.348 36.1533 110.559 36.7476 110.556H44.7065L44.1268 112.252C43.7011 113.49 43.4837 114.79 43.4834 116.099V125.509C43.4839 126.168 43.7456 126.799 44.2111 127.265C44.6765 127.731 45.3078 127.993 45.9663 127.994H72.6874C73.346 127.993 73.9772 127.731 74.4427 127.265C74.9081 126.799 75.1699 126.168 75.1704 125.509V116.099C75.1701 114.79 74.9526 113.49 74.5269 112.252L73.9472 110.556H81.9081C82.5022 110.558 83.0773 110.347 83.5282 109.96C83.9792 109.573 84.2758 109.037 84.364 108.45L91.5694 62.0465L99.4163 62.0484ZM42.581 41.2053C42.5841 38.5711 43.6319 36.0457 45.4945 34.1831C47.3571 32.3205 49.8825 31.2727 52.5167 31.2696H56.7947L56.841 32.5488V46.0572C56.841 46.7164 57.103 47.3487 57.5691 47.8149C58.0353 48.2811 58.6676 48.543 59.3268 48.543C59.9861 48.543 60.6184 48.2811 61.0846 47.8149C61.5508 47.3487 61.8127 46.7164 61.8127 46.0572V31.2677H66.1332C68.7677 31.2703 71.2936 32.3178 73.1566 34.1805C75.0197 36.0432 76.0677 38.5688 76.0708 41.2033V57.0768H42.581V41.2053ZM70.2122 123.03H48.4454V116.103C48.4474 114.267 49.1779 112.506 50.4766 111.207C51.7752 109.909 53.536 109.178 55.3725 109.176H63.2774C65.1139 109.178 66.8746 109.909 68.1733 111.207C69.4719 112.506 70.2024 114.267 70.2045 116.103L70.2122 123.03ZM51.0829 95.7856C51.0833 94.1559 51.5668 92.5629 52.4724 91.208C53.378 89.8531 54.6651 88.7971 56.1707 88.1736C57.6764 87.55 59.3331 87.3868 60.9315 87.7047C62.5298 88.0226 63.9981 88.8073 65.1506 89.9595C66.3031 91.1117 67.0881 92.5798 67.4063 94.1781C67.7246 95.7764 67.5618 97.4332 66.9386 98.939C66.3154 100.445 65.2598 101.732 63.9051 102.638C62.5504 103.544 60.9575 104.028 59.3278 104.029C57.1403 104.027 55.0427 103.157 53.4961 101.61C51.9494 100.063 51.0801 97.9654 51.079 95.7778L51.0829 95.7856ZM79.7826 105.596H68.5138L70.0016 103.561C71.4406 101.59 72.306 99.2597 72.5018 96.8274C72.6976 94.3952 72.2163 91.9562 71.1111 89.7807C70.0059 87.6052 68.3201 85.7781 66.2403 84.5019C64.1605 83.2257 61.768 82.5501 59.3278 82.5501C56.8877 82.5501 54.4952 83.2257 52.4154 84.5019C50.3356 85.7781 48.6497 87.6052 47.5446 89.7807C46.4394 91.9562 45.958 94.3952 46.1539 96.8274C46.3497 99.2597 47.2151 101.59 48.6541 103.561L50.1419 105.596H38.873L32.1102 62.0562H86.5416L79.7826 105.596Z" fill="white"/>
</svg>
