<svg xmlns="http://www.w3.org/2000/svg" width="557.045" height="577.852" viewBox="0 0 557.045 577.852">
  <g id="login" transform="translate(-5.525 19.351)">
    <g id="Floor" transform="translate(5.527 236.892)">
      <ellipse id="Floor-2" data-name="Floor" cx="278.521" cy="160.804" rx="278.521" ry="160.804" transform="translate(0 0)" fill="#d6c7e2"/>
    </g>
    <g id="Shadow" transform="translate(29.887 262.985)">
      <path id="Shadow-2" data-name="Shadow" d="M386.084,403.016c-17.745-10.245-17.745-26.855,0-37.1s46.514-10.244,64.259,0,17.744,26.854,0,37.1S403.829,413.261,386.084,403.016Z" transform="translate(23.493 -214.093)" fill="#d6c7e2"/>
    </g>
    <g id="Device" transform="translate(5.526 -19.351)">
      <g id="Device-2" data-name="Device" transform="translate(0 0)">
        <g id="Group_692" data-name="Group 692" transform="translate(132.54 305.332)">
          <g id="Group_690" data-name="Group 690" transform="translate(0.009)">
            <path id="Path_3137" data-name="Path 3137" d="M237.616,392.857l47.325-27.364c4.878-2.816,7.317-6.507,7.319-10.2s.02-6.583.02-6.583l-49.1-27.688a10.41,10.41,0,0,1-4.71-8.159V254.516l-82.661,47.765,0,58.347a10.415,10.415,0,0,0,4.71,8.16l41.77,24.068C212.04,398.491,227.859,398.489,237.616,392.857Z" transform="translate(-155.803 -254.516)" fill="#662d91"/>
          </g>
          <g id="Group_691" data-name="Group 691" transform="translate(0 0)" opacity="0.6">
            <path id="Path_3138" data-name="Path 3138" d="M237.616,392.857l47.325-27.364c4.878-2.816,7.317-6.507,7.319-10.2s.02-6.583.02-6.583l-49.1-27.688a10.41,10.41,0,0,1-4.71-8.159V254.516l-82.661,47.765,0,58.347a10.415,10.415,0,0,0,4.71,8.16l41.77,24.068C212.04,398.491,227.859,398.489,237.616,392.857Z" transform="translate(-155.803 -254.516)"/>
          </g>
          <path id="Path_3139" data-name="Path 3139" d="M175.653,360.836v6.555l-15.15-8.732A10.42,10.42,0,0,1,155.8,350.5V292.158l15.748-9.085c.326,4,.68,8.133,1.006,12.159l-11.043,6.391v45.586a10.349,10.349,0,0,0,4.706,8.16Z" transform="translate(-155.797 -244.39)" opacity="0.3"/>
          <path id="Path_3140" data-name="Path 3140" d="M160.012,354.866a10.413,10.413,0,0,0,4.711,8.16l36.06,20.771c9.757,5.634,25.577,5.635,35.336,0l47.348-27.361c9.758-5.631,9.76-14.762,0-20.4l-36.083-20.786a10.413,10.413,0,0,1-4.711-8.16V261.507l-82.662,47.765Z" transform="translate(-154.302 -252.037)" fill="#662d91"/>
          <path id="Path_3141" data-name="Path 3141" d="M160.012,354.866a10.413,10.413,0,0,0,4.711,8.16l36.06,20.771c9.757,5.634,25.577,5.635,35.336,0l47.348-27.361c9.758-5.631,9.76-14.762,0-20.4l-36.083-20.786a10.413,10.413,0,0,1-4.711-8.16V261.507l-82.662,47.765Z" transform="translate(-154.301 -252.037)" opacity="0.3"/>
          <path id="Path_3142" data-name="Path 3142" d="M256.981,320.805V320.8l-9.595-5.54a10.413,10.413,0,0,1-4.711-8.16V261.507l-82.664,47.765v45.594a10.413,10.413,0,0,0,4.711,8.16l9.429,5.444Z" transform="translate(-154.302 -252.037)" opacity="0.5"/>
          <path id="Path_3143" data-name="Path 3143" d="M275.268,324.058v6.582c0,3.7-2.449,7.37-7.318,10.2l-47.333,27.348c-4.677,2.72-10.743,4.08-16.863,4.188v-6.555a35.417,35.417,0,0,0,16.863-4.188l47.333-27.376C272.819,331.455,275.268,327.757,275.268,324.058Z" transform="translate(-138.792 -229.858)" fill="#662d91"/>
          <path id="Path_3144" data-name="Path 3144" d="M275.268,324.058v6.582c0,3.7-2.449,7.37-7.318,10.2l-47.333,27.348c-4.677,2.72-10.743,4.08-16.863,4.188v-6.555a35.417,35.417,0,0,0,16.863-4.188l47.333-27.376C272.819,331.455,275.268,327.757,275.268,324.058Z" transform="translate(-138.792 -229.81)" opacity="0.5"/>
        </g>
        <path id="Path_3145" data-name="Path 3145" d="M63.477,493.939c3.051,1.761,8.16,1.666,11.412-.211L394.568,309.166a13.013,13.013,0,0,0,5.887-10.2V40.359c0-3.755-2.472-8.228-5.524-9.989s-8.16-1.666-11.412.211L63.845,215.143a13.014,13.014,0,0,0-5.888,10.2l0,258.607C57.953,487.706,60.426,492.177,63.477,493.939Z" transform="translate(-57.95 -29.109)" fill="#662d91"/>
        <path id="Path_3146" data-name="Path 3146" d="M72,491.879,391.675,307.317a13.015,13.015,0,0,0,5.89-10.2V38.51c0-3.756-2.637-5.277-5.89-3.4L72,219.671a13.014,13.014,0,0,0-5.888,10.2l0,258.607C66.11,492.234,68.747,493.756,72,491.879Z" transform="translate(-55.058 -27.266)" fill="#662d91"/>
        <path id="Path_3147" data-name="Path 3147" d="M72,491.879,391.675,307.317a13.015,13.015,0,0,0,5.89-10.2V38.51c0-3.756-2.637-5.277-5.89-3.4L72,219.671a13.014,13.014,0,0,0-5.888,10.2l0,258.607C66.11,492.234,68.747,493.756,72,491.879Z" transform="translate(-55.058 -27.266)" opacity="0.5"/>
        <path id="Path_3148" data-name="Path 3148" d="M74.026,385.9c-3.265,1.441-7.779,1.387-10.554-.217-3.046-1.769-5.521-6.23-5.521-10.01V352.131l11.043,6.392V382.07C68.994,385.5,71.169,387.047,74.026,385.9Z" transform="translate(-57.951 85.429)" fill="#662d91"/>
        <path id="Path_3149" data-name="Path 3149" d="M74.026,385.9c-3.265,1.441-7.779,1.387-10.554-.217-3.046-1.769-5.521-6.23-5.521-10.01V352.131l11.043,6.392V382.07C68.994,385.5,71.169,387.047,74.026,385.9Z" transform="translate(-57.948 84.753)" opacity="0.5"/>
        <path id="Path_3150" data-name="Path 3150" d="M66.1,406.955l.009,23.537c0,3.755,2.637,5.277,5.888,3.4L391.678,249.332a13.017,13.017,0,0,0,5.888-10.2V215.543Z" transform="translate(-55.06 36.997)" fill="#662d91"/>
        <path id="Path_3151" data-name="Path 3151" d="M66.11,406.9v23.587c0,3.755,2.637,5.277,5.888,3.4L391.675,249.332a13.016,13.016,0,0,0,5.888-10.2V215.543Z" transform="translate(-55.069 36.997)" opacity="0.3"/>
        <path id="Path_3152" data-name="Path 3152" d="M74.264,436.937l0-208.138a7.809,7.809,0,0,1,3.533-6.12L380.085,48.154c1.951-1.126,3.533-.213,3.533,2.04l.011,208.144a7.811,7.811,0,0,1-3.534,6.12L77.8,438.977C75.846,440.1,74.264,439.19,74.264,436.937Z" transform="translate(-52.167 -22.527)" fill="#27debf"/>
        <path id="Path_3153" data-name="Path 3153" d="M74.264,436.937l0-208.138a7.809,7.809,0,0,1,3.533-6.12L380.085,48.154c1.951-1.126,3.533-.213,3.533,2.04l.011,208.144a7.811,7.811,0,0,1-3.534,6.12L77.8,438.977C75.846,440.1,74.264,439.19,74.264,436.937Z" transform="translate(-52.167 -22.527)" fill="#844299"/>
        <path id="Path_3154" data-name="Path 3154" d="M189.9,291.923a12.214,12.214,0,0,0-5.525,9.571c0,3.523,2.475,4.951,5.527,3.189a12.213,12.213,0,0,0,5.525-9.57C195.424,291.59,192.95,290.163,189.9,291.923Z" transform="translate(-13.123 63.813)" fill="#27debf"/>
        <path id="Path_3155" data-name="Path 3155" d="M70.734,176.044a12.5,12.5,0,0,0-1.741,5.821V423.218l-11.043-6.392L57.958,175.5a12.178,12.178,0,0,1,1.734-5.821Z" transform="translate(-57.951 20.735)" opacity="0.7"/>
        <path id="Path_3156" data-name="Path 3156" d="M399.942,39.384c-.417-3.036-2.869-4.136-5.836-2.437L74.441,221.52a12.1,12.1,0,0,0-4.164,4.373l-11.043-6.379a12.115,12.115,0,0,1,4.163-4.373L383.064,30.583c3.259-1.88,8.355-1.978,11.419-.209C397.268,31.976,399.566,35.861,399.942,39.384Z" transform="translate(-57.435 -29.108)" opacity="0.3"/>
      </g>
    </g>
    <g id="Window" transform="translate(56.441 22.429)">
      <g id="Window-2" data-name="Window" transform="translate(-0.001 0)">
        <g id="Window-3" data-name="Window">
          <g id="Window-4" data-name="Window">
            <path id="Path_3157" data-name="Path 3157" d="M404.321,60.27a2.9,2.9,0,0,0-3,.238L99.667,234.688a9.117,9.117,0,0,0-4.127,7.145l0,206.87a4.02,4.02,0,0,0,1.739,3.586c.676.363,4.22,2.426,5.272,2.991a2.368,2.368,0,0,0,2.392-.138L406.586,280.893a9.106,9.106,0,0,0,4.13-7.141V65.879a2.855,2.855,0,0,0-1.28-2.711C408.695,62.781,405.081,60.725,404.321,60.27Z" transform="translate(-95.537 -59.952)" fill="#27debf"/>
            <g id="Group_693" data-name="Group 693" transform="translate(0 2.981)">
              <g id="Path_3158" data-name="Path 3158" transform="translate(-94.156 -62.153)" fill="#fafafa" stroke-miterlimit="10">
                <path d="M 102.2019958496094 454.2616882324219 C 100.930793762207 454.2616882324219 99.93499755859375 452.7918395996094 99.93499755859375 450.9154357910156 L 99.93499755859375 244.0449981689453 C 99.93499755859375 242.8583068847656 100.3402938842773 241.5025939941406 101.0761489868164 240.2276000976562 C 101.8121490478516 238.9524536132812 102.783447265625 237.9233551025391 103.811149597168 237.3298492431641 L 405.4571838378906 63.14944839477539 C 406.0199584960938 62.82474899291992 406.5709838867188 62.65309906005859 407.0505981445312 62.65309906005859 C 408.1676940917969 62.65309906005859 408.8345947265625 63.56750106811523 408.8345947265625 65.09915161132812 L 408.8345947265625 272.9721069335938 C 408.8345947265625 274.1581420898438 408.4287109375 275.5130615234375 407.691650390625 276.7871398925781 C 406.9548034667969 278.0608520507812 405.98291015625 279.0882568359375 404.9549560546875 279.6801147460938 L 103.3150482177734 453.9299926757812 C 102.932746887207 454.1499633789062 102.5580444335938 454.2616882324219 102.2019958496094 454.2616882324219 Z" stroke="none"/>
                <path d="M 407.0505981445312 63.15304565429688 C 406.6586303710938 63.15304565429688 406.1940002441406 63.30160522460938 405.7072143554688 63.58245849609375 L 104.0611572265625 237.7627868652344 C 102.0955810546875 238.89794921875 100.4349975585938 241.7748413085938 100.4349975585938 244.0450134277344 L 100.4349975585938 450.9154663085938 C 100.4349975585938 452.4848937988281 101.2276611328125 453.7616882324219 102.2019348144531 453.7616882324219 C 102.4692993164062 453.7616882324219 102.7601318359375 453.67236328125 103.0649108886719 453.4970397949219 L 404.7055053710938 279.2467651367188 C 406.6726379394531 278.1141967773438 408.3345947265625 275.2407531738281 408.3345947265625 272.9721069335938 L 408.3345947265625 65.09921264648438 C 408.3345947265625 64.435791015625 408.18701171875 63.88555908203125 407.9190063476562 63.54983520507812 C 407.705810546875 63.2828369140625 407.4217529296875 63.15304565429688 407.0505981445312 63.15304565429688 M 407.0505981445312 62.153076171875 C 408.4049682617188 62.153076171875 409.3345947265625 63.23202514648438 409.3345947265625 65.09921264648438 L 409.3345947265625 272.9721069335938 C 409.3345947265625 275.60400390625 407.4841918945312 278.8008422851562 405.2044372558594 280.1134033203125 L 103.5650939941406 454.3629455566406 C 101.2840270996094 455.6754760742188 99.43499755859375 453.5460815429688 99.43499755859375 450.9154663085938 L 99.43499755859375 244.0450134277344 C 99.43499755859375 241.4129943847656 101.2813110351562 238.2134399414062 103.56103515625 236.8968505859375 L 405.2071533203125 62.71646118164062 C 405.86962890625 62.334228515625 406.495849609375 62.153076171875 407.0505981445312 62.153076171875 Z" stroke="none" fill="#e0e0e0"/>
              </g>
              <path id="Path_3159" data-name="Path 3159" d="M97.277,401.172c.447.237,3.655,2.067,5.061,2.868a4.2,4.2,0,0,1-1.517-3.465V207.206l-5.283-3.091V397.589A4.014,4.014,0,0,0,97.277,401.172Z" transform="translate(-95.538 -11.816)" fill="#f0f0f0"/>
            </g>
            <g id="Group_694" data-name="Group 694">
              <path id="Path_3160" data-name="Path 3160" d="M409.332,65.068c-.016-2.608-1.854-3.661-4.125-2.352L103.561,236.9a9.121,9.121,0,0,0-4.126,7.148l0,13.5L409.332,78.611Z" transform="translate(-94.156 -59.172)" fill="#02cec5"/>
              <path id="Path_3161" data-name="Path 3161" d="M406.258,63.5,104.618,237.676a8.489,8.489,0,0,0-2.907,3.064L96.467,237.7a8.25,8.25,0,0,1,2.872-3.014l301.65-174.18a2.9,2.9,0,0,1,3-.245c.741.454,4.167,2.4,5.036,2.869A2.985,2.985,0,0,0,406.258,63.5Z" transform="translate(-95.209 -59.952)" fill="#02cec5" opacity="0.4"/>
              <path id="Path_3162" data-name="Path 3162" d="M95.538,208.717l0-13.417a8.512,8.512,0,0,1,1.256-4.126l5.257,3.023a8.333,8.333,0,0,0-1.233,4.1v13.5Z" transform="translate(-95.538 -13.423)" opacity="0.15"/>
            </g>
          </g>
        </g>
        <g id="Group_699" data-name="Group 699" transform="translate(67.881 161.11)">
          <g id="Group_695" data-name="Group 695">
            <path id="Path_3163" data-name="Path 3163" d="M329.332,179.612,148.665,283.92a6.663,6.663,0,0,0-3.015,5.222v51.794a6.651,6.651,0,0,0,3.018,5.218l5.277,3.037a6.678,6.678,0,0,0,6.032,0L340.62,244.893a6.664,6.664,0,0,0,3.017-5.222l.022-51.809a6.648,6.648,0,0,0-3.015-5.218l-5.279-3.037A6.674,6.674,0,0,0,329.332,179.612Z" transform="translate(-145.65 -178.89)" fill="#844299"/>
            <path id="Path_3164" data-name="Path 3164" d="M343.4,187.374c-.209-1.559-1.477-2.131-2.994-1.253l-180.66,104.3a6.056,6.056,0,0,0-2.131,2.255l-11.308-6.53a6.152,6.152,0,0,1,2.117-2.228L329.1,179.617a6.664,6.664,0,0,1,6.029-.014l5.279,3.036A6.732,6.732,0,0,1,343.4,187.374Z" transform="translate(-132.492 -164.702)" fill="#fff" opacity="0.5"/>
            <path id="Path_3165" data-name="Path 3165" d="M159.466,321.351a6.723,6.723,0,0,1-5.515-.237l-5.279-3.036a6.657,6.657,0,0,1-3.022-5.222v-51.79a6.244,6.244,0,0,1,.891-2.994l11.308,6.53a6.048,6.048,0,0,0-.891,2.966v51.8C156.959,321.1,158.045,321.894,159.466,321.351Z" transform="translate(-145.65 -150.813)" fill="#263238"/>
            <path id="Path_3166" data-name="Path 3166" d="M157.016,288.645,337.684,184.337c1.665-.962,3.014-.182,3.013,1.741l-.022,51.809a6.664,6.664,0,0,1-3.017,5.222L157.016,347.4c-1.665.96-3.014.182-3.014-1.741V293.867A6.661,6.661,0,0,1,157.016,288.645Z" transform="translate(-142.688 -177.104)" fill="#844299"/>
            <path id="Path_3167" data-name="Path 3167" d="M281.205,199.838,148.426,276.494a6.152,6.152,0,0,0-2.117,2.228l11.308,6.53A6.056,6.056,0,0,1,159.748,283l132.745-76.641Z" transform="translate(-145.416 -171.462)" fill="#455a64"/>
            <path id="Path_3168" data-name="Path 3168" d="M289.765,204.652,157.016,281.3A6.661,6.661,0,0,0,154,286.518v51.794c0,1.922,1.349,2.7,3.014,1.741L289.765,263.41Z" transform="translate(-142.688 -169.755)" fill="#37474f"/>
          </g>
          <g id="Group_696" data-name="Group 696" transform="translate(39.803 64.94)">
            <path id="Path_3169" data-name="Path 3169" d="M180.173,267.122l68.5-39.548c2.841-1.64,5.142-.474,5.142,2.6a11.028,11.028,0,0,1-5.143,8.541l-68.492,39.544c-2.841,1.64-5.143.475-5.145-2.6A11.024,11.024,0,0,1,180.173,267.122Z" transform="translate(-175.034 -226.83)" fill="#02cec5"/>
          </g>
          <g id="Group_697" data-name="Group 697" transform="translate(53.201 92.464)">
            <path id="Path_3170" data-name="Path 3170" d="M190.7,266.244a.141.141,0,0,1,.2.037.464.464,0,0,1,.085.306V274.3a12.261,12.261,0,0,1-.192,2.216,9,9,0,0,1-.57,1.948,6.551,6.551,0,0,1-.951,1.594,4.832,4.832,0,0,1-1.323,1.128,2.428,2.428,0,0,1-1.329.4,1.316,1.316,0,0,1-.947-.5,3.044,3.044,0,0,1-.566-1.292,9.349,9.349,0,0,1-.186-2v-7.713a1,1,0,0,1,.087-.406.522.522,0,0,1,.2-.265l.859-.5a.141.141,0,0,1,.2.034.479.479,0,0,1,.084.307v7.62a5.451,5.451,0,0,0,.118,1.249,1.532,1.532,0,0,0,.326.7.634.634,0,0,0,.508.217,1.451,1.451,0,0,0,.646-.214,2.707,2.707,0,0,0,.65-.535,3.031,3.031,0,0,0,.513-.806,4.949,4.949,0,0,0,.333-1.085,7.067,7.067,0,0,0,.122-1.387v-7.618a1.034,1.034,0,0,1,.084-.405.527.527,0,0,1,.2-.268Z" transform="translate(-184.925 -240.388)" fill="#fafafa"/>
            <path id="Path_3171" data-name="Path 3171" d="M193.981,273.432a.46.46,0,0,0-.076-.3.333.333,0,0,0-.257-.095,2.08,2.08,0,0,0-.493.058c-.206.043-.466.093-.783.152a1.6,1.6,0,0,1-.772-.024.97.97,0,0,1-.493-.375,1.782,1.782,0,0,1-.26-.707,6.1,6.1,0,0,1-.073-1,5.168,5.168,0,0,1,.149-1.2,5.874,5.874,0,0,1,.428-1.216,5.439,5.439,0,0,1,.683-1.081,3.366,3.366,0,0,1,.921-.8,2.188,2.188,0,0,1,.925-.325,1.146,1.146,0,0,1,.694.144,1.161,1.161,0,0,1,.444.524,2.173,2.173,0,0,1,.18.79.879.879,0,0,1-.08.4.555.555,0,0,1-.207.268l-.814.47c-.1.061-.186.073-.238.035s-.11-.084-.173-.135a.475.475,0,0,0-.255-.087.958.958,0,0,0-.475.171,1.948,1.948,0,0,0-.561.492,1.166,1.166,0,0,0-.245.745.678.678,0,0,0,.06.314.264.264,0,0,0,.221.125,1.79,1.79,0,0,0,.457-.027q.291-.045.757-.145a1.206,1.206,0,0,1,1.326.351,2.89,2.89,0,0,1,.387,1.667,4.873,4.873,0,0,1-.158,1.193,5.966,5.966,0,0,1-.461,1.225,5.381,5.381,0,0,1-.742,1.107,3.813,3.813,0,0,1-.988.824,2.161,2.161,0,0,1-.99.336,1.162,1.162,0,0,1-.723-.194,1.29,1.29,0,0,1-.456-.582,2.244,2.244,0,0,1-.169-.824.882.882,0,0,1,.08-.4.568.568,0,0,1,.206-.271l.815-.47c.106-.06.186-.062.238-.005s.112.122.179.2a.459.459,0,0,0,.28.14.96.96,0,0,0,.54-.182,2.8,2.8,0,0,0,.328-.226,2.445,2.445,0,0,0,.313-.3,1.781,1.781,0,0,0,.237-.363A.916.916,0,0,0,193.981,273.432Z" transform="translate(-182.889 -240.279)" fill="#fafafa"/>
            <path id="Path_3172" data-name="Path 3172" d="M195.15,270.7a12.249,12.249,0,0,1,.18-2.087,10.281,10.281,0,0,1,.52-1.918,6.894,6.894,0,0,1,.82-1.554,3.469,3.469,0,0,1,1.074-1.015,1.5,1.5,0,0,1,1.074-.237,1.415,1.415,0,0,1,.821.564,3.382,3.382,0,0,1,.523,1.219,7.487,7.487,0,0,1,.186,1.728v.847a.986.986,0,0,1-.087.405.531.531,0,0,1-.2.268l-3.534,2.041a2.063,2.063,0,0,0,.1.7.837.837,0,0,0,.27.4.559.559,0,0,0,.391.112,1.049,1.049,0,0,0,.455-.15,2.125,2.125,0,0,0,.55-.439,2.616,2.616,0,0,0,.35-.512,2.908,2.908,0,0,1,.19-.317.649.649,0,0,1,.2-.171l.847-.49a.153.153,0,0,1,.206.03.425.425,0,0,1,.079.313,3.339,3.339,0,0,1-.163.772,6.059,6.059,0,0,1-.462,1.076,6.592,6.592,0,0,1-.756,1.113,3.824,3.824,0,0,1-1.042.882,1.594,1.594,0,0,1-1.074.256,1.283,1.283,0,0,1-.82-.572,3.6,3.6,0,0,1-.52-1.309A9.364,9.364,0,0,1,195.15,270.7Zm2.594-4.32a1.788,1.788,0,0,0-.523.465,3.049,3.049,0,0,0-.367.624,3.766,3.766,0,0,0-.226.7,4.617,4.617,0,0,0-.1.65l2.392-1.382a4.73,4.73,0,0,0-.08-.547,1.139,1.139,0,0,0-.19-.454.53.53,0,0,0-.349-.211A.9.9,0,0,0,197.744,266.376Z" transform="translate(-181.299 -241.225)" fill="#fafafa"/>
            <path id="Path_3173" data-name="Path 3173" d="M202.8,263.635a2.134,2.134,0,0,0-.916,1.027,4.69,4.69,0,0,0-.28,1.791v4.891a1.038,1.038,0,0,1-.084.405.529.529,0,0,1-.2.267l-.8.465a.143.143,0,0,1-.2-.035.465.465,0,0,1-.085-.307v-8.767a1.011,1.011,0,0,1,.085-.405.538.538,0,0,1,.2-.268l.8-.463a.141.141,0,0,1,.2.035.472.472,0,0,1,.084.306v.435a5.753,5.753,0,0,1,.588-1.036,2.628,2.628,0,0,1,.821-.719l.475-.274a.145.145,0,0,1,.2.035.474.474,0,0,1,.084.307v1.241a1.04,1.04,0,0,1-.084.406.537.537,0,0,1-.2.267Z" transform="translate(-179.498 -242.254)" fill="#fafafa"/>
            <path id="Path_3174" data-name="Path 3174" d="M210.875,264.715a.141.141,0,0,1,.2.035.472.472,0,0,1,.084.306v1.337a1.045,1.045,0,0,1-.084.406.531.531,0,0,1-.2.266l-4.634,2.677a.144.144,0,0,1-.2-.035.473.473,0,0,1-.084-.307V257.246a1.038,1.038,0,0,1,.084-.405.537.537,0,0,1,.2-.267l.856-.5a.143.143,0,0,1,.2.035.47.47,0,0,1,.085.307v10.308Z" transform="translate(-177.468 -243.993)" fill="#fafafa"/>
            <path id="Path_3175" data-name="Path 3175" d="M213.358,255.127a1.779,1.779,0,0,1,1.054-.289,1.264,1.264,0,0,1,.814.414,2.552,2.552,0,0,1,.549,1,5.329,5.329,0,0,1,.24,1.479c.007.108.011.251.011.427V259.2c0,.169,0,.312-.011.429a9.9,9.9,0,0,1-.242,1.758,8.539,8.539,0,0,1-.546,1.621,6.458,6.458,0,0,1-.814,1.345,3.758,3.758,0,0,1-1.054.928,1.779,1.779,0,0,1-1.054.288,1.284,1.284,0,0,1-.813-.4,2.476,2.476,0,0,1-.546-.992,5.935,5.935,0,0,1-.244-1.479c-.007-.108-.011-.247-.015-.413s-.005-.337-.005-.513,0-.354.005-.531.008-.324.015-.44a9.225,9.225,0,0,1,.237-1.757,9.125,9.125,0,0,1,.553-1.635,6.438,6.438,0,0,1,.813-1.353A3.736,3.736,0,0,1,213.358,255.127Zm1.281,3.492a3.008,3.008,0,0,0-.154-.879.9.9,0,0,0-.3-.438.514.514,0,0,0-.39-.085,1.324,1.324,0,0,0-.435.167,2.13,2.13,0,0,0-.433.336,2.225,2.225,0,0,0-.391.536,3.537,3.537,0,0,0-.3.786,5.309,5.309,0,0,0-.153,1.057c-.007.106-.012.233-.015.386s-.007.31-.007.473,0,.321.007.477.008.274.015.359a3.041,3.041,0,0,0,.153.878.906.906,0,0,0,.3.439.51.51,0,0,0,.391.084,1.316,1.316,0,0,0,.433-.167,2.173,2.173,0,0,0,.435-.335,2.248,2.248,0,0,0,.39-.535,3.574,3.574,0,0,0,.3-.787,5.194,5.194,0,0,0,.154-1.058c.005-.089.009-.214.009-.372v-.948C214.649,258.839,214.644,258.717,214.639,258.619Z" transform="translate(-175.792 -244.425)" fill="#fafafa"/>
            <path id="Path_3176" data-name="Path 3176" d="M218.374,264.321a1.891,1.891,0,0,0,.458-.385,2.862,2.862,0,0,0,.421-.63,4.114,4.114,0,0,0,.435-1.868v-.7c-.057.145-.13.31-.224.494a4.228,4.228,0,0,1-.333.561,4.1,4.1,0,0,1-.454.544,2.668,2.668,0,0,1-.588.451,1.23,1.23,0,0,1-.956.187,1.306,1.306,0,0,1-.73-.557,3.458,3.458,0,0,1-.477-1.135,7.281,7.281,0,0,1-.2-1.552c-.007-.184-.008-.4-.008-.653s0-.47.008-.664a10.948,10.948,0,0,1,.2-1.779,9.962,9.962,0,0,1,.477-1.685,6.442,6.442,0,0,1,.73-1.4,3.014,3.014,0,0,1,.956-.918,1.663,1.663,0,0,1,.588-.226,1.1,1.1,0,0,1,.454.019.851.851,0,0,1,.333.175,1.334,1.334,0,0,1,.224.238v-.433a1.015,1.015,0,0,1,.084-.405.529.529,0,0,1,.2-.267l.8-.465a.142.142,0,0,1,.2.035.464.464,0,0,1,.085.306v8.824a9.273,9.273,0,0,1-.715,3.846,4.853,4.853,0,0,1-1.975,2.3,2.145,2.145,0,0,1-1,.325,1.342,1.342,0,0,1-.8-.217,1.59,1.59,0,0,1-.54-.649,2.456,2.456,0,0,1-.221-.971.848.848,0,0,1,.08-.4.543.543,0,0,1,.206-.27l.719-.416a.182.182,0,0,1,.252.033,1.923,1.923,0,0,1,.182.226.616.616,0,0,0,.375.309A1.087,1.087,0,0,0,218.374,264.321Zm-1.268-6.566a8.056,8.056,0,0,0,0,1.055,2.317,2.317,0,0,0,.424,1.513.685.685,0,0,0,.876.03,2.3,2.3,0,0,0,.874-1.05,4.729,4.729,0,0,0,.408-1.8c.014-.2.022-.439.022-.727s-.008-.523-.022-.7a2.023,2.023,0,0,0-.408-1.307.656.656,0,0,0-.874-.061,2.3,2.3,0,0,0-.876,1.046A5.234,5.234,0,0,0,217.106,257.755Z" transform="translate(-174.005 -245.697)" fill="#fafafa"/>
            <path id="Path_3177" data-name="Path 3177" d="M222.289,247.177a.143.143,0,0,1,.2.032.477.477,0,0,1,.085.309v1.468a1.028,1.028,0,0,1-.085.406.552.552,0,0,1-.2.268l-.908.524a.145.145,0,0,1-.2-.035.472.472,0,0,1-.085-.309v-1.467a1.022,1.022,0,0,1,.085-.406.518.518,0,0,1,.2-.266Zm.234,12.713a1.013,1.013,0,0,1-.085.406.543.543,0,0,1-.2.267l-.8.465a.143.143,0,0,1-.2-.035.466.466,0,0,1-.085-.308v-8.767a1.006,1.006,0,0,1,.085-.405.532.532,0,0,1,.2-.268l.8-.463a.144.144,0,0,1,.2.035.461.461,0,0,1,.085.307Z" transform="translate(-172.1 -247.15)" fill="#fafafa"/>
            <path id="Path_3178" data-name="Path 3178" d="M228.781,255.718a1.033,1.033,0,0,1-.084.405.535.535,0,0,1-.2.267l-.806.466a.143.143,0,0,1-.2-.037.464.464,0,0,1-.084-.306v-4.779a3.382,3.382,0,0,0-.3-1.635q-.3-.506-.91-.152a2.171,2.171,0,0,0-.883,1.187,5.672,5.672,0,0,0-.322,1.993v4.779a1.04,1.04,0,0,1-.085.405.535.535,0,0,1-.2.267l-.8.465a.143.143,0,0,1-.2-.035.468.468,0,0,1-.085-.307v-8.768a1.02,1.02,0,0,1,.085-.4.54.54,0,0,1,.2-.267l.8-.463a.141.141,0,0,1,.2.034.476.476,0,0,1,.085.308v.433a6.483,6.483,0,0,1,.646-1.181,2.689,2.689,0,0,1,.878-.826,1.5,1.5,0,0,1,1.078-.267,1.111,1.111,0,0,1,.7.555,3.327,3.327,0,0,1,.377,1.185,11.017,11.017,0,0,1,.111,1.62Z" transform="translate(-171.205 -247.106)" fill="#fafafa"/>
          </g>
          <g id="Group_698" data-name="Group 698" transform="translate(165.414 30.52)">
            <path id="Path_3179" data-name="Path 3179" d="M281.46,232.551l-13.158,7.6,2.039-18.455c-1.573-.832-2.576-2.878-2.576-5.819,0-5.241,3.187-11.328,7.118-13.6s7.116.141,7.116,5.382a17.877,17.877,0,0,1-2.576,8.794Z" transform="translate(-267.764 -201.421)" fill="#455a64"/>
            <path id="Path_3180" data-name="Path 3180" d="M281.319,226.152l-11.58-6.685-1.578,14.282Z" transform="translate(-267.623 -195.022)" fill="#37474f"/>
            <path id="Path_3181" data-name="Path 3181" d="M274.608,202.274c-2.572,1.485-4.818,4.607-6.07,8.054l10.609,6.125v0a17.877,17.877,0,0,0,2.576-8.794C281.724,202.415,278.538,200.006,274.608,202.274Z" transform="translate(-267.49 -201.421)" fill="#37474f"/>
          </g>
        </g>
        <g id="Group_705" data-name="Group 705" transform="translate(133.99 129.39)">
          <g id="Group_701" data-name="Group 701">
            <g id="Group_700" data-name="Group 700">
              <path id="Path_3182" data-name="Path 3182" d="M236.909,157.139c-4.5-2.6-10.717-2.235-17.589,1.733-13.734,7.93-24.867,27.215-24.865,43.074,0,7.958,2.807,13.538,7.336,16.122,1.178.673,7.575,4.394,8.763,5.081,4.5,2.6,10.715,2.23,17.583-1.735C241.87,213.484,253,194.2,253,178.338c0-7.926-2.782-13.49-7.278-16.09" transform="translate(-194.454 -155.471)" fill="#844299"/>
              <path id="Path_3183" data-name="Path 3183" d="M225.826,162.644c-13.733,7.934-24.868,27.216-24.865,43.074s11.136,22.288,24.869,14.359S250.708,192.862,250.695,177,239.546,154.715,225.826,162.644Z" transform="translate(-192.147 -154.134)" fill="#662d91"/>
              <path id="Path_3184" data-name="Path 3184" d="M236.642,190.126v1.811c-3.541,6.043-8.389,11.305-13.73,14.382s-10.188,3.423-13.73,1.455v-3.75c0-7.24,4.917-15.758,11.188-19.388l3.611-2.077c3.205-1.85,6.311-2.087,8.753-.673C235.228,183.321,236.642,186.319,236.642,190.126Z" transform="translate(-189.232 -146.43)" fill="#27debf"/>
              <path id="Path_3185" data-name="Path 3185" d="M235.96,157.139l8.813,5.11c-4.5-2.606-10.719-2.239-17.588,1.731-8.992,5.2-16.87,15.262-21.239,26.043l-8.813-5.114c4.367-10.781,12.241-20.844,21.239-26.038C225.245,154.905,231.461,154.534,235.96,157.139Z" transform="translate(-193.621 -155.478)" fill="#e89eff" opacity="0.4"/>
              <path id="Path_3186" data-name="Path 3186" d="M210.223,210.793c-1.551-.9-7.345-4.27-8.432-4.89-4.53-2.585-7.336-8.163-7.336-16.12l8.814,5.112C203.272,202.626,205.922,208.116,210.223,210.793Z" transform="translate(-194.454 -143.307)" opacity="0.2"/>
              <path id="Path_3187" data-name="Path 3187" d="M198.083,177.2l8.813,5.114a46.168,46.168,0,0,0-3.628,17.033v0l-8.814-5.112A46.214,46.214,0,0,1,198.083,177.2Z" transform="translate(-194.454 -147.767)" opacity="0.1"/>
            </g>
          </g>
          <g id="Group_704" data-name="Group 704" transform="translate(19.95 15.892)">
            <g id="Group_702" data-name="Group 702" transform="translate(5.615)">
              <path id="Path_3188" data-name="Path 3188" d="M218.316,186.6a4.737,4.737,0,0,1-2.391-.624c-1.677-.967-2.6-2.885-2.6-5.4a15.483,15.483,0,0,1,7.1-12.3v0c2.166-1.256,4.282-1.411,5.97-.444s2.6,2.885,2.6,5.4a15.5,15.5,0,0,1-7.1,12.3A7.26,7.26,0,0,1,218.316,186.6Z" transform="translate(-213.327 -167.204)" fill="#fff"/>
            </g>
            <g id="Group_703" data-name="Group 703" transform="translate(0 18.654)">
              <path id="Path_3189" data-name="Path 3189" d="M232.734,181.887c-2.442-1.414-5.548-1.177-8.753.673l-3.611,2.077c-6.27,3.63-11.188,12.148-11.188,19.388v3.75c3.542,1.968,8.379,1.632,13.73-1.455s10.189-8.339,13.73-14.382v-1.811C236.642,186.319,235.228,183.321,232.734,181.887Z" transform="translate(-209.182 -180.975)" fill="#fff"/>
            </g>
          </g>
        </g>
      </g>
    </g>
    <g id="Plants" transform="translate(491.47 360.728)">
      <g id="Plants-2" data-name="Plants" transform="translate(0 0)">
        <g id="Group_708" data-name="Group 708">
          <g id="Group_706" data-name="Group 706">
            <path id="Path_3190" data-name="Path 3190" d="M432.154,371.658s1.954-17.184,10.5-30.52,20.293-21.661,31.251-22.528,19.809,9.216,8.083,16.141-32.558,13.989-42.144,39.885Z" transform="translate(-432.154 -318.558)" fill="#02cec5"/>
            <path id="Path_3191" data-name="Path 3191" d="M432.154,371.658s1.954-17.184,10.5-30.52,20.293-21.661,31.251-22.528,19.809,9.216,8.083,16.141-32.558,13.989-42.144,39.885Z" transform="translate(-432.154 -318.558)" opacity="0.1"/>
          </g>
          <g id="Group_707" data-name="Group 707" transform="translate(2.733 5.144)">
            <path id="Path_3192" data-name="Path 3192" d="M434.492,365.548a.548.548,0,0,1-.116-.034.585.585,0,0,1-.321-.762c11.563-28.481,33.579-40.373,43.606-42.682a.585.585,0,1,1,.262,1.14c-9.821,2.261-31.4,13.948-42.785,41.982A.584.584,0,0,1,434.492,365.548Z" transform="translate(-434.011 -322.054)" fill="#fff"/>
          </g>
        </g>
        <g id="Group_713" data-name="Group 713" transform="translate(3.3 34.227)">
          <g id="Group_710" data-name="Group 710" transform="translate(0.786)">
            <g id="Group_709" data-name="Group 709">
              <path id="Path_3193" data-name="Path 3193" d="M492.6,356.568c-.992,2.236-3.434,3.4-5.707,4.317s-4.738,1.9-5.965,4.012c-2.473,4.273,1.588,10.28-1.068,14.44a7.651,7.651,0,0,1-5.223,3.029,51.092,51.092,0,0,1-5.135.458,20.145,20.145,0,0,1-2.439-.19c-2.356-.341-4.911-.452-7.07.755-3.4,1.907-4.439,6.2-6.5,9.5a16.125,16.125,0,0,1-11.438,7.174c-1.526.2-4.364.477-5.919-.39a2.736,2.736,0,0,1-.321-.2c-.01,0-.019-.015-.028-.028-.213-.241-.483-.547-.6-.714a.318.318,0,0,1-.06-.1c-.6-2.214.381-4.521.421-6.809,0-.144.006-.278,0-.415-.1-2.66-.171-5.306-.232-7.958q-.185-7.325-.146-14.662c.034-3.174-.349-6.649.995-9.639,1.487-3.288,5.185-3.361,6.583-6.587.559-1.286.858-2.665,1.4-3.964a11.364,11.364,0,0,1,9.681-6.758c6.455-.33,12.249,4.9,18.7,4.423a48.575,48.575,0,0,0,4.942-.942c5.229-.978,11.272.509,14.213,4.933A6.775,6.775,0,0,1,492.6,356.568Z" transform="translate(-434.931 -341.821)" fill="#02cec5"/>
            </g>
          </g>
          <g id="Group_711" data-name="Group 711" transform="translate(0 8.204)">
            <path id="Path_3194" data-name="Path 3194" d="M434.849,385.831l-.044-.01a.549.549,0,0,1-.388-.674c8.919-33.464,44.177-38.3,52.427-37.7a.556.556,0,0,1,.511.589.551.551,0,0,1-.59.509c-8.069-.581-42.557,4.149-51.285,36.891A.549.549,0,0,1,434.849,385.831Z" transform="translate(-434.397 -347.397)" fill="#fff"/>
          </g>
          <g id="Group_712" data-name="Group 712" transform="translate(14.711 21.318)">
            <path id="Path_3195" data-name="Path 3195" d="M469.312,364.673a.538.538,0,0,1-.291-.154,29.3,29.3,0,0,0-23.995-6.759.55.55,0,1,1-.16-1.089,30.424,30.424,0,0,1,24.938,7.074.551.551,0,0,1,0,.778A.557.557,0,0,1,469.312,364.673Z" transform="translate(-444.395 -356.31)" fill="#fff"/>
          </g>
        </g>
      </g>
    </g>
    <g id="Character" transform="translate(298.881 149.594)">
      <g id="Character-2" data-name="Character" transform="translate(-0.001 0)">
        <g id="Group_720" data-name="Group 720" transform="translate(62.808)">
          <g id="Group_719" data-name="Group 719">
            <path id="Path_3198" data-name="Path 3198" d="M422.547,231.917c-6.18,10.448-12.125,19.525-16.3,23.875-7.928,3.687-26.55,9.355-33.838,10.3a5.419,5.419,0,0,1-3.658-.861c-2.865-1.877-5.081-2.182-8.1-3.228-2.365-.818-3.367-1.947-3.811-1.517a2.687,2.687,0,0,0,.247,3.746,19.554,19.554,0,0,0,3.743,2.8,22.176,22.176,0,0,1-9.865.168c-6.306-1.655-9.286,1.377-5.02,8.226,1.529,2.453,7.542,6.378,19.731,5.319a108.151,108.151,0,0,0,12.949-1.532c11.691-2.494,24.686-4.911,32.677-7.3a20.742,20.742,0,0,0,7.76-5.379c13.439-15.318,17.89-26.232,23.781-36.154l-.509-16.21C432.812,213.883,427.718,223.173,422.547,231.917Z" transform="translate(-343.947 -156.626)" fill="#ffa8a7"/>
            <path id="Path_3199" data-name="Path 3199" d="M422.4,214.028s-8.318-1.769-14.569,6.23c-6.542,8.37-18.108,28.473-18.108,28.473s3.794,10.08,14,11.737l16.4-22.155S427.9,222.977,422.4,214.028Z" transform="translate(-322.37 -156.771)" fill="#08aba4"/>
            <g id="Group_714" data-name="Group 714" transform="translate(62.196 118.014)">
              <rect id="Rectangle_299" data-name="Rectangle 299" width="10.693" height="19.065" transform="translate(62.606 165.183)" fill="#ffa8a7"/>
              <path id="Path_3200" data-name="Path 3200" d="M414.434,373.308l-10.687.383-.535-20.177,11.222-.382Z" transform="translate(-378.209 -209.143)" fill="#ffa8a7"/>
              <path id="Path_3201" data-name="Path 3201" d="M455.147,255.384c0,10.635-1.566,96.221-1.566,96.221.249,3.06,3,8.7,2.407,20.457-.811,15.965-1.891,57.922-1.891,57.922a13.57,13.57,0,0,1-11.9.244s-8.669-58.795-10.586-74.617c-1.672-13.808-5.953-59.619-5.953-59.619l-5.8,54.06a65.836,65.836,0,0,1,1.326,17.7c-.5,7.318-3.939,45.433-3.939,45.433s-5.034,3.558-12.346.984c0,0-6.083-57.4-6.206-64.116-.141-7.657,3.556-94.783,3.556-94.783Z" transform="translate(-380.342 -255.269)" fill="#662d91"/>
              <path id="Path_3202" data-name="Path 3202" d="M434.188,377.272v-1.593c-1.023.464-3.4,9.911-7.642,13.941-3.374,3.2-7.975,6.9-9.144,10.477-1.218,3.715,6.408,5.766,9.558,5.185,3.662-.675,10.008-3.361,11.6-5.85s2.339-6.16,3.634-7.985,4.279-3.861,4.979-5.972c.384-1.159-.072-3.7-.614-5.847-.494-1.969-1.033-4.134-1.677-3.949,0,.24,0,1.214,0,1.214-.777.9-2.925,1.786-5.347,1.883C437.971,378.837,434.175,378.514,434.188,377.272Z" transform="translate(-371.582 -198.521)" fill="#444"/>
              <path id="Path_3203" data-name="Path 3203" d="M411.644,365.006c-.556.019-1.008.836-2.232,2.216a23.434,23.434,0,0,1-6.29,4.714c-4,2.088-11.788,5.3-15.312,6.952-2.2,1.033-2.1,3.8.178,5.376s7.767,2.712,14.363,1.176c3.593-.837,8.27-4.293,11.231-4.106s8.5.141,10.685-1.427,1.311-4.919.693-7.8c-.674-3.141-1.517-8.042-2.516-7.827v1.084c-1.286,2.026-7.919,2.851-10.744,1.359Z" transform="translate(-386.219 -203.891)" fill="#444"/>
              <path id="Path_3204" data-name="Path 3204" d="M421.785,285.8a39.132,39.132,0,0,1-14.89-8.891s2.872,5.6,11.416,10.817L416.484,336Z" transform="translate(-376.473 -245.072)" fill="#662d91"/>
            </g>
            <g id="Group_715" data-name="Group 715" transform="translate(82.757 57.257)">
              <path id="Path_3205" data-name="Path 3205" d="M448.45,215.57s8.791,2.033,8.2,17.975L454.8,258.938l.052,38.106c-7.863,8.91-42.722,8.259-54.656-.712,0,0,1.352-45.1,2.157-62.449.574-12.337,3.412-18.548,15.537-19.907l14.911.656Z" transform="translate(-400.193 -213.975)" fill="#02cec5"/>
            </g>
            <g id="Group_718" data-name="Group 718" transform="translate(84.403)">
              <path id="Path_3206" data-name="Path 3206" d="M435.775,197.846c0,9.158-7.127,16.58-15.919,16.58s-14-7.627-15.92-16.58c-3.518-16.374,7.127-16.58,15.92-16.58S435.775,188.689,435.775,197.846Z" transform="translate(-400.4 -172.135)" fill="#263238"/>
              <g id="Group_716" data-name="Group 716">
                <path id="Path_3207" data-name="Path 3207" d="M432.932,197.094s-2.441,11.947-3.421,13.91a5.209,5.209,0,0,1-3,2.522l.171-8.4Z" transform="translate(-389.435 -164.675)" fill="#263238"/>
                <path id="Path_3208" data-name="Path 3208" d="M429.285,185.469s1.751-.438,3.611,2.467c1.593,2.491,1.955,8.086-.547,14.649l-4.6.55Z" transform="translate(-388.851 -170.165)" fill="#263238"/>
                <path id="Path_3209" data-name="Path 3209" d="M429.943,188.027l5.638.1a2.658,2.658,0,0,0-2.569-2.981A3.123,3.123,0,0,0,429.943,188.027Z" transform="translate(-387.817 -170.304)" fill="#263238"/>
                <path id="Path_3210" data-name="Path 3210" d="M430.64,187.787l4.179-4.02a2.7,2.7,0,0,0-3.957-.154A3.074,3.074,0,0,0,430.64,187.787Z" transform="translate(-387.824 -171.401)" fill="#263238"/>
                <path id="Path_3211" data-name="Path 3211" d="M437.315,205.491c.923.574,2.238-1.271,3.375-2.51s4.708-2.41,6.561,1.654c1.888,4.143-1.3,8.082-3.958,9.4-4.745,2.36-6.252-1.07-6.252-1.07l-.384,18.924c-6.689,10.343-21.836,9.97-16.389-.5l.015-5.76a30.493,30.493,0,0,1-6.792.363c-3.7-.6-6.034-3.642-7.158-7.817-1.805-6.708-2.491-12.125-.959-25.317,1.679-14.46,17.827-14.612,26.546-8.894S437.315,205.491,437.315,205.491Z" transform="translate(-399.796 -172.519)" fill="#ffa8a7"/>
                <path id="Path_3212" data-name="Path 3212" d="M418.7,193.141c3.858-.385,7.67-1.171,11.537-1.455a7.474,7.474,0,0,1,2.5.121c2.962.8,2.579,4.242,3.05,6.648.809,4.143,1.482,11.163,3.04,11.2.464.009,2.228-3.04,3.375-4.127.743-.7.87-2.225,1.03-3.165.294-1.716.453-3.456.586-5.192.112-1.467.259-2.963.253-4.436a20.316,20.316,0,0,0-.387-4.953,8.611,8.611,0,0,0-2.063-3.709c-.1-.109-.194-.219-.294-.325a19.518,19.518,0,0,0-6.905-4.652,41.612,41.612,0,0,0-11.682-2.54,118.906,118.906,0,0,1-11.906-1.433,1.239,1.239,0,0,0-.69-.012,1.1,1.1,0,0,0-.559.884,4.906,4.906,0,0,0,2,4.848c-2.666.212-5.727-1.179-8.3-1.873a1.705,1.705,0,0,0-1.308,0,1.305,1.305,0,0,0-.515.749,4.86,4.86,0,0,0-.072,2.13,12.26,12.26,0,0,0,2.3,5.852,14.408,14.408,0,0,0,7.953,5.2A23.115,23.115,0,0,0,418.7,193.141Z" transform="translate(-401.312 -175.06)" fill="#263238"/>
                <path id="Path_3213" data-name="Path 3213" d="M415.235,213.545s8.27-1.735,11.16-3.335a9.734,9.734,0,0,0,4-4.118,13.829,13.829,0,0,1-2.27,4.857c-2.114,2.816-12.886,4.889-12.886,4.889Z" transform="translate(-394.75 -160.434)" fill="#f28f8f"/>
              </g>
              <g id="Group_717" data-name="Group 717" transform="translate(6.878 21.722)">
                <path id="Path_3214" data-name="Path 3214" d="M416.586,196.583a1.663,1.663,0,1,0,1.657-1.8A1.723,1.723,0,0,0,416.586,196.583Z" transform="translate(-400.991 -187.485)" fill="#263238"/>
                <path id="Path_3215" data-name="Path 3215" d="M418.395,191.52l3.544,2.038a2.262,2.262,0,0,0-.825-2.94A1.939,1.939,0,0,0,418.395,191.52Z" transform="translate(-400.138 -189.568)" fill="#263238"/>
                <path id="Path_3216" data-name="Path 3216" d="M416.956,204.11l-3.783,1.479a1.969,1.969,0,0,0,2.57,1.307A2.232,2.232,0,0,0,416.956,204.11Z" transform="translate(-402.599 -183.089)" fill="#f28f8f"/>
                <path id="Path_3217" data-name="Path 3217" d="M406.38,193.294l3.232-2.593a1.91,1.91,0,0,0-2.81-.449A2.294,2.294,0,0,0,406.38,193.294Z" transform="translate(-405.987 -189.823)" fill="#263238"/>
                <path id="Path_3218" data-name="Path 3218" d="M407.219,196.249a1.663,1.663,0,1,0,1.657-1.8A1.722,1.722,0,0,0,407.219,196.249Z" transform="translate(-405.406 -187.642)" fill="#263238"/>
                <path id="Path_3219" data-name="Path 3219" d="M415.21,194.731l-.192,10.467-5.94-1.363Z" transform="translate(-404.53 -187.51)" fill="#f28f8f"/>
              </g>
            </g>
          </g>
        </g>
        <g id="Group_725" data-name="Group 725" transform="translate(0 69.034)">
          <g id="Group_721" data-name="Group 721" transform="translate(23.621 37.775)">
            <path id="Path_3220" data-name="Path 3220" d="M317.314,257.4l9.217-5.321,3.653-4.423-9.217,5.321-3.653,4.423" transform="translate(-317.314 -247.653)" fill="#27debf"/>
            <path id="Path_3221" data-name="Path 3221" d="M317.314,257.4l9.217-5.321,3.653-4.423-9.217,5.321-3.653,4.423" transform="translate(-317.314 -247.653)" opacity="0.4"/>
          </g>
          <g id="Group_722" data-name="Group 722" transform="translate(48.703 49.862)">
            <path id="Path_3222" data-name="Path 3222" d="M334.361,268.007l9.217-5.321,7.7-6.818-9.217,5.321-7.7,6.818" transform="translate(-334.361 -255.868)" fill="#27debf"/>
            <path id="Path_3223" data-name="Path 3223" d="M334.361,268.007l9.217-5.321,7.7-6.818-9.217,5.321-7.7,6.818" transform="translate(-334.361 -255.868)" opacity="0.4"/>
          </g>
          <path id="Path_3224" data-name="Path 3224" d="M427.858,302.367a19.641,19.641,0,0,1,3.809,10.03A19.655,19.655,0,0,1,427.858,302.367Zm21.427.278c-3.1-21.115-14.446-42-27.969-49.809-6.489-3.752-12.495-3.887-17.3-1.074-1.407.817-6.625,3.827-8.682,5.007a4.936,4.936,0,0,0-.484.287,12.625,12.625,0,0,0-1.12.711,15.566,15.566,0,0,0-2,1.649c-.09.075-.181.181-.287.272-.272.272-.544.574-.8.877-.318.363-.636.742-.922,1.134a21.39,21.39,0,0,0-1.694,2.6c-.257.455-.515.939-.756,1.437l-75.8-43.759-9.211,5.309v5.869l.786.453.727.424v1.24l-1.513.877v3.419l11.132,23.566L324.4,269.5l3.661-4.432,9.711,5.807,5.582,9.561,6.14,3.539,7.7-6.821,9.453,5.46,3.177,13.1,15.838,9.135a86.983,86.983,0,0,0,3,9.848c.106.333.227.665.362,1.028,5.264,13.841,13.644,25.684,23.082,31.144a24.527,24.527,0,0,0,3.555,1.71,18.264,18.264,0,0,0,1.982.667,14.973,14.973,0,0,0,1.77.393,15.228,15.228,0,0,0,5.612-.015l.771-.182a6.553,6.553,0,0,0,1.074-.318l.817-.316a6.045,6.045,0,0,0,.848-.394,7.953,7.953,0,0,0,.787-.408c.135-.077.272-.152.393-.228a.554.554,0,0,0,.181-.106c2.1-1.209,7.29-4.205,8.7-5.005,7-4.055,11.541-14.325,11.541-28.846A75.713,75.713,0,0,0,449.285,302.645Z" transform="translate(-300.789 -221.979)" fill="#fbb613"/>
          <path id="Path_3225" data-name="Path 3225" d="M425.155,318.478c-3.637-2.1-6.584-8.339-6.584-13.938s2.947-8.435,6.584-6.336,6.584,8.34,6.584,13.938S428.791,320.578,425.155,318.478Zm14.918-12.224c-3.1-21.1-14.446-41.99-27.969-49.8-6.262-3.614-12.055-3.887-16.775-1.39a4.954,4.954,0,0,0-.484.287,12.653,12.653,0,0,0-1.12.711,15.569,15.569,0,0,0-2,1.649c-.09.075-.181.181-.287.272-.272.272-.544.574-.8.877-.318.363-.636.742-.922,1.134a21.4,21.4,0,0,0-1.694,2.6c-.257.455-.515.939-.756,1.438a36.453,36.453,0,0,0-2.921,8.955l-82.088-47.4v5.869l.786.453.727.424v1.24l-1.513.877v3.419l11.132,23.566L324.4,267.8l3.661-4.432,9.711,5.807,5.582,9.561,6.14,3.539,7.7-6.821,9.453,5.46,3.177,13.1,15.838,9.135a86.985,86.985,0,0,0,3,9.848c.106.333.227.665.362,1.028,5.264,13.841,13.644,25.684,23.082,31.144a24.527,24.527,0,0,0,3.555,1.71,18.258,18.258,0,0,0,1.982.667,14.979,14.979,0,0,0,1.77.393,15.228,15.228,0,0,0,5.612-.015l.771-.182a6.553,6.553,0,0,0,1.074-.318l.817-.316a6.052,6.052,0,0,0,.848-.394,7.953,7.953,0,0,0,.787-.408c.135-.076.272-.151.393-.228a.554.554,0,0,0,.181-.106c6.717-4.234,11.028-14.354,11.028-28.528A78.1,78.1,0,0,0,440.073,306.254Z" transform="translate(-300.789 -220.278)" fill="#fbb613"/>
          <path id="Path_3226" data-name="Path 3226" d="M394.48,289.1c0,5.6-2.949,8.441-6.578,6.339-3.646-2.1-6.6-8.335-6.6-13.932s2.95-8.44,6.6-6.337a9.318,9.318,0,0,1,2.691,2.464,19.769,19.769,0,0,0,3.812,10.029A11.627,11.627,0,0,1,394.48,289.1Z" transform="translate(-263.531 -197.237)" opacity="0.4"/>
          <path id="Path_3227" data-name="Path 3227" d="M420.317,304.907c0,14.521-4.538,24.79-11.541,28.845-1.407.8-6.595,3.8-8.7,5.005,6.717-4.234,11.028-14.354,11.028-28.528a78.115,78.115,0,0,0-.848-11.192c-3.1-21.1-14.446-41.99-27.969-49.8-6.262-3.614-12.055-3.887-16.775-1.39,2.057-1.18,7.276-4.19,8.682-5.007,4.81-2.813,10.816-2.678,17.3,1.074,13.523,7.805,24.867,28.694,27.969,49.809A75.717,75.717,0,0,1,420.317,304.907Z" transform="translate(-272.445 -213.062)" fill="#fff" opacity="0.4"/>
          <g id="Group_723" data-name="Group 723" transform="translate(129.104 90.231)">
            <path id="Path_3228" data-name="Path 3228" d="M400.034,290.242c0,14.173-4.311,24.293-11.028,28.528,2.1-1.209,7.29-4.205,8.7-5.005,7-4.055,11.541-14.325,11.541-28.845,0-.536-.019-1.076-.031-1.614-3.163,1.827-6.365,3.674-9.212,5.319C400.013,289.164,400.034,289.705,400.034,290.242Z" transform="translate(-389.006 -283.305)" fill="#fbb613"/>
            <path id="Path_3229" data-name="Path 3229" d="M400.034,290.242c0,14.173-4.311,24.293-11.028,28.528,2.1-1.209,7.29-4.205,8.7-5.005,7-4.055,11.541-14.325,11.541-28.845,0-.536-.019-1.076-.031-1.614-3.163,1.827-6.365,3.674-9.212,5.319C400.013,289.164,400.034,289.705,400.034,290.242Z" transform="translate(-389.006 -283.305)" opacity="0.1"/>
          </g>
          <g id="Group_724" data-name="Group 724" transform="translate(1.471 12.055)">
            <path id="Path_3230" data-name="Path 3230" d="M384.681,276.881v2.995L302.26,232.29l1.512-.877v-1.24Z" transform="translate(-302.26 -230.172)" opacity="0.15"/>
            <path id="Path_3231" data-name="Path 3231" d="M384.681,277.729v1.755L302.26,231.9l1.512-.877V231Z" transform="translate(-302.26 -229.78)" opacity="0.15"/>
          </g>
          <ellipse id="Ellipse_25" data-name="Ellipse 25" cx="21.763" cy="40.723" rx="21.763" ry="40.723" transform="translate(78.56 47.984) rotate(-17.064)" fill="none" stroke="#000" stroke-miterlimit="10" stroke-width="1" opacity="0.15"/>
          <path id="Path_3232" data-name="Path 3232" d="M387.268,265.738a36.454,36.454,0,0,0-2.921,8.955L302.26,227.288l9.211-5.309Z" transform="translate(-302.26 -221.979)" fill="#fff" opacity="0.4"/>
        </g>
        <g id="Group_726" data-name="Group 726" transform="translate(126.748 58.852)">
          <path id="Path_3233" data-name="Path 3233" d="M453.764,273.212c4.307-8.141,9.212-26.415,11.656-35.637,3.471-13.1-2.147-21.342-8.523-21.674-4,.609-17.129,48.392-17.129,48.392-1.455,1.164-21.441,11.291-27.861,13.836a4.991,4.991,0,0,1-3.555.013c-3.084-1.124-5.182-.911-8.2-1.215-2.364-.237-3.561-1.077-3.858-.571a2.7,2.7,0,0,0,1.159,3.483,18.92,18.92,0,0,0,4.117,1.8,25.088,25.088,0,0,1-7.967,1.081c-6.171-.135-8.394,2.545-3.606,8.8,3,3.92,7.823,5.156,18.686,1.4,3.131-1.081,7.371-3.187,11.316-4.62,8.16-2.965,10.257-3.284,16.519-5.394C445.554,279.863,451.854,276.825,453.764,273.212Z" transform="translate(-387.405 -214.662)" fill="#ffa8a7"/>
          <path id="Path_3234" data-name="Path 3234" d="M437.252,215.059c3.755.514,7.4,1.362,9.578,4.4s4,7.311,1.82,19.066a181.519,181.519,0,0,1-6.676,24.239s-8.734,3.733-18.025-5.737l6.378-24.687S431.421,216.3,437.252,215.059Z" transform="translate(-370.179 -215.059)" fill="#08aba4"/>
        </g>
      </g>
    </g>
  </g>
</svg>
