<svg xmlns="http://www.w3.org/2000/svg" width="658.691" height="580.075" viewBox="0 0 658.691 580.075">
  <g id="signup" transform="translate(-15918.789 898.884)">
    <g id="Group_428" data-name="Group 428" transform="translate(15918.789 -898.884)">
      <path id="_Path_" data-name="&lt;Path&gt;" d="M329.346,0c33.468,0,65.77.356,96.08,1.016,135.083,2.942,233.266,11.9,233.266,22.5,0,12.988-147.453,23.517-329.346,23.517S0,36.506,0,23.517,147.453,0,329.346,0Z" transform="translate(0 533.04)" fill="#d6c7e2"/>
      <g id="Group_403" data-name="Group 403" transform="translate(485.848 333.538)">
        <g id="Group_401" data-name="Group 401" transform="translate(0 0)">
          <path id="Path_3061" data-name="Path 3061" d="M321.963,379.607s-16.1-19.166-26.408-10.227-5.093,27.9,6.793,28.51a29.828,29.828,0,0,0,19.614-5.994Z" transform="translate(-290.041 -246.237)" fill="#19a3a9"/>
          <path id="Path_3063" data-name="Path 3063" d="M337.044,355.911s13.525-14.167,21.9-11.763,7.5,36.252-18.472,22.547Z" transform="translate(-239.424 -271.148)" fill="#19a3a9"/>
          <path id="Path_3065" data-name="Path 3065" d="M325.444,439.315S281,378.516,317.072,366.2s42.51,48.915,32.2,65.962S325.444,439.315,325.444,439.315Z" transform="translate(-276.132 -248.853)" fill="#19a3a9"/>
          <path id="Path_3066" data-name="Path 3066" d="M347.226,374.842s27.569-64.012-13.267-65.943-45.285,63.47,1.705,72.957Z" transform="translate(-277.304 -308.857)" fill="#19a3a9"/>
          <path id="Path_3069" data-name="Path 3069" d="M320.807,397.651s-13.406-56.519,12.358-61.027,51.2,46.558-2.1,72.23C331.067,408.853,321.924,403.181,320.807,397.651Z" transform="translate(-260.664 -279.257)" fill="#19a3a9"/>
        </g>
        <g id="Group_402" data-name="Group 402" transform="translate(17.321 181.84)">
          <path id="Path_3071" data-name="Path 3071" d="M298.381,396.411H373l-6.231,47.741H304.612Z" transform="translate(-298.381 -396.411)" fill="#390560"/>
        </g>
        <path id="Path_3072" data-name="Path 3072" d="M327.211,365s-28.073-22.923-16.962-51.243" transform="translate(-271.081 -303.584)" fill="none" stroke="#fff" stroke-miterlimit="10" stroke-width="1"/>
        <path id="Path_3073" data-name="Path 3073" d="M312.357,311.977s28.084,6.283,22.287,45.9" transform="translate(-266.009 -305.497)" fill="none" stroke="#fff" stroke-miterlimit="10" stroke-width="1"/>
        <path id="Path_3074" data-name="Path 3074" d="M331.622,338.426s13.761,5.018,15.211,23.351-23.365,38.381-23.365,38.381" transform="translate(-254.044 -277.014)" fill="none" stroke="#fff" stroke-miterlimit="10" stroke-width="1"/>
        <path id="Path_3075" data-name="Path 3075" d="M325.765,340.628s5.12,18.37-.5,26.291-2.721,25.07-2.721,25.07" transform="translate(-255.842 -274.643)" fill="none" stroke="#fff" stroke-miterlimit="10" stroke-width="1"/>
        <path id="Path_3076" data-name="Path 3076" d="M314.979,368.149c8.146,3.14,13.9,43.835,14.162,52.473" transform="translate(-263.186 -245.005)" fill="none" stroke="#fff" stroke-miterlimit="10" stroke-width="1"/>
        <path id="Path_3077" data-name="Path 3077" d="M310.5,369.094s-11.593,26.364,10.144,47.586" transform="translate(-271.334 -243.988)" fill="none" stroke="#fff" stroke-miterlimit="10" stroke-width="1"/>
        <path id="Path_3078" data-name="Path 3078" d="M342.094,356.053s8.821.8,12.216-5.9" transform="translate(-233.986 -264.387)" fill="none" stroke="#fff" stroke-miterlimit="10" stroke-width="1"/>
        <path id="Path_3079" data-name="Path 3079" d="M340.765,350.613s7.232-7.267,13.043-2.415" transform="translate(-235.417 -268.289)" fill="none" stroke="#fff" stroke-miterlimit="10" stroke-width="1"/>
        <path id="Path_3080" data-name="Path 3080" d="M310.829,378.793s-10-12.968-17.28-6.634" transform="translate(-286.264 -242.563)" fill="none" stroke="#fff" stroke-miterlimit="10" stroke-width="1"/>
        <path id="Path_3081" data-name="Path 3081" d="M312.85,382.523s-19.263,3.381-21.178-6.814" transform="translate(-288.285 -236.864)" fill="none" stroke="#fff" stroke-miterlimit="10" stroke-width="1"/>
      </g>
      <g id="Group_408" data-name="Group 408" transform="translate(181.917 0)">
        <g id="Group_404" data-name="Group 404">
          <path id="Path_3082" data-name="Path 3082" d="M221.739,148.262H162.074A18.371,18.371,0,0,0,143.7,166.634v51.926a18.37,18.37,0,0,0,18.37,18.372h17.421L164.89,265.8l26.96-28.865h29.889a18.372,18.372,0,0,0,18.372-18.372V166.634A18.372,18.372,0,0,0,221.739,148.262Z" transform="translate(-143.702 -148.262)" fill="#407bff"/>
          <path id="Path_3083" data-name="Path 3083" d="M221.739,148.262H162.074A18.371,18.371,0,0,0,143.7,166.634v51.926a18.37,18.37,0,0,0,18.37,18.372h17.421L164.89,265.8l26.96-28.865h29.889a18.372,18.372,0,0,0,18.372-18.372V166.634A18.372,18.372,0,0,0,221.739,148.262Z" transform="translate(-143.702 -148.262)" fill="#fff" opacity="0.7"/>
        </g>
        <g id="Group_407" data-name="Group 407" transform="translate(6.325 2.233)">
          <g id="Group_405" data-name="Group 405" transform="translate(0 0)" style="isolation: isolate">
            <circle id="Ellipse_24" data-name="Ellipse 24" cx="29.613" cy="29.613" r="29.613" transform="translate(0 41.879) rotate(-45)" fill="#fbb613"/>
          </g>
          <g id="Group_406" data-name="Group 406" transform="translate(24.431 28.651)">
            <path id="Path_3084" data-name="Path 3084" d="M172.85,189.587a2.722,2.722,0,0,1-2.075-.96l-11.618-13.691a2.721,2.721,0,0,1,4.15-3.52l9.543,11.244,15.759-18.567a2.722,2.722,0,1,1,4.152,3.52l-17.836,21.014A2.722,2.722,0,0,1,172.85,189.587Z" transform="translate(-158.511 -163.132)" fill="#fff"/>
          </g>
        </g>
      </g>
      <g id="Group_427" data-name="Group 427" transform="translate(41.733 106.302)">
        <g id="Group_409" data-name="Group 409" transform="translate(261.25 180.392)">
          <path id="Path_3085" data-name="Path 3085" d="M208.225,557.993H329.1a2.376,2.376,0,0,0,2.376-2.376v-7.709a2.376,2.376,0,0,0-2.376-2.376H214.455V298.763H327.141a4.33,4.33,0,0,0,4.33-4.33V286.3H208.225a6.232,6.232,0,0,0-6.231,6.231V551.762A6.232,6.232,0,0,0,208.225,557.993Z" transform="translate(-201.994 -286.302)" fill="#263238"/>
        </g>
        <g id="Group_410" data-name="Group 410" transform="translate(261.25 180.396)" opacity="0.3" style="isolation: isolate">
          <path id="Path_3086" data-name="Path 3086" d="M201.994,292.535V551.752a6.221,6.221,0,0,0,6.231,6.231H329.1a2.365,2.365,0,0,0,2.368-2.368v-7.705a2.383,2.383,0,0,0-2.368-2.388H214.455V298.765h112.69a4.334,4.334,0,0,0,4.32-4.341V286.3H208.225A6.221,6.221,0,0,0,201.994,292.535Z" transform="translate(-201.994 -286.304)" fill="#fff"/>
        </g>
        <path id="Path_3087" data-name="Path 3087" d="M201.994,292.535v66.108q6.231,1.589,12.461,3.053v-62.93h112.69a4.334,4.334,0,0,0,4.32-4.341V286.3H208.225A6.221,6.221,0,0,0,201.994,292.535Z" transform="translate(59.256 -105.908)" opacity="0.2"/>
        <g id="Group_412" data-name="Group 412" transform="translate(0 128.327)">
          <path id="Path_3088" data-name="Path 3088" d="M100.749,436.365l49.567-4.32v-65.1h17.425v65.079l49.744,4.337a8.563,8.563,0,0,1,7.724,8.521v6.6H93.027v-6.6A8.561,8.561,0,0,1,100.749,436.365Z" transform="translate(-58.089 -147.388)" fill="#263238"/>
          <path id="Path_3089" data-name="Path 3089" d="M100.749,436.365l49.567-4.32v-65.1h17.425v65.079l49.744,4.337a8.563,8.563,0,0,1,7.724,8.521v6.6H93.027v-6.6A8.561,8.561,0,0,1,100.749,436.365Z" transform="translate(-58.089 -147.388)" fill="#fff" opacity="0.1" style="isolation: isolate"/>
          <path id="Path_3090" data-name="Path 3090" d="M148.945,417.5a11.393,11.393,0,1,0,11.394-11.394A11.393,11.393,0,0,0,148.945,417.5Z" transform="translate(2.128 -105.215)" fill="#263238"/>
          <path id="Path_3091" data-name="Path 3091" d="M112.568,417.5a11.393,11.393,0,1,1-11.394-11.394A11.393,11.393,0,0,1,112.568,417.5Z" transform="translate(-61.584 -105.215)" fill="#263238"/>
          <path id="Rectangle_299" data-name="Rectangle 299" d="M3.714,0h16a3.714,3.714,0,0,1,3.714,3.714V63.72a0,0,0,0,1,0,0H0a0,0,0,0,1,0,0V3.714A3.714,3.714,0,0,1,3.714,0Z" transform="translate(112.653 232.842) rotate(180)" fill="#263238"/>
          <path id="Rectangle_300" data-name="Rectangle 300" d="M3.714,0h16a3.714,3.714,0,0,1,3.714,3.714V63.72a0,0,0,0,1,0,0H0a0,0,0,0,1,0,0V3.714A3.714,3.714,0,0,1,3.714,0Z" transform="translate(112.653 232.842) rotate(180)" fill="#fff" opacity="0.2" style="isolation: isolate"/>
          <path id="Path_3092" data-name="Path 3092" d="M110.426,280.661S115.8,388.3,138.975,406.828H114.184S92.075,370.161,90.426,280.661Z" transform="translate(-60.89 -240.311)" fill="#263238"/>
          <path id="Path_3093" data-name="Path 3093" d="M110.426,280.661S115.8,388.3,138.975,406.828H114.184S92.075,370.161,90.426,280.661Z" transform="translate(-60.89 -240.311)" fill="#fff" opacity="0.1" style="isolation: isolate"/>
          <path id="Path_3235" data-name="Path 3235" d="M3.991,0h120.6a3.991,3.991,0,0,1,3.991,3.991V17.838H0V3.991A3.991,3.991,0,0,1,3.991,0Z" transform="translate(38.19 157.598)" fill="#c1c1c1"/>
          <g id="Group_411" data-name="Group 411" transform="translate(33.297 166.517)">
            <rect id="Rectangle_302" data-name="Rectangle 302" width="138.362" height="8.919" rx="1.807" fill="#263238"/>
            <rect id="Rectangle_303" data-name="Rectangle 303" width="138.362" height="8.919" rx="1.807" fill="#fff" opacity="0.6" style="isolation: isolate"/>
          </g>
          <path id="Path_3094" data-name="Path 3094" d="M101.394,325.147h39.714c11.635,0,20.038-10.453,18.769-23.35l-1.695-17.213c-1.269-12.9-11.73-23.351-23.365-23.351H95.1c-11.635,0-20.038,10.455-18.769,23.351L78.026,301.8C79.3,314.694,89.757,325.147,101.394,325.147Z" transform="translate(-76.205 -261.233)" fill="#222e34"/>
        </g>
        <g id="_Group_" data-name="&lt;Group&gt;" transform="translate(54.106)">
          <path id="Path_3095" data-name="Path 3095" d="M145.97,248.822s10.389,37.3,25,47.609c13.435,9.477,52.1,4.353,52.1,4.353" transform="translate(-55.181 -146.272)" fill="none" stroke="#b65b52" stroke-miterlimit="10" stroke-width="11.394"/>
          <path id="Path_3096" data-name="Path 3096" d="M152.1,242.019c6.548,2.243,12.5,11.66,28.937,49.382,0,0,2.671,4.623,16.021,7.5l-1.215,21.2s-19.066-.835-23.494-3.9-30.956-46.674-30.956-46.674Z" transform="translate(-60.108 -153.598)" fill="#39bcb6"/>
          <path id="Path_3098" data-name="Path 3098" d="M168.733,304.986a8.362,8.362,0,0,1-1.828-.872c-2.555-1.786-12.524-17.134-20.457-29.762a209.993,209.993,0,0,1,7.311-21.1S169.024,283.719,168.733,304.986Z" transform="translate(-54.666 -141.502)" opacity="0.2" style="isolation: isolate"/>
          <g id="Group_413" data-name="Group 413" transform="translate(160.307 144.389)">
            <path id="Path_3099" data-name="Path 3099" d="M181.722,274.34l14.889-5.373-1.821,19.948s-13.668,1.743-15.348-5.45Z" transform="translate(-179.442 -268.967)" fill="#b55b52"/>
            <path id="Path_3100" data-name="Path 3100" d="M200.987,273l-2.273,16.421-11.883-.508,1.823-19.948Z" transform="translate(-171.484 -268.967)" fill="#b55b52"/>
          </g>
          <path id="Path_3101" data-name="Path 3101" d="M169.687,268.967l7.6,2.283-2.773,20.609-7.6,1.315Z" transform="translate(-32.629 -124.577)" fill="#263238"/>
          <path id="Path_3102" data-name="Path 3102" d="M160.852,305.094s100.495,39.637,123.868,56.213,82.316,128.306,82.316,128.306l-24.364,18.771S272.39,406.334,263.814,399.41s-120.528-41.249-120.528-41.249Z" transform="translate(-58.071 -85.673)" fill="#662d91"/>
          <path id="Path_3104" data-name="Path 3104" d="M263.091,434.69l11.728-11.8-19.2-29.672-11.7,11.794Z" transform="translate(50.303 9.233)" fill="#b55b52"/>
          <path id="Path_3105" data-name="Path 3105" d="M243.922,405.01l11.713-11.781L266.6,410.192,254.472,421.37Z" transform="translate(50.303 9.24)" opacity="0.2" style="isolation: isolate"/>
          <path id="Path_3107" data-name="Path 3107" d="M267.015,409.436l-15.494,10.391a1.178,1.178,0,0,0-.4,1.62l.01.017,7.475,12.775a2.939,2.939,0,0,0,4.046.825c5.348-3.713,7.714-5.753,14.5-10.38,4.177-2.816,12.7-7.99,17.8-12.74s.272-9.666-2.307-8.106c-6.137,3.676-16.785,5.246-22.725,4.8A4.65,4.65,0,0,0,267.015,409.436Z" transform="translate(57.875 20.346)" fill="#444"/>
          <path id="Path_3108" data-name="Path 3108" d="M244.764,424.828l30.427-20.254-7.009-14.3-32.959,22.868Z" transform="translate(40.935 6.053)" fill="#662d91"/>
          <path id="Path_3110" data-name="Path 3110" d="M299.9,450.033c-19.17-27.187-40.084-56.18-44.529-59.752-6.272-5.068-67.811-24.8-100.439-35.016l-3.8-39.565,11.921-2.118,1.35,3.032s74.477,16.885,95.516,27.436C273.5,350.861,291.713,417.488,299.9,450.033Z" transform="translate(-49.626 -76.533)" opacity="0.2" style="isolation: isolate"/>
          <path id="Path_3112" data-name="Path 3112" d="M216.873,434.794l14.971-7.248-8.905-35.689-14.945,7.257Z" transform="translate(11.612 7.762)" fill="#b55b52"/>
          <path id="Path_3113" data-name="Path 3113" d="M207.994,399.1l14.953-7.239,5.086,20.4-15.162,6.5Z" transform="translate(11.612 7.771)" opacity="0.2" style="isolation: isolate"/>
          <path id="Path_3114" data-name="Path 3114" d="M229.6,408.022l-18.061,4.667a1.18,1.18,0,0,0-.91,1.4l0,.019,2.816,14.532a2.938,2.938,0,0,0,3.545,2.116c6.276-1.73,9.186-2.87,17.118-4.987,4.874-1.273,14.628-3.329,21.018-6.118s3.46-9.032.509-8.414c-7.007,1.433-17.575-.615-23.031-3A4.664,4.664,0,0,0,229.6,408.022Z" transform="translate(14.419 25.002)" fill="#444"/>
          <path id="Path_3115" data-name="Path 3115" d="M339.24,501.861s-25.319-127.129-30.491-134.7C300.3,354.784,198.913,334.63,198.913,334.63l11.909-2.137L197.05,296.01l-90.291,3.56s1.892,59.64,11.07,75.632,145,23.336,153.806,26.958,35.777,103.371,35.777,103.371Z" transform="translate(-97.407 -95.455)" fill="#662d91"/>
          <path id="Path_3117" data-name="Path 3117" d="M206.29,415.2l35.42-9.025-1.872-15.818-38.675,10.652Z" transform="translate(4.255 6.15)" fill="#662d91"/>
          <g id="Group_416" data-name="Group 416" transform="translate(11.198 204.068)">
            <path id="Path_3119" data-name="Path 3119" d="M134.374,298.621l-26.163-.456-.563,7.919,27.866.675Z" transform="translate(-107.648 -297.202)" fill="#263238"/>
            <path id="Path_3120" data-name="Path 3120" d="M122.457,298.368l1.153,8.227,58.4-.828-1.889-7.508Z" transform="translate(-91.7 -297.101)" fill="#263238"/>
            <path id="Path_3121" data-name="Path 3121" d="M136,300.461l.762,5.431a2.785,2.785,0,0,0,2.793,2.328l9.34-.282a2.141,2.141,0,0,0,2.123-2.476l-.76-5.431a2.789,2.789,0,0,0-2.8-2.328l-9.34.28A2.143,2.143,0,0,0,136,300.461Z" transform="translate(-77.143 -297.701)" fill="#fff"/>
          </g>
          <g id="Group_417" data-name="Group 417" transform="translate(3.863 82.684)">
            <path id="Path_3122" data-name="Path 3122" d="M111.885,360.457h85.774a4.254,4.254,0,0,0,4.218-3.705c10.588-82.989-9.631-111.758-9.631-111.758a153.491,153.491,0,0,0-23.51-4.785,302.079,302.079,0,0,0-34.9-.754,162.537,162.537,0,0,0-23.72,2.349c-4.249,1.794-8.463,20.316-4.253,77.958,1.1,15.1,1.277,28.146,1.171,35.789A4.844,4.844,0,0,0,111.885,360.457Z" transform="translate(-104.116 -239.257)" fill="#19a3a9"/>
            <path id="Path_3123" data-name="Path 3123" d="M140.765,256.171h16.513l1.264,19.723-8.871,5.748-8.906-4.4Z" transform="translate(-64.65 -221.042)" fill="#19a3a9"/>
          </g>
          <path id="Path_3125" data-name="Path 3125" d="M118.8,256.04l27.716,9.448,1.124-7.942c-2.708-4.735-3.389-7.724-1.107-13.226l-18.5-21.253C128.531,233.96,126.554,248.837,118.8,256.04Z" transform="translate(-84.441 -174.007)" fill="#b55b52"/>
          <path id="Path_3126" data-name="Path 3126" d="M127.239,248.455l5.433,2.251,4.754,2.987s6.322,36.254,4.553,66.859l5.321,4.37,5.616-4.517s-6.974-56.207-9.485-67.163l1.088-2.625,2.563-5.45-4.729-2.463-7.485,1.637h-5.238Z" transform="translate(-75.352 -152.86)" fill="#fff"/>
          <path id="Path_3127" data-name="Path 3127" d="M127.473,227.24l10.945,12.584a36.612,36.612,0,0,0-1.981,5.967c-4.631-1.385-10.347-7.558-10.112-12.582A16.538,16.538,0,0,1,127.473,227.24Z" transform="translate(-76.344 -169.513)" opacity="0.2" style="isolation: isolate"/>
          <path id="Path_3128" data-name="Path 3128" d="M122.624,236.522a131.277,131.277,0,0,0,24.962,12.97s1.684-6.3,0-11.776l12.241,6.108s1.014,9.5-1.8,14.432l-8.981-6.573L138.956,259.9s-19.116-7.373-22.106-17.382Z" transform="translate(-86.54 -159.517)" fill="#263238"/>
          <g id="Group_418" data-name="Group 418" transform="translate(112.243 144.227)">
            <path id="Path_3130" data-name="Path 3130" d="M158.58,274.262l14.889-5.373-1.824,19.949S157.98,290.58,156.3,283.39Z" transform="translate(-156.3 -268.889)" fill="#b55b52"/>
            <path id="Path_3131" data-name="Path 3131" d="M177.845,272.925l-2.273,16.421-11.883-.508,1.823-19.948Z" transform="translate(-148.342 -268.888)" fill="#b55b52"/>
          </g>
          <path id="Path_3132" data-name="Path 3132" d="M110.538,254.544s16.821,35.552,32.555,44.045c14.468,7.811,68.756-3.861,68.756-3.861" transform="translate(-93.338 -140.11)" fill="none" stroke="#b65b52" stroke-miterlimit="10" stroke-width="11.394"/>
          <path id="Path_3133" data-name="Path 3133" d="M112.115,240.483c-26.8,9.658,7.955,76.4,22.563,83.884s39.307,4.307,39.307,4.307l1.736-23.188s-12.8-1.552-16.621-2.465c-6.073-1.454-18.383-28.335-26.653-42.944S112.115,240.483,112.115,240.483Z" transform="translate(-102.256 -155.252)" fill="#08aba4"/>
          <path id="Path_3134" data-name="Path 3134" d="M112.115,240.483c-26.8,9.658,7.955,76.4,22.563,83.884s39.307,4.307,39.307,4.307l1.736-23.188s-12.8-1.552-16.621-2.465c-6.073-1.454-18.383-28.335-26.653-42.944S112.115,240.483,112.115,240.483Z" transform="translate(-102.256 -155.252)" fill="#fff" opacity="0.2" style="isolation: isolate"/>
          <path id="Path_3135" data-name="Path 3135" d="M137.1,270.989l-2.175,26.934,7.68-1.433,2.026-24.064Z" transform="translate(-67.072 -122.4)" fill="#263238"/>
          <g id="Group_419" data-name="Group 419" transform="translate(35.928)">
            <path id="Path_3136" data-name="Path 3136" d="M152.188,214.208c1.068,6.214-1.622,18.318-9.408,13.209S150.354,203.527,152.188,214.208Z" transform="translate(-96.899 -187.028)" fill="#263238"/>
            <path id="Path_3137" data-name="Path 3137" d="M126.66,222.669c-2.995,15.192-5.522,23.94.054,33.527,8.389,14.418,28.726,12.225,36.219-1.809,6.746-12.634,10.509-35.357-2.638-45.006C147.344,199.875,129.653,207.474,126.66,222.669Z" transform="translate(-115.405 -193.262)" fill="#b55b52"/>
            <path id="Path_3138" data-name="Path 3138" d="M123.417,205.939l17.22-.791.453,9.884c-.326-.187-.692-.366-1-.552,0,0-1.092,14.43-9.325,19.367C119.6,225.329,116.329,211.414,123.417,205.939Z" transform="translate(-119.427 -193.304)" fill="#263238"/>
            <path id="Path_3139" data-name="Path 3139" d="M120.628,222.758a14.533,14.533,0,0,0,4.874,10.085c3.882,3.385,8.077.442,8.887-4.38.729-4.339-.411-11.329-5.217-12.86C124.439,214.1,120.414,218,120.628,222.758Z" transform="translate(-118.408 -182.398)" fill="#b55b52"/>
            <path id="Path_3140" data-name="Path 3140" d="M135.476,219.345c-.32,1.217.071,2.368.87,2.569s1.705-.623,2.025-1.842-.071-2.368-.87-2.569S135.794,218.126,135.476,219.345Z" transform="translate(-102.53 -180.032)" fill="#263238"/>
            <path id="Path_3141" data-name="Path 3141" d="M142.133,221.017c-.32,1.219.071,2.37.87,2.569s1.705-.623,2.025-1.842-.071-2.368-.87-2.569S142.451,219.8,142.133,221.017Z" transform="translate(-95.361 -178.231)" fill="#263238"/>
            <path id="Path_3142" data-name="Path 3142" d="M141.313,219.806s1.078,7.483,3.309,11.543c-2.631,1.367-6.069-.48-6.069-.48Z" transform="translate(-99.096 -177.519)" fill="#a02724"/>
            <path id="Path_3143" data-name="Path 3143" d="M137.861,229.808a12.334,12.334,0,0,0,1.564.5.375.375,0,0,0,.453-.268.363.363,0,0,0-.266-.447,9.871,9.871,0,0,1-6.912-5.759.372.372,0,0,0-.7.241A10.27,10.27,0,0,0,137.861,229.808Z" transform="translate(-106.178 -173.443)" fill="#263238"/>
            <path id="Path_3144" data-name="Path 3144" d="M134.165,217.265a.744.744,0,0,0,.741-.11,5.979,5.979,0,0,1,5.228-1.234.748.748,0,0,0,.941-.469.733.733,0,0,0-.467-.93A7.42,7.42,0,0,0,133.987,216a.733.733,0,0,0,.179,1.261Z" transform="translate(-104.318 -183.47)" fill="#263238"/>
            <path id="Path_3145" data-name="Path 3145" d="M147.674,221.706a.747.747,0,0,0,1.009-.835,7.3,7.3,0,0,0-4.108-5.325.748.748,0,0,0-.964.42.731.731,0,0,0,.407.953,5.7,5.7,0,0,1,3.209,4.253A.724.724,0,0,0,147.674,221.706Z" transform="translate(-93.706 -182.16)" fill="#263238"/>
            <path id="Path_3146" data-name="Path 3146" d="M134.9,224.324a6.5,6.5,0,0,0,1.043.729,6.878,6.878,0,0,0,6.65.274c4.287-2.108,5.63-14.274,17.809-8.083a7.133,7.133,0,0,1,7.309,2.584c3.138,3.842.972,17.87,7.666,15.93s5.529-4.006,5.529-4.006-1.873,1.186-2.989.247c0,0,3.508-2.914,1.821-6.989,0,0-1.626,1.919-2.715,1.541,0,0,2.029-7.163-1.842-16.839s-27.635-7.514-27.635-7.514-3-5.005-13.73-1.514-15.633,16.422-13.932,22.063" transform="translate(-119.555 -199.445)" fill="#263238"/>
          </g>
        </g>
        <g id="Group_420" data-name="Group 420" transform="translate(152.51 156.811)">
          <path id="Path_3147" data-name="Path 3147" d="M244.263,280.74l-1.533-5.792H179.745l-29,2.9-1.1,2.9Z" transform="translate(-149.637 -274.948)" fill="#263238"/>
          <path id="Path_3148" data-name="Path 3148" d="M244.263,280.74l-1.533-5.792H179.745l-29,2.9-1.1,2.9Z" transform="translate(-149.637 -274.948)" fill="#fff" opacity="0.5" style="isolation: isolate"/>
          <path id="Path_3149" data-name="Path 3149" d="M164.134,274.948v5.792h64.518l-1.533-5.792Z" transform="translate(-134.025 -274.948)" opacity="0.2" style="isolation: isolate"/>
        </g>
        <g id="Group_421" data-name="Group 421" transform="translate(203.903 61.762)">
          <path id="Path_3150" data-name="Path 3150" d="M174.405,296.5a4.963,4.963,0,0,0,5,5.545h96.486a6.2,6.2,0,0,0,6.044-5.545l5.73-61.771a5.308,5.308,0,0,0-.125-1.8,4.926,4.926,0,0,0-4.877-3.743H186.179a6.2,6.2,0,0,0-6.042,5.545Z" transform="translate(-174.382 -229.183)" fill="#263238"/>
          <path id="Path_3151" data-name="Path 3151" d="M174.405,296.5a4.963,4.963,0,0,0,5,5.545h96.486a6.2,6.2,0,0,0,6.044-5.545l5.73-61.771a5.308,5.308,0,0,0-.125-1.8,4.926,4.926,0,0,0-4.877-3.743H186.179a6.2,6.2,0,0,0-6.042,5.545Z" transform="translate(-174.382 -229.183)" fill="#662d91" opacity="0.5" style="isolation: isolate"/>
          <path id="Path_3152" data-name="Path 3152" d="M177.045,300.1h96.144a6.2,6.2,0,0,0,6.044-5.545l5.73-61.771a5.308,5.308,0,0,0-.125-1.8H188.694a6.221,6.221,0,0,0-6.042,5.545L176.92,298.3A5.312,5.312,0,0,0,177.045,300.1Z" transform="translate(-171.677 -221.913)" opacity="0.1" style="isolation: isolate"/>
          <path id="Path_3153" data-name="Path 3153" d="M232.84,246.023h-19.96l5.321,57.148-31.564,4.739v3.98h66.478v-3.98L239.5,303.171Z" transform="translate(-161.185 -211.048)" fill="#263238"/>
          <path id="Path_3154" data-name="Path 3154" d="M232.84,246.023h-19.96l5.321,57.148-31.564,4.739v3.98h66.478v-3.98L239.5,303.171Z" transform="translate(-161.185 -211.048)" fill="#fff" opacity="0.5" style="isolation: isolate"/>
          <path id="Path_3155" data-name="Path 3155" d="M199.272,246.023l14.788,64.959,11.828-.352-6.656-64.607Z" transform="translate(-147.578 -211.048)" fill="#fff" opacity="0.2" style="isolation: isolate"/>
        </g>
        <g id="Group_426" data-name="Group 426" transform="translate(60.569 162.604)">
          <g id="Group_422" data-name="Group 422" transform="translate(24.036 17.789)">
            <path id="Path_3156" data-name="Path 3156" d="M123.172,557.993H244.043a2.376,2.376,0,0,0,2.376-2.376v-7.709a2.375,2.375,0,0,0-2.376-2.376H129.4V298.763H242.088a4.332,4.332,0,0,0,4.33-4.33V286.3H123.172a6.23,6.23,0,0,0-6.231,6.231V551.762A6.23,6.23,0,0,0,123.172,557.993Z" transform="translate(-116.941 -286.302)" fill="#263238"/>
          </g>
          <g id="Group_423" data-name="Group 423" transform="translate(24.036 17.789)" opacity="0.4" style="isolation: isolate">
            <path id="Path_3157" data-name="Path 3157" d="M123.172,557.993H244.043a2.376,2.376,0,0,0,2.376-2.376v-7.709a2.375,2.375,0,0,0-2.376-2.376H129.4V298.763H242.088a4.332,4.332,0,0,0,4.33-4.33V286.3H123.172a6.23,6.23,0,0,0-6.231,6.231V551.762A6.23,6.23,0,0,0,123.172,557.993Z" transform="translate(-116.941 -286.302)" fill="#fff"/>
          </g>
          <g id="Group_424" data-name="Group 424" transform="translate(10.752 5.996)">
            <path id="Rectangle_304" data-name="Rectangle 304" d="M1.943,0H324.76A1.943,1.943,0,0,1,326.7,1.943V13.848a0,0,0,0,1,0,0H0a0,0,0,0,1,0,0V1.943A1.943,1.943,0,0,1,1.943,0Z" transform="translate(326.703 13.848) rotate(180)" fill="#c1c1c1"/>
          </g>
          <rect id="Rectangle_305" data-name="Rectangle 305" width="326.703" height="6.924" transform="translate(337.455 12.92) rotate(180)" opacity="0.2" style="isolation: isolate"/>
          <g id="Group_425" data-name="Group 425">
            <path id="Path_3158" data-name="Path 3158" d="M109.268,285.538h340.4a3.9,3.9,0,0,0,3.9-3.9h0a3.9,3.9,0,0,0-3.9-3.9h-340.4a3.9,3.9,0,0,0-3.9,3.9h0A3.9,3.9,0,0,0,109.268,285.538Z" transform="translate(-105.368 -277.737)" fill="#c1c1c1"/>
          </g>
        </g>
      </g>
    </g>
  </g>
</svg>
