<svg xmlns="http://www.w3.org/2000/svg" width="45.787" height="52.027" viewBox="0 0 45.787 52.027">
  <g id="digi-icon03" transform="translate(581.874 256)">
    <path id="Path_21916" data-name="Path 21916" d="M-561.87-203.973H-575.08c-.024-.022-.046-.057-.074-.064-3.26-.8-4.805-2.771-4.805-6.137q0-11.425-.01-22.85a6.281,6.281,0,0,0-.224-1.591c-.362-1.354-.792-2.691-1.162-4.043a11.791,11.791,0,0,1-.507-2.319,5.6,5.6,0,0,1,4.218-5.784q12.436-3.615,24.878-7.211,3.525-1.02,7.054-2.028h1.321a1.967,1.967,0,0,0,.24.075,5.439,5.439,0,0,1,4.489,3.72c.659,1.915,1.164,3.884,1.735,5.829.34,1.157.134,1.53-1.013,1.862q-16.022,4.639-32.044,9.282c-.158.046-.309.113-.463.17l.028.073h33.929c1.008,0,1.392.325,1.393,1.242.006,8.025.023,16.05-.01,24.075a5.573,5.573,0,0,1-3.915,5.417c-.334.109-.677.188-1.016.281h-13.211c-.1-.066-.192-.131-.286-.2a.947.947,0,0,1-.408-1.019.94.94,0,0,1,.779-.773,2.982,2.982,0,0,1,.606-.04q5.69,0,11.38,0a3.689,3.689,0,0,0,4.051-4.023q0-6.426,0-12.853c0-.181-.016-.362-.024-.547h-39.776v.49q0,6.528,0,13.056a3.644,3.644,0,0,0,3.884,3.876c1.88,0,3.759,0,5.639,0,2.032,0,4.064,0,6.1,0,.71,0,1.144.328,1.2.908A1.082,1.082,0,0,1-561.87-203.973Zm10.345-48.239c.228.185.381.291.514.418,2.063,1.979,4.144,3.939,6.169,5.955a1.427,1.427,0,0,0,1.739.433c.986-.373,2.024-.608,3.091-.917-.554-1.848-1.029-3.661-1.648-5.424a3.491,3.491,0,0,0-3.989-2.137c-.675.145-1.338.351-2,.542C-548.9-252.983-550.142-252.615-551.524-252.211Zm-17.818,14.39a.725.725,0,0,0-.087-.161q-3.531-3.4-7.071-6.783a.5.5,0,0,0-.391-.094,3.633,3.633,0,0,0-2.861,4.328c.1.529.268,1.047.418,1.566.354,1.229.716,2.455,1.086,3.723Zm31.2,4.865c-1.4,0-2.754.013-4.106-.008a.737.737,0,0,0-.758.426c-1.253,2.205-2.53,4.4-3.8,6.593-.073.126-.128.261-.2.407h8.861ZM-577.9-225.5c1.39,0,2.741-.013,4.091.009a.734.734,0,0,0,.757-.424c1.243-2.19,2.51-4.366,3.768-6.547.08-.138.151-.281.253-.471H-577.9Zm31.463-18.962.127-.183a2.455,2.455,0,0,1-.475-.284q-2.845-2.716-5.679-5.444c-.414-.4-.788-.989-1.275-1.111s-1.1.223-1.646.381c-1.212.348-2.421.707-3.631,1.061l-.112.173a2.7,2.7,0,0,1,.465.293c2.067,1.976,4.149,3.936,6.176,5.952a1.463,1.463,0,0,0,1.748.438C-549.327-243.675-547.872-244.042-546.436-244.46Zm-7.553,2.185c-2.46-2.364-4.838-4.651-7.225-6.928a.487.487,0,0,0-.4-.082c-1.686.476-3.368.967-5.051,1.454l-.14.182a2.3,2.3,0,0,1,.482.277c2,1.906,4.024,3.779,5.95,5.753a1.859,1.859,0,0,0,2.27.569C-556.791-241.532-555.425-241.857-553.989-242.275Zm-7.7,2.233a.872.872,0,0,0-.084-.144q-3.532-3.4-7.072-6.784a.476.476,0,0,0-.385-.1c-1.7.477-3.4.971-5.1,1.462.022.068.023.109.044.129q3.545,3.419,7.1,6.83a.437.437,0,0,0,.353.1C-565.13-239.037-563.429-239.536-561.688-240.043Zm-1.279,14.544c1.778,0,3.467-.01,5.156.009a.663.663,0,0,0,.669-.4c1.256-2.2,2.529-4.391,3.8-6.584.079-.138.151-.28.26-.482-1.784,0-3.473.01-5.163-.009a.665.665,0,0,0-.671.4c-1.264,2.215-2.544,4.421-3.818,6.63C-562.8-225.824-562.86-225.7-562.967-225.5Zm17.8-7.406a.939.939,0,0,0-.184-.047c-1.694,0-3.387-.013-5.08.011a.709.709,0,0,0-.478.336c-1.309,2.233-2.6,4.476-3.894,6.718-.062.107-.1.226-.172.388,1.743,0,3.418-.01,5.094.008a.7.7,0,0,0,.713-.411c1.255-2.205,2.529-4.4,3.8-6.6C-545.3-232.626-545.241-232.76-545.168-232.9Zm-15.908-.023c-.2-.011-.345-.027-.491-.027-1.539,0-3.078.01-4.617-.01a.7.7,0,0,0-.71.42c-1.255,2.2-2.531,4.392-3.8,6.586-.073.127-.136.259-.228.434.2.01.347.024.492.025,1.539,0,3.078-.009,4.617.009a.7.7,0,0,0,.714-.411c1.252-2.2,2.527-4.393,3.794-6.588C-561.229-232.617-561.167-232.751-561.075-232.928Z" fill="#0470ba"/>
    <path id="Path_21917" data-name="Path 21917" d="M-356.393,238.176c-.1-.066-.192-.13-.285-.2a.947.947,0,0,1-.384-1.115.937.937,0,0,1,.949-.7.936.936,0,0,1,.949.7A.945.945,0,0,1-355.58,238c-.1.066-.2.117-.3.175Z" transform="translate(-201.92 -442.149)" fill="#0470ba"/>
    <path id="Path_21918" data-name="Path 21918" d="M-385.992,94.692c0-1.626,0-3.251,0-4.877,0-1.114.764-1.565,1.723-1.014q4.269,2.452,8.529,4.919a1.055,1.055,0,0,1-.007,2q-4.26,2.467-8.528,4.92c-.961.552-1.714.1-1.717-1.02C-386,97.977-385.992,96.334-385.992,94.692Zm2.056,3.406,5.858-3.379-5.858-3.381Z" transform="translate(-175.975 -309.553)" fill="#2ca7df"/>
  </g>
</svg>
