<svg xmlns="http://www.w3.org/2000/svg" width="35.457" height="45.004" viewBox="0 0 35.457 45.004">
  <g id="icon-img-06" transform="translate(-1974.447 -1339.957)">
    <path id="Path_2281" data-name="Path 2281" d="M1992.737,1339.957a5.906,5.906,0,0,1,3,2c.375.42.755.5,1,1a3.421,3.421,0,0,0,4,2c2.1-.477,3.534-.572,5,1a5.794,5.794,0,0,1,1,6c-.157.331.111.653,0,1-.316.987-.829,2.364,0,3,1.1.846,2.627,1.626,3,3a5.971,5.971,0,0,1-4,7,3.419,3.419,0,0,0-2,1c-.374.443-.982.418-1,1a17.3,17.3,0,0,1,0,2,1.488,1.488,0,0,0,0,1c1.3,2.7,2.7,5.3,4,8,.174.36,1.078.584,1,1a1.539,1.539,0,0,1-2,1c-1.384-.33-2.629-.621-4-1-.445-.123-.832-.388-1,0-.542,1.252-1.44,2.756-2,4-.266.592-.3.987-1,1a2.388,2.388,0,0,1-2-1c-1.234-2.566-1.763-5.436-3-8-.044-.093.051.089,0,0a3.736,3.736,0,0,0-1,0c-.121,0,.041-.09,0,0-.406.9-.595,2.1-1,3-.8,1.765-1.2,3.236-2,5a2.8,2.8,0,0,1-2,1c-.705.047-.7-.387-1-1-.621-1.281-1.4-2.709-2-4-.157-.337-.648-.1-1,0-1.337.392-2.659.621-4,1-.5.142-.555.312-1,0-.6-.417-1.351-1.221-1-2,.844-1.873,2.153-4.128,3-6,.508-1.123,1.482-1.882,2-3a1.6,1.6,0,0,0,0-1,7.065,7.065,0,0,1,0-1c-.017-1.254-.767-1.726-2-2a9.075,9.075,0,0,1-4-2c-2.166-2.288-1.451-6.019,1-8,.262-.212.783.252,1,0,.693-.807.426-2.017,0-3-.326-.754-.9-1.163-1-2-.276-2.261,1.88-5.094,4-6a4.081,4.081,0,0,1,3,0c.79.19,1.262.438,2,0a2.143,2.143,0,0,0,1-1,7.519,7.519,0,0,1,5-4Zm-8,28c-.065.672-.37,1.414,0,2,.709,1.124,2.6,2.167,4,1,2.307-1.927,4.66-1.9,7,0a2.673,2.673,0,0,0,3,0c1.056-.519,1.046-1.858,1-3a4.4,4.4,0,0,1,2-4,7.174,7.174,0,0,1,3-1,2.936,2.936,0,0,0,1-5,4.546,4.546,0,0,1-2-4c-.01-1.017-.439-2.106,0-3,.707-1.439.52-2.593-1-3a4.773,4.773,0,0,0-2,0,5.673,5.673,0,0,1-5-1c-.75-.6-.595-2.14-1-3-.548-1.162-1.749-1.3-3-1a3.431,3.431,0,0,0-2,2,6.11,6.11,0,0,1-4,3,5.516,5.516,0,0,1-3,0c-1.169-.281-1.391-.035-2,1a1.566,1.566,0,0,0,0,2c.589,1.082.187,2.787,0,4a3.835,3.835,0,0,1-2,3,2.561,2.561,0,0,0-1,3,2.978,2.978,0,0,0,2,2C1982.375,1363.47,1984.8,1365.4,1984.737,1367.957Zm-4,10c.1,0-.04.011,0,0,.819-.225,2.181-.774,3-1a1.571,1.571,0,0,1,2,1c.334.669.671,1.329,1,2,.062.126-.155-.007,0,0,.171.008-.057.125,0,0,.669-1.467,1.336-3.531,2-5,.329-.728.667-1.258,1-2-.172-.029.082-.052,0,0a4.554,4.554,0,0,1-3,1,5.6,5.6,0,0,1-3-1c-.139-.1-.839-.355-1,0C1982.067,1374.438,1981.427,1376.426,1980.737,1377.957Zm13-5c1.137,2.363,2.859,4.64,4,7,.161.333-.073.159,0,0,.345-.746.66-1.252,1-2,.251-.551.392-.933,1-1a2.887,2.887,0,0,1,1,0c.749.181,1.2-.2,2,0-.031-.126.024.049,0,0-.64-1.337-.371-2.658-1-4-.167-.356-.791-.151-1,0a4.619,4.619,0,0,1-4,1A8.279,8.279,0,0,1,1993.737,1372.957Z" fill="#0470ba"/>
    <path id="Path_2282" data-name="Path 2282" d="M2161.253,1522.748a11.449,11.449,0,0,1,11,11c-.018,5.716-5.282,10-11,10a9.735,9.735,0,0,1-10-10C2151.262,1528.006,2155.5,1522.736,2161.253,1522.748Zm8,11c.01-4.166-2.859-7.984-7-8a8.326,8.326,0,0,0-8,8,6.642,6.642,0,0,0,7,7C2165.4,1540.753,2169.244,1537.884,2169.253,1533.748Z" transform="translate(-169.516 -175.791)" fill="#0470ba"/>
    <path id="Path_2283" data-name="Path 2283" d="M2306.553,1716.933c-.623-.018-.734.366-1,0-.526-.723-1.511-1.252-2-2-.462-.707.357-1.56,1-2,.674-.462,1.456-.678,2,0,.223.278-.373.983,0,1,.318.014.716-.8,1-1,.963-.694,2.028-1.318,3-2,.931-.653,1.833-.1,2,1,.1.657.506.632,0,1-1.292.94-2.709,2.058-4,3-.3.216-.7.79-1,1C2307.272,1717.13,2306.738,1716.945,2306.553,1716.933Z" transform="translate(-315.816 -355.976)" fill="#0470ba"/>
  </g>
</svg>
