<svg xmlns="http://www.w3.org/2000/svg" width="39.227" height="39.118" viewBox="0 0 39.227 39.118">
  <g id="services-icon03" transform="translate(-1180.772 426.463)">
    <path id="Path_21380" data-name="Path 21380" d="M1474.07-387.644c-.676-.185-1.346-.394-2-.633a1.367,1.367,0,0,1-.586-.432c-.466-.607-.892-1.245-1.342-1.864a1.144,1.144,0,0,0-2.018,0c-.472.651-.928,1.314-1.408,1.958a.91.91,0,0,1-.412.3c-.748.255-1.5.484-2.257.726a1.16,1.16,0,0,0-.629,1.987c.447.606.909,1.2,1.337,1.821a1.208,1.208,0,0,1,.2.624c.017.765-.009,1.532-.011,2.3a1.165,1.165,0,0,0,1.7,1.215c.738-.244,1.473-.5,2.216-.729a.982.982,0,0,1,.547,0c.767.238,1.522.511,2.287.754a1.136,1.136,0,0,0,1.612-1.174c0-.792-.022-1.584-.005-2.375a1.149,1.149,0,0,1,.192-.588c.558-.82,1.139-1.624,1.711-2.434v-.536A1.534,1.534,0,0,0,1474.07-387.644Zm-3.013,5.435a3.793,3.793,0,0,0-3.833.006,3.648,3.648,0,0,0-1.229-3.594,8.229,8.229,0,0,0,1.9-.752,8.076,8.076,0,0,0,1.287-1.567,3.62,3.62,0,0,0,3.061,2.26A3.743,3.743,0,0,0,1471.057-382.209Z" transform="translate(-255.204 -31.9)" fill="#2ca7df"/>
    <path id="Path_21381" data-name="Path 21381" d="M1191.029-380.832c0-.766-.029-1.533-.01-2.3a1.281,1.281,0,0,1,.209-.661c.442-.641.924-1.253,1.381-1.883a1.141,1.141,0,0,0-.615-1.9c-.74-.24-1.488-.453-2.221-.711a1.276,1.276,0,0,1-.561-.4c-.473-.618-.907-1.265-1.365-1.895a1.143,1.143,0,0,0-2.018.012c-.464.641-.91,1.3-1.385,1.928a1.047,1.047,0,0,1-.473.342c-.772.263-1.557.487-2.331.744a1.127,1.127,0,0,0-.6,1.831,9.687,9.687,0,0,0,.754,1.013,2.69,2.69,0,0,1,.876,2.563c0,.56,0,.944,0,1.327a1.146,1.146,0,0,0,1.653,1.191c.751-.246,1.5-.51,2.251-.743a.982.982,0,0,1,.547,0c.755.233,1.5.5,2.252.742A1.158,1.158,0,0,0,1191.029-380.832Zm-4.205-1.922a7.276,7.276,0,0,0-1.864.492,24.293,24.293,0,0,0-1.2-3.658,3.461,3.461,0,0,0,3.032-2.2,8.088,8.088,0,0,0,1.29,1.567,8.093,8.093,0,0,0,1.888.744,3.47,3.47,0,0,0-1.152,3.567A8.251,8.251,0,0,0,1186.823-382.754Z" transform="translate(0 -31.895)" fill="#2ca7df"/>
    <path id="Path_21382" data-name="Path 21382" d="M1322.979-419.949a2.642,2.642,0,0,1,.828,2.546c0,.484,0,.842,0,1.2-.007,1.123.657,1.616,1.716,1.27.726-.238,1.447-.492,2.178-.714a1.062,1.062,0,0,1,.583,0c.743.225,1.476.484,2.214.726a1.162,1.162,0,0,0,1.684-1.232c0-.714-.008-1.429-.035-2.143a1.193,1.193,0,0,1,.265-.842c.467-.59.906-1.2,1.347-1.811a1.137,1.137,0,0,0-.606-1.9c-.774-.254-1.556-.487-2.328-.749a.908.908,0,0,1-.412-.3c-.48-.644-.935-1.306-1.407-1.957a1.143,1.143,0,0,0-2.016-.008c-.465.639-.909,1.294-1.386,1.924a1.12,1.12,0,0,1-.5.36c-.77.265-1.555.488-2.328.747a1.126,1.126,0,0,0-.593,1.808A9.877,9.877,0,0,0,1322.979-419.949Zm3.756-1.865a7.7,7.7,0,0,0,1.262-1.509,7.456,7.456,0,0,0,1.234,1.492,8.011,8.011,0,0,0,1.888.739,3.448,3.448,0,0,0-1.14,3.575,8.2,8.2,0,0,0-1.988-.52,8.038,8.038,0,0,0-1.979.524,3.452,3.452,0,0,0-1.154-3.579A7.946,7.946,0,0,0,1326.735-421.814Z" transform="translate(-127.611)" fill="#2ca7df"/>
    <path id="Path_21383" data-name="Path 21383" d="M1273.944-263.527a11.862,11.862,0,0,0-7.587-8.479c-.168-.065-.338-.127-.53-.2a7.623,7.623,0,0,0,.37-10.847,7.193,7.193,0,0,0-9.676-.4,7.039,7.039,0,0,0-2.492,4.761,7.321,7.321,0,0,0,2.445,6.476c-.382.141-.7.245-1,.373a9.614,9.614,0,0,0-.936.434,11.939,11.939,0,0,0-6.556,10.39c-.056,1,.37,1.437,1.373,1.438q3.485,0,6.969,0,8.329,0,16.658,0c.926,0,1.387-.46,1.309-1.379A15.366,15.366,0,0,0,1273.944-263.527Z" transform="translate(-60.753 -127.771)" fill="#6c6f74"/>
  </g>
</svg>
