<svg width="128" height="128" viewBox="0 0 128 128" fill="none" xmlns="http://www.w3.org/2000/svg">
<path d="M4 80.1367C4.18029 79.5018 4.33447 78.859 4.5435 78.2345C5.19787 76.2332 6.45451 74.4829 8.1415 73.2229C9.8285 71.9629 11.8635 71.2548 13.9682 71.1954C18.1044 71.0909 22.2485 71.1588 26.3873 71.151H27.9368C27.9368 68.687 27.9367 66.3223 27.9185 63.9576C27.9185 63.78 27.7016 63.55 27.5292 63.4351C25.6143 62.2458 23.9845 60.6496 22.7558 58.7598C21.5271 56.8699 20.7295 54.7328 20.4195 52.5001C20.3788 52.3976 20.3262 52.3002 20.2627 52.21C19.3429 52.21 18.371 52.2518 17.4016 52.21C16.1575 52.2237 14.9391 51.8552 13.9111 51.1543C12.8831 50.4534 12.095 49.4538 11.6532 48.2907C11.1661 47.1699 11.0237 45.9295 11.2443 44.7275C11.4649 43.5255 12.0384 42.4164 12.8917 41.5416C13.2188 41.1346 13.4114 40.6361 13.4431 40.1149C13.5162 38.7118 13.4431 37.3035 13.477 35.8977C13.5005 34.5625 14.2348 33.7316 15.3061 33.7708C16.3774 33.81 16.9678 34.5939 16.9913 35.8951C17.0122 37.097 16.9913 38.299 16.9913 39.5349H20.3541V33.0523C20.3541 31.6073 20.3305 30.1624 20.3541 28.7175C20.3292 27.333 20.8436 25.993 21.7886 24.9808C22.7335 23.9686 24.035 23.3634 25.418 23.2931C27.7151 23.0433 30.0356 23.4577 32.1043 24.4872C36.9031 26.9089 42.2411 28.0646 47.6118 27.8448C50.8414 27.7559 52.0538 28.9657 52.0538 32.2292C52.0538 34.6409 52.0538 37.0526 52.0538 39.527H55.3199C55.3434 39.2658 55.3801 39.0306 55.3801 38.8059C55.3801 33.729 55.4454 28.6495 55.3514 23.5753C55.3399 21.1877 54.481 18.8818 52.9276 17.0685C51.3742 15.2553 49.2273 14.0527 46.8698 13.675C46.2529 13.5774 45.6286 13.5345 45.0042 13.547C41.0195 13.547 37.0375 13.547 33.0529 13.547C31.8138 13.4864 30.5851 13.8005 29.5271 14.4484C28.4691 15.0962 27.6309 16.0477 27.1215 17.1789C26.9397 17.6102 26.6256 17.9726 26.2246 18.2139C25.8236 18.4553 25.3563 18.5631 24.8901 18.5219C23.6845 18.4626 22.4761 18.5292 21.2843 18.7205C20.1638 18.9478 19.1471 19.532 18.3864 20.3855C17.6257 21.239 17.1619 22.3159 17.0645 23.4551C16.9391 24.6544 17.0044 25.872 16.9626 27.0818C16.9182 28.3386 16.312 29.0284 15.2721 29.0571C14.1878 29.0859 13.4665 28.3647 13.4743 27.0687C13.4053 25.4311 13.4928 23.7906 13.7357 22.1695C14.1601 20.1015 15.3011 18.2498 16.9575 16.9409C18.6139 15.6321 20.6792 14.9502 22.7893 15.0154C23.2378 15.0523 23.6879 14.9659 24.0908 14.7656C24.4938 14.5652 24.8343 14.2586 25.0756 13.8788C25.9304 12.6789 27.0624 11.7033 28.3754 11.0351C29.6883 10.3668 31.1434 10.0255 32.6165 10.0405C36.9513 9.99604 41.2887 9.97775 45.6235 10.0405C49.0382 10.1199 52.2971 11.4854 54.7484 13.8641C57.1996 16.2427 58.6626 19.459 58.8447 22.8698C59.0224 28.5267 58.884 34.1941 58.9441 39.8537C58.9693 40.4862 59.1942 41.0945 59.5868 41.5912C60.405 42.4704 60.9514 43.5675 61.16 44.7502C61.3687 45.9329 61.2306 47.1507 60.7626 48.2567C60.3312 49.3997 59.5645 50.3855 58.5629 51.0849C57.5613 51.7844 56.3717 52.1647 55.1501 52.1761C54.1441 52.2466 53.1277 52.1761 52.0407 52.1761C51.9232 52.777 51.837 53.3075 51.7116 53.83C50.8812 57.6139 48.5995 60.9209 45.357 63.0405C45.0399 63.2151 44.7818 63.4799 44.6152 63.8013C44.4487 64.1227 44.3812 64.4863 44.4215 64.846C44.4842 66.5627 44.4816 68.2846 44.4215 70.0013C44.3927 70.8635 44.6488 71.1483 45.5372 71.1379C49.3651 71.0935 53.1931 71.0491 57.0184 71.1379C58.8474 71.1849 60.692 71.5533 62.8398 71.8146L68.5439 64.2372C68.2826 64.1693 68.1362 64.1249 67.9951 64.1014C67.5504 64.0989 67.1116 63.9997 66.7089 63.8108C66.3063 63.6218 65.9496 63.3476 65.6636 63.0071C65.3775 62.6666 65.1688 62.2679 65.0521 61.8388C64.9354 61.4096 64.9134 60.9602 64.9877 60.5217C64.9877 55.5624 64.9877 50.5979 64.9877 45.6282V24.725C64.6689 24.6649 64.4155 24.6021 64.1568 24.5656C63.465 24.5231 62.8133 24.2264 62.3271 23.7324C61.8409 23.2385 61.5546 22.5823 61.523 21.89C61.4309 20.6828 61.4309 19.4704 61.523 18.2633C61.5495 17.53 61.8554 16.8346 62.3781 16.3196C62.9009 15.8046 63.6009 15.5091 64.3345 15.4936C64.7212 15.457 65.1183 15.4701 65.505 15.4701H119.989C123.054 15.4701 124 16.4029 124 19.426C124 19.8937 124 20.364 124 20.8317C124 23.4446 123.242 24.3147 120.486 24.6858V26.0183C120.486 37.4628 120.486 48.9065 120.486 60.3492C120.486 63.0379 119.44 64.0935 116.723 64.0961C109.888 64.0961 103.052 64.0961 96.2171 64.0961H94.8244C94.6441 65.5254 94.5449 66.5627 96.0813 67.3753C97.0765 67.9826 97.8349 68.911 98.2315 70.0073C98.6281 71.1036 98.6392 72.3024 98.2629 73.4059C97.9397 74.5199 97.2686 75.5013 96.3476 76.2065C95.4266 76.9117 94.3041 77.3037 93.1443 77.3252C91.9648 77.3627 90.8046 77.019 89.8359 76.3449C88.8672 75.6709 88.1418 74.7026 87.767 73.5836C87.4043 72.4819 87.3972 71.2941 87.7471 70.1883C88.0969 69.0826 88.7858 68.1149 89.7161 67.4223C91.3126 66.2335 91.3126 66.2335 91.1454 64.0961H90.048C84.736 64.0961 79.4239 64.1144 74.1092 64.0778C73.7681 64.0552 73.4272 64.1254 73.1227 64.2809C72.8182 64.4364 72.5613 64.6714 72.3795 64.961C70.1141 68.0364 67.7965 71.0726 65.4527 74.1819C67.0303 75.8484 68.0321 77.9766 68.3112 80.2543C68.3787 80.8748 68.4137 81.4984 68.4158 82.1225C68.4158 92.1996 68.4158 102.277 68.4158 112.354C68.4158 114.491 67.9193 114.995 65.8186 114.995C51.3274 114.995 36.8371 114.988 22.3477 114.975C20.9163 114.934 19.5032 115.303 18.2743 116.038C16.5776 117.07 14.6071 117.56 12.6248 117.444C10.6425 117.329 8.74237 116.612 7.17729 115.39C5.59707 114.011 4.48639 112.173 4 110.133V80.1367ZM68.5779 24.7093V60.5321C69.2936 60.7992 70.0808 60.8028 70.7989 60.5424C71.517 60.282 72.1191 59.7744 72.4972 59.1107C73.6364 57.3877 74.8715 55.7303 76.197 54.1462C76.3239 53.9362 76.4937 53.7553 76.6952 53.6153C76.8967 53.4752 77.1252 53.3792 77.3663 53.3333C77.6073 53.2875 77.8553 53.2929 78.0941 53.3492C78.3329 53.4055 78.5573 53.5115 78.7525 53.6602C78.9499 53.8062 79.1143 53.9923 79.2347 54.2064C79.3551 54.4204 79.4288 54.6575 79.451 54.9021C79.4732 55.1467 79.4435 55.3932 79.3636 55.6255C79.2837 55.8577 79.1555 56.0704 78.9875 56.2496C78.4049 57.0779 77.7648 57.8696 77.1586 58.6874C76.7171 59.2858 76.2936 59.8972 75.8102 60.5766H116.877V24.7197L68.5779 24.7093ZM63.2632 77.1554C61.1729 79.9381 59.1426 82.6033 57.1646 85.2998C57.0209 85.4932 57.1334 85.953 57.2484 86.2431C57.9784 87.8449 58.0833 89.6618 57.5423 91.337C57.0013 93.0121 55.8535 94.4245 54.3245 95.2967C50.0001 97.8731 45.6209 100.353 41.26 102.856C41.0584 103.013 40.8255 103.124 40.5771 103.183C40.3286 103.242 40.0704 103.247 39.8199 103.198C39.5694 103.148 39.3323 103.045 39.125 102.896C38.9177 102.747 38.745 102.555 38.6184 102.333C38.0958 101.406 38.4458 100.462 39.5537 99.804C40.7191 99.1116 41.9053 98.4348 43.1281 97.7137L39.4883 91.4271L31.2839 96.1564C26.7898 98.751 22.3033 101.356 17.8013 103.938C16.2675 104.818 14.8592 104.199 14.8174 102.584C14.7495 99.851 14.773 97.1153 14.8174 94.3822C14.8171 94.1558 14.8614 93.9315 14.9477 93.7221C15.0341 93.5127 15.1607 93.3224 15.3206 93.1621C15.4805 93.0017 15.6705 92.8744 15.8796 92.7874C16.0887 92.7004 16.3129 92.6555 16.5393 92.6551C16.7749 92.6528 17.0084 92.6984 17.2259 92.7889C17.4434 92.8794 17.6403 93.0131 17.8046 93.1819C17.969 93.3506 18.0974 93.5509 18.1821 93.7707C18.2669 93.9905 18.3062 94.2252 18.2977 94.4606C18.3369 95.7096 18.2978 96.9612 18.3108 98.2101C18.3108 98.6073 18.3108 98.994 18.3108 99.561C18.9092 99.2318 19.2855 99.0384 19.654 98.8216C28.4046 93.7682 37.1812 88.7567 45.89 83.6354C47.1101 82.7304 48.5633 82.1924 50.0787 82.0845C51.594 81.9767 53.1087 82.3035 54.4447 83.0266L60.5092 74.9658C59.4118 74.8482 58.607 74.7045 57.8022 74.6862C56.0072 74.647 54.2068 74.6313 52.4144 74.7019C51.8491 74.7302 51.3066 74.9339 50.8623 75.2846C48.5107 77.2808 46.214 79.3424 43.8963 81.3778C43.5669 81.7885 43.1356 82.1056 42.6454 82.2974C42.1551 82.4893 41.6231 82.5492 41.1024 82.4712C40.5818 82.3932 40.0906 82.18 39.6781 81.8529C39.2656 81.5258 38.9461 81.0962 38.7515 80.607C37.9206 79.2327 37.1054 77.8478 36.2745 76.4525C36.2035 76.5032 36.137 76.56 36.076 76.6224C35.2686 77.9576 34.4664 79.2954 33.6591 80.6279C33.4682 81.1072 33.1561 81.5287 32.7534 81.8511C32.3507 82.1735 31.8712 82.3857 31.3618 82.4671C30.8524 82.5485 30.3305 82.4962 29.8474 82.3153C29.3642 82.1345 28.9364 81.8312 28.6057 81.4353C26.254 79.379 23.9181 77.3043 21.5508 75.2663C21.218 74.956 20.7954 74.7593 20.3437 74.7045C18.1959 74.6575 16.0455 74.6183 13.9003 74.7228C12.2019 74.8128 10.6012 75.5449 9.42228 76.7708C8.24338 77.9968 7.57442 79.6249 7.55095 81.3256C7.50131 90.5047 7.51437 99.6812 7.55095 108.86C7.55908 110.046 7.98147 111.191 8.74497 112.097C9.50847 113.004 10.5649 113.615 11.7315 113.825C13.4301 114.165 15.1946 113.876 16.6961 113.012C21.5038 110.18 26.3638 107.418 31.1846 104.63C31.5086 104.412 31.8546 104.229 32.2167 104.084C32.5977 103.913 33.0294 103.893 33.4246 104.027C33.8199 104.162 34.1493 104.442 34.3462 104.81C34.4659 104.991 34.5486 105.194 34.5896 105.407C34.6306 105.62 34.6291 105.839 34.5851 106.052C34.5412 106.264 34.4557 106.466 34.3335 106.645C34.2113 106.825 34.0549 106.978 33.8732 107.097C33.4914 107.367 33.0916 107.612 32.6765 107.828C30.6724 108.991 28.6658 110.148 26.4056 111.46H54.131V110.109C54.131 107.376 54.118 104.64 54.131 101.907C54.1004 101.673 54.1197 101.435 54.1876 101.209C54.2555 100.983 54.3704 100.774 54.5249 100.596C54.6794 100.417 54.87 100.274 55.0841 100.174C55.2981 100.075 55.5308 100.021 55.7668 100.018C56.0128 100.001 56.2596 100.036 56.491 100.121C56.7223 100.207 56.9329 100.34 57.1086 100.513C57.2844 100.686 57.4213 100.895 57.5102 101.125C57.5992 101.355 57.6382 101.601 57.6246 101.847C57.6559 102.276 57.6246 102.707 57.6246 103.135C57.6246 105.9 57.6246 108.662 57.6246 111.478H64.8073C64.8493 111.349 64.8792 111.216 64.8963 111.081C64.8963 101.199 64.8963 91.3182 64.8963 81.4379C64.8922 79.8588 64.3125 78.3352 63.2658 77.1528L63.2632 77.1554ZM48.5029 31.38C47.9385 31.38 47.4787 31.38 47.0162 31.38C41.3357 31.4862 35.7134 30.2187 30.628 27.6854C29.159 26.9583 27.5186 26.6484 25.8856 26.7892C25.6085 26.7663 25.33 26.8053 25.0699 26.9034C24.8097 27.0014 24.5746 27.1561 24.3815 27.3561C24.1885 27.5562 24.0424 27.7966 23.9537 28.0601C23.8649 28.3235 23.8358 28.6034 23.8685 28.8795C23.8685 36.2949 23.8476 43.7129 23.8972 51.1283C23.939 53.8558 25.0225 56.464 26.9255 58.4183C28.2547 59.8026 29.8867 60.86 31.6933 61.5074C33.5 62.1548 35.432 62.3746 37.3379 62.1495C39.9716 62.0588 42.4962 61.0744 44.496 59.3581C46.4957 57.6418 47.8516 55.296 48.3408 52.7065C48.421 52.4044 48.4736 52.0957 48.4978 51.7841C48.5082 45.0246 48.5056 38.2781 48.5056 31.3774L48.5029 31.38ZM65.0556 21.0486H120.402V19.1229H65.0556V21.0486ZM46.18 95.9709C48.4428 94.6644 50.5933 93.4756 52.6705 92.1822C53.4632 91.6963 54.0335 90.9187 54.2588 90.0167C54.484 89.1147 54.3462 88.1603 53.8751 87.3588C53.4259 86.5475 52.6796 85.942 51.7932 85.6696C50.9068 85.3972 49.9493 85.4791 49.1221 85.8981C46.9299 87.0661 44.8005 88.3595 42.5377 89.6581L46.18 95.9709ZM40.8158 71.0908V65.4366H31.5479V71.0908H40.8158ZM20.2783 43.1511C19.1783 43.1511 18.1359 43.0675 17.109 43.172C16.4429 43.2367 15.8251 43.5487 15.3777 44.0464C14.9303 44.5441 14.6855 45.1915 14.6919 45.8607C14.6566 46.5301 14.8769 47.1879 15.3082 47.7011C15.7394 48.2143 16.3494 48.5446 17.0149 48.6251C18.1013 48.6983 19.1909 48.7071 20.2783 48.6513V43.1511ZM52.1061 48.7035C52.937 48.7035 53.6738 48.7035 54.395 48.7035C54.7057 48.7128 55.0167 48.698 55.3252 48.6591C55.9871 48.5724 56.5945 48.2467 57.0329 47.7433C57.4713 47.2399 57.7106 46.5936 57.7056 45.926C57.7375 45.2759 57.5257 44.6373 57.1115 44.1351C56.6973 43.633 56.1107 43.3035 55.4663 43.2112C54.348 43.1311 53.2257 43.1215 52.1061 43.1825V48.7035ZM41.6545 78.6317L46.0676 74.7594H39.3526L41.6545 78.6317ZM26.2959 74.7411L30.7221 78.6265L33.0398 74.7411H26.2959ZM92.9719 69.9046C92.4415 69.9175 91.9368 70.1358 91.5643 70.5136C91.1919 70.8914 90.9808 71.3991 90.9755 71.9296C90.9816 72.1922 91.0398 72.451 91.1468 72.6909C91.2538 72.9308 91.4076 73.147 91.5989 73.3269C91.7903 73.5069 92.0156 73.647 92.2616 73.739C92.5076 73.8311 92.7694 73.8733 93.0319 73.8631C93.2847 73.8625 93.535 73.8117 93.7682 73.7139C94.0013 73.616 94.2127 73.473 94.3903 73.293C94.5679 73.113 94.708 72.8996 94.8027 72.6651C94.8974 72.4307 94.9447 72.1798 94.9419 71.927C94.9475 71.6648 94.9012 71.4042 94.8057 71.16C94.7103 70.9158 94.5675 70.6929 94.3857 70.504C94.2038 70.3151 93.9866 70.164 93.7462 70.0594C93.5058 69.9547 93.2471 69.8986 92.985 69.8941L92.9719 69.9046Z" fill="#777777"/>
</svg>
