<svg width="128" height="128" viewBox="0 0 128 128" fill="none" xmlns="http://www.w3.org/2000/svg">
<path d="M50.1191 38.4215H78.5666C79.0214 38.4215 79.4575 38.2409 79.7791 37.9193C80.1007 37.5977 80.2813 37.1616 80.2813 36.7068V19.944C80.2813 19.4892 80.1007 19.0531 79.7791 18.7315C79.4575 18.4099 79.0214 18.2292 78.5666 18.2292H50.1191C49.6643 18.2292 49.2281 18.4099 48.9066 18.7315C48.585 19.0531 48.4043 19.4892 48.4043 19.944V36.7068C48.4043 37.1616 48.585 37.5977 48.9066 37.9193C49.2281 38.2409 49.6643 38.4215 50.1191 38.4215Z" fill="#19A3A9"/>
<path d="M124 106.467V100.855C123.999 99.3475 123.4 97.9017 122.334 96.8356C121.268 95.7695 119.822 95.1702 118.314 95.1696H114.101V87.3308C114.098 86.7399 113.862 86.174 113.444 85.7565C113.026 85.3389 112.46 85.1036 111.869 85.1016H99.7878V79.122H106.277C107.785 79.1208 109.231 78.521 110.297 77.4545C111.363 76.388 111.962 74.942 111.963 73.434V64.9338C111.962 63.4261 111.363 61.9803 110.297 60.9142C109.23 59.8481 107.785 59.2489 106.277 59.2482H99.783V49.9396C99.7811 49.3488 99.5456 48.7826 99.128 48.3646C98.7105 47.9466 98.1447 47.7106 97.5538 47.708H66.5391V40.6261H76.8079C78.3156 40.6255 79.7614 40.0262 80.8275 38.9601C81.8936 37.894 82.4929 36.4482 82.4935 34.9405V21.6856C82.4929 20.1779 81.8936 18.7321 80.8275 17.666C79.7614 16.5998 78.3156 16.0006 76.8079 16H51.8609C50.3529 16.0006 48.9069 16.5998 47.8404 17.6658C46.7739 18.7318 46.1741 20.1777 46.1728 21.6856V34.9675C46.1741 36.4754 46.7739 37.9212 47.8404 38.9872C48.9069 40.0533 50.3529 40.6524 51.8609 40.6531H62.1272V47.7349H30.4438C29.8531 47.7369 29.2873 47.9724 28.8696 48.39C28.452 48.8076 28.2165 49.3735 28.2146 49.9641V59.2727H21.7451C20.2374 59.2734 18.7916 59.8726 17.7255 60.9387C16.6594 62.0048 16.0602 63.4506 16.0595 64.9583V73.4609C16.0602 74.9687 16.6594 76.4145 17.7255 77.4806C18.7916 78.5467 20.2374 79.1459 21.7451 79.1466H28.2391V85.1261H16.1306C15.5393 85.128 14.9728 85.3638 14.5547 85.7819C14.1366 86.2 13.9009 86.7664 13.899 87.3577V95.1966H9.68559C8.17765 95.1978 6.73185 95.7976 5.66581 96.8641C4.59976 97.9306 4.00065 99.3766 4 100.885V106.47C4.00065 107.977 4.59984 109.423 5.66595 110.489C6.73207 111.555 8.17788 112.155 9.68559 112.155H22.551C24.0588 112.155 25.5045 111.555 26.5706 110.489C27.6368 109.423 28.236 107.977 28.2366 106.47V100.858C28.236 99.3499 27.6368 97.9041 26.5706 96.838C25.5045 95.7719 24.0588 95.1727 22.551 95.172H18.3597V89.5379H42.5449V95.172H38.3316C36.8239 95.1727 35.378 95.7719 34.3119 96.838C33.2458 97.9041 32.6466 99.3499 32.646 100.858V106.47C32.6466 107.977 33.2458 109.423 34.3119 110.489C35.378 111.555 36.8239 112.155 38.3316 112.155H51.1946C52.7025 112.155 54.1485 111.556 55.215 110.489C56.2815 109.423 56.8813 107.978 56.8826 106.47V100.858C56.8813 99.3497 56.2815 97.9039 55.215 96.8378C54.1485 95.7718 52.7025 95.1727 51.1946 95.172H46.9959V87.3332C46.9933 86.7424 46.7573 86.1765 46.3393 85.759C45.9212 85.3414 45.3551 85.106 44.7643 85.104H32.6851V79.1245H39.1571C40.665 79.1232 42.1108 78.5234 43.1768 77.4569C44.2429 76.3904 44.842 74.9444 44.8427 73.4365V64.9362C44.842 63.4285 44.2428 61.9828 43.1767 60.9166C42.1106 59.8505 40.6648 59.2513 39.1571 59.2506H32.6631V52.1712H62.115V59.2506H55.3246C53.8169 59.2513 52.3712 59.8505 51.305 60.9166C50.2389 61.9828 49.6397 63.4285 49.6391 64.9362V73.4365C49.6397 74.9444 50.2389 76.3904 51.3049 77.4569C52.3709 78.5234 53.8167 79.1232 55.3246 79.1245H72.7464C74.2544 79.1232 75.7001 78.5234 76.7662 77.4569C77.8322 76.3904 78.4314 74.9444 78.432 73.4365V64.9362C78.4314 63.4285 77.8321 61.9828 76.766 60.9166C75.6999 59.8505 74.2541 59.2513 72.7464 59.2506H66.5709V52.1712H95.3883V59.2506H88.8846C87.3769 59.2513 85.9311 59.8505 84.865 60.9166C83.7989 61.9828 83.1996 63.4285 83.199 64.9362V73.4365C83.2003 74.944 83.7997 76.3894 84.8657 77.4553C85.9317 78.5213 87.3771 79.1208 88.8846 79.122H95.3785V85.1016H83.2994C82.7088 85.1036 82.1429 85.339 81.7253 85.7566C81.3077 86.1743 81.0722 86.7401 81.0702 87.3308V95.1696H76.8544C75.3467 95.1702 73.901 95.7695 72.8348 96.8356C71.7687 97.9017 71.1695 99.3475 71.1689 100.855V106.467C71.1695 107.975 71.7687 109.421 72.8348 110.487C73.901 111.553 75.3467 112.152 76.8544 112.153H89.7199C91.2276 112.152 92.6734 111.553 93.7395 110.487C94.8056 109.421 95.4048 107.975 95.4055 106.467V100.855C95.4048 99.3475 94.8056 97.9017 93.7395 96.8356C92.6734 95.7695 91.2276 95.1702 89.7199 95.1696H85.5065V89.5354H109.692V95.1696H105.478C103.97 95.1702 102.524 95.7694 101.458 96.8354C100.391 97.9015 99.7916 99.3473 99.7903 100.855V106.467C99.7916 107.975 100.391 109.421 101.458 110.487C102.524 111.553 103.97 112.152 105.478 112.153H118.341C119.845 112.146 121.284 111.544 122.345 110.479C123.406 109.413 124.001 107.971 124 106.467V106.467ZM50.6091 34.9675V21.6856C50.6148 21.3625 50.7456 21.0543 50.9741 20.8258C51.2026 20.5973 51.5108 20.4664 51.8339 20.4608H76.8079C77.1312 20.4658 77.4398 20.5965 77.6684 20.8251C77.897 21.0537 78.0277 21.3623 78.0327 21.6856V34.9675C78.0283 35.2909 77.8978 35.5999 77.6691 35.8286C77.4403 36.0574 77.1314 36.1879 76.8079 36.1923H51.8609C51.5333 36.193 51.2186 36.065 50.9845 35.8359C50.7503 35.6068 50.6155 35.295 50.6091 34.9675V34.9675ZM23.8028 100.863V106.475C23.7971 106.798 23.6663 107.106 23.4378 107.334C23.2093 107.563 22.9011 107.694 22.578 107.699H9.68802C9.36495 107.694 9.05669 107.563 8.8282 107.334C8.59972 107.106 8.46887 106.798 8.4632 106.475V100.863C8.46826 100.539 8.59892 100.231 8.82753 100.002C9.05614 99.7735 9.36475 99.6428 9.68802 99.6377H22.5535C22.716 99.6341 22.8775 99.6629 23.0288 99.7224C23.18 99.7819 23.3179 99.8709 23.4344 99.9842C23.5509 100.098 23.6437 100.233 23.7074 100.382C23.771 100.532 23.8043 100.693 23.8052 100.855L23.8028 100.863ZM52.4218 100.863V106.475C52.4168 106.798 52.2861 107.106 52.0575 107.335C51.8289 107.564 51.5203 107.694 51.197 107.699H38.334C38.0109 107.694 37.7027 107.563 37.4742 107.334C37.2457 107.106 37.1148 106.798 37.1092 106.475V100.863C37.1142 100.539 37.2449 100.231 37.4735 100.002C37.7021 99.7735 38.0107 99.6428 38.334 99.6377H51.197C51.358 99.6354 51.5178 99.6653 51.6671 99.7255C51.8164 99.7858 51.9522 99.8752 52.0664 99.9886C52.1807 100.102 52.2712 100.237 52.3327 100.386C52.3941 100.535 52.4253 100.694 52.4243 100.855L52.4218 100.863ZM40.3819 64.9338V73.434C40.3768 73.7573 40.2462 74.0659 40.0176 74.2945C39.7889 74.5231 39.4803 74.6538 39.1571 74.6588H21.7353C21.412 74.6538 21.1034 74.5231 20.8748 74.2945C20.6462 74.0659 20.5155 73.7573 20.5105 73.434V64.9338C20.5155 64.6105 20.6462 64.3019 20.8748 64.0733C21.1034 63.8447 21.412 63.714 21.7353 63.709H39.1571C39.4803 63.714 39.7889 63.8447 40.0176 64.0733C40.2462 64.3019 40.3768 64.6105 40.3819 64.9338V64.9338ZM73.9418 64.9338V73.434C73.9368 73.7573 73.8061 74.0659 73.5775 74.2945C73.3489 74.5231 73.0403 74.6538 72.717 74.6588H55.3246C55.0014 74.6538 54.6928 74.5231 54.4642 74.2945C54.2355 74.0659 54.1049 73.7573 54.0998 73.434V64.9338C54.1049 64.6105 54.2355 64.3019 54.4642 64.0733C54.6928 63.8447 55.0014 63.714 55.3246 63.709H72.7464C73.0684 63.7159 73.3751 63.8474 73.6022 64.0758C73.8292 64.3042 73.9589 64.6118 73.9639 64.9338H73.9418ZM87.6132 73.434V64.9338C87.6183 64.6105 87.7489 64.3019 87.9775 64.0733C88.2062 63.8447 88.5148 63.714 88.838 63.709H106.277C106.6 63.714 106.909 63.8447 107.137 64.0733C107.366 64.3019 107.497 64.6105 107.502 64.9338V73.434C107.497 73.7573 107.366 74.0659 107.137 74.2945C106.909 74.5231 106.6 74.6538 106.277 74.6588H88.8576C88.5341 74.6576 88.2241 74.5283 87.9956 74.2992C87.767 74.0702 87.6383 73.76 87.6377 73.4365L87.6132 73.434ZM90.9202 100.855V106.467C90.9145 106.79 90.7837 107.099 90.5552 107.327C90.3267 107.556 90.0185 107.686 89.6954 107.692H76.8299C76.5067 107.687 76.1981 107.556 75.9694 107.328C75.7408 107.099 75.6102 106.791 75.6051 106.467V100.855C75.6095 100.532 75.74 100.223 75.9688 99.994C76.1975 99.7652 76.5065 99.6348 76.8299 99.6304H89.6954C89.8583 99.6271 90.0202 99.6564 90.1717 99.7165C90.3231 99.7766 90.461 99.8663 90.5774 99.9803C90.6937 100.094 90.7861 100.23 90.8492 100.381C90.9123 100.531 90.9448 100.692 90.9447 100.855H90.9202ZM119.539 106.467C119.534 106.79 119.403 107.099 119.174 107.327C118.946 107.556 118.638 107.686 118.314 107.692H105.451C105.128 107.687 104.82 107.556 104.591 107.328C104.362 107.099 104.232 106.791 104.227 106.467V100.855C104.231 100.532 104.361 100.223 104.59 99.994C104.819 99.7652 105.128 99.6348 105.451 99.6304H118.314C118.638 99.6354 118.946 99.7661 119.175 99.9947C119.404 100.223 119.534 100.532 119.539 100.855V106.467Z" fill="#662D91"/>
<path d="M77.4936 16H50.5477C47.8419 16 45.6484 18.1935 45.6484 20.8993V35.597C45.6484 38.3028 47.8419 40.4963 50.5477 40.4963H77.4936C80.1994 40.4963 82.3929 38.3028 82.3929 35.597V20.8993C82.3929 18.1935 80.1994 16 77.4936 16Z" fill="#19A3A9"/>
</svg>
