<svg xmlns="http://www.w3.org/2000/svg" width="41.146" height="41.017" viewBox="0 0 41.146 41.017">
  <g id="smile-rating1" transform="translate(0.5 0.499)">
    <path id="Path_25224" data-name="Path 25224" d="M-1505.64,578.532a20.891,20.891,0,0,1,14.4-4.2c11.276.934,19.831,11.914,17.914,23.064-.153.892-.349,1.776-.524,2.664a22.9,22.9,0,0,1-5.712,8.942,20.1,20.1,0,0,1-28.182-1.038,19.964,19.964,0,0,1,.586-27.96Q-1506.4,579.265-1505.64,578.532Z" transform="translate(1513.171 -574.252)" fill="#fef000" stroke="#662d91" stroke-width="1"/>
    <g id="Group_638" data-name="Group 638" transform="translate(9.966 12.842)">
      <path id="Path_25225" data-name="Path 25225" d="M-1470.8,634.462c-.02-1.98-1.035-3.387-2.434-3.375-1.353.012-2.386,1.5-2.386,3.427,0,1.947,1.021,3.431,2.372,3.449C-1471.82,637.983-1470.781,636.5-1470.8,634.462Z" transform="translate(1475.622 -631.088)" fill="#662d91"/>
      <path id="Path_25226" data-name="Path 25226" d="M-1413.191,634.531c0-1.937-1.024-3.431-2.373-3.444-1.426-.014-2.478,1.484-2.452,3.494.025,1.959,1.061,3.4,2.438,3.385S-1413.2,636.49-1413.191,634.531Z" transform="translate(1433.306 -631.088)" fill="#662d91"/>
      <path id="Path_25227" data-name="Path 25227" d="M-1453.809,683.1v-.008c1.544,0,3.088-.01,4.632,0,.637.006,1.236-.134,1.192-.873-.037-.619-.506-.914-1.2-.907-3.087.03-6.175.024-9.263.008-.7,0-1.154.27-1.132.964.021.659.551.817,1.14.814C-1456.9,683.094-1455.353,683.1-1453.809,683.1Z" transform="translate(1463.84 -667.983)" fill="#662d91"/>
    </g>
  </g>
</svg>
