<?xml version="1.0" encoding="UTF-8"?>
<svg width="51px" height="51px" viewBox="0 0 51 51" version="1.1" xmlns="http://www.w3.org/2000/svg" xmlns:xlink="http://www.w3.org/1999/xlink">
    <!-- Generator: Sketch 63.1 (92452) - https://sketch.com -->
    <title>calculator</title>
    <desc>Created with Sketch.</desc>
    <g id="Page-1" stroke="none" stroke-width="1" fill="none" fill-rule="evenodd">
        <g id="1-copy" transform="translate(-849.000000, -2287.000000)" fill-rule="nonzero">
            <g id="Group-21-Copy" transform="translate(-2.000000, 2242.000000)">
                <g id="Group-19">
                    <g id="Group-17" transform="translate(823.000000, 20.000000)">
                        <g id="calculator" transform="translate(28.000000, 25.000000)">
                            <rect id="Rectangle" fill="#C9C9C9" x="0" y="0" width="25.200001" height="25.200001"></rect>
                            <rect id="Rectangle" fill="#DFDFDF" x="25.200001" y="0" width="25.200001" height="25.200001"></rect>
                            <rect id="Rectangle" fill="#DFDFDF" x="0" y="25.200001" width="25.200001" height="25.200001"></rect>
                            <rect id="Rectangle" fill="#1F2027" x="25.200001" y="25.200001" width="25.200001" height="25.200001"></rect>
                            <path d="M43.2000017,41.4000016 L32.4000013,41.4000016 C31.9032013,41.4000016 31.5000013,40.9977016 31.5000013,40.5000016 C31.5000013,40.0023016 31.9032013,39.6000016 32.4000013,39.6000016 L43.2000017,39.6000016 C43.6968017,39.6000016 44.1000018,40.0023016 44.1000018,40.5000016 C44.1000018,40.9977016 43.6968017,41.4000016 43.2000017,41.4000016 Z" id="Path" fill="#FFFFFF"></path>
                            <path d="M43.2000017,36.0000014 L32.4000013,36.0000014 C31.9032013,36.0000014 31.5000013,35.5977014 31.5000013,35.1000014 C31.5000013,34.6023014 31.9032013,34.2000014 32.4000013,34.2000014 L43.2000017,34.2000014 C43.6968017,34.2000014 44.1000018,34.6023014 44.1000018,35.1000014 C44.1000018,35.5977014 43.6968017,36.0000014 43.2000017,36.0000014 Z" id="Path" fill="#FFFFFF"></path>
                            <path d="M12.6000005,38.7000015 C12.3696005,38.7000015 12.1392005,38.6118015 11.9637005,38.4363015 C11.6118005,38.0844015 11.6118005,37.5156015 11.9637005,37.1637015 L16.4637007,32.6637013 C16.8156007,32.3118013 17.3844007,32.3118013 17.7363007,32.6637013 C18.0882007,33.0156013 18.0882007,33.5844013 17.7363007,33.9363013 L13.2363005,38.4363015 C13.0608005,38.6118015 12.8304005,38.7000015 12.6000005,38.7000015 Z" id="Path" fill="#1F2027"></path>
                            <path d="M8.10000032,43.2000017 C7.86960031,43.2000017 7.6392003,43.1118017 7.4637003,42.9363017 C7.11180028,42.5844017 7.11180028,42.0156017 7.4637003,41.6637017 L11.9637005,37.1637015 C12.3156005,36.8118015 12.8844005,36.8118015 13.2363005,37.1637015 C13.5882005,37.5156015 13.5882005,38.0844015 13.2363005,38.4363015 L8.73630035,42.9363017 C8.56080034,43.1118017 8.33040033,43.2000017 8.10000032,43.2000017 Z" id="Path" fill="#1F2027"></path>
                            <path d="M17.1000007,43.2000017 C16.8696007,43.2000017 16.6392007,43.1118017 16.4637007,42.9363017 L11.9637005,38.4363015 C11.6118005,38.0844015 11.6118005,37.5156015 11.9637005,37.1637015 C12.3156005,36.8118015 12.8844005,36.8118015 13.2363005,37.1637015 L17.7363007,41.6637017 C18.0882007,42.0156017 18.0882007,42.5844017 17.7363007,42.9363017 C17.5608007,43.1118017 17.3304007,43.2000017 17.1000007,43.2000017 Z" id="Path" fill="#1F2027"></path>
                            <path d="M12.6000005,38.7000015 C12.3696005,38.7000015 12.1392005,38.6118015 11.9637005,38.4363015 L7.4637003,33.9363013 C7.11180028,33.5844013 7.11180028,33.0156013 7.4637003,32.6637013 C7.81560031,32.3118013 8.38440033,32.3118013 8.73630035,32.6637013 L13.2363005,37.1637015 C13.5882005,37.5156015 13.5882005,38.0844015 13.2363005,38.4363015 C13.0608005,38.6118015 12.8304005,38.7000015 12.6000005,38.7000015 Z" id="Path" fill="#1F2027"></path>
                            <path d="M18.0000007,13.5000005 L7.20000029,13.5000005 C6.70320027,13.5000005 6.30000025,13.0977005 6.30000025,12.6000005 C6.30000025,12.1023005 6.70320027,11.7000005 7.20000029,11.7000005 L18.0000007,11.7000005 C18.4968007,11.7000005 18.9000008,12.1023005 18.9000008,12.6000005 C18.9000008,13.0977005 18.4968007,13.5000005 18.0000007,13.5000005 Z" id="Path" fill="#1F2027"></path>
                            <path d="M12.6000005,18.9000008 C12.1032005,18.9000008 11.7000005,18.4977007 11.7000005,18.0000007 L11.7000005,7.20000029 C11.7000005,6.70230027 12.1032005,6.30000025 12.6000005,6.30000025 C13.0968005,6.30000025 13.5000005,6.70230027 13.5000005,7.20000029 L13.5000005,18.0000007 C13.5000005,18.4977007 13.0968005,18.9000008 12.6000005,18.9000008 Z" id="Path" fill="#1F2027"></path>
                            <path d="M43.2000017,13.5000005 L32.4000013,13.5000005 C31.9032013,13.5000005 31.5000013,13.0977005 31.5000013,12.6000005 C31.5000013,12.1023005 31.9032013,11.7000005 32.4000013,11.7000005 L43.2000017,11.7000005 C43.6968017,11.7000005 44.1000018,12.1023005 44.1000018,12.6000005 C44.1000018,13.0977005 43.6968017,13.5000005 43.2000017,13.5000005 Z" id="Path" fill="#1F2027"></path>
                        </g>
                    </g>
                </g>
            </g>
        </g>
    </g>
</svg>