<?xml version="1.0" encoding="UTF-8"?>
<svg width="54px" height="54px" viewBox="0 0 54 54" version="1.1" xmlns="http://www.w3.org/2000/svg" xmlns:xlink="http://www.w3.org/1999/xlink">
    <!-- Generator: Sketch 63.1 (92452) - https://sketch.com -->
    <title>question</title>
    <desc>Created with Sketch.</desc>
    <g id="Page-1" stroke="none" stroke-width="1" fill="none" fill-rule="evenodd">
        <g id="1-copy" transform="translate(-1144.000000, -2285.000000)" fill-rule="nonzero">
            <g id="Group-21-Copy" transform="translate(-2.000000, 2242.000000)">
                <g id="Group-19">
                    <g id="Group-18" transform="translate(1123.000000, 20.000000)">
                        <g id="question" transform="translate(23.000000, 23.000000)">
                            <path d="M27,0 C12.1116033,0 0,12.1116033 0,27 C0,41.8883988 12.1116033,54 27,54 C41.8883988,54 54,41.8883988 54,27 C54,12.1116033 41.8883988,0 27,0 Z" id="Path" fill="#DFDFDF"></path>
                            <path d="M29.2498638,40.5000016 C29.2498638,41.7425554 28.2425548,42.7498643 27.0000011,42.7498643 C25.7574473,42.7498643 24.7501383,41.7425554 24.7501383,40.5000016 C24.7501383,39.2574478 25.7574473,38.2501389 27.0000011,38.2501389 C28.2425548,38.2501389 29.2498638,39.2574478 29.2498638,40.5000016 Z" id="Path" fill="#1F2027"></path>
                            <path d="M30.5616314,28.4444286 C29.76526,28.8110973 29.2498638,29.6144726 29.2498638,30.4899457 L29.2498638,31.5001386 C29.2498638,32.7418683 28.2442028,33.7500013 27.0000011,33.7500013 C25.7557994,33.7500013 24.7501383,32.7418683 24.7501383,31.5001386 L24.7501383,30.4899457 C24.7501383,27.8639385 26.2934428,25.4566966 28.6763775,24.3562785 C30.9690869,23.301179 32.6248639,20.4996652 32.6248639,19.1248634 C32.6248639,16.0246588 30.1026776,13.5000005 27.0000011,13.5000005 C23.8973245,13.5000005 21.3751382,16.0246588 21.3751382,19.1248634 C21.3751382,20.3670052 20.3690651,21.3751382 19.1248634,21.3751382 C17.8806617,21.3751382 16.8750007,20.3670052 16.8750007,19.1248634 C16.8750007,13.5428472 21.4175728,8.999863 27.0000011,8.999863 C32.5824293,8.999863 37.1250015,13.5428472 37.1250015,19.1248634 C37.1250015,22.1649179 34.4878707,26.6333324 30.5616314,28.4444286 L30.5616314,28.4444286 Z" id="Path" fill="#1F2027"></path>
                        </g>
                    </g>
                </g>
            </g>
        </g>
    </g>
</svg>