<?xml version="1.0" encoding="UTF-8"?>
<svg width="362px" height="60px" viewBox="0 0 362 60" version="1.1" xmlns="http://www.w3.org/2000/svg" xmlns:xlink="http://www.w3.org/1999/xlink">
    <title>footer-logo</title>
    <defs>
        <linearGradient x1="95.5784478%" y1="65.7200883%" x2="4.29683045%" y2="41.1921557%" id="linearGradient-1">
            <stop stop-color="#59A532" offset="0%"></stop>
            <stop stop-color="#1E642D" offset="100%"></stop>
        </linearGradient>
        <radialGradient cx="37.2900121%" cy="64.7142096%" fx="37.2900121%" fy="64.7142096%" r="55.0572157%" gradientTransform="translate(0.372900,0.647142),scale(0.841430,1.000000),rotate(121.138666),translate(-0.372900,-0.647142)" id="radialGradient-2">
            <stop stop-color="#59A532" offset="0%"></stop>
            <stop stop-color="#1E642D" offset="100%"></stop>
        </radialGradient>
        <linearGradient x1="43.4117495%" y1="-0.447620698%" x2="55.267219%" y2="106.840648%" id="linearGradient-3">
            <stop stop-color="#FCDA0A" offset="0%"></stop>
            <stop stop-color="#CD171B" offset="100%"></stop>
        </linearGradient>
        <radialGradient cx="76.5748876%" cy="46.4923954%" fx="76.5748876%" fy="46.4923954%" r="118.189772%" gradientTransform="translate(0.765749,0.464924),scale(1.000000,0.380327),rotate(-0.933932),translate(-0.765749,-0.464924)" id="radialGradient-4">
            <stop stop-color="#FCDA0A" offset="0%"></stop>
            <stop stop-color="#CD171B" offset="100%"></stop>
        </radialGradient>
        <linearGradient x1="20.9607928%" y1="79.7921538%" x2="82.1619006%" y2="21.3528368%" id="linearGradient-5">
            <stop stop-color="#5563A9" offset="0%"></stop>
            <stop stop-color="#181838" offset="100%"></stop>
        </linearGradient>
        <radialGradient cx="39.159905%" cy="22.6269309%" fx="39.159905%" fy="22.6269309%" r="107.704494%" gradientTransform="translate(0.391599,0.226269),scale(0.514348,1.000000),rotate(-120.285720),translate(-0.391599,-0.226269)" id="radialGradient-6">
            <stop stop-color="#5563A9" offset="0.2%"></stop>
            <stop stop-color="#181838" offset="100%"></stop>
        </radialGradient>
    </defs>
    <g id="Symbols" stroke="none" stroke-width="1" fill="none" fill-rule="evenodd">
        <g id="Footer" transform="translate(-120.000000, -51.000000)" fill-rule="nonzero">
            <g id="footer-logo" transform="translate(120.000000, 51.000000)">
                <path d="M89.048,23 L89.048,7.972 L95.106,7.972 L94.56,5.32 L80.26,5.32 L80.26,7.972 L85.642,7.972 L85.642,23 L89.048,23 Z M102.622,23.312 C103.35,23.312 103.995667,23.247 104.559,23.117 C105.122333,22.987 105.633667,22.805 106.093,22.571 C106.552333,22.337 106.972667,22.064 107.354,21.752 L106.366,19.308 C105.811333,19.6373333 105.248,19.906 104.676,20.114 C104.104,20.322 103.445333,20.426 102.7,20.426 C101.868,20.426 101.192,20.3133333 100.672,20.088 C100.152,19.8626667 99.7533333,19.5463333 99.476,19.139 C99.1986667,18.7316667 99.008,18.2506667 98.904,17.696 L107.406,17.696 L107.406,16.656 C107.406,15.46 107.202333,14.3593333 106.795,13.354 C106.387667,12.3486667 105.759333,11.547 104.91,10.949 C104.060667,10.351 102.977333,10.052 101.66,10.052 C100.36,10.052 99.2333333,10.325 98.28,10.871 C97.3266667,11.417 96.5943333,12.1883333 96.083,13.185 C95.5716667,14.1816667 95.316,15.356 95.316,16.708 C95.316,18.0426667 95.5846667,19.2083333 96.122,20.205 C96.6593333,21.2016667 97.4696667,21.9686667 98.553,22.506 C99.6363333,23.0433333 100.992667,23.312 102.622,23.312 Z M104.208,15.434 L98.93,15.434 C99.034,14.8793333 99.2073333,14.42 99.45,14.056 C99.6926667,13.692 99.996,13.4146667 100.36,13.224 C100.724,13.0333333 101.131333,12.938 101.582,12.938 C102.032667,12.938 102.435667,13.029 102.791,13.211 C103.146333,13.393 103.445333,13.666 103.688,14.03 C103.930667,14.394 104.104,14.862 104.208,15.434 Z M112.166,23 L112.166,14.29 C112.460667,14.082 112.785667,13.8566667 113.141,13.614 C113.496333,13.3713333 113.882,13.172 114.298,13.016 C114.714,12.86 115.13,12.782 115.546,12.782 C116.100667,12.782 116.542667,12.99 116.872,13.406 C117.201333,13.822 117.366,14.4373333 117.366,15.252 L117.366,23 L120.746,23 L120.746,15.096 C120.746,14.1253333 120.620333,13.2543333 120.369,12.483 C120.117667,11.7116667 119.684333,11.1006667 119.069,10.65 C118.453667,10.1993333 117.574,9.974 116.43,9.974 C115.979333,9.974 115.481,10.039 114.935,10.169 C114.389,10.299 113.825667,10.4983333 113.245,10.767 C112.664333,11.0356667 112.105333,11.352 111.568,11.716 L110.996,10.39 L108.786,10.39 L108.786,23 L112.166,23 Z M126.208,23 L126.208,14.29 C126.502667,14.082 126.827667,13.8566667 127.183,13.614 C127.538333,13.3713333 127.924,13.172 128.34,13.016 C128.756,12.86 129.172,12.782 129.588,12.782 C130.142667,12.782 130.584667,12.99 130.914,13.406 C131.243333,13.822 131.408,14.4373333 131.408,15.252 L131.408,23 L134.788,23 L134.788,15.096 C134.788,14.1253333 134.662333,13.2543333 134.411,12.483 C134.159667,11.7116667 133.726333,11.1006667 133.111,10.65 C132.495667,10.1993333 131.616,9.974 130.472,9.974 C130.021333,9.974 129.523,10.039 128.977,10.169 C128.431,10.299 127.867667,10.4983333 127.287,10.767 C126.706333,11.0356667 126.147333,11.352 125.61,11.716 L125.038,10.39 L122.828,10.39 L122.828,23 L126.208,23 Z M143.396,23.312 C144.124,23.312 144.769667,23.247 145.333,23.117 C145.896333,22.987 146.407667,22.805 146.867,22.571 C147.326333,22.337 147.746667,22.064 148.128,21.752 L147.14,19.308 C146.585333,19.6373333 146.022,19.906 145.45,20.114 C144.878,20.322 144.219333,20.426 143.474,20.426 C142.642,20.426 141.966,20.3133333 141.446,20.088 C140.926,19.8626667 140.527333,19.5463333 140.25,19.139 C139.972667,18.7316667 139.782,18.2506667 139.678,17.696 L148.18,17.696 L148.18,16.656 C148.18,15.46 147.976333,14.3593333 147.569,13.354 C147.161667,12.3486667 146.533333,11.547 145.684,10.949 C144.834667,10.351 143.751333,10.052 142.434,10.052 C141.134,10.052 140.007333,10.325 139.054,10.871 C138.100667,11.417 137.368333,12.1883333 136.857,13.185 C136.345667,14.1816667 136.09,15.356 136.09,16.708 C136.09,18.0426667 136.358667,19.2083333 136.896,20.205 C137.433333,21.2016667 138.243667,21.9686667 139.327,22.506 C140.410333,23.0433333 141.766667,23.312 143.396,23.312 Z M144.982,15.434 L139.704,15.434 C139.808,14.8793333 139.981333,14.42 140.224,14.056 C140.466667,13.692 140.77,13.4146667 141.134,13.224 C141.498,13.0333333 141.905333,12.938 142.356,12.938 C142.806667,12.938 143.209667,13.029 143.565,13.211 C143.920333,13.393 144.219333,13.666 144.462,14.03 C144.704667,14.394 144.878,14.862 144.982,15.434 Z M153.2,23.312 C154.916,23.312 156.220333,22.9653333 157.113,22.272 C158.005667,21.5786667 158.452,20.6166667 158.452,19.386 C158.452,18.6406667 158.239667,17.995 157.815,17.449 C157.390333,16.903 156.853,16.4306667 156.203,16.032 C155.553,15.6333333 154.872667,15.3213333 154.162,15.096 C153.728667,14.94 153.291,14.7623333 152.849,14.563 C152.407,14.3636667 152.194667,14.134 152.212,13.874 C152.212,13.5793333 152.355,13.3236667 152.641,13.107 C152.927,12.8903333 153.286667,12.782 153.72,12.782 C154.292,12.782 154.838,12.86 155.358,13.016 C155.878,13.172 156.441333,13.38 157.048,13.64 L158.062,11.378 C157.646,11.0833333 157.169333,10.8406667 156.632,10.65 C156.094667,10.4593333 155.570333,10.312 155.059,10.208 C154.547667,10.104 154.11,10.052 153.746,10.052 C152.220667,10.052 151.020333,10.3943333 150.145,11.079 C149.269667,11.7636667 148.832,12.704 148.832,13.9 C148.832,14.5933333 149.044333,15.1913333 149.469,15.694 C149.893667,16.1966667 150.431,16.617 151.081,16.955 C151.731,17.293 152.376667,17.5746667 153.018,17.8 C153.503333,17.9386667 153.906333,18.0946667 154.227,18.268 C154.547667,18.4413333 154.794667,18.6276667 154.968,18.827 C155.141333,19.0263333 155.228,19.2473333 155.228,19.49 C155.228,19.7326667 155.111,19.9363333 154.877,20.101 C154.643,20.2656667 154.37,20.387 154.058,20.465 C153.746,20.543 153.442667,20.582 153.148,20.582 C152.836,20.582 152.502333,20.5473333 152.147,20.478 C151.791667,20.4086667 151.423333,20.309 151.042,20.179 C150.660667,20.049 150.262,19.906 149.846,19.75 L148.832,22.012 C149.230667,22.3066667 149.703,22.5536667 150.249,22.753 C150.795,22.9523333 151.336667,23.0953333 151.874,23.182 C152.411333,23.2686667 152.853333,23.312 153.2,23.312 Z M163.472,23.312 C165.188,23.312 166.492333,22.9653333 167.385,22.272 C168.277667,21.5786667 168.724,20.6166667 168.724,19.386 C168.724,18.6406667 168.511667,17.995 168.087,17.449 C167.662333,16.903 167.125,16.4306667 166.475,16.032 C165.825,15.6333333 165.144667,15.3213333 164.434,15.096 C164.000667,14.94 163.563,14.7623333 163.121,14.563 C162.679,14.3636667 162.466667,14.134 162.484,13.874 C162.484,13.5793333 162.627,13.3236667 162.913,13.107 C163.199,12.8903333 163.558667,12.782 163.992,12.782 C164.564,12.782 165.11,12.86 165.63,13.016 C166.15,13.172 166.713333,13.38 167.32,13.64 L168.334,11.378 C167.918,11.0833333 167.441333,10.8406667 166.904,10.65 C166.366667,10.4593333 165.842333,10.312 165.331,10.208 C164.819667,10.104 164.382,10.052 164.018,10.052 C162.492667,10.052 161.292333,10.3943333 160.417,11.079 C159.541667,11.7636667 159.104,12.704 159.104,13.9 C159.104,14.5933333 159.316333,15.1913333 159.741,15.694 C160.165667,16.1966667 160.703,16.617 161.353,16.955 C162.003,17.293 162.648667,17.5746667 163.29,17.8 C163.775333,17.9386667 164.178333,18.0946667 164.499,18.268 C164.819667,18.4413333 165.066667,18.6276667 165.24,18.827 C165.413333,19.0263333 165.5,19.2473333 165.5,19.49 C165.5,19.7326667 165.383,19.9363333 165.149,20.101 C164.915,20.2656667 164.642,20.387 164.33,20.465 C164.018,20.543 163.714667,20.582 163.42,20.582 C163.108,20.582 162.774333,20.5473333 162.419,20.478 C162.063667,20.4086667 161.695333,20.309 161.314,20.179 C160.932667,20.049 160.534,19.906 160.118,19.75 L159.104,22.012 C159.502667,22.3066667 159.975,22.5536667 160.521,22.753 C161.067,22.9523333 161.608667,23.0953333 162.146,23.182 C162.683333,23.2686667 163.125333,23.312 163.472,23.312 Z M176.63,23.312 C177.358,23.312 178.003667,23.247 178.567,23.117 C179.130333,22.987 179.641667,22.805 180.101,22.571 C180.560333,22.337 180.980667,22.064 181.362,21.752 L180.374,19.308 C179.819333,19.6373333 179.256,19.906 178.684,20.114 C178.112,20.322 177.453333,20.426 176.708,20.426 C175.876,20.426 175.2,20.3133333 174.68,20.088 C174.16,19.8626667 173.761333,19.5463333 173.484,19.139 C173.206667,18.7316667 173.016,18.2506667 172.912,17.696 L181.414,17.696 L181.414,16.656 C181.414,15.46 181.210333,14.3593333 180.803,13.354 C180.395667,12.3486667 179.767333,11.547 178.918,10.949 C178.068667,10.351 176.985333,10.052 175.668,10.052 C174.368,10.052 173.241333,10.325 172.288,10.871 C171.334667,11.417 170.602333,12.1883333 170.091,13.185 C169.579667,14.1816667 169.324,15.356 169.324,16.708 C169.324,18.0426667 169.592667,19.2083333 170.13,20.205 C170.667333,21.2016667 171.477667,21.9686667 172.561,22.506 C173.644333,23.0433333 175.000667,23.312 176.63,23.312 Z M178.216,15.434 L172.938,15.434 C173.042,14.8793333 173.215333,14.42 173.458,14.056 C173.700667,13.692 174.004,13.4146667 174.368,13.224 C174.732,13.0333333 175.139333,12.938 175.59,12.938 C176.040667,12.938 176.443667,13.029 176.799,13.211 C177.154333,13.393 177.453333,13.666 177.696,14.03 C177.938667,14.394 178.112,14.862 178.216,15.434 Z M189.32,23.312 C190.048,23.312 190.693667,23.247 191.257,23.117 C191.820333,22.987 192.331667,22.805 192.791,22.571 C193.250333,22.337 193.670667,22.064 194.052,21.752 L193.064,19.308 C192.509333,19.6373333 191.946,19.906 191.374,20.114 C190.802,20.322 190.143333,20.426 189.398,20.426 C188.566,20.426 187.89,20.3133333 187.37,20.088 C186.85,19.8626667 186.451333,19.5463333 186.174,19.139 C185.896667,18.7316667 185.706,18.2506667 185.602,17.696 L194.104,17.696 L194.104,16.656 C194.104,15.46 193.900333,14.3593333 193.493,13.354 C193.085667,12.3486667 192.457333,11.547 191.608,10.949 C190.758667,10.351 189.675333,10.052 188.358,10.052 C187.058,10.052 185.931333,10.325 184.978,10.871 C184.024667,11.417 183.292333,12.1883333 182.781,13.185 C182.269667,14.1816667 182.014,15.356 182.014,16.708 C182.014,18.0426667 182.282667,19.2083333 182.82,20.205 C183.357333,21.2016667 184.167667,21.9686667 185.251,22.506 C186.334333,23.0433333 187.690667,23.312 189.32,23.312 Z M190.906,15.434 L185.628,15.434 C185.732,14.8793333 185.905333,14.42 186.148,14.056 C186.390667,13.692 186.694,13.4146667 187.058,13.224 C187.422,13.0333333 187.829333,12.938 188.28,12.938 C188.730667,12.938 189.133667,13.029 189.489,13.211 C189.844333,13.393 190.143333,13.666 190.386,14.03 C190.628667,14.394 190.802,14.862 190.906,15.434 Z M213.088,23 L212.594,20.374 L204.768,20.374 L204.768,5.32 L201.414,5.32 L201.414,23 L213.088,23 Z M218.29,23.312 C218.914,23.312 219.507667,23.156 220.071,22.844 C220.634333,22.532 221.15,22.1333333 221.618,21.648 L222.19,23 L224.4,23 L224.4,14.706 C224.4,13.8046667 224.153,13.003 223.659,12.301 C223.165,11.599 222.502,11.0486667 221.67,10.65 C220.838,10.2513333 219.919333,10.052 218.914,10.052 C218.567333,10.052 218.095,10.104 217.497,10.208 C216.899,10.312 216.314,10.4463333 215.742,10.611 C215.17,10.7756667 214.719333,10.9706667 214.39,11.196 L215.3,14.004 C215.768,13.796 216.348667,13.6053333 217.042,13.432 C217.735333,13.2586667 218.376667,13.172 218.966,13.172 C219.59,13.172 220.079667,13.3496667 220.435,13.705 C220.790333,14.0603333 220.976667,14.55 220.994,15.174 L220.994,15.2 L218.524,15.2 C217.102667,15.2173333 215.95,15.5683333 215.066,16.253 C214.182,16.9376667 213.74,17.93 213.74,19.23 C213.74,20.4433333 214.112667,21.427 214.858,22.181 C215.603333,22.935 216.747333,23.312 218.29,23.312 Z M218.238,20.634 C217.926,20.634 217.653,20.569 217.419,20.439 C217.185,20.309 216.998667,20.1356667 216.86,19.919 C216.721333,19.7023333 216.652,19.4726667 216.652,19.23 C216.652,18.7793333 216.808,18.372 217.12,18.008 C217.432,17.644 217.882667,17.462 218.472,17.462 L221.02,17.462 L221.02,19.386 C220.586667,19.802 220.131667,20.114 219.655,20.322 C219.178333,20.53 218.706,20.634 218.238,20.634 Z M231.994,23.52 C232.271333,23.52 232.574667,23.481 232.904,23.403 C233.233333,23.325 233.545333,23.2296667 233.84,23.117 C234.134667,23.0043333 234.368667,22.8786667 234.542,22.74 L233.554,20.296 C233.311333,20.4 233.077333,20.478 232.852,20.53 C232.626667,20.582 232.401333,20.608 232.176,20.608 C231.569333,20.608 231.11,20.4 230.798,19.984 C230.486,19.568 230.33,19.0306667 230.33,18.372 L230.33,12.99 L233.658,12.99 L232.618,10.442 L230.33,10.442 L230.33,6.828 L226.976,7.426 L226.976,10.442 L225.286,10.442 L225.26,12.99 L226.976,12.99 L226.976,18.97 C226.976,19.9406667 227.184,20.764 227.6,21.44 C228.016,22.116 228.592333,22.6316667 229.329,22.987 C230.065667,23.3423333 230.954,23.52 231.994,23.52 Z M237.352,8.622 C237.872,8.622 238.314,8.43566667 238.678,8.063 C239.042,7.69033333 239.224,7.23533333 239.224,6.698 C239.224,6.16066667 239.037667,5.71 238.665,5.346 C238.292333,4.982 237.846,4.8 237.326,4.8 C236.806,4.8 236.364,4.982 236,5.346 C235.636,5.71 235.454,6.16066667 235.454,6.698 C235.454,7.23533333 235.636,7.69033333 236,8.063 C236.364,8.43566667 236.814667,8.622 237.352,8.622 Z M239.068,23 L239.068,10.39 L235.662,10.39 L235.662,23 L239.068,23 Z M244.582,23 L244.582,14.29 C244.876667,14.082 245.201667,13.8566667 245.557,13.614 C245.912333,13.3713333 246.298,13.172 246.714,13.016 C247.13,12.86 247.546,12.782 247.962,12.782 C248.516667,12.782 248.958667,12.99 249.288,13.406 C249.617333,13.822 249.782,14.4373333 249.782,15.252 L249.782,23 L253.162,23 L253.162,15.096 C253.162,14.1253333 253.036333,13.2543333 252.785,12.483 C252.533667,11.7116667 252.100333,11.1006667 251.485,10.65 C250.869667,10.1993333 249.99,9.974 248.846,9.974 C248.395333,9.974 247.897,10.039 247.351,10.169 C246.805,10.299 246.241667,10.4983333 245.661,10.767 C245.080333,11.0356667 244.521333,11.352 243.984,11.716 L243.412,10.39 L241.202,10.39 L241.202,23 L244.582,23 Z M272.458,23.26 L275.838,22.792 L268.974,5.32 L266.114,5.32 L259.224,23 L262.604,23 L264.164,18.84 L270.872,18.84 L272.458,23.26 Z M269.832,16.084 L265.152,16.084 L267.466,9.948 L269.832,16.084 Z M280.208,23 L280.208,14.29 C280.502667,14.082 280.814667,13.8566667 281.144,13.614 C281.473333,13.3713333 281.82,13.172 282.184,13.016 C282.548,12.86 282.929333,12.782 283.328,12.782 C283.709333,12.782 284.012667,12.8773333 284.238,13.068 C284.463333,13.2586667 284.628,13.5316667 284.732,13.887 C284.836,14.2423333 284.888,14.6973333 284.888,15.252 L284.888,23 L288.268,23 L288.268,14.576 L288.262,14.277 L288.542444,14.0762222 C288.746593,13.9298519 288.958444,13.7757778 289.178,13.614 C289.507333,13.3713333 289.854,13.172 290.218,13.016 C290.582,12.86 290.963333,12.782 291.362,12.782 C291.743333,12.782 292.042333,12.8773333 292.259,13.068 C292.475667,13.2586667 292.640333,13.5316667 292.753,13.887 C292.865667,14.2423333 292.922,14.6973333 292.922,15.252 L292.922,23 L296.302,23 L296.302,14.576 C296.302,13.6053333 296.172,12.7776667 295.912,12.093 C295.652,11.4083333 295.227333,10.884 294.638,10.52 C294.048667,10.156 293.251333,9.974 292.246,9.974 C291.847333,9.974 291.392333,10.039 290.881,10.169 C290.369667,10.299 289.836667,10.4983333 289.282,10.767 C288.866,10.9685 288.454875,11.1968125 288.048625,11.4519375 L287.692,11.685 L287.680272,11.6603086 C287.421128,11.183214 287.06237,10.8031111 286.604,10.52 C286.014667,10.156 285.217333,9.974 284.212,9.974 C283.830667,9.974 283.38,10.039 282.86,10.169 C282.34,10.299 281.802667,10.4983333 281.248,10.767 C280.693333,11.0356667 280.147333,11.352 279.61,11.716 L279.038,10.39 L276.828,10.39 L276.828,23 L280.208,23 Z M304.884,23.312 C305.612,23.312 306.257667,23.247 306.821,23.117 C307.384333,22.987 307.895667,22.805 308.355,22.571 C308.814333,22.337 309.234667,22.064 309.616,21.752 L308.628,19.308 C308.073333,19.6373333 307.51,19.906 306.938,20.114 C306.366,20.322 305.707333,20.426 304.962,20.426 C304.13,20.426 303.454,20.3133333 302.934,20.088 C302.414,19.8626667 302.015333,19.5463333 301.738,19.139 C301.460667,18.7316667 301.27,18.2506667 301.166,17.696 L309.668,17.696 L309.668,16.656 C309.668,15.46 309.464333,14.3593333 309.057,13.354 C308.649667,12.3486667 308.021333,11.547 307.172,10.949 C306.322667,10.351 305.239333,10.052 303.922,10.052 C302.622,10.052 301.495333,10.325 300.542,10.871 C299.588667,11.417 298.856333,12.1883333 298.345,13.185 C297.833667,14.1816667 297.578,15.356 297.578,16.708 C297.578,18.0426667 297.846667,19.2083333 298.384,20.205 C298.921333,21.2016667 299.731667,21.9686667 300.815,22.506 C301.898333,23.0433333 303.254667,23.312 304.884,23.312 Z M306.47,15.434 L301.192,15.434 C301.296,14.8793333 301.469333,14.42 301.712,14.056 C301.954667,13.692 302.258,13.4146667 302.622,13.224 C302.986,13.0333333 303.393333,12.938 303.844,12.938 C304.294667,12.938 304.697667,13.029 305.053,13.211 C305.408333,13.393 305.707333,13.666 305.95,14.03 C306.192667,14.394 306.366,14.862 306.47,15.434 Z M314.428,23 L314.428,15.304 C314.913333,14.8706667 315.429,14.4893333 315.975,14.16 C316.521,13.8306667 317.045333,13.5706667 317.548,13.38 C318.050667,13.1893333 318.501333,13.094 318.9,13.094 L318.224,10.39 C317.773333,10.39 317.283667,10.5026667 316.755,10.728 C316.226333,10.9533333 315.710667,11.2263333 315.208,11.547 C314.705333,11.8676667 314.280667,12.184 313.934,12.496 L312.816,10.39 L311.048,10.39 L311.048,23 L314.428,23 Z M321.58,8.622 C322.1,8.622 322.542,8.43566667 322.906,8.063 C323.27,7.69033333 323.452,7.23533333 323.452,6.698 C323.452,6.16066667 323.265667,5.71 322.893,5.346 C322.520333,4.982 322.074,4.8 321.554,4.8 C321.034,4.8 320.592,4.982 320.228,5.346 C319.864,5.71 319.682,6.16066667 319.682,6.698 C319.682,7.23533333 319.864,7.69033333 320.228,8.063 C320.592,8.43566667 321.042667,8.622 321.58,8.622 Z M323.296,23 L323.296,10.39 L319.89,10.39 L319.89,23 L323.296,23 Z M331.358,23.312 C331.722,23.312 332.164,23.2686667 332.684,23.182 C333.204,23.0953333 333.745667,22.9523333 334.309,22.753 C334.872333,22.5536667 335.344667,22.3066667 335.726,22.012 L334.764,19.568 C334.157333,19.8453333 333.585333,20.0576667 333.048,20.205 C332.510667,20.3523333 331.964667,20.426 331.41,20.426 C330.786,20.426 330.222667,20.2656667 329.72,19.945 C329.217333,19.6243333 328.827333,19.1866667 328.55,18.632 C328.272667,18.0773333 328.134,17.436 328.134,16.708 C328.134,15.98 328.272667,15.3343333 328.55,14.771 C328.827333,14.2076667 329.213,13.7613333 329.707,13.432 C330.201,13.1026667 330.76,12.938 331.384,12.938 C331.973333,12.938 332.532333,13.0116667 333.061,13.159 C333.589667,13.3063333 334.157333,13.5186667 334.764,13.796 L335.726,11.378 C335.31,11.0833333 334.829,10.8406667 334.283,10.65 C333.737,10.4593333 333.204,10.312 332.684,10.208 C332.164,10.104 331.722,10.052 331.358,10.052 C330.006,10.052 328.827333,10.325 327.822,10.871 C326.816667,11.417 326.041,12.1883333 325.495,13.185 C324.949,14.1816667 324.667333,15.356 324.65,16.708 C324.65,18.0426667 324.927333,19.2083333 325.482,20.205 C326.036667,21.2016667 326.816667,21.9686667 327.822,22.506 C328.827333,23.0433333 330.006,23.312 331.358,23.312 Z M341.24,23.312 C341.864,23.312 342.457667,23.156 343.021,22.844 C343.584333,22.532 344.1,22.1333333 344.568,21.648 L345.14,23 L347.35,23 L347.35,14.706 C347.35,13.8046667 347.103,13.003 346.609,12.301 C346.115,11.599 345.452,11.0486667 344.62,10.65 C343.788,10.2513333 342.869333,10.052 341.864,10.052 C341.517333,10.052 341.045,10.104 340.447,10.208 C339.849,10.312 339.264,10.4463333 338.692,10.611 C338.12,10.7756667 337.669333,10.9706667 337.34,11.196 L338.25,14.004 C338.718,13.796 339.298667,13.6053333 339.992,13.432 C340.685333,13.2586667 341.326667,13.172 341.916,13.172 C342.54,13.172 343.029667,13.3496667 343.385,13.705 C343.740333,14.0603333 343.926667,14.55 343.944,15.174 L343.944,15.2 L341.474,15.2 C340.052667,15.2173333 338.9,15.5683333 338.016,16.253 C337.132,16.9376667 336.69,17.93 336.69,19.23 C336.69,20.4433333 337.062667,21.427 337.808,22.181 C338.553333,22.935 339.697333,23.312 341.24,23.312 Z M341.188,20.634 C340.876,20.634 340.603,20.569 340.369,20.439 C340.135,20.309 339.948667,20.1356667 339.81,19.919 C339.671333,19.7023333 339.602,19.4726667 339.602,19.23 C339.602,18.7793333 339.758,18.372 340.07,18.008 C340.382,17.644 340.832667,17.462 341.422,17.462 L343.97,17.462 L343.97,19.386 C343.536667,19.802 343.081667,20.114 342.605,20.322 C342.128333,20.53 341.656,20.634 341.188,20.634 Z M352.786,23 L352.786,14.29 C353.080667,14.082 353.405667,13.8566667 353.761,13.614 C354.116333,13.3713333 354.502,13.172 354.918,13.016 C355.334,12.86 355.75,12.782 356.166,12.782 C356.720667,12.782 357.162667,12.99 357.492,13.406 C357.821333,13.822 357.986,14.4373333 357.986,15.252 L357.986,23 L361.366,23 L361.366,15.096 C361.366,14.1253333 361.240333,13.2543333 360.989,12.483 C360.737667,11.7116667 360.304333,11.1006667 359.689,10.65 C359.073667,10.1993333 358.194,9.974 357.05,9.974 C356.599333,9.974 356.101,10.039 355.555,10.169 C355.009,10.299 354.445667,10.4983333 353.865,10.767 C353.284333,11.0356667 352.725333,11.352 352.188,11.716 L351.616,10.39 L349.406,10.39 L349.406,23 L352.786,23 Z" id="TennesseeLatinAmerican" fill="#FFFFFF"></path>
                <path d="M89.308,55.364 C89.7933333,55.364 90.335,55.3163333 90.933,55.221 C91.531,55.1256667 92.1246667,54.9913333 92.714,54.818 C93.3033333,54.6446667 93.8233333,54.4453333 94.274,54.22 L93,51.724 C92.4626667,51.9493333 91.8733333,52.14 91.232,52.296 C90.5906667,52.452 89.8973333,52.53 89.152,52.53 C88.3893333,52.53 87.7133333,52.3653333 87.124,52.036 C86.5346667,51.7066667 86.045,51.2473333 85.655,50.658 C85.265,50.0686667 84.9616667,49.3926667 84.745,48.63 C84.5283333,47.8673333 84.42,47.0613333 84.42,46.212 C84.42,44.86 84.6366667,43.7116667 85.07,42.767 C85.5033333,41.8223333 86.0926667,41.09 86.838,40.57 C87.5833333,40.05 88.4153333,39.79 89.334,39.79 C89.854,39.79 90.296,39.8246667 90.66,39.894 C91.024,39.9633333 91.3966667,40.0456667 91.778,40.141 C92.1593333,40.2363333 92.5926667,40.362 93.078,40.518 L94.118,38.1 C93.598,37.8226667 93.0433333,37.6016667 92.454,37.437 C91.8646667,37.2723333 91.3013333,37.151 90.764,37.073 C90.2266667,36.995 89.7846667,36.956 89.438,36.956 C88.138,36.956 86.968,37.1813333 85.928,37.632 C84.888,38.0826667 83.991,38.724 83.237,39.556 C82.483,40.388 81.9066667,41.3716667 81.508,42.507 C81.1093333,43.6423333 80.91,44.886 80.91,46.238 C80.91,47.5033333 81.0876667,48.6906667 81.443,49.8 C81.7983333,50.9093333 82.3313333,51.88 83.042,52.712 C83.7526667,53.544 84.6323333,54.194 85.681,54.662 C86.7296667,55.13 87.9386667,55.364 89.308,55.364 Z M99.008,55 L99.008,46.29 C99.3026667,46.082 99.6233333,45.8566667 99.97,45.614 C100.316667,45.3713333 100.702333,45.172 101.127,45.016 C101.551667,44.86 101.972,44.782 102.388,44.782 C102.942667,44.782 103.384667,44.99 103.714,45.406 C104.043333,45.822 104.208,46.4373333 104.208,47.252 L104.208,55 L107.588,55 L107.588,47.096 C107.588,46.1253333 107.462333,45.2543333 107.211,44.483 C106.959667,43.7116667 106.526333,43.1006667 105.911,42.65 C105.295667,42.1993333 104.416,41.974 103.272,41.974 C102.821333,41.974 102.323,42.039 101.777,42.169 C101.231,42.299 100.667667,42.4983333 100.087,42.767 C99.7966667,42.9013333 99.51175,43.0475833 99.23225,43.20575 L99.008,43.339 L99.008,36.644 L95.654,36.93 L95.654,55 L99.008,55 Z M113.882,55.312 C114.506,55.312 115.099667,55.156 115.663,54.844 C116.226333,54.532 116.742,54.1333333 117.21,53.648 L117.782,55 L119.992,55 L119.992,46.706 C119.992,45.8046667 119.745,45.003 119.251,44.301 C118.757,43.599 118.094,43.0486667 117.262,42.65 C116.43,42.2513333 115.511333,42.052 114.506,42.052 C114.159333,42.052 113.687,42.104 113.089,42.208 C112.491,42.312 111.906,42.4463333 111.334,42.611 C110.762,42.7756667 110.311333,42.9706667 109.982,43.196 L110.892,46.004 C111.36,45.796 111.940667,45.6053333 112.634,45.432 C113.327333,45.2586667 113.968667,45.172 114.558,45.172 C115.182,45.172 115.671667,45.3496667 116.027,45.705 C116.382333,46.0603333 116.568667,46.55 116.586,47.174 L116.586,47.2 L114.116,47.2 C112.694667,47.2173333 111.542,47.5683333 110.658,48.253 C109.774,48.9376667 109.332,49.93 109.332,51.23 C109.332,52.4433333 109.704667,53.427 110.45,54.181 C111.195333,54.935 112.339333,55.312 113.882,55.312 Z M113.83,52.634 C113.518,52.634 113.245,52.569 113.011,52.439 C112.777,52.309 112.590667,52.1356667 112.452,51.919 C112.313333,51.7023333 112.244,51.4726667 112.244,51.23 C112.244,50.7793333 112.4,50.372 112.712,50.008 C113.024,49.644 113.474667,49.462 114.064,49.462 L116.612,49.462 L116.612,51.386 C116.178667,51.802 115.723667,52.114 115.247,52.322 C114.770333,52.53 114.298,52.634 113.83,52.634 Z M125.428,55 L125.428,46.29 C125.722667,46.082 126.034667,45.8566667 126.364,45.614 C126.693333,45.3713333 127.04,45.172 127.404,45.016 C127.768,44.86 128.149333,44.782 128.548,44.782 C128.929333,44.782 129.232667,44.8773333 129.458,45.068 C129.683333,45.2586667 129.848,45.5316667 129.952,45.887 C130.056,46.2423333 130.108,46.6973333 130.108,47.252 L130.108,55 L133.488,55 L133.488,46.576 L133.482,46.277 L133.762444,46.0762222 C133.966593,45.9298519 134.178444,45.7757778 134.398,45.614 C134.727333,45.3713333 135.074,45.172 135.438,45.016 C135.802,44.86 136.183333,44.782 136.582,44.782 C136.963333,44.782 137.262333,44.8773333 137.479,45.068 C137.695667,45.2586667 137.860333,45.5316667 137.973,45.887 C138.085667,46.2423333 138.142,46.6973333 138.142,47.252 L138.142,55 L141.522,55 L141.522,46.576 C141.522,45.6053333 141.392,44.7776667 141.132,44.093 C140.872,43.4083333 140.447333,42.884 139.858,42.52 C139.268667,42.156 138.471333,41.974 137.466,41.974 C137.067333,41.974 136.612333,42.039 136.101,42.169 C135.589667,42.299 135.056667,42.4983333 134.502,42.767 C134.086,42.9685 133.674875,43.1968125 133.268625,43.4519375 L132.912,43.685 L132.900272,43.6603086 C132.641128,43.183214 132.28237,42.8031111 131.824,42.52 C131.234667,42.156 130.437333,41.974 129.432,41.974 C129.050667,41.974 128.6,42.039 128.08,42.169 C127.56,42.299 127.022667,42.4983333 126.468,42.767 C125.913333,43.0356667 125.367333,43.352 124.83,43.716 L124.258,42.39 L122.048,42.39 L122.048,55 L125.428,55 Z M149.428,55.312 C150.814667,55.312 151.984667,55.0303333 152.938,54.467 C153.891333,53.9036667 154.623667,53.1236667 155.135,52.127 C155.646333,51.1303333 155.902,49.9646667 155.902,48.63 C155.902,47.2953333 155.646333,46.134 155.135,45.146 C154.623667,44.158 153.895667,43.3953333 152.951,42.858 C152.006333,42.3206667 150.875333,42.052 149.558,42.052 C148.968667,42.052 148.405333,42.1473333 147.868,42.338 C147.653067,42.4142667 147.444373,42.5030133 147.24192,42.60424 L147.192,42.631 L147.192,36.644 L143.838,36.93 L143.838,55 L145.554,55 L146.231,54.109 L146.50092,54.30008 C146.90444,54.5690933 147.338467,54.7937333 147.803,54.974 C148.383667,55.1993333 148.925333,55.312 149.428,55.312 Z M149.428,52.426 C148.838667,52.426 148.275333,52.3003333 147.738,52.049 C147.618593,51.9931481 147.497901,51.9268107 147.375926,51.8499877 L147.192,51.727 L147.192,45.687 L147.281673,45.6256735 C147.43732,45.5237959 147.589429,45.4332381 147.738,45.354 C148.258,45.0766667 148.821333,44.938 149.428,44.938 C150.086667,44.938 150.632667,45.0983333 151.066,45.419 C151.499333,45.7396667 151.828667,46.173 152.054,46.719 C152.279333,47.265 152.392,47.902 152.392,48.63 C152.392,49.3406667 152.283667,49.9863333 152.067,50.567 C151.850333,51.1476667 151.516667,51.6026667 151.066,51.932 C150.615333,52.2613333 150.069333,52.426 149.428,52.426 Z M163.808,55.312 C164.536,55.312 165.181667,55.247 165.745,55.117 C166.308333,54.987 166.819667,54.805 167.279,54.571 C167.738333,54.337 168.158667,54.064 168.54,53.752 L167.552,51.308 C166.997333,51.6373333 166.434,51.906 165.862,52.114 C165.29,52.322 164.631333,52.426 163.886,52.426 C163.054,52.426 162.378,52.3133333 161.858,52.088 C161.338,51.8626667 160.939333,51.5463333 160.662,51.139 C160.384667,50.7316667 160.194,50.2506667 160.09,49.696 L168.592,49.696 L168.592,48.656 C168.592,47.46 168.388333,46.3593333 167.981,45.354 C167.573667,44.3486667 166.945333,43.547 166.096,42.949 C165.246667,42.351 164.163333,42.052 162.846,42.052 C161.546,42.052 160.419333,42.325 159.466,42.871 C158.512667,43.417 157.780333,44.1883333 157.269,45.185 C156.757667,46.1816667 156.502,47.356 156.502,48.708 C156.502,50.0426667 156.770667,51.2083333 157.308,52.205 C157.845333,53.2016667 158.655667,53.9686667 159.739,54.506 C160.822333,55.0433333 162.178667,55.312 163.808,55.312 Z M165.394,47.434 L160.116,47.434 C160.22,46.8793333 160.393333,46.42 160.636,46.056 C160.878667,45.692 161.182,45.4146667 161.546,45.224 C161.91,45.0333333 162.317333,44.938 162.768,44.938 C163.218667,44.938 163.621667,45.029 163.977,45.211 C164.332333,45.393 164.631333,45.666 164.874,46.03 C165.116667,46.394 165.29,46.862 165.394,47.434 Z M173.352,55 L173.352,47.304 C173.837333,46.8706667 174.353,46.4893333 174.899,46.16 C175.445,45.8306667 175.969333,45.5706667 176.472,45.38 C176.974667,45.1893333 177.425333,45.094 177.824,45.094 L177.148,42.39 C176.697333,42.39 176.207667,42.5026667 175.679,42.728 C175.150333,42.9533333 174.634667,43.2263333 174.132,43.547 C173.629333,43.8676667 173.204667,44.184 172.858,44.496 L171.74,42.39 L169.972,42.39 L169.972,55 L173.352,55 Z M189.918,55.312 C191.287333,55.312 192.474667,55.039 193.48,54.493 C194.485333,53.947 195.265333,53.1713333 195.82,52.166 C196.374667,51.1606667 196.652,49.9906667 196.652,48.656 C196.652,47.304 196.374667,46.134 195.82,45.146 C195.265333,44.158 194.489667,43.3953333 193.493,42.858 C192.496333,42.3206667 191.304667,42.052 189.918,42.052 C188.566,42.052 187.383,42.325 186.369,42.871 C185.355,43.417 184.575,44.1883333 184.029,45.185 C183.483,46.1816667 183.201333,47.356 183.184,48.708 C183.184,50.0426667 183.461333,51.2083333 184.016,52.205 C184.570667,53.2016667 185.350667,53.9686667 186.356,54.506 C187.361333,55.0433333 188.548667,55.312 189.918,55.312 Z M189.944,52.426 C189.32,52.426 188.756667,52.2656667 188.254,51.945 C187.751333,51.6243333 187.361333,51.1866667 187.084,50.632 C186.806667,50.0773333 186.668,49.436 186.668,48.708 C186.668,47.98 186.806667,47.3343333 187.084,46.771 C187.361333,46.2076667 187.747,45.7613333 188.241,45.432 C188.735,45.1026667 189.294,44.938 189.918,44.938 C190.559333,44.938 191.122667,45.0983333 191.608,45.419 C192.093333,45.7396667 192.474667,46.1773333 192.752,46.732 C193.029333,47.2866667 193.168,47.928 193.168,48.656 C193.168,49.3666667 193.029333,50.008 192.752,50.58 C192.474667,51.152 192.097667,51.6026667 191.621,51.932 C191.144333,52.2613333 190.585333,52.426 189.944,52.426 Z M202.244,55 L202.244,44.99 L205.676,44.99 L204.61,42.442 L202.244,42.442 L202.244,41.948 C202.244,41.272 202.378333,40.7216667 202.647,40.297 C202.915667,39.8723333 203.336,39.66 203.908,39.66 C204.116,39.66 204.337,39.6903333 204.571,39.751 C204.805,39.8116667 205.052,39.9026667 205.312,40.024 L206.274,37.554 C206.100667,37.398 205.871,37.2593333 205.585,37.138 C205.299,37.0166667 204.991333,36.9213333 204.662,36.852 C204.332667,36.7826667 204.029333,36.748 203.752,36.748 C202.712,36.748 201.828,36.9386667 201.1,37.32 C200.372,37.7013333 199.808667,38.243 199.41,38.945 C199.011333,39.647 198.812,40.4833333 198.812,41.454 L198.812,42.442 L196.888,42.442 L196.862,44.99 L198.812,44.99 L198.812,55 L202.244,55 Z M220.032,55.364 C220.517333,55.364 221.059,55.3163333 221.657,55.221 C222.255,55.1256667 222.848667,54.9913333 223.438,54.818 C224.027333,54.6446667 224.547333,54.4453333 224.998,54.22 L223.724,51.724 C223.186667,51.9493333 222.597333,52.14 221.956,52.296 C221.314667,52.452 220.621333,52.53 219.876,52.53 C219.113333,52.53 218.437333,52.3653333 217.848,52.036 C217.258667,51.7066667 216.769,51.2473333 216.379,50.658 C215.989,50.0686667 215.685667,49.3926667 215.469,48.63 C215.252333,47.8673333 215.144,47.0613333 215.144,46.212 C215.144,44.86 215.360667,43.7116667 215.794,42.767 C216.227333,41.8223333 216.816667,41.09 217.562,40.57 C218.307333,40.05 219.139333,39.79 220.058,39.79 C220.578,39.79 221.02,39.8246667 221.384,39.894 C221.748,39.9633333 222.120667,40.0456667 222.502,40.141 C222.883333,40.2363333 223.316667,40.362 223.802,40.518 L224.842,38.1 C224.322,37.8226667 223.767333,37.6016667 223.178,37.437 C222.588667,37.2723333 222.025333,37.151 221.488,37.073 C220.950667,36.995 220.508667,36.956 220.162,36.956 C218.862,36.956 217.692,37.1813333 216.652,37.632 C215.612,38.0826667 214.715,38.724 213.961,39.556 C213.207,40.388 212.630667,41.3716667 212.232,42.507 C211.833333,43.6423333 211.634,44.886 211.634,46.238 C211.634,47.5033333 211.811667,48.6906667 212.167,49.8 C212.522333,50.9093333 213.055333,51.88 213.766,52.712 C214.476667,53.544 215.356333,54.194 216.405,54.662 C217.453667,55.13 218.662667,55.364 220.032,55.364 Z M232.072,55.312 C233.441333,55.312 234.628667,55.039 235.634,54.493 C236.639333,53.947 237.419333,53.1713333 237.974,52.166 C238.528667,51.1606667 238.806,49.9906667 238.806,48.656 C238.806,47.304 238.528667,46.134 237.974,45.146 C237.419333,44.158 236.643667,43.3953333 235.647,42.858 C234.650333,42.3206667 233.458667,42.052 232.072,42.052 C230.72,42.052 229.537,42.325 228.523,42.871 C227.509,43.417 226.729,44.1883333 226.183,45.185 C225.637,46.1816667 225.355333,47.356 225.338,48.708 C225.338,50.0426667 225.615333,51.2083333 226.17,52.205 C226.724667,53.2016667 227.504667,53.9686667 228.51,54.506 C229.515333,55.0433333 230.702667,55.312 232.072,55.312 Z M232.098,52.426 C231.474,52.426 230.910667,52.2656667 230.408,51.945 C229.905333,51.6243333 229.515333,51.1866667 229.238,50.632 C228.960667,50.0773333 228.822,49.436 228.822,48.708 C228.822,47.98 228.960667,47.3343333 229.238,46.771 C229.515333,46.2076667 229.901,45.7613333 230.395,45.432 C230.889,45.1026667 231.448,44.938 232.072,44.938 C232.713333,44.938 233.276667,45.0983333 233.762,45.419 C234.247333,45.7396667 234.628667,46.1773333 234.906,46.732 C235.183333,47.2866667 235.322,47.928 235.322,48.656 C235.322,49.3666667 235.183333,50.008 234.906,50.58 C234.628667,51.152 234.251667,51.6026667 233.775,51.932 C233.298333,52.2613333 232.739333,52.426 232.098,52.426 Z M243.54,55 L243.54,46.29 C243.834667,46.082 244.146667,45.8566667 244.476,45.614 C244.805333,45.3713333 245.152,45.172 245.516,45.016 C245.88,44.86 246.261333,44.782 246.66,44.782 C247.041333,44.782 247.344667,44.8773333 247.57,45.068 C247.795333,45.2586667 247.96,45.5316667 248.064,45.887 C248.168,46.2423333 248.22,46.6973333 248.22,47.252 L248.22,55 L251.6,55 L251.6,46.576 L251.594,46.277 L251.874444,46.0762222 C252.078593,45.9298519 252.290444,45.7757778 252.51,45.614 C252.839333,45.3713333 253.186,45.172 253.55,45.016 C253.914,44.86 254.295333,44.782 254.694,44.782 C255.075333,44.782 255.374333,44.8773333 255.591,45.068 C255.807667,45.2586667 255.972333,45.5316667 256.085,45.887 C256.197667,46.2423333 256.254,46.6973333 256.254,47.252 L256.254,55 L259.634,55 L259.634,46.576 C259.634,45.6053333 259.504,44.7776667 259.244,44.093 C258.984,43.4083333 258.559333,42.884 257.97,42.52 C257.380667,42.156 256.583333,41.974 255.578,41.974 C255.179333,41.974 254.724333,42.039 254.213,42.169 C253.701667,42.299 253.168667,42.4983333 252.614,42.767 C252.198,42.9685 251.786875,43.1968125 251.380625,43.4519375 L251.024,43.685 L251.012272,43.6603086 C250.753128,43.183214 250.39437,42.8031111 249.936,42.52 C249.346667,42.156 248.549333,41.974 247.544,41.974 C247.162667,41.974 246.712,42.039 246.192,42.169 C245.672,42.299 245.134667,42.4983333 244.58,42.767 C244.025333,43.0356667 243.479333,43.352 242.942,43.716 L242.37,42.39 L240.16,42.39 L240.16,55 L243.54,55 Z M265.07,55 L265.07,46.29 C265.364667,46.082 265.676667,45.8566667 266.006,45.614 C266.335333,45.3713333 266.682,45.172 267.046,45.016 C267.41,44.86 267.791333,44.782 268.19,44.782 C268.571333,44.782 268.874667,44.8773333 269.1,45.068 C269.325333,45.2586667 269.49,45.5316667 269.594,45.887 C269.698,46.2423333 269.75,46.6973333 269.75,47.252 L269.75,55 L273.13,55 L273.13,46.576 L273.124,46.277 L273.404444,46.0762222 C273.608593,45.9298519 273.820444,45.7757778 274.04,45.614 C274.369333,45.3713333 274.716,45.172 275.08,45.016 C275.444,44.86 275.825333,44.782 276.224,44.782 C276.605333,44.782 276.904333,44.8773333 277.121,45.068 C277.337667,45.2586667 277.502333,45.5316667 277.615,45.887 C277.727667,46.2423333 277.784,46.6973333 277.784,47.252 L277.784,55 L281.164,55 L281.164,46.576 C281.164,45.6053333 281.034,44.7776667 280.774,44.093 C280.514,43.4083333 280.089333,42.884 279.5,42.52 C278.910667,42.156 278.113333,41.974 277.108,41.974 C276.709333,41.974 276.254333,42.039 275.743,42.169 C275.231667,42.299 274.698667,42.4983333 274.144,42.767 C273.728,42.9685 273.316875,43.1968125 272.910625,43.4519375 L272.554,43.685 L272.542272,43.6603086 C272.283128,43.183214 271.92437,42.8031111 271.466,42.52 C270.876667,42.156 270.079333,41.974 269.074,41.974 C268.692667,41.974 268.242,42.039 267.722,42.169 C267.202,42.299 266.664667,42.4983333 266.11,42.767 C265.555333,43.0356667 265.009333,43.352 264.472,43.716 L263.9,42.39 L261.69,42.39 L261.69,55 L265.07,55 Z M289.746,55.312 C290.474,55.312 291.119667,55.247 291.683,55.117 C292.246333,54.987 292.757667,54.805 293.217,54.571 C293.676333,54.337 294.096667,54.064 294.478,53.752 L293.49,51.308 C292.935333,51.6373333 292.372,51.906 291.8,52.114 C291.228,52.322 290.569333,52.426 289.824,52.426 C288.992,52.426 288.316,52.3133333 287.796,52.088 C287.276,51.8626667 286.877333,51.5463333 286.6,51.139 C286.322667,50.7316667 286.132,50.2506667 286.028,49.696 L294.53,49.696 L294.53,48.656 C294.53,47.46 294.326333,46.3593333 293.919,45.354 C293.511667,44.3486667 292.883333,43.547 292.034,42.949 C291.184667,42.351 290.101333,42.052 288.784,42.052 C287.484,42.052 286.357333,42.325 285.404,42.871 C284.450667,43.417 283.718333,44.1883333 283.207,45.185 C282.695667,46.1816667 282.44,47.356 282.44,48.708 C282.44,50.0426667 282.708667,51.2083333 283.246,52.205 C283.783333,53.2016667 284.593667,53.9686667 285.677,54.506 C286.760333,55.0433333 288.116667,55.312 289.746,55.312 Z M291.332,47.434 L286.054,47.434 C286.158,46.8793333 286.331333,46.42 286.574,46.056 C286.816667,45.692 287.12,45.4146667 287.484,45.224 C287.848,45.0333333 288.255333,44.938 288.706,44.938 C289.156667,44.938 289.559667,45.029 289.915,45.211 C290.270333,45.393 290.569333,45.666 290.812,46.03 C291.054667,46.394 291.228,46.862 291.332,47.434 Z M299.29,55 L299.29,47.304 C299.775333,46.8706667 300.291,46.4893333 300.837,46.16 C301.383,45.8306667 301.907333,45.5706667 302.41,45.38 C302.912667,45.1893333 303.363333,45.094 303.762,45.094 L303.086,42.39 C302.635333,42.39 302.145667,42.5026667 301.617,42.728 C301.088333,42.9533333 300.572667,43.2263333 300.07,43.547 C299.567333,43.8676667 299.142667,44.184 298.796,44.496 L297.678,42.39 L295.91,42.39 L295.91,55 L299.29,55 Z M310.68,55.312 C311.044,55.312 311.486,55.2686667 312.006,55.182 C312.526,55.0953333 313.067667,54.9523333 313.631,54.753 C314.194333,54.5536667 314.666667,54.3066667 315.048,54.012 L314.086,51.568 C313.479333,51.8453333 312.907333,52.0576667 312.37,52.205 C311.832667,52.3523333 311.286667,52.426 310.732,52.426 C310.108,52.426 309.544667,52.2656667 309.042,51.945 C308.539333,51.6243333 308.149333,51.1866667 307.872,50.632 C307.594667,50.0773333 307.456,49.436 307.456,48.708 C307.456,47.98 307.594667,47.3343333 307.872,46.771 C308.149333,46.2076667 308.535,45.7613333 309.029,45.432 C309.523,45.1026667 310.082,44.938 310.706,44.938 C311.295333,44.938 311.854333,45.0116667 312.383,45.159 C312.911667,45.3063333 313.479333,45.5186667 314.086,45.796 L315.048,43.378 C314.632,43.0833333 314.151,42.8406667 313.605,42.65 C313.059,42.4593333 312.526,42.312 312.006,42.208 C311.486,42.104 311.044,42.052 310.68,42.052 C309.328,42.052 308.149333,42.325 307.144,42.871 C306.138667,43.417 305.363,44.1883333 304.817,45.185 C304.271,46.1816667 303.989333,47.356 303.972,48.708 C303.972,50.0426667 304.249333,51.2083333 304.804,52.205 C305.358667,53.2016667 306.138667,53.9686667 307.144,54.506 C308.149333,55.0433333 309.328,55.312 310.68,55.312 Z M322.876,55.312 C323.604,55.312 324.249667,55.247 324.813,55.117 C325.376333,54.987 325.887667,54.805 326.347,54.571 C326.806333,54.337 327.226667,54.064 327.608,53.752 L326.62,51.308 C326.065333,51.6373333 325.502,51.906 324.93,52.114 C324.358,52.322 323.699333,52.426 322.954,52.426 C322.122,52.426 321.446,52.3133333 320.926,52.088 C320.406,51.8626667 320.007333,51.5463333 319.73,51.139 C319.452667,50.7316667 319.262,50.2506667 319.158,49.696 L327.66,49.696 L327.66,48.656 C327.66,47.46 327.456333,46.3593333 327.049,45.354 C326.641667,44.3486667 326.013333,43.547 325.164,42.949 C324.314667,42.351 323.231333,42.052 321.914,42.052 C320.614,42.052 319.487333,42.325 318.534,42.871 C317.580667,43.417 316.848333,44.1883333 316.337,45.185 C315.825667,46.1816667 315.57,47.356 315.57,48.708 C315.57,50.0426667 315.838667,51.2083333 316.376,52.205 C316.913333,53.2016667 317.723667,53.9686667 318.807,54.506 C319.890333,55.0433333 321.246667,55.312 322.876,55.312 Z M324.462,47.434 L319.184,47.434 C319.288,46.8793333 319.461333,46.42 319.704,46.056 C319.946667,45.692 320.25,45.4146667 320.614,45.224 C320.978,45.0333333 321.385333,44.938 321.836,44.938 C322.286667,44.938 322.689667,45.029 323.045,45.211 C323.400333,45.393 323.699333,45.666 323.942,46.03 C324.184667,46.394 324.358,46.862 324.462,47.434 Z" id="ChamberofCommerce" fill="#FFFFFF"></path>
                <g id="logo">
                    <g id="Group" transform="translate(25.486724, 35.964600)">
                        <path d="M2.78938036,18.3280697 C9.58074279,8.86598177 22.1403173,12.1699108 22.1403173,12.1699108 C22.1403173,12.1699108 25.4717153,12.6111143 30.672423,15.2979814 C33.6971307,16.8606008 35.689343,19.2011316 36.1183695,21.9284943 C38.7367057,16.263645 38.3198561,10.1094507 38.0029712,8.22938004 C37.6690951,6.24934476 34.76729,4.20672541 34.494582,4.04219445 C34.2218741,3.87766349 28.884954,0.115539816 20.7011669,0.175858397 C12.517663,0.235893791 6.06810583,3.03943345 2.12757509,9.21968087 C-1.81295564,15.3999283 1.36750434,21.7050607 1.36750434,21.7050607 C1.36750434,21.7050607 1.62492026,19.9818749 2.78938036,18.3280697 Z" id="Path" fill="url(#linearGradient-1)"></path>
                        <path d="M30.672423,15.2979814 C25.4717153,12.6111143 22.1403173,12.1699108 22.1403173,12.1699108 C24.6722817,20.0271846 33.6736263,26.6228657 35.6763165,22.828742 C35.8334846,22.5305473 35.9790421,22.2300872 36.1183695,21.9284943 C35.689343,19.2011316 33.6968475,16.8606008 30.672423,15.2979814 Z" id="Path" fill="url(#radialGradient-2)"></path>
                    </g>
                    <g id="Group" transform="translate(24.637167, 0.000000)">
                        <path d="M29.0667593,30.4325646 C17.4428308,29.7013788 13.5739461,17.304353 13.5739461,17.304353 C13.5739461,17.304353 12.1789727,14.2470788 11.6944418,8.41345083 C11.4126719,5.02060147 12.3384063,2.08962819 14.4215213,0.278088479 C8.23107916,1.066761 3.23738034,4.68729176 1.81267246,5.95426513 C0.312070778,7.28863673 0.12214851,10.8321409 0.127150435,11.1504418 C0.13224778,11.4690259 -0.2217345,17.9890963 4.17415904,24.8917507 C8.57005259,31.7944052 14.3702646,35.7714669 21.6996801,35.8292368 C29.0290956,35.8870067 32.6833255,29.8443876 32.6833255,29.8443876 C32.6833255,29.8443876 31.0867238,30.5413079 29.0667593,30.4325646 Z" id="Path" fill="url(#linearGradient-3)"></path>
                        <path d="M11.694725,8.41316764 C12.1792559,14.2467956 13.5742293,17.3040698 13.5742293,17.3040698 C18.8879281,10.9864772 19.6981227,-0.143008841 15.4194681,0.174442467 C15.0833265,0.199646006 14.7514327,0.235893791 14.4218045,0.277805293 C12.3384063,2.08934501 11.4129551,5.02060147 11.694725,8.41316764 Z" id="Path" fill="url(#radialGradient-4)"></path>
                    </g>
                    <g id="Group" transform="translate(0.000000, 17.274335)">
                        <path d="M20.1560342,3.00771663 C25.2168481,13.4977691 16.307822,22.9468305 16.307822,22.9468305 C16.307822,22.9468305 14.3269372,25.6614498 9.47964545,28.9432903 C6.66053058,30.8519628 3.65224757,31.4820512 1.05203534,30.5543345 C4.77451299,35.5636085 10.3781941,38.1411659 12.1806718,38.7619092 C14.0794328,39.4157853 17.2610255,37.8443871 17.535999,37.6838208 C17.8109724,37.5232544 23.6675384,34.6356086 27.5290603,27.4203169 C31.3905822,20.2050253 32.0138742,13.1998576 28.4712195,6.78343322 C24.9285649,0.367008828 17.8704414,0.143575213 17.8704414,0.143575213 C17.8704414,0.143575213 19.2608838,1.19419462 20.1560342,3.00771663 Z" id="Path" fill="url(#linearGradient-5)"></path>
                        <path d="M9.47964545,28.9435735 C14.3269372,25.661733 16.307822,22.9471137 16.307822,22.9471137 C8.19653048,21.4122465 -1.90130962,26.1621223 0.472920326,29.7356442 C0.659539784,30.0162814 0.853805259,30.2878566 1.05203534,30.5546176 C3.65224757,31.4823344 6.66081376,30.8522459 9.47964545,28.9435735 Z" id="Path" fill="url(#radialGradient-6)"></path>
                    </g>
                </g>
            </g>
        </g>
    </g>
</svg>