<!--?xml version="1.0" encoding="UTF-8"?-->
<svg width="1920px" height="513px" viewBox="0 0 1920 513" version="1.1" xmlns="http://www.w3.org/2000/svg" xmlns:xlink="http://www.w3.org/1999/xlink" style="">
    <!-- Generator: Sketch 63.1 (92452) - https://sketch.com -->
    <title>background-shape</title>
    <desc>Created with Sketch.</desc>
    <defs>
        <path id="path-1" width="1920" height="513" d="M0 0 L1920 0 L1920 513 L0 513 Z" class="KgVjNCXV_0"></path>
    </defs>
    <g id="Page-1" stroke="none" stroke-width="1" fill="none" fill-rule="evenodd">
        <g id="background-shape">
            <mask id="mask-2" fill="white">
                <use xlink:href="#path-1"></use>
            </mask>
            <use id="Rectangle" fill="#EAEFF2" xlink:href="#path-1"></use>
            <g id="Group-13-Copy" mask="url(#mask-2)" stroke="#78BC45" stroke-width="0.5">
                <g transform="translate(-729.333333, -382.000000)">
                    <path d="M0,47.8815692 C112.172222,321.845653 222.505556,458.88513 331,459 C493.741667,459.17216 510.291667,150.833391 662,150.661159 C813.708333,150.488927 844.05,356.564803 993,356.220338 C1141.95,355.875874 1172.29167,253.268516 1324,253.440749 C1475.70833,253.612981 1456.4,174.988963 1655,176.194589 C1853.6,177.400214 1754.3,0.345470788 1986,0 C2217.7,-0.343458175 2179.08333,352.388171 2317,352.388171 C2408.94444,352.388171 2519.27778,274.079912 2648,117.463394" id="Path-2" class="KgVjNCXV_1"></path>
                    <path d="M0,58.8815692 C112.172222,332.845653 222.505556,469.88513 331,470 C493.741667,470.17216 510.291667,161.833391 662,161.661159 C813.708333,161.488927 844.05,367.564803 993,367.220338 C1141.95,366.875874 1172.29167,264.268516 1324,264.440749 C1475.70833,264.612981 1456.4,185.988963 1655,187.194589 C1853.6,188.400214 1754.3,11.3454708 1986,11 C2217.7,10.6565418 2179.08333,363.388171 2317,363.388171 C2408.94444,363.388171 2519.27778,285.079912 2648,128.463394" id="Path-2-Copy" class="KgVjNCXV_2"></path>
                    <path d="M0,69.8815692 C112.172222,343.845653 222.505556,480.88513 331,481 C493.741667,481.17216 510.291667,172.833391 662,172.661159 C813.708333,172.488927 844.05,378.564803 993,378.220338 C1141.95,377.875874 1172.29167,275.268516 1324,275.440749 C1475.70833,275.612981 1456.4,196.988963 1655,198.194589 C1853.6,199.400214 1754.3,22.3454708 1986,22 C2217.7,21.6565418 2179.08333,374.388171 2317,374.388171 C2408.94444,374.388171 2519.27778,296.079912 2648,139.463394" id="Path-2-Copy-2" class="KgVjNCXV_3"></path>
                    <path d="M0,80.8815692 C112.172222,354.845653 222.505556,491.88513 331,492 C493.741667,492.17216 510.291667,183.833391 662,183.661159 C813.708333,183.488927 844.05,389.564803 993,389.220338 C1141.95,388.875874 1172.29167,286.268516 1324,286.440749 C1475.70833,286.612981 1456.4,207.988963 1655,209.194589 C1853.6,210.400214 1754.3,33.3454708 1986,33 C2217.7,32.6565418 2179.08333,385.388171 2317,385.388171 C2408.94444,385.388171 2519.27778,307.079912 2648,150.463394" id="Path-2-Copy-3" class="KgVjNCXV_4"></path>
                    <path d="M0,91.8815692 C112.172222,365.845653 222.505556,502.88513 331,503 C493.741667,503.17216 510.291667,194.833391 662,194.661159 C813.708333,194.488927 844.05,400.564803 993,400.220338 C1141.95,399.875874 1172.29167,297.268516 1324,297.440749 C1475.70833,297.612981 1456.4,218.988963 1655,220.194589 C1853.6,221.400214 1754.3,44.3454708 1986,44 C2217.7,43.6565418 2179.08333,396.388171 2317,396.388171 C2408.94444,396.388171 2519.27778,318.079912 2648,161.463394" id="Path-2-Copy-4" class="KgVjNCXV_5"></path>
                    <path d="M0,102.881569 C112.172222,376.845653 222.505556,513.88513 331,514 C493.741667,514.17216 510.291667,205.833391 662,205.661159 C813.708333,205.488927 844.05,411.564803 993,411.220338 C1141.95,410.875874 1172.29167,308.268516 1324,308.440749 C1475.70833,308.612981 1456.4,229.988963 1655,231.194589 C1853.6,232.400214 1754.3,55.3454708 1986,55 C2217.7,54.6565418 2179.08333,407.388171 2317,407.388171 C2408.94444,407.388171 2519.27778,329.079912 2648,172.463394" id="Path-2-Copy-5" class="KgVjNCXV_6"></path>
                    <path d="M0,113.881569 C112.172222,387.845653 222.505556,524.88513 331,525 C493.741667,525.17216 510.291667,216.833391 662,216.661159 C813.708333,216.488927 844.05,422.564803 993,422.220338 C1141.95,421.875874 1172.29167,319.268516 1324,319.440749 C1475.70833,319.612981 1456.4,240.988963 1655,242.194589 C1853.6,243.400214 1754.3,66.3454708 1986,66 C2217.7,65.6565418 2179.08333,418.388171 2317,418.388171 C2408.94444,418.388171 2519.27778,340.079912 2648,183.463394" id="Path-2-Copy-6" class="KgVjNCXV_7"></path>
                    <path d="M0,124.881569 C112.172222,398.845653 222.505556,535.88513 331,536 C493.741667,536.17216 510.291667,227.833391 662,227.661159 C813.708333,227.488927 844.05,433.564803 993,433.220338 C1141.95,432.875874 1172.29167,330.268516 1324,330.440749 C1475.70833,330.612981 1456.4,251.988963 1655,253.194589 C1853.6,254.400214 1754.3,77.3454708 1986,77 C2217.7,76.6565418 2179.08333,429.388171 2317,429.388171 C2408.94444,429.388171 2519.27778,351.079912 2648,194.463394" id="Path-2-Copy-7" class="KgVjNCXV_8"></path>
                    <path d="M0,136.881569 C112.172222,410.845653 222.505556,547.88513 331,548 C493.741667,548.17216 510.291667,239.833391 662,239.661159 C813.708333,239.488927 844.05,445.564803 993,445.220338 C1141.95,444.875874 1172.29167,342.268516 1324,342.440749 C1475.70833,342.612981 1456.4,263.988963 1655,265.194589 C1853.6,266.400214 1754.3,89.3454708 1986,89 C2217.7,88.6565418 2179.08333,441.388171 2317,441.388171 C2408.94444,441.388171 2519.27778,363.079912 2648,206.463394" id="Path-2-Copy-8" class="KgVjNCXV_9"></path>
                    <path d="M0,146.881569 C112.172222,420.845653 222.505556,557.88513 331,558 C493.741667,558.17216 510.291667,249.833391 662,249.661159 C813.708333,249.488927 844.05,455.564803 993,455.220338 C1141.95,454.875874 1172.29167,352.268516 1324,352.440749 C1475.70833,352.612981 1456.4,273.988963 1655,275.194589 C1853.6,276.400214 1754.3,99.3454708 1986,99 C2217.7,98.6565418 2179.08333,451.388171 2317,451.388171 C2408.94444,451.388171 2519.27778,373.079912 2648,216.463394" id="Path-2-Copy-9" class="KgVjNCXV_10"></path>
                    <path d="M0,157.881569 C112.172222,431.845653 222.505556,568.88513 331,569 C493.741667,569.17216 510.291667,260.833391 662,260.661159 C813.708333,260.488927 844.05,466.564803 993,466.220338 C1141.95,465.875874 1172.29167,363.268516 1324,363.440749 C1475.70833,363.612981 1456.4,284.988963 1655,286.194589 C1853.6,287.400214 1754.3,110.345471 1986,110 C2217.7,109.656542 2179.08333,462.388171 2317,462.388171 C2408.94444,462.388171 2519.27778,384.079912 2648,227.463394" id="Path-2-Copy-10" class="KgVjNCXV_11"></path>
                    <path d="M0,169.881569 C112.172222,443.845653 222.505556,580.88513 331,581 C493.741667,581.17216 510.291667,272.833391 662,272.661159 C813.708333,272.488927 844.05,478.564803 993,478.220338 C1141.95,477.875874 1172.29167,375.268516 1324,375.440749 C1475.70833,375.612981 1456.4,296.988963 1655,298.194589 C1853.6,299.400214 1754.3,122.345471 1986,122 C2217.7,121.656542 2179.08333,474.388171 2317,474.388171 C2408.94444,474.388171 2519.27778,396.079912 2648,239.463394" id="Path-2-Copy-11" class="KgVjNCXV_12"></path>
                    <path d="M0,180.881569 C112.172222,454.845653 222.505556,591.88513 331,592 C493.741667,592.17216 510.291667,283.833391 662,283.661159 C813.708333,283.488927 844.05,489.564803 993,489.220338 C1141.95,488.875874 1172.29167,386.268516 1324,386.440749 C1475.70833,386.612981 1456.4,307.988963 1655,309.194589 C1853.6,310.400214 1754.3,133.345471 1986,133 C2217.7,132.656542 2179.08333,485.388171 2317,485.388171 C2408.94444,485.388171 2519.27778,407.079912 2648,250.463394" id="Path-2-Copy-12" class="KgVjNCXV_13"></path>
                    <path d="M0,190.881569 C112.172222,464.845653 222.505556,601.88513 331,602 C493.741667,602.17216 510.291667,293.833391 662,293.661159 C813.708333,293.488927 844.05,499.564803 993,499.220338 C1141.95,498.875874 1172.29167,396.268516 1324,396.440749 C1475.70833,396.612981 1456.4,317.988963 1655,319.194589 C1853.6,320.400214 1754.3,143.345471 1986,143 C2217.7,142.656542 2179.08333,495.388171 2317,495.388171 C2408.94444,495.388171 2519.27778,417.079912 2648,260.463394" id="Path-2-Copy-13" class="KgVjNCXV_14"></path>
                    <path d="M0,202.881569 C112.172222,476.845653 222.505556,613.88513 331,614 C493.741667,614.17216 510.291667,305.833391 662,305.661159 C813.708333,305.488927 844.05,511.564803 993,511.220338 C1141.95,510.875874 1172.29167,408.268516 1324,408.440749 C1475.70833,408.612981 1456.4,329.988963 1655,331.194589 C1853.6,332.400214 1754.3,155.345471 1986,155 C2217.7,154.656542 2179.08333,507.388171 2317,507.388171 C2408.94444,507.388171 2519.27778,429.079912 2648,272.463394" id="Path-2-Copy-14" class="KgVjNCXV_15"></path>
                </g>
            </g>
            <g id="Group-13-Copy-2" mask="url(#mask-2)" stroke="#5AB9E9" stroke-width="0.5">
                <g transform="translate(922.000000, 513.000000) scale(1, -1) translate(-922.000000, -513.000000) translate(-402.000000, 206.000000)">
                    <path d="M0,47.8815692 C112.172222,321.845653 222.505556,458.88513 331,459 C493.741667,459.17216 510.291667,150.833391 662,150.661159 C813.708333,150.488927 844.05,356.564803 993,356.220338 C1141.95,355.875874 1172.29167,253.268516 1324,253.440749 C1475.70833,253.612981 1456.4,174.988963 1655,176.194589 C1853.6,177.400214 1754.3,0.345470788 1986,0 C2217.7,-0.343458175 2179.08333,352.388171 2317,352.388171 C2408.94444,352.388171 2519.27778,274.079912 2648,117.463394" id="Path-2" class="KgVjNCXV_16"></path>
                    <path d="M0,58.8815692 C112.172222,332.845653 222.505556,469.88513 331,470 C493.741667,470.17216 510.291667,161.833391 662,161.661159 C813.708333,161.488927 844.05,367.564803 993,367.220338 C1141.95,366.875874 1172.29167,264.268516 1324,264.440749 C1475.70833,264.612981 1456.4,185.988963 1655,187.194589 C1853.6,188.400214 1754.3,11.3454708 1986,11 C2217.7,10.6565418 2179.08333,363.388171 2317,363.388171 C2408.94444,363.388171 2519.27778,285.079912 2648,128.463394" id="Path-2-Copy" class="KgVjNCXV_17"></path>
                    <path d="M0,69.8815692 C112.172222,343.845653 222.505556,480.88513 331,481 C493.741667,481.17216 510.291667,172.833391 662,172.661159 C813.708333,172.488927 844.05,378.564803 993,378.220338 C1141.95,377.875874 1172.29167,275.268516 1324,275.440749 C1475.70833,275.612981 1456.4,196.988963 1655,198.194589 C1853.6,199.400214 1754.3,22.3454708 1986,22 C2217.7,21.6565418 2179.08333,374.388171 2317,374.388171 C2408.94444,374.388171 2519.27778,296.079912 2648,139.463394" id="Path-2-Copy-2" class="KgVjNCXV_18"></path>
                    <path d="M0,80.8815692 C112.172222,354.845653 222.505556,491.88513 331,492 C493.741667,492.17216 510.291667,183.833391 662,183.661159 C813.708333,183.488927 844.05,389.564803 993,389.220338 C1141.95,388.875874 1172.29167,286.268516 1324,286.440749 C1475.70833,286.612981 1456.4,207.988963 1655,209.194589 C1853.6,210.400214 1754.3,33.3454708 1986,33 C2217.7,32.6565418 2179.08333,385.388171 2317,385.388171 C2408.94444,385.388171 2519.27778,307.079912 2648,150.463394" id="Path-2-Copy-3" class="KgVjNCXV_19"></path>
                    <path d="M0,91.8815692 C112.172222,365.845653 222.505556,502.88513 331,503 C493.741667,503.17216 510.291667,194.833391 662,194.661159 C813.708333,194.488927 844.05,400.564803 993,400.220338 C1141.95,399.875874 1172.29167,297.268516 1324,297.440749 C1475.70833,297.612981 1456.4,218.988963 1655,220.194589 C1853.6,221.400214 1754.3,44.3454708 1986,44 C2217.7,43.6565418 2179.08333,396.388171 2317,396.388171 C2408.94444,396.388171 2519.27778,318.079912 2648,161.463394" id="Path-2-Copy-4" class="KgVjNCXV_20"></path>
                    <path d="M0,102.881569 C112.172222,376.845653 222.505556,513.88513 331,514 C493.741667,514.17216 510.291667,205.833391 662,205.661159 C813.708333,205.488927 844.05,411.564803 993,411.220338 C1141.95,410.875874 1172.29167,308.268516 1324,308.440749 C1475.70833,308.612981 1456.4,229.988963 1655,231.194589 C1853.6,232.400214 1754.3,55.3454708 1986,55 C2217.7,54.6565418 2179.08333,407.388171 2317,407.388171 C2408.94444,407.388171 2519.27778,329.079912 2648,172.463394" id="Path-2-Copy-5" class="KgVjNCXV_21"></path>
                    <path d="M0,113.881569 C112.172222,387.845653 222.505556,524.88513 331,525 C493.741667,525.17216 510.291667,216.833391 662,216.661159 C813.708333,216.488927 844.05,422.564803 993,422.220338 C1141.95,421.875874 1172.29167,319.268516 1324,319.440749 C1475.70833,319.612981 1456.4,240.988963 1655,242.194589 C1853.6,243.400214 1754.3,66.3454708 1986,66 C2217.7,65.6565418 2179.08333,418.388171 2317,418.388171 C2408.94444,418.388171 2519.27778,340.079912 2648,183.463394" id="Path-2-Copy-6" class="KgVjNCXV_22"></path>
                    <path d="M0,124.881569 C112.172222,398.845653 222.505556,535.88513 331,536 C493.741667,536.17216 510.291667,227.833391 662,227.661159 C813.708333,227.488927 844.05,433.564803 993,433.220338 C1141.95,432.875874 1172.29167,330.268516 1324,330.440749 C1475.70833,330.612981 1456.4,251.988963 1655,253.194589 C1853.6,254.400214 1754.3,77.3454708 1986,77 C2217.7,76.6565418 2179.08333,429.388171 2317,429.388171 C2408.94444,429.388171 2519.27778,351.079912 2648,194.463394" id="Path-2-Copy-7" class="KgVjNCXV_23"></path>
                    <path d="M0,136.881569 C112.172222,410.845653 222.505556,547.88513 331,548 C493.741667,548.17216 510.291667,239.833391 662,239.661159 C813.708333,239.488927 844.05,445.564803 993,445.220338 C1141.95,444.875874 1172.29167,342.268516 1324,342.440749 C1475.70833,342.612981 1456.4,263.988963 1655,265.194589 C1853.6,266.400214 1754.3,89.3454708 1986,89 C2217.7,88.6565418 2179.08333,441.388171 2317,441.388171 C2408.94444,441.388171 2519.27778,363.079912 2648,206.463394" id="Path-2-Copy-8" class="KgVjNCXV_24"></path>
                    <path d="M0,146.881569 C112.172222,420.845653 222.505556,557.88513 331,558 C493.741667,558.17216 510.291667,249.833391 662,249.661159 C813.708333,249.488927 844.05,455.564803 993,455.220338 C1141.95,454.875874 1172.29167,352.268516 1324,352.440749 C1475.70833,352.612981 1456.4,273.988963 1655,275.194589 C1853.6,276.400214 1754.3,99.3454708 1986,99 C2217.7,98.6565418 2179.08333,451.388171 2317,451.388171 C2408.94444,451.388171 2519.27778,373.079912 2648,216.463394" id="Path-2-Copy-9" class="KgVjNCXV_25"></path>
                    <path d="M0,157.881569 C112.172222,431.845653 222.505556,568.88513 331,569 C493.741667,569.17216 510.291667,260.833391 662,260.661159 C813.708333,260.488927 844.05,466.564803 993,466.220338 C1141.95,465.875874 1172.29167,363.268516 1324,363.440749 C1475.70833,363.612981 1456.4,284.988963 1655,286.194589 C1853.6,287.400214 1754.3,110.345471 1986,110 C2217.7,109.656542 2179.08333,462.388171 2317,462.388171 C2408.94444,462.388171 2519.27778,384.079912 2648,227.463394" id="Path-2-Copy-10" class="KgVjNCXV_26"></path>
                    <path d="M0,169.881569 C112.172222,443.845653 222.505556,580.88513 331,581 C493.741667,581.17216 510.291667,272.833391 662,272.661159 C813.708333,272.488927 844.05,478.564803 993,478.220338 C1141.95,477.875874 1172.29167,375.268516 1324,375.440749 C1475.70833,375.612981 1456.4,296.988963 1655,298.194589 C1853.6,299.400214 1754.3,122.345471 1986,122 C2217.7,121.656542 2179.08333,474.388171 2317,474.388171 C2408.94444,474.388171 2519.27778,396.079912 2648,239.463394" id="Path-2-Copy-11" class="KgVjNCXV_27"></path>
                    <path d="M0,180.881569 C112.172222,454.845653 222.505556,591.88513 331,592 C493.741667,592.17216 510.291667,283.833391 662,283.661159 C813.708333,283.488927 844.05,489.564803 993,489.220338 C1141.95,488.875874 1172.29167,386.268516 1324,386.440749 C1475.70833,386.612981 1456.4,307.988963 1655,309.194589 C1853.6,310.400214 1754.3,133.345471 1986,133 C2217.7,132.656542 2179.08333,485.388171 2317,485.388171 C2408.94444,485.388171 2519.27778,407.079912 2648,250.463394" id="Path-2-Copy-12" class="KgVjNCXV_28"></path>
                    <path d="M0,190.881569 C112.172222,464.845653 222.505556,601.88513 331,602 C493.741667,602.17216 510.291667,293.833391 662,293.661159 C813.708333,293.488927 844.05,499.564803 993,499.220338 C1141.95,498.875874 1172.29167,396.268516 1324,396.440749 C1475.70833,396.612981 1456.4,317.988963 1655,319.194589 C1853.6,320.400214 1754.3,143.345471 1986,143 C2217.7,142.656542 2179.08333,495.388171 2317,495.388171 C2408.94444,495.388171 2519.27778,417.079912 2648,260.463394" id="Path-2-Copy-13" class="KgVjNCXV_29"></path>
                    <path d="M0,202.881569 C112.172222,476.845653 222.505556,613.88513 331,614 C493.741667,614.17216 510.291667,305.833391 662,305.661159 C813.708333,305.488927 844.05,511.564803 993,511.220338 C1141.95,510.875874 1172.29167,408.268516 1324,408.440749 C1475.70833,408.612981 1456.4,329.988963 1655,331.194589 C1853.6,332.400214 1754.3,155.345471 1986,155 C2217.7,154.656542 2179.08333,507.388171 2317,507.388171 C2408.94444,507.388171 2519.27778,429.079912 2648,272.463394" id="Path-2-Copy-14" class="KgVjNCXV_30"></path>
                </g>
            </g>
        </g>
    </g>
<style data-made-with="vivus-instant">.KgVjNCXV_0{stroke-dasharray:4866 4868;stroke-dashoffset:4867;animation:KgVjNCXV_draw_0 16600ms linear 0ms infinite,KgVjNCXV_fade 16600ms linear 0ms infinite;}.KgVjNCXV_1{stroke-dasharray:3461 3463;stroke-dashoffset:3462;animation:KgVjNCXV_draw_1 16600ms linear 0ms infinite,KgVjNCXV_fade 16600ms linear 0ms infinite;}.KgVjNCXV_2{stroke-dasharray:3461 3463;stroke-dashoffset:3462;animation:KgVjNCXV_draw_2 16600ms linear 0ms infinite,KgVjNCXV_fade 16600ms linear 0ms infinite;}.KgVjNCXV_3{stroke-dasharray:3461 3463;stroke-dashoffset:3462;animation:KgVjNCXV_draw_3 16600ms linear 0ms infinite,KgVjNCXV_fade 16600ms linear 0ms infinite;}.KgVjNCXV_4{stroke-dasharray:3461 3463;stroke-dashoffset:3462;animation:KgVjNCXV_draw_4 16600ms linear 0ms infinite,KgVjNCXV_fade 16600ms linear 0ms infinite;}.KgVjNCXV_5{stroke-dasharray:3461 3463;stroke-dashoffset:3462;animation:KgVjNCXV_draw_5 16600ms linear 0ms infinite,KgVjNCXV_fade 16600ms linear 0ms infinite;}.KgVjNCXV_6{stroke-dasharray:3461 3463;stroke-dashoffset:3462;animation:KgVjNCXV_draw_6 16600ms linear 0ms infinite,KgVjNCXV_fade 16600ms linear 0ms infinite;}.KgVjNCXV_7{stroke-dasharray:3461 3463;stroke-dashoffset:3462;animation:KgVjNCXV_draw_7 16600ms linear 0ms infinite,KgVjNCXV_fade 16600ms linear 0ms infinite;}.KgVjNCXV_8{stroke-dasharray:3461 3463;stroke-dashoffset:3462;animation:KgVjNCXV_draw_8 16600ms linear 0ms infinite,KgVjNCXV_fade 16600ms linear 0ms infinite;}.KgVjNCXV_9{stroke-dasharray:3461 3463;stroke-dashoffset:3462;animation:KgVjNCXV_draw_9 16600ms linear 0ms infinite,KgVjNCXV_fade 16600ms linear 0ms infinite;}.KgVjNCXV_10{stroke-dasharray:3461 3463;stroke-dashoffset:3462;animation:KgVjNCXV_draw_10 16600ms linear 0ms infinite,KgVjNCXV_fade 16600ms linear 0ms infinite;}.KgVjNCXV_11{stroke-dasharray:3461 3463;stroke-dashoffset:3462;animation:KgVjNCXV_draw_11 16600ms linear 0ms infinite,KgVjNCXV_fade 16600ms linear 0ms infinite;}.KgVjNCXV_12{stroke-dasharray:3461 3463;stroke-dashoffset:3462;animation:KgVjNCXV_draw_12 16600ms linear 0ms infinite,KgVjNCXV_fade 16600ms linear 0ms infinite;}.KgVjNCXV_13{stroke-dasharray:3461 3463;stroke-dashoffset:3462;animation:KgVjNCXV_draw_13 16600ms linear 0ms infinite,KgVjNCXV_fade 16600ms linear 0ms infinite;}.KgVjNCXV_14{stroke-dasharray:3461 3463;stroke-dashoffset:3462;animation:KgVjNCXV_draw_14 16600ms linear 0ms infinite,KgVjNCXV_fade 16600ms linear 0ms infinite;}.KgVjNCXV_15{stroke-dasharray:3461 3463;stroke-dashoffset:3462;animation:KgVjNCXV_draw_15 16600ms linear 0ms infinite,KgVjNCXV_fade 16600ms linear 0ms infinite;}.KgVjNCXV_16{stroke-dasharray:3461 3463;stroke-dashoffset:3462;animation:KgVjNCXV_draw_16 16600ms linear 0ms infinite,KgVjNCXV_fade 16600ms linear 0ms infinite;}.KgVjNCXV_17{stroke-dasharray:3461 3463;stroke-dashoffset:3462;animation:KgVjNCXV_draw_17 16600ms linear 0ms infinite,KgVjNCXV_fade 16600ms linear 0ms infinite;}.KgVjNCXV_18{stroke-dasharray:3461 3463;stroke-dashoffset:3462;animation:KgVjNCXV_draw_18 16600ms linear 0ms infinite,KgVjNCXV_fade 16600ms linear 0ms infinite;}.KgVjNCXV_19{stroke-dasharray:3461 3463;stroke-dashoffset:3462;animation:KgVjNCXV_draw_19 16600ms linear 0ms infinite,KgVjNCXV_fade 16600ms linear 0ms infinite;}.KgVjNCXV_20{stroke-dasharray:3461 3463;stroke-dashoffset:3462;animation:KgVjNCXV_draw_20 16600ms linear 0ms infinite,KgVjNCXV_fade 16600ms linear 0ms infinite;}.KgVjNCXV_21{stroke-dasharray:3461 3463;stroke-dashoffset:3462;animation:KgVjNCXV_draw_21 16600ms linear 0ms infinite,KgVjNCXV_fade 16600ms linear 0ms infinite;}.KgVjNCXV_22{stroke-dasharray:3461 3463;stroke-dashoffset:3462;animation:KgVjNCXV_draw_22 16600ms linear 0ms infinite,KgVjNCXV_fade 16600ms linear 0ms infinite;}.KgVjNCXV_23{stroke-dasharray:3461 3463;stroke-dashoffset:3462;animation:KgVjNCXV_draw_23 16600ms linear 0ms infinite,KgVjNCXV_fade 16600ms linear 0ms infinite;}.KgVjNCXV_24{stroke-dasharray:3461 3463;stroke-dashoffset:3462;animation:KgVjNCXV_draw_24 16600ms linear 0ms infinite,KgVjNCXV_fade 16600ms linear 0ms infinite;}.KgVjNCXV_25{stroke-dasharray:3461 3463;stroke-dashoffset:3462;animation:KgVjNCXV_draw_25 16600ms linear 0ms infinite,KgVjNCXV_fade 16600ms linear 0ms infinite;}.KgVjNCXV_26{stroke-dasharray:3461 3463;stroke-dashoffset:3462;animation:KgVjNCXV_draw_26 16600ms linear 0ms infinite,KgVjNCXV_fade 16600ms linear 0ms infinite;}.KgVjNCXV_27{stroke-dasharray:3461 3463;stroke-dashoffset:3462;animation:KgVjNCXV_draw_27 16600ms linear 0ms infinite,KgVjNCXV_fade 16600ms linear 0ms infinite;}.KgVjNCXV_28{stroke-dasharray:3461 3463;stroke-dashoffset:3462;animation:KgVjNCXV_draw_28 16600ms linear 0ms infinite,KgVjNCXV_fade 16600ms linear 0ms infinite;}.KgVjNCXV_29{stroke-dasharray:3461 3463;stroke-dashoffset:3462;animation:KgVjNCXV_draw_29 16600ms linear 0ms infinite,KgVjNCXV_fade 16600ms linear 0ms infinite;}.KgVjNCXV_30{stroke-dasharray:3461 3463;stroke-dashoffset:3462;animation:KgVjNCXV_draw_30 16600ms linear 0ms infinite,KgVjNCXV_fade 16600ms linear 0ms infinite;}@keyframes KgVjNCXV_draw{100%{stroke-dashoffset:0;}}@keyframes KgVjNCXV_fade{0%{stroke-opacity:1;}96.3855421686747%{stroke-opacity:1;}100%{stroke-opacity:0;}}@keyframes KgVjNCXV_draw_0{0%{stroke-dashoffset: 4867}24.096385542168676%{ stroke-dashoffset: 0;}100%{ stroke-dashoffset: 0;}}@keyframes KgVjNCXV_draw_1{0.4016064257028113%{stroke-dashoffset: 3462}24.497991967871485%{ stroke-dashoffset: 0;}100%{ stroke-dashoffset: 0;}}@keyframes KgVjNCXV_draw_2{0.8032128514056226%{stroke-dashoffset: 3462}24.899598393574294%{ stroke-dashoffset: 0;}100%{ stroke-dashoffset: 0;}}@keyframes KgVjNCXV_draw_3{1.2048192771084338%{stroke-dashoffset: 3462}25.301204819277107%{ stroke-dashoffset: 0;}100%{ stroke-dashoffset: 0;}}@keyframes KgVjNCXV_draw_4{1.6064257028112452%{stroke-dashoffset: 3462}25.702811244979923%{ stroke-dashoffset: 0;}100%{ stroke-dashoffset: 0;}}@keyframes KgVjNCXV_draw_5{2.0080321285140568%{stroke-dashoffset: 3462}26.10441767068273%{ stroke-dashoffset: 0;}100%{ stroke-dashoffset: 0;}}@keyframes KgVjNCXV_draw_6{2.4096385542168677%{stroke-dashoffset: 3462}26.506024096385545%{ stroke-dashoffset: 0;}100%{ stroke-dashoffset: 0;}}@keyframes KgVjNCXV_draw_7{2.811244979919679%{stroke-dashoffset: 3462}26.907630522088354%{ stroke-dashoffset: 0;}100%{ stroke-dashoffset: 0;}}@keyframes KgVjNCXV_draw_8{3.2128514056224904%{stroke-dashoffset: 3462}27.30923694779116%{ stroke-dashoffset: 0;}100%{ stroke-dashoffset: 0;}}@keyframes KgVjNCXV_draw_9{3.614457831325301%{stroke-dashoffset: 3462}27.710843373493976%{ stroke-dashoffset: 0;}100%{ stroke-dashoffset: 0;}}@keyframes KgVjNCXV_draw_10{4.0160642570281135%{stroke-dashoffset: 3462}28.11244979919679%{ stroke-dashoffset: 0;}100%{ stroke-dashoffset: 0;}}@keyframes KgVjNCXV_draw_11{4.417670682730924%{stroke-dashoffset: 3462}28.514056224899598%{ stroke-dashoffset: 0;}100%{ stroke-dashoffset: 0;}}@keyframes KgVjNCXV_draw_12{4.819277108433735%{stroke-dashoffset: 3462}28.915662650602407%{ stroke-dashoffset: 0;}100%{ stroke-dashoffset: 0;}}@keyframes KgVjNCXV_draw_13{5.220883534136546%{stroke-dashoffset: 3462}29.317269076305223%{ stroke-dashoffset: 0;}100%{ stroke-dashoffset: 0;}}@keyframes KgVjNCXV_draw_14{5.622489959839358%{stroke-dashoffset: 3462}29.71887550200803%{ stroke-dashoffset: 0;}100%{ stroke-dashoffset: 0;}}@keyframes KgVjNCXV_draw_15{6.024096385542169%{stroke-dashoffset: 3462}30.120481927710845%{ stroke-dashoffset: 0;}100%{ stroke-dashoffset: 0;}}@keyframes KgVjNCXV_draw_16{6.425702811244981%{stroke-dashoffset: 3462}30.522088353413658%{ stroke-dashoffset: 0;}100%{ stroke-dashoffset: 0;}}@keyframes KgVjNCXV_draw_17{6.827309236947792%{stroke-dashoffset: 3462}30.923694779116467%{ stroke-dashoffset: 0;}100%{ stroke-dashoffset: 0;}}@keyframes KgVjNCXV_draw_18{7.228915662650602%{stroke-dashoffset: 3462}31.32530120481928%{ stroke-dashoffset: 0;}100%{ stroke-dashoffset: 0;}}@keyframes KgVjNCXV_draw_19{7.630522088353414%{stroke-dashoffset: 3462}31.72690763052209%{ stroke-dashoffset: 0;}100%{ stroke-dashoffset: 0;}}@keyframes KgVjNCXV_draw_20{8.032128514056227%{stroke-dashoffset: 3462}32.12851405622491%{ stroke-dashoffset: 0;}100%{ stroke-dashoffset: 0;}}@keyframes KgVjNCXV_draw_21{8.433734939759036%{stroke-dashoffset: 3462}32.53012048192771%{ stroke-dashoffset: 0;}100%{ stroke-dashoffset: 0;}}@keyframes KgVjNCXV_draw_22{8.835341365461847%{stroke-dashoffset: 3462}32.93172690763053%{ stroke-dashoffset: 0;}100%{ stroke-dashoffset: 0;}}@keyframes KgVjNCXV_draw_23{9.23694779116466%{stroke-dashoffset: 3462}33.333333333333336%{ stroke-dashoffset: 0;}100%{ stroke-dashoffset: 0;}}@keyframes KgVjNCXV_draw_24{9.63855421686747%{stroke-dashoffset: 3462}33.734939759036145%{ stroke-dashoffset: 0;}100%{ stroke-dashoffset: 0;}}@keyframes KgVjNCXV_draw_25{10.040160642570282%{stroke-dashoffset: 3462}34.13654618473896%{ stroke-dashoffset: 0;}100%{ stroke-dashoffset: 0;}}@keyframes KgVjNCXV_draw_26{10.441767068273093%{stroke-dashoffset: 3462}34.53815261044177%{ stroke-dashoffset: 0;}100%{ stroke-dashoffset: 0;}}@keyframes KgVjNCXV_draw_27{10.843373493975905%{stroke-dashoffset: 3462}34.93975903614458%{ stroke-dashoffset: 0;}100%{ stroke-dashoffset: 0;}}@keyframes KgVjNCXV_draw_28{11.244979919678716%{stroke-dashoffset: 3462}35.34136546184739%{ stroke-dashoffset: 0;}100%{ stroke-dashoffset: 0;}}@keyframes KgVjNCXV_draw_29{11.646586345381527%{stroke-dashoffset: 3462}35.742971887550205%{ stroke-dashoffset: 0;}100%{ stroke-dashoffset: 0;}}@keyframes KgVjNCXV_draw_30{12.048192771084338%{stroke-dashoffset: 3462}36.144578313253014%{ stroke-dashoffset: 0;}100%{ stroke-dashoffset: 0;}}</style></svg>