<!--?xml version="1.0" encoding="UTF-8"?-->
<svg width="1440px" height="220px" viewBox="0 0 1440 220" version="1.1" xmlns="http://www.w3.org/2000/svg" xmlns:xlink="http://www.w3.org/1999/xlink" style="">
    <!-- Generator: Sketch 63.1 (92452) - https://sketch.com -->
    <title>inner-background-shape</title>
    <desc>Created with Sketch.</desc>
    <defs>
        <path id="path-1" width="1440" height="220" d="M0 0 L1440 0 L1440 220 L0 220 Z" class="seeOSnSv_0"></path>
    </defs>
    <g id="Page-1" stroke="none" stroke-width="1" fill="none" fill-rule="evenodd">
        <g id="inner-background-shape">
            <g id="Group-11">
                <mask id="mask-2" fill="white">
                    <use xlink:href="#path-1"></use>
                </mask>
                <use id="Rectangle" fill="#EAEFF2" xlink:href="#path-1"></use>
                <g id="Group-13-Copy" mask="url(#mask-2)" stroke="#78BC45" stroke-width="0.5">
                    <g transform="translate(-547.000000, -392.000000)">
                        <path d="M0,47.8815692 C84.1291667,321.845653 166.879167,458.88513 248.25,459 C370.30625,459.17216 382.71875,150.833391 496.5,150.661159 C610.28125,150.488927 633.0375,356.564803 744.75,356.220338 C856.4625,355.875874 879.21875,253.268516 993,253.440749 C1106.78125,253.612981 1092.3,174.988963 1241.25,176.194589 C1390.2,177.400214 1315.725,0.345470788 1489.5,0 C1663.275,-0.343458175 1634.3125,352.388171 1737.75,352.388171 C1806.70833,352.388171 1889.45833,274.079912 1986,117.463394" id="Path-2" class="seeOSnSv_1"></path>
                        <path d="M0,58.8815692 C84.1291667,332.845653 166.879167,469.88513 248.25,470 C370.30625,470.17216 382.71875,161.833391 496.5,161.661159 C610.28125,161.488927 633.0375,367.564803 744.75,367.220338 C856.4625,366.875874 879.21875,264.268516 993,264.440749 C1106.78125,264.612981 1092.3,185.988963 1241.25,187.194589 C1390.2,188.400214 1315.725,11.3454708 1489.5,11 C1663.275,10.6565418 1634.3125,363.388171 1737.75,363.388171 C1806.70833,363.388171 1889.45833,285.079912 1986,128.463394" id="Path-2-Copy" class="seeOSnSv_2"></path>
                        <path d="M0,69.8815692 C84.1291667,343.845653 166.879167,480.88513 248.25,481 C370.30625,481.17216 382.71875,172.833391 496.5,172.661159 C610.28125,172.488927 633.0375,378.564803 744.75,378.220338 C856.4625,377.875874 879.21875,275.268516 993,275.440749 C1106.78125,275.612981 1092.3,196.988963 1241.25,198.194589 C1390.2,199.400214 1315.725,22.3454708 1489.5,22 C1663.275,21.6565418 1634.3125,374.388171 1737.75,374.388171 C1806.70833,374.388171 1889.45833,296.079912 1986,139.463394" id="Path-2-Copy-2" class="seeOSnSv_3"></path>
                        <path d="M0,80.8815692 C84.1291667,354.845653 166.879167,491.88513 248.25,492 C370.30625,492.17216 382.71875,183.833391 496.5,183.661159 C610.28125,183.488927 633.0375,389.564803 744.75,389.220338 C856.4625,388.875874 879.21875,286.268516 993,286.440749 C1106.78125,286.612981 1092.3,207.988963 1241.25,209.194589 C1390.2,210.400214 1315.725,33.3454708 1489.5,33 C1663.275,32.6565418 1634.3125,385.388171 1737.75,385.388171 C1806.70833,385.388171 1889.45833,307.079912 1986,150.463394" id="Path-2-Copy-3" class="seeOSnSv_4"></path>
                        <path d="M0,91.8815692 C84.1291667,365.845653 166.879167,502.88513 248.25,503 C370.30625,503.17216 382.71875,194.833391 496.5,194.661159 C610.28125,194.488927 633.0375,400.564803 744.75,400.220338 C856.4625,399.875874 879.21875,297.268516 993,297.440749 C1106.78125,297.612981 1092.3,218.988963 1241.25,220.194589 C1390.2,221.400214 1315.725,44.3454708 1489.5,44 C1663.275,43.6565418 1634.3125,396.388171 1737.75,396.388171 C1806.70833,396.388171 1889.45833,318.079912 1986,161.463394" id="Path-2-Copy-4" class="seeOSnSv_5"></path>
                        <path d="M0,102.881569 C84.1291667,376.845653 166.879167,513.88513 248.25,514 C370.30625,514.17216 382.71875,205.833391 496.5,205.661159 C610.28125,205.488927 633.0375,411.564803 744.75,411.220338 C856.4625,410.875874 879.21875,308.268516 993,308.440749 C1106.78125,308.612981 1092.3,229.988963 1241.25,231.194589 C1390.2,232.400214 1315.725,55.3454708 1489.5,55 C1663.275,54.6565418 1634.3125,407.388171 1737.75,407.388171 C1806.70833,407.388171 1889.45833,329.079912 1986,172.463394" id="Path-2-Copy-5" class="seeOSnSv_6"></path>
                        <path d="M0,113.881569 C84.1291667,387.845653 166.879167,524.88513 248.25,525 C370.30625,525.17216 382.71875,216.833391 496.5,216.661159 C610.28125,216.488927 633.0375,422.564803 744.75,422.220338 C856.4625,421.875874 879.21875,319.268516 993,319.440749 C1106.78125,319.612981 1092.3,240.988963 1241.25,242.194589 C1390.2,243.400214 1315.725,66.3454708 1489.5,66 C1663.275,65.6565418 1634.3125,418.388171 1737.75,418.388171 C1806.70833,418.388171 1889.45833,340.079912 1986,183.463394" id="Path-2-Copy-6" class="seeOSnSv_7"></path>
                        <path d="M0,124.881569 C84.1291667,398.845653 166.879167,535.88513 248.25,536 C370.30625,536.17216 382.71875,227.833391 496.5,227.661159 C610.28125,227.488927 633.0375,433.564803 744.75,433.220338 C856.4625,432.875874 879.21875,330.268516 993,330.440749 C1106.78125,330.612981 1092.3,251.988963 1241.25,253.194589 C1390.2,254.400214 1315.725,77.3454708 1489.5,77 C1663.275,76.6565418 1634.3125,429.388171 1737.75,429.388171 C1806.70833,429.388171 1889.45833,351.079912 1986,194.463394" id="Path-2-Copy-7" class="seeOSnSv_8"></path>
                        <path d="M0,136.881569 C84.1291667,410.845653 166.879167,547.88513 248.25,548 C370.30625,548.17216 382.71875,239.833391 496.5,239.661159 C610.28125,239.488927 633.0375,445.564803 744.75,445.220338 C856.4625,444.875874 879.21875,342.268516 993,342.440749 C1106.78125,342.612981 1092.3,263.988963 1241.25,265.194589 C1390.2,266.400214 1315.725,89.3454708 1489.5,89 C1663.275,88.6565418 1634.3125,441.388171 1737.75,441.388171 C1806.70833,441.388171 1889.45833,363.079912 1986,206.463394" id="Path-2-Copy-8" class="seeOSnSv_9"></path>
                        <path d="M0,146.881569 C84.1291667,420.845653 166.879167,557.88513 248.25,558 C370.30625,558.17216 382.71875,249.833391 496.5,249.661159 C610.28125,249.488927 633.0375,455.564803 744.75,455.220338 C856.4625,454.875874 879.21875,352.268516 993,352.440749 C1106.78125,352.612981 1092.3,273.988963 1241.25,275.194589 C1390.2,276.400214 1315.725,99.3454708 1489.5,99 C1663.275,98.6565418 1634.3125,451.388171 1737.75,451.388171 C1806.70833,451.388171 1889.45833,373.079912 1986,216.463394" id="Path-2-Copy-9" class="seeOSnSv_10"></path>
                        <path d="M0,157.881569 C84.1291667,431.845653 166.879167,568.88513 248.25,569 C370.30625,569.17216 382.71875,260.833391 496.5,260.661159 C610.28125,260.488927 633.0375,466.564803 744.75,466.220338 C856.4625,465.875874 879.21875,363.268516 993,363.440749 C1106.78125,363.612981 1092.3,284.988963 1241.25,286.194589 C1390.2,287.400214 1315.725,110.345471 1489.5,110 C1663.275,109.656542 1634.3125,462.388171 1737.75,462.388171 C1806.70833,462.388171 1889.45833,384.079912 1986,227.463394" id="Path-2-Copy-10" class="seeOSnSv_11"></path>
                        <path d="M0,169.881569 C84.1291667,443.845653 166.879167,580.88513 248.25,581 C370.30625,581.17216 382.71875,272.833391 496.5,272.661159 C610.28125,272.488927 633.0375,478.564803 744.75,478.220338 C856.4625,477.875874 879.21875,375.268516 993,375.440749 C1106.78125,375.612981 1092.3,296.988963 1241.25,298.194589 C1390.2,299.400214 1315.725,122.345471 1489.5,122 C1663.275,121.656542 1634.3125,474.388171 1737.75,474.388171 C1806.70833,474.388171 1889.45833,396.079912 1986,239.463394" id="Path-2-Copy-11" class="seeOSnSv_12"></path>
                        <path d="M0,180.881569 C84.1291667,454.845653 166.879167,591.88513 248.25,592 C370.30625,592.17216 382.71875,283.833391 496.5,283.661159 C610.28125,283.488927 633.0375,489.564803 744.75,489.220338 C856.4625,488.875874 879.21875,386.268516 993,386.440749 C1106.78125,386.612981 1092.3,307.988963 1241.25,309.194589 C1390.2,310.400214 1315.725,133.345471 1489.5,133 C1663.275,132.656542 1634.3125,485.388171 1737.75,485.388171 C1806.70833,485.388171 1889.45833,407.079912 1986,250.463394" id="Path-2-Copy-12" class="seeOSnSv_13"></path>
                        <path d="M0,190.881569 C84.1291667,464.845653 166.879167,601.88513 248.25,602 C370.30625,602.17216 382.71875,293.833391 496.5,293.661159 C610.28125,293.488927 633.0375,499.564803 744.75,499.220338 C856.4625,498.875874 879.21875,396.268516 993,396.440749 C1106.78125,396.612981 1092.3,317.988963 1241.25,319.194589 C1390.2,320.400214 1315.725,143.345471 1489.5,143 C1663.275,142.656542 1634.3125,495.388171 1737.75,495.388171 C1806.70833,495.388171 1889.45833,417.079912 1986,260.463394" id="Path-2-Copy-13" class="seeOSnSv_14"></path>
                        <path d="M0,202.881569 C84.1291667,476.845653 166.879167,613.88513 248.25,614 C370.30625,614.17216 382.71875,305.833391 496.5,305.661159 C610.28125,305.488927 633.0375,511.564803 744.75,511.220338 C856.4625,510.875874 879.21875,408.268516 993,408.440749 C1106.78125,408.612981 1092.3,329.988963 1241.25,331.194589 C1390.2,332.400214 1315.725,155.345471 1489.5,155 C1663.275,154.656542 1634.3125,507.388171 1737.75,507.388171 C1806.70833,507.388171 1889.45833,429.079912 1986,272.463394" id="Path-2-Copy-14" class="seeOSnSv_15"></path>
                    </g>
                </g>
                <g id="Group-13-Copy-2" opacity="0.319999993" mask="url(#mask-2)" stroke="#5AB9E9" stroke-width="0.5">
                    <g transform="translate(704.000000, 303.000000) scale(1, -1) translate(-704.000000, -303.000000) translate(-289.000000, -4.000000)">
                        <path d="M0,47.8815692 C84.1291667,321.845653 166.879167,458.88513 248.25,459 C370.30625,459.17216 382.71875,150.833391 496.5,150.661159 C610.28125,150.488927 633.0375,356.564803 744.75,356.220338 C856.4625,355.875874 879.21875,253.268516 993,253.440749 C1106.78125,253.612981 1092.3,174.988963 1241.25,176.194589 C1390.2,177.400214 1315.725,0.345470788 1489.5,0 C1663.275,-0.343458175 1634.3125,352.388171 1737.75,352.388171 C1806.70833,352.388171 1889.45833,274.079912 1986,117.463394" id="Path-2" class="seeOSnSv_16"></path>
                        <path d="M0,58.8815692 C84.1291667,332.845653 166.879167,469.88513 248.25,470 C370.30625,470.17216 382.71875,161.833391 496.5,161.661159 C610.28125,161.488927 633.0375,367.564803 744.75,367.220338 C856.4625,366.875874 879.21875,264.268516 993,264.440749 C1106.78125,264.612981 1092.3,185.988963 1241.25,187.194589 C1390.2,188.400214 1315.725,11.3454708 1489.5,11 C1663.275,10.6565418 1634.3125,363.388171 1737.75,363.388171 C1806.70833,363.388171 1889.45833,285.079912 1986,128.463394" id="Path-2-Copy" class="seeOSnSv_17"></path>
                        <path d="M0,69.8815692 C84.1291667,343.845653 166.879167,480.88513 248.25,481 C370.30625,481.17216 382.71875,172.833391 496.5,172.661159 C610.28125,172.488927 633.0375,378.564803 744.75,378.220338 C856.4625,377.875874 879.21875,275.268516 993,275.440749 C1106.78125,275.612981 1092.3,196.988963 1241.25,198.194589 C1390.2,199.400214 1315.725,22.3454708 1489.5,22 C1663.275,21.6565418 1634.3125,374.388171 1737.75,374.388171 C1806.70833,374.388171 1889.45833,296.079912 1986,139.463394" id="Path-2-Copy-2" class="seeOSnSv_18"></path>
                        <path d="M0,80.8815692 C84.1291667,354.845653 166.879167,491.88513 248.25,492 C370.30625,492.17216 382.71875,183.833391 496.5,183.661159 C610.28125,183.488927 633.0375,389.564803 744.75,389.220338 C856.4625,388.875874 879.21875,286.268516 993,286.440749 C1106.78125,286.612981 1092.3,207.988963 1241.25,209.194589 C1390.2,210.400214 1315.725,33.3454708 1489.5,33 C1663.275,32.6565418 1634.3125,385.388171 1737.75,385.388171 C1806.70833,385.388171 1889.45833,307.079912 1986,150.463394" id="Path-2-Copy-3" class="seeOSnSv_19"></path>
                        <path d="M0,91.8815692 C84.1291667,365.845653 166.879167,502.88513 248.25,503 C370.30625,503.17216 382.71875,194.833391 496.5,194.661159 C610.28125,194.488927 633.0375,400.564803 744.75,400.220338 C856.4625,399.875874 879.21875,297.268516 993,297.440749 C1106.78125,297.612981 1092.3,218.988963 1241.25,220.194589 C1390.2,221.400214 1315.725,44.3454708 1489.5,44 C1663.275,43.6565418 1634.3125,396.388171 1737.75,396.388171 C1806.70833,396.388171 1889.45833,318.079912 1986,161.463394" id="Path-2-Copy-4" class="seeOSnSv_20"></path>
                        <path d="M0,102.881569 C84.1291667,376.845653 166.879167,513.88513 248.25,514 C370.30625,514.17216 382.71875,205.833391 496.5,205.661159 C610.28125,205.488927 633.0375,411.564803 744.75,411.220338 C856.4625,410.875874 879.21875,308.268516 993,308.440749 C1106.78125,308.612981 1092.3,229.988963 1241.25,231.194589 C1390.2,232.400214 1315.725,55.3454708 1489.5,55 C1663.275,54.6565418 1634.3125,407.388171 1737.75,407.388171 C1806.70833,407.388171 1889.45833,329.079912 1986,172.463394" id="Path-2-Copy-5" class="seeOSnSv_21"></path>
                        <path d="M0,113.881569 C84.1291667,387.845653 166.879167,524.88513 248.25,525 C370.30625,525.17216 382.71875,216.833391 496.5,216.661159 C610.28125,216.488927 633.0375,422.564803 744.75,422.220338 C856.4625,421.875874 879.21875,319.268516 993,319.440749 C1106.78125,319.612981 1092.3,240.988963 1241.25,242.194589 C1390.2,243.400214 1315.725,66.3454708 1489.5,66 C1663.275,65.6565418 1634.3125,418.388171 1737.75,418.388171 C1806.70833,418.388171 1889.45833,340.079912 1986,183.463394" id="Path-2-Copy-6" class="seeOSnSv_22"></path>
                        <path d="M0,124.881569 C84.1291667,398.845653 166.879167,535.88513 248.25,536 C370.30625,536.17216 382.71875,227.833391 496.5,227.661159 C610.28125,227.488927 633.0375,433.564803 744.75,433.220338 C856.4625,432.875874 879.21875,330.268516 993,330.440749 C1106.78125,330.612981 1092.3,251.988963 1241.25,253.194589 C1390.2,254.400214 1315.725,77.3454708 1489.5,77 C1663.275,76.6565418 1634.3125,429.388171 1737.75,429.388171 C1806.70833,429.388171 1889.45833,351.079912 1986,194.463394" id="Path-2-Copy-7" class="seeOSnSv_23"></path>
                        <path d="M0,136.881569 C84.1291667,410.845653 166.879167,547.88513 248.25,548 C370.30625,548.17216 382.71875,239.833391 496.5,239.661159 C610.28125,239.488927 633.0375,445.564803 744.75,445.220338 C856.4625,444.875874 879.21875,342.268516 993,342.440749 C1106.78125,342.612981 1092.3,263.988963 1241.25,265.194589 C1390.2,266.400214 1315.725,89.3454708 1489.5,89 C1663.275,88.6565418 1634.3125,441.388171 1737.75,441.388171 C1806.70833,441.388171 1889.45833,363.079912 1986,206.463394" id="Path-2-Copy-8" class="seeOSnSv_24"></path>
                        <path d="M0,146.881569 C84.1291667,420.845653 166.879167,557.88513 248.25,558 C370.30625,558.17216 382.71875,249.833391 496.5,249.661159 C610.28125,249.488927 633.0375,455.564803 744.75,455.220338 C856.4625,454.875874 879.21875,352.268516 993,352.440749 C1106.78125,352.612981 1092.3,273.988963 1241.25,275.194589 C1390.2,276.400214 1315.725,99.3454708 1489.5,99 C1663.275,98.6565418 1634.3125,451.388171 1737.75,451.388171 C1806.70833,451.388171 1889.45833,373.079912 1986,216.463394" id="Path-2-Copy-9" class="seeOSnSv_25"></path>
                        <path d="M0,157.881569 C84.1291667,431.845653 166.879167,568.88513 248.25,569 C370.30625,569.17216 382.71875,260.833391 496.5,260.661159 C610.28125,260.488927 633.0375,466.564803 744.75,466.220338 C856.4625,465.875874 879.21875,363.268516 993,363.440749 C1106.78125,363.612981 1092.3,284.988963 1241.25,286.194589 C1390.2,287.400214 1315.725,110.345471 1489.5,110 C1663.275,109.656542 1634.3125,462.388171 1737.75,462.388171 C1806.70833,462.388171 1889.45833,384.079912 1986,227.463394" id="Path-2-Copy-10" class="seeOSnSv_26"></path>
                        <path d="M0,169.881569 C84.1291667,443.845653 166.879167,580.88513 248.25,581 C370.30625,581.17216 382.71875,272.833391 496.5,272.661159 C610.28125,272.488927 633.0375,478.564803 744.75,478.220338 C856.4625,477.875874 879.21875,375.268516 993,375.440749 C1106.78125,375.612981 1092.3,296.988963 1241.25,298.194589 C1390.2,299.400214 1315.725,122.345471 1489.5,122 C1663.275,121.656542 1634.3125,474.388171 1737.75,474.388171 C1806.70833,474.388171 1889.45833,396.079912 1986,239.463394" id="Path-2-Copy-11" class="seeOSnSv_27"></path>
                        <path d="M0,180.881569 C84.1291667,454.845653 166.879167,591.88513 248.25,592 C370.30625,592.17216 382.71875,283.833391 496.5,283.661159 C610.28125,283.488927 633.0375,489.564803 744.75,489.220338 C856.4625,488.875874 879.21875,386.268516 993,386.440749 C1106.78125,386.612981 1092.3,307.988963 1241.25,309.194589 C1390.2,310.400214 1315.725,133.345471 1489.5,133 C1663.275,132.656542 1634.3125,485.388171 1737.75,485.388171 C1806.70833,485.388171 1889.45833,407.079912 1986,250.463394" id="Path-2-Copy-12" class="seeOSnSv_28"></path>
                        <path d="M0,190.881569 C84.1291667,464.845653 166.879167,601.88513 248.25,602 C370.30625,602.17216 382.71875,293.833391 496.5,293.661159 C610.28125,293.488927 633.0375,499.564803 744.75,499.220338 C856.4625,498.875874 879.21875,396.268516 993,396.440749 C1106.78125,396.612981 1092.3,317.988963 1241.25,319.194589 C1390.2,320.400214 1315.725,143.345471 1489.5,143 C1663.275,142.656542 1634.3125,495.388171 1737.75,495.388171 C1806.70833,495.388171 1889.45833,417.079912 1986,260.463394" id="Path-2-Copy-13" class="seeOSnSv_29"></path>
                        <path d="M0,202.881569 C84.1291667,476.845653 166.879167,613.88513 248.25,614 C370.30625,614.17216 382.71875,305.833391 496.5,305.661159 C610.28125,305.488927 633.0375,511.564803 744.75,511.220338 C856.4625,510.875874 879.21875,408.268516 993,408.440749 C1106.78125,408.612981 1092.3,329.988963 1241.25,331.194589 C1390.2,332.400214 1315.725,155.345471 1489.5,155 C1663.275,154.656542 1634.3125,507.388171 1737.75,507.388171 C1806.70833,507.388171 1889.45833,429.079912 1986,272.463394" id="Path-2-Copy-14" class="seeOSnSv_30"></path>
                    </g>
                </g>
            </g>
        </g>
    </g>
<style data-made-with="vivus-instant">.seeOSnSv_0{stroke-dasharray:3320 3322;stroke-dashoffset:3321;animation:seeOSnSv_draw 5000ms linear 0ms forwards;}.seeOSnSv_1{stroke-dasharray:2938 2940;stroke-dashoffset:2939;animation:seeOSnSv_draw 5000ms linear 0ms forwards;}.seeOSnSv_2{stroke-dasharray:2938 2940;stroke-dashoffset:2939;animation:seeOSnSv_draw 5000ms linear 0ms forwards;}.seeOSnSv_3{stroke-dasharray:2938 2940;stroke-dashoffset:2939;animation:seeOSnSv_draw 5000ms linear 0ms forwards;}.seeOSnSv_4{stroke-dasharray:2938 2940;stroke-dashoffset:2939;animation:seeOSnSv_draw 5000ms linear 0ms forwards;}.seeOSnSv_5{stroke-dasharray:2938 2940;stroke-dashoffset:2939;animation:seeOSnSv_draw 5000ms linear 0ms forwards;}.seeOSnSv_6{stroke-dasharray:2938 2940;stroke-dashoffset:2939;animation:seeOSnSv_draw 5000ms linear 0ms forwards;}.seeOSnSv_7{stroke-dasharray:2938 2940;stroke-dashoffset:2939;animation:seeOSnSv_draw 5000ms linear 0ms forwards;}.seeOSnSv_8{stroke-dasharray:2938 2940;stroke-dashoffset:2939;animation:seeOSnSv_draw 5000ms linear 0ms forwards;}.seeOSnSv_9{stroke-dasharray:2938 2940;stroke-dashoffset:2939;animation:seeOSnSv_draw 5000ms linear 0ms forwards;}.seeOSnSv_10{stroke-dasharray:2938 2940;stroke-dashoffset:2939;animation:seeOSnSv_draw 5000ms linear 0ms forwards;}.seeOSnSv_11{stroke-dasharray:2938 2940;stroke-dashoffset:2939;animation:seeOSnSv_draw 5000ms linear 0ms forwards;}.seeOSnSv_12{stroke-dasharray:2938 2940;stroke-dashoffset:2939;animation:seeOSnSv_draw 5000ms linear 0ms forwards;}.seeOSnSv_13{stroke-dasharray:2938 2940;stroke-dashoffset:2939;animation:seeOSnSv_draw 5000ms linear 0ms forwards;}.seeOSnSv_14{stroke-dasharray:2938 2940;stroke-dashoffset:2939;animation:seeOSnSv_draw 5000ms linear 0ms forwards;}.seeOSnSv_15{stroke-dasharray:2938 2940;stroke-dashoffset:2939;animation:seeOSnSv_draw 5000ms linear 0ms forwards;}.seeOSnSv_16{stroke-dasharray:2938 2940;stroke-dashoffset:2939;animation:seeOSnSv_draw 5000ms linear 0ms forwards;}.seeOSnSv_17{stroke-dasharray:2938 2940;stroke-dashoffset:2939;animation:seeOSnSv_draw 5000ms linear 0ms forwards;}.seeOSnSv_18{stroke-dasharray:2938 2940;stroke-dashoffset:2939;animation:seeOSnSv_draw 5000ms linear 0ms forwards;}.seeOSnSv_19{stroke-dasharray:2938 2940;stroke-dashoffset:2939;animation:seeOSnSv_draw 5000ms linear 0ms forwards;}.seeOSnSv_20{stroke-dasharray:2938 2940;stroke-dashoffset:2939;animation:seeOSnSv_draw 5000ms linear 0ms forwards;}.seeOSnSv_21{stroke-dasharray:2938 2940;stroke-dashoffset:2939;animation:seeOSnSv_draw 5000ms linear 0ms forwards;}.seeOSnSv_22{stroke-dasharray:2938 2940;stroke-dashoffset:2939;animation:seeOSnSv_draw 5000ms linear 0ms forwards;}.seeOSnSv_23{stroke-dasharray:2938 2940;stroke-dashoffset:2939;animation:seeOSnSv_draw 5000ms linear 0ms forwards;}.seeOSnSv_24{stroke-dasharray:2938 2940;stroke-dashoffset:2939;animation:seeOSnSv_draw 5000ms linear 0ms forwards;}.seeOSnSv_25{stroke-dasharray:2938 2940;stroke-dashoffset:2939;animation:seeOSnSv_draw 5000ms linear 0ms forwards;}.seeOSnSv_26{stroke-dasharray:2938 2940;stroke-dashoffset:2939;animation:seeOSnSv_draw 5000ms linear 0ms forwards;}.seeOSnSv_27{stroke-dasharray:2938 2940;stroke-dashoffset:2939;animation:seeOSnSv_draw 5000ms linear 0ms forwards;}.seeOSnSv_28{stroke-dasharray:2938 2940;stroke-dashoffset:2939;animation:seeOSnSv_draw 5000ms linear 0ms forwards;}.seeOSnSv_29{stroke-dasharray:2938 2940;stroke-dashoffset:2939;animation:seeOSnSv_draw 5000ms linear 0ms forwards;}.seeOSnSv_30{stroke-dasharray:2938 2940;stroke-dashoffset:2939;animation:seeOSnSv_draw 5000ms linear 0ms forwards;}@keyframes seeOSnSv_draw{100%{stroke-dashoffset:0;}}@keyframes seeOSnSv_fade{0%{stroke-opacity:1;}100%{stroke-opacity:1;}100%{stroke-opacity:0;}}</style></svg>