<svg width="128" height="128" viewBox="0 0 128 128" fill="none" xmlns="http://www.w3.org/2000/svg">
<path d="M6.21553 68.3288C4.79695 66.9102 4 64.9862 4 62.98C4 60.9739 4.79695 59.0499 6.21553 57.6313C7.6341 56.2127 9.55811 55.4158 11.5643 55.4158C13.5705 55.4158 15.4945 56.2127 16.913 57.6313L47.2848 88.0079L111.087 24.2155C111.789 23.5131 112.623 22.9559 113.541 22.5758C114.459 22.1957 115.442 22 116.436 22C117.429 22 118.413 22.1957 119.33 22.5758C120.248 22.9559 121.082 23.5131 121.784 24.2155C122.487 24.9179 123.044 25.7518 123.424 26.6696C123.804 27.5873 124 28.5709 124 29.5643C124 30.5576 123.804 31.5413 123.424 32.459C123.044 33.3767 122.487 34.2106 121.784 34.913L53.0868 103.611C52.3259 104.374 51.4219 104.979 50.4268 105.392C49.4316 105.805 48.3647 106.017 47.2873 106.017C46.2098 106.017 45.1429 105.805 44.1478 105.392C43.1526 104.979 42.2486 104.374 41.4877 103.611L6.21553 68.3288Z" fill="black"/>
</svg>
