<svg width="128" height="128" viewBox="0 0 128 128" fill="none" xmlns="http://www.w3.org/2000/svg">
<path d="M122.148 114.391L90.7422 82.9844C97.5391 74.6641 101.289 64.1875 101.289 52.75C101.289 25.8203 79.4618 4 52.5391 4C25.6165 4 4 25.8273 4 52.75C4 79.6727 25.825 101.5 52.5391 101.5C63.9743 101.5 74.4649 97.5367 82.7735 90.9437L114.18 122.35C115.492 123.461 116.945 124 118.375 124C119.805 124 121.253 123.451 122.352 122.352C124.539 120.156 124.539 116.594 122.148 114.391ZM15.25 52.75C15.25 32.0734 32.0735 15.25 52.75 15.25C73.4266 15.25 90.2501 32.0734 90.2501 52.75C90.2501 73.4266 73.4266 90.25 52.75 90.25C32.0735 90.25 15.25 73.4219 15.25 52.75Z" fill="black"/>
</svg>
