<svg width="128" height="128" viewBox="0 0 128 128" fill="none" xmlns="http://www.w3.org/2000/svg">
<path d="M104 70.3333H77.3333C76.4495 70.3349 75.6024 70.6871 74.978 71.3126C74.3536 71.9381 74.003 72.7858 74.003 73.6696C74.0045 74.5524 74.3559 75.3986 74.9801 76.0228C75.6044 76.6471 76.4505 76.9984 77.3333 77H104C104.884 77 105.732 76.6493 106.357 76.0249C106.983 75.4005 107.335 74.5534 107.336 73.6696C107.336 72.7848 106.985 71.9362 106.359 71.3105C105.733 70.6848 104.885 70.3333 104 70.3333V70.3333ZM44 63.6667C47.5362 63.6667 50.9276 62.2619 53.4281 59.7614C55.9286 57.2609 57.3333 53.8696 57.3333 50.3333C57.3318 46.7976 55.9265 43.4071 53.4264 40.907C50.9262 38.4068 47.5357 37.0016 44 37C40.4647 37.0031 37.0752 38.4089 34.5754 40.9087C32.0756 43.4085 30.6698 46.7981 30.6667 50.3333C30.6698 53.8686 32.0756 57.2582 34.5754 59.758C37.0752 62.2578 40.4647 63.6635 44 63.6667V63.6667ZM44 43.6667C45.7676 43.6682 47.4624 44.3711 48.7123 45.621C49.9622 46.8709 50.6651 48.5657 50.6667 50.3333C50.6635 52.1005 49.9601 53.7944 48.7106 55.0439C47.461 56.2935 45.7671 56.9969 44 57C42.2333 56.9953 40.5404 56.2914 39.2911 55.0422C38.0419 53.793 37.338 52.1 37.3333 50.3333C37.338 48.5667 38.0419 46.8737 39.2911 45.6245C40.5404 44.3752 42.2333 43.6714 44 43.6667ZM50.6667 70.3333H37.3333C32.9123 70.3333 28.6723 72.0896 25.5461 75.2158C22.42 78.3419 20.6637 82.5819 20.6637 87.003C20.6637 87.8878 21.0152 88.7364 21.6409 89.3621C22.2666 89.9878 23.1152 90.3393 24 90.3393C24.4378 90.34 24.8716 90.2545 25.2763 90.0875C25.681 89.9204 26.0489 89.6752 26.3588 89.3659C26.6686 89.0566 26.9145 88.6892 27.0822 88.2847C27.25 87.8803 27.3363 87.4467 27.3363 87.0089C27.3355 85.6953 27.5935 84.3944 28.0955 83.1805C28.5974 81.9666 29.3336 80.8634 30.2619 79.934C31.1902 79.0046 32.2925 78.2671 33.5058 77.7637C34.7191 77.2603 36.0197 77.0008 37.3333 77H50.6667C51.9805 76.9992 53.2816 77.2574 54.4956 77.7598C55.7095 78.2623 56.8126 78.999 57.7416 79.9281C58.6706 80.8571 59.4074 81.9601 59.9098 83.1741C60.4122 84.388 60.6704 85.6891 60.6696 87.003C60.6712 87.8858 61.0226 88.7319 61.6468 89.3562C62.271 89.9804 63.1172 90.3318 64 90.3333C64.8838 90.3333 65.7315 89.9827 66.357 89.3583C66.9825 88.7339 67.3347 87.8868 67.3363 87.003C67.3371 84.8137 66.9064 82.6457 66.069 80.6229C65.2315 78.6 64.0037 76.7621 62.4556 75.214C60.9075 73.666 59.0696 72.4381 57.0468 71.6007C55.024 70.7632 52.856 70.3326 50.6667 70.3333V70.3333ZM110.667 17H17.3333C13.7971 17 10.4057 18.4048 7.90524 20.9052C5.40476 23.4057 4 26.7971 4 30.3333V97C4 100.536 5.40476 103.928 7.90524 106.428C10.4057 108.929 13.7971 110.333 17.3333 110.333H110.667C114.203 110.333 117.594 108.929 120.095 106.428C122.595 103.928 124 100.536 124 97V30.3333C123.998 26.7976 122.593 23.4071 120.093 20.907C117.593 18.4068 114.202 17.0016 110.667 17V17ZM117.333 97C117.332 98.7676 116.629 100.462 115.379 101.712C114.129 102.962 112.434 103.665 110.667 103.667H17.3333C15.5657 103.665 13.8709 102.962 12.621 101.712C11.3711 100.462 10.6682 98.7676 10.6667 97V30.3333C10.6682 28.5657 11.3711 26.8709 12.621 25.621C13.8709 24.3711 15.5657 23.6682 17.3333 23.6667H110.667C112.434 23.6682 114.129 24.3711 115.379 25.621C116.629 26.8709 117.332 28.5657 117.333 30.3333V97ZM104 57H77.3333C76.4495 57.0016 75.6024 57.3538 74.978 57.9793C74.3536 58.6048 74.003 59.4525 74.003 60.3363C74.003 61.2211 74.3545 62.0697 74.9801 62.6954C75.6058 63.3211 76.4544 63.6726 77.3393 63.6726H104.006C104.89 63.6726 105.737 63.3219 106.363 62.6975C106.988 62.0731 107.341 61.226 107.342 60.3422C107.343 59.9031 107.257 59.4681 107.089 59.0623C106.922 58.6564 106.676 58.2877 106.365 57.9772C106.055 57.6667 105.686 57.4205 105.28 57.2528C104.874 57.0851 104.439 56.9992 104 57V57ZM104 43.6667H77.3333C76.4495 43.6682 75.6024 44.0204 74.978 44.6459C74.3536 45.2714 74.003 46.1191 74.003 47.003C74.0045 47.8858 74.3559 48.7319 74.9801 49.3562C75.6044 49.9804 76.4505 50.3318 77.3333 50.3333H104C104.884 50.3333 105.732 49.9826 106.357 49.3583C106.983 48.7339 107.335 47.8868 107.336 47.003C107.336 46.5648 107.25 46.131 107.082 45.7262C106.915 45.3214 106.669 44.9537 106.359 44.6438C106.049 44.334 105.682 44.0883 105.277 43.9206C104.872 43.753 104.438 43.6667 104 43.6667V43.6667Z" fill="black"/>
</svg>
