<svg width="128" height="128" viewBox="0 0 128 128" fill="none" xmlns="http://www.w3.org/2000/svg">
<path d="M45.25 34H82.75C83.7436 33.9968 84.6956 33.6007 85.3981 32.8982C86.1007 32.1956 86.4968 31.2436 86.5 30.25C86.4968 29.2564 86.1007 28.3044 85.3981 27.6018C84.6956 26.8993 83.7436 26.5032 82.75 26.5H76.918C78.2646 24.2288 78.9832 21.6404 79 19C79 15.0218 77.4196 11.2064 74.6066 8.3934C71.7936 5.58035 67.9782 4 64 4C60.0218 4 56.2064 5.58035 53.3934 8.3934C50.5804 11.2064 49 15.0218 49 19C49.0145 21.6407 49.7332 24.2297 51.082 26.5H45.25C44.2564 26.5032 43.3044 26.8993 42.6018 27.6018C41.8993 28.3044 41.5032 29.2564 41.5 30.25C41.5032 31.2436 41.8993 32.1956 42.6018 32.8982C43.3044 33.6007 44.2564 33.9968 45.25 34V34ZM64 11.5C65.9881 11.5032 67.894 12.2944 69.2998 13.7002C70.7056 15.106 71.4968 17.0119 71.5 19C71.4968 20.9881 70.7056 22.894 69.2998 24.2998C67.894 25.7056 65.9881 26.4968 64 26.5C62.0119 26.4968 60.106 25.7056 58.7002 24.2998C57.2944 22.894 56.5032 20.9881 56.5 19C56.5048 17.0123 57.2965 15.1074 58.702 13.702C60.1074 12.2965 62.0123 11.5048 64 11.5V11.5ZM94 19C93.0054 19 92.0516 19.3951 91.3483 20.0983C90.6451 20.8016 90.25 21.7554 90.25 22.75C90.2516 23.7441 90.6472 24.697 91.3501 25.3999C92.053 26.1028 93.0059 26.4984 94 26.5C95.9886 26.5016 97.8954 27.2923 99.3015 28.6985C100.708 30.1046 101.498 32.0114 101.5 34V109C101.498 110.989 100.708 112.895 99.3015 114.302C97.8954 115.708 95.9886 116.498 94 116.5H34C32.0114 116.498 30.1046 115.708 28.6985 114.302C27.2923 112.895 26.5016 110.989 26.5 109V34C26.5016 32.0114 27.2923 30.1046 28.6985 28.6985C30.1046 27.2923 32.0114 26.5016 34 26.5C34.9946 26.5 35.9484 26.1049 36.6516 25.4017C37.3549 24.6984 37.75 23.7446 37.75 22.75C37.75 21.7554 37.3549 20.8016 36.6516 20.0983C35.9484 19.3951 34.9946 19 34 19C30.0218 19 26.2064 20.5804 23.3934 23.3934C20.5804 26.2064 19 30.0218 19 34V109C19 112.978 20.5804 116.794 23.3934 119.607C26.2064 122.42 30.0218 124 34 124H94C97.9782 124 101.794 122.42 104.607 119.607C107.42 116.794 109 112.978 109 109V34C109 30.0218 107.42 26.2064 104.607 23.3934C101.794 20.5804 97.9782 19 94 19ZM35.878 64C35.878 65.4926 36.4709 66.9241 37.5264 67.9796C38.5819 69.0351 40.0134 69.628 41.506 69.628C42.2448 69.628 42.9763 69.4824 43.6588 69.1995C44.3413 68.9166 44.9613 68.5019 45.4835 67.9792C46.0056 67.4565 46.4196 66.8361 46.7018 66.1533C46.984 65.4705 47.1288 64.7388 47.128 64C47.128 63.2612 46.9824 62.5297 46.6995 61.8472C46.4166 61.1647 46.0019 60.5447 45.4792 60.0225C44.9565 59.5004 44.3361 59.0864 43.6533 58.8042C42.9705 58.5221 42.2388 58.3772 41.5 58.378C40.7615 58.3772 40.0301 58.5221 39.3476 58.8043C38.6652 59.0866 38.0451 59.5007 37.5229 60.0229C37.0007 60.5451 36.5866 61.1652 36.3043 61.8476C36.0221 62.5301 35.8772 63.2615 35.878 64V64ZM41.506 80.878C40.7672 80.878 40.0356 81.0236 39.3532 81.3065C38.6707 81.5894 38.0507 82.0041 37.5285 82.5268C37.0064 83.0495 36.5924 83.6699 36.3102 84.3527C36.028 85.0355 35.8832 85.7672 35.884 86.506C35.884 87.9986 36.4769 89.4301 37.5324 90.4856C38.5879 91.5411 40.0194 92.134 41.512 92.134C42.2508 92.1348 42.9825 91.99 43.6653 91.7078C44.3481 91.4256 44.9685 91.0116 45.4912 90.4895C46.0139 89.9673 46.4286 89.3473 46.7115 88.6648C46.9944 87.9823 47.14 87.2508 47.14 86.512C47.1416 85.7733 46.9972 85.0415 46.7153 84.3587C46.4333 83.6759 46.0192 83.0555 45.4969 82.5331C44.9745 82.0108 44.3541 81.5967 43.6713 81.3147C42.9885 81.0328 42.2567 80.8884 41.518 80.89L41.506 80.878ZM90.25 60.25H60.25C59.2564 60.2532 58.3044 60.6493 57.6018 61.3518C56.8993 62.0544 56.5032 63.0064 56.5 64C56.5016 64.9941 56.8972 65.947 57.6001 66.6499C58.303 67.3528 59.2559 67.7484 60.25 67.75H90.25C91.2436 67.7468 92.1956 67.3507 92.8981 66.6482C93.6007 65.9456 93.9968 64.9936 94 64C93.9968 63.0064 93.6007 62.0544 92.8981 61.3518C92.1956 60.6493 91.2436 60.2532 90.25 60.25ZM90.25 82.75H60.25C59.2564 82.7532 58.3044 83.1493 57.6018 83.8519C56.8993 84.5544 56.5032 85.5064 56.5 86.5C56.5016 87.4941 56.8972 88.447 57.6001 89.1499C58.303 89.8528 59.2559 90.2484 60.25 90.25H90.25C91.2446 90.25 92.1984 89.8549 92.9017 89.1517C93.6049 88.4484 94 87.4946 94 86.5C93.9984 85.5059 93.6028 84.553 92.8999 83.8501C92.197 83.1472 91.2441 82.7516 90.25 82.75Z" fill="black"/>
</svg>
