<svg width="128" height="128" viewBox="0 0 128 128" fill="none" xmlns="http://www.w3.org/2000/svg">
<path d="M86.144 35.4946L68.4907 17.8626C67.8778 17.2563 67.1494 16.7791 66.3487 16.4594C65.548 16.1397 64.6913 15.9839 63.8293 16.0013C63.0135 15.9856 62.2036 16.1434 61.4533 16.4643C60.703 16.7852 60.0295 17.2618 59.4773 17.8626L41.8773 35.5C40.6857 36.6939 40.0164 38.3118 40.0164 39.9986C40.0164 41.6855 40.6857 43.3034 41.8773 44.4973L59.5093 62.1293C60.6997 63.3221 62.3149 63.9935 64 63.996C64.839 63.9992 65.6703 63.8358 66.4457 63.5154C67.2212 63.1949 67.9253 62.7238 68.5173 62.1293L86.144 44.492C87.3279 43.294 87.9919 41.6776 87.9919 39.9933C87.9919 38.309 87.3279 36.6926 86.144 35.4946V35.4946ZM81.8773 40.2573L64.2613 57.9H63.7547L46.0907 40.3C46.0291 40.2247 45.9955 40.1305 45.9955 40.0333C45.9955 39.9361 46.0291 39.8419 46.0907 39.7666L64 21.996L64.2613 22.108L81.8933 39.7293C81.9605 39.8022 81.9973 39.8979 81.9963 39.997C81.9953 40.0961 81.9566 40.1911 81.888 40.2626L81.8773 40.2573ZM45.3333 62.6253C44.5471 61.5409 43.5282 60.646 42.3514 60.0064C41.1745 59.3667 39.8695 58.9983 38.5318 58.9282C37.1942 58.8582 35.8578 59.0882 34.6206 59.6015C33.3833 60.1148 32.2766 60.8983 31.3813 61.8946C29.9943 63.469 29.1906 65.4723 29.1052 67.5688C29.0197 69.6652 29.6577 71.7273 30.912 73.4093L36.2667 80.764C36.5117 81.1038 36.6162 81.525 36.5583 81.9399C36.5005 82.3548 36.2848 82.7315 35.9562 82.9913C35.6276 83.2512 35.2115 83.3742 34.7944 83.3349C34.3773 83.2955 33.9915 83.0967 33.7173 82.78L22.1067 69.02L21.9787 37.3133C21.9817 34.9214 21.0647 32.6199 19.4177 30.8855C17.7706 29.151 15.5195 28.1165 13.1307 27.996C11.951 27.9705 10.778 28.1789 9.67928 28.609C8.58056 29.0392 7.57787 29.6826 6.72904 30.5021C5.88021 31.3217 5.20204 32.3012 4.73365 33.3842C4.26526 34.4672 4.01592 35.6322 4 36.812L4.128 74.7426C4.13229 76.7846 4.82572 78.7653 6.096 80.364L26.1387 105.431C27.0064 106.642 27.5964 108.029 27.8667 109.495C28.0189 110.151 28.3915 110.736 28.9223 111.151C29.4531 111.566 30.1101 111.787 30.784 111.777C31.2315 111.777 31.6733 111.676 32.077 111.483C32.4807 111.29 32.8361 111.009 33.1173 110.661C33.3985 110.313 33.5983 109.907 33.7021 109.471C33.8059 109.036 33.8111 108.583 33.7173 108.145C33.2566 105.805 32.2659 103.601 30.8213 101.703L10.7787 76.636C10.5579 76.4123 10.3864 76.1449 10.2753 75.851C10.1642 75.557 10.1158 75.2431 10.1333 74.9293L10.0053 36.828C10.0237 36.033 10.3571 35.278 10.9323 34.7289C11.5074 34.1797 12.2771 33.8816 13.072 33.9C13.8669 33.9184 14.622 34.2518 15.1711 34.8269C15.7202 35.402 16.0184 36.1717 16 36.9666L16.128 71.0146L28.2133 85.548C35.12 93.8413 46.3307 85.0626 41.4613 77.596C41.4613 77.548 41.392 77.5 41.3653 77.4573L35.632 69.6973C35.1722 69.0569 34.9813 68.2621 35.0999 67.4827C35.2185 66.7033 35.6372 66.0013 36.2667 65.5266C36.5861 65.2921 36.9486 65.1231 37.3335 65.0291C37.7185 64.9351 38.1181 64.9181 38.5097 64.9791C38.9012 65.04 39.2768 65.1777 39.6149 65.3843C39.953 65.5908 40.247 65.8621 40.48 66.1826L48.416 77.1266C50.7756 80.2612 52.0623 84.0726 52.0853 87.996V108.999C52.0867 109.792 52.4022 110.553 52.9629 111.115C53.5236 111.676 54.2837 111.993 55.0773 111.996C55.8719 111.996 56.6344 111.682 57.1987 111.123C57.7631 110.563 58.0836 109.804 58.0907 109.009V88.012C58.0861 82.8198 56.4023 77.7684 53.2907 73.612L45.3333 62.6253ZM123.856 36.828C123.856 35.6347 123.619 34.4533 123.158 33.3525C122.697 32.2518 122.022 31.2537 121.172 30.4164C120.322 29.5791 119.313 28.9192 118.206 28.4753C117.098 28.0314 115.913 27.8123 114.72 27.8306C112.331 27.9563 110.082 28.994 108.435 30.7296C106.789 32.4652 105.871 34.7664 105.872 37.1586L106 68.828L94.4 82.5773C94.1258 82.8941 93.74 83.0928 93.3229 83.1322C92.9059 83.1716 92.4897 83.0485 92.1611 82.7886C91.8325 82.5288 91.6168 82.1522 91.559 81.7373C91.5012 81.3223 91.6056 80.9011 91.8507 80.5613L97.2053 73.388C98.4579 71.7073 99.0948 69.6472 99.0094 67.5528C98.9239 65.4584 98.1213 63.4571 96.736 61.884C95.8398 60.8879 94.7319 60.1051 93.4937 59.593C92.2554 59.0809 90.9182 58.8525 89.5802 58.9247C88.2422 58.9968 86.9373 59.3675 85.7613 60.0097C84.5853 60.652 83.568 61.5493 82.784 62.636L74.8373 73.5746C71.7216 77.729 70.0373 82.7818 70.0373 87.9746V108.988C70.0373 109.78 70.352 110.54 70.9121 111.1C71.4722 111.66 72.2319 111.975 73.024 111.975C73.8161 111.975 74.5758 111.66 75.1359 111.1C75.696 110.54 76.0107 109.78 76.0107 108.988V87.9906C76.0222 84.0629 77.3121 80.2457 79.6853 77.116L87.6213 66.172C87.85 65.8493 88.1411 65.5756 88.4773 65.3673C88.8135 65.1589 89.1881 65.0201 89.5788 64.9589C89.9696 64.8978 90.3687 64.9156 90.7525 65.0112C91.1363 65.1069 91.497 65.2785 91.8133 65.516C92.1354 65.7427 92.4086 66.0318 92.6167 66.3662C92.8248 66.7005 92.9635 67.0733 93.0247 67.4624C93.0859 67.8514 93.0683 68.2488 92.9729 68.6309C92.8775 69.013 92.7062 69.372 92.4693 69.6866L86.752 77.596C86.704 77.644 86.656 77.692 86.656 77.7346C81.7653 85.2013 92.9973 93.996 99.904 85.676L112 71.164L111.872 37.116C111.863 36.7224 111.931 36.3308 112.074 35.9637C112.216 35.5965 112.429 35.261 112.701 34.9762C112.973 34.6915 113.298 34.463 113.658 34.304C114.018 34.145 114.406 34.0584 114.8 34.0493C115.194 34.0402 115.585 34.1087 115.952 34.2509C116.319 34.3932 116.655 34.6063 116.94 34.8782C117.225 35.1501 117.453 35.4754 117.612 35.8356C117.771 36.1957 117.858 36.5837 117.867 36.9773L118.005 74.9293C117.995 75.6025 117.759 76.2527 117.333 76.7746L97.3013 101.847C95.8629 103.755 94.8714 105.962 94.4 108.305C94.3045 108.742 94.308 109.195 94.4104 109.631C94.5128 110.067 94.7114 110.474 94.9917 110.823C95.272 111.172 95.6268 111.453 96.0302 111.647C96.4335 111.841 96.8752 111.942 97.3227 111.943C97.998 111.952 98.6562 111.73 99.1872 111.312C99.7182 110.895 100.09 110.308 100.24 109.649C100.498 108.182 101.089 106.793 101.968 105.591L122.011 80.524C123.292 78.9405 123.994 76.9665 124 74.9293L123.856 36.828Z" fill="black"/>
</svg>
