<svg width="128" height="128" viewBox="0 0 128 128" fill="none" xmlns="http://www.w3.org/2000/svg">
<path fill-rule="evenodd" clip-rule="evenodd" d="M64.0917 21.6761C35.9907 21.6761 13.3396 43.8378 13.3396 71.0184C13.3396 98.199 35.9907 120.361 64.0917 120.361C92.1926 120.361 114.844 98.199 114.844 71.0184C114.844 43.8378 92.1926 21.6761 64.0917 21.6761ZM7.70044 71.0184C7.70044 40.5826 33.019 16.037 64.0917 16.037C95.1643 16.037 120.483 40.5826 120.483 71.0184C120.483 101.454 95.1643 126 64.0917 126C33.019 126 7.70044 101.454 7.70044 71.0184Z" fill="black"/>
<path fill-rule="evenodd" clip-rule="evenodd" d="M64.0915 46.1134C65.6487 46.1134 66.9111 47.3758 66.9111 48.933V68.6699H79.1283C80.6855 68.6699 81.9478 69.9323 81.9478 71.4895C81.9478 73.0467 80.6855 74.309 79.1283 74.309H64.0915C62.5343 74.309 61.272 73.0467 61.272 71.4895V48.933C61.272 47.3758 62.5343 46.1134 64.0915 46.1134Z" fill="black"/>
<path fill-rule="evenodd" clip-rule="evenodd" d="M28.7759 2.16139C29.6918 3.42076 29.4133 5.18416 28.154 6.10006L7.47813 21.1368C6.21876 22.0527 4.45536 21.7742 3.53947 20.5149C2.62357 19.2555 2.90202 17.4921 4.16139 16.5762L24.8372 1.53947C26.0966 0.623575 27.86 0.902021 28.7759 2.16139Z" fill="black"/>
<path fill-rule="evenodd" clip-rule="evenodd" d="M99.4047 2.16139C100.321 0.902021 102.084 0.623575 103.343 1.53947L124.019 16.5762C125.279 17.4921 125.557 19.2555 124.641 20.5149C123.725 21.7742 121.962 22.0527 120.702 21.1368L100.027 6.10006C98.7673 5.18416 98.4888 3.42076 99.4047 2.16139Z" fill="black"/>
</svg>
