<svg width="128" height="128" viewBox="0 0 128 128" fill="none" xmlns="http://www.w3.org/2000/svg">
<path d="M67.2663 82.7444V97.7476C67.2615 98.2291 67.1595 98.7047 66.9663 99.1458C66.7731 99.5869 66.4928 99.9845 66.1422 100.315C65.7916 100.645 65.3779 100.9 64.9259 101.067C64.4739 101.233 63.9931 101.306 63.5121 101.282C63.0314 101.304 62.5511 101.229 62.0999 101.062C61.6487 100.895 61.2359 100.638 60.8861 100.308C60.5363 99.9771 60.2567 99.5795 60.064 99.1385C59.8713 98.6975 59.7695 98.2222 59.7647 97.741V82.7377C59.7647 81.7438 60.1595 80.7907 60.8623 80.0879C61.5651 79.3851 62.5182 78.9903 63.5121 78.9903C64.5078 78.9903 65.4627 79.3858 66.1667 80.0898C66.8707 80.7939 67.2663 81.7487 67.2663 82.7444V82.7444ZM116.023 71.4886V108.997C116.02 112.975 114.438 116.789 111.625 119.602C108.812 122.415 104.998 123.996 101.02 124H26.0041C22.058 124.012 18.2668 122.465 15.4566 119.695C12.6464 116.925 11.0448 113.156 11.0009 109.21V71.702C10.9797 69.7158 11.3518 67.7451 12.0957 65.9033C12.8395 64.0615 13.9405 62.3852 15.3351 60.9707C16.7296 59.5563 18.3903 58.4318 20.2214 57.662C22.0525 56.8922 24.0178 56.4923 26.0041 56.4854H33.5057V33.9806C33.5284 29.6731 34.4742 25.4206 36.2793 21.5095C38.0844 17.5985 40.7069 14.1198 43.97 11.3078C47.2331 8.49592 51.061 6.41611 55.1958 5.20855C59.3306 4.001 63.6762 3.69376 67.9397 4.30755C75.1728 5.52487 81.7302 9.2938 86.423 14.931C91.1157 20.5681 93.6331 27.7002 93.5186 35.0341V37.7014C93.5147 38.1829 93.4135 38.6586 93.2211 39.1C93.0288 39.5415 92.7492 39.9395 92.3992 40.2702C92.0492 40.6009 91.636 40.8574 91.1844 41.0244C90.7328 41.1915 90.252 41.2655 89.7711 41.2421C89.2904 41.2646 88.8101 41.1899 88.3589 41.0225C87.9077 40.8551 87.4948 40.5985 87.145 40.268C86.7952 39.9375 86.5156 39.5399 86.323 39.0989C86.1303 38.6579 86.0285 38.1826 86.0236 37.7014V33.9539C86.0196 30.7496 85.3322 27.5831 84.0073 24.6655C82.6823 21.748 80.7503 19.1467 78.3402 17.0351C75.9301 14.9235 73.0974 13.3502 70.031 12.4203C66.9646 11.4904 63.7352 11.2252 60.5582 11.6425C55.0217 12.4355 49.9629 15.216 46.3261 19.4651C42.6892 23.7142 40.7228 29.1415 40.7939 34.7341L41.0073 56.4654H101.02C105.002 56.469 108.819 58.0535 111.632 60.8707C114.446 63.6879 116.025 67.5072 116.023 71.4886V71.4886ZM108.522 71.4886C108.52 69.4996 107.729 67.5926 106.323 66.1862C104.916 64.7797 103.009 63.9888 101.02 63.987H26.0041C24.0151 63.9888 22.108 64.7797 20.7016 66.1862C19.2951 67.5926 18.5042 69.4996 18.5025 71.4886V108.997C18.5042 110.986 19.2951 112.893 20.7016 114.299C22.108 115.706 24.0151 116.497 26.0041 116.498H101.02C103.009 116.497 104.916 115.706 106.323 114.299C107.729 112.893 108.52 110.986 108.522 108.997V71.4886Z" fill="black"/>
</svg>
