<svg width="128" height="128" viewBox="0 0 128 128" fill="none" xmlns="http://www.w3.org/2000/svg">
<path d="M124 12.2759V49.5172C124 51.7121 123.128 53.8171 121.576 55.3691C120.024 56.9212 117.919 57.7931 115.724 57.7931H78.4827C76.2878 57.7931 74.1828 56.9212 72.6308 55.3691C71.0788 53.8171 70.2069 51.7121 70.2069 49.5172C70.2069 47.3223 71.0788 45.2173 72.6308 43.6653C74.1828 42.1133 76.2878 41.2414 78.4827 41.2414H94.8772C91.0216 36.1319 86.0358 31.9842 80.3101 29.1227C74.5843 26.2613 68.274 24.7638 61.8731 24.7476C50.9187 24.7629 40.4173 29.1213 32.6714 36.8673C24.9255 44.6132 20.567 55.1145 20.5517 66.0689C20.5649 77.0262 24.9234 87.5309 32.6714 95.2789C40.4194 103.027 50.9241 107.385 61.8814 107.399C70.8393 107.428 79.56 104.521 86.7089 99.1227C88.4649 97.8058 90.672 97.2403 92.8448 97.5507C95.0177 97.8611 96.9782 99.022 98.2951 100.778C99.6121 102.534 100.178 104.741 99.8671 106.914C99.5567 109.087 98.3959 111.047 96.64 112.364C86.6506 119.927 74.4606 124.014 61.931 124C46.5715 123.985 31.8454 117.876 20.9845 107.015C10.1237 96.1546 4.01534 81.4285 4 66.0689C4.01534 50.7094 10.1237 35.9833 20.9845 25.1225C31.8454 14.2616 46.5715 8.15327 61.931 8.13793C70.7079 8.16785 79.3638 10.1874 87.2477 14.0448C95.1316 17.9022 102.038 23.4969 107.448 30.4083V12.2759C107.448 10.081 108.32 7.97597 109.872 6.42394C111.424 4.87192 113.529 4 115.724 4C117.919 4 120.024 4.87192 121.576 6.42394C123.128 7.97597 124 10.081 124 12.2759Z" fill="black"/>
</svg>
