<svg width="128" height="128" viewBox="0 0 128 128" fill="none" xmlns="http://www.w3.org/2000/svg">
<path d="M45.4796 100.196C46.0181 99.729 46.4461 99.1482 46.7323 98.4955C47.0186 97.8427 47.1561 97.1345 47.1348 96.422C47.1358 95.6827 46.99 94.9504 46.7058 94.2678C46.4217 93.5852 46.0049 92.9658 45.4796 92.4454L23.1965 70.1706L118.37 70.1706C119.125 70.1638 119.871 70.0066 120.564 69.7084C121.257 69.4102 121.884 68.9768 122.408 68.4336C122.932 67.8905 123.342 67.2484 123.615 66.5449C123.888 65.8413 124.018 65.0904 123.998 64.3361C123.955 62.8777 123.342 61.4942 122.29 60.4824C121.239 59.4706 119.833 58.911 118.374 58.9236L23.2006 58.9236L45.463 36.6488C45.9853 36.1266 46.3995 35.5066 46.6822 34.8243C46.9648 34.142 47.1103 33.4107 47.1103 32.6722C47.1103 31.9336 46.9648 31.2023 46.6822 30.52C46.3995 29.8377 45.9853 29.2178 45.463 28.6956C44.9408 28.1733 44.3209 27.759 43.6385 27.4764C42.9562 27.1938 42.2249 27.0483 41.4864 27.0483C40.7479 27.0483 40.0166 27.1938 39.3343 27.4764C38.6519 27.759 38.032 28.1733 37.5098 28.6956L5.64727 60.5581C5.12502 61.0803 4.71075 61.7002 4.42811 62.3825C4.14548 63.0649 4 63.7962 4 64.5347C4 65.2732 4.14548 66.0045 4.42811 66.6868C4.71075 67.3691 5.12502 67.9891 5.64727 68.5113L37.5098 100.374C38.0349 100.904 38.6624 101.321 39.3541 101.6C40.0458 101.88 40.7871 102.015 41.5329 101.999C42.2787 101.982 43.0133 101.814 43.6919 101.504C44.3704 101.194 44.9787 100.749 45.4796 100.196V100.196Z" fill="black"/>
</svg>
