<svg width="128" height="128" viewBox="0 0 128 128" fill="none" xmlns="http://www.w3.org/2000/svg">
<path d="M102 19H94.5V7.75C94.5 6.75544 94.1049 5.80161 93.4017 5.09835C92.6984 4.39509 91.7446 4 90.75 4C89.7554 4 88.8016 4.39509 88.0983 5.09835C87.3951 5.80161 87 6.75544 87 7.75V19H42V7.75C42 6.75544 41.6049 5.80161 40.9016 5.09835C40.1984 4.39509 39.2446 4 38.25 4C37.2554 4 36.3016 4.39509 35.5984 5.09835C34.8951 5.80161 34.5 6.75544 34.5 7.75V19H27C23.0218 19 19.2064 20.5804 16.3934 23.3934C13.5804 26.2064 12 30.0218 12 34L12 109C12 112.978 13.5804 116.794 16.3934 119.607C19.2064 122.42 23.0218 124 27 124H102C105.978 124 109.794 122.42 112.607 119.607C115.42 116.794 117 112.978 117 109V34C117 30.0218 115.42 26.2064 112.607 23.3934C109.794 20.5804 105.978 19 102 19ZM19.5 56.5H42V71.5H19.5V56.5ZM49.5 71.5V56.5H79.5V71.5H49.5ZM79.5 79V94H49.5V79H79.5ZM19.5 79H42V94H19.5V79ZM27 116.5C25.0109 116.5 23.1032 115.71 21.6967 114.303C20.2902 112.897 19.5 110.989 19.5 109V101.71H42V116.5H27ZM49.5 116.5V101.71H79.5V116.5H49.5ZM109.5 109C109.5 110.989 108.71 112.897 107.303 114.303C105.897 115.71 103.989 116.5 102 116.5H87V101.71H109.5V109ZM109.5 94H87V79H109.5V94ZM109.5 71.5H87V56.5H109.5V71.5ZM109.5 49H19.5V34C19.5 32.0109 20.2902 30.1032 21.6967 28.6967C23.1032 27.2902 25.0109 26.5 27 26.5H102C103.989 26.5 105.897 27.2902 107.303 28.6967C108.71 30.1032 109.5 32.0109 109.5 34V49Z" fill="black"/>
</svg>
