<svg width="128" height="128" viewBox="0 0 128 128" fill="none" xmlns="http://www.w3.org/2000/svg">
<path d="M88.408 123.999C86.0092 123.5 83.642 122.859 81.3186 122.081C75.9321 120.139 71.1725 116.773 67.5459 112.342C63.9193 107.911 61.5614 102.58 60.7225 96.9154C60.6521 96.536 60.6576 96.1403 60.6196 95.6254H67.6114V88.6065H60.7658C61.4783 81.3706 64.6673 74.6027 69.7938 69.4466C74.9202 64.2906 81.6696 61.0626 88.9012 60.3084V67.1918H95.9475V60.2542C98.958 60.4782 101.909 61.2114 104.674 62.4223C109.762 64.4802 114.229 67.821 117.642 72.1191C121.055 76.4172 123.297 81.5261 124.148 86.948C124.206 87.1682 124.28 87.3837 124.37 87.5929V88.5306H117.367V95.5766H124.37V96.5143C124.281 96.7221 124.207 96.9359 124.148 97.1539C123.187 103.34 120.415 109.102 116.184 113.716C111.952 118.329 106.45 121.587 100.37 123.078C99.0694 123.457 97.7197 123.674 96.3918 123.967H95.9204V116.878H88.8741V123.967L88.408 123.999ZM88.9826 72.9101C88.9501 73.2082 88.9178 73.3979 88.9178 73.5876C88.9178 79.8803 88.9178 86.1728 88.9178 92.4709C88.9409 92.9301 89.0889 93.3742 89.3458 93.7555C91.7523 97.4592 94.1788 101.15 96.6251 104.829C96.8052 105.072 96.9988 105.306 97.205 105.528L103.01 101.707C100.901 98.4981 98.8688 95.3545 96.7713 92.2542C96.2104 91.4637 95.9195 90.5133 95.9419 89.5442C95.9853 84.4223 95.9419 79.3002 95.9419 74.1837C95.9419 73.7718 95.9041 73.3599 95.8824 72.9208L88.9826 72.9101Z" fill="black"/>
<path d="M4.00562 63.2036C4.47175 63.2036 4.93785 63.2795 5.40397 63.2795C14.1357 63.2795 22.8727 63.312 31.6044 63.2524C32.8727 63.2524 33.1222 63.6481 33.1655 64.8188C33.3723 76.3284 35.6906 87.7021 40.0054 98.3742C42.0245 103.697 45.2727 108.468 49.4852 112.298C50.8728 113.48 52.4606 114.418 54.1083 115.55C52.7154 115.361 51.3984 115.22 50.1085 115.008C39.1869 113.033 29.0939 107.87 21.1011 100.169C13.1083 92.4688 7.57319 82.5753 5.19258 71.7348C4.68852 69.3825 4.39024 66.9814 4 64.6074L4.00562 63.2036Z" fill="black"/>
<path d="M4.00537 54.7749C4.39019 52.5148 4.68269 50.233 5.1705 47.9891C7.57172 36.8009 13.3406 26.6158 21.7016 18.8032C30.0626 10.9907 40.6151 5.92497 51.9403 4.28715C52.6232 4.18959 53.3115 4.11382 54.2275 4C52.7804 4.94309 51.4903 5.66933 50.3358 6.56364C46.226 9.97708 42.9892 14.3213 40.8941 19.2358C37.359 26.9556 35.0741 35.1885 34.1246 43.626C33.626 47.5339 33.4471 51.4851 33.1219 55.42C33.1219 55.6477 33.0676 55.8753 33.0296 56.1463C32.7555 56.1972 32.4785 56.2315 32.2003 56.2492H4.70438C4.47009 56.2369 4.23684 56.2117 4.00537 56.1734V54.7749Z" fill="black"/>
<path d="M39.9688 56.2597C40.3753 52.0483 40.6518 48.0376 41.1775 44.0593C42.0123 36.5152 44.0811 29.1596 47.3019 22.2868C48.7198 19.5982 50.3377 17.0202 52.142 14.5742C52.9536 13.5219 53.9291 12.6069 55.031 11.8641C56.4866 10.6364 58.3357 9.97381 60.2397 9.99769C62.1437 10.0216 63.9754 10.7303 65.3997 11.9942C68.1385 14.2198 70.3579 17.0166 71.9035 20.1892C75.2196 26.5793 77.4384 33.4812 78.4672 40.6066C79.1664 44.9968 79.4537 49.4468 79.974 53.8695C80.0879 54.8018 79.6867 55.1107 78.89 55.4522C77.3312 56.0768 75.6573 56.3613 73.9797 56.2868C63.2155 56.2543 52.4457 56.2868 41.6761 56.2868L39.9688 56.2597Z" fill="black"/>
<path d="M116.222 60.9814C107.903 54.6789 97.4272 51.9255 87.0841 53.3229C86.9757 51.9571 86.8782 50.6128 86.7589 49.2741C86.0678 38.1336 83.2008 27.2364 78.3199 17.1982C76.2743 12.9509 73.2814 9.22945 69.5718 6.32025C68.5258 5.53976 67.3713 4.90007 66.2114 4.1521C80.1659 5.60103 93.0623 12.2545 102.331 22.7865C111.599 33.3185 116.559 46.956 116.222 60.9814Z" fill="black"/>
<path d="M40.194 63.3599H65.668C59.6356 69.0415 55.5366 76.4713 53.9469 84.6042C52.3573 92.7371 53.3574 101.164 56.8065 108.699C56.5884 108.65 56.3759 108.579 56.1723 108.487C53.6906 106.974 51.6071 104.889 50.0963 102.406C46.8228 97.2082 44.4515 91.4944 43.0827 85.5062C41.3697 78.6821 40.3977 71.6932 40.1831 64.6606C40.1831 64.2758 40.194 63.8856 40.194 63.3599Z" fill="black"/>
</svg>
