<svg width="128" height="128" viewBox="0 0 128 128" fill="none" xmlns="http://www.w3.org/2000/svg">
<path d="M64 75.2533C59.357 75.2518 54.7706 76.2724 50.5663 78.2426C46.3621 80.2128 42.6431 83.0843 39.6733 86.6533C39.1996 87.2191 38.842 87.8727 38.6211 88.5767C38.4002 89.2808 38.3203 90.0215 38.3859 90.7565C38.4515 91.4915 38.6614 92.2063 39.0036 92.8601C39.3458 93.5139 39.8135 94.0938 40.38 94.5667C41.5335 95.5172 43.0159 95.9735 44.5043 95.8361C45.9927 95.6988 47.3666 94.9789 48.3267 93.8333C50.2123 91.5568 52.5734 89.7207 55.2442 88.4538C57.915 87.187 60.8307 86.5201 63.7867 86.5C66.7748 86.5116 69.7247 87.1736 72.4312 88.4399C75.1378 89.7063 77.5363 91.5467 79.46 93.8333C80.4171 94.9835 81.7916 95.7068 83.2816 95.8443C84.7716 95.9818 86.2552 95.5223 87.4067 94.5667C87.9732 94.0938 88.4409 93.5139 88.7831 92.8601C89.1252 92.2063 89.3351 91.4915 89.4008 90.7565C89.4664 90.0215 89.3865 89.2808 89.1656 88.5767C88.9447 87.8727 88.5871 87.2191 88.1133 86.6533C85.1843 83.0915 81.5032 80.2222 77.3342 78.2512C73.1651 76.2802 68.6115 75.2564 64 75.2533V75.2533ZM45.04 60.2533C46.0265 60.2577 47.004 60.0668 47.9163 59.6915C48.8286 59.3163 49.6576 58.7641 50.3555 58.0669C51.0533 57.3696 51.6062 56.5411 51.9823 55.6292C52.3584 54.7172 52.5502 53.7398 52.5467 52.7533C52.5502 51.7669 52.3584 50.7895 51.9823 49.8775C51.6062 48.9655 51.0533 48.137 50.3555 47.4398C49.6576 46.7426 48.8286 46.1904 47.9163 45.8151C47.004 45.4399 46.0265 45.2489 45.04 45.2533C44.0546 45.2516 43.0785 45.4444 42.1678 45.8207C41.2571 46.1969 40.4296 46.7493 39.7328 47.4461C39.036 48.1429 38.4836 48.9704 38.1073 49.8811C37.731 50.7919 37.5382 51.7679 37.54 52.7533C37.5709 54.7328 38.371 56.6225 39.7709 58.0224C41.1708 59.4223 43.0605 60.2224 45.04 60.2533V60.2533ZM64 4C48.087 4 32.8258 10.3214 21.5736 21.5736C10.3214 32.8258 4 48.087 4 64C4 79.913 10.3214 95.1742 21.5736 106.426C32.8258 117.679 48.087 124 64 124C79.913 124 95.1742 117.679 106.426 106.426C117.679 95.1742 124 79.913 124 64C124 48.087 117.679 32.8258 106.426 21.5736C95.1742 10.3214 79.913 4 64 4V4ZM64 112.753C51.0753 112.737 38.6846 107.596 29.5461 98.4559C20.4076 89.3161 15.2674 76.9247 15.2533 64C15.2692 51.0765 20.4101 38.6868 29.5484 29.5484C38.6868 20.4101 51.0765 15.2692 64 15.2533C76.9247 15.2674 89.3161 20.4076 98.4559 29.5461C107.596 38.6846 112.737 51.0753 112.753 64C112.739 76.9259 107.598 89.3183 98.4582 98.4582C89.3183 107.598 76.9259 112.739 64 112.753V112.753ZM82.7533 45.2533C81.7669 45.2489 80.7893 45.4399 79.877 45.8151C78.9647 46.1904 78.1357 46.7426 77.4379 47.4398C76.74 48.137 76.1871 48.9655 75.811 49.8775C75.4349 50.7895 75.2431 51.7669 75.2467 52.7533C75.2431 53.7398 75.4349 54.7172 75.811 55.6292C76.1871 56.5411 76.74 57.3696 77.4379 58.0669C78.1357 58.7641 78.9647 59.3163 79.877 59.6915C80.7893 60.0668 81.7669 60.2577 82.7533 60.2533C83.7382 60.2542 84.7135 60.0608 85.6235 59.6841C86.5334 59.3074 87.3602 58.7549 88.0562 58.0582C88.7523 57.3615 89.3041 56.5343 89.68 55.624C90.0558 54.7137 90.2484 53.7382 90.2467 52.7533C90.2493 51.7682 90.0573 50.7923 89.6818 49.8816C89.3062 48.9709 88.7545 48.1434 88.0582 47.4465C87.3619 46.7496 86.5349 46.1972 85.6245 45.8208C84.7142 45.4444 83.7384 45.2516 82.7533 45.2533V45.2533Z" fill="black"/>
</svg>
