<svg width="128" height="128" viewBox="0 0 128 128" fill="none" xmlns="http://www.w3.org/2000/svg">
<path fill-rule="evenodd" clip-rule="evenodd" d="M64.909 4L67.7457 4.07895L68.0467 4.18807C75.1806 6.77382 81.7412 10.727 87.3608 15.8258L87.3812 15.8444C89.8916 18.1867 92.2784 20.6584 94.5317 23.249C96.0617 24.8367 97.0332 26.88 97.2983 29.07C97.564 31.264 97.1059 33.4842 95.9946 35.3935C90.0118 46.7002 80.6242 55.8393 69.1601 61.5165L69.1353 61.5288C68.6815 61.7456 68.1366 61.9379 67.615 62.1222C67.3996 62.1983 67.1881 62.273 66.9886 62.3475L64.3864 63.3188L64.3105 60.5423C64.1457 54.5081 64.9869 48.4962 66.7923 42.7518C56.4542 44.2785 46.696 48.5603 38.5554 55.1729C30.0158 62.7718 24.5817 73.2562 23.2961 84.6157L21.3452 101.854L19.3523 84.6205C18.5291 77.5011 19.1521 70.2888 21.1842 63.416C23.2163 56.5433 26.6154 50.1517 31.1778 44.6247L31.2109 44.5846C40.6605 33.7295 52.9732 25.7518 66.7413 21.562C67.0289 21.4653 67.3104 21.3716 67.5885 21.2791C67.6478 21.2593 67.7069 21.2396 67.766 21.22C66.0269 16.3629 65.0774 11.2541 64.9575 6.08817L64.909 4ZM69.0846 8.85089C74.8056 11.2356 80.0824 14.5841 84.683 18.7562C87.1018 21.0136 89.4009 23.3959 91.5708 25.8934L91.6082 25.9365L91.648 25.9773C92.594 26.9475 93.1947 28.2018 93.3576 29.5471C93.5205 30.8923 93.2364 32.2538 92.5493 33.4216L92.5262 33.4609L92.5049 33.5011C87.0671 43.7957 78.6113 52.1712 68.2835 57.5113C68.4555 51.9062 69.5617 46.362 71.5631 41.1089L72.6981 38.1299L69.524 38.4261C57.2452 39.572 45.5833 44.3383 36.017 52.1209L35.9836 52.148L35.9515 52.1765C31.0192 56.5573 27.039 61.8241 24.1812 67.6489C24.4169 66.606 24.6868 65.5697 24.9908 64.5415C26.8689 58.1896 30.0087 52.2819 34.2226 47.1717C43.187 36.8813 54.8655 29.3198 67.9236 25.3514L67.9517 25.3429L67.9794 25.3336C68.2498 25.2426 68.5271 25.1503 68.8079 25.0569C69.3822 24.8657 69.9713 24.6697 70.5463 24.4699L70.5782 24.4585C71.0074 24.3011 71.2949 24.0437 71.3854 23.9626L71.3912 23.9574C71.4315 23.9214 71.5033 23.8547 71.5094 23.8491C71.5337 23.8268 71.5478 23.8145 71.5593 23.8049L72.6753 22.8789L72.1323 21.5343C70.4933 17.4755 69.4678 13.2008 69.0846 8.85089Z" fill="black"/>
<path fill-rule="evenodd" clip-rule="evenodd" d="M106.432 23.8931L108.935 41.0927C110.138 49.3631 109.391 57.8002 106.752 65.73C104.113 73.6594 99.656 80.8616 93.7375 86.7614C85.1403 95.3448 74.694 101.848 63.1976 105.774L62.3701 106.077C64.2258 110.862 65.3569 115.902 65.7225 121.029L65.9343 124L63.1107 123.051C62.6499 122.897 62.1889 122.748 61.7321 122.601C60.7641 122.289 59.8152 121.984 58.9283 121.637L58.9019 121.627C49.8276 117.934 41.7772 112.108 35.432 104.644C33.8968 103.077 32.9081 101.055 32.6145 98.8792C32.3195 96.6933 32.7422 94.4713 33.8179 92.547C39.3196 81.5799 47.9499 72.4901 58.6179 66.4274L58.6459 66.4115C59.3133 66.0464 60.0609 65.7142 60.8167 65.378C61.1483 65.2305 61.4815 65.0823 61.8103 64.9303L64.4447 63.7125L64.6242 66.6091C64.9981 72.643 64.357 78.6891 62.7349 84.4971C73.0845 82.6718 82.7631 78.0588 90.7148 71.1287C98.9678 63.2362 104.047 52.5954 104.993 41.2141L106.432 23.8931ZM104.62 58.2341C101.959 64.1219 98.1749 69.4956 93.4238 74.0306L93.3918 74.0611L93.3585 74.0901C84.0191 82.2421 72.4458 87.4001 60.1396 88.8951L56.9899 89.2778L58.0238 86.2781C59.8549 80.9654 60.7768 75.3893 60.7579 69.7838C60.6935 69.8173 60.6293 69.8516 60.5648 69.8867C50.573 75.5689 42.4921 84.0886 37.3458 94.3671L37.3233 94.412L37.2985 94.4558C36.6304 95.6368 36.3669 97.0038 36.5483 98.3483C36.7298 99.6929 37.3462 100.941 38.3034 101.903L38.3593 101.959L38.4106 102.019C44.3467 109.019 51.8852 114.483 60.3852 117.945C60.7412 118.084 61.0933 118.21 61.4562 118.334C60.8697 113.99 59.6842 109.743 57.9298 105.715L57.0882 103.783L61.8949 102.024C72.8262 98.294 82.7592 92.1128 90.9329 83.9523C96.4135 78.4893 100.542 71.819 102.985 64.4766C103.667 62.4278 104.212 60.3425 104.62 58.2341Z" fill="black"/>
</svg>
