<svg width="128" height="128" viewBox="0 0 128 128" fill="none" xmlns="http://www.w3.org/2000/svg">
<path d="M81.8673 6.55459L33.0813 58.3779C31.634 59.8936 30.8251 61.9079 30.822 64.0036C30.8295 66.094 31.638 68.102 33.0813 69.6143L81.8673 121.453C83.3617 123.024 85.4183 123.939 87.5862 123.997C89.7541 124.055 91.8565 123.251 93.4329 121.762C94.2148 121.024 94.8434 120.139 95.2828 119.157C95.7221 118.176 95.9635 117.118 95.9932 116.043C96.0228 114.968 95.8401 113.898 95.4556 112.894C95.071 111.89 94.4921 110.971 93.7521 110.191L49.9783 63.9936L93.757 17.796C94.4966 17.0173 95.0752 16.1001 95.4596 15.0973C95.844 14.0944 96.0265 13.0255 95.9969 11.9519C95.9672 10.8783 95.7259 9.82116 95.2868 8.84104C94.8476 7.86092 94.2193 6.97713 93.4378 6.24039C91.8613 4.74882 89.7571 3.9441 87.5875 4.00301C85.418 4.06193 83.3606 4.97966 81.8673 6.55459Z" fill="black"/>
</svg>
