<svg width="128" height="128" viewBox="0 0 128 128" fill="none" xmlns="http://www.w3.org/2000/svg">
<path fill-rule="evenodd" clip-rule="evenodd" d="M80.1587 4.00063C84.0999 3.97498 88.007 4.73234 91.6531 6.22874C95.2993 7.72515 98.6119 9.9308 101.399 12.7177C104.186 15.5046 106.391 18.8172 107.888 22.4634C109.384 26.1095 110.142 30.0166 110.116 33.9578C110.09 37.899 109.282 41.7958 107.738 45.4222C106.199 49.0392 103.958 52.3153 101.145 55.0614L62.417 93.7893C59.207 96.9992 54.8534 98.8026 50.3138 98.8026C45.7743 98.8026 41.4207 96.9992 38.2107 93.7893C35.0008 90.5793 33.1974 86.2257 33.1974 81.6862C33.1974 77.1466 35.0008 72.793 38.2107 69.583L76.9583 30.8355C78.7043 29.0895 81.5351 29.0895 83.281 30.8355C85.027 32.5814 85.027 35.4122 83.281 37.1582L44.5335 75.9058C43.0004 77.4388 42.1392 79.5181 42.1392 81.6862C42.1392 83.8542 43.0004 85.9335 44.5335 87.4665C46.0665 88.9996 48.1458 89.8608 50.3138 89.8608C52.4819 89.8608 54.5612 88.9996 56.0942 87.4665L94.8829 48.6778C96.8578 46.7537 98.4311 44.4568 99.5111 41.9198C100.591 39.3829 101.156 36.6568 101.174 33.8996C101.192 31.1424 100.662 28.4091 99.6156 25.8584C98.5687 23.3076 97.0257 20.9901 95.076 19.0405C93.1264 17.0908 90.8089 15.5478 88.2581 14.5009C85.7074 13.4541 82.9741 12.9242 80.2169 12.9422C77.4598 12.9601 74.7336 13.5255 72.1967 14.6054C69.6597 15.6854 67.3626 17.2585 65.4384 19.2333L65.3978 19.275L26.661 58.0112C26.6591 58.0132 26.6571 58.0152 26.6552 58.0171C20.4191 64.3002 16.9263 72.7982 16.9418 81.6508C16.9573 90.5063 20.482 98.9946 26.7437 105.256C33.0054 111.518 41.4937 115.043 50.3492 115.058C59.202 115.074 67.7002 111.581 73.9833 105.344C73.9851 105.343 73.9869 105.341 73.9888 105.339L112.725 66.6024C114.471 64.8565 117.302 64.8565 119.048 66.6024C120.794 68.3484 120.794 71.1792 119.048 72.9252L80.3005 111.673L80.2894 111.684C72.3269 119.591 61.555 124.02 50.3335 124C39.112 123.98 28.3557 119.514 20.4209 111.579C12.4861 103.644 8.0197 92.888 8.00007 81.6665C7.98043 70.445 12.4092 59.6731 20.3162 51.7106L20.3272 51.6995L59.0551 12.9716C61.8012 10.1589 65.0773 7.9179 68.6943 6.37814C72.3207 4.83441 76.2176 4.02628 80.1587 4.00063Z" fill="black"/>
</svg>
