<svg width="128" height="128" viewBox="0 0 128 128" fill="none" xmlns="http://www.w3.org/2000/svg">
<path d="M60.2845 4H67.7803C69.8252 4.26544 71.8755 4.46211 73.9056 4.81112C84.9805 6.61763 95.3075 11.5535 103.669 19.0368C113.941 27.9831 120.799 40.2087 123.081 53.6376C123.469 55.8202 123.695 58.0274 124 60.2197V67.716C123.823 69.1415 123.676 70.5719 123.47 71.9975C121.857 84.7304 116.068 96.5691 107.007 105.659C100.058 113.062 91.294 118.518 81.5844 121.486C71.8748 124.454 61.5578 124.831 51.6576 122.579C44.1178 121.123 36.9464 118.169 30.5677 113.894C24.189 109.618 18.7321 104.107 14.52 97.6863C10.1079 91.385 6.98918 84.2713 5.34469 76.7567C3.7002 69.2422 3.5627 61.4762 4.93966 53.9081C6.90024 41.7548 12.6658 30.5367 21.4068 21.8682C30.0985 12.9345 41.4075 6.99844 53.6972 4.91927C55.8797 4.53586 58.0971 4.30477 60.2845 4ZM58.485 73.4181C58.0327 72.8626 57.8558 72.6021 57.6395 72.3809C53.7513 68.4877 49.8486 64.6093 45.9752 60.7014C45.3434 59.9745 44.5147 59.4458 43.5894 59.1789C42.664 58.912 41.6813 58.9184 40.7595 59.1972C39.9112 59.4422 39.1436 59.9088 38.5358 60.5493C37.9279 61.1897 37.5018 61.9808 37.3015 62.8407C37.1011 63.7007 37.134 64.5985 37.3963 65.4416C37.6585 66.2848 38.1404 67.0427 38.7932 67.6374C43.93 72.8184 49.1163 77.9601 54.2678 83.1214C54.7439 83.7764 55.3681 84.3094 56.0896 84.6769C56.811 85.0444 57.6092 85.236 58.4189 85.236C59.2287 85.236 60.0269 85.0444 60.7483 84.6769C61.4698 84.3094 62.094 83.7764 62.5701 83.1214L93.7744 51.9171C94.1037 51.5878 94.4476 51.2634 94.7573 50.8996C95.3177 50.2315 95.6924 49.4275 95.8433 48.5686C95.9943 47.7097 95.9161 46.8262 95.6171 46.007C95.3181 45.1877 94.8091 44.4617 94.1404 43.902C93.4717 43.3423 92.6671 42.9686 91.808 42.8185C90.9405 42.6637 90.0477 42.7378 89.2176 43.0334C88.3875 43.3291 87.6486 43.8361 87.0742 44.5044C77.8985 53.6999 68.7146 62.8905 59.5224 72.0761C59.1492 72.5014 58.8025 72.9497 58.485 73.4181Z" fill="black"/>
<path d="M58.4858 73.4178C58.7865 72.9559 59.1145 72.5126 59.4687 72.0904C68.6445 62.895 77.8201 53.7047 86.9959 44.5191C87.5706 43.8512 88.3098 43.3444 89.1399 43.0487C89.9699 42.7531 90.8622 42.6787 91.7297 42.833C92.5887 42.9831 93.3933 43.3566 94.0621 43.9164C94.7308 44.4761 95.2404 45.2021 95.5394 46.0214C95.8384 46.8406 95.916 47.7244 95.765 48.5833C95.614 49.4422 95.24 50.246 94.6795 50.9141C94.3846 51.273 94.0401 51.5976 93.696 51.9318L62.4917 83.1358C62.0157 83.7908 61.3915 84.3239 60.67 84.6915C59.9485 85.059 59.1503 85.2507 58.3406 85.2507C57.5309 85.2507 56.7327 85.059 56.0112 84.6915C55.2897 84.3239 54.6655 83.7908 54.1895 83.1358C49.0281 77.9794 43.867 72.8133 38.7154 67.6519C38.0627 67.0573 37.5802 66.2991 37.3179 65.456C37.0557 64.6129 37.0228 63.7151 37.2231 62.8551C37.4235 61.9952 37.8496 61.2043 38.4574 60.5638C39.0653 59.9234 39.8329 59.4565 40.6812 59.2116C41.603 58.9328 42.5863 58.9264 43.5116 59.1933C44.437 59.4602 45.2651 59.989 45.8968 60.7159C49.7703 64.6238 53.6735 68.5021 57.5617 72.3953C57.8567 72.6017 58.0483 72.8623 58.4858 73.4178Z" fill="white"/>
</svg>
