<svg width="128" height="128" viewBox="0 0 128 128" fill="none" xmlns="http://www.w3.org/2000/svg">
<path d="M47.6972 82.635C48.3113 81.6916 48.9815 80.7861 49.7049 79.9237C68.4481 61.1404 87.191 42.3676 105.934 23.6043C107.108 22.2399 108.618 21.2046 110.314 20.6007C112.009 19.9968 113.832 19.8449 115.604 20.1601C117.359 20.4666 119.002 21.2297 120.368 22.3731C121.734 23.5165 122.775 24.9995 123.386 26.6729C123.997 28.3463 124.155 30.1515 123.847 31.906C123.538 33.6605 122.774 35.3025 121.629 36.6673C121.027 37.4003 120.323 38.0633 119.62 38.7461L55.88 102.486C54.9076 103.824 53.6325 104.913 52.1588 105.664C50.685 106.414 49.0545 106.806 47.4006 106.806C45.7466 106.806 44.1161 106.414 42.6424 105.664C41.1686 104.913 39.8935 103.824 38.9211 102.486C28.3781 91.9529 17.8355 81.4002 7.31258 70.8572C5.97925 69.6425 4.99356 68.0939 4.45791 66.3717C3.92226 64.6494 3.85502 62.8155 4.26425 61.0589C4.67347 59.3023 5.54388 57.6867 6.78553 56.3785C8.02717 55.0703 9.59515 54.1167 11.328 53.6164C13.211 53.0468 15.2195 53.0338 17.1097 53.579C18.9998 54.1241 20.6914 55.2044 21.9818 56.6892C29.8941 64.6718 37.8672 72.5939 45.8096 80.5464C46.4121 80.9681 46.8035 81.5003 47.6972 82.635Z" fill="black"/>
</svg>
