<svg width="128" height="128" viewBox="0 0 128 128" fill="none" xmlns="http://www.w3.org/2000/svg">
<path fill-rule="evenodd" clip-rule="evenodd" d="M20.9235 25.2307C16.6752 25.2307 13.2313 28.6746 13.2313 32.9229V94.4609C13.2313 98.7092 16.6752 102.153 20.9235 102.153H107.077C111.325 102.153 114.769 98.7092 114.769 94.4609V32.9229C114.769 28.6746 111.325 25.2307 107.077 25.2307H20.9235ZM4.00061 32.9229C4.00061 23.5767 11.5773 16 20.9235 16H107.077C116.423 16 124 23.5767 124 32.9229V94.4609C124 103.807 116.423 111.384 107.077 111.384H20.9235C11.5773 111.384 4.00061 103.807 4.00061 94.4609V32.9229Z" fill="black"/>
<path fill-rule="evenodd" clip-rule="evenodd" d="M4.77564 30.3625C6.18956 28.2416 9.05509 27.6685 11.176 29.0824L64 64.2984L116.824 29.0824C118.945 27.6685 121.81 28.2416 123.224 30.3625C124.638 32.4834 124.065 35.3489 121.944 36.7628L66.5601 73.6856C65.0098 74.7191 62.9902 74.7191 61.4399 73.6856L6.0557 36.7628C3.93482 35.3489 3.36171 32.4834 4.77564 30.3625Z" fill="black"/>
</svg>
