<svg width="128" height="128" viewBox="0 0 128 128" fill="none" xmlns="http://www.w3.org/2000/svg">
<path d="M64 4C30.8593 4 4 30.8593 4 63.7889C4 96.7185 30.8593 124 63.7889 124C96.7185 124 124 97.1407 124 64C124.001 56.1205 122.449 48.3181 119.434 41.0383C116.419 33.7585 111.999 27.1439 106.428 21.5723C100.856 16.0007 94.2415 11.5811 86.9617 8.56606C79.6819 5.55098 71.8795 3.99943 64 4V4ZM53.4062 90.2735C48.1911 91.5018 36.6225 93.9553 36.6225 93.9553C36.4812 93.9815 36.3375 93.9932 36.1938 93.9902C35.871 93.9899 35.5523 93.9183 35.2605 93.7803C34.9686 93.6423 34.711 93.4414 34.506 93.1921C34.3009 92.9428 34.1537 92.6511 34.0747 92.3382C33.9957 92.0252 33.9869 91.6986 34.0491 91.3818L37.8225 74.5982C38.1861 72.9815 39.0014 71.5013 40.1735 70.33L63.8462 46.6573L81.3455 64.1593L57.5331 87.9716C56.3936 89.1016 54.9663 89.8977 53.4062 90.2735V90.2735ZM91.4451 54.0624L86.6522 58.8553L69.1513 41.3544L73.9327 36.5729C74.7418 35.7535 75.7062 35.1039 76.7696 34.6621C77.8329 34.2203 78.9738 33.9952 80.1253 34C81.2747 33.9985 82.4131 34.2242 83.475 34.6641C84.5369 35.1041 85.5014 35.7496 86.3129 36.5636L91.4402 41.6909C94.8438 45.1093 94.8673 50.4296 91.4451 54.0624Z" fill="black"/>
</svg>
