<svg width="128" height="128" viewBox="0 0 128 128" fill="none" xmlns="http://www.w3.org/2000/svg">
<path d="M104.617 33.3672L79.6562 8.40627C76.8203 5.58018 73.0234 4.00002 69.0391 4.00002L34 4C25.7148 4 19 10.7148 19 19L19.0015 109C19.0015 117.285 25.7164 124 34.0015 124H94C102.285 124 109 117.285 109 109V43.9609C109 39.9766 107.43 36.1797 104.617 33.3672ZM71.5 11.9875C72.5493 12.3546 73.5311 12.8889 74.3406 13.6982L99.3016 38.6592C100.117 39.461 100.656 40.4453 101.008 41.5H75.25C73.1875 41.5 71.5 39.8125 71.5 37.75V11.9875ZM101.5 109C101.5 113.134 98.1344 116.5 94 116.5H34C29.8656 116.5 26.5 113.134 26.5 109V19C26.5 14.8656 29.8656 11.5 34 11.5H64V37.75C64 43.961 69.0391 49 75.25 49H101.5V109ZM41.5 67.75C41.5 69.8125 43.1875 71.5 45.25 71.5H82.75C84.8125 71.5 86.5 69.8125 86.5 67.75C86.5 65.6875 84.8125 64 82.75 64H45.25C43.1875 64 41.5 65.6875 41.5 67.75ZM82.75 79H45.25C43.1875 79 41.5 80.6875 41.5 82.75C41.5 84.8125 43.1875 86.5 45.25 86.5H82.75C84.8214 86.5 86.5 84.821 86.5 82.75C86.5 80.6791 84.8125 79 82.75 79ZM82.75 94H45.25C43.1875 94 41.5 95.6875 41.5 97.75C41.5 99.8125 43.1875 101.5 45.25 101.5H82.75C84.8214 101.5 86.5 99.821 86.5 97.75C86.5 95.6791 84.8125 94 82.75 94Z" fill="black"/>
</svg>
