<svg width="128" height="128" viewBox="0 0 128 128" fill="none" xmlns="http://www.w3.org/2000/svg">
<path d="M63.5029 64.0033C71.4598 64.0033 79.0909 60.8424 84.7173 55.216C90.3437 49.5896 93.5046 41.9586 93.5046 34.0017C93.5046 26.0447 90.3437 18.4137 84.7173 12.7873C79.0909 7.16088 71.4598 4 63.5029 4C55.546 4 47.9149 7.16088 42.2885 12.7873C36.6621 18.4137 33.5012 26.0447 33.5012 34.0017C33.5012 41.9586 36.6621 49.5896 42.2885 55.216C47.9149 60.8424 55.546 64.0033 63.5029 64.0033V64.0033ZM63.5029 11.5004C69.4684 11.5075 75.1876 13.8804 79.4059 18.0987C83.6242 22.3169 85.9971 28.0361 86.0042 34.0017C85.9971 39.9672 83.6242 45.6864 79.4059 49.9046C75.1876 54.1229 69.4684 56.4959 63.5029 56.5029C57.5374 56.4959 51.8182 54.1229 47.5999 49.9046C43.3816 45.6864 41.0087 39.9672 41.0017 34.0017C41.0087 28.0361 43.3816 22.3169 47.5999 18.0987C51.8182 13.8804 57.5374 11.5075 63.5029 11.5004V11.5004ZM75.3836 75.2573H51.6223C40.8497 75.2573 30.5183 79.5362 22.9003 87.1529C15.2824 94.7696 11.0018 105.1 11 115.873C11 116.94 11.2102 117.997 11.6186 118.983C12.0271 119.969 12.6257 120.865 13.3804 121.62C14.1351 122.374 15.031 122.973 16.017 123.381C17.003 123.79 18.0598 124 19.1271 124H107.885C108.953 124.002 110.01 123.793 110.997 123.385C111.983 122.977 112.879 122.378 113.634 121.623C114.388 120.868 114.986 119.971 115.393 118.985C115.8 117.998 116.008 116.94 116.006 115.873C116.004 105.1 111.723 94.7696 104.105 87.1529C96.4875 79.5362 86.1561 75.2573 75.3836 75.2573V75.2573ZM107.872 116.506H19.1271C19.0443 116.506 18.9622 116.49 18.8857 116.458C18.8093 116.426 18.7399 116.379 18.6816 116.32C18.6233 116.261 18.5773 116.192 18.5462 116.115C18.5151 116.038 18.4995 115.956 18.5004 115.873C18.5128 107.093 22.0066 98.676 28.2156 92.4682C34.4247 86.2604 42.8422 82.7683 51.6223 82.7577H75.3636C84.1465 82.7647 92.5682 86.2551 98.7812 92.4631C104.994 98.6711 108.491 107.09 108.505 115.873C108.497 116.038 108.428 116.195 108.311 116.312C108.194 116.429 108.037 116.498 107.872 116.506V116.506Z" fill="black"/>
</svg>
