<svg width="128" height="128" viewBox="0 0 128 128" fill="none" xmlns="http://www.w3.org/2000/svg">
<path d="M31.4914 33.611C39.8668 27.0617 50.6055 22.0747 63.4995 22.0747C78.7756 22.0747 91.0078 29.0682 99.9126 37.3754C108.761 45.6143 114.678 55.3149 117.476 62.2628C118.1 63.7625 118.1 65.4331 117.476 66.9328C114.943 73.0645 109.857 81.702 102.37 89.4093L122.26 105.052C124.226 106.608 124.585 109.475 123.035 111.449C121.484 113.423 118.63 113.784 116.663 112.227L4.73857 24.142C2.76629 22.5892 2.42049 19.7264 3.96645 17.7457C5.51259 15.7653 8.36362 15.4181 10.3374 16.9704L31.4914 33.611ZM38.8837 39.4446L47.5805 46.2787C51.8344 42.5579 57.4117 40.2989 63.4995 40.2989C76.8661 40.2989 87.6992 51.1765 87.6992 64.5978C87.6992 68.6223 86.735 72.4 85.0146 75.7411L95.1861 83.7522C101.52 77.2788 106.208 69.7424 108.609 64.5978C105.868 58.7319 101.009 50.8347 93.7303 44.0386C85.9599 36.8059 75.8262 31.0159 63.4995 31.0159C53.9519 31.0159 45.5576 34.5526 38.8837 39.4446ZM77.6601 69.9512C78.284 68.2806 78.6243 66.4772 78.6243 64.427C78.6243 56.2071 71.8559 49.2401 63.4995 49.2401C63.3671 49.2401 63.2537 49.411 62.9512 49.411C63.3671 50.3791 63.4995 51.4043 63.4995 52.2775C63.4995 54.3847 63.0457 56.2071 62.2516 57.8207L77.6601 69.9512ZM79.4373 94.6867L87.3589 100.951C80.496 104.672 72.5366 107.121 63.4995 107.121C48.2233 107.121 35.9911 100.135 27.0863 91.8202C18.2421 83.4105 12.3282 73.7099 9.515 66.9328C8.89488 65.4331 8.89488 63.7625 9.515 62.2628C11.3186 57.9156 14.3984 52.2965 18.709 46.6584L25.8385 52.2965C22.3031 56.7196 19.9701 61.1048 18.399 64.427C20.9645 70.2929 25.9898 78.3609 33.2686 85.157C41.039 92.3897 51.1727 98.0088 63.4995 98.0088C69.3036 98.0088 74.6162 96.7559 79.4373 94.6867ZM39.2997 64.427C39.2997 64.0473 39.3186 63.5158 39.3564 62.9842L49.9627 71.3749C51.9478 75.3805 55.6534 78.3799 60.0964 79.2341L70.7216 87.7957C68.4339 88.3462 66.014 88.8967 63.3293 88.8967C50.1328 88.8967 39.1295 78.0192 39.1295 64.427H39.2997Z" fill="black"/>
</svg>
