<svg xmlns="http://www.w3.org/2000/svg" xmlns:xlink="http://www.w3.org/1999/xlink" width="189" height="189" viewBox="0 0 189 189">
  <defs>
    <clipPath id="clip-path">
      <rect width="189" height="189" fill="none"/>
    </clipPath>
  </defs>
  <g id="pattern" clip-path="url(#clip-path)">
    <g id="Group_5" data-name="Group 5">
      <rect id="Rectangle" width="159" height="159" transform="translate(30)" fill="#f2f7f9" opacity="0.5"/>
      <path id="Combined_Shape" data-name="Combined Shape" d="M153.226,150.607A2.387,2.387,0,1,1,155.613,153,2.39,2.39,0,0,1,153.226,150.607Zm-14.323,0A2.387,2.387,0,1,1,141.29,153,2.39,2.39,0,0,1,138.9,150.607Zm-13.129,0A2.387,2.387,0,1,1,128.16,153,2.39,2.39,0,0,1,125.774,150.607Zm-14.323,0A2.387,2.387,0,1,1,113.838,153,2.39,2.39,0,0,1,111.451,150.607Zm-13.129,0A2.387,2.387,0,1,1,100.709,153,2.391,2.391,0,0,1,98.322,150.607Zm-14.323,0A2.387,2.387,0,1,1,86.387,153,2.391,2.391,0,0,1,84,150.607Zm-14.773,0A2.387,2.387,0,1,1,71.612,153,2.39,2.39,0,0,1,69.226,150.607Zm-14.323,0A2.387,2.387,0,1,1,57.29,153,2.39,2.39,0,0,1,54.9,150.607Zm-13.129,0A2.387,2.387,0,1,1,44.16,153,2.389,2.389,0,0,1,41.774,150.607Zm-14.323,0A2.387,2.387,0,1,1,29.839,153,2.39,2.39,0,0,1,27.452,150.607Zm-13.129,0A2.387,2.387,0,1,1,16.709,153,2.39,2.39,0,0,1,14.323,150.607ZM0,150.607A2.387,2.387,0,1,1,2.386,153,2.39,2.39,0,0,1,0,150.607Zm153.226-13.164a2.387,2.387,0,1,1,2.387,2.393A2.389,2.389,0,0,1,153.226,137.443Zm-14.323,0a2.387,2.387,0,1,1,2.387,2.393A2.389,2.389,0,0,1,138.9,137.443Zm-13.129,0a2.387,2.387,0,1,1,2.386,2.393A2.389,2.389,0,0,1,125.774,137.443Zm-14.323,0a2.387,2.387,0,1,1,2.387,2.393A2.389,2.389,0,0,1,111.451,137.443Zm-13.129,0a2.387,2.387,0,1,1,2.387,2.393A2.39,2.39,0,0,1,98.322,137.443Zm-14.323,0a2.387,2.387,0,1,1,2.387,2.393A2.39,2.39,0,0,1,84,137.443Zm-14.773,0a2.387,2.387,0,1,1,2.386,2.393A2.389,2.389,0,0,1,69.226,137.443Zm-14.323,0a2.387,2.387,0,1,1,2.386,2.393A2.389,2.389,0,0,1,54.9,137.443Zm-13.129,0a2.387,2.387,0,1,1,2.386,2.393A2.389,2.389,0,0,1,41.774,137.443Zm-14.323,0a2.387,2.387,0,1,1,2.387,2.393A2.389,2.389,0,0,1,27.452,137.443Zm-13.129,0a2.387,2.387,0,1,1,2.387,2.393A2.389,2.389,0,0,1,14.323,137.443ZM0,137.443a2.387,2.387,0,1,1,2.386,2.393A2.389,2.389,0,0,1,0,137.443ZM153.226,123.68c0-1.651,1.068-2.992,2.387-2.992S158,122.028,158,123.68s-1.068,2.993-2.388,2.993S153.226,125.332,153.226,123.68Zm-14.323,0c0-1.651,1.068-2.992,2.387-2.992s2.388,1.34,2.388,2.992-1.068,2.993-2.388,2.993S138.9,125.332,138.9,123.68Zm-13.129,0c0-1.651,1.068-2.992,2.386-2.992a3.068,3.068,0,0,1,0,5.984C126.842,126.672,125.774,125.332,125.774,123.68Zm-14.323,0c0-1.651,1.068-2.992,2.387-2.992s2.388,1.34,2.388,2.992-1.069,2.993-2.388,2.993S111.451,125.332,111.451,123.68Zm-13.129,0c0-1.651,1.069-2.992,2.387-2.992s2.388,1.34,2.388,2.992-1.068,2.993-2.388,2.993S98.322,125.332,98.322,123.68ZM84,123.68c0-1.651,1.069-2.992,2.387-2.992s2.388,1.34,2.388,2.992-1.068,2.993-2.388,2.993S84,125.332,84,123.68Zm-14.773,0c0-1.651,1.068-2.992,2.386-2.992S74,122.028,74,123.68s-1.068,2.993-2.388,2.993S69.226,125.332,69.226,123.68Zm-14.323,0c0-1.651,1.068-2.992,2.386-2.992s2.388,1.34,2.388,2.992-1.068,2.993-2.388,2.993S54.9,125.332,54.9,123.68Zm-13.129,0c0-1.651,1.067-2.992,2.386-2.992s2.388,1.34,2.388,2.992-1.068,2.993-2.388,2.993S41.774,125.332,41.774,123.68Zm-14.323,0c0-1.651,1.068-2.992,2.387-2.992s2.387,1.34,2.387,2.992-1.068,2.993-2.387,2.993S27.452,125.332,27.452,123.68Zm-13.129,0c0-1.651,1.068-2.992,2.387-2.992s2.388,1.34,2.388,2.992-1.069,2.993-2.388,2.993S14.323,125.332,14.323,123.68ZM0,123.68c0-1.651,1.068-2.992,2.386-2.992a3.068,3.068,0,0,1,0,5.984C1.068,126.672,0,125.332,0,123.68Zm153.226-13.163c0-1.652,1.068-2.992,2.387-2.992a3.068,3.068,0,0,1,0,5.983C154.294,113.508,153.226,112.169,153.226,110.516Zm-14.323,0c0-1.652,1.068-2.992,2.387-2.992a3.068,3.068,0,0,1,0,5.983C139.972,113.508,138.9,112.169,138.9,110.516Zm-13.129,0c0-1.652,1.068-2.992,2.386-2.992a3.068,3.068,0,0,1,0,5.983C126.842,113.508,125.774,112.169,125.774,110.516Zm-14.323,0c0-1.652,1.068-2.992,2.387-2.992a3.068,3.068,0,0,1,0,5.983C112.52,113.508,111.451,112.169,111.451,110.516Zm-13.129,0c0-1.652,1.069-2.992,2.387-2.992a3.068,3.068,0,0,1,0,5.983C99.392,113.508,98.322,112.169,98.322,110.516Zm-14.323,0c0-1.652,1.069-2.992,2.387-2.992a3.068,3.068,0,0,1,0,5.983C85.069,113.508,84,112.169,84,110.516Zm-14.773,0c0-1.652,1.068-2.992,2.386-2.992a3.068,3.068,0,0,1,0,5.983C70.295,113.508,69.226,112.169,69.226,110.516Zm-14.323,0c0-1.652,1.068-2.992,2.386-2.992a3.068,3.068,0,0,1,0,5.983C55.972,113.508,54.9,112.169,54.9,110.516Zm-13.129,0c0-1.652,1.067-2.992,2.386-2.992a3.068,3.068,0,0,1,0,5.983C42.842,113.508,41.774,112.169,41.774,110.516Zm-14.323,0c0-1.652,1.068-2.992,2.387-2.992s2.387,1.339,2.387,2.992-1.068,2.992-2.387,2.992S27.452,112.169,27.452,110.516Zm-13.129,0c0-1.652,1.068-2.992,2.387-2.992a3.068,3.068,0,0,1,0,5.983C15.391,113.508,14.323,112.169,14.323,110.516ZM0,110.516c0-1.652,1.068-2.992,2.386-2.992a3.068,3.068,0,0,1,0,5.983C1.068,113.508,0,112.169,0,110.516ZM153.226,95.558a2.387,2.387,0,1,1,2.387,2.393A2.391,2.391,0,0,1,153.226,95.558Zm-14.323,0a2.387,2.387,0,1,1,2.387,2.393A2.391,2.391,0,0,1,138.9,95.558Zm-13.129,0a2.387,2.387,0,1,1,2.386,2.393A2.391,2.391,0,0,1,125.774,95.558Zm-14.323,0a2.387,2.387,0,1,1,2.387,2.393A2.391,2.391,0,0,1,111.451,95.558Zm-13.129,0a2.387,2.387,0,1,1,2.387,2.393A2.391,2.391,0,0,1,98.322,95.558ZM84,95.558a2.387,2.387,0,1,1,2.387,2.393A2.391,2.391,0,0,1,84,95.558Zm-14.773,0a2.387,2.387,0,1,1,2.386,2.393A2.391,2.391,0,0,1,69.226,95.558Zm-14.323,0a2.387,2.387,0,1,1,2.386,2.393A2.391,2.391,0,0,1,54.9,95.558Zm-13.129,0a2.387,2.387,0,1,1,2.386,2.393A2.39,2.39,0,0,1,41.774,95.558Zm-14.323,0a2.387,2.387,0,1,1,2.387,2.393A2.391,2.391,0,0,1,27.452,95.558Zm-13.129,0a2.387,2.387,0,1,1,2.387,2.393A2.391,2.391,0,0,1,14.323,95.558ZM0,95.558a2.387,2.387,0,1,1,2.386,2.393A2.391,2.391,0,0,1,0,95.558ZM153.226,82.393a2.387,2.387,0,1,1,2.387,2.394A2.389,2.389,0,0,1,153.226,82.393Zm-14.323,0a2.387,2.387,0,1,1,2.387,2.394A2.389,2.389,0,0,1,138.9,82.393Zm-13.129,0a2.387,2.387,0,1,1,2.386,2.394A2.389,2.389,0,0,1,125.774,82.393Zm-14.323,0a2.387,2.387,0,1,1,2.387,2.394A2.389,2.389,0,0,1,111.451,82.393Zm-13.129,0a2.387,2.387,0,1,1,2.387,2.394A2.39,2.39,0,0,1,98.322,82.393ZM84,82.393a2.387,2.387,0,1,1,2.387,2.394A2.39,2.39,0,0,1,84,82.393Zm-14.773,0a2.387,2.387,0,1,1,2.386,2.394A2.389,2.389,0,0,1,69.226,82.393Zm-14.323,0a2.387,2.387,0,1,1,2.386,2.394A2.389,2.389,0,0,1,54.9,82.393Zm-13.129,0a2.387,2.387,0,1,1,2.386,2.394A2.389,2.389,0,0,1,41.774,82.393Zm-14.323,0a2.387,2.387,0,1,1,2.387,2.394A2.389,2.389,0,0,1,27.452,82.393Zm-13.129,0a2.387,2.387,0,1,1,2.387,2.394A2.389,2.389,0,0,1,14.323,82.393ZM0,82.393a2.387,2.387,0,1,1,2.386,2.394A2.389,2.389,0,0,1,0,82.393ZM153.226,70.607A2.387,2.387,0,1,1,155.613,73,2.39,2.39,0,0,1,153.226,70.607Zm-14.323,0A2.387,2.387,0,1,1,141.29,73,2.39,2.39,0,0,1,138.9,70.607Zm-13.129,0A2.387,2.387,0,1,1,128.16,73,2.39,2.39,0,0,1,125.774,70.607Zm-14.323,0A2.387,2.387,0,1,1,113.838,73,2.39,2.39,0,0,1,111.451,70.607Zm-13.129,0A2.387,2.387,0,1,1,100.709,73,2.391,2.391,0,0,1,98.322,70.607ZM84,70.607A2.387,2.387,0,1,1,86.387,73,2.391,2.391,0,0,1,84,70.607Zm-14.773,0A2.387,2.387,0,1,1,71.612,73,2.39,2.39,0,0,1,69.226,70.607Zm-14.323,0A2.387,2.387,0,1,1,57.29,73,2.39,2.39,0,0,1,54.9,70.607Zm-13.129,0A2.387,2.387,0,1,1,44.16,73,2.389,2.389,0,0,1,41.774,70.607Zm-14.323,0A2.387,2.387,0,1,1,29.839,73,2.39,2.39,0,0,1,27.452,70.607Zm-13.129,0A2.387,2.387,0,1,1,16.709,73,2.39,2.39,0,0,1,14.323,70.607ZM0,70.607A2.387,2.387,0,1,1,2.386,73,2.39,2.39,0,0,1,0,70.607ZM153.226,57.443a2.387,2.387,0,1,1,2.387,2.394A2.389,2.389,0,0,1,153.226,57.443Zm-14.323,0a2.387,2.387,0,1,1,2.387,2.394A2.389,2.389,0,0,1,138.9,57.443Zm-13.129,0a2.387,2.387,0,1,1,2.386,2.394A2.389,2.389,0,0,1,125.774,57.443Zm-14.323,0a2.387,2.387,0,1,1,2.387,2.394A2.389,2.389,0,0,1,111.451,57.443Zm-13.129,0a2.387,2.387,0,1,1,2.387,2.394A2.39,2.39,0,0,1,98.322,57.443ZM84,57.443a2.387,2.387,0,1,1,2.387,2.394A2.39,2.39,0,0,1,84,57.443Zm-14.773,0a2.387,2.387,0,1,1,2.386,2.394A2.389,2.389,0,0,1,69.226,57.443Zm-14.323,0a2.387,2.387,0,1,1,2.386,2.394A2.389,2.389,0,0,1,54.9,57.443Zm-13.129,0a2.387,2.387,0,1,1,2.386,2.394A2.389,2.389,0,0,1,41.774,57.443Zm-14.323,0a2.387,2.387,0,1,1,2.387,2.394A2.389,2.389,0,0,1,27.452,57.443Zm-13.129,0a2.387,2.387,0,1,1,2.387,2.394A2.389,2.389,0,0,1,14.323,57.443ZM0,57.443a2.387,2.387,0,1,1,2.386,2.394A2.389,2.389,0,0,1,0,57.443ZM153.226,43.68c0-1.652,1.068-2.992,2.387-2.992S158,42.028,158,43.68s-1.068,2.992-2.388,2.992S153.226,45.332,153.226,43.68Zm-14.323,0c0-1.652,1.068-2.992,2.387-2.992s2.388,1.34,2.388,2.992-1.068,2.992-2.388,2.992S138.9,45.332,138.9,43.68Zm-13.129,0c0-1.652,1.068-2.992,2.386-2.992a2.742,2.742,0,0,1,2.389,2.992,2.742,2.742,0,0,1-2.389,2.992C126.842,46.672,125.774,45.332,125.774,43.68Zm-14.323,0c0-1.652,1.068-2.992,2.387-2.992s2.388,1.34,2.388,2.992-1.069,2.992-2.388,2.992S111.451,45.332,111.451,43.68Zm-13.129,0c0-1.652,1.069-2.992,2.387-2.992s2.388,1.34,2.388,2.992-1.068,2.992-2.388,2.992S98.322,45.332,98.322,43.68ZM84,43.68c0-1.652,1.069-2.992,2.387-2.992s2.388,1.34,2.388,2.992-1.068,2.992-2.388,2.992S84,45.332,84,43.68Zm-14.773,0c0-1.652,1.068-2.992,2.386-2.992S74,42.028,74,43.68s-1.068,2.992-2.388,2.992S69.226,45.332,69.226,43.68Zm-14.323,0c0-1.652,1.068-2.992,2.386-2.992s2.388,1.34,2.388,2.992-1.068,2.992-2.388,2.992S54.9,45.332,54.9,43.68Zm-13.129,0c0-1.652,1.067-2.992,2.386-2.992s2.388,1.34,2.388,2.992-1.068,2.992-2.388,2.992S41.774,45.332,41.774,43.68Zm-14.323,0c0-1.652,1.068-2.992,2.387-2.992s2.387,1.34,2.387,2.992-1.068,2.992-2.387,2.992S27.452,45.332,27.452,43.68Zm-13.129,0c0-1.652,1.068-2.992,2.387-2.992S19.1,42.028,19.1,43.68s-1.069,2.992-2.388,2.992S14.323,45.332,14.323,43.68ZM0,43.68c0-1.652,1.068-2.992,2.386-2.992A2.742,2.742,0,0,1,4.774,43.68a2.742,2.742,0,0,1-2.389,2.992C1.068,46.672,0,45.332,0,43.68ZM153.226,30.516c0-1.651,1.068-2.992,2.387-2.992S158,28.865,158,30.516a2.741,2.741,0,0,1-2.388,2.992C154.294,33.508,153.226,32.169,153.226,30.516Zm-14.323,0c0-1.651,1.068-2.992,2.387-2.992s2.388,1.34,2.388,2.992a2.741,2.741,0,0,1-2.388,2.992C139.972,33.508,138.9,32.169,138.9,30.516Zm-13.129,0c0-1.651,1.068-2.992,2.386-2.992a2.742,2.742,0,0,1,2.389,2.992,2.741,2.741,0,0,1-2.389,2.992C126.842,33.508,125.774,32.169,125.774,30.516Zm-14.323,0c0-1.651,1.068-2.992,2.387-2.992s2.388,1.34,2.388,2.992a2.741,2.741,0,0,1-2.388,2.992C112.52,33.508,111.451,32.169,111.451,30.516Zm-13.129,0c0-1.651,1.069-2.992,2.387-2.992s2.388,1.34,2.388,2.992a2.741,2.741,0,0,1-2.388,2.992C99.392,33.508,98.322,32.169,98.322,30.516ZM84,30.516c0-1.651,1.069-2.992,2.387-2.992s2.388,1.34,2.388,2.992a2.741,2.741,0,0,1-2.388,2.992C85.069,33.508,84,32.169,84,30.516Zm-14.773,0c0-1.651,1.068-2.992,2.386-2.992S74,28.865,74,30.516a2.741,2.741,0,0,1-2.388,2.992C70.295,33.508,69.226,32.169,69.226,30.516Zm-14.323,0c0-1.651,1.068-2.992,2.386-2.992s2.388,1.34,2.388,2.992a2.741,2.741,0,0,1-2.388,2.992C55.972,33.508,54.9,32.169,54.9,30.516Zm-13.129,0c0-1.651,1.067-2.992,2.386-2.992s2.388,1.34,2.388,2.992a2.741,2.741,0,0,1-2.388,2.992C42.842,33.508,41.774,32.169,41.774,30.516Zm-14.323,0c0-1.651,1.068-2.992,2.387-2.992s2.387,1.34,2.387,2.992-1.068,2.992-2.387,2.992S27.452,32.169,27.452,30.516Zm-13.129,0c0-1.651,1.068-2.992,2.387-2.992s2.388,1.34,2.388,2.992a2.741,2.741,0,0,1-2.388,2.992C15.391,33.508,14.323,32.169,14.323,30.516ZM0,30.516c0-1.651,1.068-2.992,2.386-2.992a2.742,2.742,0,0,1,2.389,2.992,2.741,2.741,0,0,1-2.389,2.992C1.068,33.508,0,32.169,0,30.516ZM153.226,15.557a2.387,2.387,0,1,1,2.387,2.393A2.39,2.39,0,0,1,153.226,15.557Zm-14.323,0a2.387,2.387,0,1,1,2.387,2.393A2.39,2.39,0,0,1,138.9,15.557Zm-13.129,0a2.387,2.387,0,1,1,2.386,2.393A2.39,2.39,0,0,1,125.774,15.557Zm-14.323,0a2.387,2.387,0,1,1,2.387,2.393A2.39,2.39,0,0,1,111.451,15.557Zm-13.129,0a2.387,2.387,0,1,1,2.387,2.393A2.391,2.391,0,0,1,98.322,15.557ZM84,15.557a2.387,2.387,0,1,1,2.387,2.393A2.391,2.391,0,0,1,84,15.557Zm-14.773,0a2.387,2.387,0,1,1,2.386,2.393A2.39,2.39,0,0,1,69.226,15.557Zm-14.323,0a2.387,2.387,0,1,1,2.386,2.393A2.39,2.39,0,0,1,54.9,15.557Zm-13.129,0a2.387,2.387,0,1,1,2.386,2.393A2.389,2.389,0,0,1,41.774,15.557Zm-14.323,0a2.387,2.387,0,1,1,2.387,2.393A2.39,2.39,0,0,1,27.452,15.557Zm-13.129,0a2.387,2.387,0,1,1,2.387,2.393A2.39,2.39,0,0,1,14.323,15.557ZM0,15.557a2.387,2.387,0,1,1,2.386,2.393A2.39,2.39,0,0,1,0,15.557ZM153.226,2.393a2.387,2.387,0,1,1,2.387,2.394A2.389,2.389,0,0,1,153.226,2.393Zm-14.323,0a2.387,2.387,0,1,1,2.387,2.394A2.389,2.389,0,0,1,138.9,2.393Zm-13.129,0a2.387,2.387,0,1,1,2.386,2.394A2.389,2.389,0,0,1,125.774,2.393Zm-14.323,0a2.387,2.387,0,1,1,2.387,2.394A2.389,2.389,0,0,1,111.451,2.393Zm-13.129,0a2.387,2.387,0,1,1,2.387,2.394A2.39,2.39,0,0,1,98.322,2.393ZM84,2.393a2.387,2.387,0,1,1,2.387,2.394A2.39,2.39,0,0,1,84,2.393Zm-14.773,0a2.387,2.387,0,1,1,2.386,2.394A2.389,2.389,0,0,1,69.226,2.393Zm-14.323,0A2.387,2.387,0,1,1,57.29,4.787,2.389,2.389,0,0,1,54.9,2.393Zm-13.129,0A2.387,2.387,0,1,1,44.16,4.787,2.389,2.389,0,0,1,41.774,2.393Zm-14.323,0a2.387,2.387,0,1,1,2.387,2.394A2.389,2.389,0,0,1,27.452,2.393Zm-13.129,0a2.387,2.387,0,1,1,2.387,2.394A2.389,2.389,0,0,1,14.323,2.393ZM0,2.393A2.387,2.387,0,1,1,2.386,4.787,2.389,2.389,0,0,1,0,2.393Z" transform="translate(0 36)" fill="#d7ecf9"/>
    </g>
  </g>
</svg>
