<?xml version="1.0" encoding="UTF-8"?>
<svg width="26px" height="23px" viewBox="0 0 26 23" version="1.1" xmlns="http://www.w3.org/2000/svg" xmlns:xlink="http://www.w3.org/1999/xlink">
    <g id="Page-1" stroke="none" stroke-width="1" fill="none" fill-rule="evenodd">
        <g id="1-copy" transform="translate(-358.000000, -1655.000000)" fill="#09458F">
            <g id="Item" transform="translate(102.000000, 1272.000000)">
                <g id="Group-2" transform="translate(244.000000, 370.000000)">
                    <g id="shopping-cart-icon" transform="translate(12.000000, 13.000000)">
                        <path d="M0.827895873,3.87804746e-07 C0.370648982,3.87804746e-07 0,0.371181079 0,0.829052563 C0,1.28692405 0.370648982,1.65810435 0.827895873,1.65810435 L4.01874441,1.65810435 L6.86463648,15.1042659 C6.97723032,15.6104297 7.30849905,16.0316985 7.72702801,16.0283959 L21.5252926,16.0283959 C21.96267,16.0344067 22.3649722,15.6373186 22.3649722,15.1992752 C22.3649722,14.7612319 21.96267,14.3640332 21.5252926,14.3702235 L8.39969341,14.3702235 L8.04609908,12.7121199 L22.6291537,12.7121199 C22.9998303,12.7093564 23.3500579,12.4266221 23.4311641,12.064437 L25.3629211,3.7739136 C25.4705752,3.29276787 25.053288,2.76704126 24.5609108,2.76350673 L5.95050145,2.76350673 L5.50205785,0.656333441 C5.42371131,0.288206812 5.06727454,-0.000386114484 4.69140981,3.87804746e-07 L0.827895873,3.87804746e-07 Z M6.29545807,4.42161031 L23.5174308,4.42161031 L21.9737362,11.0540163 L7.70114247,11.0540163 L6.29545807,4.42161031 Z M10.7626462,17.1337018 C9.24834187,17.1337018 8.0029933,18.3807615 8.0029933,19.8972077 C8.0029933,21.4136264 9.24834187,22.6607137 10.7626462,22.6607137 C12.2769506,22.6607137 13.5222991,21.4136264 13.5222991,19.8972077 C13.5222991,18.3807891 12.2769506,17.1337018 10.7626462,17.1337018 L10.7626462,17.1337018 Z M18.4896744,17.1337018 C16.97537,17.1337018 15.7300215,18.3807615 15.7300215,19.8972077 C15.7300215,21.4136264 16.97537,22.6607137 18.4896744,22.6607137 C20.0039787,22.6607137 21.2493273,21.4136264 21.2493273,19.8972077 C21.2493273,18.3807891 20.0039787,17.1337018 18.4896744,17.1337018 L18.4896744,17.1337018 Z M10.7626462,18.7918053 C11.3821055,18.7918053 11.8665074,19.2768835 11.8665074,19.8972077 C11.8665074,20.5175043 11.3821055,21.0026101 10.7626462,21.0026101 C10.1432421,21.0026101 9.65878505,20.5175043 9.65878505,19.8972077 C9.65878505,19.2768835 10.1432421,18.7918053 10.7626462,18.7918053 Z M18.4896744,18.7918053 C19.1091337,18.7918053 19.5935355,19.2768835 19.5935355,19.8972077 C19.5935355,20.5175043 19.1091337,21.0026101 18.4896744,21.0026101 C17.8702703,21.0026101 17.3858132,20.5175043 17.3858132,19.8972077 C17.3858132,19.2768835 17.8702703,18.7918053 18.4896744,18.7918053 Z" id="Shape"></path>
                    </g>
                </g>
            </g>
        </g>
    </g>
</svg>