<svg id="complete" xmlns="http://www.w3.org/2000/svg" width="48" height="48" viewBox="0 0 48 48">
  <path id="Shape" d="M1.38,33a1,1,0,1,1,1-1,1,1,0,0,1-1,1Z" transform="translate(0 -12)" fill="#0c406b"/>
  <path id="Shape-2" data-name="Shape" d="M24,60a24,24,0,0,0,0-48,26.33,26.33,0,0,0-7.22,1.11,25,25,0,0,0-6.55,3.25A23.39,23.39,0,0,0,5,21.42a17,17,0,0,0-1.1,1.49L3,24.48a25.561,25.561,0,0,0-1.49,3.34,1,1,0,0,0,1.88.69A23.31,23.31,0,0,1,4.7,25.44L5.57,24a14.38,14.38,0,0,1,1-1.36A21.48,21.48,0,0,1,11.38,18a23.19,23.19,0,0,1,6-3A24.37,24.37,0,0,1,24,14,22,22,0,1,1,2,36a1,1,0,0,0-2,0A24,24,0,0,0,24,60Z" transform="translate(0 -12)" fill="#0c406b"/>
  <path id="Shape-3" data-name="Shape" d="M16.5,27A4.5,4.5,0,1,0,21,31.5,4.5,4.5,0,0,0,16.5,27Zm0,7A2.5,2.5,0,1,1,19,31.5,2.5,2.5,0,0,1,16.5,34Z" transform="translate(0 -12)" fill="#0c406b"/>
  <path id="Shape-4" data-name="Shape" d="M36,31.5A4.5,4.5,0,1,0,31.5,36,4.5,4.5,0,0,0,36,31.5Zm-7,0A2.5,2.5,0,1,1,31.5,34,2.5,2.5,0,0,1,29,31.5Z" transform="translate(0 -12)" fill="#0c406b"/>
  <path id="Shape-5" data-name="Shape" d="M13.41,39.47a1.51,1.51,0,0,0-.41,1.1,11,11,0,0,0,22,0,1.51,1.51,0,0,0-.41-1.1,1.54,1.54,0,0,0-1.1-.47h-19a1.54,1.54,0,0,0-1.08.47ZM33,41a9,9,0,0,1-18,0Z" transform="translate(0 -12)" fill="#0c406b"/>
</svg>
