<svg xmlns="http://www.w3.org/2000/svg" width="64.927" height="62.919" viewBox="0 0 64.927 62.919">
  <g id="tick" transform="translate(0.001 -0.003)">
    <path id="Path_51" data-name="Path 51" d="M26.44,237.122a1.082,1.082,0,0,0-.054,1.753L42.4,251.124a1.369,1.369,0,0,0,.379.184,1.057,1.057,0,0,0,.487.011l2.1-.409L29.632,238.875a1.082,1.082,0,0,1,.054-1.753,1.1,1.1,0,0,1,.433-.173l17.441-2.824c-.256-.524-.512-1.029-.777-1.472a28.239,28.239,0,0,0-9.382-9.436,38.5,38.5,0,0,0-4.632-2.435c-.162-.065-1.731-.876-1.883-.746a11.568,11.568,0,0,1,6.583-2.8,12.507,12.507,0,0,0-9.829,2.8c.152-.13,1.721.682,1.883.746a38.494,38.494,0,0,1,4.631,2.435,28.234,28.234,0,0,1,9.382,9.436c.265.442.521.948.777,1.472l-17.442,2.824a1.1,1.1,0,0,0-.432.173Zm0,0" transform="translate(-22.673 -189.576)" fill="#fff"/>
    <path id="Path_52" data-name="Path 52" d="M4.669,369.93l11.175,8.545L23.065,384l-1.314,1.718-7.222-5.522L3.355,371.648Zm0,0" transform="translate(-2.931 -323.017)" fill="#fff"/>
    <g id="Group_35215" data-name="Group 35215" transform="translate(-0.001 0.003)">
      <path id="Path_53" data-name="Path 53" d="M54.957,409.691a.8.8,0,0,0-.2.1.645.645,0,0,0-.169.116,1.485,1.485,0,0,0-.149.158,1.133,1.133,0,0,0-.216.8,1.115,1.115,0,0,0,1.221.934,1.151,1.151,0,0,0,.4-.145,1.1,1.1,0,0,0,.318-.275,1.082,1.082,0,0,0-1-1.732Zm0,0" transform="translate(-47.343 -357.689)" fill="#0c406b"/>
      <path id="Path_54" data-name="Path 54" d="M38.249,43.061c.018-.077.04-.155.058-.231l2.629-.425L60.611,52.711,19.748,60.684l-7.694-5.878a1.082,1.082,0,1,0-1.315,1.719L18.821,62.7a1.094,1.094,0,0,0,.864.2l44.366-8.657a1.082,1.082,0,0,0,.3-2.02l-22.724-11.9a1.085,1.085,0,0,0-.674-.108l-2.045.325A83.421,83.421,0,0,1,55.449,9.661q.758-.906,1.542-1.8a42.552,42.552,0,0,1,3.317-3.341c.124-.108.312-.305.541-.541l.29-.3a2.164,2.164,0,0,0,.433-2.4A2.107,2.107,0,0,0,59.539.005C52.725.23,36.033,3.722,26.474,30.971c-3.709-2.237-15.1-8.116-22.858-1.327a1.082,1.082,0,0,0,.712,1.9h.007a13.224,13.224,0,0,1,1.22.553l.224.108a36.356,36.356,0,0,1,4.488,2.369A26.906,26.906,0,0,1,19.3,43.643c.015.025.029.056.044.082L.908,46.7a1.083,1.083,0,0,0-.9,1.241,1.073,1.073,0,0,0,.416.681l3.438,2.63a1.082,1.082,0,0,0,1.315-1.72l-1.447-1.1,16.644-2.694c.045.093.088.178.132.272.269.567.551,1.158.853,1.748l-9.847,1.6a1.082,1.082,0,0,0-.484,1.927l8.873,6.785a1.075,1.075,0,0,0,.653.223,1.031,1.031,0,0,0,.207-.019l30.353-5.92a1.082,1.082,0,0,0,.3-2.02L40.885,44.823a1.08,1.08,0,0,0-.676-.108l-2.363.386c.013-.071.027-.145.04-.216.11-.616.221-1.224.363-1.823ZM11.412,32.725a38.266,38.266,0,0,0-4.751-2.5l-.1-.05c7.99-4.747,19.756,3.253,19.882,3.34a1.082,1.082,0,0,0,1.641-.548C37.13,5.807,53.14,2.383,59.585,2.174l-.3.309c-.183.191-.333.349-.433.44a44.933,44.933,0,0,0-3.485,3.513q-.8.909-1.579,1.84a85.026,85.026,0,0,0-17.4,33.315c-.005.019-.01.036-.014.054-.077.305-.16.61-.233.916-.151.633-.268,1.283-.386,1.938-.1.564-.2,1.117-.325,1.652l-.006.028a7.007,7.007,0,0,1-1.7,3.555c-1.285,1.284-3.319,1.29-5.333,1.284h-.258c-1.84,0-3.094-1.262-4.121-2.939a.794.794,0,0,0-.071-.118c-.532-.89-1.008-1.885-1.476-2.872-.44-.927-.856-1.8-1.314-2.567a29.056,29.056,0,0,0-9.745-9.8ZM40.2,46.907l7.478,3.919L20.83,56.065,14.337,51.1l8.2-1.332c1.286,1.9,3,3.415,5.6,3.415h.51c2.158,0,4.761-.067,6.614-1.92a8.524,8.524,0,0,0,2.1-3.889Zm0,0" transform="translate(0.001 -0.003)" fill="#0c406b"/>
      <path id="Path_55" data-name="Path 55" d="M299.212,58.9a1.062,1.062,0,0,0,.525.136,1.082,1.082,0,0,0,.947-.557c5.152-9.271,11.362-12.5,11.443-12.543A1.083,1.083,0,1,0,311.153,44c-.277.139-6.855,3.512-12.365,13.429a1.083,1.083,0,0,0,.425,1.471Zm0,0" transform="translate(-260.781 -38.323)" fill="#0c406b"/>
      <path id="Path_56" data-name="Path 56" d="M273.661,176.159a1.082,1.082,0,0,0,1.452-.485l1.082-2.164a1.082,1.082,0,1,0-1.937-.967l-1.082,2.164a1.082,1.082,0,0,0,.485,1.452Zm0,0" transform="translate(-238.435 -150.14)" fill="#0c406b"/>
    </g>
  </g>
</svg>
