<svg xmlns="http://www.w3.org/2000/svg" width="60.021" height="60" viewBox="0 0 60.021 60">
  <g id="vision" transform="translate(-0.988)">
    <path id="Shape" d="M20.41,20.86a14,14,0,0,0,0,18.28,36.66,36.66,0,0,1-13-4.47A17,17,0,0,0,8,30a17,17,0,0,0-.63-4.67,36.66,36.66,0,0,1,13.04-4.47Z" fill="#fff"/>
    <path id="Shape-2" data-name="Shape" d="M53,30a16.62,16.62,0,0,0,.79,5.18,38.5,38.5,0,0,1-12.2,4,14,14,0,0,0,0-18.28,38.5,38.5,0,0,1,12.2,4A16.62,16.62,0,0,0,53,30Z" fill="#fff"/>
    <path id="Shape-3" data-name="Shape" d="M40,24.5A3.5,3.5,0,0,1,36.5,28a3.25,3.25,0,0,1-1-.15,4.9,4.9,0,0,0-2.37-2.36,3.46,3.46,0,0,1-.14-1,3.5,3.5,0,0,1,7,0Z" fill="#fff"/>
    <path id="Shape-4" data-name="Shape" d="M54,3s0,6.5-6,6.5c6,0,6,6.5,6,6.5s0-6.5,6-6.5C54,9.5,54,3,54,3Z" fill="#e8edfc"/>
    <path id="Shape-5" data-name="Shape" d="M8,44s0,6.5-6,6.5c6,0,6,6.5,6,6.5s0-6.5,6-6.5C8,50.5,8,44,8,44Z" fill="#e8edfc"/>
    <path id="Shape-6" data-name="Shape" d="M8,57a8.11,8.11,0,0,1,1.5-4.48,5.37,5.37,0,0,0-4.5-2,5.37,5.37,0,0,0,4.5-2A8.11,8.11,0,0,1,8,44s0,6.5-6,6.5C8,50.5,8,57,8,57Z" fill="#fff"/>
    <path id="Shape-7" data-name="Shape" d="M23.26,13.78l-.41-2A44.69,44.69,0,0,1,31,11v2A42.68,42.68,0,0,0,23.26,13.78Z" fill="#fff"/>
    <g id="Group_35217" data-name="Group 35217">
      <path id="Shape-8" data-name="Shape" d="M27,13.22a1,1,0,1,1,1-1A1,1,0,0,1,27,13.22Z" fill="#0c406b"/>
      <path id="Shape-9" data-name="Shape" d="M1,30a1.89,1.89,0,0,0,0,.43C3.7,41.19,16.3,49,31,49s27.3-7.81,30-18.66A1.72,1.72,0,0,0,61,30a1.89,1.89,0,0,0-.05-.43C58.3,18.81,45.7,11,31,11a1,1,0,0,0,0,2c12.09,0,22.62,5.51,26.68,13.45C53,22,42.68,19,31,19,19.48,19,9.28,21.92,4.5,26.27a21.84,21.84,0,0,1,6.19-7,32.29,32.29,0,0,1,6-3.4,37.94,37.94,0,0,1,6.6-2.05,1.029,1.029,0,0,0-.48-2,40.48,40.48,0,0,0-7,2.17A34.41,34.41,0,0,0,9.5,17.62a22,22,0,0,0-8.44,12v.09A1.72,1.72,0,0,0,1,30ZM31,47C19,47,8.5,41.56,4.41,33.64,9.15,38,19.4,41,31,41s21.86-3,26.6-7.37C53.49,41.56,43,47,31,47ZM8.52,34.19A18.49,18.49,0,0,0,9,30a18.49,18.49,0,0,0-.48-4.19,34,34,0,0,1,9.59-3.46,14.92,14.92,0,0,0,0,15.3A34,34,0,0,1,8.52,34.19ZM43.9,37.65a15,15,0,0,0,0-15.3,36.31,36.31,0,0,1,8.71,3,18.18,18.18,0,0,0,0,9.34A36.31,36.31,0,0,1,43.9,37.65ZM57.9,30a9.73,9.73,0,0,1-3.54,3.64,16.76,16.76,0,0,1,0-7.28A9.73,9.73,0,0,1,57.94,30ZM36.16,27a6.09,6.09,0,0,0-2.11-2.11,1.86,1.86,0,0,1,0-.34A2.5,2.5,0,1,1,36.5,27a1.86,1.86,0,0,1-.34,0ZM35,30a4,4,0,1,1-4-4,4,4,0,0,1,4,4Zm-1.36-8.94a4.42,4.42,0,0,0-1.6,3,5.91,5.91,0,0,0-1-.1,6,6,0,1,0,6,6,5.91,5.91,0,0,0-.1-1,4.46,4.46,0,0,0,3-7.33l1.13.18a12.91,12.91,0,0,1,0,16.38A62.15,62.15,0,0,1,31,39a61.93,61.93,0,0,1-10.06-.81,12.88,12.88,0,0,1,0-16.38A61.93,61.93,0,0,1,31,21q1.34,0,2.64.06ZM6.72,27A16.52,16.52,0,0,1,7,30a16.52,16.52,0,0,1-.28,3,8.88,8.88,0,0,1-2.66-3,8.88,8.88,0,0,1,2.66-3Z" fill="#0c406b"/>
      <path id="Shape-10" data-name="Shape" d="M60,8.5c-4.82,0-5-4.93-5-5.5a1,1,0,0,0-2,0c0,.57-.18,5.5-5,5.5a1,1,0,0,0,0,2c4.83,0,5,4.94,5,5.5a1,1,0,0,0,2,0c0-.57.18-5.5,5-5.5a1,1,0,0,0,0-2ZM54,12a6.46,6.46,0,0,0-2.24-2.5A6.46,6.46,0,0,0,54,7a6.46,6.46,0,0,0,2.24,2.5A6.46,6.46,0,0,0,54,12Z" fill="#0c406b"/>
      <path id="Shape-11" data-name="Shape" d="M2,51.5c4.83,0,5,4.94,5,5.5a1,1,0,0,0,2,0c0-.57.18-5.5,5-5.5a1,1,0,0,0,0-2c-4.82,0-5-4.93-5-5.5a1,1,0,0,0-2,0c0,.57-.18,5.5-5,5.5a1,1,0,0,0,0,2ZM8,48a6.46,6.46,0,0,0,2.24,2.5A6.46,6.46,0,0,0,8,53a6.46,6.46,0,0,0-2.24-2.5A6.46,6.46,0,0,0,8,48Z" fill="#0c406b"/>
      <path id="Shape-12" data-name="Shape" d="M20,51a1,1,0,0,0-2,0v2a1,1,0,0,0,2,0Z" fill="#0c406b"/>
      <path id="Shape-13" data-name="Shape" d="M19,60a1,1,0,0,0,1-1V57a1,1,0,0,0-2,0v2A1,1,0,0,0,19,60Z" fill="#0c406b"/>
      <path id="Shape-14" data-name="Shape" d="M21,56h2a1,1,0,0,0,0-2H21a1,1,0,0,0,0,2Z" fill="#0c406b"/>
      <path id="Shape-15" data-name="Shape" d="M17,54H15a1,1,0,0,0,0,2h2a1,1,0,0,0,0-2Z" fill="#0c406b"/>
      <path id="Shape-16" data-name="Shape" d="M43,0a1,1,0,0,0-1,1V3a1,1,0,0,0,2,0V1A1,1,0,0,0,43,0Z" fill="#0c406b"/>
      <path id="Shape-17" data-name="Shape" d="M42,9a1,1,0,0,0,2,0V7a1,1,0,0,0-2,0Z" fill="#0c406b"/>
      <path id="Shape-18" data-name="Shape" d="M45,6h2a1,1,0,0,0,0-2H45a1,1,0,0,0,0,2Z" fill="#0c406b"/>
      <path id="Shape-19" data-name="Shape" d="M41,4H39a1,1,0,0,0,0,2h2a1,1,0,0,0,0-2Z" fill="#0c406b"/>
    </g>
  </g>
</svg>
