<?xml version="1.0" encoding="UTF-8"?>
<svg width="60px" height="58px" viewBox="0 0 60 58" version="1.1" xmlns="http://www.w3.org/2000/svg" xmlns:xlink="http://www.w3.org/1999/xlink">
    <!-- Generator: Sketch 63.1 (92452) - https://sketch.com -->
    <title>box</title>
    <desc>Created with Sketch.</desc>
    <g id="Page-1" stroke="none" stroke-width="1" fill="none" fill-rule="evenodd">
        <g id="1-copy" transform="translate(-540.000000, -2283.000000)" fill-rule="nonzero">
            <g id="Group-21-Copy" transform="translate(-2.000000, 2242.000000)">
                <g id="Group-19">
                    <g id="Group-16" transform="translate(522.000000, 20.000000)">
                        <g id="box" transform="translate(20.000000, 21.000000)">
                            <path d="M50.625,24.3274854 L9.375,24.3274854 C8.34,24.3274854 7.5,25.165848 7.5,26.1988304 L7.5,43.0409357 C7.5,43.8269006 7.99125,44.5305263 8.73375,44.8 L29.35875,57.8994152 C29.565,57.974269 29.7825,58.0116959 30,58.0116959 C30.2175,58.0116959 30.435,57.974269 30.64125,57.8994152 L51.26625,44.8 C52.005,44.5305263 52.5,43.8269006 52.5,43.0409357 L52.5,26.1988304 C52.5,25.165848 51.66,24.3274854 50.625,24.3274854 Z" id="Path" fill="#BEBEBE"></path>
                            <path d="M50.625,24.3274854 L30,24.3274854 L30,58.0116959 C30.2175,58.0116959 30.435,57.974269 30.64125,57.8994152 L51.26625,44.8 C52.005,44.5305263 52.5,43.8269006 52.5,43.0409357 L52.5,26.1988304 C52.5,25.165848 51.66,24.3274854 50.625,24.3274854 Z" id="Path" fill="#DFDFDF"></path>
                            <g id="Group" fill="#BEBEBE">
                                <polygon id="Path" points="30.0375 4.49122807 7.8375 17.7777778 0 13.0994152 22.5375 0"></polygon>
                                <polygon id="Path" points="60 22.4561404 37.575 35.5555556 30.0375 31.0643275 52.2 17.7777778"></polygon>
                            </g>
                            <polygon id="Path" fill="#1F2027" points="52.2 17.7777778 30.0375 31.0643275 7.8375 17.7777778 30.0375 4.49122807"></polygon>
                            <g id="Group">
                                <polygon id="Path" fill="#DFDFDF" points="7.8375 17.7777778 30.0375 31.0643275 22.5375 35.5555556 0 22.4561404"></polygon>
                                <polygon id="Path" fill="#BEBEBE" points="60 13.0994152 52.2 17.7777778 30.0375 4.49122807 37.575 0"></polygon>
                            </g>
                        </g>
                    </g>
                </g>
            </g>
        </g>
    </g>
</svg>