<?xml version="1.0" encoding="UTF-8"?>
<svg width="92px" height="66px" viewBox="0 0 92 66" version="1.1" xmlns="http://www.w3.org/2000/svg" xmlns:xlink="http://www.w3.org/1999/xlink">
    <title>logo</title>
    <g id="Page-2" stroke="none" stroke-width="1" fill="none" fill-rule="evenodd">
        <g id="logo" fill-rule="nonzero">
            <path d="M10.3830861,11.832113 C10.3830861,9.92051282 10.3830861,8.01071267 10.3830861,6.10271252 C10.3830861,6.00551251 10.3830861,5.9083125 10.3830861,5.8111125 C10.3830861,5.71391249 10.3290861,5.67341248 10.2372861,5.69231249 C9.75938605,5.79221249 9.25178601,5.74361249 8.79548597,5.93801251 C7.9422859,6.29711253 7.15388584,6.72911257 6.6354858,7.55801263 C6.20820646,8.29625132 5.98545819,9.13505231 5.99018575,9.98801283 C5.99642163,10.4037499 6.06934926,10.815791 6.20618577,11.2084129 C6.22688523,11.3250993 6.23413259,11.4437749 6.22778577,11.562113 C6.22778577,11.867213 6.03068575,11.894213 5.79038573,11.894213 L0.139285284,11.894213 L0.139285284,11.829413 C0.182485287,11.829413 0.247285292,11.788913 0.225685291,11.761913 C0.1305358,11.6119348 0.0994189161,11.4300955 0.139285284,11.2570129 C0.139285284,10.6414129 0.139285284,10.0285128 0.139285284,9.41291278 C0.189521443,8.38164526 0.408422239,7.36558073 0.787285335,6.40511254 C1.30323457,5.15126489 2.05272627,4.00686986 2.99588551,3.03281227 C4.14284991,1.83488049 5.58402327,0.958818386 7.17548584,0.492112072 C7.82982585,0.301160778 8.50375296,0.18521633 9.184286,0.146512045 C13.0938863,-0.123487977 17.0142866,0.0709120389 20.9184869,0.0277120354 C21.660987,0.0277120354 22.330587,0.376012063 22.9731871,0.735112092 C23.8686539,1.22877923 24.6147482,1.95435594 25.1331873,2.83571226 C25.6820381,3.69081798 25.98213,4.68177563 26.0000122,5.69771249 C26.0000122,6.36461254 26.0133873,7.04771259 25.7595873,7.66061264 C25.4470704,8.53455303 24.9305743,9.32133025 24.2529872,9.95561282 C24.1672122,10.0355083 24.0860796,10.1202468 24.0099872,10.2094128 C24.6080106,10.6442098 25.1631319,11.1351396 25.6677873,11.675513 C25.6245873,11.964413 25.3977873,11.869913 25.2330873,11.869913 C20.4432869,11.869913 15.6534865,11.869913 10.8636861,11.869913 C10.7024958,11.8819361 10.5404148,11.8691881 10.3830861,11.832113 Z M16.0125865,7.24211261 C16.0125865,7.68491264 16.0125865,8.12771268 16.0125865,8.56781271 C16.0125865,8.77031273 16.0584865,8.83781274 16.2825866,8.83781274 C16.9845866,8.82431273 17.6865867,8.86481274 18.3831867,8.82161273 C18.8988868,8.78921273 19.3875868,8.62721272 19.6305868,8.09261268 C19.7694208,7.75761203 19.8005605,7.38770903 19.7196868,7.03421259 C19.6564906,6.45065174 19.2537173,5.95990433 18.6936868,5.78411249 C17.8620867,5.51411247 17.0196866,5.71391249 16.1853866,5.66261248 C16.0233865,5.66261248 16.0206865,5.76251249 16.0233865,5.8759125 L16.0125865,7.24211261 Z" id="Shape" fill="#0292CE"></path>
            <path d="M10.3830861,11.832113 C10.5381389,11.878007 10.6993108,11.8998608 10.8609861,11.896913 C15.6507865,11.896913 20.4405869,11.896913 25.2303873,11.896913 C25.3923873,11.896913 25.6218873,11.991413 25.6650873,11.702513 C25.9689068,11.9849243 26.2194909,12.3196462 26.4048874,12.690713 C26.827168,13.3767454 27.1541658,14.1170321 27.3768874,14.8912132 C27.5253875,15.4447133 27.6468875,15.9982133 27.7440875,16.5598133 L27.7440875,19.2274136 C27.6747381,19.8792797 27.5232363,20.5197601 27.2931874,21.1336137 C26.9448874,22.1542138 26.3265874,23.0101139 25.7190873,23.8660139 C25.1487087,24.6521864 24.475857,25.3586352 23.7183872,25.9666141 C23.0557748,26.469605 22.335106,26.8911283 21.571887,27.2221142 C20.738383,27.6063131 19.8577586,27.8786712 18.9528868,28.0321143 C18.3372867,28.1419143 17.7216867,28.2472143 17.1060866,28.3480143 C16.8742238,28.3885611 16.6394538,28.4102322 16.4040866,28.4128143 C16.0827866,28.4344143 15.7533865,28.3237143 15.4401865,28.4749143 C15.3672865,28.5748143 15.2592865,28.5316143 15.1701865,28.5316143 C14.3601864,28.5316143 13.5690864,28.5802143 12.7725863,28.5316143 C11.9761957,28.4708317 11.1838477,28.3653656 10.3992861,28.2157143 C9.42728602,28.0321143 8.46878595,27.8161142 7.51568587,27.5596142 C7.29968585,27.5029142 7.24568585,27.3922142 7.24568585,27.1816142 C7.25648585,25.4860141 7.25648585,23.7904139 7.24568585,22.0948138 C7.24568585,21.7978138 7.31588585,21.7843138 7.59398588,21.8491138 C8.67398596,22.0975138 9.73508605,22.3621138 10.8123861,22.5916138 C12.018747,22.8401127 13.2511399,22.9389581 14.4816864,22.8859139 C15.7378938,22.8635153 16.9766848,22.5880243 18.1239867,22.0759138 C19.0519031,21.6545658 19.8574419,21.0041884 20.4648869,20.1859136 C21.0696007,19.3976498 21.3119367,18.3900419 21.131787,17.4130134 C21.109941,17.1402035 21.0675203,16.8694333 21.0048869,16.6030134 C20.7012294,15.5896274 19.9189464,14.7901846 18.9123868,14.4646132 C17.9160867,14.1055132 16.8981866,14.1352132 15.8721865,14.1622132 C15.7479865,14.2513132 15.8073865,14.3809132 15.8073865,14.4889132 C15.8073865,15.6715133 15.8073865,16.8532134 15.8073865,18.0340135 C15.8208116,18.2133128 15.7763297,18.3921867 15.6804865,18.5443135 L14.8056864,18.9493135 L10.6152861,20.8906137 C10.4586861,20.9635137 10.3614861,20.9932137 10.3614861,20.7556137 C10.3740861,17.7766134 10.3812861,14.8021132 10.3830861,11.832113 Z" id="Path" fill="#0181C0"></path>
            <path d="M37.2588882,23.8768139 C36.5851254,23.7989394 35.9221975,23.6458863 35.2824881,23.4205139 C34.3247629,23.0906923 33.4164164,22.6319773 32.5824879,22.0570138 C31.5574285,21.3546103 30.6712911,20.468473 29.9688877,19.4434136 C29.1587872,18.2809888 28.6174121,16.9529136 28.3839875,15.5554133 C28.3110875,15.1585132 28.2867875,14.7454132 28.2381875,14.3485132 C28.2786875,14.0218131 28.1922875,13.6870131 28.3029875,13.3630131 C28.4514875,12.701513 28.3974875,12.013013 28.6323875,11.3596129 C28.7781876,11.5189129 28.4676875,11.748413 28.7052876,11.899613 C28.9428876,12.050813 29.1021876,11.840213 29.3046876,11.899613 C29.3477193,11.9050059 29.3912559,11.9050059 29.4342876,11.899613 L33.0252879,11.899613 C33.2077192,11.9056851 33.3899646,11.8829045 33.5652879,11.832113 C32.2152878,15.1045132 34.483288,18.6982135 37.8474883,19.1005136 C37.8474883,19.2031136 37.9230883,19.2166136 38.0040883,19.2166136 L39.3540884,19.2166136 C39.4350884,19.2166136 39.5052884,19.2031136 39.5106884,19.1005136 C39.7320687,19.073905 39.9519526,19.0360561 40.1694885,18.9871135 C40.7898982,18.8105991 41.3740568,18.5253761 41.8947886,18.1447135 C42.569808,17.65317 43.1314579,17.0224648 43.5417887,16.2952133 C43.8144024,15.7874446 44.0083137,15.2412157 44.1168888,14.6752132 C44.1384888,14.6428132 44.1789888,14.6077132 44.1789888,14.5753132 C44.1789888,14.1028132 44.1789888,13.6330131 44.1789888,13.1632131 C44.1789888,13.0795131 44.1546888,13.0147131 44.0601888,13.0039131 C43.9602888,12.639413 43.9737888,12.245213 43.7901888,11.905013 L48.9714892,11.905013 C49.1532745,12.8559533 49.1942125,13.8284595 49.0929892,14.7913132 C49.0278359,15.7662065 48.7949175,16.7225419 48.4044891,17.6182134 C48.0368384,18.4872567 47.5566312,19.3042444 46.976189,20.0482136 C46.4557443,20.6753403 45.8711674,21.2463434 45.2319889,21.7519138 C44.4861214,22.3389555 43.6606845,22.8171271 42.7803887,23.1721139 C41.9026026,23.5765818 40.9582915,23.8172347 39.9939885,23.8822139 L37.2588882,23.8768139 Z" id="Path" fill="#0281C0"></path>
            <path d="M66.2190905,11.883413 C66.30824,12.1794273 66.3537191,12.4868659 66.3540905,12.7960131 C66.4302195,14.0169804 66.304328,15.2421418 65.9814905,16.4221133 C65.6189455,17.7070876 64.9927494,18.9024693 64.1427904,19.9321136 C63.846186,20.287168 63.5278767,20.6235118 63.1896903,20.9392137 C62.5216829,21.5417687 61.7694908,22.0438365 60.9567901,22.4296138 C60.3517816,22.7337151 59.7188507,22.9787498 59.06679,23.1613139 C58.2428189,23.4277577 57.3776593,23.5439049 56.5125898,23.5042139 C54.4200896,23.5042139 52.3302894,23.5042139 50.2377893,23.5042139 C50.0055892,23.5042139 49.8921892,23.4718139 49.8921892,23.1937139 C49.9029892,19.4299136 49.9029892,15.6661133 49.8921892,11.902313 L53.6424895,11.902313 C53.7825315,11.9165832 53.9237702,11.8913286 54.0501896,11.829413 C54.5035702,12.0896566 54.8900058,12.4520556 55.1787897,12.8878131 C55.4055897,13.2118131 55.5621897,13.5817131 55.8159897,13.8976131 C56.140245,13.3320204 56.83723,13.0996921 57.4359898,13.3576131 C58.0569899,13.5844131 58.5159899,14.0191131 59.02629,14.3944132 C59.69049,14.8777132 60.10629,15.4879133 60.03879,16.3492133 C60.02529,16.5112133 60.10629,16.4761133 60.2142901,16.4383133 C60.4842901,16.3411133 60.7731901,16.2628133 61.0755901,16.1683133 C60.7488901,16.7461134 60.2655901,17.1403134 59.83089,17.5858134 C59.7559084,17.6707257 59.6310068,17.6900286 59.53389,17.6317134 C58.922222,17.3376229 58.3368806,16.9916572 57.7842899,16.5976134 C57.2665325,16.2319938 56.7862854,15.8159606 56.3505898,15.3556133 C56.3505898,15.6499133 56.3505898,15.8524133 56.3505898,16.0522133 C56.3694898,16.3735133 56.2965897,16.7002134 56.4531898,17.0134134 C56.7373837,17.5585523 57.1734734,18.0096471 57.7086899,18.3121135 C58.0596899,18.5281135 58.0650899,18.5362135 57.7761899,18.8251135 C57.3175828,19.2759048 56.9508043,19.8114014 56.6961898,20.4019137 C56.6070898,20.6044137 56.4585898,20.8528137 56.5584898,21.0472137 C56.6016898,21.1282137 56.9121898,20.9554137 57.0984898,20.8960137 C58.4781899,20.4478137 59.86599,20.0131136 61.0242901,19.0843135 C61.5867699,18.6774335 62.0870163,18.1908303 62.5092902,17.6398134 C62.9559845,16.9688242 63.2745559,16.2209137 63.4488903,15.4339133 C63.4704903,15.4015133 63.5136903,15.3691133 63.5136903,15.3367133 C63.5136903,14.8642132 63.5136903,14.3944132 63.5136903,13.9246131 C63.5136903,13.8409131 63.4947903,13.7761131 63.3975903,13.7653131 C63.364231,13.4939151 63.2828637,13.2306143 63.1572903,12.9877131 C62.8994324,12.6159918 62.6718984,12.2241276 62.4768902,11.815913 C62.8337077,11.8746447 63.1955367,11.897259 63.5568903,11.883413 C64.4397904,11.880713 65.3307905,11.883413 66.2190905,11.883413 Z" id="Path" fill="#0281C0"></path>
            <path d="M48.4854891,40.0039152 L48.4611891,43.0522155 C48.421937,43.0840545 48.4032817,43.1348382 48.4125891,43.1845155 L48.4125891,43.1845155 C48.2694891,43.3870155 48.3720891,43.6165155 48.3423891,43.8352155 C48.1533358,44.7875731 47.7228892,45.6754274 47.092289,46.4137157 C46.0797889,47.5099158 44.7891888,48.0499159 43.3689887,48.3739159 C42.6210887,48.5467159 41.8704886,48.4414159 41.1252885,48.5035159 C40.0587885,48.5872159 39.0516884,48.3172159 38.0445883,48.0418159 C37.2513504,47.7554656 36.4917493,47.3833606 35.7792881,46.9321158 C35.7009881,46.8835158 35.5902881,46.8943158 35.6820881,46.7215157 C36.1221881,45.8791157 36.5406882,45.0259156 36.9591882,44.1700155 C37.0509882,43.9810155 37.1346882,43.9243155 37.3452882,44.0431155 C38.1903883,44.5183156 39.0678884,44.9503156 40.0452885,45.0556156 C41.1468885,45.1771156 42.2808886,45.3256156 43.2609887,44.5831156 C43.8468601,44.2041814 44.2053122,43.5581577 44.2167888,42.8605154 L44.2167888,41.3134153 C43.4337887,42.2152154 42.5589887,42.7957154 41.4330886,42.9334154 L39.9372884,42.9334154 C39.1168313,42.8933037 38.3238661,42.6249299 37.6476883,42.1585154 C36.1896881,41.2567153 35.4444881,39.8932152 35.1501881,38.2516151 C35.0502881,37.711615 35.0070881,37.136515 34.9503881,36.5776149 C34.9503881,36.4480149 34.893688,36.3076149 35.0070881,36.1834149 L39.0219884,36.1834149 C39.0454188,36.2714937 39.0286096,36.3654275 38.9760884,36.4399149 C38.8734884,36.5236149 38.9274884,36.5560149 39.0219884,36.5722149 C38.9881228,37.1476605 39.0802672,37.7235634 39.2919884,38.2597151 C39.4862005,38.7657273 39.8384367,39.1956069 40.2963885,39.4855152 C40.79197,39.7689564 41.3659344,39.884507 41.9325886,39.8149152 C43.0074015,39.7016492 43.8830978,38.9014817 44.0925888,37.841215 C44.206483,37.2963363 44.254527,36.739751 44.2356888,36.1834149 L48.4692891,36.1834149 C48.4692891,37.317415 48.4692891,38.4523151 48.4692891,39.5881152 C48.4692891,39.7258152 48.4827891,39.8662152 48.4854891,40.0039152 Z" id="Path" fill="#0292CE"></path>
            <path d="M89.1690924,11.748413 C89.6172924,13.1443131 90.0654924,14.5321132 90.4974925,15.9415133 C90.5298925,16.0387133 90.6378925,16.1035133 90.6054925,16.2115133 C90.4352472,16.3241932 90.2302411,16.3720919 90.0276924,16.3465133 L84.846392,16.3465133 C84.738392,16.3465133 84.608792,16.2898133 84.516992,16.4113133 L84.516992,18.7387135 C84.614192,18.8683135 84.754592,18.8062135 84.876092,18.8062135 C86.3484921,18.8062135 87.8217923,18.8062135 89.2959924,18.8062135 C89.4748744,18.7934781 89.6532706,18.8368973 89.8062924,18.9304135 L89.8062924,23.3584139 C89.6529381,23.4535221 89.4731669,23.4970456 89.2932924,23.4826139 L79.9350916,23.4826139 C79.4571916,23.4826139 79.4490916,23.4826139 79.4490916,22.9912139 C79.4490916,20.8132137 79.4490916,18.6325135 79.4490916,16.4491133 C79.4490916,16.3303133 79.5381916,16.1575133 79.3329916,16.0954133 C78.9405915,14.7886132 78.5526915,13.4827131 78.1692915,12.177713 C78.0996286,12.0464502 78.0582395,11.9020482 78.0477915,11.753813 C78.1640412,11.8498535 78.3133608,11.8963947 78.4635915,11.883413 C81.8979918,11.883413 85.3323921,11.883413 88.7667923,11.883413 C88.9127247,11.8879918 89.0554618,11.8400935 89.1690924,11.748413 Z" id="Path" fill="#0181C1"></path>
            <path d="M48.9822892,11.880713 L43.8009888,11.880713 C43.3338887,10.9411129 42.7884887,10.0717128 41.8866886,9.46961279 C41.18105,9.00756166 40.3894665,8.69258123 39.5592884,8.54351271 C38.5374321,8.36721309 37.4864853,8.48617054 36.5298882,8.88641274 C35.8643283,9.14539826 35.2648118,9.54938014 34.774888,10.0690128 C34.2765903,10.5747488 33.8740846,11.1666152 33.5868879,11.815913 C33.4115646,11.8667045 33.2293192,11.8894851 33.0468879,11.883413 L29.4558876,11.883413 C29.4128559,11.8888059 29.3693193,11.8888059 29.3262876,11.883413 C29.1237876,11.832113 28.9239876,12.010313 28.7268876,11.883413 C28.5297875,11.756513 28.7997876,11.5135129 28.6539875,11.3434129 L28.6701876,11.1544129 C28.8915876,11.0464129 28.7430876,10.8466129 28.7835876,10.6927129 C28.8807876,9.99071283 29.2857876,9.41831278 29.6097876,8.80271273 C30.1400956,7.87514798 30.8197102,7.0413658 31.6212878,6.33491254 C32.4569133,5.59300559 33.4046212,4.98793052 34.429288,4.54211239 C34.9481816,4.29002314 35.4908498,4.09014035 36.0492881,3.94541235 C36.6783882,3.79421233 37.3290882,3.74291233 37.9689883,3.64571232 L39.0786884,3.64571232 C40.4459434,3.66705273 41.7938427,3.97230686 43.0368887,4.54211239 C43.8845206,4.91016105 44.6725751,5.40246756 45.3750889,6.00281251 C46.2218542,6.70930074 46.964501,7.53193887 47.5809891,8.4463127 C48.0093777,9.08800948 48.3533086,9.7822237 48.6042891,10.5118129 C48.6177891,10.6117129 48.5556891,10.7440129 48.7203891,10.7818129 L48.7203891,10.9681129 C48.6304244,11.2019949 48.7038494,11.4672016 48.9012892,11.621513 L48.9228892,11.683613 C48.8175892,11.770013 48.8742892,11.799713 48.9687892,11.815913 L48.9822892,11.880713 Z" id="Path" fill="#0292CE"></path>
            <path d="M72.310291,4.69061241 C72.310291,4.82021242 72.310291,4.96061243 72.310291,5.07671244 C72.310291,9.49211279 72.310291,13.9021131 72.310291,18.3067135 C72.310291,18.5902135 72.364291,18.6847135 72.672091,18.6820135 C74.4108912,18.6820135 76.1469913,18.6820135 77.8830915,18.6820135 C77.8830915,20.2048136 77.8830915,21.7249138 77.8830915,23.2477139 C77.8830915,23.5420139 77.7885915,23.6014139 77.5131914,23.6014139 C74.2245912,23.6014139 70.9341909,23.6014139 67.6419906,23.6014139 C67.4624128,23.613845 67.283575,23.5684259 67.1316906,23.4718139 C67.1316906,21.1858137 67.1316906,18.8980135 67.1316906,16.6084134 C67.1316906,15.9064133 67.1100906,15.2044132 67.1316906,14.5024132 C67.2612906,11.1085129 67.1640906,7.70921265 67.1883906,4.31261238 C67.1883906,4.08581236 67.2558906,4.02371235 67.4799906,4.02632886 C68.9676908,4.02632886 70.4499909,4.03991235 71.948491,4.02632886 C72.261691,4.02632886 72.361591,4.12631236 72.302191,4.41791238 C72.159091,4.09391236 71.867491,4.16141236 71.605591,4.16141236 C70.3014909,4.16141236 68.9946908,4.16141236 67.6878907,4.16141236 C67.3908906,4.16141236 67.2558906,4.27751237 67.2585906,4.5799124 C67.2585906,6.85871258 67.2585906,9.13661276 67.2585906,11.4136129 C67.2585906,11.759213 67.3800906,11.875313 67.7175907,11.875313 C69.0675908,11.875313 70.4364909,11.875313 71.797291,11.875313 C72.113191,11.875313 72.188791,11.786213 72.188791,11.4784129 C72.188791,9.31841277 72.188791,7.1827126 72.188791,5.03351243 C72.196891,4.92551242 72.105091,4.75541241 72.310291,4.69061241 Z" id="Path" fill="#0181C0"></path>
            <path d="M19.0554868,43.6921155 L18.8610868,43.6921155 C18.55948,43.5217582 18.1906935,43.5217582 17.8890867,43.6921155 L15.8154865,43.6921155 C15.6912865,43.4626155 15.4752865,43.6246155 15.3105865,43.5733155 L15.3105865,42.3097154 C14.4886425,43.2459531 13.3157746,43.8001331 12.0705862,43.8406155 L10.8987861,43.8406155 C10.1595857,43.8566786 9.43135479,43.6598594 8.80088597,43.2736155 C7.72088589,42.5878154 7.01888583,41.6077153 7.01348583,40.2550152 C7.01348583,39.7582152 6.94328582,39.2560152 7.08368584,38.7673151 C7.32857052,37.8289079 7.95391138,37.0352437 8.80898597,36.5776149 C9.07634433,36.4287074 9.36236483,36.3161152 9.65948604,36.2428149 C9.86198606,36.3535149 10.0293861,36.1753149 10.2318861,36.1779845 C13.1910863,36.1906149 16.1493866,36.1906149 19.1067868,36.1779845 C19.4037868,36.1779845 19.4604868,36.2725149 19.4604868,36.5479149 C19.4604868,38.6836151 19.4604868,40.8220153 19.4604868,42.9577154 C19.4604868,43.2277155 19.5738868,43.6003155 19.0959868,43.6327155 C19.0689868,43.6300155 19.0635868,43.6678155 19.0554868,43.6921155 Z M13.9092864,38.1274151 C13.4330215,38.1038677 12.9555956,38.1264731 12.4836863,38.1949151 C11.9976862,38.2948151 11.4603862,38.2813151 11.1795862,38.8321151 C11.0987937,39.0373405 11.0417234,39.251128 11.0094861,39.4693152 C10.962262,39.9471843 11.1836934,40.4118783 11.5845862,40.6762153 C12.1294846,40.9553842 12.7530855,41.0410698 13.3530863,40.9192153 C14.0898349,40.809272 14.7376444,40.3727695 15.1161865,39.7312152 C15.4023865,39.2965152 15.2646865,38.8159151 15.3051865,38.3542151 C15.3213865,38.1625151 15.2403865,38.1166151 15.0621865,38.1220151 C14.7192864,38.1355151 14.3682864,38.1274151 13.9092864,38.1274151 Z" id="Shape" fill="#0292CE"></path>
            <path d="M89.1690924,11.748413 C89.0523101,11.8441897 88.9041575,11.8932532 88.7532923,11.886113 C85.3188921,11.886113 81.8844918,11.886113 78.4500915,11.886113 C78.2998608,11.8990947 78.1505412,11.8525535 78.0342915,11.756513 C77.9370915,11.651213 77.9721915,11.5135129 77.9208915,11.3650129 C78.3015915,11.3650129 78.6687915,11.3461129 79.0305916,11.3650129 C79.3167916,11.3866129 79.3923916,11.2975129 79.3923916,11.0113129 C79.3788916,8.80811273 79.3923916,6.60491256 79.3761916,4.40171238 C79.3761916,4.10201236 79.4571916,4.03181235 79.7487916,4.03181235 C82.9995919,4.04261235 86.2503921,4.04261235 89.5011924,4.03181235 C89.8089924,4.03181235 89.8953924,4.10741236 89.8899924,4.42061238 C89.8710924,5.8894125 89.8899924,7.35821262 89.8899924,8.82701273 C89.8899924,9.09701276 89.8278924,9.17261276 89.5524924,9.16991276 C87.9324923,9.15641276 86.3340921,9.16991276 84.727592,9.15371276 C84.441392,9.15371276 84.357692,9.22391277 84.371192,9.51281279 C84.395492,10.0528128 84.387392,10.6144129 84.371192,11.1652129 C84.371192,11.3812129 84.438692,11.4352129 84.641192,11.4352129 C86.0127921,11.4352129 87.3843922,11.4352129 88.7559923,11.4352129 C89.0070923,11.4217129 89.1474924,11.4946129 89.1690924,11.748413 Z" id="Path" fill="#0292CE"></path>
            <path d="M54.0636896,11.810513 C53.9372702,11.8724286 53.7960315,11.8976832 53.6559895,11.883413 L49.9056892,11.883413 C49.9056892,9.40301278 49.9056892,6.92081258 49.9056892,4.43681239 C49.8906556,4.25810206 49.933234,4.07927293 50.0271892,3.92651235 C52.0656894,3.92651235 54.1041896,3.90761234 56.1426897,3.92651235 C56.6019422,3.91799606 57.0605739,3.96422179 57.5088898,4.06421236 C58.1163899,4.21811237 58.7589899,4.16951236 59.34489,4.38821238 C59.9973838,4.60107297 60.6366163,4.85261863 61.2591901,5.14151244 C61.8959318,5.45564628 62.492443,5.84546366 63.0357903,6.30251253 C63.5366425,6.73855067 64.004149,7.21147224 64.4343904,7.71731265 C65.012243,8.44937482 65.4681089,9.26993343 65.7843905,10.1473128 C65.8226945,10.2236018 65.8430142,10.3076513 65.8437905,10.3930129 C65.8869905,10.5226129 65.7357905,10.7197129 65.9760905,10.7845129 L65.9760905,10.7845129 C65.9760905,11.1112129 65.9193905,11.4514129 66.2190905,11.694413 L66.2190905,11.891513 C65.3307905,11.891513 64.4397904,11.891513 63.5514903,11.891513 C63.1901367,11.905359 62.8283077,11.8827447 62.4714902,11.824013 C62.4039902,11.807813 62.4120902,11.751113 62.4066902,11.702513 L62.3553902,11.629613 C62.2454853,11.4602729 62.1549193,11.2791408 62.0853902,11.0896129 C61.6722902,9.93131282 61.2753901,8.75951273 60.5814901,7.73621265 C60.2088901,7.19621261 59.78769,6.67241256 59.13159,6.42401254 C59.0180172,6.36859823 58.8824277,6.38554691 58.7859899,6.46721255 C58.4970899,6.66701256 58.1919899,6.83981258 57.8922899,7.02071259 C57.70391,7.16956838 57.4398725,7.17616932 57.2442898,7.03691259 C57.0694586,6.91655999 56.8733976,6.83043973 56.6664898,6.78311257 C55.7684458,6.5762923 54.8419484,6.52243678 53.9259896,6.62381256 C52.9786124,6.74801935 52.0679231,7.06998019 51.2529893,7.56881263 C51.5634894,7.87121266 51.9387894,8.08721268 52.1817894,8.48141271 C51.8145894,8.58941272 51.4905894,8.4328127 51.1476893,8.4031127 C51.5340261,9.539998 52.2859642,10.5169479 53.2860895,11.1814129 C53.4472707,11.2812461 53.6383652,11.321376 53.8260896,11.2948129 C54.3809598,11.2679594 54.9122798,11.0624399 55.3407897,10.7089129 C55.2596571,11.1439086 54.9499001,11.5011617 54.5307896,11.643113 C54.3768896,11.694413 54.2202896,11.753813 54.0636896,11.810513 Z" id="Path" fill="#0292CE"></path>
            <path d="M30.0768877,30.6025145 C31.3460136,30.6230123 32.5305911,31.2428377 33.2709879,32.2738146 C33.9057197,33.0878043 34.2404238,34.0957307 34.218688,35.1277148 C34.218688,37.660315 34.218688,40.1938152 34.218688,42.7282154 C34.218688,42.8335154 34.218688,42.9415154 34.218688,43.0495155 C34.016188,42.9847154 34.107988,42.8119154 34.107988,42.6904154 C34.107988,40.6276153 34.107988,38.5657151 34.107988,36.5047149 C34.107988,36.2347149 34.032388,36.1726149 33.778588,36.1753149 C32.6769879,36.1753149 31.5753878,36.1942149 30.4737877,36.1753149 C30.1632877,36.1753149 30.0768877,36.2563149 30.0768877,36.5695149 C30.0903877,38.6107151 30.0768877,40.6519153 30.0768877,42.6931154 C30.0768877,42.8146154 30.1686877,42.9847154 29.9634877,43.0495155 C29.9634877,40.8625153 29.9418877,38.6755151 29.9634877,36.4858149 C29.9596293,35.5112357 29.2908554,34.6652367 28.3434875,34.4365148 C27.1689874,34.1827147 26.2482874,34.6282148 25.6191873,35.5948149 C25.4274873,35.8918149 25.4544873,36.2644149 25.2951873,36.5722149 C25.3356873,36.2752149 25.2330873,36.1672149 24.9117873,36.1726149 C23.7372872,36.1942149 22.5627871,36.1915149 21.388287,36.1726149 C21.0939869,36.1726149 21.0075869,36.2482149 21.0075869,36.5479149 C21.0075869,38.5945151 21.0075869,40.6438153 21.0075869,42.6904154 C21.0075869,42.8119154 21.0966869,42.9820154 20.8941869,43.0468155 C20.8941869,40.2676152 20.8941869,37.488415 20.8941869,34.7092148 C20.8941869,33.4267147 20.8941869,32.1442146 20.8941869,30.8644145 C21.0394322,30.7662448 21.2134204,30.7196578 21.388287,30.7321145 C22.3683871,30.7321145 23.3457871,30.7321145 24.3258872,30.7321145 C25.1358873,30.7321145 25.1358873,30.7321145 25.1493873,31.5421145 C25.1493873,31.9120146 25.0737873,32.2873146 25.2060873,32.6491146 C25.3842873,32.7166146 25.3842873,32.5303146 25.4247873,32.4628146 C25.8875482,31.7524423 26.5675596,31.2107062 27.3633874,30.9184145 C27.7548225,30.7028502 28.1936411,30.5878111 28.6404875,30.5836145 L30.0768877,30.6025145 Z" id="Path" fill="#0281C0"></path>
            <path d="M48.4692891,36.1834149 L44.2140888,36.1834149 C44.1934039,36.0804015 44.1672672,35.9785583 44.1357888,35.8783149 C43.9818888,35.4382148 43.8792888,34.9765148 43.5255887,34.6336148 C42.8721887,33.9937147 42.1188886,33.6670147 41.1819885,33.8452147 C40.5133512,33.9429607 39.9156115,34.3147137 39.5322884,34.8712148 C39.2622884,35.2789148 39.1758884,35.7433149 39.0084884,36.1834149 L34.9935881,36.1834149 C35.0313382,34.8512147 35.4834049,33.56391 36.2868882,32.5006146 C36.8979598,31.6393442 37.8023289,31.0306712 38.8302884,30.7888145 C39.1636388,30.6831212 39.5095789,30.6222866 39.8589884,30.6079145 L41.1630885,30.6079145 C42.4185886,30.6430145 43.3392887,31.3180145 44.2113888,32.2846146 L44.2113888,30.7456145 L48.4692891,30.7456145 L48.4692891,36.1834149 Z" id="Path" fill="#0281C0"></path>
            <path d="M0.139285284,11.880713 L5.78768573,11.880713 C6.02798575,11.880713 6.22508577,11.853713 6.22508577,11.548613 C6.46538579,11.818613 6.56258579,12.191213 6.78668581,12.488213 C7.17107544,12.9677991 7.6406312,13.3723676 8.17178592,13.6816131 C8.65147205,13.9728783 9.18841891,14.1570796 9.74588605,14.2216132 C9.81640954,14.226176 9.88183698,14.2599369 9.92642085,14.3147699 C9.97100472,14.369603 9.99070716,14.4405421 9.98078607,14.5105132 C9.98078607,16.2709133 9.98078607,18.0295135 9.98078607,19.7863136 C9.98078607,19.9456136 9.92408606,19.9807136 9.77288605,19.9888136 C8.37484633,20.0513275 6.98317329,19.7655706 5.72288573,19.1572136 C5.10408197,18.8833524 4.50973303,18.5572734 3.94628559,18.1825135 C3.36865804,17.7687188 2.82675822,17.3072008 2.32628546,16.8028134 C1.76147453,16.2415534 1.30396252,15.581821 0.97628535,14.8561132 C0.558306601,14.0237755 0.293970389,13.1228372 0.195985288,12.196613 C0.182440899,12.0904217 0.163516564,11.9849861 0.139285284,11.880713 Z" id="Path" fill="#0281C0"></path>
            <path d="M60.2790901,31.2559145 C60.2790901,32.9713147 60.2790901,34.6867148 60.2790901,36.4021149 C60.2790901,38.7214151 60.2790901,41.0407153 60.2790901,43.3600155 C60.2790901,43.6300155 60.2331901,43.7083155 59.95239,43.7056825 C58.7427899,43.6894155 57.5340898,43.6894155 56.3262897,43.7056825 C56.0562897,43.7056825 55.9887897,43.6300155 55.9914897,43.3627155 C55.9914897,40.4701152 55.9914897,37.579315 55.9914897,34.6903148 C55.9914897,34.5607148 55.9914897,34.4203148 55.9779897,34.3015148 L56.0022897,30.8644145 C56.1318897,30.8293145 56.2290897,30.7321145 56.3829898,30.7347593 C57.6762899,30.7347593 58.96959,30.7347593 60.2601901,30.7347593 L60.2790901,31.2559145 Z" id="Path" fill="#0292CE"></path>
            <path d="M19.0554868,43.6921155 C19.0554868,43.6732155 19.0689868,43.6354155 19.0770868,43.6354155 C19.5549868,43.6030155 19.4415868,43.2439155 19.4415868,42.9604154 C19.4415868,40.8247153 19.4415868,38.6863151 19.4415868,36.5506149 C19.4415868,36.2806149 19.3848868,36.1780149 19.0878868,36.1807149 C16.1286866,36.1915149 13.1703863,36.1915149 10.2129861,36.1807149 C10.0104861,36.1807149 9.84308606,36.3562149 9.64058604,36.2455149 C10.0785889,36.067866 10.5429519,35.9638632 11.0148861,35.9377149 C11.3091862,35.9053149 11.6115862,35.9377149 11.9112862,35.9377149 L15.0432865,35.9377149 C15.1242865,35.9377149 15.2187865,35.9674149 15.2727865,35.8702149 C15.4536865,34.8091148 14.5761864,34.0639147 13.5933864,33.9100147 C12.0138862,33.6616147 10.6233861,34.1800147 9.23018601,34.7659148 C9.04388599,34.8442148 8.96018598,34.8334148 8.86568598,34.6363148 C8.50928595,33.7750147 8.14208592,32.9191146 7.78568589,32.0632146 C7.73978589,31.9552146 7.78568589,31.9525146 7.8720859,31.9066146 C9.05741109,31.3563626 10.3088745,30.9615936 11.5953862,30.7321145 C12.2892862,30.6160145 12.9669863,30.4324145 13.6824864,30.4621145 C14.9352865,30.5269145 16.1691866,30.6538145 17.2977866,31.2721145 C18.1641598,31.7287873 18.8405364,32.477872 19.2066868,33.3862147 C19.4247522,33.9298395 19.5286064,34.5125257 19.5117868,35.0980148 C19.5117868,37.819615 19.5117868,40.5394153 19.5117868,43.2574155 C19.5090868,43.7110155 19.5090868,43.7110155 19.0554868,43.6921155 Z" id="Path" fill="#0381BF"></path>
            <path d="M54.1878896,35.4679149 C54.1878896,35.7055149 54.1743896,35.9431149 54.1662896,36.1807149 L50.4969893,36.1807149 C50.2755893,36.1807149 50.0595893,36.1645149 49.9137892,36.3751149 C49.9137892,35.9350149 49.9137892,35.4922149 49.9137892,35.0494148 C49.9137892,32.0794146 49.9137892,29.1094143 49.9137892,26.1394141 C49.9137892,25.8694141 49.9731892,25.7938141 50.2485893,25.7992141 C51.4689894,25.8154141 52.6785895,25.8127141 53.9070896,25.7992141 C54.1554896,25.7992141 54.2040896,25.8721141 54.2040896,26.1070141 C54.2040896,29.0842143 54.2040896,32.0623146 54.2040896,35.0413148 C54.1770896,35.1898148 54.1851896,35.3221148 54.1878896,35.4679149 Z" id="Path" fill="#0181C0"></path>
            <path d="M72.310291,4.69061241 C72.105091,4.75541241 72.196891,4.92551242 72.196891,5.04701243 C72.196891,7.20701261 72.196891,9.34271278 72.196891,11.4919129 C72.196891,11.799713 72.121291,11.894213 71.805391,11.888813 C70.4553909,11.872613 69.0837908,11.888813 67.7256907,11.888813 C67.3881906,11.888813 67.2666906,11.772713 67.2666906,11.4271129 C67.2666906,9.15011276 67.2666906,6.87221258 67.2666906,4.5934124 C67.2666906,4.29101237 67.3989906,4.17491237 67.6959907,4.17491237 C69.0027908,4.17491237 70.3095909,4.17491237 71.613691,4.17491237 C71.883691,4.17491237 72.167191,4.10741236 72.310291,4.43141239 L72.310291,4.69061241 Z" id="Path" fill="#0292CE"></path>
            <path d="M49.9137892,36.3751149 C50.0595893,36.1645149 50.2755893,36.1780149 50.4969893,36.1807149 L54.1662896,36.1807149 C54.1662896,38.6179151 54.1707896,41.0542153 54.1797896,43.4896155 C54.1797896,43.6705155 54.1068896,43.7002155 53.9502896,43.7002155 C52.6785895,43.7002155 51.4068894,43.7002155 50.1351893,43.7002155 C49.8651892,43.7002155 49.9002892,43.5544155 49.9002892,43.3924155 L49.9002892,39.4207152 C49.9002892,39.2911152 49.9002892,39.1507151 49.8867892,39.0319151 L49.9137892,36.3751149 Z" id="Path" fill="#0292CE"></path>
            <path d="M20.8806869,43.0495155 C21.0831869,42.9847154 20.9940869,42.8146154 20.9940869,42.6931154 C20.9940869,40.6465153 20.9940869,38.5972151 20.9940869,36.5506149 C20.9940869,36.2509149 21.0804869,36.1699149 21.374787,36.1753149 C22.5492871,36.1915149 23.7237872,36.1942149 24.8982873,36.1753149 C25.2195873,36.1753149 25.3221873,36.2779149 25.2816873,36.5749149 L25.2816873,36.5749149 C25.1034873,36.5938149 25.1601873,36.731515 25.1520873,36.844915 L25.1520873,43.7002155 C23.7966872,43.7002155 22.4412871,43.7002155 21.0858869,43.7002155 C20.9373869,43.7002155 20.8671869,43.6570155 20.8806869,43.5004155 C20.8941869,43.3438155 20.8779869,43.2007155 20.8806869,43.0495155 Z" id="Path" fill="#0292CE"></path>
            <path d="M29.9526877,43.0495155 C30.1578877,42.9847154 30.0660877,42.8146154 30.0660877,42.6931154 C30.0660877,40.6519153 30.0660877,38.6107151 30.0660877,36.5695149 C30.0660877,36.2563149 30.1524877,36.1699149 30.4629877,36.1753149 C31.5645878,36.1942149 32.6661879,36.1753149 33.767788,36.1753149 C34.021588,36.1753149 34.099888,36.2455149 34.097188,36.5047149 C34.086388,38.5675151 34.086388,40.6294153 34.097188,42.6904154 C34.097188,42.8119154 34.005388,42.9847154 34.207888,43.0495155 C34.248388,43.7002155 34.248388,43.7002155 33.6003879,43.7002155 C32.5203879,43.7002155 31.4268878,43.7002155 30.3414877,43.7002155 C30.0201877,43.7002155 29.8824876,43.6273155 29.9418877,43.2979155 C29.9518457,43.2155144 29.9554563,43.1324699 29.9526877,43.0495155 Z" id="Path" fill="#0292CE"></path>
            <path d="M60.3978901,26.9737142 C60.5274901,28.3993143 59.25579,29.1877144 58.3809899,29.2552144 C57.7307877,29.3378911 57.0772517,29.1292983 56.5951751,28.6852256 C56.1130985,28.2411529 55.8516624,27.6069042 55.8807897,26.9521142 C55.8809927,25.7982124 56.7504782,24.8297894 57.8976899,24.705714 C59.44749,24.578814 60.5058901,25.7290141 60.3978901,26.9737142 Z" id="Path" fill="#0580BD"></path>
            <path d="M50.0190892,3.92381235 C49.925134,4.07657293 49.8825556,4.25540206 49.8975892,4.43411239 C49.8975892,6.91811258 49.8975892,9.40031278 49.8975892,11.880713 C49.8975892,15.6445133 49.8975892,19.4083136 49.8975892,23.1721139 C49.8975892,23.4421139 50.0109892,23.4853139 50.2431893,23.4826139 C52.3356894,23.4826139 54.4254896,23.4826139 56.5179898,23.4826139 C56.4720898,23.5717139 56.3856898,23.5420139 56.3181897,23.5420139 L49.8381892,23.5420139 C49.8381892,19.6684136 49.8381892,15.7930133 49.8381892,11.915813 C49.8381892,9.24821277 49.8381892,6.58151256 49.8381892,3.91571234 L50.0190892,3.92381235 Z" id="Path" fill="#32728A"></path>
            <path d="M79.3302916,16.0927133 C79.5354916,16.1548133 79.4463916,16.3276133 79.4463916,16.4464133 C79.4463916,18.6280135 79.4463916,20.8087137 79.4463916,22.9885139 C79.4463916,23.4745139 79.4463916,23.4799139 79.9323916,23.4799139 L89.2932924,23.4799139 C89.4731669,23.4943456 89.6529381,23.4508221 89.8062924,23.3557139 C89.8062924,23.4394139 89.8494924,23.5366139 89.7090924,23.5420139 C89.6226924,23.5420139 89.5362924,23.5420139 89.4390924,23.5420139 C86.1990921,23.5420139 82.9590919,23.5420139 79.7190916,23.5420139 C79.4490916,23.5420139 79.3545916,23.4907139 79.3572916,23.1937139 C79.3572916,20.9581137 79.3572916,18.7225135 79.3572916,16.4896133 C79.3774106,16.3569302 79.3681942,16.2214494 79.3302916,16.0927133 Z" id="Path" fill="#32728A"></path>
            <path d="M67.1478906,23.4826139 C67.299775,23.5792259 67.4786128,23.624645 67.6581906,23.6122139 C70.9485909,23.6122139 74.2389912,23.6122139 77.5293914,23.6122139 C77.7993915,23.6122139 77.9019915,23.5528139 77.8992915,23.2585139 C77.8830915,21.7357138 77.8992915,20.2156136 77.8992915,18.6928135 C78.0423915,18.7549135 77.9694915,18.8818135 77.9694915,18.9628135 C77.9694915,20.4316137 77.9694915,21.8977138 77.9694915,23.3665139 C77.9694915,23.6095139 77.9046915,23.6716139 77.6643914,23.6716139 C74.2443912,23.6716139 70.8243909,23.6716139 67.4043906,23.6716139 C67.2720906,23.6770139 67.0992906,23.7310139 67.1478906,23.4826139 Z" id="Path" fill="#32728A"></path>
            <path d="M25.1412873,43.6921155 L25.1412873,36.836815 C25.1581514,36.8327981 25.1757232,36.8327981 25.1925873,36.836815 C25.1925873,39.0688151 25.1925873,41.3008153 25.1925873,43.5328155 C25.2114873,43.5895155 25.2330873,43.6651155 25.1412873,43.6921155 Z" id="Path" fill="#32728A"></path>
            <path d="M84.516992,16.4221133 C84.608792,16.3006133 84.738392,16.3600133 84.846392,16.3573133 L90.0276924,16.3573133 C90.2302411,16.3828919 90.4352472,16.3349932 90.6054925,16.2223133 C90.6810925,16.3141133 90.7107925,16.3951133 90.5514925,16.4194133 C90.4877081,16.4248501 90.4235768,16.4248501 90.3597925,16.4194133 L84.516992,16.4221133 Z" id="Path" fill="#32728A"></path>
            <path d="M25.2060873,32.6680146 C25.0737873,32.3062146 25.1574873,31.9309146 25.1493873,31.5610145 C25.1331873,30.7510145 25.1493873,30.7510145 24.3258872,30.7510145 C23.3457871,30.7510145 22.3683871,30.7510145 21.388287,30.7510145 C21.2092253,30.7346505 21.0299873,30.7804134 20.8806869,30.8806145 C20.8482869,30.7483145 20.8806869,30.6808145 21.0345869,30.6835145 C22.3683871,30.6835145 23.7021872,30.6835145 25.0359873,30.6835145 C25.2168873,30.6835145 25.2168873,30.7834145 25.2141873,30.9103145 L25.2060873,32.6680146 Z" id="Path" fill="#32728A"></path>
            <path d="M89.8062924,18.9385135 C89.6532706,18.8449973 89.4748744,18.8015781 89.2959924,18.8143135 C87.8217923,18.8143135 86.3484921,18.8143135 84.876092,18.8143135 C84.754592,18.8143135 84.606092,18.8764135 84.516992,18.7468135 L89.5497924,18.7468135 C89.6712924,18.7495135 89.8629924,18.6820135 89.8062924,18.9385135 Z" id="Path" fill="#32728A"></path>
            <path d="M15.6912865,18.5470135 C15.7871297,18.3948867 15.8316116,18.2160128 15.8181865,18.0367135 C15.8181865,16.8559134 15.8181865,15.6742133 15.8181865,14.4916132 C15.8181865,14.3836132 15.7587865,14.2540132 15.8829865,14.1649132 L15.8829865,18.2149135 C15.8856865,18.3634135 15.9018865,18.5200135 15.6912865,18.5470135 Z" id="Path" fill="#32728A"></path>
            <path d="M60.2601901,30.7456145 C58.96959,30.7456145 57.6762899,30.7456145 56.3829898,30.7456145 C56.2290897,30.7456145 56.1318897,30.8401145 56.0022897,30.8752145 C55.9860897,30.7753145 55.9725897,30.6781145 56.1264897,30.6808145 L60.2034901,30.6808145 C60.2223901,30.6808145 60.2412901,30.7321145 60.2601901,30.7456145 Z" id="Path" fill="#32728A"></path>
            <path d="M48.4692891,30.7321145 L44.2113888,30.7321145 C44.2356888,30.6187145 44.3274888,30.6592145 44.3922888,30.6592145 C45.6918889,30.6592145 46.989689,30.6592145 48.2856891,30.6592145 C48.3450891,30.6727145 48.4368891,30.6322145 48.4692891,30.7321145 Z" id="Path" fill="#32728A"></path>
            <path d="M15.2808865,35.8621149 C15.2268865,35.9593149 15.1323865,35.9296149 15.0513865,35.9296149 L11.9193862,35.9296149 C12.0138862,35.8162149 12.1407862,35.8702149 12.2514862,35.8702149 C13.2612863,35.8621149 14.2710864,35.8621149 15.2808865,35.8621149 Z" id="Path" fill="#32728A"></path>
            <path d="M0.139285284,9.40211278 C0.139285284,10.0177128 0.139285284,10.6306129 0.139285284,11.2462129 C0.105518249,11.4160689 0.139427381,11.5923964 0.233785291,11.737613 C0.255385293,11.764613 0.190585288,11.797013 0.147385284,11.805113 C0.144870355,11.7953727 0.144870355,11.7851533 0.147385284,11.775413 C-0.00378935156,10.9917884 -0.00653691975,10.186751 0.139285284,9.40211278 L0.139285284,9.40211278 Z" id="Path" fill="#0281C0"></path>
            <path d="M37.2588882,23.8768139 L39.9939885,23.8768139 C39.9642884,23.9362139 39.9102884,23.9362139 39.8562884,23.9362139 L37.3992882,23.9362139 C37.3425882,23.9362139 37.2885882,23.9362139 37.2588882,23.8768139 Z" id="Path" fill="#32728A"></path>
            <path d="M27.7440875,19.2085136 L27.7440875,16.5409133 C27.7629875,16.5652133 27.7980875,16.5895134 27.7980875,16.6138134 C27.7980875,17.4562134 27.7980875,18.2959135 27.7980875,19.1383136 C27.7980875,19.1626136 27.7629875,19.1869136 27.7440875,19.2085136 Z" id="Path" fill="#32728A"></path>
            <path d="M17.8890867,43.6921155 C18.1906935,43.5217582 18.55948,43.5217582 18.8610868,43.6921155 L17.8890867,43.6921155 Z" id="Path" fill="#0381BF"></path>
            <path d="M66.2163905,11.686313 C65.9166905,11.4433129 65.9679905,11.1031129 65.9733905,10.7764129 C66.0892444,11.0693153 66.1707876,11.3746492 66.2163905,11.686313 Z" id="Path" fill="#0580BD"></path>
            <path d="M39.9183884,42.9280154 L41.4141886,42.9280154 C40.9207297,43.0292755 40.4118473,43.0292755 39.9183884,42.9280154 L39.9183884,42.9280154 Z" id="Path" fill="#32728A"></path>
            <path d="M30.0768877,30.6025145 L28.6404875,30.6025145 C29.1139353,30.5012688 29.6034399,30.5012688 30.0768877,30.6025145 Z" id="Path" fill="#32728A"></path>
            <path d="M41.1576885,30.6025145 L39.8535884,30.6025145 C40.2823938,30.5012741 40.7288832,30.5012741 41.1576885,30.6025145 Z" id="Path" fill="#32728A"></path>
            <path d="M10.8879861,43.8352155 L12.0597862,43.8352155 C11.6755788,43.9351545 11.2721936,43.9351545 10.8879861,43.8352155 Z" id="Path" fill="#32728A"></path>
            <path d="M39.0840884,3.64571232 L37.9743883,3.64571232 C38.3375472,3.54584167 38.7209295,3.54584167 39.0840884,3.64571232 Z" id="Path" fill="#32728A"></path>
            <path d="M48.9147892,11.621513 C48.7192948,11.4657901 48.6481278,11.2008301 48.7392891,10.9681129 C48.8387897,11.1727776 48.8983533,11.3945375 48.9147892,11.621513 L48.9147892,11.621513 Z" id="Path" fill="#0281C0"></path>
            <path d="M15.3105865,43.5679155 C15.4752865,43.6192155 15.6912865,43.4572155 15.8154865,43.6867155 C15.6507865,43.6300155 15.4212865,43.8541155 15.3105865,43.5679155 Z" id="Path" fill="#0381BF"></path>
            <path d="M28.3137875,13.3630131 C28.2030875,13.6870131 28.2894875,14.0218131 28.2489875,14.3485132 C28.1193875,14.0434131 28.2057875,13.7275131 28.2084875,13.4143131 C28.2192875,13.3981131 28.2759875,13.3792131 28.3137875,13.3630131 Z" id="Path" fill="#32728A"></path>
            <path d="M15.4401865,28.4749143 C15.7533865,28.3237143 16.0827866,28.4344143 16.4040866,28.4128143 C16.0908866,28.5478143 15.7587865,28.4398143 15.4401865,28.4749143 Z" id="Path" fill="#32728A"></path>
            <path d="M65.9733905,10.7791129 C65.7330905,10.7143129 65.8842905,10.5091129 65.8410905,10.3876129 C65.9260383,10.5005459 65.972421,10.637801 65.9733905,10.7791129 L65.9733905,10.7791129 Z" id="Path" fill="#0580BD"></path>
            <path d="M28.7727876,10.7089129 C28.7322876,10.8628129 28.8807876,11.0626129 28.6593876,11.1706129 C28.6630446,11.0102819 28.7017503,10.8526944 28.7727876,10.7089129 L28.7727876,10.7089129 Z" id="Path" fill="#0281C0"></path>
            <path d="M25.2006873,36.836815 C25.1838232,36.8327981 25.1662514,36.8327981 25.1493873,36.836815 C25.1493873,36.734215 25.1007873,36.5965149 25.2789873,36.5668149 C25.2906643,36.6637159 25.2623952,36.7611956 25.2006873,36.836815 L25.2006873,36.836815 Z" id="Path" fill="#0281C0"></path>
            <path d="M48.7203891,10.7818129 C48.5556891,10.7494129 48.6177891,10.6171129 48.6042891,10.5118129 C48.6960891,10.5820129 48.6744891,10.6954129 48.7203891,10.7818129 Z" id="Path" fill="#0281C0"></path>
            <path d="M48.9822892,11.815913 C48.8877892,11.799713 48.8310892,11.770013 48.9363892,11.683613 C49.0092892,11.710613 48.9903892,11.764613 48.9822892,11.815913 Z" id="Path" fill="#0281C0"></path>
            <path d="M91.5099925,54.1357163 C91.4851323,54.9237638 91.4021065,55.7088992 91.2615925,56.4847165 C91.0447953,57.9238669 90.6000168,59.3192683 89.9439924,60.6184169 C89.5205988,61.3819292 89.015429,62.0971336 88.4373923,62.751417 C87.8495835,63.4425924 87.1572024,64.0374935 86.3853921,64.5145172 C85.817385,64.8503288 85.2072347,65.1090978 84.570992,65.2840172 C83.5005421,65.6040879 82.3765573,65.7050996 81.2661917,65.5810172 C80.5649074,65.5376663 79.8771473,65.36847 79.2357916,65.0815172 C78.5649995,64.7925743 77.9306193,64.42554 77.3457914,63.9880171 C76.8354069,63.5628224 76.3612725,63.0959128 75.9282913,62.592117 C75.5524872,62.1600142 75.2247627,61.6883443 74.9508912,61.1854169 C74.3403756,60.1149375 73.9081268,58.9522427 73.6710911,57.7429166 C73.3734175,56.2541545 73.2726551,54.7327323 73.3713911,53.2177163 C73.4775087,52.0651903 73.6578835,50.9207126 73.9113911,49.791416 C74.1259552,48.7815141 74.4147392,47.7888193 74.7753912,46.8214158 C75.1020912,50.6284161 76.5411914,54.0574163 78.3258915,57.3757166 C77.7696915,57.4945166 77.1783914,57.2137166 75.8958913,56.2336165 C75.89071,56.4144214 75.9033713,56.5952967 75.9336913,56.7736165 C76.1247676,58.1112893 76.5507163,59.4046745 77.1918914,60.5941168 C77.4400983,61.0764082 77.7698594,61.5121314 78.1665915,61.882017 C78.4938717,62.2026811 78.8459664,62.4969962 79.2195916,62.762217 C79.9876574,63.2718493 80.8926899,63.5355425 81.8142918,63.5182171 C82.5434976,63.5574349 83.2740378,63.4715964 83.9742919,63.2644171 C85.4201581,62.754927 86.6960854,61.8538325 87.6597922,60.6616169 C88.7061579,59.3720024 89.4506515,57.8645643 89.8386924,56.2498165 C90.0406051,55.4638901 90.1422128,54.6555643 90.1410924,53.8441163 C90.1789386,52.6592563 90.1546052,51.4732267 90.0681924,50.290916 C89.9952924,49.597016 89.7981924,48.9166159 89.6982924,48.2254159 C89.3850924,46.1923157 88.7424923,44.2456155 88.1214923,42.2854154 C87.7755199,41.1048166 87.3515886,39.9484763 86.8524922,38.8240151 C86.7282922,38.4514151 86.6148922,38.0734151 86.4771921,37.706215 C86.2690882,37.2449053 86.0887661,36.7715598 85.9371921,36.2887149 C85.9312753,36.2463942 85.908321,36.2083294 85.8736519,36.1833473 C85.8389827,36.1583651 85.7956104,36.1486356 85.7535921,36.1564149 L85.4295921,36.1564149 C85.3377921,35.8864149 85.264892,35.5840149 85.159592,35.3113148 C85.0440478,35.0375688 84.889441,34.7820128 84.700592,34.5526148 C84.2936866,34.0894773 83.7177355,33.8092848 83.1021919,33.7750147 C82.4631075,33.6745717 81.8109902,33.8437116 81.3012917,34.2421148 C80.7213528,34.7374851 80.3381819,35.424319 80.2212916,36.1780149 L76.8192914,36.1780149 C76.2225913,36.1780149 76.2225913,36.1780149 76.2117913,36.769315 C76.1064913,36.6856149 76.1496913,36.5695149 76.1550913,36.4696149 C76.2522913,34.7740148 76.6950914,33.2296147 77.9559915,31.9876146 C78.5308749,31.3641778 79.2859669,30.9356631 80.1159916,30.7618145 C81.0906917,30.5863145 82.0815918,30.3892144 83.0643919,30.6835145 C83.8008992,30.8792925 84.4672246,31.2789006 84.986792,31.8364146 C85.046192,31.9012146 85.100192,32.0173146 85.205492,31.9849146 C85.3107921,31.9525146 85.243292,31.8256146 85.2783921,31.7554146 C85.6914921,30.9454145 86.0316921,30.0868144 86.9469922,29.6656144 C87.3357922,29.4874144 87.6975922,29.2687144 88.1484923,29.3092144 C89.2608924,29.4064144 90.1329924,30.2461144 89.8440924,31.4692145 C89.6214817,32.3301619 89.0419064,33.0551221 88.2510923,33.4618147 C87.8163923,33.7156147 87.3627922,33.9721147 87.2493922,34.5418148 C87.188841,34.9449143 87.2538886,35.3568819 87.4356922,35.7217149 C87.8298923,36.6424149 88.0053923,37.630615 88.3509923,38.5648151 C88.7208923,39.5611152 89.0691924,40.5628153 89.3607924,41.5861153 C89.9007924,43.5112155 90.5352925,45.4201156 90.8889925,47.3911158 C91.0860925,48.4711159 91.2777925,49.567316 91.3776925,50.6716161 C91.4451925,51.4303161 91.4964925,52.1890162 91.5018925,52.9504162 L91.5099925,54.1357163 Z M74.5944912,50.296316 C74.6673912,50.336816 74.6457912,50.407016 74.6565912,50.466416 C74.7348912,51.0253161 74.7834912,51.5869161 74.8995912,52.1377162 C75.0374203,52.8013339 75.2427898,53.4491073 75.5124913,54.0709163 C75.8445913,54.8323164 76.2225913,55.5721164 76.9110914,56.1013165 C76.3889208,55.0130173 75.937972,53.8919586 75.5610913,52.7452162 C75.277306,52.0167496 75.0533646,51.2663655 74.8914912,50.501516 C74.8239912,50.074916 74.6754912,49.659116 74.6349912,49.2244159 C74.6349912,49.1920159 74.5944912,49.2244159 74.5863912,49.2541159 L74.5863912,49.2838159 C74.485038,49.6141377 74.4878661,49.9676581 74.5944912,50.296316 Z M85.8534921,32.3116146 C85.8669921,32.5033146 85.8534921,32.7112146 86.0370921,32.8219146 C86.2206921,32.9326147 86.3988921,32.7976146 86.5527922,32.6896146 C87.1967147,32.2241327 87.6042679,31.4998129 87.6678922,30.7078145 C87.6861773,30.4979669 87.5807709,30.2966407 87.3978922,30.1921144 C87.2304922,30.0949144 87.1278922,30.2785144 86.9874922,30.3514144 C86.7514777,30.4993603 86.5557566,30.7034297 86.4177921,30.9454145 C86.1340376,31.3551554 85.9415978,31.8210623 85.8534921,32.3116146 L85.8534921,32.3116146 Z" id="Shape" fill="#0580BD"></path>
            <path d="M71.543491,43.6921155 C71.0898909,43.7164155 71.0898909,43.7164155 71.0898909,43.2655155 C71.0898909,41.0407153 71.1114909,38.8159151 71.0898909,36.5938149 C71.0898909,35.6812149 70.7010909,34.9333148 69.7911908,34.5688148 C69.1431754,34.2794789 68.4000786,34.2931567 67.7631497,34.6061438 C67.1262209,34.9191309 66.6613701,35.4990392 66.4944906,36.1888149 C66.350199,36.7364904 66.2856346,37.3021107 66.3027905,37.868215 C66.3027905,39.6718152 66.3027905,41.4754153 66.3027905,43.2682155 C66.3027905,43.7191155 66.3027905,43.7191155 65.8491905,43.6948155 C66.3351905,43.4869155 66.2379905,43.0603155 66.2379905,42.6715154 C66.2379905,40.7635153 66.2379905,38.8555151 66.2379905,36.947515 C66.2317078,36.7977314 66.2462466,36.6478007 66.2811905,36.5020149 C66.3918905,36.1429149 66.4026905,36.1456149 66.0732905,36.1888149 C65.9977447,36.1928626 65.9220363,36.1928626 65.8464905,36.1888149 L62.0961902,36.1888149 C62.0961902,34.4626148 62.0961902,32.7382146 62.0961902,31.0156145 C62.0961902,30.7996145 62.1690902,30.7456145 62.3661902,30.7456145 C63.3570903,30.7456145 64.3506904,30.7456145 65.3361905,30.7456145 C65.6223905,30.7456145 65.9868905,30.6160145 66.1731905,30.8104145 C66.3594905,31.0048145 66.2055905,31.3504145 66.2325905,31.6204145 C66.2622905,31.9687146 66.1569905,32.3251146 66.2892905,32.6680146 C66.3837905,32.7598146 66.4296906,32.6680146 66.4593906,32.6086146 C67.1100906,31.4773145 68.1900907,30.9346145 69.3726908,30.6349145 C70.2177909,30.4216145 71.1006909,30.5512145 71.978191,30.7078145 C72.8196805,30.8694 73.5813027,31.3120929 74.1381912,31.9633146 C74.7402211,32.6026754 75.1264624,33.4148209 75.2424913,34.2853148 C75.2720305,34.4640382 75.2909636,34.6443536 75.2991913,34.8253148 C75.2991913,37.525315 75.2991913,40.2253152 75.2991913,42.9253154 C75.2991913,42.9685154 75.2991913,43.0117155 75.2991913,43.0549155 C75.0939912,42.9901154 75.1857912,42.8200154 75.1857912,42.6985154 C75.1857912,40.6384153 75.1857912,38.5783151 75.1857912,36.5182149 C75.1857912,36.3400149 75.2127913,36.1807149 74.9373912,36.1834149 C73.7925911,36.1834149 72.650491,36.1834149 71.505691,36.1834149 C71.2788909,36.1834149 71.1681909,36.2860149 71.1681909,36.5155149 C71.1681909,38.7493151 71.1681909,40.9822153 71.1681909,43.2142155 C71.157164,43.3688453 71.2512541,43.5116409 71.3976909,43.5625155 C71.454391,43.5868155 71.532691,43.5895155 71.543491,43.6921155 Z" id="Path" fill="#0381BF"></path>
            <path d="M76.2063913,36.772015 C76.2063913,36.1834149 76.2063913,36.1807149 76.8138914,36.1807149 L80.2158916,36.1807149 C80.2158916,36.3427149 80.2347916,36.5047149 80.2158916,36.6640149 C80.1095819,37.663303 80.495186,38.6519797 81.2499917,39.3154152 C81.9222918,39.9310152 82.7538918,39.9499152 83.5179919,39.7474152 C84.765392,39.4153152 85.4241921,38.1490151 85.4079921,37.020415 C85.4079921,36.750415 85.4079921,36.4588149 85.4079921,36.1780149 L85.7319921,36.1780149 C85.7740104,36.1702356 85.8173827,36.1799651 85.8520518,36.2049473 C85.886721,36.2299294 85.9096753,36.2679942 85.9155921,36.3103149 C86.0671661,36.7931599 86.2474882,37.2665053 86.4555921,37.727815 C86.5932922,38.0950151 86.7066922,38.4730151 86.8308922,38.8456151 C86.591235,39.6669794 86.1694782,40.4237422 85.5969921,41.0596153 C84.913892,41.8021154 84.228092,42.5473154 83.1858919,42.8281154 C82.4774063,42.9912161 81.744327,43.0177902 81.0258917,42.9064154 C80.2660001,42.808265 79.5324119,42.56343 78.8658915,42.1855154 C78.324421,41.8652504 77.8554886,41.4358554 77.4888914,40.9246153 C76.9198022,40.1921512 76.5321377,39.3354034 76.3575913,38.4244151 C76.2792913,37.884415 76.2576913,37.325515 76.2063913,36.772015 Z" id="Path" fill="#0292CE"></path>
            <path d="M62.0880902,36.1834149 L65.8383905,36.1834149 C65.9139363,36.1874626 65.9896447,36.1874626 66.0651905,36.1834149 C66.3945905,36.1402149 66.3837905,36.1375149 66.2730905,36.4966149 C66.2381466,36.6424007 66.2236078,36.7923314 66.2298905,36.942115 C66.2298905,38.8519151 66.2298905,40.7599153 66.2298905,42.6661154 C66.2298905,43.0549155 66.3270905,43.4761155 65.8410905,43.6894155 L62.2041902,43.6894155 C62.1690902,43.5625155 62.0772902,43.4626155 62.0772902,43.3087155 C62.0880902,40.9309153 62.0916902,38.5558151 62.0880902,36.1834149 Z" id="Path" fill="#0292CE"></path>
            <path d="M71.543491,43.6921155 C71.543491,43.5949155 71.454391,43.5922155 71.3841909,43.5652155 C71.2377541,43.5143409 71.143664,43.3715453 71.1546909,43.2169155 C71.1546909,40.9849153 71.1546909,38.7520151 71.1546909,36.5182149 C71.1546909,36.2887149 71.2653909,36.1861149 71.492191,36.1861149 C72.636991,36.1861149 73.7790911,36.1861149 74.9238912,36.1861149 C75.1938912,36.1861149 75.1722912,36.3427149 75.1722912,36.5209149 C75.1722912,38.5810151 75.1722912,40.6411153 75.1722912,42.7012154 C75.1722912,42.8227154 75.0804912,42.9928154 75.2856913,43.0576155 C75.3234913,43.7056155 75.3234913,43.7083155 74.6700912,43.7056155 L71.543491,43.6921155 Z" id="Path" fill="#0292CE"></path>
            <path d="M62.0880902,36.1834149 C62.0880902,38.5576151 62.0880902,40.9318153 62.0880902,43.3060155 C62.0880902,43.4599155 62.1798902,43.5598155 62.2149902,43.6867155 C62.1285902,43.6867155 62.0313902,43.7191155 62.0313902,43.5814155 C62.0313902,43.4950155 62.0313902,43.4086155 62.0313902,43.3114155 C62.0313902,39.2128151 62.0313902,35.1142148 62.0313902,31.0156145 C62.0313902,30.7456145 62.0826902,30.6484145 62.3796902,30.6510599 C63.5973903,30.6700145 64.8096904,30.6646145 66.0354905,30.6510599 C66.2622905,30.6510599 66.3324905,30.7105145 66.3243905,30.9400145 C66.3054905,31.5097145 66.3243905,32.0821146 66.3108905,32.6545146 C66.1785905,32.3116146 66.2838905,31.9552146 66.2541905,31.6069145 C66.2271905,31.3369145 66.3675905,30.9751145 66.1947905,30.7969145 C66.0219905,30.6187145 65.6547905,30.7348145 65.3577905,30.7321145 C64.3668904,30.7321145 63.3732903,30.7321145 62.3877902,30.7321145 C62.1798902,30.7321145 62.1177902,30.7915145 62.1177902,31.0021145 C62.1015902,32.7301146 62.0916902,34.4572148 62.0880902,36.1834149 Z" id="Path" fill="#32728A"></path>
            <path d="M91.5099925,54.1357163 L91.5099925,52.9612162 C91.6085111,53.3465184 91.6085111,53.7504142 91.5099925,54.1357163 Z" id="Path" fill="#32728A"></path>
            <path d="M48.3450891,43.8325155 C48.3747891,43.6138155 48.2721891,43.3843155 48.4152891,43.1818155 C48.3801891,43.3978155 48.4692891,43.6246155 48.3450891,43.8325155 Z" id="Path" fill="#0281C0"></path>
            <path d="M48.4125891,43.1845155 C48.4032817,43.1348382 48.421937,43.0840545 48.4611891,43.0522155 C48.4692891,43.1062155 48.4692891,43.1521155 48.4125891,43.1845155 Z" id="Path" fill="#0281C0"></path>
            <path d="M37.8582883,19.0843135 C38.4102909,19.1572275 38.9694858,19.1572275 39.5214884,19.0843135 C39.5214884,19.1869136 39.4458884,19.2004136 39.3648884,19.2004136 L38.0148883,19.2004136 C37.9392883,19.2004136 37.8636883,19.1869136 37.8582883,19.0843135 Z" id="Path" fill="#32728A"></path>
            <path d="M44.1276888,14.6536132 C44.1006888,14.0974132 44.1870888,13.5385131 44.0790888,12.9823131 C44.1735888,12.9823131 44.1978888,13.0579131 44.1978888,13.1416131 C44.1978888,13.6114131 44.1978888,14.0812132 44.1978888,14.5537132 C44.1897888,14.5861132 44.1492888,14.6212132 44.1276888,14.6536132 Z" id="Path" fill="#32728A"></path>
            <path d="M63.4353903,15.4339133 C63.4619628,14.8773492 63.4466195,14.3195747 63.3894903,13.7653131 C63.4866903,13.7653131 63.5055903,13.8409131 63.5055903,13.9246131 C63.5055903,14.3944132 63.5055903,14.8642132 63.5055903,15.3367133 C63.5001903,15.3691133 63.4569903,15.4015133 63.4353903,15.4339133 Z" id="Path" fill="#32728A"></path>
            <path d="M38.9571884,36.4372149 C39.0219884,36.4642149 39.0138884,36.5155149 39.0030884,36.5695149 C38.9085884,36.5533149 38.8545884,36.5209149 38.9571884,36.4372149 Z" id="Path" fill="#0281C0"></path>
            <path d="M62.4039902,11.694413 C62.3866236,11.693489 62.3706416,11.6846461 62.3606331,11.6704235 C62.3506246,11.6562009 62.3476968,11.6381718 62.3526902,11.621513 L62.4039902,11.694413 Z" id="Path" fill="#0281C0"></path>
            <path d="M74.5836912,49.2838159 C74.5836912,49.621316 74.5836912,49.958816 74.5836912,50.296316 C74.4797055,49.9668256 74.4797055,49.6133063 74.5836912,49.2838159 Z" id="Path" fill="#32728A"></path>
            <path d="M53.5290895,8.05211267 C53.516109,7.92700124 53.5616045,7.80290263 53.6523744,7.71582685 C53.7431443,7.62875108 53.8690251,7.58844807 53.9934896,7.60661264 C54.2210616,7.62699601 54.4045602,7.80154341 54.4362896,8.02781267 C54.429134,8.28344817 54.2319754,8.49336414 53.9772896,8.51651271 C53.8528017,8.52616896 53.7305044,8.4797351 53.6437948,8.38989137 C53.5570851,8.30004763 53.5150211,8.17617934 53.5290895,8.05211267 Z" id="Path" fill="#0580BD"></path>
        </g>
    </g>
</svg>