<svg xmlns="http://www.w3.org/2000/svg" xmlns:xlink="http://www.w3.org/1999/xlink" width="38.65" height="38.661" viewBox="0 0 38.65 38.661">
  <defs>
    <filter id="Path_21423" x="4.52" y="0" width="34.131" height="34.131" filterUnits="userSpaceOnUse">
      <feOffset dy="3" input="SourceAlpha"/>
      <feGaussianBlur stdDeviation="2" result="blur"/>
      <feFlood flood-opacity="0.459"/>
      <feComposite operator="in" in2="blur"/>
      <feComposite in="SourceGraphic"/>
    </filter>
    <filter id="Path_21422" x="0" y="4.531" width="34.131" height="34.13" filterUnits="userSpaceOnUse">
      <feOffset dy="3" input="SourceAlpha"/>
      <feGaussianBlur stdDeviation="2" result="blur-2"/>
      <feFlood flood-opacity="0.459"/>
      <feComposite operator="in" in2="blur-2"/>
      <feComposite in="SourceGraphic"/>
    </filter>
  </defs>
  <g id="copy-icon" transform="translate(3.326 0.33)">
    <g transform="matrix(1, 0, 0, 1, -3.33, -0.33)" filter="url(#Path_21423)">
      <path id="Path_21423-2" data-name="Path 21423" d="M26.476,2.67H10.044a2.852,2.852,0,0,0-2.85,2.85v.73h1.9V5.52a.951.951,0,0,1,.95-.951H26.475a.952.952,0,0,1,.95.951V21.952a.951.951,0,0,1-.95.949h-.72v1.9h.72a2.853,2.853,0,0,0,2.85-2.85V5.52A2.851,2.851,0,0,0,26.476,2.67Z" transform="translate(3.33 0.33)" fill="#fff"/>
    </g>
    <g transform="matrix(1, 0, 0, 1, -3.33, -0.33)" filter="url(#Path_21422)">
      <path id="Path_21422-2" data-name="Path 21422" d="M21.956,7.2H5.524a2.853,2.853,0,0,0-2.85,2.85v16.43a2.853,2.853,0,0,0,2.85,2.85H21.955a2.852,2.852,0,0,0,2.85-2.85V10.051A2.852,2.852,0,0,0,21.956,7.2Zm.95,19.279a.951.951,0,0,1-.95.949H5.524a.951.951,0,0,1-.95-.949V10.05a.951.951,0,0,1,.95-.951H21.955a.951.951,0,0,1,.95.951V26.48Z" transform="translate(3.33 0.33)" fill="#fff"/>
    </g>
  </g>
</svg>
