<svg xmlns="http://www.w3.org/2000/svg" width="47.251" height="47.264" viewBox="0 0 47.251 47.264">
  <g id="digi-icon01" transform="translate(331.477 230.678)">
    <path id="Path_21894" data-name="Path 21894" d="M-287.733-183.415H-327.97a.583.583,0,0,0-.125-.057,3.93,3.93,0,0,1-3.381-4.126q0-19.452.005-38.9a4.639,4.639,0,0,1,.148-1.23,3.9,3.9,0,0,1,3.927-2.941c2.492-.011,4.983,0,7.475,0q15.734,0,31.467,0a4.208,4.208,0,0,1,2.855.972,4.322,4.322,0,0,1,1.372,2.537v40.246a12.487,12.487,0,0,1-.821,1.915A3.863,3.863,0,0,1-287.733-183.415Zm1.935-39.351H-329.9v.591q0,17.191,0,34.382c0,1.9.9,2.806,2.79,2.806h38.526c1.887,0,2.79-.909,2.79-2.807q0-17.191,0-34.382Zm-.025-1.627c0-.9.033-1.764-.011-2.62a2.131,2.131,0,0,0-.867-1.569,2.7,2.7,0,0,0-1.773-.525q-19.378.005-38.756,0a3.761,3.761,0,0,0-.689.045,2.07,2.07,0,0,0-1.829,1.6,23.9,23.9,0,0,0-.21,3.062Z" transform="translate(0 0)" fill="#0470ba"/>
    <path id="Path_21896" data-name="Path 21896" d="M-231.719-119.352a15.763,15.763,0,0,1-15.76,15.721,15.71,15.71,0,0,1-15.731-15.78,15.723,15.723,0,0,1,15.767-15.7A15.783,15.783,0,0,1-231.719-119.352Zm-26.667-9.04a14.017,14.017,0,0,0-3.212,8.171c.07.032.1.056.125.056,1.827.005,3.654.013,5.481,0a.418.418,0,0,0,.278-.3,29.183,29.183,0,0,1,.739-5.6.5.5,0,0,0-.185-.425C-256.206-127.129-257.267-127.739-258.386-128.392Zm21.817,0c-1.065.627-2.07,1.242-3.1,1.812a.481.481,0,0,0-.295.642,24.621,24.621,0,0,1,.7,5.328c.006.353.1.474.474.469,1.673-.02,3.347-.008,5.021-.01.13,0,.261-.021.419-.034A14.091,14.091,0,0,0-236.569-128.4Zm-25.036,9.82a14.053,14.053,0,0,0,3.221,8.223c1.117-.651,2.18-1.261,3.228-1.9a.5.5,0,0,0,.18-.428,26.977,26.977,0,0,1-.719-5.567c-.005-.315-.165-.337-.409-.335-.938.007-1.876,0-2.814,0Zm28.254.037h-5.889a29.2,29.2,0,0,1-.748,5.962c-.022.1.124.29.239.358.489.288,1.01.523,1.493.82.557.343,1.086.732,1.642,1.112A14.127,14.127,0,0,0-233.35-118.539Zm-7.465-1.644a25.192,25.192,0,0,0-.71-5.5l-5.132.948v4.548Zm-12.613-5.494a25.13,25.13,0,0,0-.7,5.484h5.833v-4.542ZM-253.513-113a1.782,1.782,0,0,0,.252,0,18.269,18.269,0,0,1,4.695-.857c.292-.009.3-.182.3-.4,0-.753,0-1.506,0-2.258,0-.671,0-1.341,0-2.03h-5.974Zm11.988-.02a25.359,25.359,0,0,0,.7-5.531h-5.792c-.026.052-.051.078-.051.1-.006,1.428-.018,2.857,0,4.285,0,.1.207.273.336.293.514.08,1.043.077,1.554.172C-243.712-113.5-242.653-113.256-241.525-113.019Zm-6.78-13.429v-7.031c-2.733,1.221-3.721,3.632-4.673,6.133A15.8,15.8,0,0,0-248.306-126.447Zm6.315-.892a12.789,12.789,0,0,0-2.452-4.586,4.552,4.552,0,0,0-2.2-1.474v6.955A15.873,15.873,0,0,0-241.991-127.339Zm-4.661,15.047v6.921c2.069-.367,4.08-3.758,4.605-6.057A15.886,15.886,0,0,0-246.652-112.293Zm-6.31.885a12.49,12.49,0,0,0,2.585,4.738,4.127,4.127,0,0,0,2.075,1.32v-6.942A15.948,15.948,0,0,0-252.961-111.408Zm-1.5-16.446a16.271,16.271,0,0,1,2.521-4.9,13.312,13.312,0,0,0-5.326,3.178Zm11.438-4.89a16.688,16.688,0,0,1,2.553,4.889l2.773-1.729A13.232,13.232,0,0,0-243.019-132.744ZM-251.9-105.97a16.007,16.007,0,0,1-2.575-4.916l-2.788,1.721A13.509,13.509,0,0,0-251.9-105.97Zm11.412-4.918a15.258,15.258,0,0,1-2.685,5.005,14.263,14.263,0,0,0,5.477-3.287Z" transform="translate(-60.376 -84.524)" fill="#2ca7df"/>
    <path id="Path_21897" data-name="Path 21897" d="M-187.817-201.87h-12.819c-.123,0-.246,0-.369,0-.62-.008-.994-.306-.988-.787s.381-.784,1-.784q13.165,0,26.33,0a1.471,1.471,0,0,1,.5.075.707.707,0,0,1,.494.791.715.715,0,0,1-.637.684,3.129,3.129,0,0,1-.552.021Z" transform="translate(-114.518 -24.087)" fill="#0470ba"/>
    <path id="Path_21898" data-name="Path 21898" d="M-296.114-201.875c-.8,0-1.158-.247-1.147-.793.01-.522.38-.776,1.136-.775a3.05,3.05,0,0,1,.5.021.766.766,0,0,1,.686.835.761.761,0,0,1-.765.711C-295.837-201.866-295.976-201.875-296.114-201.875Z" transform="translate(-30.261 -24.087)" fill="#0470ba"/>
    <path id="Path_21899" data-name="Path 21899" d="M-261.72-202.563a.763.763,0,0,1-.795.772.784.784,0,0,1-.754-.775.8.8,0,0,1,.8-.779A.776.776,0,0,1-261.72-202.563Z" transform="translate(-60.324 -24.174)" fill="#0470ba"/>
    <path id="Path_21900" data-name="Path 21900" d="M-234.391-202.628a.767.767,0,0,1-.794.779.763.763,0,0,1-.749-.776.785.785,0,0,1,.793-.786A.782.782,0,0,1-234.391-202.628Z" transform="translate(-84.501 -24.116)" fill="#0470ba"/>
  </g>
</svg>
