<svg xmlns="http://www.w3.org/2000/svg" width="51.188" height="52.027" viewBox="0 0 51.188 52.027">
  <g id="digi-icon02" transform="translate(415.563 142.25)">
    <g id="Group_1232" data-name="Group 1232" transform="translate(-415.563 -142.25)">
      <path id="Path_21901" data-name="Path 21901" d="M-411.274,45.062V62.088h22.156V61.5q0-3.65,0-7.3c0-.142-.007-.285,0-.426a.835.835,0,0,1,.839-.85.821.821,0,0,1,.857.83c.021.372.006.746.006,1.119q0,3.3,0,6.608v.639c.548,0,1.057-.006,1.566,0,.667.01.986.318.989.978a15.068,15.068,0,0,1-.045,2.128,4.214,4.214,0,0,1-4.3,3.713q-11,.011-22.008,0a4.693,4.693,0,0,1-.846-.08,4.237,4.237,0,0,1-3.5-4.115c-.011-.533-.008-1.066,0-1.6.008-.723.312-1.018,1.05-1.025.478,0,.955,0,1.507,0v-.644q0-8.446,0-16.892c0-.981.245-1.227,1.223-1.227,2.469,0,4.938,0,7.407,0a.891.891,0,0,1,.967.586.847.847,0,0,1-.9,1.119c-1.3.012-2.593,0-3.89,0Zm1.671,22.167c.061-.7-.2-1.626.815-1.664,1.136-.043.841.978.923,1.629h15.316c.064-1.274.227-1.655.8-1.645,1.16.021.863.973.95,1.641,3.656.505,4.5-1.459,4.181-3.331h-27.227c0,.35-.016.668,0,.984a2.542,2.542,0,0,0,2.322,2.378C-410.907,67.265-410.285,67.229-409.6,67.229Z" transform="translate(415.563 -16.917)" fill="#0470ba"/>
      <path id="Path_21902" data-name="Path 21902" d="M-353.838-8.387-364.525.428c.271.476.536.949.807,1.419.408.707.822,1.411,1.229,2.118.38.661.316,1.169-.174,1.437s-.939.053-1.32-.6c-.648-1.118-1.3-2.237-1.972-3.406-1.068.629-2.131,1.2-3.132,1.864a1.591,1.591,0,0,0-.436,2.1c.554,1.011,1.128,2.013,1.732,3a1.653,1.653,0,0,0,2.191.616.688.688,0,0,0,.1-.047c3.488-2.352,7.525-3.448,11.379-4.959,2-.783,4.015-1.511,6.079-2.285-.108-.194-.2-.358-.29-.52q-1.69-2.928-3.38-5.856a.871.871,0,0,1,.378-1.362c.452-.15.818.024,1.128.558q1.6,2.765,3.193,5.534c.275.477.553.951.823,1.431.43.764.269,1.219-.552,1.528Q-352,4.97-357.257,6.94c-.662.249-1.324.5-2.041.77.533.935,1.066,1.827,1.557,2.742A2.55,2.55,0,0,1-359,14.057a2.543,2.543,0,0,1-3.182-1.1c-.576-.956-1.122-1.931-1.612-2.779a20.067,20.067,0,0,1-2.574.687,3,3,0,0,1-2.361-.957c-.319.175-.623.356-.939.513a2.563,2.563,0,0,1-3.417-1.009,2.545,2.545,0,0,1,.914-3.441,1.651,1.651,0,0,1,.276-.159c.452-.175.591-.424.525-.965A3.213,3.213,0,0,1-370,1.789a1.324,1.324,0,0,1,.22-.149c3.706-1.8,6.667-4.62,9.814-7.182,1.887-1.536,3.755-3.1,5.633-4.643.679-.559,1.161-.477,1.6.272.235.4.473.793.692,1.2a.862.862,0,0,1-.249,1.218.854.854,0,0,1-1.225-.358C-353.611-8-353.7-8.155-353.838-8.387Zm-7.113,16.721-1.466.844c.6,1.032,1.151,2.018,1.738,2.984a.813.813,0,0,0,1.121.275.815.815,0,0,0,.333-1.1C-359.769,10.342-360.351,9.371-360.952,8.335Zm-8.785.1-.825-1.424c-1.115.562-1.4,1-1.063,1.565S-370.725,9.113-369.737,8.439Z" transform="translate(379.421 29.307)" fill="#0470ba"/>
      <path id="Path_21903" data-name="Path 21903" d="M-156.384-136.3c1.652,0,3.3,0,4.956,0a2.554,2.554,0,0,1,2.715,2.7q.008,4.983,0,9.966a2.547,2.547,0,0,1-2.672,2.687q-5.009.01-10.019,0a2.548,2.548,0,0,1-2.658-2.647c-.009-1.6,0-3.2,0-4.8,0-.681.3-1.068.833-1.08.547-.012.87.389.871,1.1,0,1.546,0,3.091,0,4.636,0,.8.294,1.084,1.1,1.085q4.876,0,9.753,0c.8,0,1.087-.295,1.087-1.1q0-4.876,0-9.753c0-.8-.293-1.088-1.1-1.089q-4.876,0-9.753,0c-.8,0-1.086.29-1.092,1.092,0,.462.009.924,0,1.386a.861.861,0,0,1-.877.929.858.858,0,0,1-.822-.93q-.018-.826,0-1.652a2.542,2.542,0,0,1,2.56-2.527C-159.795-136.31-158.089-136.3-156.384-136.3Z" transform="translate(199.89 137.15)" fill="#0470ba"/>
      <path id="Path_21904" data-name="Path 21904" d="M-164.049,57.032c0-1.652,0-3.3,0-4.956a2.561,2.561,0,0,1,2.744-2.722q4.929,0,9.859,0a2.56,2.56,0,0,1,2.747,2.718q.008,2.371,0,4.743c0,.671-.322,1.063-.852,1.062s-.85-.391-.851-1.063c0-1.563,0-3.126,0-4.69,0-.765-.3-1.065-1.065-1.065q-4.9,0-9.806,0c-.768,0-1.067.3-1.068,1.061q0,4.9,0,9.806c0,.769.3,1.07,1.059,1.071q4.9,0,9.806,0c.769,0,1.067-.3,1.074-1.057,0-.48-.009-.96,0-1.439a.851.851,0,0,1,.84-.91.845.845,0,0,1,.856.894c.016.6.025,1.209,0,1.812a2.5,2.5,0,0,1-2.412,2.394q-5.249.044-10.5,0a2.5,2.5,0,0,1-2.428-2.544C-164.06,60.443-164.048,58.737-164.049,57.032Z" transform="translate(199.875 -22.061)" fill="#0470ba"/>
      <path id="Path_21905" data-name="Path 21905" d="M-403.6-74.656q0,3.251,0,6.5c0,.835-.285,1.119-1.12,1.119q-4.851,0-9.7,0c-.835,0-1.117-.284-1.118-1.12q0-6.556,0-13.113c0-.837.282-1.118,1.119-1.118q4.851,0,9.7,0c.836,0,1.118.283,1.119,1.119Q-403.6-77.961-403.6-74.656Zm-1.729-5.986h-8.464v11.873h8.464Z" transform="translate(415.543 90.912)" fill="#0470ba"/>
      <path id="Path_21906" data-name="Path 21906" d="M-319.719-134.586a7.683,7.683,0,0,1,7.712-7.664,7.679,7.679,0,0,1,7.637,7.738,7.687,7.687,0,0,1-7.766,7.611A7.684,7.684,0,0,1-319.719-134.586Zm13.644,0a5.974,5.974,0,0,0-5.96-5.964,5.979,5.979,0,0,0-5.978,6,5.981,5.981,0,0,0,5.934,5.937A5.974,5.974,0,0,0-306.076-134.581Z" transform="translate(333.371 142.25)" fill="#0470ba"/>
      <g id="Group_1225" data-name="Group 1225" transform="translate(40.092 31.557)">
        <g id="Group_1224" data-name="Group 1224" transform="translate(0 0)">
          <path id="Path_21907" data-name="Path 21907" d="M-127.256,82.7a3.417,3.417,0,0,1-3.409,3.426,3.418,3.418,0,0,1-3.411-3.37,3.417,3.417,0,0,1,3.382-3.452A3.415,3.415,0,0,1-127.256,82.7Zm-3.415-1.689a1.71,1.71,0,0,0-1.7,1.7,1.709,1.709,0,0,0,1.735,1.71,1.711,1.711,0,0,0,1.672-1.721A1.716,1.716,0,0,0-130.672,81.014Z" transform="translate(134.077 -79.307)" fill="#2ca7df"/>
        </g>
      </g>
      <g id="Group_1226" data-name="Group 1226" transform="translate(40.122 4.255)">
        <path id="Path_21908" data-name="Path 21908" d="M-130.485-108.976c1.332.064,1.686.25,1.7.853s-.35.809-1.7.9c0,.8,0,1.612,0,2.422a.86.86,0,0,1-.7.939.843.843,0,0,1-1-.886c-.016-.814,0-1.628,0-2.471-.7-.1-1.691.2-1.675-.905.015-1.06.975-.775,1.677-.856,0-.326-.009-.624,0-.921a2.553,2.553,0,0,1,2.462-2.463c.568-.019,1.137-.013,1.705,0a.859.859,0,0,1,.941.864c-.009.5-.379.825-.971.837-.426.008-.853,0-1.279,0-.9,0-1.159.273-1.157,1.188C-130.485-109.317-130.485-109.161-130.485-108.976Z" transform="translate(133.865 112.374)" fill="#2ca7df"/>
      </g>
      <path id="Path_21909" data-name="Path 21909" d="M-175.647,21.952a.9.9,0,0,1-.987-.769.868.868,0,0,1,.762-.933q2.06-.422,4.122-.831a.886.886,0,0,1,1.163.637c.113.534-.186.932-.834,1.067-1.32.276-2.642.54-3.964.806A1.927,1.927,0,0,1-175.647,21.952Z" transform="translate(210.67 3.634)" fill="#0470ba"/>
      <path id="Path_21910" data-name="Path 21910" d="M-212.6-42.121a4.755,4.755,0,0,1,.319-.647q1.215-1.643,2.45-3.272a.845.845,0,0,1,1.247-.244.844.844,0,0,1,.108,1.268q-1.213,1.645-2.452,3.271a.763.763,0,0,1-1.016.32A3.151,3.151,0,0,1-212.6-42.121Z" transform="translate(241.512 60.107)" fill="#0470ba"/>
      <path id="Path_21911" data-name="Path 21911" d="M-189.625-17.237a3.4,3.4,0,0,1,.686.691.746.746,0,0,1-.31.974c-1.1.835-2.2,1.666-3.314,2.483a.839.839,0,0,1-1.262-.147.838.838,0,0,1,.24-1.21c.715-.551,1.443-1.085,2.165-1.626.368-.276.73-.562,1.107-.824A5.98,5.98,0,0,1-189.625-17.237Z" transform="translate(225.548 35.043)" fill="#0470ba"/>
      <g id="Group_1227" data-name="Group 1227" transform="translate(3.42 15.346)">
        <path id="Path_21912" data-name="Path 21912" d="M-389.035-32.8c-.533,0-1.066.01-1.6,0a.855.855,0,0,1-.92-.832.852.852,0,0,1,.937-.867q1.625-.016,3.251,0a.85.85,0,0,1,.92.83.86.86,0,0,1-.938.868C-387.933-32.788-388.484-32.8-389.035-32.8Z" transform="translate(391.554 34.508)" fill="#2ca7df"/>
      </g>
      <g id="Group_1228" data-name="Group 1228" transform="translate(3.42 18.758)">
        <path id="Path_21913" data-name="Path 21913" d="M-389.01-8.842c-.533,0-1.066.009-1.6,0a.859.859,0,0,1-.944-.862.861.861,0,0,1,.966-.839q1.6-.013,3.2,0a.855.855,0,0,1,.945.86.865.865,0,0,1-.967.84C-387.944-8.834-388.477-8.842-389.01-8.842Z" transform="translate(391.553 10.551)" fill="#2ca7df"/>
      </g>
      <g id="Group_1229" data-name="Group 1229" transform="translate(5.125 11.93)">
        <path id="Path_21914" data-name="Path 21914" d="M-377.91-56.781c-.284,0-.57.017-.852,0a.843.843,0,0,1-.815-.825.831.831,0,0,1,.829-.863c.585-.024,1.173-.024,1.758,0a.831.831,0,0,1,.816.823.845.845,0,0,1-.83.866C-377.3-56.763-377.608-56.78-377.91-56.781Z" transform="translate(379.578 58.492)" fill="#2ca7df"/>
      </g>
      <g id="Group_1231" data-name="Group 1231" transform="translate(18.765 4.28)">
        <g id="Group_1230" data-name="Group 1230">
          <path id="Path_21915" data-name="Path 21915" d="M-283.814-108.82c0-.8-.008-1.6,0-2.4a.865.865,0,0,1,1.366-.839c1.623.8,3.247,1.593,4.845,2.438a1.326,1.326,0,0,1,.578.8c.09.4-.233.67-.592.848-1.619.805-3.232,1.622-4.855,2.419a.855.855,0,0,1-1.341-.821C-283.825-107.186-283.814-108-283.814-108.82Zm1.721,1.184,2.33-1.174-2.33-1.165Z" transform="translate(283.818 112.203)" fill="#2ca7df"/>
        </g>
      </g>
    </g>
  </g>
</svg>
