<svg xmlns="http://www.w3.org/2000/svg" width="23.49" height="24" viewBox="0 0 23.49 24">
  <g id="google-icon" transform="translate(-0.255)">
    <path id="Path_21941" data-name="Path 21941" d="M23.745,12.27a13.9,13.9,0,0,0-.19-2.27h-11.3v4.51h6.47a5.571,5.571,0,0,1-2.4,3.58v3h3.86A11.733,11.733,0,0,0,23.745,12.27Z" transform="translate(0 0)" fill="#4285f4"/>
    <path id="Path_21942" data-name="Path 21942" d="M12.255,24a11.431,11.431,0,0,0,7.93-2.91l-3.86-3a7.239,7.239,0,0,1-4.07,1.16,7.167,7.167,0,0,1-6.73-4.96H1.545v3.09A11.982,11.982,0,0,0,12.255,24Z" transform="translate(0 0)" fill="#34a853"/>
    <path id="Path_21943" data-name="Path 21943" d="M5.525,14.29A6.963,6.963,0,0,1,5.145,12a7.234,7.234,0,0,1,.38-2.29V6.62H1.545a11.864,11.864,0,0,0,0,10.76Z" transform="translate(0 0)" fill="#fbbc05"/>
    <path id="Path_21944" data-name="Path 21944" d="M12.255,4.75a6.511,6.511,0,0,1,4.6,1.8l3.42-3.42A11.473,11.473,0,0,0,12.255,0,11.982,11.982,0,0,0,1.545,6.62l3.98,3.09A7.167,7.167,0,0,1,12.255,4.75Z" fill="#ea4335"/>
  </g>
</svg>
