<svg width="394" height="90" viewBox="0 0 394 90" fill="none" xmlns="http://www.w3.org/2000/svg">
<path fill-rule="evenodd" clip-rule="evenodd" d="M49.9162 88.794H79.7072V38.357L20.0762 21.26V0H0.326172V88.794H30.1172V60.838H49.9162V88.794Z" fill="#4DBC15"/>
<path fill-rule="evenodd" clip-rule="evenodd" d="M251.706 38.808V66.143C251.721 67.705 251.939 69.259 252.355 70.765C252.773 72.294 253.477 73.731 254.429 74.999C255.418 76.304 256.689 77.368 258.148 78.111C261.802 79.702 265.96 79.702 269.614 78.111C271.072 77.368 272.344 76.304 273.333 74.999C274.283 73.73 274.988 72.294 275.407 70.765C275.822 69.259 276.038 67.705 276.049 66.143V38.928H287.028V67.202C287.028 74.456 284.608 84.01 273.064 88.37C267.177 90.528 260.714 90.543 254.817 88.412C245.411 84.884 240.74 77.828 240.74 67.244V38.808H251.705H251.706ZM221.132 45.328C223.511 47.716 225.416 50.531 226.749 53.626C228.128 56.849 228.827 60.323 228.802 63.829C228.839 70.791 226.067 77.482 221.118 82.379C218.696 84.748 215.846 86.638 212.721 87.946C206.061 90.679 198.586 90.679 191.927 87.946C188.802 86.638 185.952 84.748 183.53 82.379C178.585 77.48 175.818 70.789 175.86 63.829C175.836 60.323 176.535 56.85 177.913 53.626C182.099 43.884 191.731 37.54 202.334 37.54C209.382 37.54 216.148 40.343 221.131 45.328H221.132ZM340.02 38.893V48.32L313.75 78.957H341.438V88.8H299.723V79.274L325.802 48.735H300.633V38.892H340.02V38.893ZM392.256 38.893V48.32L365.986 78.957H393.674V88.8H351.959V79.274L378.038 48.735H352.869V38.892H392.256V38.893ZM130.349 21.26V42.266C136.198 37.553 145.237 36.297 152.604 39.345C160.26 42.513 164.649 49.534 164.656 58.608V88.787H153.613V62.242C153.613 56.004 150.445 48.716 141.526 48.716C131.81 48.716 130.356 57.19 130.356 62.242V88.794H119.299V21.26H130.349ZM216.08 70.222C217.49 66.072 217.49 61.571 216.08 57.422C215.448 55.594 214.451 53.914 213.152 52.483C211.849 51.103 210.272 50.009 208.523 49.272C204.548 47.691 200.115 47.691 196.14 49.272C194.39 50.008 192.814 51.102 191.511 52.483C190.206 53.913 189.208 55.593 188.576 57.422C187.165 61.571 187.165 66.073 188.576 70.222C189.208 72.051 190.207 73.732 191.511 75.161C192.814 76.542 194.39 77.636 196.14 78.372C200.116 79.948 204.547 79.948 208.523 78.372C210.272 77.635 211.849 76.542 213.152 75.161C214.452 73.73 215.449 72.049 216.08 70.222Z" fill="black"/>
</svg>
