<svg xmlns="http://www.w3.org/2000/svg" width="44" height="36.073" viewBox="0 0 44 36.073">
  <g id="icon-img-02" transform="translate(-939 -2594.974)">
    <path id="Path_2261" data-name="Path 2261" d="M510.75,459.242v-24c.412-1.992,2.575-3.121,5-3,1.219.061,1.778-.019,3,0a3.712,3.712,0,0,0,2-1c1.149-1.168,1.857-2.827,3-4,.96-.985,2.63-1.005,4-1q5.5.021,11,0c1.369,0,2.04.013,3,1,1.152,1.185,2.838,2.825,4,4,.388.392.447,1,1,1,1.409-.013,2.591,0,4,0,.876,0,2.293-.513,3,0,.867.629.725,1.988,1,3v24c-.5,2.164-1.87,3-4,3-11.84-.008-24.16,0-36,0a3.143,3.143,0,0,1-1,0A3.727,3.727,0,0,1,510.75,459.242Zm22,0c5.93,0,12.07,0,18,0a1.963,1.963,0,0,0,2-2c0-7.2,0-13.8,0-21a1.945,1.945,0,0,0-2-2c-1.252-.007-2.748-.021-4,0-1.436.023-2,.047-3-1-1.1-1.156-2.881-2.862-4-4-.4-.406-.425,0-1,0-3.742.014-7.258.014-11,0-.575,0-1.6-.406-2,0-1.18,1.2-1.812,2.809-3,4a6.2,6.2,0,0,1-3,1,4.911,4.911,0,0,1-1,0c-1.252.013-2.748-.017-4,0-.9.012-.88,1.113-1,2-.023.17,0-.172,0,0,0,7.11,0,13.89,0,21,0,1.257-.254,2,1,2Z" transform="translate(428.25 2168.758)" fill="#0470ba"/>
    <path id="Path_2262" data-name="Path 2262" d="M536.791,429.2c-.445,0-.555.017-1,0-.789-.03-.978-1.275-1-2s.2-.972,1-1c.918-.032,2.082-.036,3,0,.792.031,1,.282,1,1,0,.738-.195,1.972-1,2C538.346,429.213,537.236,429.2,536.791,429.2Z" transform="translate(407.209 2168.802)" fill="#0470ba"/>
    <path id="Path_2263" data-name="Path 2263" d="M628.338,529.381a10.21,10.21,0,0,1-10-10c-.036-5.31,4.684-9,10-9s10,3.7,10,9A10.263,10.263,0,0,1,628.338,529.381Zm0-17a7,7,0,1,0,7,7A6.961,6.961,0,0,0,628.338,512.381Z" transform="translate(332.662 2094.619)" fill="#0470ba"/>
  </g>
</svg>
