<svg xmlns="http://www.w3.org/2000/svg" width="47.008" height="44.374" viewBox="0 0 47.008 44.374">
  <g id="icon-img-03" transform="translate(54.185 105.281)">
    <path id="Path_2264" data-name="Path 2264" d="M-54.179-84.6a13.189,13.189,0,0,1,1-3,10.563,10.563,0,0,1,8-6c.435-.082-.116-.568,0-1,1.454-5.425,5.626-8.43,11-10a12.721,12.721,0,0,1,12,2,16.075,16.075,0,0,1,6,9c.092.379.616-.072,1,0,4.468.831,7.336,4.525,8,9,.011.074-.02-.073,0,0v3a11.112,11.112,0,0,1-2,4c-1.892,2.9-4.523,3.757-8,4-2.6.182-4.4.984-7,1a2.326,2.326,0,0,1-2-2c0-.888,1-1,2-1,2.329,0,4.671.005,7,0,3.816-.009,6.52-3.223,7-7,.579-4.557-3.234-7.817-7-8-.182-.009.181.025,0,0a2.463,2.463,0,0,1-2-2c-.609-3.9-2.544-6.106-6-8a12.125,12.125,0,0,0-14,2,9.7,9.7,0,0,0-3,6c-.174,1.2-.672,1.948-2,2a5.339,5.339,0,0,0-3,1c-2.569,1.6-4.616,5.1-4,8,.653,3.077,3.912,4.572,7,5,.441.061.559,1,1,1,2.268,0,4.732,0,7,0,.625,0,.692-.563,1,0a2.385,2.385,0,0,1,0,2c-.278.446-.489,1-1,1a81.752,81.752,0,0,1-9-1c-4.652-.541-8.151-3.338-9-8-.022-.119.027.118,0,0Z" transform="translate(0 0)" fill="#0470ba"/>
    <path id="Path_2265" data-name="Path 2265" d="M126.89,122.929c.251-.075.885.115,1,0,1.036-1.031,1.959-1.974,3-3,.441-.435.381-1.2,1-1a1.239,1.239,0,0,1,1,1c.092.414.234.664,0,1-.112.161.139.86,0,1-1.914,1.918-4.079,4.09-6,6a1.968,1.968,0,0,1-3,0c-1.928-1.925-3.07-4.076-5-6-.309-.309-.952-.555-1-1a2.7,2.7,0,0,1,1-2c.519-.337.473-.325,1,0a12.282,12.282,0,0,1,1,1c.973.965,2.029,2.034,3,3,.116.116-.179-.057,0,0,.13-.162,0-.828,0-1,0-5.769,0-11.231,0-17,0-.37-.2-.672,0-1a2.576,2.576,0,0,1,2-1c.6.079.83.4,1,1a4.415,4.415,0,0,1,0,1c0,5.693,0,11.307,0,17Z" transform="translate(-156.069 -189.529)" fill="#0470ba"/>
  </g>
</svg>
