<svg xmlns="http://www.w3.org/2000/svg" width="37.07" height="37.042" viewBox="0 0 37.07 37.042">
  <g id="icon-img-05" transform="translate(-2647.928 97.423)">
    <path id="Path_2274" data-name="Path 2274" d="M2666.959-60.383c-4.714,0-10.286,0-15,0-2.168,0-3.587-.883-4-3a4.854,4.854,0,0,1,0-1c-.01-1.648,0-3.351,0-5a4.932,4.932,0,0,1,1-3,1.28,1.28,0,0,0,0-1,4.912,4.912,0,0,1-1-3c-.005-1.777-.005-3.223,0-5a5,5,0,0,1,1-3c.143-.185.148.188,0,0a5.153,5.153,0,0,1-1-3c-.013-1.739-.014-3.261,0-5a5.5,5.5,0,0,1,4-5,3.659,3.659,0,0,1,1,0c9.3,0,18.7,0,28,0a3.631,3.631,0,0,1,4,3,3.84,3.84,0,0,1,0,1c0,1.8-.013,4.2,0,6a5.172,5.172,0,0,1-1,3c-.15.2-.156-.2,0,0a5.382,5.382,0,0,1,1,3c0,1.893-.009,3.107,0,5a5.349,5.349,0,0,1-1,3,1.082,1.082,0,0,0,0,1c.59.769,1,1.028,1,2,0,1.816,0,4.184,0,6a3.664,3.664,0,0,1-4,4C2676.245-60.381,2671.673-60.383,2666.959-60.383Zm0-23c-4.7,0-9.3,0-14,0a2.463,2.463,0,0,0-2,2c-.012,1.97-.01,4.03,0,6,0,.647.365.851,1,1a5.62,5.62,0,0,0,1,0c9.144,0,17.856,0,27,0,.116,0,.884,0,1,0,1.016-.044,1-.985,1-2,0-1.79,0-3.21,0-5,0-1.073.073-2-1-2Zm0,12h-14c-1.054,0-2-.041-2,1,0,1.726,0,4.274,0,6,0,1.034.965,1,2,1,9.35,0,18.65,0,28,0,.976,0,1-.022,1-1,0-1.713,0-3.287,0-5,0-1.046.047-2-1-2Zm0-23h-6c-2.756,0-5.244,0-8,0-.918,0-2,.1-2,1-.008,1.816-.007,4.184,0,6,0,.741.267.839,1,1a6.606,6.606,0,0,0,1,0h27c.116,0,.884.005,1,0,1.016-.044,1,.016,1-1,0-1.636,0-3.364,0-5a1.8,1.8,0,0,0-2-2Z" fill="#0470ba"/>
    <path id="Path_2275" data-name="Path 2275" d="M2749.04,196.35c.373,0,.627.012,1,0,.258-.009,1-.268,1,0-.007.758-.006,2.242,0,3,0,.262-.738,0-1,0-.758-.009-1.242-.011-2,0-.277,0,0,.285,0,0,.009-.745.009-2.255,0-3,0-.283-.281-.011,0,0C2748.425,196.366,2748.655,196.35,2749.04,196.35Z" transform="translate(-94.081 -276.733)" fill="#0470ba"/>
    <path id="Path_2276" data-name="Path 2276" d="M2849.079,199.4c-.373,0-.627-.01-1,0-.253.007,0,.271,0,0,.006-.771,0-2.229,0-3,0-.221-.232,0,0,0,.8.006,1.2.006,2,0,.233,0,1-.221,1,0,0,.771-.006,2.229,0,3,0,.271-.747.007-1,0C2849.693,199.394,2849.464,199.4,2849.079,199.4Z" transform="translate(-188.119 -276.787)" fill="#0470ba"/>
    <path id="Path_2277" data-name="Path 2277" d="M2749.069,398.172c-.373,0-.627-.011-1,0-.254.007,0-.729,0-1,.006-.771,0-1.229,0-2,0-.221-.232,0,0,0,.8.006,2.2.006,3,0,.234,0,0-.22,0,0,0,.771-.006,1.229,0,2,0,.272-.748,1.007-1,1C2749.684,398.162,2749.455,398.172,2749.069,398.172Z" transform="translate(-94.11 -463.555)" fill="#0470ba"/>
    <path id="Path_2278" data-name="Path 2278" d="M2849.053,398.137c-.373,0-.628-.015-1,0-.288.011,0-.726,0-1,.008-.746.006-1.254,0-2,0-.257-.27,0,0,0,.771.01,1.229.01,2,0,.269,0,1-.258,1,0-.006.745-.008,1.254,0,2,0,.273-.711,1.011-1,1C2849.668,398.123,2849.438,398.137,2849.053,398.137Z" transform="translate(-188.094 -463.52)" fill="#0470ba"/>
    <path id="Path_2279" data-name="Path 2279" d="M2749.1,3.368c-.386,0-.614-.005-1,0-.226,0,0-.774,0-1,0-.8,0-1.2,0-2,0-.208-.2,0,0,0,.8,0,2.2,0,3,0,.219,0,0-.227,0,0,0,.785,0,1.215,0,2,0,.242-.754,1-1,1C2749.706,3.361,2749.5,3.369,2749.1,3.368Z" transform="translate(-94.145 -91.751)" fill="#0470ba"/>
    <path id="Path_2280" data-name="Path 2280" d="M2851.054,1.28c0,.373-.008.627,0,1,0,.254-.729,1-1,1-.772-.008-1.228-.008-2,0-.271,0,0-.746,0-1,.006-.76.009-1.24,0-2,0-.288-.268,0,0,0,.747.005,1.253.008,2,0,.3,0,1.01-.291,1,0C2851.042.653,2851.054.906,2851.054,1.28Z" transform="translate(-188.095 -91.662)" fill="#0470ba"/>
  </g>
</svg>
