<svg xmlns="http://www.w3.org/2000/svg" width="44.057" height="44.104" viewBox="0 0 44.057 44.104">
  <g id="icon-img-01" transform="translate(-575.989 -2591)">
    <path id="Path_2254" data-name="Path 2254" d="M970.7,160.389h-36c-.553-.141-.5.293-1,0a7.614,7.614,0,0,1-3-4v-33c.033-.124-.036.123,0,0,.6-2.027,1.916-3.709,4-4a22.346,22.346,0,0,1,3,0c1.07-.009,1.031.081,1-1a2.14,2.14,0,0,1,1-2h1a2.21,2.21,0,0,1,1,2c0,.229.019-.227,0,0-.033.4.612,1.005,1,1,1.314-.018,2.686.007,4,0,1.227-.006,1,.252,1-1a2.161,2.161,0,0,1,1-2h1c.666.331.054,1.266,0,2-.015.2.02-.2,0,0-.04.4.608,1.005,1,1,1.34-.018,2.66.007,4,0,1.224-.006,1.021.223,1-1a2.213,2.213,0,0,1,1-2h1a2.247,2.247,0,0,1,1,2c0,.215.017-.213,0,0-.034.41-.412,1.007,0,1,1.271-.02,2.729,0,4,0,1.187,0,.99.2,1-1a2.237,2.237,0,0,1,1-2h1a2.225,2.225,0,0,1,1,2c-.013.2.017-.2,0,0-.032.374-.373,1.006,0,1,1.029-.017,2.97-.011,4,0,2.533.026,4,2.472,4,5q.012,16.01,0,32a3.209,3.209,0,0,1,0,1C974.135,159.337,972.65,159.948,970.7,160.389Zm-18-30h-18a.886.886,0,0,0-1,1c0,8.169,0,15.831,0,24,0,.115,0-.114,0,0,.048,1.186.831,2.816,2,3,.224.035-.228,0,0,0,8.324,0,16.676,0,25,0,2.932,0,6.068,0,9,0,1.113,0,1.71-1.076,2-2,.108-.344,1-.639,1-1,0-8.169,0-15.831,0-24a.869.869,0,0,0-1-1Zm0-3h19c.157,0-.157,0,0,0,.268.008,1,.275,1,0-.007-1.032.038-1.969,0-3a2.283,2.283,0,0,0-2-2c-1.182-.12-2.813,0-4,0-.254,0,0-.24,0,0,0,.3.008.7,0,1-.022.839-.242.994-1,1-.732.006-1.951-.185-2-1-.019-.314,0-.685,0-1,0-.264.27,0,0,0-1.588,0-3.412,0-5,0-.286,0,.005-.283,0,0a5.419,5.419,0,0,1,0,1c-.126.707-1.323,1.04-2,1-.7-.042-.973-.268-1-1-.012-.329-.009-.671,0-1,.008-.292.285,0,0,0-1.6,0-3.4,0-5,0-.264,0-1-.272-1,0,.006.344.015.657,0,1-.031.714-.308.945-1,1-.675.053-.87-.3-1-1a4.837,4.837,0,0,1,0-1c0-.3-.693,0-1,0-1.559,0-2.441.006-4,0-.334,0-1.008-.322-1,0a6.5,6.5,0,0,1,0,1c-.1.764-.3,1.044-1,1-.717-.045-1.968-.229-2-1-.012-.286-.018-.715,0-1,.024-.375.364,0,0,0-.944.012-2.056-.011-3,0-1.412.016-1.987.583-2,2-.008.86,0,2.14,0,3,0,.705.288,0,1,0Z" transform="translate(-354.701 2474.611)" fill="#0470ba"/>
    <path id="Path_2255" data-name="Path 2255" d="M1090.6,368.948c.858,0,2.142-.007,3,0,.926.008.98,1.073,1,2,.039,1.8.04,3.2,0,5-.02.931-.073,1-1,1-1.731.006-3.269.007-5,0-.9,0-1.982-.1-2-1-.037-1.819-.041-3.181,0-5a2.363,2.363,0,0,1,2-2C1089.47,368.94,1089.725,368.948,1090.6,368.948Zm0,3c-.357,0-.644.008-1,0-.294-.007,0-.288,0,0,.009.658.009,1.342,0,2,0,.287-.293,1,0,1,.685-.006,1.315-.006,2,0a1.683,1.683,0,0,0,1-1c-.009-.658-.009-1.342,0-2,0-.288-.706-.007-1,0C1091.27,371.956,1090.926,371.948,1090.6,371.948Z" transform="translate(-492.598 2251.052)" fill="#0470ba"/>
    <path id="Path_2256" data-name="Path 2256" d="M993.183,276.4c0,.86.009,2.14,0,3-.009.906-1.1.968-2,1-1.829.066-3.171.075-5,0-.874-.036-2-.115-2-1-.007-1.748-.007-3.252,0-5a2.421,2.421,0,0,1,2-2c1.829-.073,3.171-.067,5,0a2.376,2.376,0,0,1,2,2C993.191,275.276,993.183,275.528,993.183,276.4Zm-3,0c0-.343-.009-.657,0-1,.007-.295-.712,0-1,0-.656.009-.343.009-1,0-.286,0-1-.294-1,0,.006.686,0,1.314,0,2,0,.258-.281,1,0,1,.685-.005,2.315-.006,3,0,.281,0,0-.74,0-1C990.177,277.059,990.182,276.746,990.183,276.4Z" transform="translate(-402.183 2336.598)" fill="#0470ba"/>
    <path id="Path_2257" data-name="Path 2257" d="M1197.124,276.4c0,.86.008,2.14,0,3-.008.885-.125.966-1,1-1.843.072-4.157.076-6,0-.843-.035-1-.148-1-1-.01-1.763-.01-3.237,0-5,0-.852.158-1.967,1-2,1.858-.073,4.143-.081,6,0,.823.036.99,1.167,1,2C1197.135,275.3,1197.124,275.5,1197.124,276.4Zm-4,2c.343,0,.658-.01,1,0,.287.009,0-.707,0-1-.006-.686-.006-1.314,0-2,0-.294.286,0,0,0-.656.009-1.344.009-2,0-.287,0,0-.295,0,0,.007.686.007,1.314,0,2,0,.3-.287,1.01,0,1C1192.438,278.389,1192.81,278.4,1193.124,278.4Z" transform="translate(-583.124 2336.6)" fill="#0470ba"/>
    <path id="Path_2258" data-name="Path 2258" d="M988.184,376.938c-.844,0-1.156.005-2,0-.975-.006-2-.034-2-1-.006-1.734-.006-3.266,0-5a2.254,2.254,0,0,1,2-2c1.731-.009,3.269-.008,5,0a2.209,2.209,0,0,1,2,2c.008,1.72.008,3.28,0,5,0,.972-1.031.992-2,1C990.312,376.945,989.057,376.937,988.184,376.938Zm0-2c.328,0,.672-.007,1,0a1.683,1.683,0,0,0,1-1c-.007-.658-.007-1.342,0-2,0-.28-.7,0-1,0-.671.007-1.329,0-2,0-.266,0,0-.27,0,0,0,.672.005,1.328,0,2a1.691,1.691,0,0,0,1,1C988.512,374.931,987.856,374.938,988.184,374.938Z" transform="translate(-402.184 2251.063)" fill="#0470ba"/>
    <path id="Path_2259" data-name="Path 2259" d="M1197.127,372.941c0,.86.006,2.14,0,3-.007.945-.06,1-1,1-1.731.007-4.269.007-6,0-.966,0-1-.025-1-1-.008-1.72-.008-3.28,0-5,0-.972.033-2,1-2,1.717-.008,3.284-.007,5,0a2.161,2.161,0,0,1,2,2C1197.132,371.8,1197.128,372.081,1197.127,372.941Zm-4,2c.343,0,.658,0,1,0,.243,0,0-.749,0-1,0-.7,0-1.3,0-2,0-.228.226,0,0,0-.7,0-1.3,0-2,0-.256,0,0-.241,0,0,0,.686,0,1.314,0,2,0,.25-.246,1,0,1C1192.47,374.939,1192.785,374.941,1193.127,374.941Z" transform="translate(-583.127 2251.059)" fill="#0470ba"/>
    <path id="Path_2260" data-name="Path 2260" d="M1093.573,280.918c.02.4.273.726,0,1-1.261,1.267-2.725,2.748-4,4a1.279,1.279,0,0,1-2,0c-.6-.59-1.411-1.4-2-2a1.414,1.414,0,0,1,2-2c.031.03-.033-.027,0,0,.294.241.64,1.018,1,1s.726-.732,1-1c.7-.69,1.29-1.315,2-2,.43-.415,1.446-.255,2,0C1094.076,280.15,1093.56,280.369,1093.573,280.918Z" transform="translate(-491.573 2330.082)" fill="#0470ba"/>
  </g>
</svg>
