<svg xmlns="http://www.w3.org/2000/svg" width="45.425" height="45.159" viewBox="0 0 45.425 45.159">
  <g id="icon-img-04" transform="translate(0.004 -0.134)">
    <path id="Path_2266" data-name="Path 2266" d="M1488.035-106.818a3.83,3.83,0,0,1,2,1c5.867,5.877,12.128,12.129,18,18,.313.313-.245.631,0,1,.894,1.344,1.621,2.595,1,4a5.445,5.445,0,0,1-4,3c-.964.088-1-.052-1,1,0,3.99.007,8.01,0,12,0,.854.334,1.19,0,2a5.666,5.666,0,0,1-5,3c-2.4.01-4.6,0-7,0-.961,0-1-.022-1-1,0-3.4-.04-7.6,0-11,.016-1.338-1.445-2.067-3-2-1.308.057-2.69-.008-4,0-1.369.009-2,.621-2,2,0,3.4,0,6.6,0,10,0,1.183.172,2-1,2-2.326,0-4.674.009-7,0a5.368,5.368,0,0,1-5-5,9.423,9.423,0,0,1,0-1c0-3.9-.011-8.1,0-12,0-.4-.565.009-1,0-1.227-.024-2.16-1.075-3-2a4.367,4.367,0,0,1,0-6c.11-.118-.115.114,0,0,5.872-5.872,12.134-12.123,18-18a3.767,3.767,0,0,1,2-1A7.373,7.373,0,0,1,1488.035-106.818Zm-17,33c0,2.414,0,4.586,0,7,0,1.46,1.54,1.99,3,2,1.707.012,3.293-.022,5,0,.421.006,0,.393,0,0-.013-2.532,0-5.468,0-8a6.39,6.39,0,0,1,0-1c.225-2.389,2.6-4.949,5-5,1.545-.033,3.455-.042,5,0,1.388.038,2.065.964,3,2s2,1.645,2,3c0,2.812.012,6.188,0,9,0,.382-.391,0,0,0,1.648-.018,3.351,0,5,0,1.7,0,3-.31,3-2,0-4.8,0-10.2,0-15,0-.973.031-.992,1-1,.574,0,1.426,0,2,0,.678,0,.733-.354,1-1s.489-1.516,0-2c-.638-.632-1.365-1.365-2-2-5.434-5.434-10.565-10.567-16-16a2.315,2.315,0,0,0-3,0c-6.114,6.107-11.89,11.889-18,18-.469.469-.261,1.368,0,2s.344.983,1,1c.559.014,1.441,0,2,0,1.11,0,1-.123,1,1C1471.037-79.419,1471.035-76.218,1471.035-73.818Z" transform="translate(-1463.845 107.106)" fill="#0470ba"/>
  </g>
</svg>
