<svg xmlns="http://www.w3.org/2000/svg" width="41.687" height="41.629" viewBox="0 0 41.687 41.629">
  <g id="services-icon02" transform="translate(-533 -1947)">
    <g id="Group_1046" data-name="Group 1046" transform="translate(533 1947)">
      <path id="Path_21370" data-name="Path 21370" d="M1309.591,249.863q0,7.039,0,14.078c0,.77-.25,1.028-1,1.028q-3.172,0-6.344,0c-.706,0-.964-.259-.964-.973q0-14.165,0-28.331c0-.69.253-.957.935-.958q3.237-.007,6.474,0c.648,0,.9.274.9.944q0,7.1,0,14.209Z" transform="translate(-1267.904 -223.34)" fill="#6c6f74"/>
      <path id="Path_21371" data-name="Path 21371" d="M1181.6,356.488q0,4.647,0,9.294c0,.764-.245,1-1.018,1.005h-6.3c-.736,0-.994-.258-.995-.988q0-9.316,0-18.632c0-.7.26-.954.976-.954l6.254,0c.868,0,1.083.21,1.083,1.064q0,4.6,0,9.208Z" transform="translate(-1151.041 -325.16)" fill="#6c6f74"/>
      <path id="Path_21372" data-name="Path 21372" d="M969.935,121.432a3.924,3.924,0,0,0,2.752-1.029,6.115,6.115,0,0,1,.764-.409.34.34,0,0,1,.316.021c-.5.389-1,.765-1.482,1.171-.375.317-.721.669-1.075,1.01a.771.771,0,0,0-.2.874,2.618,2.618,0,0,0,2.131,1.7,4.165,4.165,0,0,0,3.223-.685c.632-.406,1.223-.876,1.847-1.3.53-.356.641-.326,1.049.146,2.274,2.626,4.543,5.258,6.831,7.872a1.022,1.022,0,0,1,.1,1.128.775.775,0,0,1-.8.551c-.486-.019-.97-.092-1.483-.145,0,.119,0,.258,0,.4-.015.708-.372,1.048-1.076.954a4,4,0,0,1-.892-.308,4.08,4.08,0,0,1-.423-.225c-.038,1.31-1.155,1.58-2.552.681a3.213,3.213,0,0,1-.4.795,1.109,1.109,0,0,1-1.47.143c-.992-.647-1.963-1.33-2.912-2.039-.834-.623-1.6-1.334-2.447-1.944a16.385,16.385,0,0,0-1.615-.884c-.1-.057-.232-.189-.232-.286-.011-2.693-.006-5.385,0-8.078A.367.367,0,0,1,969.935,121.432Z" transform="translate(-965.318 -118.575)" fill="#009ceb"/>
      <path id="Path_21373" data-name="Path 21373" d="M1053.628,431.181q0,2.953,0,5.907c0,.735-.255.987-.994.988q-3.17,0-6.341,0c-.712,0-.975-.259-.975-.962q0-5.928,0-11.856c0-.7.264-.966.972-.966q3.17,0,6.341,0c.743,0,1,.251,1,.984Q1053.63,428.228,1053.628,431.181Z" transform="translate(-1034.191 -396.449)" fill="#6c6f74"/>
      <path id="Path_21374" data-name="Path 21374" d="M925.624,467.647q0,2.151,0,4.3c0,.65-.277.935-.916.935q-3.237,0-6.474,0c-.642,0-.922-.28-.923-.93q0-4.323,0-8.646c0-.607.3-.895.917-.9q3.237,0,6.474,0c.642,0,.92.282.921.933C925.627,464.78,925.625,466.213,925.624,467.647Z" transform="translate(-917.31 -431.256)" fill="#6c6f74"/>
      <path id="Path_21375" data-name="Path 21375" d="M1009.447,111.339c0,1.332-.005,2.664,0,4,0,.308-.024.553-.413.557a.412.412,0,0,0-.2.07c-.313.2-.524.115-.766-.165q-3.353-3.875-6.733-7.728c-.219-.251-.457-.488-.654-.755a.724.724,0,0,0-1.032-.218c-.5.283-.962.639-1.455.94a15.285,15.285,0,0,1-1.951,1.12,2.518,2.518,0,0,1-2.623-.337c-.519-.4-.531-.712-.016-1.1q2.246-1.709,4.526-3.372a1.944,1.944,0,0,1,.857-.263,6.856,6.856,0,0,1,5.024.932,12.25,12.25,0,0,0,3.795,1.437c.4.11.814.2,1.225.277a.451.451,0,0,1,.422.528C1009.436,108.617,1009.447,109.978,1009.447,111.339Z" transform="translate(-986.627 -103.975)" fill="#009ceb"/>
      <path id="Path_21376" data-name="Path 21376" d="M1190.266,120.517q0-3.255,0-6.51c0-.562.125-.688.684-.689.8,0,1.591,0,2.387,0,.5,0,.638.138.639.646q0,6.554,0,13.108c0,.507-.134.64-.64.641q-1.215,0-2.43,0c-.509,0-.638-.132-.639-.643Q1190.265,123.794,1190.266,120.517Z" transform="translate(-1166.541 -112.505)" fill="#009ceb"/>
      <path id="Path_21377" data-name="Path 21377" d="M921.254,120.762q0,3.19,0,6.381c0,.639-.127.768-.752.769-.738,0-1.476,0-2.214,0-.521,0-.693-.157-.694-.66q0-6.511,0-13.022c0-.488.17-.656.654-.661.8-.009,1.592-.008,2.387,0,.464,0,.614.175.614.687q0,3.256,0,6.511Z" transform="translate(-917.567 -112.727)" fill="#009ceb"/>
      <path id="Path_21378" data-name="Path 21378" d="M1247.353,118.726c0-.554-.028-.976.014-1.39a.966.966,0,0,1,.287-.5c2.27-2.394,4.552-4.776,6.819-7.172.553-.585.538-.607-.057-1.142-.441-.4-.9-.772-1.338-1.174s-.368-.911.2-1.113q3.081-1.1,6.176-2.159a.592.592,0,0,1,.807.713c-.356,1.929-.731,3.854-1.1,5.78-.043.227-.083.455-.135.679-.134.576-.575.748-1.031.374-.582-.476-1.152-.969-1.7-1.484-.278-.261-.444-.253-.693.041a92.406,92.406,0,0,1-7.834,8.18C1247.662,118.457,1247.555,118.548,1247.353,118.726Z" transform="translate(-1218.658 -104.03)" fill="#6c6f74"/>
      <path id="Path_21379" data-name="Path 21379" d="M944.561,293.54c-1.278,1.01-2.536,2.047-3.837,3.025a62.857,62.857,0,0,1-13.066,7.671,39.186,39.186,0,0,1-8.036,2.559c-.325.062-.655.1-.984.139a.538.538,0,0,1-.642-.5.555.555,0,0,1,.494-.65c.79-.165,1.591-.289,2.372-.488a49.723,49.723,0,0,0,13.1-5.638,69.063,69.063,0,0,0,8.44-5.938,1.378,1.378,0,0,1,.963-.282c.386,0,.772,0,1.158,0Z" transform="translate(-917.929 -276.969)" fill="#6c6f74"/>
    </g>
  </g>
</svg>
