<svg xmlns="http://www.w3.org/2000/svg" width="49.57" height="35.182" viewBox="0 0 49.57 35.182">
  <g id="services-icon01" transform="translate(-204 -2118)">
    <path id="Path_21363" data-name="Path 21363" d="M140.8,19.99a47.362,47.362,0,0,1-4.949-.027A9.436,9.436,0,0,1,127.7,9.682a9.569,9.569,0,0,1,9.657-8.621q3.767,0,7.534,0c.759,0,.932.174.934.932q0,1.363,0,2.726c0,.716-.188.9-.917.9-2.577,0-5.155-.011-7.732,0a4.946,4.946,0,1,0,.031,9.892c2.561.018,5.122,0,7.683.005.76,0,.932.173.935.934q0,1.388,0,2.776c0,.654-.2.851-.866.853-1.388,0-2.776,0-4.164,0Z" transform="translate(76.355 2128.836)" fill="#009ceb"/>
    <path id="Path_21364" data-name="Path 21364" d="M451.129,143.751a7.054,7.054,0,0,1,.829-4.247,5.793,5.793,0,0,1,3.629-2.718,1.157,1.157,0,0,1,.818.141,6.21,6.21,0,0,0,7-.011,1.07,1.07,0,0,1,.763-.131,5.933,5.933,0,0,1,4.4,5.439c.044,1.172.023,2.347.017,3.52a.708.708,0,0,1-.755.791,10.577,10.577,0,0,1-1.14.008.71.71,0,0,1-.737-.765c-.019-.594-.011-1.19-.013-1.785,0-.737-.307-1.147-.86-1.159s-.887.424-.889,1.182c0,.562.006,1.124,0,1.686-.01.589-.26.849-.854.852q-3.5.019-6.991.016c-.549,0-.8-.274-.813-.838-.011-.628,0-1.256-.012-1.884a.88.88,0,1,0-1.752-.025c-.018.628,0,1.256-.01,1.884s-.249.861-.875.873c-.3.006-.6.011-.892.006-.6-.012-.847-.254-.856-.841C451.122,145.118,451.129,144.49,451.129,143.751Z" transform="translate(-215.024 2006.593)" fill="#6c6f74"/>
    <path id="Path_21365" data-name="Path 21365" d="M464.31-21.734a6.26,6.26,0,0,0-8.545.107c-.106-.208-.162-.5-.332-.6a1.463,1.463,0,0,0-.892-.218.77.77,0,0,0-.6.816c-.019.594-.006,1.19-.009,1.785,0,.834-.2,1.032-1.009,1.045-1.618.026-1.635.023-1.616-1.615a20.813,20.813,0,0,1,.142-3.6,5.706,5.706,0,0,1,4.2-4.568,1.081,1.081,0,0,1,1.017.152,6.124,6.124,0,0,0,6.905-.024,1.129,1.129,0,0,1,.811-.13,5.945,5.945,0,0,1,4.374,5.562c.026,1.107.014,2.214.01,3.322,0,.6-.241.837-.84.855-.314.009-.628.009-.942,0-.6-.014-.845-.248-.859-.841-.013-.562-.006-1.124-.007-1.686,0-.684-.22-1.046-.7-1.154C464.967-22.638,464.612-22.389,464.31-21.734Z" transform="translate(-215.203 2155.605)" fill="#6c6f74"/>
    <path id="Path_21366" data-name="Path 21366" d="M507.456-114.85a4.025,4.025,0,0,1-4.018,4.044,4.036,4.036,0,0,1-4.043-4.072,4.016,4.016,0,0,1,4.046-4.01A4.007,4.007,0,0,1,507.456-114.85Z" transform="translate(-258.525 2236.888)" fill="#6c6f74"/>
    <path id="Path_21367" data-name="Path 21367" d="M507.458,50.249a4.031,4.031,0,1,1-4.072-4.036A4.021,4.021,0,0,1,507.458,50.249Z" transform="translate(-258.526 2088.161)" fill="#6c6f74"/>
    <path id="Path_21368" data-name="Path 21368" d="M343.79,150c0,.338.01.6,0,.856a1,1,0,0,1-1.36.981c-1.217-.414-2.419-.869-3.628-1.306a.621.621,0,0,1-.092-.035c-.362-.2-.433-1.848-.067-2.035a.8.8,0,0,1,.555.012c.81.274,1.611.575,2.519.9,0-.294-.009-.529,0-.764a1.033,1.033,0,0,1,1.424-1.022c1.163.368,2.322.75,3.466,1.172a.868.868,0,0,1,.395.575,3.944,3.944,0,0,1,.016.937c-.012.527-.219.687-.724.532C345.492,150.556,344.7,150.289,343.79,150Z" transform="translate(-113.496 1996.902)" fill="#009ceb"/>
    <path id="Path_21369" data-name="Path 21369" d="M341.978-1.3l-2.43.879c-.645.233-.862.091-.851-.591.024-1.513-.237-1.221,1.217-1.753.867-.317,1.732-.641,2.6-.951.912-.325,1.532.118,1.542,1.092,0,.209,0,.417,0,.693.842-.272,1.6-.521,2.368-.765.686-.22.863-.091.857.642-.011,1.443.185,1.167-1.157,1.631-.841.291-1.688.564-2.534.842-1.019.335-1.6-.085-1.613-1.164C341.977-.906,341.978-1.068,341.978-1.3Z" transform="translate(-113.761 2133.233)" fill="#009ceb"/>
  </g>
</svg>
