<svg width="20" height="16" viewBox="0 0 20 16" fill="none" xmlns="http://www.w3.org/2000/svg">
<path fill-rule="evenodd" clip-rule="evenodd" d="M10 1.455C7.736 1.455 4.651 1.649 2.693 1.791C2.38537 1.80664 2.09511 1.93834 1.88077 2.15955C1.66642 2.38077 1.54393 2.67503 1.538 2.983V3.693L9.377 7.811C9.56944 7.91101 9.78313 7.96322 10 7.96322C10.2169 7.96322 10.4306 7.91101 10.623 7.811L18.462 3.693V2.983C18.4561 2.67503 18.3336 2.38077 18.1192 2.15955C17.9049 1.93834 17.6146 1.80664 17.307 1.791C15.349 1.649 12.264 1.455 10 1.455ZM18.462 5.355L11.37 9.082C10.9471 9.30273 10.4771 9.418 10 9.418C9.52293 9.418 9.05293 9.30273 8.63 9.082L1.538 5.357V13.017C1.54393 13.325 1.66642 13.6192 1.88077 13.8404C2.09511 14.0617 2.38537 14.1934 2.693 14.209C4.651 14.351 7.736 14.545 10 14.545C12.264 14.545 15.349 14.351 17.307 14.209C17.6146 14.1934 17.9049 14.0617 18.1192 13.8404C18.3336 13.6192 18.4561 13.325 18.462 13.017V5.355ZM2.574 0.341C4.534 0.2 7.671 0 10 0C12.329 0 15.466 0.2 17.426 0.341C18.1096 0.374214 18.7553 0.66525 19.2329 1.15549C19.7105 1.64572 19.9846 2.29874 20 2.983V13.017C19.9846 13.7013 19.7105 14.3543 19.2329 14.8445C18.7553 15.3347 18.1096 15.6258 17.426 15.659C15.466 15.8 12.329 16 10 16C7.671 16 4.534 15.8 2.574 15.659C1.89037 15.6258 1.24472 15.3347 0.767105 14.8445C0.289486 14.3543 0.0153813 13.7013 0 13.017V2.983C0.0153813 2.29874 0.289486 1.64572 0.767105 1.15549C1.24472 0.66525 1.89037 0.374214 2.574 0.341V0.341Z" fill="#662D91"/>
<path fill-rule="evenodd" clip-rule="evenodd" d="M9.99996 1.45508C7.73596 1.45508 4.65096 1.64908 2.69296 1.79108C2.38533 1.80671 2.09508 1.93842 1.88073 2.15963C1.66638 2.38085 1.54389 2.67511 1.53796 2.98308V3.69308L9.37696 7.81108C9.5694 7.91109 9.78309 7.9633 9.99996 7.9633C10.2168 7.9633 10.4305 7.91109 10.623 7.81108L18.462 3.69308V2.98308C18.456 2.67511 18.3335 2.38085 18.1192 2.15963C17.9048 1.93842 17.6146 1.80671 17.307 1.79108C15.349 1.64908 12.264 1.45508 9.99996 1.45508Z" fill="#662D91" fill-opacity="0.23"/>
</svg>
