<svg width="128" height="128" viewBox="0 0 128 128" fill="none" xmlns="http://www.w3.org/2000/svg">
<path d="M75.7659 60.5585L78.2981 57.2502H78.2353C78.4966 56.9209 78.758 56.5943 78.9827 56.2546C79.0282 56.2056 79.0709 56.1541 79.1108 56.1004C79.3851 55.7291 79.5009 55.2642 79.4328 54.8076C79.3647 54.351 79.1183 53.9401 78.7475 53.665C78.6973 53.6271 78.645 53.5922 78.5907 53.5604C78.3945 53.4415 78.1767 53.3625 77.9499 53.3278C77.7231 53.2931 77.4916 53.3035 77.2688 53.3583C77.046 53.4132 76.8362 53.5114 76.6514 53.6474C76.4666 53.7834 76.3105 53.9545 76.1918 54.1509C75.3426 55.1675 74.5951 56.2598 73.8216 57.3312H73.874L66.6642 66.7387L66.5988 66.8223L62.8359 71.8214C60.6878 71.56 58.8429 71.1916 57.0136 71.1445C53.1879 71.0557 49.3597 71.1001 45.5313 71.1445C44.6429 71.1445 44.3868 70.8702 44.4155 70.0078C44.4756 68.291 44.4782 66.5688 44.4155 64.8519C44.3753 64.4922 44.4427 64.1286 44.6092 63.8072C44.7758 63.4857 45.0339 63.2209 45.351 63.0463C48.5938 60.9263 50.8756 57.619 51.7063 53.8348C51.8318 53.3122 51.9179 52.7895 52.0355 52.1806C53.1226 52.1806 54.1261 52.2512 55.1452 52.1806C56.367 52.1696 57.5569 51.7894 58.5587 51.0898C59.5604 50.3903 60.3272 49.4041 60.7584 48.2608C61.2257 47.1546 61.3634 45.9368 61.1548 44.7541C60.9462 43.5714 60.4001 42.4742 59.5824 41.5946C59.1882 41.0988 58.9629 40.4898 58.9395 39.8568C58.8794 34.1967 59.018 28.5287 58.8403 22.8711C58.6575 19.4602 57.1942 16.2439 54.7428 13.8651C52.2914 11.4863 49.0325 10.1205 45.6176 10.0405C41.2823 9.97775 36.9444 9.99604 32.6091 10.0405C31.1358 10.0256 29.6807 10.3668 28.3677 11.0352C27.0546 11.7035 25.9224 12.6792 25.0675 13.8792C24.8262 14.2591 24.4855 14.5657 24.0826 14.766C23.6796 14.9664 23.2295 15.0528 22.781 15.0159C20.6707 14.9507 18.605 15.6327 16.9485 16.9417C15.2919 18.2507 14.1507 20.1026 13.7262 22.1709C13.4826 23.792 13.3952 25.4327 13.465 27.0706C13.465 28.3772 14.1783 29.0879 15.2628 29.0592C16.3081 29.0304 16.9091 28.3405 16.9536 27.0836C16.9954 25.8737 16.93 24.656 17.0555 23.4566C17.1529 22.3173 17.6167 21.2402 18.3775 20.3866C19.1383 19.533 20.1551 18.9488 21.2757 18.7214C22.4678 18.5312 23.6762 18.4647 24.8819 18.5229C25.3483 18.5645 25.8158 18.4568 26.2169 18.2154C26.6181 17.9739 26.9321 17.6112 27.1136 17.1797C27.623 16.0484 28.4614 15.0967 29.5195 14.4488C30.5775 13.8009 31.8063 13.4867 33.0455 13.5473H44.993C45.6175 13.5364 46.2417 13.5792 46.8588 13.6754C49.2147 14.0527 51.3603 15.2535 52.914 17.0641C54.4677 18.8748 55.3287 21.1778 55.3439 23.5637C55.4379 28.6385 55.3726 33.7185 55.3726 38.7959C55.3726 39.0207 55.336 39.2559 55.3124 39.5172H52.0486V32.2186C52.0486 28.9547 50.8361 27.7448 47.6062 27.8336C42.2348 28.0538 36.8962 26.898 32.097 24.4757C30.0278 23.4469 27.7072 23.0325 25.4098 23.2814C24.0267 23.3517 22.7251 23.9571 21.7801 24.9694C20.835 25.9817 20.3206 27.3217 20.3455 28.7064C20.322 30.1515 20.3455 31.5966 20.3455 33.0417V39.525H16.9797C16.9797 38.289 17.0006 37.0869 16.9797 35.8848C16.9562 34.5782 16.3656 33.7943 15.2942 33.7603C14.2228 33.7264 13.4859 34.5443 13.465 35.8874C13.431 37.2933 13.5042 38.7018 13.431 40.1051C13.3987 40.6262 13.2061 41.1245 12.8796 41.5319C12.0259 42.4067 11.4522 43.5158 11.2316 44.718C11.0109 45.9202 11.1535 47.161 11.641 48.2818C12.0822 49.4455 12.8701 50.4455 13.8984 51.1466C14.9267 51.8477 16.1455 52.216 17.3899 52.2016C18.3594 52.2434 19.3315 52.2016 20.2645 52.2016C20.3269 52.2924 20.3794 52.3896 20.4212 52.4916C20.7309 54.7247 21.5286 56.8622 22.7575 58.7523C23.9864 60.6423 25.6164 62.2387 27.5317 63.4278C27.7016 63.5428 27.9184 63.7727 27.9184 63.9504C27.9393 66.3023 27.9394 68.6803 27.9394 71.1445H26.3897C22.2505 71.1445 18.106 71.0844 13.9693 71.189C11.8643 71.2484 9.82905 71.9565 8.14187 73.2166C6.4547 74.4768 5.198 76.2273 4.54356 78.2289C4.33189 78.8534 4.1777 79.4963 4 80.1313V110.131C4.48611 112.171 5.59698 114.009 7.17764 115.388C8.74257 116.611 10.6429 117.328 12.6256 117.444C14.6083 117.56 16.5792 117.069 18.2759 116.036C19.5052 115.302 20.9183 114.933 22.3498 114.973C36.8408 114.989 51.3326 114.996 65.8253 114.994C67.9159 114.994 68.4228 114.489 68.4228 112.352V82.1173C68.4206 81.4931 68.3858 80.8694 68.3183 80.2488C68.0376 77.9713 67.0359 75.8434 65.4595 74.1758C67.3462 71.6724 69.1989 69.2108 71.0386 66.7491L75.7659 60.5585ZM52.0983 43.1834C53.218 43.1238 54.3403 43.1334 55.4588 43.2122C56.1032 43.3045 56.69 43.634 57.1042 44.1362C57.5184 44.6384 57.7303 45.2771 57.6983 45.9273C57.7039 46.5951 57.4648 47.2418 57.0262 47.7453C56.5876 48.2489 55.9799 48.5745 55.3177 48.6607C55.0093 48.7003 54.6982 48.7151 54.3874 48.7051H52.0983V43.1834ZM20.2671 48.6502C19.1796 48.7068 18.0897 48.6981 17.0032 48.6241C16.3374 48.5441 15.7269 48.214 15.2955 47.7006C14.8641 47.1872 14.6441 46.529 14.6801 45.8594C14.6737 45.1901 14.9184 44.5427 15.3659 44.0449C15.8133 43.5471 16.4311 43.235 17.0973 43.1704C18.1242 43.0658 19.1669 43.1495 20.2671 43.1495V48.6502ZM46.0592 74.7612L41.6455 78.6339L39.3433 74.7612H46.0592ZM31.5377 71.1027V65.4478H40.8119V71.1027H31.5377ZM26.915 58.4288C25.0111 56.4747 23.9273 53.8659 23.8863 51.138C23.8366 43.7218 23.8576 36.3029 23.8576 28.8867C23.8445 28.7625 23.8445 28.6373 23.8576 28.5131C23.8989 28.017 24.1353 27.5576 24.515 27.2357C24.8947 26.9138 25.3866 26.7557 25.8828 26.7962C27.516 26.6558 29.1564 26.9657 30.6257 27.6925C35.7113 30.2272 41.3344 31.4949 47.0156 31.3875H48.5052C48.5052 38.2889 48.5052 45.0362 48.5052 51.7965C48.4795 52.1079 48.427 52.4166 48.3484 52.719C47.8596 55.309 46.5035 57.6553 44.5034 59.3718C42.5033 61.0884 39.9784 62.0728 37.3443 62.163C35.4348 62.3897 33.4988 62.1696 31.6889 61.5202C29.879 60.8708 28.2448 59.8098 26.915 58.4209V58.4288ZM33.0299 74.7533L30.7119 78.6391L26.2852 74.7533H33.0299ZM64.8872 111.098C64.8722 111.233 64.8424 111.366 64.7983 111.495H57.6147V103.151C57.6147 102.722 57.646 102.291 57.6147 101.863C57.62 101.79 57.62 101.718 57.6147 101.646C57.5988 101.418 57.5381 101.195 57.4361 100.991C57.334 100.786 57.1927 100.604 57.0201 100.454C56.8475 100.304 56.6471 100.19 56.4304 100.118C56.2136 100.046 55.9846 100.017 55.7567 100.033C55.692 100.035 55.6274 100.04 55.5633 100.049C55.1239 100.107 54.7254 100.337 54.4551 100.688C54.1847 101.039 54.0645 101.483 54.1208 101.923C54.1078 104.656 54.1208 107.392 54.1208 110.125V111.476H26.3924L32.664 107.844C33.0799 107.629 33.4798 107.384 33.8609 107.112V107.112C34.2014 106.863 34.4394 106.499 34.5302 106.087C34.621 105.675 34.5584 105.244 34.3542 104.875C34.1499 104.506 33.818 104.224 33.4207 104.082C33.0234 103.94 32.5881 103.948 32.1963 104.105C31.8301 104.25 31.4798 104.433 31.151 104.651C26.3323 107.439 21.4822 110.201 16.6635 113.034C15.1621 113.899 13.3973 114.188 11.6985 113.847C10.5313 113.638 9.47407 113.027 8.71032 112.12C7.94656 111.213 7.52448 110.067 7.51737 108.881C7.48078 99.7005 7.48078 90.5213 7.51737 81.3438C7.54084 79.6429 8.20979 78.0146 9.38881 76.7886C10.5678 75.5625 12.1688 74.8303 13.8674 74.7403C16.0102 74.6358 18.1609 74.6749 20.3115 74.722C20.7621 74.778 21.1836 74.9746 21.5162 75.2838C23.8837 77.3221 26.2199 79.397 28.5717 81.4536C28.9024 81.8502 29.3305 82.154 29.814 82.3353C30.2974 82.5166 30.8198 82.569 31.3297 82.4876C31.8395 82.4062 32.3195 82.1937 32.7225 81.8708C33.1254 81.548 33.4376 81.1259 33.6283 80.646C34.4332 79.3133 35.2389 77.978 36.0455 76.6401C36.1059 76.578 36.1715 76.5211 36.2415 76.4702C37.0725 77.8656 37.8904 79.2506 38.7188 80.6252C38.9128 81.1087 39.2276 81.5343 39.6333 81.8612C39.9416 82.1086 40.2957 82.293 40.6752 82.4035C41.0547 82.5141 41.4522 82.5488 41.8452 82.5056C42.2381 82.4624 42.6186 82.3422 42.9651 82.1518C43.3115 81.9614 43.617 81.7046 43.8641 81.3961C46.182 79.3604 48.479 77.2986 50.8308 75.3021C51.2754 74.9519 51.8179 74.7482 52.3831 74.7193C54.1758 74.6488 55.9762 74.6645 57.7715 74.7037C58.5763 74.722 59.3812 74.8657 60.4788 74.9833L54.4135 83.0449C53.0773 82.3218 51.5626 81.9949 50.0471 82.1028C48.5316 82.2107 47.0783 82.7487 45.858 83.6538C37.1483 88.7757 28.3705 93.7878 19.619 98.8417C19.2505 99.0586 18.8743 99.2519 18.2759 99.5812V98.2302C18.2628 96.9811 18.302 95.7294 18.2628 94.4803C18.2641 94.4541 18.2641 94.428 18.2628 94.4019C18.2453 93.9516 18.0541 93.5256 17.7294 93.2132C17.4047 92.9008 16.9717 92.7264 16.5211 92.7264C16.0705 92.7264 15.6374 92.9008 15.3127 93.2132C14.9879 93.5256 14.7968 93.9516 14.7794 94.4019C14.735 97.1353 14.7114 99.8713 14.7794 102.605C14.8238 104.22 16.2323 104.839 17.7636 103.958C22.2653 101.376 26.76 98.7824 31.2477 96.1762L39.453 91.4463L43.0932 97.7337C41.8729 98.4549 40.6838 99.1318 39.521 99.8242C38.413 100.483 38.0628 101.426 38.5855 102.354C38.6276 102.427 38.6739 102.498 38.724 102.565C39.0149 102.938 39.4419 103.181 39.9113 103.239C40.3807 103.297 40.8541 103.167 41.2274 102.876C45.5888 100.373 49.9659 97.8931 54.2933 95.3165C55.8226 94.4441 56.9704 93.0316 57.5114 91.3562C58.0525 89.6809 57.9476 87.8638 57.2175 86.2618C57.1025 85.9718 56.9902 85.5118 57.1339 85.3184C59.1121 82.6216 61.1425 79.9562 63.233 77.1732C64.2787 78.3563 64.8575 79.8798 64.8611 81.4588L64.8872 111.098ZM52.6627 92.1964C50.5722 93.5029 48.4346 94.6788 46.1716 95.9854L42.5288 89.672C44.7918 88.3654 46.9216 87.0797 49.114 85.9116C49.9415 85.4932 50.8988 85.4116 51.7851 85.684C52.6714 85.9563 53.4178 86.5615 53.8674 87.3724C54.3362 88.1733 54.4726 89.1259 54.2474 90.0262C54.0222 90.9264 53.4534 91.7026 52.6627 92.1885V92.1964Z" fill="#662D91"/>
<path d="M119.991 15.4628H65.4987C65.112 15.4628 64.7148 15.4497 64.328 15.4863C63.5943 15.5018 62.8943 15.7974 62.3716 16.3124C61.8488 16.8274 61.5428 17.5229 61.5163 18.2563C61.4222 19.4635 61.4222 20.6762 61.5163 21.8834C61.5473 22.576 61.8335 23.2327 62.3199 23.7267C62.8062 24.2208 63.4583 24.5174 64.1503 24.5593C64.4117 24.5959 64.673 24.6586 64.9813 24.7187V60.5193C64.9535 60.6834 64.9386 60.8494 64.9369 61.0158C64.9402 61.5351 65.0773 62.0448 65.335 62.4957C65.5927 62.9466 65.9623 63.3234 66.4081 63.5898L68.6868 60.5506C68.6481 60.5462 68.6096 60.5392 68.5718 60.5298V24.703H116.877V60.5637H78.4131L75.7345 64.068C80.5062 64.0915 85.2753 64.0837 90.0444 64.0837H91.1419C91.3091 66.2213 91.3091 66.2213 89.7125 67.4103C88.7696 68.1045 88.0735 69.082 87.7259 70.2001C87.3783 71.3181 87.3974 72.5181 87.7804 73.6245C88.1634 74.731 88.8903 75.6858 89.8547 76.3497C90.8192 77.0135 91.9707 77.3515 93.141 77.3142C94.3009 77.2927 95.4235 76.9007 96.3445 76.1954C97.2656 75.4901 97.937 74.5086 98.2603 73.3945C98.6356 72.2908 98.624 71.0922 98.2274 69.996C97.8308 68.8998 97.0728 67.9713 96.0782 67.3632C94.5416 66.5505 94.641 65.5131 94.8213 64.0837H116.722C119.44 64.0837 120.485 63.0384 120.485 60.3364V24.6847C123.242 24.3136 124 23.4435 124 20.8303V19.4243C124 16.4009 123.054 15.4628 119.991 15.4628ZM94.9415 71.9258V71.9415C94.9421 72.1931 94.8933 72.4423 94.7977 72.675C94.702 72.9076 94.5616 73.1191 94.3842 73.2975C94.2068 73.4758 93.9959 73.6175 93.7638 73.7144C93.5317 73.8113 93.2828 73.8615 93.0313 73.8622H92.9999C92.7398 73.8681 92.481 73.8227 92.2384 73.7286C91.9958 73.6345 91.7741 73.4934 91.5861 73.3136C91.398 73.1338 91.2473 72.9187 91.1423 72.6806C91.0374 72.4424 90.9804 72.186 90.9746 71.9258C90.9799 71.3953 91.1911 70.8876 91.5636 70.5097C91.936 70.1319 92.4407 69.9135 92.9711 69.9006H92.9842C93.5126 69.9109 94.0153 70.1306 94.3818 70.5113C94.7483 70.8921 94.9486 71.4027 94.9388 71.9311L94.9415 71.9258ZM120.404 21.0419H65.0493V19.1212H120.402L120.404 21.0419Z" fill="#19A3A9"/>
</svg>
