<svg width="128" height="128" viewBox="0 0 128 128" fill="none" xmlns="http://www.w3.org/2000/svg">
<path d="M4 11.1165C4.48198 9.43272 5.42096 7.91541 6.71277 6.73282C7.82065 5.93277 9.09365 5.39092 10.4383 5.14701C11.7829 4.90309 13.165 4.9633 14.4833 5.32323C27.66 7.36506 40.8464 9.34883 54.0296 11.3552C58.4616 12.0293 62.9001 12.6777 67.3256 13.4002C69.2569 13.5871 71.038 14.5231 72.2873 16.0076C73.5367 17.4921 74.1547 19.4069 74.009 21.3417C74.0219 30.1864 74.0219 39.03 74.009 47.8725V49.4241C75.9444 49.8208 77.8799 50.2305 79.8153 50.6143C92.3179 53.0981 104.811 55.6108 117.326 58.0333C118.937 58.2585 120.439 58.9715 121.633 60.0764C122.826 61.1813 123.652 62.6251 124 64.2136V117.543C123.773 118.272 123.509 118.989 123.21 119.691C122.662 120.759 121.88 121.689 120.921 122.41C119.962 123.131 118.852 123.626 117.675 123.856H10.3385C8.37972 123.475 6.63863 122.365 5.46772 120.749C4.92252 119.787 4.43557 118.793 4.00965 117.772L4 11.1165ZM23.9795 118.817V117.356C23.9795 110.614 23.9795 103.872 23.9795 97.1279C23.8775 96.0321 24.0175 94.9273 24.3896 93.8916C24.7617 92.8559 25.3569 91.9145 26.1329 91.1342C26.9089 90.3538 27.8469 89.7535 28.8805 89.3757C29.9142 88.9979 31.0183 88.8518 32.1146 88.9477C36.6843 88.9477 41.2529 88.9477 45.8204 88.9477C46.9161 88.8381 48.0224 88.9729 49.0598 89.3423C50.0972 89.7117 51.0397 90.3065 51.8196 91.0839C52.5995 91.8613 53.1972 92.802 53.5699 93.8382C53.9425 94.8743 54.0807 95.9803 53.9746 97.0763C53.9746 103.857 53.9746 110.638 53.9746 117.42V118.82H68.9739V21.9804C68.9739 21.6578 68.9739 21.3578 68.9739 21.045C69.0137 20.7125 68.9847 20.3754 68.8888 20.0546C68.793 19.7338 68.6324 19.4361 68.4167 19.1799C68.2011 18.9238 67.9351 18.7146 67.6353 18.5655C67.3356 18.4163 67.0083 18.3304 66.674 18.3129C64.1354 17.8903 61.5839 17.5355 59.0389 17.1516L12.5254 10.1391C10.0997 9.77459 8.97724 10.71 8.97724 13.1583C8.97724 47.3392 8.97724 81.5191 8.97724 115.698C8.97724 117.956 9.90298 118.878 12.1867 118.885C15.7392 118.885 19.2874 118.885 22.8313 118.885C23.1925 118.885 23.5343 118.846 23.9795 118.817ZM74.0832 118.888H115.436C118.213 118.888 119.01 118.101 119.01 115.359C119.01 99.0654 119.01 82.7706 119.01 66.4747C119.01 63.9652 118.455 63.3007 116.042 62.8233L81.9538 56.0947C79.3733 55.5818 76.7637 55.0915 74.0832 54.5754V118.888ZM48.9976 118.84V117.804C48.9976 110.871 48.9976 103.938 48.9976 97.0053C48.9976 94.8022 48.0975 93.9249 45.8428 93.9249C41.3162 93.9249 36.7897 93.9249 32.2631 93.9249C29.8148 93.9249 29.0374 94.7022 29.0374 97.1279C29.0374 103.983 29.0374 110.839 29.0374 117.695C29.0374 118.065 29.0856 118.44 29.1114 118.849L48.9976 118.84Z" fill="#777777"/>
<path d="M26.5149 34.0378C24.957 34.0378 23.3957 34.0378 21.8377 34.0378C21.4883 34.0787 21.1343 34.0465 20.798 33.9432C20.4617 33.8399 20.1504 33.6679 19.8841 33.438C19.6178 33.2081 19.4022 32.9253 19.251 32.6077C19.0997 32.2901 19.0162 31.9445 19.0057 31.5928C18.9965 31.2404 19.063 30.8902 19.2008 30.5657C19.3385 30.2412 19.5443 29.95 19.8042 29.7119C20.0641 29.4737 20.372 29.2941 20.7073 29.1851C21.0425 29.0761 21.3971 29.0403 21.7474 29.0801C24.9042 29.0564 28.0611 29.0564 31.2179 29.0801C31.5676 29.0389 31.9221 29.0726 32.2578 29.1788C32.5935 29.2851 32.9027 29.4615 33.165 29.6963C33.4274 29.9312 33.6367 30.2192 33.7793 30.5411C33.9219 30.8631 33.9943 31.2117 33.9919 31.5638C33.9873 31.9158 33.9091 32.2629 33.7624 32.5829C33.6157 32.9029 33.4037 33.1886 33.14 33.4219C32.8764 33.6552 32.5671 33.8307 32.2316 33.9374C31.8962 34.044 31.5421 34.0793 31.1921 34.0411C29.6309 34.0507 28.0729 34.0378 26.5149 34.0378Z" fill="#777777"/>
<path d="M26.4989 49.008C24.8861 49.008 23.3022 49.0273 21.7055 49.008C21.3646 49.0339 21.022 48.99 20.6987 48.8788C20.3754 48.7676 20.0781 48.5915 19.8253 48.3614C19.5725 48.1312 19.3696 47.8518 19.2286 47.5403C19.0876 47.2289 19.0118 46.8919 19.0057 46.55C18.9964 46.2075 19.0593 45.8669 19.1906 45.5504C19.3219 45.2339 19.5184 44.9487 19.7675 44.7133C20.0165 44.478 20.3123 44.2979 20.6357 44.1847C20.9591 44.0715 21.3028 44.0279 21.6443 44.0566C24.8699 44.0287 28.1041 44.0287 31.347 44.0566C31.6879 44.0295 32.0307 44.0741 32.3534 44.1876C32.6761 44.3012 32.9713 44.481 33.2202 44.7156C33.4691 44.9502 33.6661 45.2344 33.7985 45.5498C33.9308 45.8652 33.9956 46.2048 33.9887 46.5468C33.9835 46.8888 33.9084 47.2261 33.768 47.5379C33.6275 47.8497 33.4248 48.1296 33.1722 48.3601C32.9196 48.5907 32.6226 48.7671 32.2993 48.8785C31.9759 48.9899 31.633 49.034 31.292 49.008C29.6953 49.0273 28.0988 49.008 26.4989 49.008Z" fill="#777777"/>
<path d="M26.5407 59.0107C28.1535 59.0107 29.7374 58.9881 31.334 59.0107C31.6748 58.9833 32.0175 59.0273 32.3403 59.1397C32.6631 59.2521 32.9589 59.4305 33.2089 59.6636C33.459 59.8966 33.6576 60.1792 33.7924 60.4933C33.9273 60.8074 33.9952 61.1462 33.9919 61.488C33.9907 61.8306 33.9189 62.1692 33.7808 62.4828C33.6428 62.7964 33.4415 63.0781 33.1896 63.3103C32.9377 63.5425 32.6406 63.7202 32.3169 63.8324C31.9931 63.9445 31.6498 63.9887 31.3083 63.962C28.1127 63.9857 24.9171 63.9857 21.7215 63.962C21.3805 63.9912 21.0371 63.9501 20.7125 63.8413C20.388 63.7325 20.0892 63.5583 19.8347 63.3295C19.5801 63.1006 19.3752 62.822 19.2326 62.5108C19.09 62.1996 19.0127 61.8625 19.0056 61.5202C18.9976 61.1683 19.0648 60.8187 19.2027 60.4949C19.3406 60.171 19.5459 59.8803 19.8051 59.6422C20.0643 59.404 20.3715 59.2239 20.7058 59.1139C21.0402 59.0039 21.3942 58.9665 21.7442 59.0042C23.3441 58.9913 24.9408 59.0075 26.5407 59.0107Z" fill="#777777"/>
<path d="M26.489 73.9841C28.1244 73.9841 29.7631 73.9582 31.3985 73.9841C31.7294 73.9648 32.0607 74.0131 32.3723 74.1262C32.6838 74.2393 32.969 74.4147 33.2106 74.6417C33.4521 74.8687 33.6447 75.1426 33.7768 75.4466C33.9089 75.7505 33.9778 76.0783 33.979 76.4097C33.9859 76.7523 33.9216 77.0925 33.7904 77.409C33.6591 77.7255 33.4636 78.0113 33.2163 78.2483C32.9689 78.4854 32.6749 78.6686 32.3532 78.7863C32.0314 78.904 31.6887 78.9536 31.3467 78.9322C28.1211 78.958 24.8869 78.958 21.644 78.9322C21.3026 78.9544 20.9603 78.9059 20.6386 78.7896C20.3168 78.6734 20.0226 78.4919 19.7743 78.2566C19.526 78.0213 19.3289 77.7372 19.1955 77.4222C19.0621 77.1071 18.9952 76.7679 18.999 76.4258C19.0013 76.084 19.0744 75.7463 19.2136 75.4341C19.3528 75.1218 19.5551 74.8417 19.8078 74.6114C20.0605 74.3812 20.3581 74.2057 20.6819 74.0961C21.0057 73.9864 21.3487 73.945 21.6893 73.9744H26.4825L26.489 73.9841Z" fill="#777777"/>
<path d="M51.4521 34.0409C49.8942 34.0409 48.3363 34.0409 46.7783 34.0409C46.4286 34.08 46.0747 34.044 45.74 33.9354C45.4054 33.8269 45.0978 33.6482 44.8378 33.4113C44.5777 33.1744 44.3711 32.8847 44.2318 32.5617C44.0925 32.2386 44.0237 31.8896 44.03 31.5379C44.0185 31.1949 44.081 30.8534 44.2135 30.5368C44.3459 30.2202 44.545 29.9358 44.7973 29.7032C45.0496 29.4705 45.349 29.2949 45.6753 29.1885C46.0015 29.0821 46.347 29.0472 46.6879 29.0864C49.8834 29.0606 53.0779 29.0606 56.2713 29.0864C56.6119 29.0534 56.9557 29.0913 57.2811 29.1976C57.6064 29.3039 57.9062 29.4765 58.1616 29.7043C58.417 29.9321 58.6225 30.2104 58.7651 30.5215C58.9078 30.8326 58.9845 31.1698 58.9904 31.5121C58.9952 31.8643 58.9258 32.2136 58.7866 32.5372C58.6474 32.8608 58.4416 33.1515 58.1827 33.3903C57.9237 33.6292 57.6175 33.8108 57.2837 33.9235C56.95 34.0361 56.5962 34.0773 56.2455 34.0442C54.6391 34.0571 53.052 34.0409 51.4521 34.0409Z" fill="#777777"/>
<path d="M51.5102 49.0079C49.8974 49.0079 48.3136 49.0272 46.7169 49.0079C46.3762 49.0397 46.0326 49.0001 45.7081 48.8916C45.3836 48.783 45.0854 48.6079 44.8324 48.3775C44.5795 48.147 44.3775 47.8663 44.2393 47.5532C44.1011 47.2402 44.0298 46.9018 44.03 46.5596C44.0107 46.2172 44.0658 45.8747 44.1912 45.5555C44.3166 45.2363 44.5095 44.948 44.7567 44.7103C45.0039 44.4726 45.2995 44.2911 45.6234 44.1783C45.9472 44.0655 46.2917 44.0239 46.6331 44.0565C49.8587 44.0264 53.0929 44.0264 56.3357 44.0565C56.6767 44.0306 57.0193 44.0758 57.3419 44.1891C57.6645 44.3024 57.9601 44.4815 58.2099 44.715C58.4597 44.9484 58.6583 45.2312 58.7933 45.5454C58.9282 45.8596 58.9964 46.1983 58.9937 46.5402C58.9894 46.8825 58.915 47.2202 58.7751 47.5325C58.6353 47.8449 58.4329 48.1254 58.1806 48.3565C57.9282 48.5877 57.6312 48.7648 57.3078 48.8768C56.9844 48.9888 56.6415 49.0334 56.3002 49.0079C54.7035 49.0272 53.1069 49.0079 51.5102 49.0079Z" fill="#777777"/>
<path d="M51.507 59.0108C53.065 59.0108 54.623 59.0108 56.1842 59.0108C56.5333 58.9697 56.8871 59.0022 57.2229 59.1063C57.5586 59.2103 57.8688 59.3836 58.1335 59.6148C58.3982 59.8461 58.6115 60.1303 58.7597 60.449C58.9079 60.7678 58.9876 61.114 58.9938 61.4655C58.9948 61.8181 58.9216 62.167 58.7789 62.4894C58.6362 62.8119 58.4272 63.1007 58.1655 63.3371C57.9039 63.5735 57.5954 63.7522 57.2602 63.8615C56.9249 63.9709 56.5704 64.0084 56.2197 63.9718C53.0629 63.989 49.9071 63.989 46.7525 63.9718C46.402 64.0105 46.0473 63.9732 45.7126 63.8625C45.3778 63.7518 45.0709 63.5703 44.8125 63.3304C44.5542 63.0904 44.3506 62.7976 44.2156 62.4719C44.0806 62.1462 44.0173 61.7952 44.0301 61.4429C44.0246 61.1002 44.0923 60.7603 44.2288 60.446C44.3653 60.1316 44.5673 59.8501 44.8214 59.6201C45.0755 59.3901 45.3757 59.2171 45.702 59.1126C46.0284 59.008 46.3734 58.9744 46.7138 59.014C48.3105 58.9914 49.9104 59.0108 51.507 59.0108Z" fill="#777777"/>
<path d="M51.5845 73.9839C53.1974 73.9839 54.7812 73.9581 56.3779 73.9839C56.7093 73.9634 57.0414 74.0101 57.3543 74.1214C57.6672 74.2326 57.9543 74.406 58.1984 74.6311C58.4425 74.8562 58.6385 75.1284 58.7747 75.4313C58.9108 75.7341 58.9843 76.0614 58.9907 76.3934C59.0007 76.7361 58.9392 77.0772 58.8102 77.3948C58.6813 77.7125 58.4876 77.9999 58.2415 78.2387C57.9955 78.4774 57.7025 78.6624 57.3811 78.7817C57.0597 78.9011 56.7169 78.9523 56.3746 78.932C53.1017 78.9599 49.8287 78.9599 46.5558 78.932C46.2234 78.9482 45.8913 78.8954 45.5803 78.7768C45.2693 78.6583 44.9863 78.4767 44.749 78.2433C44.5117 78.01 44.3253 77.73 44.2016 77.4211C44.0778 77.1121 44.0195 76.7809 44.0302 76.4483C44.0167 76.1158 44.0734 75.7842 44.1967 75.4751C44.32 75.166 44.507 74.8864 44.7456 74.6545C44.9842 74.4226 45.2691 74.2436 45.5816 74.1291C45.894 74.0147 46.2271 73.9674 46.5591 73.9903C48.2332 73.9548 49.9104 73.9839 51.5845 73.9839Z" fill="#777777"/>
<path d="M96.4789 78.945C94.8661 78.945 93.2823 78.9644 91.6856 78.945C91.3447 78.9738 91.0015 78.931 90.6781 78.8194C90.3547 78.7078 90.0582 78.5298 89.8076 78.2968C89.5571 78.0639 89.358 77.7811 89.2231 77.4667C89.0882 77.1522 89.0205 76.8131 89.0245 76.4709C89.0092 76.1283 89.068 75.7864 89.1968 75.4685C89.3256 75.1506 89.5214 74.8641 89.7709 74.6287C90.0204 74.3933 90.3177 74.2145 90.6426 74.1043C90.9674 73.9942 91.3121 73.9553 91.6533 73.9904C94.879 73.9625 98.1132 73.9625 101.356 73.9904C101.698 73.9666 102.04 74.0142 102.362 74.1302C102.685 74.2462 102.979 74.4281 103.227 74.6642C103.475 74.9003 103.671 75.1855 103.803 75.5016C103.934 75.8177 103.999 76.1577 103.991 76.5C103.982 76.8419 103.902 77.1782 103.759 77.4887C103.615 77.7991 103.41 78.0771 103.156 78.306C102.901 78.5349 102.604 78.7098 102.28 78.8202C101.956 78.9306 101.613 78.9741 101.272 78.9483H96.4789V78.945Z" fill="#777777"/>
<path d="M96.4045 93.9313C94.8465 93.9313 93.2885 93.9474 91.7306 93.9313C91.3804 93.968 91.0265 93.9291 90.6927 93.8172C90.3589 93.7053 90.053 93.5229 89.7958 93.2825C89.5385 93.0421 89.336 92.7492 89.2018 92.4237C89.0676 92.0983 89.0048 91.7478 89.0178 91.3959C89.0125 91.0532 89.0808 90.7133 89.2179 90.3991C89.355 90.0849 89.5578 89.8037 89.8127 89.5744C90.0676 89.3452 90.3686 89.1733 90.6956 89.0702C91.0225 88.9671 91.3677 88.9352 91.708 88.9767C94.8627 88.9531 98.0184 88.9531 101.175 88.9767C101.524 88.9351 101.878 88.9673 102.214 89.0714C102.55 89.1755 102.86 89.3491 103.125 89.5809C103.389 89.8128 103.602 90.0976 103.749 90.4169C103.896 90.7363 103.974 91.0831 103.978 91.4346C103.977 91.7869 103.902 92.1349 103.758 92.4564C103.614 92.7778 103.404 93.0656 103.142 93.3011C102.88 93.5366 102.572 93.7146 102.237 93.8237C101.902 93.9328 101.548 93.9705 101.198 93.9345C99.6108 93.9313 98.0173 93.9313 96.4045 93.9313Z" fill="#777777"/>
<path d="M96.582 103.924C98.1948 103.924 99.7786 103.899 101.375 103.924C101.707 103.904 102.039 103.951 102.352 104.062C102.665 104.173 102.952 104.346 103.196 104.572C103.44 104.797 103.636 105.069 103.772 105.372C103.908 105.675 103.982 106.002 103.988 106.334C103.999 106.677 103.937 107.018 103.809 107.336C103.68 107.654 103.486 107.941 103.24 108.18C102.994 108.419 102.701 108.604 102.379 108.723C102.057 108.842 101.714 108.893 101.372 108.872C98.0991 108.9 94.8262 108.9 91.5532 108.872C91.2208 108.889 90.8887 108.836 90.5777 108.717C90.2667 108.599 89.9837 108.417 89.7464 108.184C89.5091 107.95 89.3227 107.67 89.199 107.361C89.0753 107.053 89.017 106.721 89.0276 106.389C89.0146 106.056 89.0717 105.725 89.1951 105.416C89.3186 105.107 89.5057 104.828 89.7442 104.596C89.9827 104.364 90.2673 104.185 90.5796 104.071C90.8918 103.956 91.2246 103.908 91.5565 103.931C93.2338 103.895 94.9079 103.924 96.582 103.924Z" fill="#777777"/>
</svg>
