<svg width="128" height="128" viewBox="0 0 128 128" fill="none" xmlns="http://www.w3.org/2000/svg">
<path d="M4 11.1165C4.48198 9.43272 5.42096 7.91541 6.71277 6.73282C7.82065 5.93277 9.09365 5.39092 10.4383 5.14701C11.7829 4.90309 13.165 4.9633 14.4833 5.32323C27.66 7.36506 40.8464 9.34883 54.0296 11.3552C58.4616 12.0293 62.9001 12.6777 67.3256 13.4002C69.2569 13.5871 71.038 14.5231 72.2873 16.0076C73.5367 17.4921 74.1547 19.4069 74.009 21.3417C74.0219 30.1864 74.0219 39.03 74.009 47.8725V49.4241C75.9444 49.8208 77.8799 50.2305 79.8153 50.6143C92.3179 53.0981 104.811 55.6108 117.326 58.0333C118.937 58.2585 120.439 58.9715 121.633 60.0764C122.826 61.1813 123.652 62.6251 124 64.2136V117.543C123.773 118.272 123.509 118.989 123.21 119.691C122.662 120.759 121.88 121.689 120.921 122.41C119.962 123.131 118.852 123.626 117.675 123.856H10.3385C8.37972 123.475 6.63863 122.365 5.46772 120.749C4.92252 119.787 4.43557 118.793 4.00965 117.772L4 11.1165ZM23.9795 118.817V117.356C23.9795 110.614 23.9795 103.872 23.9795 97.1279C23.8775 96.0321 24.0175 94.9273 24.3896 93.8916C24.7617 92.8559 25.3569 91.9145 26.1329 91.1342C26.9089 90.3538 27.8469 89.7535 28.8805 89.3757C29.9142 88.9979 31.0183 88.8518 32.1146 88.9477C36.6843 88.9477 41.2529 88.9477 45.8204 88.9477C46.9161 88.8381 48.0224 88.9729 49.0598 89.3423C50.0972 89.7117 51.0397 90.3065 51.8196 91.0839C52.5995 91.8613 53.1972 92.802 53.5699 93.8382C53.9425 94.8743 54.0807 95.9803 53.9746 97.0763C53.9746 103.857 53.9746 110.638 53.9746 117.42V118.82H68.9739V21.9804C68.9739 21.6578 68.9739 21.3578 68.9739 21.045C69.0137 20.7125 68.9847 20.3754 68.8888 20.0546C68.793 19.7338 68.6324 19.4361 68.4167 19.1799C68.2011 18.9238 67.9351 18.7146 67.6353 18.5655C67.3356 18.4163 67.0083 18.3304 66.674 18.3129C64.1354 17.8903 61.5839 17.5355 59.0389 17.1516L12.5254 10.1391C10.0997 9.77459 8.97724 10.71 8.97724 13.1583C8.97724 47.3392 8.97724 81.5191 8.97724 115.698C8.97724 117.956 9.90298 118.878 12.1867 118.885C15.7392 118.885 19.2874 118.885 22.8313 118.885C23.1925 118.885 23.5343 118.846 23.9795 118.817ZM74.0832 118.888H115.436C118.213 118.888 119.01 118.101 119.01 115.359C119.01 99.0654 119.01 82.7706 119.01 66.4747C119.01 63.9652 118.455 63.3007 116.042 62.8233L81.9538 56.0947C79.3733 55.5818 76.7637 55.0915 74.0832 54.5754V118.888ZM48.9976 118.84V117.804C48.9976 110.871 48.9976 103.938 48.9976 97.0053C48.9976 94.8022 48.0975 93.9249 45.8428 93.9249C41.3162 93.9249 36.7897 93.9249 32.2631 93.9249C29.8148 93.9249 29.0374 94.7022 29.0374 97.1279C29.0374 103.983 29.0374 110.839 29.0374 117.695C29.0374 118.065 29.0856 118.44 29.1114 118.849L48.9976 118.84Z" fill="#662D91"/>
<path d="M26.5149 34.0378C24.9569 34.0378 23.3957 34.0378 21.8377 34.0378C21.4883 34.0786 21.1343 34.0464 20.798 33.9431C20.4617 33.8399 20.1504 33.6678 19.8841 33.4379C19.6178 33.208 19.4022 32.9253 19.2509 32.6076C19.0997 32.29 19.0162 31.9444 19.0056 31.5928C18.9964 31.2404 19.063 30.8901 19.2007 30.5656C19.3385 30.2411 19.5443 29.95 19.8041 29.7118C20.064 29.4736 20.372 29.294 20.7072 29.185C21.0425 29.076 21.3971 29.0402 21.7473 29.08C24.9041 29.0563 28.0611 29.0563 31.2179 29.08C31.5676 29.0388 31.9221 29.0725 32.2578 29.1787C32.5935 29.285 32.9027 29.4614 33.165 29.6963C33.4273 29.9311 33.6367 30.2191 33.7793 30.5411C33.9218 30.863 33.9943 31.2116 33.9919 31.5637C33.9872 31.9157 33.909 32.2628 33.7623 32.5828C33.6156 32.9028 33.4036 33.1886 33.14 33.4218C32.8764 33.6551 32.5671 33.8307 32.2316 33.9373C31.8961 34.0439 31.542 34.0793 31.1921 34.041C29.6309 34.0507 28.0729 34.0378 26.5149 34.0378Z" fill="#19A3A9"/>
<path d="M26.4988 49.0079C24.886 49.0079 23.3021 49.0272 21.7055 49.0079C21.3646 49.0339 21.0219 48.9899 20.6986 48.8787C20.3753 48.7676 20.0781 48.5915 19.8253 48.3613C19.5725 48.1312 19.3695 47.8518 19.2286 47.5403C19.0876 47.2288 19.0117 46.8918 19.0057 46.55C18.9963 46.2075 19.0593 45.8668 19.1906 45.5503C19.3218 45.2338 19.5184 44.9486 19.7674 44.7133C20.0164 44.4779 20.3122 44.2978 20.6356 44.1846C20.959 44.0715 21.3028 44.0278 21.6442 44.0566C24.8699 44.0286 28.1041 44.0286 31.3469 44.0566C31.6879 44.0294 32.0307 44.0741 32.3534 44.1876C32.676 44.3011 32.9713 44.4809 33.2202 44.7156C33.4691 44.9502 33.6661 45.2343 33.7984 45.5497C33.9308 45.8651 33.9955 46.2048 33.9886 46.5467C33.9834 46.8887 33.9083 47.226 33.7679 47.5378C33.6275 47.8497 33.4248 48.1295 33.1722 48.3601C32.9196 48.5906 32.6226 48.767 32.2992 48.8784C31.9759 48.9898 31.633 49.0339 31.292 49.0079C29.6953 49.0272 28.0987 49.0079 26.4988 49.0079Z" fill="#19A3A9"/>
<path d="M26.5407 59.0106C28.1535 59.0106 29.7373 58.988 31.334 59.0106C31.6747 58.9833 32.0174 59.0272 32.3402 59.1396C32.6631 59.252 32.9588 59.4304 33.2089 59.6635C33.4589 59.8966 33.6576 60.1791 33.7924 60.4932C33.9272 60.8074 33.9952 61.1461 33.9919 61.4879C33.9907 61.8305 33.9189 62.1692 33.7808 62.4827C33.6427 62.7963 33.4415 63.078 33.1896 63.3102C32.9377 63.5424 32.6405 63.7202 32.3168 63.8323C31.9931 63.9445 31.6498 63.9886 31.3082 63.962C28.1127 63.9856 24.917 63.9856 21.7215 63.962C21.3804 63.9912 21.0371 63.9501 20.7125 63.8413C20.3879 63.7325 20.0892 63.5583 19.8346 63.3294C19.5801 63.1005 19.3752 62.8219 19.2326 62.5107C19.09 62.1995 19.0127 61.8624 19.0056 61.5202C18.9976 61.1683 19.0648 60.8187 19.2027 60.4948C19.3405 60.171 19.5459 59.8802 19.8051 59.6421C20.0643 59.404 20.3714 59.2239 20.7058 59.1139C21.0402 59.0038 21.3942 58.9665 21.7441 59.0042C23.3441 58.9913 24.9407 59.0074 26.5407 59.0106Z" fill="#19A3A9"/>
<path d="M26.489 73.9841C28.1244 73.9841 29.7631 73.9582 31.3985 73.9841C31.7294 73.9648 32.0607 74.0131 32.3723 74.1262C32.6839 74.2393 32.9691 74.4147 33.2106 74.6417C33.4521 74.8687 33.6447 75.1426 33.7768 75.4466C33.9089 75.7505 33.9778 76.0783 33.979 76.4097C33.9859 76.7523 33.9217 77.0925 33.7904 77.409C33.6591 77.7255 33.4637 78.0113 33.2163 78.2483C32.9689 78.4854 32.675 78.6686 32.3532 78.7863C32.0314 78.904 31.6887 78.9536 31.3468 78.9322C28.1211 78.958 24.8869 78.958 21.6441 78.9322C21.3027 78.9544 20.9604 78.9059 20.6386 78.7896C20.3169 78.6734 20.0227 78.4919 19.7743 78.2566C19.526 78.0213 19.3289 77.7372 19.1955 77.4222C19.0621 77.1071 18.9952 76.7679 18.999 76.4258C19.0013 76.084 19.0745 75.7463 19.2136 75.4341C19.3528 75.1218 19.5551 74.8417 19.8078 74.6114C20.0605 74.3812 20.3581 74.2057 20.6819 74.0961C21.0057 73.9864 21.3487 73.945 21.6893 73.9744H26.4825L26.489 73.9841Z" fill="#19A3A9"/>
<path d="M51.4521 34.0409C49.8941 34.0409 48.3362 34.0409 46.7782 34.0409C46.4286 34.08 46.0746 34.044 45.74 33.9354C45.4054 33.8269 45.0978 33.6482 44.8377 33.4113C44.5776 33.1744 44.371 32.8847 44.2317 32.5617C44.0925 32.2386 44.0236 31.8896 44.0299 31.5379C44.0184 31.1949 44.081 30.8534 44.2134 30.5368C44.3458 30.2202 44.545 29.9358 44.7973 29.7032C45.0495 29.4705 45.349 29.2949 45.6752 29.1885C46.0015 29.0821 46.3469 29.0472 46.6879 29.0864C49.8834 29.0606 53.0779 29.0606 56.2713 29.0864C56.6119 29.0534 56.9557 29.0913 57.281 29.1976C57.6064 29.3039 57.9062 29.4765 58.1616 29.7043C58.417 29.9321 58.6224 30.2104 58.7651 30.5215C58.9077 30.8326 58.9844 31.1698 58.9904 31.5121C58.9951 31.8643 58.9257 32.2136 58.7866 32.5372C58.6474 32.8608 58.4416 33.1515 58.1826 33.3903C57.9237 33.6292 57.6175 33.8108 57.2837 33.9235C56.9499 34.0361 56.5962 34.0773 56.2455 34.0442C54.6391 34.0571 53.052 34.0409 51.4521 34.0409Z" fill="#19A3A9"/>
<path d="M51.5102 49.0079C49.8974 49.0079 48.3136 49.0273 46.717 49.0079C46.3763 49.0398 46.0327 49.0002 45.7082 48.8916C45.3837 48.7831 45.0854 48.608 44.8325 48.3775C44.5795 48.1471 44.3775 47.8663 44.2394 47.5533C44.1012 47.2403 44.0298 46.9018 44.03 46.5597C44.0108 46.2173 44.0658 45.8748 44.1912 45.5556C44.3167 45.2364 44.5096 44.9481 44.7568 44.7104C45.004 44.4727 45.2996 44.2912 45.6234 44.1784C45.9472 44.0655 46.2917 44.024 46.6331 44.0566C49.8587 44.0265 53.0929 44.0265 56.3358 44.0566C56.6767 44.0307 57.0193 44.0758 57.3419 44.1892C57.6645 44.3025 57.9601 44.4816 58.2099 44.715C58.4598 44.9485 58.6584 45.2312 58.7933 45.5454C58.9282 45.8596 58.9965 46.1984 58.9937 46.5403C58.9894 46.8825 58.915 47.2202 58.7752 47.5326C58.6353 47.845 58.433 48.1254 58.1806 48.3566C57.9283 48.5878 57.6312 48.7649 57.3079 48.8769C56.9845 48.9889 56.6415 49.0335 56.3002 49.0079C54.7035 49.0273 53.1069 49.0079 51.5102 49.0079Z" fill="#19A3A9"/>
<path d="M51.507 59.0107C53.065 59.0107 54.623 59.0107 56.1842 59.0107C56.5333 58.9696 56.8871 59.0022 57.2228 59.1062C57.5586 59.2103 57.8688 59.3835 58.1335 59.6148C58.3982 59.846 58.6115 60.1302 58.7597 60.4489C58.9078 60.7677 58.9876 61.114 58.9938 61.4654C58.9948 61.818 58.9216 62.1669 58.7789 62.4894C58.6362 62.8118 58.4271 63.1007 58.1655 63.3371C57.9038 63.5735 57.5954 63.7521 57.2602 63.8615C56.9249 63.9708 56.5704 64.0084 56.2197 63.9717C53.0628 63.9889 49.9071 63.9889 46.7524 63.9717C46.402 64.0104 46.0473 63.9731 45.7125 63.8625C45.3778 63.7518 45.0708 63.5703 44.8125 63.3303C44.5542 63.0903 44.3506 62.7975 44.2156 62.4718C44.0806 62.1461 44.0172 61.7952 44.03 61.4428C44.0245 61.1002 44.0923 60.7603 44.2288 60.4459C44.3652 60.1316 44.5673 59.85 44.8214 59.62C45.0755 59.3901 45.3756 59.217 45.702 59.1125C46.0284 59.008 46.3733 58.9744 46.7138 59.0139C48.3104 58.9913 49.9103 59.0107 51.507 59.0107Z" fill="#19A3A9"/>
<path d="M51.5845 73.9838C53.1973 73.9838 54.7812 73.958 56.3779 73.9838C56.7093 73.9632 57.0414 74.01 57.3543 74.1212C57.6672 74.2325 57.9543 74.4058 58.1984 74.631C58.4425 74.8561 58.6385 75.1283 58.7746 75.4311C58.9108 75.734 58.9843 76.0613 58.9906 76.3933C59.0006 76.736 58.9391 77.077 58.8102 77.3947C58.6812 77.7124 58.4876 77.9998 58.2415 78.2385C57.9955 78.4773 57.7025 78.6623 57.3811 78.7816C57.0596 78.901 56.7169 78.9522 56.3746 78.9319C53.1017 78.9598 49.8287 78.9598 46.5558 78.9319C46.2234 78.9481 45.8912 78.8953 45.5803 78.7767C45.2693 78.6582 44.9862 78.4765 44.7489 78.2432C44.5117 78.0098 44.3252 77.7299 44.2015 77.4209C44.0778 77.112 44.0195 76.7808 44.0301 76.4481C44.0167 76.1157 44.0734 75.7841 44.1967 75.475C44.32 75.1659 44.507 74.8863 44.7456 74.6544C44.9842 74.4224 45.2691 74.2434 45.5815 74.129C45.894 74.0146 46.2271 73.9673 46.559 73.9902C48.2331 73.9547 49.9104 73.9838 51.5845 73.9838Z" fill="#19A3A9"/>
<path d="M96.4789 78.945C94.8661 78.945 93.2823 78.9644 91.6856 78.945C91.3447 78.9738 91.0015 78.931 90.6781 78.8194C90.3547 78.7078 90.0582 78.5298 89.8076 78.2968C89.557 78.0639 89.358 77.7811 89.2231 77.4667C89.0882 77.1522 89.0205 76.8131 89.0244 76.471C89.0092 76.1283 89.068 75.7864 89.1968 75.4685C89.3256 75.1506 89.5214 74.8641 89.7709 74.6287C90.0204 74.3933 90.3177 74.2145 90.6426 74.1043C90.9674 73.9942 91.3121 73.9553 91.6533 73.9904C94.879 73.9625 98.1132 73.9625 101.356 73.9904C101.698 73.9666 102.04 74.0142 102.362 74.1302C102.685 74.2462 102.979 74.4281 103.227 74.6642C103.475 74.9003 103.671 75.1855 103.803 75.5016C103.934 75.8177 103.999 76.1577 103.991 76.5C103.981 76.8419 103.902 77.1782 103.759 77.4887C103.615 77.7991 103.41 78.0771 103.156 78.306C102.901 78.5349 102.604 78.7098 102.28 78.8202C101.956 78.9306 101.613 78.9741 101.272 78.9483H96.4789V78.945Z" fill="#19A3A9"/>
<path d="M96.4046 93.9312C94.8466 93.9312 93.2886 93.9473 91.7306 93.9312C91.3805 93.9679 91.0266 93.929 90.6928 93.8171C90.359 93.7051 90.053 93.5228 89.7958 93.2824C89.5386 93.042 89.3361 92.7491 89.2018 92.4236C89.0676 92.0981 89.0049 91.7477 89.0179 91.3958C89.0126 91.0531 89.0809 90.7131 89.218 90.3989C89.3551 90.0847 89.5579 89.8035 89.8128 89.5743C90.0677 89.3451 90.3687 89.1732 90.6957 89.0701C91.0226 88.967 91.3678 88.9351 91.7081 88.9766C94.8628 88.9529 98.0185 88.9529 101.175 88.9766C101.524 88.9349 101.878 88.9672 102.214 89.0713C102.55 89.1754 102.86 89.349 103.125 89.5808C103.389 89.8126 103.602 90.0974 103.749 90.4168C103.896 90.7362 103.974 91.0829 103.978 91.4345C103.977 91.7867 103.902 92.1348 103.758 92.4563C103.614 92.7777 103.404 93.0655 103.142 93.301C102.88 93.5365 102.572 93.7145 102.237 93.8236C101.902 93.9327 101.548 93.9704 101.198 93.9344C99.6108 93.9311 98.0174 93.9312 96.4046 93.9312Z" fill="#19A3A9"/>
<path d="M96.582 103.924C98.1948 103.924 99.7787 103.899 101.375 103.924C101.707 103.904 102.039 103.951 102.352 104.062C102.665 104.173 102.952 104.347 103.196 104.572C103.44 104.797 103.636 105.069 103.772 105.372C103.908 105.675 103.982 106.002 103.988 106.334C103.999 106.677 103.937 107.018 103.809 107.336C103.68 107.654 103.486 107.941 103.24 108.18C102.994 108.419 102.701 108.604 102.379 108.723C102.057 108.843 101.714 108.893 101.372 108.873C98.0992 108.9 94.8262 108.9 91.5533 108.873C91.2209 108.889 90.8887 108.836 90.5777 108.717C90.2668 108.599 89.9837 108.417 89.7464 108.184C89.5092 107.951 89.3227 107.671 89.199 107.362C89.0753 107.053 89.017 106.721 89.0276 106.389C89.0147 106.056 89.0717 105.725 89.1952 105.416C89.3186 105.107 89.5058 104.828 89.7443 104.596C89.9828 104.364 90.2674 104.185 90.5796 104.071C90.8918 103.956 91.2247 103.908 91.5565 103.931C93.2339 103.895 94.9079 103.924 96.582 103.924Z" fill="#19A3A9"/>
</svg>
