<svg width="128" height="128" viewBox="0 0 128 128" fill="none" xmlns="http://www.w3.org/2000/svg">
<path d="M22.862 81.398C20.506 81.3954 18.1981 82.0652 16.2095 83.3287C14.221 84.5923 12.6343 86.3971 11.6358 88.5311C10.6373 90.6651 10.2686 93.0398 10.5728 95.3761C10.8771 97.7124 11.8417 99.9133 13.3535 101.72L14.2187 102.754L13.0844 103.494C11.5235 104.504 10.2403 105.888 9.35217 107.521C8.46401 109.155 7.99914 110.984 8 112.843V121.667C8.00081 122.284 8.24608 122.876 8.68215 123.312C9.11823 123.749 9.70958 123.995 10.3267 123.997H35.3974C36.0145 123.995 36.6058 123.749 37.0419 123.312C37.478 122.876 37.7233 122.284 37.7241 121.667V112.843C37.7249 110.984 37.2597 109.154 36.3709 107.521C35.4822 105.887 34.1983 104.503 32.6365 103.494L31.5053 102.754L32.3705 101.72C33.8821 99.9135 34.8467 97.7129 35.1511 95.3768C35.4555 93.0408 35.087 90.6664 34.0889 88.5325C33.0908 86.3986 31.5046 84.5938 29.5164 83.33C27.5283 82.0662 25.2209 81.396 22.8651 81.398H22.862ZM22.862 86.0574C24.3906 86.0574 25.8848 86.5106 27.1558 87.3597C28.4268 88.2089 29.4174 89.4158 30.0025 90.828C30.5876 92.2401 30.7409 93.794 30.4429 95.2932C30.1449 96.7925 29.409 98.1697 28.3284 99.2508C27.2478 100.332 25.8709 101.068 24.3718 101.367C22.8727 101.665 21.3187 101.513 19.9064 100.928C18.494 100.344 17.2866 99.3534 16.437 98.0828C15.5873 96.8121 15.1335 95.3181 15.1329 93.7895C15.1353 91.7406 15.9499 89.7763 17.3981 88.3269C18.8464 86.8776 20.8101 86.0614 22.859 86.0574H22.862ZM33.0615 112.846V119.34H12.6625V112.846C12.6641 111.125 13.3489 109.474 14.5664 108.256C15.7839 107.039 17.4347 106.354 19.1565 106.352H26.5706C28.2911 106.356 29.9403 107.041 31.1568 108.257C32.3734 109.474 33.0583 111.123 33.0615 112.843V112.846Z" fill="#19A3A9"/>
<path d="M94.8883 101.724L95.7566 102.757L94.6223 103.497C93.0608 104.506 91.7771 105.891 90.8884 107.524C89.9996 109.157 89.5343 110.987 89.5348 112.847V121.67C89.5356 122.288 89.7813 122.88 90.2181 123.317C90.6548 123.753 91.247 123.999 91.8646 124H116.935C117.553 123.998 118.144 123.752 118.581 123.316C119.017 122.879 119.263 122.288 119.265 121.67V112.847C119.265 110.987 118.799 109.158 117.91 107.525C117.022 105.892 115.738 104.507 114.177 103.497L113.046 102.757L113.912 101.724C115.423 99.9159 116.387 97.7146 116.691 95.3781C116.995 93.0416 116.627 90.6668 115.629 88.5323C114.631 86.3978 113.045 84.5921 111.057 83.327C109.07 82.062 106.762 81.3901 104.406 81.3901C102.05 81.3901 99.7425 82.062 97.7546 83.327C95.7668 84.5921 94.181 86.3978 93.1832 88.5323C92.1854 90.6668 91.8169 93.0416 92.1211 95.3781C92.4253 97.7146 93.3895 99.9159 94.9005 101.724H94.8883ZM104.394 86.0607C105.922 86.0607 107.417 86.5139 108.688 87.363C109.958 88.2122 110.949 89.4191 111.534 90.8313C112.119 92.2434 112.273 93.7973 111.975 95.2965C111.677 96.7957 110.941 98.173 109.86 99.254C108.78 100.335 107.403 101.071 105.904 101.37C104.404 101.669 102.85 101.516 101.438 100.931C100.026 100.347 98.8184 99.3567 97.9688 98.0861C97.1191 96.8154 96.6653 95.3214 96.6647 93.7928C96.6655 91.7432 97.4795 89.7775 98.9279 88.3273C100.376 86.8771 102.341 86.0608 104.391 86.0576L104.394 86.0607ZM100.688 106.353H108.099C109.821 106.355 111.471 107.04 112.689 108.257C113.906 109.475 114.591 111.125 114.593 112.847V119.34H94.1912V112.847C94.1929 111.124 94.8774 109.473 96.0948 108.255C97.3123 107.037 98.9631 106.352 100.685 106.35L100.688 106.353Z" fill="#19A3A9"/>
<path d="M101.214 62.164C101.832 62.164 102.424 61.9186 102.861 61.4817C103.298 61.0448 103.544 60.4522 103.544 59.8343C103.544 59.2164 103.298 58.6239 102.861 58.1869C102.424 57.75 101.832 57.5046 101.214 57.5046H83.9794V42.6211C83.9805 40.0692 83.2818 37.5659 81.9595 35.3833C80.6372 33.2007 78.7419 31.4224 76.4796 30.2417L75.3024 29.6302L76.0423 28.5204C77.213 26.7674 77.8366 24.7062 77.834 22.5982V14.7162C77.834 14.0983 77.5885 13.5057 77.1516 13.0688C76.7147 12.6319 76.1221 12.3864 75.5042 12.3864C74.8864 12.3864 74.2937 12.6319 73.8568 13.0688C73.4199 13.5057 73.1745 14.0983 73.1745 14.7162V22.5982C73.1698 24.1941 72.5372 25.7241 71.4136 26.8574C70.29 27.9908 68.7655 28.6364 67.1697 28.6549H60.0949C58.4972 28.6388 56.9701 27.9943 55.844 26.8608C54.7179 25.7273 54.0835 24.196 54.0779 22.5982V14.7162C54.0803 13.1106 54.7193 11.5715 55.8546 10.4361C56.9899 9.30082 58.5291 8.66192 60.1346 8.65949H67.1177C67.7356 8.65949 68.3282 8.41402 68.7651 7.97711C69.202 7.54019 69.4475 6.94765 69.4475 6.32977C69.4475 5.71188 69.202 5.11929 68.7651 4.68238C68.3282 4.24547 67.7356 4 67.1177 4H60.1346C57.2935 4.00324 54.5697 5.13329 52.5607 7.14226C50.5517 9.15124 49.4217 11.8751 49.4184 14.7162V22.5982C49.4156 24.7062 50.0392 26.7675 51.2101 28.5204L51.95 29.6302L50.7729 30.2417C48.51 31.4219 46.614 33.2001 45.2911 35.3827C43.9683 37.5653 43.2692 40.0689 43.27 42.6211V57.4923H26.0385C25.4206 57.4923 24.828 57.7378 24.3911 58.1747C23.9542 58.6116 23.7087 59.2042 23.7087 59.8221C23.7087 60.4399 23.9542 61.0325 24.3911 61.4694C24.828 61.9064 25.4206 62.1518 26.0385 62.1518H33.3946L40.1545 105.659C40.2368 106.21 40.5148 106.712 40.9376 107.075C41.3604 107.438 41.8997 107.636 42.4567 107.634H49.9199L49.3726 109.227C48.9705 110.387 48.7639 111.606 48.7611 112.834V121.658C48.7619 122.275 49.0072 122.867 49.4433 123.303C49.8793 123.74 50.4707 123.986 51.0878 123.988H76.1585C76.7756 123.986 77.3669 123.74 77.803 123.303C78.2391 122.867 78.4843 122.275 78.4851 121.658V112.831C78.4823 111.603 78.2757 110.384 77.8737 109.224L77.3264 107.631H84.7895C85.3466 107.633 85.8858 107.435 86.3086 107.072C86.7314 106.709 87.0094 106.207 87.0917 105.656L93.8487 62.1487L101.214 62.164ZM47.9264 42.6211C47.9289 40.1511 48.9111 37.783 50.6577 36.0365C52.4042 34.2899 54.7724 33.3077 57.2423 33.3052H61.2536L61.2964 34.5068V47.1736C61.2964 47.7919 61.5421 48.3849 61.9793 48.8221C62.4165 49.2593 63.0094 49.5049 63.6277 49.5049C64.246 49.5049 64.839 49.2593 65.2762 48.8221C65.7134 48.3849 65.959 47.7919 65.959 47.1736V33.3083H70.01C72.48 33.3107 74.8481 34.293 76.5947 36.0395C78.3412 37.7861 79.3236 40.1542 79.326 42.6242V57.4923H47.9264V42.6211ZM73.8257 119.341H53.4236V112.831C53.4261 111.11 54.111 109.459 55.3283 108.242C56.5457 107.025 58.196 106.34 59.9176 106.337H67.3287C69.0503 106.34 70.7006 107.025 71.9179 108.242C73.1353 109.459 73.8202 111.11 73.8226 112.831L73.8257 119.341ZM55.894 93.7899C55.8946 92.2622 56.3481 90.769 57.1971 89.499C58.0462 88.229 59.2527 87.2391 60.6642 86.6547C62.0756 86.0702 63.6287 85.9172 65.127 86.2152C66.6253 86.5132 68.0017 87.2486 69.0821 88.3286C70.1626 89.4087 70.8986 90.7848 71.1972 92.283C71.4957 93.7812 71.3434 95.3343 70.7595 96.746C70.1756 98.1577 69.1862 99.3646 67.9166 100.214C66.6469 101.064 65.1539 101.518 63.6262 101.519C61.5773 101.515 59.6136 100.699 58.1654 99.2494C56.7171 97.8 55.9025 95.8357 55.9001 93.7868L55.894 93.7899ZM82.7992 102.987H72.2358L73.63 101.079C74.9794 99.2311 75.791 97.046 75.9748 94.7654C76.1585 92.4849 75.7074 90.198 74.6712 88.1582C73.6351 86.1183 72.0544 84.4051 70.1043 83.2085C68.1543 82.0118 65.911 81.3784 63.6231 81.3784C61.3352 81.3784 59.092 82.0118 57.142 83.2085C55.1919 84.4051 53.6112 86.1183 52.5751 88.1582C51.5389 90.198 51.0877 92.4849 51.2715 94.7654C51.4553 97.046 52.2668 99.2311 53.6163 101.079L55.0104 102.987H44.444L38.1061 62.164H89.1402L82.7992 102.987Z" fill="#662D91"/>
</svg>
