<svg width="128" height="128" viewBox="0 0 128 128" fill="none" xmlns="http://www.w3.org/2000/svg">
<path fill-rule="evenodd" clip-rule="evenodd" d="M74.5049 26.5053C78.084 22.9261 82.9383 20.9154 88 20.9154C93.0616 20.9154 97.916 22.9261 101.495 26.5053C105.074 30.0844 107.085 34.9387 107.085 40.0004C107.085 45.062 105.074 49.9163 101.495 53.4954L45.4951 109.495C44.7449 110.246 43.7275 110.667 42.6666 110.667H21.3333C19.1242 110.667 17.3333 108.876 17.3333 106.667V85.3337C17.3333 84.2728 17.7547 83.2554 18.5049 82.5053L74.5049 26.5053ZM88 28.9154C85.0601 28.9154 82.2406 30.0833 80.1617 32.1621L25.3333 86.9905V102.667H41.0098L95.8382 47.8386C97.9171 45.7598 99.0849 42.9403 99.0849 40.0004C99.0849 37.0604 97.9171 34.2409 95.8382 32.1621C93.7594 30.0833 90.9399 28.9154 88 28.9154Z" fill="black"/>
<path fill-rule="evenodd" clip-rule="evenodd" d="M69.1716 31.8382C70.7337 30.2761 73.2663 30.2761 74.8284 31.8382L96.1618 53.1715C97.7239 54.7336 97.7239 57.2663 96.1618 58.8284C94.5997 60.3905 92.067 60.3905 90.5049 58.8284L69.1716 37.4951C67.6095 35.933 67.6095 33.4003 69.1716 31.8382Z" fill="black"/>
</svg>
