<svg width="128" height="128" viewBox="0 0 128 128" fill="none" xmlns="http://www.w3.org/2000/svg">
<path fill-rule="evenodd" clip-rule="evenodd" d="M17.3333 37.3334C17.3333 35.1242 19.1242 33.3334 21.3333 33.3334H106.667C108.876 33.3334 110.667 35.1242 110.667 37.3334C110.667 39.5425 108.876 41.3334 106.667 41.3334H21.3333C19.1242 41.3334 17.3333 39.5425 17.3333 37.3334Z" fill="black"/>
<path fill-rule="evenodd" clip-rule="evenodd" d="M53.3333 54.6666C55.5425 54.6666 57.3333 56.4575 57.3333 58.6666V90.6666C57.3333 92.8758 55.5425 94.6666 53.3333 94.6666C51.1242 94.6666 49.3333 92.8758 49.3333 90.6666V58.6666C49.3333 56.4575 51.1242 54.6666 53.3333 54.6666Z" fill="black"/>
<path fill-rule="evenodd" clip-rule="evenodd" d="M74.6667 54.6666C76.8758 54.6666 78.6667 56.4575 78.6667 58.6666V90.6666C78.6667 92.8758 76.8758 94.6666 74.6667 94.6666C72.4575 94.6666 70.6667 92.8758 70.6667 90.6666V58.6666C70.6667 56.4575 72.4575 54.6666 74.6667 54.6666Z" fill="black"/>
<path fill-rule="evenodd" clip-rule="evenodd" d="M26.3345 33.3474C28.5361 33.164 30.4694 34.7999 30.6529 37.0014L35.9862 101.001C35.9954 101.112 36.0001 101.223 36.0001 101.334C36.0001 103.102 36.7024 104.797 37.9527 106.048C39.2029 107.298 40.8986 108 42.6667 108H85.3334C87.1015 108 88.7972 107.298 90.0474 106.048C91.2977 104.797 92.0001 103.102 92.0001 101.334C92.0001 101.223 92.0047 101.112 92.0139 101.001L97.3472 37.0014C97.5307 34.7999 99.4641 33.164 101.666 33.3474C103.867 33.5309 105.503 35.4643 105.32 37.6658L99.999 101.513C99.9522 105.338 98.4125 108.996 95.7043 111.704C92.9538 114.455 89.2232 116 85.3334 116H42.6667C38.7769 116 35.0464 114.455 32.2958 111.704C29.5876 108.996 28.0479 105.338 28.0012 101.513L22.6805 37.6658C22.4971 35.4643 24.133 33.5309 26.3345 33.3474Z" fill="black"/>
<path fill-rule="evenodd" clip-rule="evenodd" d="M53.3333 20C52.9797 20 52.6406 20.1405 52.3905 20.3905C52.1405 20.6406 52 20.9797 52 21.3333V37.3333C52 39.5425 50.2091 41.3333 48 41.3333C45.7909 41.3333 44 39.5425 44 37.3333V21.3333C44 18.858 44.9833 16.484 46.7337 14.7337C48.484 12.9833 50.858 12 53.3333 12H74.6667C77.142 12 79.516 12.9833 81.2663 14.7337C83.0167 16.484 84 18.858 84 21.3333V37.3333C84 39.5425 82.2091 41.3333 80 41.3333C77.7909 41.3333 76 39.5425 76 37.3333V21.3333C76 20.9797 75.8595 20.6406 75.6095 20.3905C75.3594 20.1405 75.0203 20 74.6667 20H53.3333Z" fill="black"/>
</svg>
