<svg width="128" height="128" viewBox="0 0 128 128" fill="none" xmlns="http://www.w3.org/2000/svg">
<path d="M104.62 33.3667L79.6533 8.40667C78.2603 7.01118 76.606 5.90377 74.785 5.14766C72.9639 4.39156 71.0118 4.00158 69.04 4H34C30.0218 4 26.2064 5.58035 23.3934 8.3934C20.5804 11.2064 19 15.0218 19 19V109C19 112.978 20.5804 116.794 23.3934 119.607C26.2064 122.42 30.0218 124 34 124H94C97.9782 124 101.794 122.42 104.607 119.607C107.42 116.794 109 112.978 109 109V43.96C109.003 41.993 108.617 40.0447 107.865 38.227C107.114 36.4092 106.011 34.7575 104.62 33.3667V33.3667ZM71.5 11.9867C72.5643 12.3351 73.5354 12.921 74.34 13.7L99.3333 38.66C100.12 39.4572 100.705 40.4309 101.04 41.5H75.2533C74.2607 41.4965 73.3098 41.1006 72.6079 40.3987C71.906 39.6969 71.5102 38.7459 71.5067 37.7533L71.5 11.9867ZM101.5 109C101.498 110.989 100.707 112.895 99.3013 114.301C97.8952 115.707 95.9886 116.498 94 116.5H34C32.0114 116.498 30.1048 115.707 28.6986 114.301C27.2925 112.895 26.5018 110.989 26.5 109V19C26.5018 17.0114 27.2925 15.1048 28.6986 13.6987C30.1048 12.2925 32.0114 11.5018 34 11.5H64V37.7533C64.0018 40.7367 65.1882 43.5974 67.2984 45.7063C69.4086 47.8153 72.2699 49 75.2533 49H101.5V109ZM37.7533 26.5H52.7533C53.7476 26.5 54.7013 26.1055 55.405 25.403C56.1087 24.7006 56.5049 23.7476 56.5067 22.7533C56.5049 21.7602 56.1096 20.8082 55.4073 20.106C54.7051 19.4037 53.7531 19.0084 52.76 19.0067H37.76C37.2674 19.0067 36.7797 19.1038 36.3247 19.2925C35.8697 19.4812 35.4563 19.7578 35.1083 20.1064C34.7603 20.455 34.4845 20.8688 34.2966 21.3242C34.1087 21.7795 34.0125 22.2674 34.0133 22.76C34.0151 23.7514 34.4097 24.7016 35.1107 25.4026C35.8117 26.1036 36.762 26.4982 37.7533 26.5ZM56.5067 37.7533C56.5032 36.7607 56.1073 35.8098 55.4054 35.1079C54.7035 34.406 53.7526 34.0102 52.76 34.0067H37.76C36.7657 34.0084 35.8127 34.4047 35.1103 35.1083C34.4079 35.812 34.0133 36.7657 34.0133 37.76C34.0133 38.7554 34.4088 39.7101 35.1127 40.414C35.8165 41.1179 36.7712 41.5133 37.7667 41.5133H52.7667C53.7593 41.5063 54.7088 41.107 55.4082 40.4027C56.1075 39.6983 56.5 38.7459 56.5 37.7533H56.5067ZM66.3467 71.7133C68.0374 71.9868 69.7046 72.3903 71.3333 72.92C71.803 73.0639 72.2965 73.1137 72.7854 73.0666C73.2744 73.0195 73.7493 72.8763 74.1828 72.6453C74.6163 72.4143 75 72.1 75.3118 71.7204C75.6237 71.3408 75.8575 70.9035 76 70.4333C76.287 69.4847 76.1864 68.4611 75.7204 67.5865C75.2543 66.7118 74.4607 66.0575 73.5133 65.7667C71.6048 65.1453 69.6527 64.6662 67.6733 64.3333C67.6733 64.0133 67.7533 64.1067 67.7533 63.9933V60.2467C67.7542 59.7538 67.6577 59.2657 67.4693 58.8103C67.2809 58.3549 67.0044 57.9412 66.6556 57.593C66.3068 57.2449 65.8926 56.9691 65.4369 56.7815C64.9811 56.5939 64.4928 56.4982 64 56.5C63.0051 56.5018 62.0514 56.8978 61.3479 57.6013C60.6444 58.3048 60.2484 59.2584 60.2467 60.2533V64.0067C60.2467 64.08 60.28 64.1333 60.2867 64.2067C57.7354 64.2375 55.2659 65.1104 53.2621 66.6898C51.2583 68.2693 49.8326 70.4665 49.2067 72.94C47.3933 82.3 56.96 84.8 61.5533 86L63.08 86.3867C70.6667 88.3333 71.7933 89.2667 71.4267 91.1533C70.9933 93.3667 66.76 94.4867 61.6267 93.78C59.3876 93.3825 57.1847 92.8028 55.04 92.0467L53.88 91.6667C52.9314 91.3713 51.9045 91.4627 51.0229 91.921C50.1414 92.3792 49.4766 93.1672 49.1733 94.1133C48.8743 95.0619 48.964 96.0904 49.4228 96.9729C49.8815 97.8554 50.6718 98.5198 51.62 98.82L52.7467 99.1667C55.2146 100.022 57.7472 100.677 60.32 101.127C60.32 101.253 60.2467 101.373 60.2467 101.487V105.24C60.2458 105.733 60.3422 106.222 60.5305 106.678C60.7187 107.135 60.995 107.549 61.3436 107.898C61.6922 108.248 62.1063 108.525 62.5621 108.714C63.0179 108.903 63.5065 109 64 109C64.9943 109 65.948 108.605 66.6517 107.903C67.3553 107.201 67.7516 106.248 67.7533 105.253V101.507C67.7533 101.387 67.6933 101.287 67.6867 101.173C70.2223 101.153 72.6811 100.301 74.6862 98.749C76.6912 97.1967 78.1317 95.0296 78.7867 92.58C80.6267 83.1067 71.18 80.7 64.9267 79.1133L63.46 78.74C56.1267 76.82 56.3333 75.62 56.58 74.36C56.9933 72.1333 61.2133 71 66.3467 71.7133Z" fill="black"/>
</svg>
