<svg width="128" height="128" viewBox="0 0 128 128" fill="none" xmlns="http://www.w3.org/2000/svg">
<path d="M45.2533 109.493H22.7533C19.7704 109.491 16.9102 108.306 14.8003 106.198C12.6905 104.089 11.5035 101.229 11.5 98.2466V30.7466C11.5018 27.7626 12.6879 24.9013 14.798 22.7913C16.908 20.6813 19.7693 19.4951 22.7533 19.4933H45.2533C46.2476 19.4933 47.2012 19.0988 47.9049 18.3964C48.6086 17.6939 49.0048 16.7409 49.0066 15.7467C49.0049 14.7535 48.6095 13.8016 47.9073 13.0993C47.205 12.3971 46.2531 12.0018 45.26 12H22.7533C17.7819 12.0035 13.0149 13.9795 9.49897 17.4943C5.983 21.009 4.0053 25.7752 4 30.7466V98.2466C4.00706 103.217 5.98532 107.983 9.50091 111.497C13.0165 115.011 17.7824 116.988 22.7533 116.993H45.2533C46.2459 116.99 47.1968 116.594 47.8987 115.892C48.6006 115.19 48.9964 114.239 48.9999 113.247C48.9982 112.253 48.6031 111.3 47.901 110.597C47.199 109.894 46.247 109.497 45.2533 109.493V109.493ZM121.8 59.1933L91.7999 29.1933C90.7516 28.1435 89.4153 27.4285 87.9602 27.139C86.5052 26.8494 84.9969 26.9982 83.6266 27.5666C82.2576 28.1354 81.0877 29.0967 80.2643 30.3294C79.441 31.5621 79.001 33.0109 78.9999 34.4933V49.28L45.2533 49.4933C43.7755 49.4933 42.3121 49.7844 40.9468 50.3499C39.5815 50.9154 38.341 51.7443 37.296 52.7893C36.251 53.8343 35.4221 55.0748 34.8566 56.4401C34.291 57.8055 34 59.2688 34 60.7466V68.2466C34.0017 71.23 35.1881 74.0906 37.2983 76.1996C39.4086 78.3086 42.2699 79.4933 45.2533 79.4933H79.0266V94.4932C79.0268 95.9758 79.4664 97.4251 80.2899 98.6579C81.1134 99.8908 82.2838 100.852 83.6532 101.42C85.0236 101.988 86.5319 102.137 87.9869 101.848C89.4419 101.558 90.7783 100.843 91.8266 99.7932L121.827 69.7933C122.521 69.0973 123.071 68.2705 123.444 67.3608C123.817 66.4511 124.006 65.4765 124 64.4933C124.005 63.5078 123.813 62.5313 123.435 61.6211C123.057 60.7109 122.501 59.8855 121.8 59.1933V59.1933ZM86.4999 94.4932V71.9933H45.2533C44.2607 71.9897 43.3098 71.5939 42.6079 70.892C41.906 70.1901 41.5101 69.2392 41.5066 68.2466V60.7466C41.5101 59.7529 41.9069 58.8009 42.6102 58.0989C43.3136 57.3968 44.2662 57.0017 45.26 56.9999H86.4999V34.4933L116.5 64.4933L86.4999 94.4932Z" fill="black"/>
</svg>
