<svg width="128" height="128" viewBox="0 0 128 128" fill="none" xmlns="http://www.w3.org/2000/svg">
<path d="M33.6953 123.982C31.437 123.536 29.3456 122.476 27.6511 120.917C25.5715 118.709 24.3944 115.803 24.3511 112.77C23.372 100.633 22.3505 88.496 21.329 76.359C20.5231 66.4384 19.717 56.5177 18.9111 46.597C18.7177 44.2216 18.5302 41.8523 18.2582 39.4829C18.2128 39.2417 18.116 39.0131 17.9741 38.8129C17.8322 38.6126 17.6487 38.4453 17.4362 38.3224C15.4496 37.4719 13.77 36.0352 12.6219 34.2044C11.4738 32.3737 10.9119 30.2361 11.0112 28.0774C11.1203 25.7975 11.9703 23.6155 13.432 21.8625C14.8938 20.1095 16.8876 18.8813 19.1107 18.3642C20.1419 18.1477 21.1941 18.0483 22.2476 18.068C27.4034 18.068 32.559 18.068 37.7087 18.068H39.0748C39.0748 16.9498 39.0748 15.9465 39.0748 14.9432C39.0266 13.4927 39.2774 12.0479 39.8115 10.6986C40.3457 9.34923 41.1517 8.12424 42.1796 7.09978C43.2075 6.07532 44.435 5.27331 45.7861 4.74367C47.1372 4.21404 48.5828 3.96811 50.033 4.02115C59.1317 3.99295 68.2303 3.99295 77.3289 4.02115C78.7787 3.96896 80.2236 4.21555 81.574 4.74556C82.9244 5.27558 84.1515 6.07767 85.1787 7.10204C86.2059 8.12641 87.0115 9.35113 87.5452 10.7001C88.079 12.049 88.3294 13.4933 88.2812 14.9432C88.2812 15.9465 88.2812 16.9559 88.2812 18.068H89.6473C94.9179 18.068 100.188 18.068 105.459 18.068C107.822 17.9826 110.145 18.6978 112.05 20.0977C113.956 21.4975 115.333 23.5001 115.958 25.7805C116.649 28.1841 116.451 30.756 115.401 33.0258C114.351 35.2956 112.519 37.1115 110.24 38.1411C109.894 38.234 109.588 38.4382 109.37 38.7222C109.151 39.0063 109.032 39.3543 109.031 39.7126C108.39 47.8844 107.695 56.0321 107.012 64.2161C106.339 72.2751 105.669 80.3342 105 88.3932C104.335 96.4079 103.628 104.417 103.054 112.437C103.11 114.319 102.697 116.185 101.853 117.868C101.009 119.551 99.7598 120.998 98.2179 122.078C96.7519 122.851 95.2211 123.494 93.6426 124L33.6953 123.982ZM25.3424 39.223C25.8985 45.9805 26.4361 52.6655 26.9922 59.3444C27.7336 68.2899 28.4813 77.2355 29.2348 86.181C29.9722 95.0903 30.6795 104 31.435 112.903C31.6889 115.925 32.8914 116.952 35.8834 116.952H91.521C91.8716 116.952 92.2283 116.952 92.5728 116.952C93.3811 116.906 94.1476 116.578 94.7402 116.026C95.3327 115.475 95.7142 114.733 95.8185 113.93C95.9212 113.277 95.9696 112.613 96.024 111.954C96.4471 106.82 96.8681 101.687 97.2871 96.5529C97.9601 88.4254 98.6351 80.2979 99.3121 72.1704C99.9004 65.0905 100.491 58.0127 101.083 50.9368C101.403 47.0564 101.687 43.176 102.038 39.2351L25.3424 39.223ZM63.6931 32.127H104.794C105.261 32.1531 105.729 32.1531 106.196 32.127C106.753 32.0728 107.287 31.8856 107.756 31.5815C108.225 31.2773 108.614 30.8649 108.89 30.3791C109.166 29.8933 109.321 29.3483 109.342 28.79C109.364 28.2316 109.251 27.6763 109.013 27.1707C108.659 26.4694 108.097 25.8951 107.403 25.527C106.709 25.159 105.918 25.0152 105.139 25.1157C77.4882 25.1157 49.8395 25.1157 22.193 25.1157C21.8427 25.096 21.4919 25.096 21.1416 25.1157C20.279 25.2077 19.4805 25.6142 18.8986 26.2575C18.3166 26.9008 17.9918 27.7358 17.9863 28.6032C17.9921 29.4709 18.3179 30.306 18.9012 30.9484C19.4845 31.5908 20.2844 31.9954 21.1475 32.0847C21.6146 32.1098 22.0826 32.1098 22.5497 32.0847L63.6931 32.127ZM81.2637 18.0257C81.2637 16.9438 81.2637 15.9767 81.2637 15.0036C81.3251 14.4659 81.264 13.9213 81.0848 13.4106C80.9057 12.9 80.6131 12.4365 80.2293 12.055C79.8455 11.6735 79.3805 11.3839 78.8688 11.2079C78.357 11.0318 77.812 10.9739 77.2747 11.0386C73.9564 11.0386 70.626 11.0386 67.3258 11.0386C61.5515 11.0386 55.7771 11.0386 50.0028 11.0386C49.1167 10.9407 48.227 11.1884 47.5189 11.7299C46.8107 12.2714 46.3389 13.0651 46.2011 13.9458C46.1102 15.304 46.1001 16.6664 46.1709 18.0257H81.2637Z" fill="black"/>
<path d="M49.1263 98.0588C49.2895 100.785 49.5313 103.499 49.6039 106.237C49.6409 106.844 49.5171 107.451 49.2451 107.995C48.9731 108.54 48.5623 109.003 48.0542 109.338C47.5462 109.674 46.9588 109.869 46.3512 109.905C45.7435 109.941 45.1371 109.816 44.5931 109.543C44.0189 109.283 43.529 108.867 43.1796 108.342C42.8302 107.817 42.6352 107.205 42.6167 106.575C42.1331 98.9835 41.6595 91.392 41.1961 83.8004C40.6038 74.2625 39.9995 64.7226 39.3829 55.1807C39.2741 53.4279 39.1229 51.675 39.0806 49.9222C39.0478 49.4528 39.1104 48.9817 39.2645 48.5371C39.4186 48.0925 39.661 47.6837 39.9773 47.3352C40.2935 46.9868 40.677 46.706 41.1047 46.5097C41.5323 46.3134 41.9952 46.2056 42.4656 46.1929C42.9353 46.1817 43.4024 46.2639 43.84 46.435C44.2775 46.6061 44.6767 46.8625 45.0142 47.1893C45.3517 47.5162 45.6209 47.9068 45.8059 48.3386C45.991 48.7704 46.0881 49.2348 46.092 49.7046C47.1155 65.8227 48.127 81.9407 49.1263 98.0588Z" fill="black"/>
<path d="M78.1631 99.8107C78.969 86.5133 79.7749 73.2361 80.5808 59.979C80.7863 56.6305 81.0222 53.2819 81.2277 49.9334C81.2071 49.4465 81.286 48.9606 81.4595 48.5053C81.6331 48.05 81.8976 47.6348 82.237 47.2852C82.5764 46.9356 82.9836 46.6589 83.4336 46.472C83.8836 46.285 84.3668 46.1919 84.8541 46.198C85.3544 46.216 85.8453 46.3398 86.2943 46.5612C86.7433 46.7827 87.1401 47.0969 87.4588 47.483C87.7775 47.8691 88.0107 48.3183 88.1431 48.8011C88.2755 49.2839 88.3041 49.7893 88.2269 50.2839C87.9186 55.7238 87.568 61.1093 87.2295 66.5189C86.7903 73.5665 86.3512 80.6182 85.9119 87.6739C85.5191 93.9841 85.1442 100.288 84.703 106.598C84.6821 107.059 84.5704 107.51 84.3739 107.927C84.1775 108.344 83.9003 108.718 83.5586 109.027C83.2169 109.336 82.8174 109.574 82.3831 109.728C81.9487 109.882 81.4882 109.948 81.0281 109.923C80.5675 109.904 80.1154 109.793 79.6981 109.597C79.2809 109.401 78.907 109.124 78.598 108.782C78.2891 108.439 78.0514 108.039 77.899 107.604C77.7465 107.169 77.6822 106.708 77.7099 106.248C77.7703 104.102 77.9576 101.962 78.0845 99.8228L78.1631 99.8107Z" fill="black"/>
<path d="M60.1754 78.0524C60.1754 68.72 60.1754 59.3877 60.1754 50.0554C60.1219 49.4704 60.2164 48.8813 60.4499 48.3423C60.6834 47.8033 61.0485 47.3317 61.5118 46.9706C61.9752 46.6096 62.5217 46.3707 63.1015 46.2761C63.6812 46.1814 64.2755 46.2339 64.8296 46.4288C65.4855 46.6418 66.0613 47.0487 66.4811 47.5958C66.9009 48.143 67.1449 48.8046 67.1809 49.4933C67.2022 49.8838 67.2022 50.2753 67.1809 50.6658C67.1809 68.9397 67.1809 87.2156 67.1809 105.493C67.1809 108.304 65.8873 109.942 63.669 109.942C61.4508 109.942 60.1573 108.304 60.1573 105.493C60.1694 96.3384 60.1754 87.1913 60.1754 78.0524Z" fill="black"/>
</svg>
