<svg width="128" height="128" viewBox="0 0 128 128" fill="none" xmlns="http://www.w3.org/2000/svg">
<path d="M120.771 108.669C122.454 110.353 123.399 112.636 123.399 115.016C123.399 117.396 122.454 119.679 120.771 121.363C119.087 123.046 116.804 123.991 114.424 123.991C112.044 123.991 109.761 123.046 108.078 121.363L63.8694 76.841L19.3566 121.354C18.5225 122.192 17.5309 122.858 16.4387 123.312C15.3466 123.766 14.1754 124 12.9926 124C11.8098 124 10.6387 123.766 9.54655 123.312C8.4544 122.858 7.46278 122.192 6.62868 121.354C4.94556 119.671 4 117.388 4 115.007C4 112.627 4.94556 110.344 6.62868 108.661L51.185 64.1567L6.62868 19.3218C4.94556 17.6385 4 15.3556 4 12.9752C4 10.5948 4.94556 8.31193 6.62868 6.62868C8.31193 4.94556 10.5948 4 12.9752 4C15.3556 4 17.6385 4.94556 19.3218 6.62868L63.8694 51.4723L108.382 6.9595C110.065 5.27638 112.348 4.33082 114.729 4.33082C117.109 4.33082 119.392 5.27638 121.075 6.9595C122.758 8.64275 123.704 10.9257 123.704 13.306C123.704 15.6864 122.758 17.9693 121.075 19.6526L76.5538 64.1567L120.771 108.669Z" fill="black"/>
</svg>
