<svg width="128" height="128" viewBox="0 0 128 128" fill="none" xmlns="http://www.w3.org/2000/svg">
<path d="M26.8258 81.7891C25.1092 81.7891 23.5033 81.7891 21.9021 81.7891C17.7855 81.7112 13.8168 80.2409 10.6432 77.6178C7.46961 74.9948 5.27838 71.3739 4.42687 67.3456C4.16761 66.0883 4.03311 64.8085 4.02538 63.5248C3.99154 54.4556 3.99154 45.3804 4.02538 36.299C4.0075 33.8889 4.46967 31.4995 5.38497 29.2699C6.30027 27.0404 7.65038 25.0155 9.35651 23.3132C11.0626 21.6109 13.0907 20.2654 15.3223 19.3552C17.5539 18.4449 19.9444 17.9882 22.3543 18.0115C39.3266 17.9962 56.2974 17.9962 73.2666 18.0115C75.704 17.9733 78.1241 18.4263 80.3826 19.3435C82.641 20.2608 84.6917 21.6235 86.4121 23.3504C88.1326 25.0774 89.4876 27.133 90.3964 29.395C91.3052 31.6569 91.7491 34.0786 91.7017 36.5158C91.7017 45.4373 91.7017 54.3741 91.7017 63.3263C91.7674 67.7214 90.2369 71.9911 87.3943 75.3438C84.5516 78.6964 80.5896 80.9045 76.2429 81.5584C75.2645 81.7118 74.2754 81.7858 73.2851 81.7799C64.5574 81.7952 55.8313 81.7952 47.1067 81.7799C46.5507 81.7622 46.0102 81.9646 45.6024 82.3429C38.7729 88.271 31.9341 94.1868 25.0861 100.09C24.5062 100.603 23.8663 101.043 23.1803 101.401C22.0544 101.968 21.3345 101.479 21.3991 100.215C21.4632 99.4427 21.6182 98.6807 21.8606 97.9446C23.4342 92.804 25.04 87.6773 26.632 82.5413C26.6782 82.3475 26.7289 82.1444 26.8258 81.7891ZM15.1188 54.4849C16.6877 53.6681 18.0674 52.9205 19.4795 52.2376C19.8031 52.104 20.1664 52.104 20.49 52.2376C21.6714 52.796 22.8204 53.4328 23.9833 54.0373C24.2278 54.1619 24.4771 54.2726 24.8739 54.4664C24.597 52.8606 24.3848 51.4393 24.0987 50.0318C24.0134 49.743 24.0157 49.4355 24.1052 49.148C24.1947 48.8605 24.3675 48.6061 24.6016 48.4167C25.6722 47.4292 26.6505 46.3402 27.7533 45.1866C26.1844 44.9558 24.6939 44.7251 23.1942 44.5267C22.9574 44.5181 22.7282 44.4406 22.5348 44.3037C22.3414 44.1668 22.1921 43.9765 22.1052 43.756C21.4591 42.3717 20.7439 40.9874 19.9871 39.4692C19.2395 40.9689 18.5289 42.3117 17.9013 43.6914C17.8057 43.9358 17.6399 44.1465 17.4247 44.2968C17.2095 44.4471 16.9547 44.5303 16.6923 44.5359C15.2202 44.7205 13.7528 44.9605 12.1424 45.1958C12.4054 45.4819 12.553 45.6573 12.7145 45.8188C13.6698 46.7417 14.6481 47.6646 15.5664 48.6383C15.8065 48.9231 15.9242 49.2914 15.894 49.6627C15.6771 51.2086 15.4141 52.7267 15.1188 54.4849ZM51.5736 54.4849C52.4804 54.089 53.3565 53.6262 54.1947 53.1005C54.8204 52.5449 55.6282 52.238 56.465 52.238C57.3019 52.238 58.1097 52.5449 58.7354 53.1005C59.5648 53.6249 60.4315 54.0876 61.3288 54.4849C61.038 52.7637 60.7981 51.2547 60.5166 49.7226C60.4615 49.5195 60.4661 49.3049 60.5299 49.1043C60.5938 48.9038 60.7142 48.7259 60.8766 48.5921C61.8779 47.6692 62.8377 46.7001 63.8114 45.7403C63.9657 45.5668 64.1105 45.385 64.2452 45.1958C63.1569 44.9778 62.0567 44.8237 60.9504 44.7344C60.2886 44.7979 59.6261 44.6212 59.0838 44.2365C58.5416 43.8519 58.1558 43.2849 57.9971 42.6393C57.7427 41.9663 57.4341 41.315 57.0742 40.692C56.8942 40.3321 56.7096 39.9721 56.4605 39.4876C55.9708 40.3241 55.5436 41.1955 55.1822 42.0948C55.0119 42.9167 54.5432 43.6465 53.8666 44.1433C53.19 44.6401 52.3535 44.8687 51.5183 44.7851C50.6008 44.8393 49.6897 44.9737 48.7957 45.1866C49.857 46.3079 50.8399 47.3969 51.8874 48.4167C52.1028 48.5883 52.2637 48.8188 52.3505 49.0802C52.4373 49.3415 52.4464 49.6224 52.3765 49.8888C52.0628 51.3562 51.8551 52.8329 51.5736 54.4941V54.4849ZM30.5729 45.1681C31.6757 46.3448 32.7555 47.4477 33.7707 48.6059C34.0234 48.9179 34.1517 49.3125 34.1307 49.7134C34.0291 50.724 33.8077 51.7161 33.6369 52.7221C33.5493 53.2528 33.4708 53.7835 33.3646 54.4757C34.749 53.7558 35.9857 53.1882 37.144 52.4729C37.4609 52.2398 37.8441 52.1141 38.2376 52.1141C38.6311 52.1141 39.0143 52.2398 39.3312 52.4729C40.4987 53.1605 41.7262 53.7466 43.0967 54.4664C42.806 52.7498 42.5153 51.2362 42.3122 49.7088C42.2792 49.3101 42.4034 48.9143 42.6583 48.6059C43.4935 47.683 44.4072 46.8755 45.284 46.0126C45.5193 45.7819 45.7455 45.5511 46.087 45.1866C44.4303 44.942 42.9814 44.7251 41.5232 44.5267C41.2455 44.5166 40.9773 44.4231 40.7534 44.2585C40.5296 44.0939 40.3604 43.8658 40.268 43.6038C39.6589 42.2517 38.9575 40.9366 38.2099 39.4507C37.4531 40.9735 36.7563 42.3163 36.1241 43.6914C36.034 43.9253 35.8779 44.1279 35.6747 44.2745C35.4715 44.4212 35.23 44.5056 34.9797 44.5174C33.5077 44.7251 32.0311 44.9604 30.5729 45.1727V45.1681ZM79.5654 54.4849C79.4039 53.5066 79.2701 52.7498 79.1548 51.993C78.8399 51.0392 78.7314 50.0294 78.8364 49.0305C79.1317 48.1722 80.1746 47.5631 80.9037 46.857C81.4297 46.3494 81.9742 45.8695 82.5141 45.3804C81.3935 45.0057 80.2282 44.7807 79.0486 44.7113C78.4145 44.7491 77.787 44.5648 77.2741 44.19C76.7612 43.8153 76.395 43.2734 76.2384 42.6578C75.7789 41.5649 75.2582 40.4987 74.6787 39.4645C73.8896 41.0565 73.2159 42.4778 72.4821 43.8622C72.2992 44.1626 72.0061 44.3795 71.6654 44.4667C70.7425 44.6651 69.7641 44.7574 68.8135 44.9005C68.2044 44.9927 67.5953 45.0943 66.9954 45.1912C68.0614 46.3125 69.0212 47.3877 70.0549 48.3798C70.2909 48.567 70.4663 48.8197 70.5591 49.1062C70.6519 49.3928 70.6579 49.7004 70.5763 49.9903C70.2764 51.4116 70.0779 52.8606 69.8011 54.4895C71.2685 53.7235 72.5698 53.1051 73.848 52.353C74.0955 52.1819 74.3893 52.0903 74.6902 52.0903C74.9911 52.0903 75.2848 52.1819 75.5323 52.353C76.7875 53.0821 78.0795 53.7142 79.5654 54.4941V54.4849Z" fill="black"/>
<path d="M55.7407 85.8634C57.3281 85.8634 58.8186 85.8634 60.3137 85.8634C60.5904 85.9251 60.833 86.0902 60.9921 86.3248C61.9972 87.7068 63.3226 88.8243 64.8545 89.5814C66.3864 90.3385 68.0791 90.7126 69.7874 90.6717C76.8261 90.6717 83.8648 90.6717 90.9035 90.6717C91.5424 90.6466 92.1656 90.8737 92.6386 91.3039C96.9947 95.1002 101.365 98.881 105.749 102.646C105.947 102.817 106.155 102.974 106.556 103.302C106.413 102.771 106.339 102.476 106.247 102.18L103.178 92.3006C102.814 91.1239 103.118 90.6994 104.35 90.6856C106.035 90.6856 107.724 90.7179 109.426 90.6487C112.104 90.5353 114.637 89.4053 116.511 87.4891C118.384 85.5728 119.456 83.0145 119.509 80.3352C119.58 74.3424 119.58 68.3435 119.509 62.3384C119.461 59.5746 118.333 56.9394 116.367 54.9965C114.401 53.0535 111.752 51.9572 108.988 51.9419C104.918 51.905 100.853 51.9419 96.7825 51.9419H95.8596V47.5811C96.1364 47.5811 96.4133 47.5211 96.6948 47.5211C100.709 47.5211 104.724 47.5211 108.739 47.5211C110.746 47.4996 112.737 47.8785 114.596 48.6358C116.455 49.3931 118.144 50.5136 119.564 51.9316C120.985 53.3495 122.108 55.0366 122.869 56.8941C123.63 58.7515 124.012 60.742 123.994 62.7491C123.994 68.3666 123.994 73.984 123.994 79.6014C124.049 81.5882 123.711 83.5662 122.999 85.422C122.288 87.2778 121.217 88.9748 119.848 90.4158C118.479 91.8567 116.839 93.0132 115.022 93.8189C113.205 94.6246 111.247 95.0637 109.26 95.1109C109.131 95.1109 108.997 95.1386 108.757 95.1617C108.9 95.6555 109.025 96.0846 109.163 96.5461C110.026 99.3148 110.898 102.111 111.747 104.898C112.039 105.655 112.062 106.488 111.812 107.259C111.561 108.031 111.053 108.692 110.373 109.132C109.692 109.573 108.881 109.766 108.075 109.679C107.269 109.592 106.518 109.23 105.947 108.655C100.969 104.348 95.9965 100.041 91.0281 95.7339C90.5614 95.306 89.9442 95.0803 89.3115 95.1063C82.7542 95.1063 76.197 95.1893 69.6397 95.1063C66.8198 95.1521 64.0459 94.3895 61.6458 92.9085C59.2457 91.4275 57.3198 89.2903 56.096 86.7494C56.0083 86.5833 55.9345 86.4125 55.8607 86.2418C55.8134 86.1181 55.7734 85.9917 55.7407 85.8634V85.8634Z" fill="black"/>
</svg>
