<svg width="128" height="128" viewBox="0 0 128 128" fill="none" xmlns="http://www.w3.org/2000/svg">
<path d="M124 37.9283V91.1454L123.546 92.4481C122.868 94.3663 121.462 95.9408 119.633 96.8317C117.803 97.7226 115.697 97.8584 113.768 97.2098C111.455 96.3937 109.147 95.5505 106.818 94.7614C103.207 93.5398 99.5805 92.3508 95.8132 91.0968C95.8132 92.1238 95.8511 93.0156 95.8132 93.902C95.8513 95.6538 95.7264 97.4053 95.4403 99.134C94.8873 101.682 93.4466 103.951 91.3753 105.535C89.3041 107.119 86.7372 107.916 84.1331 107.782C61.3206 107.782 38.5063 107.782 15.6902 107.782C14.5973 107.799 13.5069 107.672 12.4472 107.404C9.96896 106.812 7.77302 105.379 6.23422 103.348C4.69542 101.317 3.90935 98.8153 4.01026 96.2694C3.98864 75.0099 4.00119 53.7504 4.04803 32.491C4.06117 30.7395 4.44236 29.0103 5.16686 27.4157C6.05185 25.4153 7.52517 23.732 9.39063 22.5898C11.2561 21.4475 13.4252 20.9005 15.6093 21.0216C20.6467 20.973 25.6894 21.0216 30.743 21.0216C48.6334 21.0216 66.5256 21.0216 84.4196 21.0216C85.9872 20.9328 87.556 21.1755 89.0235 21.7338C90.4911 22.292 91.8244 23.1533 92.9367 24.2615C94.049 25.3697 94.9152 26.6999 95.4789 28.1653C96.0425 29.6308 96.2908 31.1987 96.2078 32.7666C96.2078 34.3611 96.2078 35.9502 96.2078 37.6311C96.5483 37.55 96.7483 37.5122 96.9861 37.4419C102.461 35.6204 107.937 33.8044 113.406 31.9559C114.563 31.5283 115.804 31.376 117.03 31.5111C118.257 31.6462 119.434 32.065 120.471 32.7342C122.256 33.9622 123.516 35.8159 124 37.9283V37.9283ZM40.6558 54.0189C43.3583 53.3433 44.5311 52.2406 44.569 50.1489C44.641 45.6989 44.641 41.2469 44.569 36.7933C44.5693 36.3017 44.4686 35.8154 44.2732 35.3643C44.0778 34.9133 43.7919 34.5072 43.4332 34.1712C43.0744 33.8352 42.6504 33.5765 42.1875 33.4111C41.7246 33.2457 41.2327 33.1772 40.7422 33.2098C34.2563 33.2098 27.7703 33.2098 21.2844 33.2098C19.0629 33.2098 18.0901 34.0962 18.1712 36.3339C18.1935 39.2272 18.4047 42.116 18.8036 44.9817C21.0455 59.6173 28.6825 72.8844 40.2126 82.1733C50.5462 90.6973 63.4746 95.4477 76.8688 95.6423C79.3605 95.7126 80.193 94.8533 80.1876 92.3994C80.1876 85.9567 80.166 79.5122 80.1227 73.0659C80.1725 72.5473 80.1087 72.024 79.9362 71.5324C79.7636 71.0408 79.4863 70.5927 79.1233 70.2189C78.7604 69.8451 78.3204 69.5547 77.8341 69.3678C77.3478 69.181 76.8266 69.102 76.3067 69.1365C72.2044 69.0879 68.1074 69.1365 64.005 69.1365C63.2593 69.1264 62.5241 69.3134 61.8739 69.6789C61.2238 70.0443 60.6817 70.5751 60.3027 71.2174C60.1727 71.3756 60.0068 71.5004 59.8187 71.5813C59.6306 71.6621 59.426 71.6967 59.2218 71.6822C54.8184 70.6971 50.7661 68.5323 47.4992 65.4197C44.2324 62.3071 41.8742 58.3641 40.6774 54.0134L40.6558 54.0189Z" fill="black"/>
</svg>
