<svg width="128" height="128" viewBox="0 0 128 128" fill="none" xmlns="http://www.w3.org/2000/svg">
<path fill-rule="evenodd" clip-rule="evenodd" d="M64 13.2308C35.9609 13.2308 13.2308 35.9609 13.2308 64C13.2308 92.0391 35.9609 114.769 64 114.769C92.0391 114.769 114.769 92.0391 114.769 64C114.769 35.9609 92.0391 13.2308 64 13.2308ZM4 64C4 30.8629 30.8629 4 64 4C97.1371 4 124 30.8629 124 64C124 97.1371 97.1371 124 64 124C30.8629 124 4 97.1371 4 64Z" fill="black"/>
<path fill-rule="evenodd" clip-rule="evenodd" d="M64.0002 28.6155C66.5492 28.6155 68.6155 30.6819 68.6155 33.2309V62.0883L85.7253 79.1981C87.5277 81.0005 87.5277 83.9228 85.7253 85.7252C83.9228 87.5276 81.0005 87.5276 79.1981 85.7252L60.7366 67.2637C59.871 66.3981 59.3848 65.2242 59.3848 64.0001V33.2309C59.3848 30.6819 61.4511 28.6155 64.0002 28.6155Z" fill="black"/>
</svg>
