<svg width="128" height="128" viewBox="0 0 128 128" fill="none" xmlns="http://www.w3.org/2000/svg">
<path d="M12 112.75C12 115.734 13.1853 118.595 15.295 120.705C17.4048 122.815 20.2663 124 23.25 124H105.75C108.734 124 111.595 122.815 113.705 120.705C115.815 118.595 117 115.734 117 112.75V49H12V112.75ZM87 67.75C87 66.7554 87.3951 65.8016 88.0983 65.0984C88.8016 64.3951 89.7554 64 90.75 64H98.25C99.2446 64 100.198 64.3951 100.902 65.0984C101.605 65.8016 102 66.7554 102 67.75V75.25C102 76.2446 101.605 77.1984 100.902 77.9017C100.198 78.6049 99.2446 79 98.25 79H90.75C89.7554 79 88.8016 78.6049 88.0983 77.9017C87.3951 77.1984 87 76.2446 87 75.25V67.75ZM87 97.75C87 96.7554 87.3951 95.8016 88.0983 95.0983C88.8016 94.3951 89.7554 94 90.75 94H98.25C99.2446 94 100.198 94.3951 100.902 95.0983C101.605 95.8016 102 96.7554 102 97.75V105.25C102 106.245 101.605 107.198 100.902 107.902C100.198 108.605 99.2446 109 98.25 109H90.75C89.7554 109 88.8016 108.605 88.0983 107.902C87.3951 107.198 87 106.245 87 105.25V97.75ZM57 67.75C57 66.7554 57.3951 65.8016 58.0984 65.0984C58.8016 64.3951 59.7554 64 60.75 64H68.25C69.2446 64 70.1984 64.3951 70.9016 65.0984C71.6049 65.8016 72 66.7554 72 67.75V75.25C72 76.2446 71.6049 77.1984 70.9016 77.9017C70.1984 78.6049 69.2446 79 68.25 79H60.75C59.7554 79 58.8016 78.6049 58.0984 77.9017C57.3951 77.1984 57 76.2446 57 75.25V67.75ZM57 97.75C57 96.7554 57.3951 95.8016 58.0984 95.0983C58.8016 94.3951 59.7554 94 60.75 94H68.25C69.2446 94 70.1984 94.3951 70.9016 95.0983C71.6049 95.8016 72 96.7554 72 97.75V105.25C72 106.245 71.6049 107.198 70.9016 107.902C70.1984 108.605 69.2446 109 68.25 109H60.75C59.7554 109 58.8016 108.605 58.0984 107.902C57.3951 107.198 57 106.245 57 105.25V97.75ZM27 67.75C27 66.7554 27.3951 65.8016 28.0984 65.0984C28.8016 64.3951 29.7554 64 30.75 64H38.25C39.2446 64 40.1984 64.3951 40.9016 65.0984C41.6049 65.8016 42 66.7554 42 67.75V75.25C42 76.2446 41.6049 77.1984 40.9016 77.9017C40.1984 78.6049 39.2446 79 38.25 79H30.75C29.7554 79 28.8016 78.6049 28.0984 77.9017C27.3951 77.1984 27 76.2446 27 75.25V67.75ZM27 97.75C27 96.7554 27.3951 95.8016 28.0984 95.0983C28.8016 94.3951 29.7554 94 30.75 94H38.25C39.2446 94 40.1984 94.3951 40.9016 95.0983C41.6049 95.8016 42 96.7554 42 97.75V105.25C42 106.245 41.6049 107.198 40.9016 107.902C40.1984 108.605 39.2446 109 38.25 109H30.75C29.7554 109 28.8016 108.605 28.0984 107.902C27.3951 107.198 27 106.245 27 105.25V97.75ZM105.75 19H94.5V11.29C94.4453 9.3375 93.6311 7.48336 92.2304 6.12194C90.8298 4.76052 88.9533 3.99923 87 4C85.0467 3.99923 83.1702 4.76052 81.7696 6.12194C80.3689 7.48336 79.5547 9.3375 79.5 11.29V19H49.5V11.29C49.4453 9.3375 48.6311 7.48336 47.2304 6.12194C45.8298 4.76052 43.9533 3.99923 42 4C40.0467 3.99923 38.1702 4.76052 36.7696 6.12194C35.3689 7.48336 34.5547 9.3375 34.5 11.29V19H23.25C20.2663 19 17.4048 20.1853 15.295 22.295C13.1853 24.4048 12 27.2663 12 30.25L12 41.5H117V30.25C117 27.2663 115.815 24.4048 113.705 22.295C111.595 20.1853 108.734 19 105.75 19V19Z" fill="black"/>
</svg>
