<svg width="128" height="128" viewBox="0 0 128 128" fill="none" xmlns="http://www.w3.org/2000/svg">
<path d="M5.94671 48.7741L47.2018 13.3629C48.0179 12.6603 49.0185 12.2065 50.0848 12.0556C51.1511 11.9046 52.2383 12.0628 53.2174 12.5113C54.1965 12.9597 55.0264 13.6797 55.6085 14.5858C56.1906 15.4918 56.5006 16.5459 56.5016 17.6228V36.3784C94.1447 36.5824 124 44.1302 124 79.8054C123.626 86.8977 121.679 93.818 118.3 100.065C114.921 106.312 110.195 111.729 104.464 115.925C103.774 116.452 102.936 116.75 102.068 116.779C101.199 116.807 100.344 116.564 99.6202 116.084C98.8966 115.603 98.3408 114.909 98.0304 114.097C97.72 113.286 97.6705 112.398 97.8886 111.557C108.52 77.5734 92.8007 68.5496 56.5016 68.0097V88.6132C56.5006 89.6901 56.1906 90.7442 55.6085 91.6502C55.0264 92.5563 54.1965 93.2763 53.2174 93.7247C52.2383 94.1732 51.1511 94.3314 50.0848 94.1804C49.0185 94.0295 48.0179 93.5757 47.2018 92.8731L5.94671 57.4619C5.33439 56.9159 4.84442 56.2467 4.50893 55.4981C4.17343 54.7495 4 53.9384 4 53.118C4 52.2976 4.17343 51.4865 4.50893 50.7379C4.84442 49.9893 5.33439 49.3201 5.94671 48.7741Z" fill="black"/>
</svg>
