<svg width="128" height="128" viewBox="0 0 128 128" fill="none" xmlns="http://www.w3.org/2000/svg">
<path d="M83.9665 80.4585C83.9665 84.5173 84.0107 88.3355 83.9665 92.1536C83.9456 94.7785 83.0559 97.3224 81.4364 99.3882C79.8169 101.454 77.5585 102.925 75.0145 103.572C73.8846 103.848 72.7248 103.983 71.5615 103.973C53.1954 103.997 34.8291 103.997 16.463 103.973C14.8119 104.038 13.1651 103.762 11.626 103.16C10.0869 102.559 8.68874 101.646 7.51935 100.478C6.34995 99.3105 5.43448 97.9139 4.83057 96.3758C4.22665 94.8377 3.94737 93.1912 4.01003 91.5399C3.99666 73.1738 3.99666 54.8078 4.01003 36.4417C3.94694 34.792 4.22562 33.1472 4.82812 31.6102C5.43061 30.0733 6.34418 28.6773 7.51151 27.51C8.67885 26.3427 10.0748 25.4291 11.6118 24.8266C13.1488 24.2241 14.7933 23.9457 16.443 24.0088C34.8091 24.0088 53.1753 24.0088 71.5415 24.0088C73.191 23.9463 74.8354 24.2251 76.3722 24.8278C77.9089 25.4305 79.3047 26.344 80.4719 27.5112C81.6391 28.6784 82.5526 30.074 83.1553 31.6107C83.758 33.1475 84.0369 34.7922 83.9744 36.4417C83.9744 40.0513 83.9744 43.6609 83.9744 47.459C84.4156 47.2023 84.7283 47.0379 85.0211 46.8414C91.6948 42.3695 98.3848 37.9257 105.026 33.4097C106.708 32.0861 108.738 31.2791 110.87 31.0869C113.001 30.8947 115.143 31.3253 117.034 32.3267C119.096 33.2903 120.839 34.8247 122.056 36.7482C123.273 38.6716 123.913 40.9035 123.901 43.1795C124.045 57.0444 124.013 70.9172 123.925 84.782C123.862 87.7472 122.742 90.5923 120.765 92.8038C118.789 95.0153 116.088 96.4476 113.148 96.8421C110.429 97.17 107.687 96.4612 105.468 94.8569L85.2537 81.2847C84.9168 81.0561 84.5722 80.8475 83.9665 80.4585ZM43.9922 32.0178H16.7519C16.1071 31.9121 15.4464 31.9607 14.8239 32.1593C14.2014 32.358 13.635 32.7011 13.1706 33.1607C12.7062 33.6204 12.3572 34.1836 12.1523 34.804C11.9473 35.4245 11.892 36.0847 11.9912 36.7305C11.9912 54.9309 11.9912 73.131 11.9912 91.3314C11.8977 91.9671 11.9543 92.6161 12.1567 93.2261C12.359 93.836 12.7014 94.3898 13.1564 94.8436C13.6114 95.2974 14.1665 95.6384 14.7769 95.8392C15.3873 96.04 16.0361 96.0949 16.6716 95.9998H71.2727C71.9076 96.0979 72.5567 96.0459 73.1678 95.8478C73.779 95.6496 74.3356 95.3108 74.7923 94.8588C75.2489 94.4068 75.593 93.8543 75.7974 93.2452C76.0018 92.636 76.0608 91.9874 75.9692 91.3515C75.9692 73.1083 75.9692 54.8667 75.9692 36.6263C76.0528 36.0008 75.9907 35.3646 75.7881 34.7671C75.5855 34.1695 75.2478 33.6266 74.8011 33.1811C74.3543 32.7355 73.8105 32.3991 73.2124 32.198C72.6143 31.9969 71.9782 31.9368 71.353 32.022L43.9922 32.0178ZM115.964 64.0631C115.964 61.1915 115.964 58.3199 115.964 55.4482C115.964 51.5338 115.992 47.6234 115.964 43.709C115.983 42.8269 115.751 41.9574 115.295 41.2019C114.839 40.4464 114.178 39.8358 113.388 39.4416C112.72 39.1452 111.979 39.0564 111.259 39.1865C110.54 39.3167 109.876 39.6598 109.354 40.1716C101.215 45.6581 93.06 51.1246 84.8889 56.5711C84.5863 56.735 84.3379 56.9834 84.1741 57.2861C84.0103 57.5888 83.9382 57.9326 83.9665 58.2756C84.0147 62.0616 84.0147 65.849 83.9665 69.6378C83.9315 69.9993 84.0015 70.3633 84.1687 70.6857C84.336 71.0081 84.5933 71.2751 84.909 71.4546C93.2164 76.9893 101.505 82.5469 109.775 88.1271C110.154 88.4602 110.605 88.7028 111.092 88.8365C111.579 88.9702 112.09 88.9914 112.586 88.8986C113.082 88.8059 113.551 88.6018 113.957 88.3014C114.363 88.0009 114.695 87.612 114.929 87.1643C115.548 86.1458 115.891 84.9831 115.924 83.7913C116.02 77.2139 115.971 70.6284 115.971 64.059L115.964 64.0631Z" fill="black"/>
</svg>
