<svg width="128" height="128" viewBox="0 0 128 128" fill="none" xmlns="http://www.w3.org/2000/svg">
<path d="M66.6839 59.2129L15.9137 6.13496C13.2858 3.37722 8.90394 3.27625 6.13754 5.91861C4.71251 7.28018 4 9.10041 4 10.9206C4 12.6425 4.64011 14.3649 5.92004 15.7063L52.1163 64.0015L5.93273 112.291C3.30047 115.058 3.38153 119.439 6.14908 122.082C8.91664 124.723 13.2973 124.624 15.9397 121.865L66.7099 68.7872C69.2513 66.1073 69.2513 61.8957 66.6839 59.2129ZM122.07 59.2129L71.2994 6.13496C68.6744 3.37722 64.2897 3.27625 61.5204 5.91861C60.1069 7.28018 59.3857 9.10041 59.3857 10.9206C59.3857 12.6425 60.0258 14.3649 61.3058 15.7063L107.502 64.0015L61.3185 112.291C58.6862 115.058 58.7673 119.439 61.5348 122.082C64.3024 124.723 68.683 124.624 71.3254 121.865L122.096 68.7872C124.637 66.1073 124.637 61.8957 122.07 59.2129Z" fill="black"/>
</svg>
