<svg width="128" height="128" viewBox="0 0 128 128" fill="none" xmlns="http://www.w3.org/2000/svg">
<path d="M64 4C56.1205 3.99943 48.3181 5.55098 41.0383 8.56606C33.7585 11.5811 27.1439 16.0007 21.5723 21.5723C16.0007 27.1439 11.5811 33.7585 8.56606 41.0383C5.55098 48.3181 3.99943 56.1205 4 64C3.99943 71.8795 5.55098 79.6819 8.56606 86.9617C11.5811 94.2415 16.0007 100.856 21.5723 106.428C27.1439 111.999 33.7585 116.419 41.0383 119.434C48.3181 122.449 56.1205 124.001 64 124C71.8795 124.001 79.6819 122.449 86.9617 119.434C94.2415 116.419 100.856 111.999 106.428 106.428C111.999 100.856 116.419 94.2415 119.434 86.9617C122.449 79.6819 124.001 71.8795 124 64C124.001 56.1205 122.449 48.3181 119.434 41.0383C116.419 33.7585 111.999 27.1439 106.428 21.5723C100.856 16.0007 94.2415 11.5811 86.9617 8.56606C79.6819 5.55098 71.8795 3.99943 64 4V4ZM84.0182 88.7265C83.9109 90.1464 83.2764 91.4748 82.2394 92.4506C81.2024 93.4265 79.838 93.9791 78.4142 94H49.5858C48.1603 93.982 46.7931 93.4306 45.7541 92.4545C44.715 91.4783 44.0794 90.1482 43.9725 88.7265L41.5 49H86.5L84.0182 88.7265ZM86.5027 41.5H41.5027C40.5093 41.4964 39.5575 41.1002 38.8551 40.3977C38.1526 39.6952 37.7563 38.7435 37.7527 37.75C37.7563 36.7565 38.1526 35.8048 38.8551 35.1023C39.5575 34.3998 40.5093 34.0036 41.5027 34H52.7527L54.1093 31.2858C54.262 30.9742 54.4993 30.7118 54.7941 30.5285C55.0888 30.3453 55.4291 30.2486 55.7762 30.2495H72.208C72.5562 30.2493 72.8975 30.3463 73.1937 30.5293C73.4898 30.7124 73.7291 30.9743 73.8847 31.2858L75.2527 33.9995H86.5C86.9925 33.9994 87.4801 34.0963 87.9351 34.2848C88.3902 34.4732 88.8036 34.7494 89.1518 35.0976C89.5 35.4459 89.7763 35.8593 89.9647 36.3143C90.1531 36.7693 90.2501 37.257 90.25 37.7495C90.2466 38.743 89.8504 39.6949 89.1479 40.3975C88.4454 41.1001 87.4936 41.4964 86.5 41.5H86.5027Z" fill="black"/>
</svg>
