<svg width="128" height="128" viewBox="0 0 128 128" fill="none" xmlns="http://www.w3.org/2000/svg">
<path d="M104.617 33.3672L79.6562 8.40625C76.8203 5.58016 73.0234 4 69.0391 4H34C25.7148 4 19 10.7148 19 19L19.0015 109C19.0015 117.285 25.7164 124 34.0015 124H94C102.285 124 109 117.285 109 109V43.9609C109 39.9766 107.43 36.1797 104.617 33.3672ZM71.5 11.9875C72.5493 12.3545 73.5311 12.8889 74.3406 13.6982L99.3016 38.6591C100.117 39.4609 100.656 40.4453 101.008 41.5H75.25C73.1875 41.5 71.5 39.8125 71.5 37.75V11.9875ZM82.75 116.5H45.25V112.75C45.25 106.539 50.2891 101.5 56.5 101.5H71.5C77.7133 101.5 82.75 106.537 82.75 112.75V116.5ZM101.5 109C101.5 113.134 98.1344 116.5 94 116.5H90.25V112.75C90.25 102.395 81.8547 94 71.5 94H56.5C46.1453 94 37.75 102.395 37.75 112.75V116.5H34C29.8656 116.5 26.5 113.134 26.5 109V19C26.5 14.8656 29.8656 11.5 34 11.5H64V37.75C64 43.9609 69.0391 49 75.25 49H101.5V109ZM64 56.5C55.7266 56.5 49 63.2266 49 71.5C49 79.7734 55.7148 86.5 64 86.5C72.2852 86.5 79 79.7852 79 71.5C79 63.2148 72.2734 56.5 64 56.5ZM64 79C59.8656 79 56.5 75.6344 56.5 71.5C56.5 67.3656 59.8656 64 64 64C68.1344 64 71.5 67.3656 71.5 71.5C71.5 75.6344 68.125 79 64 79Z" fill="black"/>
</svg>
