<svg width="128" height="128" viewBox="0 0 128 128" fill="none" xmlns="http://www.w3.org/2000/svg">
<path d="M34 76C38.7739 76 43.3523 74.1036 46.7279 70.7279C50.1036 67.3523 52 62.7739 52 58C52 53.2261 50.1036 48.6477 46.7279 45.2721C43.3523 41.8964 38.7739 40 34 40C31.6285 39.9723 29.2755 40.419 27.0791 41.3138C24.8827 42.2086 22.8874 43.5334 21.2104 45.2104C19.5334 46.8874 18.2086 48.8827 17.3138 51.0791C16.419 53.2755 15.9723 55.6285 16 58C15.9866 60.3675 16.4431 62.7142 17.3429 64.9041C18.2428 67.094 19.5681 69.0836 21.2423 70.7577C22.9164 72.4319 24.906 73.7572 27.0959 74.6571C29.2858 75.5569 31.6325 76.0134 34 76V76ZM34 46C37.1826 46 40.2348 47.2643 42.4853 49.5147C44.7357 51.7652 46 54.8174 46 58C46 61.1826 44.7357 64.2348 42.4853 66.4853C40.2348 68.7357 37.1826 70 34 70C30.8174 70 27.7652 68.7357 25.5147 66.4853C23.2643 64.2348 22 61.1826 22 58C22 54.8174 23.2643 51.7652 25.5147 49.5147C27.7652 47.2643 30.8174 46 34 46V46ZM40 82H28C21.6348 82 15.5303 84.5286 11.0294 89.0294C6.52856 93.5303 4 99.6348 4 106C4 107.591 4.63214 109.117 5.75736 110.243C6.88258 111.368 8.4087 112 10 112H58C59.5913 112 61.1174 111.368 62.2426 110.243C63.3679 109.117 64 107.591 64 106C64 99.6348 61.4714 93.5303 56.9706 89.0294C52.4697 84.5286 46.3652 82 40 82V82ZM10 106C10.0051 101.228 11.9031 96.6523 15.2777 93.2777C18.6522 89.9031 23.2277 88.0051 28 88H40C44.7723 88.0051 49.3478 89.9031 52.7223 93.2777C56.0969 96.6523 57.9949 101.228 58 106H10ZM115 16H43C40.6134 16.0013 38.325 16.9499 36.6374 18.6374C34.9499 20.325 34.0013 22.6134 34 25V31C34.0013 31.7953 34.3177 32.5576 34.8801 33.1199C35.4424 33.6823 36.2047 33.9987 37 34C37.7953 33.9987 38.5576 33.6823 39.1199 33.1199C39.6823 32.5576 39.9987 31.7953 40 31V25C40.0025 24.2051 40.3194 23.4435 40.8815 22.8815C41.4435 22.3194 42.2051 22.0025 43 22H115C115.795 22.0025 116.556 22.3194 117.119 22.8815C117.681 23.4435 117.997 24.2051 118 25V85C117.999 85.7953 117.682 86.5576 117.12 87.1199C116.558 87.6823 115.795 87.9987 115 88H112V79C112 76.6131 111.052 74.3239 109.364 72.636C107.676 70.9482 105.387 70 103 70H85C82.6131 70 80.3239 70.9482 78.636 72.636C76.9482 74.3239 76 76.6131 76 79V88H70C69.2044 88 68.4413 88.3161 67.8787 88.8787C67.3161 89.4413 67 90.2044 67 91C67.0013 91.7953 67.3178 92.5576 67.8801 93.1199C68.4424 93.6823 69.2047 93.9987 70 94H115C117.387 94 119.676 93.0518 121.364 91.364C123.052 89.6761 124 87.387 124 85V25C123.999 22.6134 123.05 20.325 121.363 18.6374C119.675 16.9499 117.387 16.0013 115 16ZM106 88H82V79C82.0013 78.2047 82.3177 77.4424 82.8801 76.8801C83.4424 76.3178 84.2047 76.0013 85 76H103C103.795 76.0013 104.558 76.3178 105.12 76.8801C105.682 77.4424 105.999 78.2047 106 79V88Z" fill="black"/>
</svg>
