<svg width="128" height="128" viewBox="0 0 128 128" fill="none" xmlns="http://www.w3.org/2000/svg">
<path d="M109 19H19C15.0218 19 11.2064 20.5804 8.3934 23.3934C5.58035 26.2064 4 30.0218 4 34V94C4 97.9782 5.58035 101.794 8.3934 104.607C11.2064 107.42 15.0218 109 19 109H109C112.978 109 116.794 107.42 119.607 104.607C122.42 101.794 124 97.9782 124 94V34C123.998 30.0223 122.417 26.208 119.605 23.3954C116.792 20.5827 112.978 19.0018 109 19ZM19 26.5H109C110.989 26.5018 112.895 27.2925 114.301 28.6987C115.707 30.1048 116.498 32.0114 116.5 34V42.44L70.7467 76.7533C68.7934 78.2027 66.4256 78.9852 63.9933 78.9852C61.561 78.9852 59.1933 78.2027 57.24 76.7533L11.5 42.44V34C11.5035 32.012 12.2948 30.1063 13.7006 28.7006C15.1064 27.2948 17.012 26.5035 19 26.5V26.5ZM116.5 94C116.498 95.9886 115.707 97.8952 114.301 99.3013C112.895 100.707 110.989 101.498 109 101.5H19C17.0114 101.498 15.1048 100.707 13.6986 99.3013C12.2925 97.8952 11.5018 95.9886 11.5 94V51.6L52.7533 82.7467C55.9964 85.1844 59.9429 86.5038 64 86.5067C68.0586 86.5071 72.0076 85.19 75.2533 82.7533L116.5 51.6V94Z" fill="black"/>
</svg>
