<svg width="128" height="128" viewBox="0 0 128 128" fill="none" xmlns="http://www.w3.org/2000/svg">
<path d="M58.3738 84.6261V69.6262H43.3739C42.6346 69.6286 41.9021 69.4847 41.2186 69.2028C40.5352 68.9208 39.9143 68.5064 39.3918 67.9835C38.8692 67.4605 38.4553 66.8392 38.1739 66.1556C37.8926 65.4719 37.7493 64.7393 37.7523 64C37.7493 63.2603 37.8927 62.5273 38.1744 61.8434C38.456 61.1594 38.8703 60.538 39.3934 60.0149C39.9164 59.4919 40.5379 59.0776 41.2218 58.7959C41.9058 58.5142 42.6388 58.3708 43.3785 58.3739H58.3785V43.3739C58.376 42.635 58.5198 41.9029 58.8014 41.2197C59.0831 40.5366 59.497 39.9159 60.0195 39.3934C60.542 38.8709 61.1627 38.4569 61.8458 38.1753C62.529 37.8936 63.2611 37.7499 64 37.7523C64.7397 37.7493 65.4727 37.8927 66.1566 38.1744C66.8406 38.456 67.462 38.8703 67.9851 39.3934C68.5081 39.9164 68.9224 40.5379 69.2041 41.2218C69.4858 41.9058 69.6292 42.6388 69.6261 43.3785V58.3785H84.6261C85.3654 58.3754 86.098 58.5187 86.7817 58.8001C87.4654 59.0815 88.0866 59.4953 88.6096 60.0179C89.1326 60.5405 89.547 61.1613 89.8289 61.8448C90.1108 62.5282 90.2547 63.2607 90.2523 64C90.2553 64.7397 90.1119 65.4727 89.8302 66.1566C89.5486 66.8406 89.1343 67.4621 88.6112 67.9851C88.0882 68.5081 87.4668 68.9224 86.7828 69.2041C86.0988 69.4858 85.3658 69.6292 84.6261 69.6262H69.6261V84.6261C69.6292 85.3658 69.4858 86.0988 69.2041 86.7828C68.9224 87.4668 68.5081 88.0882 67.9851 88.6112C67.462 89.1343 66.8406 89.5486 66.1566 89.8302C65.4727 90.1119 64.7397 90.2553 64 90.2523C63.2603 90.2553 62.5273 90.1119 61.8434 89.8302C61.1594 89.5486 60.538 89.1343 60.0149 88.6112C59.4919 88.0882 59.0776 87.4668 58.7959 86.7828C58.5142 86.0988 58.3708 85.3658 58.3738 84.6261V84.6261ZM124 64C124.013 74.6283 121.182 85.0665 115.798 94.2307C110.609 103.173 103.176 110.607 94.2354 115.798C85.0698 121.182 74.6299 124.014 64 124C53.3701 124.014 42.9302 121.182 33.7646 115.798C24.8236 110.607 17.3913 103.173 12.2016 94.2307C6.81846 85.0665 3.98661 74.6283 4.00005 64C3.98661 53.3717 6.81846 42.9335 12.2016 33.7693C17.3919 24.8288 24.8242 17.3965 33.7646 12.2062C42.9298 6.82067 53.3697 3.98719 64 4.00005C74.6299 3.98579 85.0698 6.81767 94.2354 12.2016C103.176 17.3932 110.609 24.8271 115.798 33.7693C121.182 42.9335 124.013 53.3717 124 64V64ZM64 15.2524C57.5962 15.2399 51.2536 16.4981 45.3395 18.954C39.4254 21.41 34.0573 25.0149 29.5462 29.56C25.0011 34.0712 21.3962 39.4393 18.9402 45.3534C16.4842 51.2675 15.226 57.6101 15.2385 64.0139C15.226 70.4176 16.4842 76.7602 18.9402 82.6743C21.3962 88.5884 25.0011 93.9565 29.5462 98.4677C34.0592 103.009 39.4282 106.609 45.3422 109.061C51.2562 111.513 57.5978 112.768 64 112.752C70.4038 112.765 76.7464 111.507 82.6605 109.051C88.5746 106.595 93.9427 102.99 98.4538 98.4446C102.999 93.9334 106.604 88.5654 109.06 82.6513C111.516 76.7372 112.774 70.3945 112.761 63.9908C112.774 57.587 111.516 51.2444 109.06 45.3303C106.604 39.4162 102.999 34.0481 98.4538 29.537C93.9408 24.996 88.5718 21.3954 82.6578 18.9434C76.7438 16.4914 70.4021 15.2369 64 15.2524V15.2524Z" fill="black"/>
</svg>
