<svg width="128" height="128" viewBox="0 0 128 128" fill="none" xmlns="http://www.w3.org/2000/svg">
<path d="M102 34H92.628C91.8885 33.9976 91.1559 34.1416 90.4723 34.4237C89.7888 34.7058 89.1678 35.1203 88.6452 35.6435C88.1226 36.1666 87.7087 36.7881 87.4274 37.4719C87.146 38.1558 87.0028 38.8886 87.006 39.628C87.0028 40.368 87.1462 41.1013 87.4279 41.7855C87.7096 42.4698 88.1241 43.0915 88.6473 43.6147C89.1706 44.1379 89.7922 44.5524 90.4765 44.8341C91.1608 45.1158 91.894 45.2592 92.634 45.256H102C102.498 45.2348 102.995 45.3173 103.46 45.4982C103.924 45.6792 104.346 45.9546 104.699 46.3072C105.051 46.6597 105.327 47.0817 105.508 47.5462C105.689 48.0108 105.771 48.5079 105.75 49.006V109C105.771 109.498 105.689 109.995 105.508 110.46C105.327 110.924 105.051 111.346 104.699 111.699C104.346 112.051 103.924 112.327 103.46 112.508C102.995 112.689 102.498 112.771 102 112.75H27C26.5019 112.771 26.0048 112.689 25.5402 112.508C25.0756 112.327 24.6537 112.051 24.3012 111.699C23.9486 111.346 23.6731 110.924 23.4922 110.46C23.3112 109.995 23.2288 109.498 23.25 109V49C23.2288 48.5019 23.3112 48.0048 23.4922 47.5402C23.6731 47.0757 23.9486 46.6537 24.3012 46.3012C24.6537 45.9486 25.0756 45.6732 25.5402 45.4922C26.0048 45.3113 26.5019 45.2288 27 45.25H36.378C37.1175 45.2532 37.8502 45.11 38.5341 44.8287C39.218 44.5473 39.8394 44.1334 40.3625 43.6108C40.8857 43.0882 41.3003 42.4672 41.5823 41.7837C41.8644 41.1001 42.0084 40.3675 42.006 39.628C42.0084 38.8891 41.8646 38.1569 41.5829 37.4738C41.3012 36.7906 40.8872 36.1699 40.3647 35.6474C39.8421 35.1248 39.2214 34.7108 38.5383 34.4291C37.8551 34.1474 37.123 34.0037 36.384 34.006H27C23.037 34.0532 19.2503 35.6515 16.452 38.458C13.6469 41.2549 12.0488 45.0391 12 49V109C12.0472 112.963 13.6454 116.75 16.452 119.548C19.2503 122.355 23.037 123.953 27 124H102C105.963 123.953 109.75 122.355 112.548 119.548C115.355 116.75 116.953 112.963 117 109V49C116.953 45.0371 115.355 41.2504 112.548 38.452C109.75 35.6455 105.963 34.0472 102 34V34ZM38.25 60.016C37.6661 60.4887 37.1873 61.0779 36.844 61.7461C36.5008 62.4143 36.3008 63.1468 36.2567 63.8967C36.2127 64.6466 36.3256 65.3975 36.5882 66.1012C36.8509 66.805 37.2575 67.4463 37.782 67.984L60.3 92.362C61.447 93.4123 62.9448 93.9965 64.5 94C66.0552 93.9965 67.553 93.4123 68.7 92.362L91.2 67.99C92.1895 66.869 92.6957 65.4023 92.608 63.9096C92.5203 62.4169 91.846 61.0195 90.732 60.022C90.2008 59.5004 89.5696 59.0915 88.8764 58.8199C88.1833 58.5483 87.4423 58.4195 86.6981 58.4414C85.954 58.4632 85.2219 58.6352 84.5458 58.9471C83.8698 59.2589 83.2637 59.7041 82.764 60.256L70.11 74.056V9.62803C70.1132 8.88958 69.9703 8.15778 69.6898 7.47471C69.4092 6.79163 68.9964 6.17075 68.475 5.64775C67.9537 5.12475 67.3341 4.70994 66.652 4.42717C65.9698 4.1444 65.2385 3.99923 64.5 4.00003C63.7605 3.99765 63.0279 4.14164 62.3444 4.4237C61.6608 4.70576 61.0398 5.12033 60.5172 5.64349C59.9946 6.16665 59.5807 6.78807 59.2994 7.47193C59.018 8.15579 58.8748 8.88857 58.878 9.62803V74.08L46.224 60.28C45.6873 59.6996 45.0383 59.2344 44.3163 58.9126C43.5943 58.5908 42.8144 58.4191 42.024 58.408C41.3184 58.4038 40.6195 58.5443 39.9703 58.8209C39.3212 59.0974 38.7357 59.5042 38.25 60.016V60.016Z" fill="black"/>
</svg>
