<svg width="128" height="128" viewBox="0 0 128 128" fill="none" xmlns="http://www.w3.org/2000/svg">
<path d="M4.00857 83.6459C4.4781 81.329 4.97831 79.0165 5.40395 76.6952C6.97488 68.1823 8.5066 59.6651 10.0775 51.1523C10.2635 49.6747 10.9989 48.3214 12.1371 47.3612C13.2754 46.401 14.7332 45.9041 16.221 45.9698C24.0274 45.9303 31.8382 45.9173 39.6446 45.9963C40.8886 46.0391 42.1083 46.3503 43.2206 46.9088C50.9217 50.6825 58.6271 54.4563 66.2141 58.4495C66.927 58.8608 67.7204 59.1132 68.5399 59.1889C69.3595 59.2647 70.186 59.1621 70.9622 58.8884C82.1079 55.6281 93.2842 52.4731 104.452 49.2874C105.202 48.935 106.059 48.8845 106.845 49.1468C107.631 49.409 108.285 49.9638 108.673 50.6959C108.865 51.1048 108.962 51.5516 108.956 52.0031C108.951 52.4547 108.844 52.8992 108.642 53.3034C108.441 53.7077 108.151 54.0611 107.794 54.3375C107.437 54.6139 107.022 54.8062 106.58 54.8997C102.582 56.0801 98.5674 57.2078 94.5567 58.3531C86.724 60.5954 78.9001 62.8508 71.0586 65.0493C70.8894 65.0656 70.7255 65.1173 70.5776 65.2009C70.4296 65.2845 70.3007 65.3981 70.1994 65.5346C70.0981 65.671 70.0266 65.8273 69.9894 65.9931C69.9522 66.1589 69.9502 66.3308 69.9835 66.4974C70.0458 67.8231 70.0164 69.1512 69.8957 70.4728C69.8454 71.3343 69.6037 72.1738 69.1881 72.9301C68.7725 73.6864 68.1935 74.3407 67.4933 74.8451C66.793 75.3494 65.9892 75.6913 65.1401 75.8459C64.2911 76.0005 63.4181 75.9637 62.5851 75.7385C57.5695 74.5888 52.5938 73.277 47.6001 72.0396L45.2218 71.4603C44.998 73.3427 44.7827 75.1507 44.5721 76.9673C43.2498 88.8327 41.9333 100.698 40.6227 112.563C40.3989 114.578 40.2151 116.6 39.9387 118.61C39.8213 119.808 39.3363 120.94 38.5508 121.852C37.7653 122.764 36.7178 123.411 35.5506 123.705C35.4147 123.765 35.2863 123.842 35.1687 123.933H20.8763C19.557 123.621 18.3725 122.896 17.4953 121.862C16.6181 120.829 16.0943 119.541 16.0013 118.189C15.4923 112.089 15.0362 105.981 14.5535 99.8775C14.3209 96.9287 14.0793 93.9842 13.8335 90.9257C13.2499 90.9257 12.7541 90.9257 12.2539 90.9257C11.0814 90.9687 9.90765 90.9158 8.74376 90.7677C7.57682 90.5095 6.50869 89.9207 5.66749 89.0718C4.8263 88.2228 4.2474 87.1498 4 85.9805L4.00857 83.6459ZM30.9825 51.9903V53.5437C30.9825 59.0068 30.9825 64.4745 30.9825 69.9377C31.0225 70.3953 30.9559 70.8557 30.7886 71.2835C30.6214 71.7113 30.3575 72.0949 30.0178 72.4041C29.6781 72.7132 29.2719 72.9396 28.8303 73.0659C28.3886 73.1922 27.9237 73.2148 27.4718 73.132C26.719 72.9759 26.0522 72.5433 25.6029 71.9193C25.1537 71.2954 24.9546 70.5255 25.0453 69.762C25.0453 64.3383 25.0453 58.9103 25.0453 53.4866V52.0562H16.0233L10.0379 84.9668H11.5126C13.8558 84.9668 16.1989 84.9668 18.5334 84.9668C19.1302 84.9668 19.446 85.0851 19.4986 85.7829C20.1042 93.7575 20.7288 101.732 21.3723 109.707C21.5874 112.414 21.8112 115.122 22.035 117.851H34.0277L40.0217 63.9742L64.0115 69.9596C64.0115 68.2044 63.9632 66.5894 64.0115 64.9965C64.0558 64.676 63.9867 64.3501 63.816 64.0752C63.6453 63.8003 63.3837 63.594 63.0768 63.4916C55.6171 59.8012 48.2188 56.0755 40.7898 52.3719C40.4574 52.1746 40.0859 52.0519 39.7014 52.0122C36.8316 51.9771 33.9971 51.9903 30.9825 51.9903V51.9903Z" fill="black"/>
<path d="M69.1364 123.937C66.7361 122.397 66.4288 121.023 67.9427 118.505L81.9101 95.2478C82.1251 94.8924 82.3138 94.5194 82.6209 93.9708H58.7366C57.827 94.0734 56.9058 93.9693 56.042 93.6663C55.1782 93.3633 54.3941 92.8692 53.7478 92.2209C53.1016 91.5725 52.6101 90.7866 52.3099 89.9218C52.0097 89.0571 51.9087 88.1357 52.0142 87.2264C52.0142 84.655 52.0142 82.0836 52.0142 79.363C53.9537 79.8457 55.7615 80.2668 57.5475 80.7758C57.7625 80.8372 57.9556 81.3858 57.9599 81.7105C57.9994 83.7334 57.9599 85.7564 57.9599 87.8539H117.835V40.0677H57.9993V47.558C55.9413 46.5268 54.1028 45.6273 52.2949 44.6751C52.1062 44.5742 52.014 44.1443 52.0096 43.8679C51.9877 42.5032 51.9701 41.134 52.0096 39.7693C52.0498 38.3108 52.6262 36.9181 53.6284 35.8577C54.6305 34.7972 55.9883 34.1434 57.4422 34.0209C57.9469 33.9727 58.4558 33.9814 58.9648 33.9814H116.94C117.888 33.8425 118.855 33.9264 119.765 34.2264C120.675 34.5264 121.502 35.0343 122.181 35.7097C122.86 36.3852 123.373 37.2096 123.678 38.1176C123.983 39.0257 124.073 39.9922 123.939 40.9408C123.939 56.3225 123.939 71.7044 123.939 87.0861C124.056 88.0152 123.959 88.9587 123.656 89.8447C123.352 90.7307 122.85 91.5356 122.188 92.1978C121.526 92.86 120.721 93.362 119.835 93.6655C118.949 93.969 118.005 94.0659 117.076 93.9489H93.3102C93.6042 94.4842 93.7886 94.8573 94.0036 95.2128L107.914 118.386C109.493 121.019 109.261 122.199 106.83 123.937H105.202C104.324 123.209 103.53 122.387 102.833 121.484C99.0983 115.402 95.456 109.263 91.7788 103.142C91.5769 102.804 91.3402 102.479 91.1295 102.146C90.9409 108.065 90.8749 113.879 90.9758 119.698C91.0923 120.545 90.9441 121.408 90.5513 122.167C90.1585 122.927 89.5404 123.547 88.7818 123.942H87.1405C86.3843 123.583 85.7618 122.992 85.3627 122.257C84.9636 121.521 84.8087 120.677 84.9202 119.847C85.0124 114.349 84.951 108.846 84.951 103.344V102.238C84.6045 102.465 84.3194 102.774 84.1216 103.137C80.5116 109.155 76.9076 115.176 73.3094 121.199C72.7518 122.352 71.8564 123.309 70.7423 123.942L69.1364 123.937Z" fill="black"/>
<path d="M27.8394 39.9712C25.4647 39.9462 23.1183 39.4512 20.9359 38.5149C18.7534 37.5786 16.7781 36.2195 15.1235 34.516C13.4689 32.8125 12.168 30.7982 11.2957 28.5894C10.4234 26.3806 9.99704 24.021 10.0412 21.6466C10.0867 19.2729 10.6015 16.9317 11.556 14.7578C12.5106 12.584 13.886 10.6206 15.6029 8.9808C17.3198 7.34101 19.344 6.05723 21.5594 5.2035C23.7747 4.34977 26.1373 3.94289 28.5106 4.00645C30.8839 4.07772 33.2198 4.61814 35.3833 5.5964C37.5468 6.57467 39.4951 7.97148 41.1161 9.70635C42.7372 11.4412 43.9988 13.4798 44.8282 15.7046C45.6577 17.9294 46.0387 20.2964 45.9491 22.6691C45.7625 27.3381 43.7697 31.7521 40.3911 34.9801C37.0125 38.2081 32.5121 39.9977 27.8394 39.9712V39.9712ZM27.9929 10.0138C24.8198 10.0322 21.7816 11.2997 19.5362 13.5418C17.2908 15.7839 16.0191 18.8201 15.9961 21.9932C16.0304 25.1646 17.307 28.1962 19.5517 30.4368C21.7965 32.6775 24.8302 33.9486 28.0017 33.9771C31.1738 33.9507 34.2084 32.6786 36.4511 30.4351C38.6938 28.1916 39.9647 25.1566 39.9899 21.9845C39.9703 18.8112 38.6991 15.7737 36.4527 13.5323C34.2063 11.2908 31.1662 10.0265 27.9929 10.0138V10.0138Z" fill="black"/>
</svg>
