<svg width="128" height="128" viewBox="0 0 128 128" fill="none" xmlns="http://www.w3.org/2000/svg">
<path d="M82.5376 58.3744C83.2928 58.3981 84.045 58.2704 84.7501 57.9987C85.4551 57.7271 86.0986 57.317 86.6426 56.7927C87.1865 56.2684 87.62 55.6404 87.9175 54.9459C88.2149 54.2514 88.3703 53.5043 88.3744 52.7488C88.3757 52.0072 88.2301 51.2728 87.946 50.5878C87.662 49.9028 87.2451 49.2808 86.7194 48.7578C86.1937 48.2348 85.5696 47.8211 84.8832 47.5405C84.1967 47.26 83.4615 47.1181 82.72 47.1232C81.9815 47.1226 81.2502 47.2677 80.5679 47.5503C79.8856 47.8329 79.2658 48.2474 78.7441 48.7701C78.2223 49.2927 77.8089 49.9132 77.5274 50.596C77.246 51.2787 77.1021 52.0103 77.104 52.7488C77.0897 54.2121 77.6515 55.6223 78.6682 56.6749C79.6848 57.7275 81.0747 58.3379 82.5376 58.3744V58.3744ZM45.04 58.3744C45.7952 58.3981 46.5474 58.2704 47.2525 57.9987C47.9575 57.7271 48.6009 57.317 49.1449 56.7927C49.6889 56.2684 50.1224 55.6404 50.4199 54.9459C50.7173 54.2514 50.8727 53.5043 50.8768 52.7488C50.8727 51.9933 50.7173 51.2462 50.4199 50.5517C50.1224 49.8572 49.6889 49.2292 49.1449 48.7049C48.6009 48.1806 47.9575 47.7705 47.2525 47.4989C46.5474 47.2272 45.7952 47.0995 45.04 47.1232C43.5804 47.1646 42.1955 47.7772 41.1829 48.8293C40.1704 49.8813 39.6112 51.2887 39.6256 52.7488C39.6112 54.2089 40.1704 55.6163 41.1829 56.6683C42.1955 57.7204 43.5804 58.333 45.04 58.3744V58.3744ZM85.12 80.3344C82.5432 83.4343 79.3146 85.928 75.6641 87.6379C72.0136 89.3478 68.0311 90.2319 64 90.2272C59.9688 90.2297 55.9866 89.3441 52.3363 87.6335C48.6861 85.9228 45.4575 83.4291 42.88 80.3296C42.2413 79.5691 41.3279 79.0918 40.3389 79.0019C39.3498 78.912 38.3653 79.2167 37.6 79.8496C37.2196 80.1633 36.9052 80.5492 36.6749 80.9852C36.4446 81.4212 36.3031 81.8984 36.2584 82.3895C36.2138 82.8805 36.267 83.3755 36.4148 83.8458C36.5627 84.3161 36.8024 84.7525 37.12 85.1296C40.4111 89.0484 44.5269 92.192 49.1735 94.3361C53.82 96.4802 58.8828 97.5717 64 97.5328C69.1344 97.5359 74.2065 96.4087 78.8562 94.2311C83.5059 92.0535 87.6192 88.8789 90.904 84.9328C91.2228 84.5562 91.4635 84.12 91.6122 83.6495C91.7608 83.179 91.8143 82.6837 91.7696 82.1923C91.7249 81.7009 91.583 81.2233 91.352 80.7874C91.1209 80.3514 90.8055 79.9657 90.424 79.6528C89.6283 79.045 88.625 78.7757 87.6319 78.9034C86.6388 79.031 85.7362 79.5452 85.12 80.3344V80.3344ZM64 4.0144C48.0895 4.0144 32.8305 10.3338 21.5787 21.5829C10.3269 32.832 4.00382 48.0895 4 64C4 79.913 10.3214 95.1742 21.5736 106.426C32.8258 117.679 48.087 124 64 124C79.913 124 95.1742 117.679 106.426 106.426C117.679 95.1742 124 79.913 124 64C124 48.087 117.679 32.8258 106.426 21.5736C95.1742 10.3214 79.913 4 64 4V4.0144ZM64 116.517C50.0789 116.499 36.7334 110.96 26.8915 101.114C17.0495 91.2687 11.5151 77.9211 11.5024 64C11.5202 50.0822 17.0569 36.7396 26.8982 26.8982C36.7396 17.0569 50.0822 11.5202 64 11.5024C77.9186 11.5189 91.2625 17.055 101.105 26.8965C110.947 36.738 116.485 50.0814 116.502 64C116.486 77.9194 110.949 91.264 101.107 101.107C91.264 110.949 77.9194 116.486 64 116.502V116.517Z" fill="black"/>
</svg>
