<svg width="128" height="128" viewBox="0 0 128 128" fill="none" xmlns="http://www.w3.org/2000/svg">
<path d="M39.3572 64.5C39.3572 51.0859 50.2288 40.2143 63.6429 40.2143C77.057 40.2143 87.9286 51.0859 87.9286 64.5C87.9286 77.9141 77.057 88.7857 63.6429 88.7857C50.2288 88.7857 39.3572 77.9141 39.3572 64.5ZM63.6429 79.6786C72.0291 79.6786 78.8215 72.8862 78.8215 64.5C78.8215 56.1138 72.0291 49.3214 63.6429 49.3214C63.5101 49.3214 63.3962 49.3214 63.0927 49.3214C63.5101 50.2891 63.6429 51.3136 63.6429 52.3571C63.6429 59.0547 58.1976 64.5 51.5 64.5C50.4565 64.5 49.432 64.3672 48.4643 63.9498C48.4643 64.2534 48.4643 64.3672 48.4643 64.3292C48.4643 72.8862 55.2567 79.6786 63.6429 79.6786ZM27.1043 37.2924C36.0369 28.9897 48.3125 22 63.6429 22C78.9733 22 91.2489 28.9897 100.185 37.2924C109.065 45.5268 115.003 55.2221 117.811 62.1663C118.438 63.6652 118.438 65.3348 117.811 66.8337C115.003 73.6071 109.065 83.3025 100.185 91.7076C91.2489 100.018 78.9733 107 63.6429 107C48.3125 107 36.0369 100.018 27.1043 91.7076C18.2248 83.3025 12.29 73.6071 9.46695 66.8337C8.84435 65.3348 8.84435 63.6652 9.46695 62.1663C12.29 55.2221 18.2248 45.5268 27.1043 37.2924ZM63.6429 31.1071C51.2724 31.1071 41.1027 36.7232 33.3047 43.952C26 50.7444 20.9569 58.6373 18.3804 64.5C20.9569 70.192 26 78.2556 33.3047 85.048C41.1027 92.2768 51.2724 97.8929 63.6429 97.8929C76.0134 97.8929 86.1831 92.2768 93.9811 85.048C101.286 78.2556 106.162 70.192 108.913 64.5C106.162 58.6373 101.286 50.7444 93.9811 43.952C86.1831 36.7232 76.0134 31.1071 63.6429 31.1071Z" fill="black"/>
</svg>
