<svg width="128" height="128" viewBox="0 0 128 128" fill="none" xmlns="http://www.w3.org/2000/svg">
<path d="M9.62329 124C8.70825 123.683 7.82216 123.288 6.9748 122.819C6.04369 122.23 5.28156 121.409 4.763 120.437C4.24444 119.465 3.98723 118.375 4.01667 117.274C3.99444 103.495 3.99444 89.7173 4.01667 75.9413C3.97963 75.1143 4.10651 74.2882 4.38998 73.5104C4.67345 72.7327 5.10788 72.0187 5.66836 71.4095C6.22885 70.8003 6.90436 70.308 7.65586 69.9608C8.40735 69.6137 9.22 69.4186 10.0472 69.3868C15.4966 69.1676 20.9604 69.3248 26.4193 69.3868C27.1249 69.4092 27.819 69.572 28.461 69.8656C29.103 70.1592 29.6801 70.5778 30.1587 71.0969C30.2351 71.209 30.3339 71.3041 30.449 71.3762C30.564 71.4482 30.6929 71.4955 30.8272 71.5152C30.9615 71.5349 31.0984 71.5265 31.2293 71.4906C31.3602 71.4547 31.4822 71.392 31.5876 71.3064C33.0167 70.4824 34.4457 69.744 35.8747 68.9247C39.7117 66.8147 42.6307 63.3578 44.0679 59.2215L48.9981 45.5932C49.8365 43.2734 50.732 42.8113 53.0995 43.5687C54.7085 44.0278 56.2856 44.5928 57.8202 45.2598C60.4611 46.5071 62.5634 48.6652 63.7411 51.338C63.8389 51.6633 64.0493 51.9432 64.3348 52.1273C64.6202 52.3115 64.962 52.388 65.2987 52.343C70.7624 52.3049 76.2262 52.3431 81.6899 52.3049C82.2529 52.2823 82.814 52.3822 83.3346 52.5977C83.8552 52.8131 84.3229 53.1391 84.7052 53.5529C87.0155 55.9347 89.3686 58.264 91.7933 60.6982C92.1886 60.3266 92.5268 60.0217 92.8412 59.7074C94.9133 57.64 96.9997 55.587 99.0337 53.491C99.4052 53.0928 99.8586 52.7797 100.363 52.5733C100.867 52.3669 101.41 52.2721 101.954 52.2954C106.674 52.3335 111.395 52.2954 116.12 52.2954C118.402 52.2954 119.207 51.4808 119.207 49.1753C119.207 36.7236 119.207 24.2735 119.207 11.8249C119.207 9.54322 118.393 8.73818 116.087 8.73818H24.4234C22.1369 8.73818 21.3272 9.55274 21.3272 11.8487C21.3272 24.3005 21.3272 36.7506 21.3272 49.1992C21.3272 51.4856 22.1369 52.2906 24.4376 52.2954C25.5285 52.2954 26.6242 52.2668 27.715 52.2954C28.0286 52.2807 28.342 52.3281 28.6372 52.435C28.9324 52.5419 29.2036 52.7061 29.4352 52.9181C29.6667 53.1302 29.8541 53.3859 29.9864 53.6706C30.1187 53.9553 30.1934 54.2634 30.2062 54.5771C30.2067 54.901 30.1411 55.2216 30.0134 55.5193C29.8858 55.817 29.6988 56.0855 29.4638 56.3084C29.2288 56.5313 28.9509 56.704 28.647 56.8158C28.343 56.9277 28.0194 56.9763 27.696 56.9589C26.4479 56.997 25.1998 56.9827 23.9518 56.9589C22.9813 56.9952 22.0137 56.8303 21.11 56.4746C20.2062 56.1189 19.3859 55.58 18.7005 54.8919C18.0151 54.2039 17.4794 53.3814 17.1273 52.4763C16.7751 51.5712 16.614 50.603 16.6541 49.6326C16.6208 44.9882 16.6541 40.3439 16.6541 35.6995C16.6541 27.7381 16.6541 19.7751 16.6541 11.8106C16.5562 10.7638 16.6906 9.7084 17.0475 8.7195C17.4044 7.73061 17.9751 6.83264 18.7189 6.08969C19.4628 5.34674 20.3615 4.7771 21.3509 4.42139C22.3402 4.06568 23.3958 3.93268 24.4424 4.03187H115.048C120.341 4.03187 121.927 5.07982 123.894 9.88617V51.1093C121.927 55.9156 120.341 56.9636 115.053 56.9636C111.114 56.9636 107.175 56.9636 103.235 56.9636C102.892 56.9488 102.549 57.0108 102.233 57.1451C101.916 57.2794 101.634 57.4827 101.406 57.7401C98.9766 60.2171 96.5091 62.6655 94.0511 65.1139C92.422 66.7383 91.2787 66.7478 89.6687 65.1425C87.1821 62.6655 84.7242 60.1551 82.1996 57.721C81.7298 57.2958 81.1271 57.0467 80.4942 57.016C76.007 56.9589 71.5247 56.9827 67.0375 56.9827H65.1939L65.5084 57.2018L61.9406 69.2057H63.2172C68.7952 69.2057 74.3733 69.2057 79.9513 69.2057C81.9576 69.0795 83.945 69.6583 85.5698 70.8421C87.1946 72.026 88.3546 73.7403 88.8494 75.6888C89.4281 77.8325 89.1479 80.1174 88.0682 82.0576C89.8118 82.5825 91.3417 83.6518 92.4338 85.1089C93.5258 86.5661 94.1226 88.3346 94.1369 90.1555C94.1958 91.9641 93.681 93.7449 92.6662 95.2431C91.6514 96.7413 90.1887 97.8801 88.4874 98.4964C89.1385 99.611 89.5286 100.859 89.6284 102.146C89.7282 103.433 89.5352 104.726 89.0638 105.927C88.586 107.12 87.8597 108.198 86.9333 109.088C86.0068 109.978 84.9015 110.661 83.6906 111.091C84.4514 112.442 84.8313 113.975 84.7902 115.525C84.7491 117.075 84.2885 118.585 83.4572 119.894C82.7725 120.964 81.8703 121.878 80.8091 122.576C79.7479 123.275 78.5516 123.742 77.298 123.948H42.1722C38.5614 123.465 35.028 122.519 31.6592 121.132C31.5231 121.105 31.3824 121.112 31.2495 121.152C31.1166 121.192 30.9956 121.263 30.897 121.361C29.7729 122.713 28.2104 123.628 26.4812 123.948L9.62329 124ZM52.9471 48.5084C51.4609 52.605 49.9794 56.6064 48.5408 60.6553C47.0128 65.209 44.0259 69.1318 40.0428 71.8161C37.9087 73.2452 35.6081 74.4217 33.3407 75.6269C33.0084 75.7621 32.729 76.0014 32.5443 76.3089C32.3597 76.6164 32.2798 76.9755 32.3165 77.3322C32.3483 88.339 32.3483 99.3458 32.3165 110.353C32.3165 112.11 32.2878 113.868 32.3402 115.621C32.3535 115.811 32.4097 115.995 32.5046 116.16C32.5995 116.325 32.7307 116.467 32.8881 116.574C36.6405 118.336 40.7276 119.272 44.873 119.317C48.7743 119.284 52.6756 119.317 56.5816 119.317C62.979 119.317 69.3811 119.317 75.7832 119.317C76.5072 119.369 77.2316 119.225 77.8803 118.899C78.5291 118.574 79.0783 118.08 79.4701 117.469C79.8389 116.912 80.0548 116.268 80.0961 115.601C80.1374 114.934 80.0027 114.268 79.7055 113.67C79.4082 113.072 78.959 112.562 78.4027 112.192C77.8463 111.822 77.2025 111.605 76.5358 111.563C73.7349 111.41 70.9196 111.539 68.1092 111.467C67.7759 111.505 67.4384 111.47 67.1201 111.364C66.8018 111.258 66.5104 111.084 66.266 110.855C66.0217 110.625 65.8303 110.344 65.7052 110.033C65.5801 109.722 65.5243 109.387 65.5417 109.052C65.5845 107.699 66.5373 106.856 68.1569 106.813C69.443 106.775 70.7339 106.813 72.0201 106.813H80.4514C81.0575 106.868 81.6684 106.793 82.2433 106.594C82.8183 106.394 83.3441 106.074 83.7858 105.656C84.3502 105.132 84.7377 104.446 84.8947 103.693C85.0518 102.939 84.9705 102.155 84.6623 101.45C84.3798 100.69 83.8626 100.041 83.1859 99.5955C82.5092 99.1501 81.7082 98.932 80.8991 98.9727C76.8787 98.9727 72.8632 98.9727 68.8429 98.9727C66.6374 98.9727 65.5846 98.2391 65.5513 96.6957C65.5179 95.1524 66.623 94.314 68.8523 94.2902C74.316 94.2902 79.7798 94.2902 85.2435 94.2902C85.8484 94.3293 86.4544 94.2304 87.0155 94.001C87.5767 93.7715 88.0783 93.4176 88.4826 92.966C88.9984 92.4225 89.3365 91.735 89.4522 90.9948C89.5679 90.2546 89.4558 89.4966 89.1305 88.8217C88.8429 88.1079 88.3403 87.5011 87.6925 87.0855C87.0447 86.6698 86.2838 86.4659 85.515 86.5019C79.9751 86.5019 74.4303 86.5019 68.8904 86.5019C68.3462 86.5147 67.8024 86.4619 67.2708 86.3447C66.9085 86.2595 66.5729 86.0861 66.2938 85.8399C66.0147 85.5936 65.8008 85.2822 65.6712 84.9333C65.5415 84.5844 65.5001 84.2089 65.5507 83.8402C65.6012 83.4714 65.7422 83.1209 65.9609 82.8198C66.2347 82.4582 66.5993 82.1752 67.0174 81.9996C67.4356 81.8239 67.8927 81.7618 68.3426 81.8194C72.128 81.8194 75.9134 81.8194 79.6988 81.8194C80.3229 81.8296 80.946 81.7688 81.5565 81.6384C82.4973 81.4108 83.3164 80.8337 83.8472 80.0242C84.378 79.2147 84.5809 78.2335 84.4146 77.2798C84.2531 76.2616 83.7035 75.3454 82.8811 74.7237C82.0586 74.102 81.0273 73.8231 80.0036 73.9454C73.176 73.9454 66.3484 73.9454 59.5207 73.9454C56.5483 73.9454 55.7099 72.7784 56.6388 69.9917C57.7201 66.7764 58.83 63.5753 59.8685 60.3504C60.3346 59.1207 60.5196 57.8022 60.4098 56.4917C60.3001 55.1811 59.8984 53.9118 59.2342 52.7767C58.57 51.6416 57.6602 50.6695 56.5715 49.9318C55.4828 49.1941 54.2427 48.7093 52.9423 48.5132L52.9471 48.5084ZM20.5126 73.9407V75.584C20.5126 84.2123 20.5126 92.839 20.5126 101.464C20.5126 101.817 20.5126 102.169 20.5126 102.517C20.4174 104.117 19.5599 105.065 18.2071 105.079C16.8543 105.094 15.954 104.155 15.8253 102.569C15.7968 102.179 15.8253 101.788 15.8253 101.397C15.8253 92.7691 15.8253 84.1424 15.8253 75.5173V73.9216C14.2105 73.9216 12.7767 73.9216 11.3429 73.9216C9.38508 73.9216 8.68958 74.6504 8.68958 76.6368C8.68958 89.9491 8.68958 103.26 8.68958 116.569C8.68958 118.632 9.36126 119.308 11.4238 119.308H24.8902C27.0194 119.308 27.6579 118.655 27.6579 116.488C27.6579 109.463 27.6579 102.437 27.6579 95.4096C27.6579 89.0869 27.6579 82.7626 27.6579 76.4367C27.6579 74.8647 27.0291 74.0216 25.6429 73.9502C24.0043 73.8787 22.3704 73.9407 20.5126 73.9407Z" fill="black"/>
<path d="M100.854 17.8561C101.542 17.8516 102.217 18.0433 102.8 18.4086C103.383 18.7739 103.85 19.2976 104.146 19.9187C104.679 20.9142 105.099 21.9717 105.685 22.934C105.948 23.3265 106.346 23.6094 106.804 23.7295C107.823 23.9676 108.881 24.0581 109.919 24.2058C110.643 24.2712 111.333 24.5475 111.902 25.0005C112.47 25.4534 112.894 26.0631 113.12 26.7543C113.365 27.4412 113.399 28.1857 113.218 28.892C113.036 29.5983 112.647 30.2341 112.101 30.7175C111.339 31.5035 110.51 32.218 109.786 33.0373C109.507 33.3756 109.363 33.8046 109.381 34.2425C109.491 35.4047 109.781 36.548 109.895 37.7102C110.017 38.3994 109.94 39.1089 109.673 39.7558C109.406 40.4027 108.96 40.9603 108.388 41.3634C107.816 41.7665 107.142 41.9986 106.443 42.0324C105.744 42.0662 105.049 41.9004 104.441 41.5544C103.417 41.078 102.455 40.4683 101.426 40.0158C101.022 39.8584 100.573 39.8584 100.168 40.0158C99.1347 40.4921 98.163 41.0542 97.1532 41.5639C96.5191 41.9249 95.7906 42.0854 95.0635 42.0242C94.3365 41.9629 93.6451 41.6829 93.0804 41.2209C92.4833 40.8271 92.03 40.2501 91.7886 39.5768C91.5473 38.9034 91.5309 38.1699 91.7418 37.4864C92.2618 36.2968 92.331 34.9587 91.9366 33.7218C91.5421 32.485 90.7109 31.434 89.5983 30.7651C88.9837 30.3244 88.5372 29.6878 88.332 28.9598C88.1269 28.2319 88.1753 27.4558 88.4693 26.759C88.6638 26.0265 89.0976 25.3801 89.7019 24.9226C90.3061 24.4651 91.046 24.2229 91.8038 24.2344C93.0535 24.3509 94.303 24.0086 95.3189 23.2715C96.3349 22.5343 97.0478 21.4526 97.3246 20.2283C97.561 19.4939 98.0378 18.8605 98.6782 18.4302C99.3185 17.9998 100.085 17.7976 100.854 17.8561V17.8561ZM104.96 36.5289C104.35 35.1283 104.269 33.5534 104.734 32.0977C105.198 30.642 106.176 29.4048 107.485 28.6168C105.967 28.7669 104.446 28.3511 103.216 27.4491C101.985 26.5472 101.13 25.2226 100.816 23.7295C100.5 25.2342 99.6399 26.5696 98.4008 27.48C97.1616 28.3905 95.6303 28.8122 94.0997 28.6644C95.4191 29.4302 96.4129 30.6521 96.8937 32.0998C97.3746 33.5476 97.3093 35.1212 96.7101 36.5241C97.8503 35.5207 99.3174 34.9677 100.836 34.9685C102.355 34.9694 103.821 35.5242 104.96 36.5289V36.5289Z" fill="black"/>
<path d="M32.0923 37.7999C32.2304 36.9329 32.3639 35.6897 32.6544 34.4654C32.7499 34.1725 32.7482 33.8566 32.6495 33.5647C32.5508 33.2728 32.3604 33.0207 32.1067 32.8458C31.3493 32.1742 30.6299 31.4549 29.9202 30.7309C29.3625 30.2329 28.9693 29.5773 28.7924 28.8509C28.6155 28.1245 28.6631 27.3615 28.9293 26.6629C29.1383 25.9592 29.5698 25.3422 30.1589 24.9042C30.748 24.4662 31.4631 24.2309 32.1971 24.2335C33.4456 24.3569 34.6964 24.0212 35.7152 23.2891C36.734 22.5569 37.4511 21.4787 37.7324 20.256C37.9572 19.5151 38.4269 18.8726 39.0648 18.4338C39.7027 17.995 40.4708 17.7859 41.243 17.8409C42.0158 17.7969 42.7806 18.0159 43.413 18.4622C44.0453 18.9086 44.5078 19.556 44.7251 20.2989C45.0055 21.5019 45.7129 22.5623 46.7159 23.2833C47.719 24.0043 48.9497 24.3368 50.1793 24.2192C50.9306 24.2146 51.6628 24.4554 52.2647 24.9051C52.8666 25.3548 53.3051 25.9887 53.5137 26.7105C53.8155 27.4238 53.8664 28.2184 53.6579 28.9643C53.4494 29.7103 52.9937 30.3633 52.3657 30.8166C51.2746 31.4717 50.4591 32.5016 50.0716 33.7139C49.6842 34.9261 49.7513 36.238 50.2603 37.4045C50.4868 38.1251 50.467 38.9007 50.2039 39.6088C49.9408 40.317 49.4494 40.9174 48.8073 41.3153C48.22 41.7443 47.5196 41.9915 46.7931 42.0262C46.0666 42.061 45.3459 41.8817 44.7203 41.5106C43.5437 40.9152 42.3387 39.8529 41.1859 39.8577C40.0331 39.8625 38.8469 40.9581 37.656 41.5297C37.0501 41.8622 36.3646 42.0218 35.6741 41.9911C34.9836 41.9605 34.3148 41.7407 33.7406 41.3558C33.1665 40.971 32.7092 40.4358 32.4185 39.8087C32.1278 39.1816 32.0149 38.4867 32.0923 37.7999ZM41.3954 23.8572C40.7086 25.173 39.827 26.3774 38.7803 27.4298C37.4292 28.114 35.9847 28.5955 34.4932 28.8588C35.814 29.5789 36.8167 30.7681 37.3035 32.1914C37.7903 33.6148 37.7257 35.169 37.1225 36.5471C38.2484 35.5281 39.7094 34.9583 41.2279 34.946C42.7464 34.9337 44.2164 35.4798 45.3586 36.4804C44.7637 35.0833 44.6925 33.5185 45.158 32.0731C45.6235 30.6277 46.5944 29.3986 47.8928 28.6111C46.409 28.7895 44.9127 28.3979 43.7066 27.5154C42.5005 26.6329 41.6744 25.3254 41.3954 23.8572V23.8572Z" fill="black"/>
<path d="M75.7485 42.0065C74.634 41.5399 73.5476 41.0086 72.495 40.4155C72.0738 40.0808 71.5516 39.8986 71.0136 39.8986C70.4756 39.8986 69.9534 40.0808 69.5322 40.4155C68.8081 40.8728 68.0501 41.2741 67.2648 41.6159C66.6399 41.9503 65.9301 42.0921 65.2247 42.0234C64.5194 41.9547 63.8502 41.6786 63.3016 41.23C62.7443 40.8234 62.3141 40.2667 62.061 39.6249C61.808 38.9831 61.7426 38.2825 61.8725 37.605C62.0297 36.5284 62.3108 35.4614 62.4013 34.3801C62.4241 33.8726 62.2635 33.3737 61.9487 32.9749C61.2437 32.146 60.4006 31.4363 59.6337 30.6646C59.113 30.1843 58.7434 29.5627 58.57 28.8759C58.3966 28.1891 58.4269 27.4666 58.6571 26.7967C58.8323 26.0831 59.2383 25.4473 59.812 24.9881C60.3857 24.529 61.095 24.2722 61.8296 24.2577C63.1171 24.3917 64.4092 24.0501 65.4621 23.2972C66.5151 22.5444 67.2562 21.4323 67.5458 20.1707C67.7712 19.4497 68.2346 18.8267 68.8603 18.4035C69.4859 17.9803 70.2368 17.7821 70.9898 17.8413C71.7419 17.7873 72.4903 17.9876 73.1149 18.41C73.7395 18.8324 74.204 19.4525 74.4338 20.1707C74.7282 21.4294 75.4706 22.5379 76.5225 23.2891C77.5744 24.0404 78.8639 24.383 80.15 24.253C80.8645 24.268 81.5552 24.5123 82.1204 24.9497C82.6856 25.3871 83.0953 25.9945 83.2891 26.6823C83.5458 27.3646 83.5922 28.1082 83.4224 28.8171C83.2526 29.5261 82.8744 30.1679 82.3364 30.6598C81.5552 31.4744 80.6883 32.2127 79.9547 33.0416C79.6854 33.3816 79.5514 33.8091 79.5783 34.242C79.7022 35.5948 80.0547 36.9381 80.0976 38.2909C80.2024 40.4583 78.459 42.0874 75.7485 42.0065ZM74.9101 36.5142C74.7252 35.0344 74.7573 33.5355 75.0054 32.0651C75.621 30.845 76.4248 29.7294 77.3872 28.7592C76.0088 28.5228 74.6763 28.0711 73.4383 27.4207C72.4578 26.4442 71.6378 25.3188 71.0088 24.0863C70.4026 25.3205 69.598 26.4469 68.6271 27.4207C67.2601 28.1183 65.798 28.611 64.2876 28.8831C65.6084 29.5858 66.615 30.7614 67.1061 32.1746C67.5972 33.5878 67.5365 35.1343 66.9361 36.5046C68.0269 35.5131 69.4485 34.9646 70.9226 34.9663C72.3966 34.9681 73.817 35.5201 74.9054 36.5142H74.9101Z" fill="black"/>
<path d="M40.1271 54.7294C40.1109 55.3389 39.8563 55.9177 39.4181 56.3417C38.9799 56.7656 38.3931 57.0008 37.7834 56.9968C37.1735 56.9708 36.5982 56.7069 36.1806 56.2617C35.7629 55.8165 35.5363 55.2254 35.5494 54.6151C35.5656 54.0056 35.82 53.4269 36.2582 53.003C36.6964 52.579 37.2833 52.3437 37.893 52.3477C38.5029 52.3737 39.0782 52.6376 39.4959 53.0828C39.9135 53.5281 40.1401 54.1192 40.1271 54.7294Z" fill="black"/>
<path d="M18.1985 108.88C18.8071 108.897 19.385 109.151 19.8093 109.588C20.2336 110.025 20.4708 110.61 20.4706 111.219C20.4748 111.53 20.4156 111.838 20.2964 112.125C20.1773 112.412 20.0008 112.671 19.7778 112.888C19.5548 113.104 19.29 113.272 18.9996 113.383C18.7092 113.493 18.3992 113.543 18.0889 113.529C17.7863 113.521 17.4884 113.453 17.2126 113.328C16.9367 113.204 16.6886 113.025 16.4827 112.804C16.2768 112.582 16.1173 112.321 16.0136 112.036C15.9098 111.752 15.864 111.45 15.8787 111.147C15.8959 110.543 16.1476 109.968 16.5804 109.545C17.0132 109.122 17.5933 108.884 18.1985 108.88V108.88Z" fill="black"/>
</svg>
