<svg xmlns="http://www.w3.org/2000/svg" width="593.883" height="361.375" viewBox="0 0 593.883 361.375">
  <g id="forgot-password" transform="translate(-16050.868 447.117)">
    <path id="_Path_" data-name="&lt;Path&gt;" d="M296.942,0c30.175,0,59.3.565,86.627,1.611C505.361,6.274,593.883,20.479,593.883,37.279c0,20.589-132.945,37.279-296.942,37.279S0,57.868,0,37.279,132.945,0,296.942,0Z" transform="translate(16050.867 -160.3)" fill="#d6c7e2"/>
    <g id="Group_819" data-name="Group 819" transform="translate(16064.343 -447.117)">
      <g id="Plant" transform="translate(488.441 153.435)">
        <g id="Group_415" data-name="Group 415">
          <g id="Group_394" data-name="Group 394">
            <g id="Group_393" data-name="Group 393">
              <g id="Group_392" data-name="Group 392">
                <path id="Path_3004" data-name="Path 3004" d="M585.209,331.023c-17.115-11.958-21-34.152-20.321-54.1.113-3.33-.253-6.841,1.331-9.763s5.281-4.918,8.263-3.514c2.473,1.163,3.551,4.04,4.935,6.42a19.482,19.482,0,0,0,7.81,7.459c2.121,1.1,4.745,1.773,6.838.619,2.873-1.585,3.211-5.553,3.191-8.866q-.059-9.261-.116-18.52c-.021-3.311-.031-6.694,1-9.837s3.307-6.064,6.457-6.947,7.047.935,7.713,4.176a30.774,30.774,0,0,1,.095,4.125c.092,1.375.732,2.9,2.038,3.279,1.322.388,2.648-.551,3.638-1.52,3.419-3.345,5.738-7.652,7.906-11.937s4.273-8.671,7.375-12.318,7.392-6.538,12.136-6.807,9.8,2.659,11,7.316-1.522,9.407-4.487,13.187a73.959,73.959,0,0,1-15.393,14.673,6.077,6.077,0,0,0-2.575,2.769c-.72,2.208,1.372,4.4,3.553,5.127,2.468.822,5.148.566,7.73.87s5.38,1.444,6.357,3.885c1.357,3.385-1.475,6.933-4.26,9.258a63.345,63.345,0,0,1-18.744,10.82c-2.437.891-5,1.673-6.966,3.385s-3.151,4.69-1.964,7.022,4.235,3.082,6.788,2.608,4.836-1.859,7.268-2.777c4.552-1.718,10.43-1.4,13.346,2.529,1.916,2.587,2.084,6.187,1.115,9.27a24.152,24.152,0,0,1-5.021,8.185,63.682,63.682,0,0,1-27.193,19.112c-10.559,3.661-20.343,4.652-30.836.815" transform="translate(-564.816 -212.953)" fill="#02cec5"/>
              </g>
            </g>
          </g>
          <g id="Group_398" data-name="Group 398" transform="translate(20.131 2.789)">
            <g id="Group_397" data-name="Group 397">
              <g id="Group_396" data-name="Group 396">
                <g id="Group_395" data-name="Group 395">
                  <path id="Path_3005" data-name="Path 3005" d="M585.254,345.856a145.42,145.42,0,0,1,5.411-27.3A296.641,296.641,0,0,1,602.447,286.6q1.782-4.161,3.518-8.217c1.161-2.694,2.312-5.366,3.6-7.91a148.106,148.106,0,0,1,8.235-14.194c2.838-4.388,5.69-8.448,8.385-12.226s5.292-7.243,7.785-10.3A117.549,117.549,0,0,1,646.8,220.2c1.634-1.476,2.939-2.58,3.834-3.316l1.022-.83a2.486,2.486,0,0,1,.362-.267,2.3,2.3,0,0,1-.321.315l-.984.877c-.868.766-2.146,1.9-3.754,3.4A124.437,124.437,0,0,0,634.3,234.032c-2.464,3.069-5.025,6.545-7.707,10.326s-5.509,7.853-8.328,12.238a149.857,149.857,0,0,0-8.171,14.155c-1.277,2.532-2.415,5.182-3.578,7.883s-2.326,5.441-3.513,8.215a304.168,304.168,0,0,0-11.8,31.873,147.935,147.935,0,0,0-5.52,27.178" transform="translate(-585.254 -215.785)" fill="#fff"/>
                </g>
              </g>
            </g>
          </g>
          <g id="Group_402" data-name="Group 402" transform="translate(39.768 21.019)">
            <g id="Group_401" data-name="Group 401">
              <g id="Group_400" data-name="Group 400">
                <g id="Group_399" data-name="Group 399">
                  <path id="Path_3006" data-name="Path 3006" d="M610.038,270.732a6.743,6.743,0,0,1-.323-1.412c-.174-.915-.382-2.248-.615-3.9-.469-3.3-.959-7.874-1.482-12.921s-1.078-9.606-1.595-12.887c-.254-1.642-.473-2.969-.636-3.884a6.714,6.714,0,0,1-.185-1.438,6.62,6.62,0,0,1,.417,1.389c.235.9.519,2.22.828,3.858.628,3.274,1.254,7.841,1.776,12.9.5,4.982.957,9.489,1.305,12.933.167,1.555.308,2.865.422,3.917A6.577,6.577,0,0,1,610.038,270.732Z" transform="translate(-605.191 -234.292)" fill="#fff"/>
                </g>
              </g>
            </g>
          </g>
          <g id="Group_406" data-name="Group 406" transform="translate(44.616 49.457)">
            <g id="Group_405" data-name="Group 405">
              <g id="Group_404" data-name="Group 404">
                <g id="Group_403" data-name="Group 403">
                  <path id="Path_3007" data-name="Path 3007" d="M652.7,263.207a9.14,9.14,0,0,1-1.7.2c-1.092.1-2.674.229-4.622.455-3.9.422-9.268,1.192-15.152,2.3s-11.167,2.36-14.961,3.368c-1.9.49-3.43.928-4.489,1.224a9.017,9.017,0,0,1-1.662.408,9.212,9.212,0,0,1,1.592-.637c1.038-.366,2.552-.87,4.444-1.416,3.776-1.117,9.062-2.428,14.963-3.553a150.174,150.174,0,0,1,15.223-2.127c1.961-.171,3.552-.238,4.652-.261A9.089,9.089,0,0,1,652.7,263.207Z" transform="translate(-610.112 -263.164)" fill="#fff"/>
                </g>
              </g>
            </g>
          </g>
          <g id="Group_410" data-name="Group 410" transform="translate(4.623 50.391)">
            <g id="Group_409" data-name="Group 409">
              <g id="Group_408" data-name="Group 408">
                <g id="Group_407" data-name="Group 407">
                  <path id="Path_3008" data-name="Path 3008" d="M590.953,318.5a2.178,2.178,0,0,1-.293-.519c-.2-.417-.436-.926-.728-1.54-.627-1.341-1.482-3.3-2.508-5.744-2.055-4.879-4.681-11.706-7.476-19.28s-5.356-14.42-7.306-19.333l-2.326-5.814c-.25-.634-.456-1.157-.624-1.587a2.181,2.181,0,0,1-.179-.57,2.324,2.324,0,0,1,.292.521l.728,1.54c.626,1.341,1.482,3.3,2.509,5.743,2.054,4.879,4.68,11.706,7.477,19.283s5.355,14.417,7.3,19.332c.956,2.388,1.742,4.354,2.327,5.813.25.633.455,1.157.624,1.586A2.213,2.213,0,0,1,590.953,318.5Z" transform="translate(-569.509 -264.113)" fill="#263238"/>
                </g>
              </g>
            </g>
          </g>
          <g id="Group_414" data-name="Group 414" transform="translate(26.067 86.537)">
            <g id="Group_413" data-name="Group 413">
              <g id="Group_412" data-name="Group 412">
                <g id="Group_411" data-name="Group 411">
                  <path id="Path_3009" data-name="Path 3009" d="M647.867,300.815a2.267,2.267,0,0,1-.561.231l-1.643.551-6.06,1.964c-5.117,1.66-12.157,4.032-19.933,6.664s-14.847,4.945-20,6.5c-2.576.778-4.666,1.386-6.119,1.777l-1.676.44a2.243,2.243,0,0,1-.6.112,2.29,2.29,0,0,1,.561-.232l1.644-.55,6.059-1.964c5.116-1.659,12.158-4.032,19.935-6.665s14.844-4.944,20-6.5c2.576-.778,4.667-1.386,6.121-1.777l1.675-.44A2.186,2.186,0,0,1,647.867,300.815Z" transform="translate(-591.28 -300.809)" fill="#fff"/>
                </g>
              </g>
            </g>
          </g>
        </g>
      </g>
      <g id="Device" transform="translate(136.785 65.994)">
        <g id="Group_493" data-name="Group 493" transform="translate(0 0)">
          <g id="Group_445" data-name="Group 445">
            <g id="Group_424" data-name="Group 424">
              <g id="Group_417" data-name="Group 417" transform="translate(15.052)">
                <g id="Group_416" data-name="Group 416">
                  <rect id="Rectangle_299" data-name="Rectangle 299" width="359.947" height="238.029" rx="14.567" fill="#1e0d2b"/>
                </g>
              </g>
              <g id="Group_419" data-name="Group 419" transform="translate(0 220.424)">
                <g id="Group_418" data-name="Group 418">
                  <path id="Rectangle_300" data-name="Rectangle 300" d="M0,0H389.975a0,0,0,0,1,0,0V3.03a17.8,17.8,0,0,1-17.8,17.8H17.8A17.8,17.8,0,0,1,0,3.03V0A0,0,0,0,1,0,0Z" fill="#331648"/>
                </g>
              </g>
              <g id="Group_421" data-name="Group 421" transform="translate(24.714 9.457)">
                <g id="Group_420" data-name="Group 420">
                  <rect id="Rectangle_301" data-name="Rectangle 301" width="339.616" height="201.012" fill="#844299"/>
                </g>
              </g>
              <g id="Group_423" data-name="Group 423" transform="translate(159.542 220.424)">
                <g id="Group_422" data-name="Group 422">
                  <path id="Path_3010" data-name="Path 3010" d="M369.772,347.964l4.839,7.7h68.095l4.494-7.7Z" transform="translate(-369.772 -347.964)" fill="#844299"/>
                </g>
              </g>
            </g>
            <g id="Group_442" data-name="Group 442" transform="translate(31.709 16.262)">
              <g id="Group_441" data-name="Group 441">
                <g id="Group_440" data-name="Group 440">
                  <g id="Group_427" data-name="Group 427">
                    <g id="Group_426" data-name="Group 426">
                      <g id="Group_425" data-name="Group 425">
                        <path id="Rectangle_302" data-name="Rectangle 302" d="M3.272,0H323.051a3.273,3.273,0,0,1,3.273,3.273V190.291a3.273,3.273,0,0,1-3.273,3.273H3.272A3.272,3.272,0,0,1,0,190.291V3.272A3.272,3.272,0,0,1,3.272,0Z" fill="#ebebeb"/>
                      </g>
                    </g>
                  </g>
                  <g id="Group_430" data-name="Group 430" transform="translate(0 14.182)">
                    <g id="Group_429" data-name="Group 429">
                      <g id="Group_428" data-name="Group 428">
                        <rect id="Rectangle_303" data-name="Rectangle 303" width="326.325" height="179.381" fill="#fafafa"/>
                      </g>
                    </g>
                  </g>
                  <g id="Group_433" data-name="Group 433" transform="translate(21.552 4.87)">
                    <g id="Group_432" data-name="Group 432">
                      <g id="Group_431" data-name="Group 431">
                        <path id="Path_3011" data-name="Path 3011" d="M267.082,148.237a2.606,2.606,0,1,1-2.606-2.605A2.606,2.606,0,0,1,267.082,148.237Z" transform="translate(-261.87 -145.632)" fill="#263238"/>
                      </g>
                    </g>
                  </g>
                  <g id="Group_436" data-name="Group 436" transform="translate(5.756 4.87)">
                    <g id="Group_435" data-name="Group 435">
                      <g id="Group_434" data-name="Group 434">
                        <path id="Path_3012" data-name="Path 3012" d="M251.046,148.237a2.606,2.606,0,1,1-2.606-2.605A2.606,2.606,0,0,1,251.046,148.237Z" transform="translate(-245.833 -145.632)" fill="#263238"/>
                      </g>
                    </g>
                  </g>
                  <g id="Group_439" data-name="Group 439" transform="translate(13.338 4.87)">
                    <g id="Group_438" data-name="Group 438">
                      <g id="Group_437" data-name="Group 437">
                        <path id="Path_3013" data-name="Path 3013" d="M258.744,148.237a2.606,2.606,0,1,1-2.606-2.605A2.607,2.607,0,0,1,258.744,148.237Z" transform="translate(-253.531 -145.632)" fill="#263238"/>
                      </g>
                    </g>
                  </g>
                </g>
              </g>
            </g>
            <g id="Group_444" data-name="Group 444" transform="translate(15.052 220.191)">
              <g id="Group_443" data-name="Group 443">
                <path id="Path_3014" data-name="Path 3014" d="M579.933,347.96c0,.129-79.892.233-178.419.233-98.562,0-178.436-.1-178.436-.233s79.874-.233,178.436-.233C500.041,347.727,579.933,347.831,579.933,347.96Z" transform="translate(-223.078 -347.727)" fill="#455a64"/>
              </g>
            </g>
          </g>
          <g id="Group_492" data-name="Group 492" transform="translate(54.324 51.647)">
            <g id="Group_446" data-name="Group 446" transform="translate(0 69.16)">
              <rect id="Rectangle_304" data-name="Rectangle 304" width="74.466" height="4.982" fill="#e0e0e0"/>
            </g>
            <g id="Group_447" data-name="Group 447" transform="translate(96.183)">
              <rect id="Rectangle_305" data-name="Rectangle 305" width="74.466" height="4.982" fill="#e0e0e0"/>
            </g>
            <g id="Group_449" data-name="Group 449" transform="translate(96.183 18.319)">
              <g id="Group_448" data-name="Group 448">
                <path id="Path_3015" data-name="Path 3015" d="M545.819,195.443c0,.129-41.467.233-92.606.233-51.157,0-92.615-.1-92.615-.233s41.458-.232,92.615-.232C504.353,195.211,545.819,195.315,545.819,195.443Z" transform="translate(-360.599 -195.211)" fill="#e0e0e0"/>
              </g>
            </g>
            <g id="Group_451" data-name="Group 451" transform="translate(96.183 29.196)">
              <g id="Group_450" data-name="Group 450">
                <path id="Path_3016" data-name="Path 3016" d="M545.819,206.487c0,.128-41.467.232-92.606.232-51.157,0-92.615-.1-92.615-.232s41.458-.233,92.615-.233C504.353,206.254,545.819,206.358,545.819,206.487Z" transform="translate(-360.599 -206.254)" fill="#e0e0e0"/>
              </g>
            </g>
            <g id="Group_453" data-name="Group 453" transform="translate(96.183 40.073)">
              <g id="Group_452" data-name="Group 452">
                <path id="Path_3017" data-name="Path 3017" d="M545.819,217.53c0,.129-41.467.233-92.606.233-51.157,0-92.615-.1-92.615-.233s41.458-.233,92.615-.233C504.353,217.3,545.819,217.4,545.819,217.53Z" transform="translate(-360.599 -217.297)" fill="#e0e0e0"/>
              </g>
            </g>
            <g id="Group_455" data-name="Group 455" transform="translate(96.183 50.951)">
              <g id="Group_454" data-name="Group 454">
                <path id="Path_3018" data-name="Path 3018" d="M545.819,228.573c0,.129-41.467.233-92.606.233-51.157,0-92.615-.1-92.615-.233s41.458-.232,92.615-.232C504.353,228.341,545.819,228.445,545.819,228.573Z" transform="translate(-360.599 -228.341)" fill="#e0e0e0"/>
              </g>
            </g>
            <g id="Group_457" data-name="Group 457" transform="translate(96.183 61.829)">
              <g id="Group_456" data-name="Group 456">
                <path id="Path_3019" data-name="Path 3019" d="M545.819,239.617c0,.128-41.467.232-92.606.232-51.157,0-92.615-.1-92.615-.232s41.458-.233,92.615-.233C504.353,239.384,545.819,239.488,545.819,239.617Z" transform="translate(-360.599 -239.384)" fill="#e0e0e0"/>
              </g>
            </g>
            <g id="Group_459" data-name="Group 459" transform="translate(96.183 72.706)">
              <g id="Group_458" data-name="Group 458">
                <path id="Path_3020" data-name="Path 3020" d="M432.9,250.66c0,.129-16.186.233-36.148.233s-36.153-.1-36.153-.233,16.183-.233,36.153-.233S432.9,250.531,432.9,250.66Z" transform="translate(-360.599 -250.427)" fill="#e0e0e0"/>
              </g>
            </g>
            <g id="Group_461" data-name="Group 461" transform="translate(158.307 93.817)">
              <g id="Group_460" data-name="Group 460">
                <path id="Path_3021" data-name="Path 3021" d="M545.412,272.093c0,.128-27.255.233-60.868.233s-60.874-.1-60.874-.233,27.249-.233,60.874-.233S545.412,271.964,545.412,272.093Z" transform="translate(-423.671 -271.86)" fill="#e0e0e0"/>
              </g>
            </g>
            <g id="Group_463" data-name="Group 463" transform="translate(158.307 105.364)">
              <g id="Group_462" data-name="Group 462">
                <path id="Path_3022" data-name="Path 3022" d="M545.412,283.815c0,.129-27.255.233-60.868.233s-60.874-.1-60.874-.233,27.249-.232,60.874-.232S545.412,283.686,545.412,283.815Z" transform="translate(-423.671 -283.583)" fill="#e0e0e0"/>
              </g>
            </g>
            <g id="Group_465" data-name="Group 465" transform="translate(158.307 116.909)">
              <g id="Group_464" data-name="Group 464">
                <path id="Path_3023" data-name="Path 3023" d="M545.412,295.538c0,.129-27.255.233-60.868.233s-60.874-.1-60.874-.233,27.249-.233,60.874-.233S545.412,295.409,545.412,295.538Z" transform="translate(-423.671 -295.305)" fill="#e0e0e0"/>
              </g>
            </g>
            <g id="Group_467" data-name="Group 467" transform="translate(158.307 128.456)">
              <g id="Group_466" data-name="Group 466">
                <path id="Path_3024" data-name="Path 3024" d="M545.412,307.261c0,.128-27.255.232-60.868.232s-60.874-.1-60.874-.232,27.249-.233,60.874-.233S545.412,307.132,545.412,307.261Z" transform="translate(-423.671 -307.028)" fill="#e0e0e0"/>
              </g>
            </g>
            <g id="Group_469" data-name="Group 469" transform="translate(2.083 92.712)">
              <g id="Group_468" data-name="Group 468">
                <path id="Path_3025" data-name="Path 3025" d="M337.635,270.971c0,.129-16.246.233-36.284.233s-36.288-.1-36.288-.233,16.243-.233,36.288-.233S337.635,270.842,337.635,270.971Z" transform="translate(-265.064 -270.738)" fill="#e0e0e0"/>
              </g>
            </g>
            <g id="Group_471" data-name="Group 471" transform="translate(2.083 101.78)">
              <g id="Group_470" data-name="Group 470">
                <path id="Path_3026" data-name="Path 3026" d="M337.635,280.177c0,.129-16.246.233-36.284.233s-36.288-.1-36.288-.233,16.243-.232,36.288-.232S337.635,280.049,337.635,280.177Z" transform="translate(-265.064 -279.945)" fill="#e0e0e0"/>
              </g>
            </g>
            <g id="Group_473" data-name="Group 473" transform="translate(2.083 110.848)">
              <g id="Group_472" data-name="Group 472">
                <path id="Path_3027" data-name="Path 3027" d="M337.635,289.384c0,.128-16.246.232-36.284.232s-36.288-.1-36.288-.232,16.243-.233,36.288-.233S337.635,289.255,337.635,289.384Z" transform="translate(-265.064 -289.151)" fill="#e0e0e0"/>
              </g>
            </g>
            <g id="Group_475" data-name="Group 475" transform="translate(2.083 119.916)">
              <g id="Group_474" data-name="Group 474">
                <path id="Path_3028" data-name="Path 3028" d="M337.635,298.59c0,.128-16.246.232-36.284.232s-36.288-.1-36.288-.232,16.243-.233,36.288-.233S337.635,298.461,337.635,298.59Z" transform="translate(-265.064 -298.357)" fill="#e0e0e0"/>
              </g>
            </g>
            <g id="Group_477" data-name="Group 477" transform="translate(2.083 128.983)">
              <g id="Group_476" data-name="Group 476">
                <path id="Path_3029" data-name="Path 3029" d="M337.635,307.8c0,.129-16.246.233-36.284.233s-36.288-.1-36.288-.233,16.243-.233,36.288-.233S337.635,307.667,337.635,307.8Z" transform="translate(-265.064 -307.563)" fill="#e0e0e0"/>
              </g>
            </g>
            <g id="Group_491" data-name="Group 491" transform="translate(96.138 88.541)">
              <g id="Group_480" data-name="Group 480">
                <g id="Group_479" data-name="Group 479">
                  <g id="Group_478" data-name="Group 478">
                    <rect id="Rectangle_306" data-name="Rectangle 306" width="52.834" height="51.116" fill="#f5f5f5"/>
                  </g>
                </g>
              </g>
              <g id="Group_483" data-name="Group 483" transform="translate(4.096 20.437)">
                <g id="Group_482" data-name="Group 482">
                  <g id="Group_481" data-name="Group 481">
                    <path id="Path_3030" data-name="Path 3030" d="M364.712,313.556l14.615-26.3,11.954,16.812,7.264-8.928,10.807,18.419Z" transform="translate(-364.712 -287.252)" fill="#ebebeb"/>
                  </g>
                </g>
              </g>
              <g id="Group_486" data-name="Group 486" transform="translate(28.154 11.519)">
                <g id="Group_485" data-name="Group 485">
                  <g id="Group_484" data-name="Group 484">
                    <path id="Path_3031" data-name="Path 3031" d="M396.741,282a3.8,3.8,0,1,1-3.8-3.8A3.8,3.8,0,0,1,396.741,282Z" transform="translate(-389.137 -278.198)" fill="#ebebeb"/>
                  </g>
                </g>
              </g>
              <g id="Group_490" data-name="Group 490" transform="translate(3.789 3.977)">
                <g id="Group_489" data-name="Group 489">
                  <g id="Group_488" data-name="Group 488">
                    <g id="Group_487" data-name="Group 487">
                      <path id="Path_3032" data-name="Path 3032" d="M409.348,313.448a1.659,1.659,0,0,1-.013-.21c0-.154-.007-.348-.012-.6-.006-.544-.014-1.312-.025-2.3-.014-2.027-.033-4.958-.056-8.681-.027-7.466-.065-18.1-.111-30.863l.217.216-44.636.035c-.061.053.472-.473.246-.244v5.784q0,2.874,0,5.691c0,3.757,0,7.435-.006,11.015-.008,7.159-.017,13.927-.024,20.153l-.22-.219,32.277.111,9.1.057,2.415.026.626.013a1.4,1.4,0,0,1,.22.013,1.117,1.117,0,0,1-.2.012l-.6.013-2.372.026-9.054.057-32.418.111h-.219v-.221c-.008-6.226-.016-12.994-.025-20.153,0-3.58,0-7.258-.006-11.015q0-2.817,0-5.691V270.8c-.224.221.306-.315.257-.259l44.636.035h.217v.216c-.045,12.822-.084,23.5-.11,31-.024,3.7-.043,6.616-.056,8.631q-.016,1.458-.025,2.26c-.006.238-.01.426-.013.572A1.008,1.008,0,0,1,409.348,313.448Z" transform="translate(-364.4 -270.541)" fill="#ebebeb"/>
                    </g>
                  </g>
                </g>
              </g>
            </g>
          </g>
        </g>
      </g>
      <g id="Padlock" transform="translate(270.462 100.638)">
        <g id="Group_506" data-name="Group 506">
          <g id="Group_497" data-name="Group 497">
            <g id="Group_494" data-name="Group 494" transform="translate(17.307)">
              <path id="Path_3033" data-name="Path 3033" d="M457.227,220.429l-7.88-.11.3-21.453a28.692,28.692,0,0,0-57.384.055l-.3,21.508-7.88-.11.3-21.453a36.572,36.572,0,0,1,73.143.055Z" transform="translate(-384.083 -162.35)" fill="#263238"/>
            </g>
            <g id="Group_495" data-name="Group 495" transform="translate(0 47.625)">
              <rect id="Rectangle_307" data-name="Rectangle 307" width="109.191" height="106.681" rx="18.285" fill="#fbb613"/>
            </g>
            <g id="Group_496" data-name="Group 496" transform="translate(43.711 84.455)" opacity="0.3">
              <path id="Path_3034" data-name="Path 3034" d="M432.659,258.978a10.885,10.885,0,1,0-16.615,9.243l-2.787,12.892h17.854s-2.006-8.1-3.269-13.1A10.871,10.871,0,0,0,432.659,258.978Z" transform="translate(-410.889 -248.093)"/>
            </g>
          </g>
          <g id="Group_499" data-name="Group 499" transform="translate(6.163 66.416)" opacity="0.2">
            <g id="Group_498" data-name="Group 498">
              <path id="Path_3035" data-name="Path 3035" d="M373.6,285.323c-.708-.015-1.021-12.461-.7-27.8s1.156-27.762,1.865-27.747,1.021,12.459.7,27.8S374.3,285.339,373.6,285.323Z" transform="translate(-372.769 -229.779)" fill="#fff"/>
            </g>
          </g>
          <g id="Group_501" data-name="Group 501" transform="translate(5.752 128.856)" opacity="0.2">
            <g id="Group_500" data-name="Group 500">
              <path id="Path_3036" data-name="Path 3036" d="M373.67,298.616c-.708.009-1.3-1.2-1.318-2.706s.539-2.73,1.247-2.739,1.3,1.2,1.318,2.706S374.378,298.606,373.67,298.616Z" transform="translate(-372.351 -293.171)" fill="#fff"/>
            </g>
          </g>
          <g id="Group_503" data-name="Group 503" transform="translate(38.45 86.571)" opacity="0.2">
            <g id="Group_502" data-name="Group 502">
              <path id="Path_3037" data-name="Path 3037" d="M408.423,282.891c-.566-.185.765-5.857,3.086-13.406l.288,1.248c-1.047-1.048-2.144-2.145-3.289-3.352a12,12,0,0,1-2.941-7.245,11.137,11.137,0,0,1,1.453-6.151,9.661,9.661,0,0,1,2.769-3.126c.811-.559,1.349-.706,1.446-.571.255.313-1.413,1.631-2.586,4.494a10.536,10.536,0,0,0,1.761,10.878l3.17,3.349.528.556-.241.691C411.271,277.717,408.988,283.076,408.423,282.891Z" transform="translate(-405.549 -250.241)" fill="#fff"/>
            </g>
          </g>
          <g id="Group_505" data-name="Group 505" transform="translate(10.19 53.425)" opacity="0.2">
            <g id="Group_504" data-name="Group 504">
              <path id="Path_3038" data-name="Path 3038" d="M453.065,218.2c0,.355-4.363.642-11.411.821s-16.782.248-27.533.166c-5.377-.041-10.5-.116-15.157-.216-4.663-.054-8.872-.386-12.231-.035a15.777,15.777,0,0,0-7.472,2.525c-1.562,1.071-2.209,1.972-2.382,1.851-.123-.064.245-1.2,1.754-2.628a14.913,14.913,0,0,1,7.851-3.544,39.234,39.234,0,0,1,5.876-.462l6.621-.071c4.659-.03,9.782-.026,15.159.015,10.75.082,20.483.3,27.527.585S453.068,217.848,453.065,218.2Z" transform="translate(-376.857 -216.589)" fill="#fff"/>
            </g>
          </g>
        </g>
      </g>
      <g id="Character" transform="translate(0 0)">
        <g id="Group_818" data-name="Group 818">
          <g id="Group_812" data-name="Group 812" transform="translate(5.534)">
            <g id="Group_540" data-name="Group 540" transform="translate(0 302.199)">
              <g id="Group_507" data-name="Group 507" transform="translate(0.124 0.077)">
                <path id="Path_3039" data-name="Path 3039" d="M88.82,440.544l-.694,2.615s-9.488,15.435-8.364,16.877a6.045,6.045,0,0,0,6.578,2.055c3.3-.826,17.234-14.059,17.234-14.059l.8-2.115Z" transform="translate(-79.669 -440.544)" fill="#444"/>
              </g>
              <g id="Group_508" data-name="Group 508" transform="translate(0 6.439)" opacity="0.3">
                <path id="Path_3040" data-name="Path 3040" d="M80.705,456.638s4.111-1.818,6.478,3.488c0,0,1.781-.661,6.706-4.786s9.681-8.157,9.681-8.157.509-.4.357,0-.356,1.117-.356,1.117l-9.511,8.386s-5.694,4.881-7.123,5.273-2.869.871-4.687.058a5.056,5.056,0,0,1-2.708-2.345C79.543,459.427,80.705,456.638,80.705,456.638Z" transform="translate(-79.543 -447.003)"/>
              </g>
              <g id="Group_510" data-name="Group 510" transform="translate(1.349 15.528)">
                <g id="Group_509" data-name="Group 509">
                  <path id="Path_3041" data-name="Path 3041" d="M87.755,462c-.05.011-.153-.524-.5-1.313a7.23,7.23,0,0,0-4.958-4.149c-.838-.206-1.383-.212-1.381-.264a3.443,3.443,0,0,1,1.426.051,6.768,6.768,0,0,1,5.114,4.279A3.41,3.41,0,0,1,87.755,462Z" transform="translate(-80.913 -456.231)" fill="#263238"/>
                </g>
              </g>
              <g id="Group_512" data-name="Group 512" transform="translate(0.212 5.946)">
                <g id="Group_511" data-name="Group 511">
                  <path id="Path_3042" data-name="Path 3042" d="M104.366,446.5a1.194,1.194,0,0,1-.218.224l-.663.594-2.475,2.141-8.243,6.976a34.939,34.939,0,0,1-4.746,3.608,7.669,7.669,0,0,1-4.718,1.12,4.766,4.766,0,0,1-2.913-1.476,2.81,2.81,0,0,1-.632-1.026,6.273,6.273,0,0,0,.72.944,4.757,4.757,0,0,0,2.851,1.343A7.54,7.54,0,0,0,87.88,459.8a36.5,36.5,0,0,0,4.69-3.6l8.3-6.9,2.538-2.066.7-.55A1.229,1.229,0,0,1,104.366,446.5Z" transform="translate(-79.758 -446.502)" fill="#263238"/>
                </g>
              </g>
              <g id="Group_514" data-name="Group 514" transform="translate(6.331 10.168)">
                <g id="Group_513" data-name="Group 513">
                  <path id="Path_3043" data-name="Path 3043" d="M89.432,453.059a10.7,10.7,0,0,1-1.755-1.091,10.728,10.728,0,0,1-1.705-1.169,8.328,8.328,0,0,1,3.46,2.26Z" transform="translate(-85.971 -450.789)" fill="#263238"/>
                </g>
              </g>
              <g id="Group_516" data-name="Group 516" transform="translate(7.56 8.326)">
                <g id="Group_515" data-name="Group 515">
                  <path id="Path_3044" data-name="Path 3044" d="M91.488,450.81a13.245,13.245,0,0,1-2.155-.891,13.446,13.446,0,0,1-2.114-.986,10.7,10.7,0,0,1,4.269,1.877Z" transform="translate(-87.218 -448.919)" fill="#263238"/>
                </g>
              </g>
              <g id="Group_518" data-name="Group 518" transform="translate(9.206 6.07)">
                <g id="Group_517" data-name="Group 517">
                  <path id="Path_3045" data-name="Path 3045" d="M93.4,448.874c-.062.069-.92-.684-2.167-1.29s-2.36-.841-2.343-.932a6.484,6.484,0,0,1,4.51,2.222Z" transform="translate(-88.89 -446.628)" fill="#263238"/>
                </g>
              </g>
              <g id="Group_520" data-name="Group 520" transform="translate(10.816 4.233)">
                <g id="Group_519" data-name="Group 519">
                  <path id="Path_3046" data-name="Path 3046" d="M94.527,446.578c-.056.072-.855-.509-1.956-1s-2.063-.7-2.047-.793a5.947,5.947,0,0,1,4,1.789Z" transform="translate(-90.524 -444.763)" fill="#263238"/>
                </g>
              </g>
              <g id="Group_522" data-name="Group 522" transform="translate(11.268)">
                <g id="Group_521" data-name="Group 521">
                  <path id="Path_3047" data-name="Path 3047" d="M94.052,444.371a3.874,3.874,0,0,1-1.173-.784,8.652,8.652,0,0,1-1.073-1.1,8.834,8.834,0,0,1-.539-.734,1.975,1.975,0,0,1-.244-.45.605.605,0,0,1,.1-.61.982.982,0,0,1,1.076-.123,2.259,2.259,0,0,1,.783.54A2.935,2.935,0,0,1,93.7,442.5a4.175,4.175,0,0,1,.1,1.037c-.009.245-.033.378-.053.378-.057,0-.032-.546-.254-1.36a2.9,2.9,0,0,0-.712-1.248,2.069,2.069,0,0,0-.691-.458.719.719,0,0,0-.736.048c-.153.153-.006.439.167.69s.336.5.507.722a10.58,10.58,0,0,0,1,1.117C93.641,444.022,94.08,444.331,94.052,444.371Z" transform="translate(-90.983 -440.466)" fill="#263238"/>
                </g>
              </g>
              <g id="Group_524" data-name="Group 524" transform="translate(13.892 0.999)">
                <g id="Group_523" data-name="Group 523">
                  <path id="Path_3048" data-name="Path 3048" d="M93.886,444.117c-.016-.006.007-.145.105-.376a3.677,3.677,0,0,1,.563-.9,4.121,4.121,0,0,1,1.243-.99,3.971,3.971,0,0,1,.892-.333,1.242,1.242,0,0,1,.55,0,.6.6,0,0,1,.449.444,1.256,1.256,0,0,1-.408,1.007,3.625,3.625,0,0,1-.716.626,3.734,3.734,0,0,1-1.478.587,3.224,3.224,0,0,1-1.067.006c-.249-.041-.377-.1-.373-.115a7.54,7.54,0,0,0,1.4-.1,3.8,3.8,0,0,0,1.36-.607,3.587,3.587,0,0,0,.648-.589,1.03,1.03,0,0,0,.337-.742c-.041-.229-.358-.276-.639-.214a3.862,3.862,0,0,0-.825.292,4.248,4.248,0,0,0-1.209.881A10.356,10.356,0,0,0,93.886,444.117Z" transform="translate(-93.647 -441.48)" fill="#263238"/>
                </g>
              </g>
              <g id="Group_526" data-name="Group 526" transform="translate(17.471 4.477)">
                <g id="Group_525" data-name="Group 525">
                  <path id="Path_3049" data-name="Path 3049" d="M101.932,445.243a2.319,2.319,0,0,0-1.338.071,4.939,4.939,0,0,0-2.39,2.177,5.3,5.3,0,0,0-.633,3.189c.1.848.325,1.345.275,1.364a2.942,2.942,0,0,1-.491-1.334,5.109,5.109,0,0,1,.58-3.371,4.791,4.791,0,0,1,2.59-2.233A1.45,1.45,0,0,1,101.932,445.243Z" transform="translate(-97.28 -445.011)" fill="#263238"/>
                </g>
              </g>
              <g id="Group_528" data-name="Group 528" transform="translate(13.087 10.926)">
                <g id="Group_527" data-name="Group 527">
                  <path id="Path_3050" data-name="Path 3050" d="M96.243,451.563a16.369,16.369,0,0,1-3.41,2.9,16.369,16.369,0,0,1,3.41-2.9Z" transform="translate(-92.83 -451.558)" fill="#263238"/>
                </g>
              </g>
              <g id="Group_539" data-name="Group 539" transform="translate(18.302 4.927)">
                <g id="Group_530" data-name="Group 530" transform="translate(0 5)">
                  <g id="Group_529" data-name="Group 529">
                    <path id="Path_3051" data-name="Path 3051" d="M98.206,450.544c.085-.006.2.2.252.449s.032.484-.048.513-.194-.172-.253-.449S98.121,450.551,98.206,450.544Z" transform="translate(-98.124 -450.544)" fill="#263238"/>
                  </g>
                </g>
                <g id="Group_532" data-name="Group 532" transform="translate(0.02 3.054)">
                  <g id="Group_531" data-name="Group 531">
                    <path id="Path_3052" data-name="Path 3052" d="M98.446,448.572c.08.03.1.26.037.514s-.178.453-.263.444-.1-.239-.036-.515S98.367,448.541,98.446,448.572Z" transform="translate(-98.145 -448.569)" fill="#263238"/>
                  </g>
                </g>
                <g id="Group_534" data-name="Group 534" transform="translate(0.72 1.386)">
                  <g id="Group_533" data-name="Group 533">
                    <path id="Path_3053" data-name="Path 3053" d="M99.5,446.891c.066.069-.056.251-.2.469s-.342.343-.415.3,0-.264.174-.492S99.448,446.836,99.5,446.891Z" transform="translate(-98.855 -446.876)" fill="#263238"/>
                  </g>
                </g>
                <g id="Group_536" data-name="Group 536" transform="translate(2.132 0.334)">
                  <g id="Group_535" data-name="Group 535">
                    <path id="Path_3054" data-name="Path 3054" d="M101.186,445.851c.027.081-.144.238-.379.35s-.466.142-.511.071.124-.228.379-.35S101.16,445.771,101.186,445.851Z" transform="translate(-100.288 -445.807)" fill="#263238"/>
                  </g>
                </g>
                <g id="Group_538" data-name="Group 538" transform="translate(3.988)">
                  <g id="Group_537" data-name="Group 537">
                    <path id="Path_3055" data-name="Path 3055" d="M103.158,445.619c-.011.084-.231.155-.492.157s-.481-.066-.492-.15.208-.156.491-.158S103.169,445.534,103.158,445.619Z" transform="translate(-102.174 -445.468)" fill="#263238"/>
                  </g>
                </g>
              </g>
            </g>
            <g id="Group_561" data-name="Group 561" transform="translate(102.451 51.069)">
              <g id="Group_560" data-name="Group 560">
                <g id="Group_541" data-name="Group 541" transform="translate(0 6.753)">
                  <path id="Path_3056" data-name="Path 3056" d="M221.226,192.362c-.6.738-1.479,8.56-1.479,8.56s-14.428,24.587-16.439,24.964S192.55,208.8,192.55,208.8l-8.994,8.276s4.689,22,19.347,25.778c6.92,1.782,18.985-20.16,27.048-38.385.129-.292,4.3-10.218,4.3-10.218Z" transform="translate(-183.556 -192.362)" fill="#a56959"/>
                </g>
                <g id="Group_555" data-name="Group 555" transform="translate(36.526)">
                  <g id="Group_552" data-name="Group 552" transform="translate(1.381)">
                    <g id="Group_542" data-name="Group 542" transform="translate(7.155 7.298)">
                      <path id="Path_3057" data-name="Path 3057" d="M234.781,195.107c.015.019,0,.107-.049.249-.376,1.177-2.609,6.05-3.3,6-.775-.061-2.282-1.183-2.113-1.88s2.994-6.046,2.994-6.046.5-.818,2.056-.384C235.33,193.31,234.781,195.107,234.781,195.107Z" transform="translate(-229.306 -192.915)" fill="#a56959"/>
                    </g>
                    <g id="Group_543" data-name="Group 543" transform="translate(4.989 4.237)">
                      <path id="Path_3058" data-name="Path 3058" d="M232.583,192c.015.019,0,.107-.049.249-.376,1.176-2.609,6.05-3.3,6-.774-.06-2.281-1.182-2.113-1.879s3-6.046,3-6.046.5-.818,2.056-.384C233.132,190.2,232.583,192,232.583,192Z" transform="translate(-227.107 -189.808)" fill="#a56959"/>
                    </g>
                    <g id="Group_544" data-name="Group 544" transform="translate(2.499 2.089)">
                      <path id="Path_3059" data-name="Path 3059" d="M230.053,189.819c.015.019,0,.106-.049.249-.376,1.176-2.609,6.05-3.3,6-.774-.061-2.281-1.183-2.112-1.879s2.994-6.046,2.994-6.046.5-.818,2.056-.384C230.6,188.021,230.053,189.819,230.053,189.819Z" transform="translate(-224.579 -187.627)" fill="#a56959"/>
                    </g>
                    <g id="Group_545" data-name="Group 545">
                      <path id="Path_3060" data-name="Path 3060" d="M227.517,187.7c.015.019,0,.106-.049.249-.376,1.176-2.609,6.05-3.3,6-.775-.06-2.282-1.182-2.113-1.879s2.994-6.046,2.994-6.046.5-.818,2.056-.384C228.066,185.9,227.517,187.7,227.517,187.7Z" transform="translate(-222.042 -185.506)" fill="#a56959"/>
                    </g>
                    <g id="Group_547" data-name="Group 547" transform="translate(7.766 7.727)">
                      <g id="Group_546" data-name="Group 546">
                        <path id="Path_3061" data-name="Path 3061" d="M229.938,198.035a10.614,10.614,0,0,0,1.28-2.287,10,10,0,0,0,.965-2.4,10.49,10.49,0,0,0-1.281,2.286A9.948,9.948,0,0,0,229.938,198.035Z" transform="translate(-229.927 -193.351)" fill="#7c4435"/>
                      </g>
                    </g>
                    <g id="Group_549" data-name="Group 549" transform="translate(4.871 4.457)">
                      <g id="Group_548" data-name="Group 548">
                        <path id="Path_3062" data-name="Path 3062" d="M226.994,196.726a41.044,41.044,0,0,0,3.237-6.694,41.15,41.15,0,0,0-3.237,6.694Z" transform="translate(-226.987 -190.031)" fill="#7c4435"/>
                      </g>
                    </g>
                    <g id="Group_551" data-name="Group 551" transform="translate(2.039 2.919)" opacity="0.78">
                      <g id="Group_550" data-name="Group 550">
                        <path id="Path_3063" data-name="Path 3063" d="M224.119,195.165a40.941,40.941,0,0,0,3.238-6.694,41.047,41.047,0,0,0-3.238,6.694Z" transform="translate(-224.112 -188.47)" fill="#7c4435"/>
                      </g>
                    </g>
                  </g>
                  <g id="Group_554" data-name="Group 554" transform="translate(0 5.333)">
                    <g id="Group_553" data-name="Group 553">
                      <path id="Path_3064" data-name="Path 3064" d="M221.81,202.044l-.984-4.322a7.511,7.511,0,0,1,.885-5.533l.761-1.269,9.428,4.764s-2.353,3.067-4.724,1.26l1.731,3.727Z" transform="translate(-220.639 -190.921)" fill="#a56959"/>
                    </g>
                  </g>
                </g>
                <g id="Group_557" data-name="Group 557" transform="translate(38.263 5.487)">
                  <g id="Group_556" data-name="Group 556">
                    <path id="Path_3065" data-name="Path 3065" d="M228.088,201.006c-.058-.007.042-.5-.091-1.34a4.8,4.8,0,0,0-1.7-2.956l-.9-.725,1.1.357,2.445.792-.053-.012a2.863,2.863,0,0,0,2.829-1.174,1.7,1.7,0,0,0,.111-.219l.135.32c-2.722-1.234-5.166-2.388-6.879-3.322a15.31,15.31,0,0,1-2.69-1.645,26.62,26.62,0,0,1,2.852,1.326c1.747.849,4.2,1.943,6.929,3.175l.221.1-.086.221a2.11,2.11,0,0,1-.155.309,2.887,2.887,0,0,1-1.525,1.217,4.069,4.069,0,0,1-1.792.176l-.029,0-.025-.008-2.427-.847.2-.368a4.827,4.827,0,0,1,1.67,3.256A2.586,2.586,0,0,1,228.088,201.006Z" transform="translate(-222.402 -191.077)" fill="#7c4435"/>
                  </g>
                </g>
                <g id="Group_559" data-name="Group 559" transform="translate(46.1 8.85)">
                  <g id="Group_558" data-name="Group 558">
                    <path id="Path_3066" data-name="Path 3066" d="M230.69,196.887c.1.011-.084.527.036,1.225a.9.9,0,0,0,.715.752,1.354,1.354,0,0,0,1.148-.724c.627-.995,1.262-1.9,1.643-2.561s.592-1.113.665-1.087-.021.514-.341,1.251a22.242,22.242,0,0,1-1.547,2.692,1.767,1.767,0,0,1-1.628.9,1.268,1.268,0,0,1-1.013-1.16,2.152,2.152,0,0,1,.14-.976C230.59,196.986,230.656,196.879,230.69,196.887Z" transform="translate(-230.359 -194.491)" fill="#7c4435"/>
                  </g>
                </g>
              </g>
            </g>
            <g id="Group_563" data-name="Group 563" transform="translate(38.775 56.517)">
              <g id="Group_562" data-name="Group 562">
                <path id="Path_3067" data-name="Path 3067" d="M188.1,259.8s-8.035-19.772-8-20.142l2.079-7.355.843-4.258,2.715,3.156,13.267-13.865c.245.334-6-8.743-12.339-17.626-4.416-6.193-9.193-7.552-11.984-7.749a19.166,19.166,0,0,0-3.556-.727l-22.832-.194a21.611,21.611,0,0,0-13.626,5c-1.053.865-9.8,12.494-15.766,24l18.363,13.256,3.027-5.325.014.106c.254,1.805,1.341,7.069,1.7,8.858,1.113,5.549,1.465,12.227-1.237,16.808a139.651,139.651,0,0,0-5.262,15.708h56.334S190.03,264.559,188.1,259.8Z" transform="translate(-118.909 -191.037)" fill="#02cec5"/>
              </g>
            </g>
            <g id="Group_564" data-name="Group 564" transform="translate(29.384 86.487)">
              <path id="Path_3068" data-name="Path 3068" d="M142.624,252l-1.934-1.555-.017-.177-.079.1-12.751-10.247,5.469-9.013-13.2-9.641c.061.64-12.249,18.878-10.584,22.459,2.355,5.067,18.343,15.192,24.886,19.182a41.634,41.634,0,0,0-5.285,1.04c-1.667.549,3.768,1.988,5.082,2.255.517.1,1.569-.713,2.692-1.8l.3.178.353-.832a37.749,37.749,0,0,0,3.354-3.916c.273-.424.26-2.349.16-4.379Z" transform="translate(-109.375 -221.464)" fill="#a56959"/>
            </g>
            <g id="Group_632" data-name="Group 632" transform="translate(114.175 305.768)">
              <g id="Group_631" data-name="Group 631">
                <g id="Group_571" data-name="Group 571" transform="translate(0.114)">
                  <g id="Group_567" data-name="Group 567">
                    <g id="Group_566" data-name="Group 566">
                      <g id="Group_565" data-name="Group 565">
                        <path id="Path_3069" data-name="Path 3069" d="M214.531,445.954l-.071-1.865-18.885.546.163,6.148,1.168.038c5.2.128,26.43.312,29.867-.757C230.609,448.869,214.531,445.954,214.531,445.954Z" transform="translate(-195.575 -444.089)" fill="#444"/>
                      </g>
                    </g>
                  </g>
                  <g id="Group_570" data-name="Group 570" transform="translate(0.027 1.526)" opacity="0.3">
                    <g id="Group_569" data-name="Group 569">
                      <g id="Group_568" data-name="Group 568">
                        <path id="Path_3070" data-name="Path 3070" d="M202.551,450.486a6.035,6.035,0,0,0-2.515-3.662,6.694,6.694,0,0,0-4.434-1.153l.149,4.885Z" transform="translate(-195.602 -445.638)"/>
                      </g>
                    </g>
                  </g>
                </g>
                <g id="Group_574" data-name="Group 574" transform="translate(0.278 3.548)">
                  <g id="Group_573" data-name="Group 573">
                    <g id="Group_572" data-name="Group 572" opacity="0.3">
                      <path id="Path_3071" data-name="Path 3071" d="M222.4,447.691s5.645,1.351,4.973,2.227-22.137,1.44-31.63.919l.018-.391,25.045-.46S221.3,447.763,222.4,447.691Z" transform="translate(-195.741 -447.691)"/>
                    </g>
                  </g>
                </g>
                <g id="Group_578" data-name="Group 578" transform="translate(0 5.477)">
                  <g id="Group_577" data-name="Group 577">
                    <g id="Group_576" data-name="Group 576">
                      <g id="Group_575" data-name="Group 575">
                        <path id="Path_3072" data-name="Path 3072" d="M195.459,450.472a1.986,1.986,0,0,0,.324.024l.93.028,3.422.047c2.889.021,6.881,0,11.288-.112s8.4-.3,11.279-.465l3.414-.223.926-.075a1.93,1.93,0,0,0,.322-.04,1.78,1.78,0,0,0-.325,0l-.929.035-3.417.155c-2.884.13-6.87.29-11.276.4s-8.394.157-11.282.174l-3.421.02-.93.013A1.778,1.778,0,0,0,195.459,450.472Z" transform="translate(-195.459 -449.65)" fill="#263238"/>
                      </g>
                    </g>
                  </g>
                </g>
                <g id="Group_582" data-name="Group 582" transform="translate(25.304 3.329)">
                  <g id="Group_581" data-name="Group 581">
                    <g id="Group_580" data-name="Group 580">
                      <g id="Group_579" data-name="Group 579">
                        <path id="Path_3073" data-name="Path 3073" d="M221.188,450.255a6.849,6.849,0,0,1,.592-1.534,7.31,7.31,0,0,1,1.129-1.247,2.49,2.49,0,0,0-1.326,1.142A2.214,2.214,0,0,0,221.188,450.255Z" transform="translate(-221.149 -447.469)" fill="#263238"/>
                      </g>
                    </g>
                  </g>
                </g>
                <g id="Group_586" data-name="Group 586" transform="translate(19.706 2.161)">
                  <g id="Group_585" data-name="Group 585">
                    <g id="Group_584" data-name="Group 584">
                      <g id="Group_583" data-name="Group 583">
                        <path id="Path_3074" data-name="Path 3074" d="M215.476,447.765c.054.03.31-.277.573-.687s.43-.764.376-.794-.31.277-.572.686S215.422,447.736,215.476,447.765Z" transform="translate(-215.466 -446.283)" fill="#263238"/>
                      </g>
                    </g>
                  </g>
                </g>
                <g id="Group_590" data-name="Group 590" transform="translate(18.166 1.919)">
                  <g id="Group_589" data-name="Group 589">
                    <g id="Group_588" data-name="Group 588">
                      <g id="Group_587" data-name="Group 587">
                        <path id="Path_3075" data-name="Path 3075" d="M213.908,447.053c.043.042.334-.15.65-.428s.536-.54.492-.582-.334.15-.65.428S213.865,447.011,213.908,447.053Z" transform="translate(-213.903 -446.037)" fill="#263238"/>
                      </g>
                    </g>
                  </g>
                </g>
                <g id="Group_594" data-name="Group 594" transform="translate(17.159 1.188)">
                  <g id="Group_593" data-name="Group 593">
                    <g id="Group_592" data-name="Group 592">
                      <g id="Group_591" data-name="Group 591">
                        <path id="Path_3076" data-name="Path 3076" d="M212.88,445.418a2.388,2.388,0,0,0,.984.091,2.359,2.359,0,0,0,.981-.122,2.4,2.4,0,0,0-.985-.091A2.351,2.351,0,0,0,212.88,445.418Z" transform="translate(-212.88 -445.295)" fill="#263238"/>
                      </g>
                    </g>
                  </g>
                </g>
                <g id="Group_598" data-name="Group 598" transform="translate(16.792 0.136)">
                  <g id="Group_597" data-name="Group 597">
                    <g id="Group_596" data-name="Group 596">
                      <g id="Group_595" data-name="Group 595">
                        <path id="Path_3077" data-name="Path 3077" d="M212.508,444.247a2.948,2.948,0,0,0,2.23.1,6.544,6.544,0,0,0-1.115-.041A6.611,6.611,0,0,0,212.508,444.247Z" transform="translate(-212.507 -444.227)" fill="#263238"/>
                      </g>
                    </g>
                  </g>
                </g>
                <g id="Group_602" data-name="Group 602" transform="translate(20.308 0.467)">
                  <g id="Group_601" data-name="Group 601">
                    <g id="Group_600" data-name="Group 600">
                      <g id="Group_599" data-name="Group 599">
                        <path id="Path_3078" data-name="Path 3078" d="M216.077,446.2a3.761,3.761,0,0,0,1.208-.038,7.681,7.681,0,0,0,1.279-.3,3.736,3.736,0,0,0,.728-.3.614.614,0,0,0,.288-.358.426.426,0,0,0-.2-.443,2.315,2.315,0,0,0-2.721.674,1.94,1.94,0,0,0-.371.76c-.043.193-.035.3-.023.3a3.094,3.094,0,0,1,.521-.973,2.184,2.184,0,0,1,1.014-.65,2,2,0,0,1,1.443.053c.2.127.127.339-.083.462a3.7,3.7,0,0,1-.671.288,8.766,8.766,0,0,1-1.235.334C216.536,446.151,216.075,446.164,216.077,446.2Z" transform="translate(-216.077 -444.563)" fill="#263238"/>
                      </g>
                    </g>
                  </g>
                </g>
                <g id="Group_606" data-name="Group 606" transform="translate(18.993 0.006)">
                  <g id="Group_605" data-name="Group 605">
                    <g id="Group_604" data-name="Group 604">
                      <g id="Group_603" data-name="Group 603">
                        <path id="Path_3079" data-name="Path 3079" d="M216.371,446.238a1.043,1.043,0,0,0,.116-.783,1.776,1.776,0,0,0-.356-.813,1.231,1.231,0,0,0-1.022-.546.446.446,0,0,0-.357.529,1.178,1.178,0,0,0,.22.5,3.427,3.427,0,0,0,.592.665,1.765,1.765,0,0,0,.705.436c.02-.028-.247-.2-.591-.542a3.918,3.918,0,0,1-.526-.661c-.173-.232-.3-.656,0-.715a1.093,1.093,0,0,1,.811.456,1.789,1.789,0,0,1,.364.721A3.761,3.761,0,0,1,216.371,446.238Z" transform="translate(-214.742 -444.095)" fill="#263238"/>
                      </g>
                    </g>
                  </g>
                </g>
                <g id="Group_610" data-name="Group 610" transform="translate(0.238 1.361)">
                  <g id="Group_609" data-name="Group 609">
                    <g id="Group_608" data-name="Group 608">
                      <g id="Group_607" data-name="Group 607">
                        <path id="Path_3080" data-name="Path 3080" d="M195.7,445.617c.006.039.537-.062,1.39.009a6.359,6.359,0,0,1,3.066,1.082,5.691,5.691,0,0,1,1.969,2.438c.31.742.353,1.245.395,1.239a.947.947,0,0,0-.01-.353,4.375,4.375,0,0,0-.233-.938,5.428,5.428,0,0,0-1.984-2.556,6.1,6.1,0,0,0-3.192-1.062,5.305,5.305,0,0,0-1.033.052A1.157,1.157,0,0,0,195.7,445.617Z" transform="translate(-195.701 -445.471)" fill="#263238"/>
                      </g>
                    </g>
                  </g>
                </g>
                <g id="Group_614" data-name="Group 614" transform="translate(9.405 4.492)">
                  <g id="Group_613" data-name="Group 613">
                    <g id="Group_612" data-name="Group 612">
                      <g id="Group_611" data-name="Group 611">
                        <path id="Path_3081" data-name="Path 3081" d="M205.007,448.764a16.6,16.6,0,0,0,5.5-.1c-.008-.061-1.233.041-2.747.065S205.012,448.7,205.007,448.764Z" transform="translate(-205.007 -448.65)" fill="#263238"/>
                      </g>
                    </g>
                  </g>
                </g>
                <g id="Group_618" data-name="Group 618" transform="translate(5.712 4.692)">
                  <g id="Group_617" data-name="Group 617">
                    <g id="Group_616" data-name="Group 616">
                      <g id="Group_615" data-name="Group 615">
                        <path id="Path_3082" data-name="Path 3082" d="M201.266,448.86c-.045.043.107.238.24.5s.209.489.274.484.089-.279-.069-.576S201.3,448.817,201.266,448.86Z" transform="translate(-201.258 -448.853)" fill="#263238"/>
                      </g>
                    </g>
                  </g>
                </g>
                <g id="Group_622" data-name="Group 622" transform="translate(4.273 3.12)">
                  <g id="Group_621" data-name="Group 621">
                    <g id="Group_620" data-name="Group 620">
                      <g id="Group_619" data-name="Group 619">
                        <path id="Path_3083" data-name="Path 3083" d="M199.806,447.265c-.043.042.084.222.284.4s.4.289.441.246-.084-.222-.284-.4S199.849,447.224,199.806,447.265Z" transform="translate(-199.797 -447.256)" fill="#263238"/>
                      </g>
                    </g>
                  </g>
                </g>
                <g id="Group_626" data-name="Group 626" transform="translate(2.271 2.338)">
                  <g id="Group_625" data-name="Group 625">
                    <g id="Group_624" data-name="Group 624">
                      <g id="Group_623" data-name="Group 623">
                        <path id="Path_3084" data-name="Path 3084" d="M197.766,446.571c.015.059.265.05.544.134s.482.215.53.173-.116-.278-.463-.376S197.745,446.518,197.766,446.571Z" transform="translate(-197.765 -446.463)" fill="#263238"/>
                      </g>
                    </g>
                  </g>
                </g>
                <g id="Group_630" data-name="Group 630" transform="translate(0.845 2.095)">
                  <g id="Group_629" data-name="Group 629">
                    <g id="Group_628" data-name="Group 628">
                      <g id="Group_627" data-name="Group 627">
                        <path id="Path_3085" data-name="Path 3085" d="M196.319,446.258c-.021.055.09.143.247.194s.3.05.324,0-.09-.142-.247-.194S196.341,446.2,196.319,446.258Z" transform="translate(-196.317 -446.216)" fill="#263238"/>
                      </g>
                    </g>
                  </g>
                </g>
              </g>
            </g>
            <g id="Group_688" data-name="Group 688" transform="translate(46.883)">
              <g id="Group_633" data-name="Group 633" transform="translate(0.501 8.498)">
                <path id="Path_3086" data-name="Path 3086" d="M158.188,143.916a6.88,6.88,0,0,0-8.032-.622c-1.211.775-2.168,1.937-3.474,2.537-2.173,1-4.733.22-7.094.6a7.492,7.492,0,0,0-6.079,7.522c.1,1.893.91,3.93-.013,5.586-.813,1.456-2.63,1.963-3.923,3.014a5.607,5.607,0,0,0-.779,7.618,27.9,27.9,0,0,1,2.217,2.371c.929,1.444.8,3.293,1.03,4.994s1.22,3.622,2.934,3.733c1.381.091,2.62-1.068,4-.955,1.934.159,2.725,2.476,3.844,4.063a6.888,6.888,0,0,0,6.417,2.794c1.759-.239,3.5-1.169,5.221-.733,2.163.55,3.462,3.085,5.672,3.4,1.645.236,3.167-.856,4.387-1.984s2.461-2.413,4.1-2.707c1.967-.353,3.862.836,5.843,1.109a6.605,6.605,0,0,0,6.512-3.267c1.088-1.974,1.085-4.394,2.1-6.405a35.9,35.9,0,0,1,2.626-3.68,4.948,4.948,0,0,0,.947-4.258c-.358-1.023-1.224-1.8-1.645-2.8-.63-1.5-.167-3.194,0-4.809s-.165-3.572-1.645-4.239a15.12,15.12,0,0,1-1.9-.631c-1.15-.716-1.09-2.36-1.2-3.711a6.179,6.179,0,0,0-2.794-4.966c-1.723-.972-4.27-.5-5.144,1.276" transform="translate(-127.649 -142.286)" fill="#263238"/>
              </g>
              <g id="Group_634" data-name="Group 634" transform="translate(18.477 9.197)">
                <path id="Path_3087" data-name="Path 3087" d="M147.441,162.125a12.834,12.834,0,0,1,6.91-18.2,20.288,20.288,0,0,1,7.728-.9,16.146,16.146,0,0,1,6.507,1.335,7.042,7.042,0,0,1,4.029,5.015" transform="translate(-145.9 -142.996)" fill="#fbb613"/>
              </g>
              <g id="Group_664" data-name="Group 664" transform="translate(19.031 10.368)">
                <g id="Group_655" data-name="Group 655" transform="translate(4.507 3.936)">
                  <g id="Group_654" data-name="Group 654">
                    <g id="Group_636" data-name="Group 636">
                      <g id="Group_635" data-name="Group 635">
                        <path id="Path_3088" data-name="Path 3088" d="M159.809,202.038h0a9.049,9.049,0,0,0,9.734-8.676c.189-4.925.355-9.9.355-9.9s7.463-.7,8-8.086.294-24.439.294-24.439h0a25.739,25.739,0,0,0-26.012,1.672l-1.147.777.419,39.73A9.047,9.047,0,0,0,159.809,202.038Z" transform="translate(-151.037 -148.18)" fill="#a56959"/>
                      </g>
                    </g>
                    <g id="Group_642" data-name="Group 642" transform="translate(22.787 13.335)">
                      <g id="Group_638" data-name="Group 638" transform="translate(0.552 0.59)">
                        <g id="Group_637" data-name="Group 637">
                          <path id="Path_3089" data-name="Path 3089" d="M175.038,164.144a1.075,1.075,0,1,1,1.521.019A1.075,1.075,0,0,1,175.038,164.144Z" transform="translate(-174.732 -162.318)" fill="#263238"/>
                        </g>
                      </g>
                      <g id="Group_641" data-name="Group 641">
                        <g id="Group_640" data-name="Group 640">
                          <g id="Group_639" data-name="Group 639">
                            <path id="Path_3090" data-name="Path 3090" d="M177.91,162.887c-.124.121-.816-.482-1.833-.549s-1.789.415-1.894.277c-.051-.061.078-.286.416-.511a2.517,2.517,0,0,1,2.975.218C177.874,162.594,177.969,162.834,177.91,162.887Z" transform="translate(-174.172 -161.718)" fill="#263238"/>
                          </g>
                        </g>
                      </g>
                    </g>
                    <g id="Group_648" data-name="Group 648" transform="translate(11.681 13.57)">
                      <g id="Group_644" data-name="Group 644" transform="translate(0.619 0.594)">
                        <g id="Group_643" data-name="Group 643">
                          <path id="Path_3091" data-name="Path 3091" d="M165.218,162.756a1.075,1.075,0,1,1-1.5.262A1.076,1.076,0,0,1,165.218,162.756Z" transform="translate(-163.524 -162.56)" fill="#263238"/>
                        </g>
                      </g>
                      <g id="Group_647" data-name="Group 647">
                        <g id="Group_646" data-name="Group 646">
                          <g id="Group_645" data-name="Group 645">
                            <path id="Path_3092" data-name="Path 3092" d="M166.634,163.127a2.092,2.092,0,0,0-1.833-.549c-1.018-.082-1.789.415-1.894.277-.051-.062.079-.286.416-.511a2.513,2.513,0,0,1,2.975.218C166.6,162.834,166.693,163.074,166.634,163.127Z" transform="translate(-162.896 -161.957)" fill="#263238"/>
                          </g>
                        </g>
                      </g>
                    </g>
                    <g id="Group_651" data-name="Group 651" transform="translate(18.956 13.759)">
                      <g id="Group_650" data-name="Group 650">
                        <g id="Group_649" data-name="Group 649">
                          <path id="Path_3093" data-name="Path 3093" d="M170.363,171.036a4.929,4.929,0,0,1,1.668-.249c.268-.012.481-.06.509-.2a1.456,1.456,0,0,0-.145-.774l-.679-2.118a28.326,28.326,0,0,1-1.411-5.544,28.382,28.382,0,0,1,1.965,5.373c.22.736.429,1.437.636,2.132a1.7,1.7,0,0,1,.078,1.115.7.7,0,0,1-.485.4,1.721,1.721,0,0,1-.458.032A4.957,4.957,0,0,1,170.363,171.036Z" transform="translate(-170.282 -162.148)" fill="#263238"/>
                        </g>
                      </g>
                    </g>
                    <g id="Group_653" data-name="Group 653" transform="translate(9.409 31.846)">
                      <g id="Group_652" data-name="Group 652">
                        <path id="Path_3094" data-name="Path 3094" d="M170.06,183.837a17.223,17.223,0,0,1-9.471-3.325s1.954,5.459,9.37,5.242Z" transform="translate(-160.589 -180.512)" fill="#7c4435"/>
                      </g>
                    </g>
                  </g>
                </g>
                <g id="Group_656" data-name="Group 656" transform="translate(11.08)">
                  <path id="Path_3095" data-name="Path 3095" d="M157.881,148.313a6.961,6.961,0,0,0,5.92,6.09c1.817.218,3.781-.286,5.415.538a9.54,9.54,0,0,1,2.764,2.779,4.382,4.382,0,0,0,3.269,1.957,8.969,8.969,0,0,0,1.852-.436,2.173,2.173,0,0,1,1.832.2,14.267,14.267,0,0,0,1.092-6.883,6.347,6.347,0,0,0-4.08-5.274c-1.468-.437-3.054-.159-4.563-.419a14.97,14.97,0,0,1-3.543-1.307,11.1,11.1,0,0,0-6.092-1.3c-2.082.314-4.089,2.031-4.035,4.137" transform="translate(-157.711 -144.184)" fill="#263238"/>
                </g>
                <g id="Group_657" data-name="Group 657" transform="translate(0.905 0.819)">
                  <path id="Path_3096" data-name="Path 3096" d="M151.5,168.545c2.678,2.151,5.906-3.424,7.338-6.921a34.3,34.3,0,0,0,2.078-11.174,5.54,5.54,0,0,0-.649-3.6c-.766-1.036-1.108.236-1.943-.737-1.64-1.912-4.678-.88-6.173-.23-2.492,1.081-4.051,3.863-4.542,6.689a27.651,27.651,0,0,0,.312,8.576q.275,1.947.551,3.895a6.376,6.376,0,0,0,.771,2.632,1.883,1.883,0,0,0,2.257.871" transform="translate(-147.38 -145.016)" fill="#263238"/>
                </g>
                <g id="Group_663" data-name="Group 663" transform="translate(0 17.152)">
                  <g id="Group_659" data-name="Group 659">
                    <g id="Group_658" data-name="Group 658">
                      <path id="Path_3097" data-name="Path 3097" d="M151.386,162.717a1.117,1.117,0,0,0-1.068-1.118c-1.379-.036-3.635.512-3.844,4.319-.3,5.437,4.931,4.077,4.949,3.921C151.437,169.718,151.4,164.83,151.386,162.717Z" transform="translate(-146.462 -161.597)" fill="#a56959"/>
                    </g>
                  </g>
                  <g id="Group_662" data-name="Group 662" transform="translate(1.441 1.747)">
                    <g id="Group_661" data-name="Group 661">
                      <g id="Group_660" data-name="Group 660">
                        <path id="Path_3098" data-name="Path 3098" d="M150.245,167.731c-.023-.019-.1.061-.262.125a.951.951,0,0,1-.709-.024,2.35,2.35,0,0,1-.969-2.163,3.135,3.135,0,0,1,.34-1.342,1.1,1.1,0,0,1,.753-.688.483.483,0,0,1,.545.291c.065.157.025.263.052.274s.122-.085.091-.312a.605.605,0,0,0-.2-.352.718.718,0,0,0-.517-.167,1.332,1.332,0,0,0-1.035.789,3.219,3.219,0,0,0-.412,1.5,2.463,2.463,0,0,0,1.253,2.424,1.013,1.013,0,0,0,.875-.1C150.228,167.862,150.263,167.741,150.245,167.731Z" transform="translate(-147.924 -163.371)" fill="#7c4435"/>
                      </g>
                    </g>
                  </g>
                </g>
              </g>
              <g id="Group_665" data-name="Group 665" transform="translate(39.796 37.552)">
                <path id="Path_3099" data-name="Path 3099" d="M167.721,172.488a1.447,1.447,0,1,0,.118-.174" transform="translate(-167.544 -171.783)" fill="#7c4435"/>
              </g>
              <g id="Group_667" data-name="Group 667" transform="translate(39.219 37.826)">
                <g id="Group_666" data-name="Group 666">
                  <path id="Path_3100" data-name="Path 3100" d="M171.1,173.551a2.849,2.849,0,0,1-2.3-.077c-1.252-.441-1.937-1.318-1.832-1.4.1-.109.876.525,2,.918C170.094,173.4,171.094,173.4,171.1,173.551Z" transform="translate(-166.958 -172.061)" fill="#263238"/>
                </g>
              </g>
              <g id="Group_668" data-name="Group 668" transform="translate(25.606)">
                <path id="Path_3101" data-name="Path 3101" d="M157.031,143.907c-2.011-.282-3.448-2.247-3.786-4.249a14.215,14.215,0,0,1,.711-6,8.6,8.6,0,0,1,2.892,10.669" transform="translate(-153.137 -133.658)" fill="#fbb613"/>
              </g>
              <g id="Group_669" data-name="Group 669" transform="translate(28.74 5.221)">
                <path id="Path_3102" data-name="Path 3102" d="M157.058,143.682a3.522,3.522,0,0,1,1.682-3.9,7.254,7.254,0,0,1,4.434-.782.748.748,0,0,1,.376.1.683.683,0,0,1,.23.469,3.783,3.783,0,0,1-2.12,3.662,11.086,11.086,0,0,1-4.358,1.023,1.313,1.313,0,0,1-.7-.06.454.454,0,0,1-.246-.582" transform="translate(-156.319 -138.958)" fill="#fbb613"/>
              </g>
              <g id="Group_671" data-name="Group 671" transform="translate(43.141 10.913)">
                <g id="Group_670" data-name="Group 670">
                  <path id="Path_3103" data-name="Path 3103" d="M184.2,153.527c-.026,0-.034-.1-.133-.258a.926.926,0,0,0-.668-.371.828.828,0,0,0-.942.529,1.171,1.171,0,0,0,.612,1.309,1.419,1.419,0,0,0,1.673-.539,2.256,2.256,0,0,0,.15-2.163,3.834,3.834,0,0,0-4.406-2.183l-.3.095-1.367.426,1.121-.871a2.221,2.221,0,0,0,.646-2.358,2.764,2.764,0,0,0-1.679-1.7,4.731,4.731,0,0,0-4.156.61c-.539.324-.99.707-1.452.971a2.62,2.62,0,0,1-1.3.4c-.786,0-1.085-.415-1.054-.414a1.937,1.937,0,0,0,1.043.217,2.524,2.524,0,0,0,1.163-.447c.42-.269.85-.668,1.41-1.033a6.3,6.3,0,0,1,1.99-.881,4.255,4.255,0,0,1,2.526.137,3.226,3.226,0,0,1,1.989,2,2.71,2.71,0,0,1-.813,2.91l-.245-.444.348-.108a4.285,4.285,0,0,1,4.978,2.51,2.675,2.675,0,0,1-.255,2.592,1.8,1.8,0,0,1-2.178.6,1.476,1.476,0,0,1-.714-1.725.963.963,0,0,1,.576-.584,1.212,1.212,0,0,1,.669-.047,1,1,0,0,1,.726.518C184.236,153.416,184.206,153.529,184.2,153.527Z" transform="translate(-170.94 -144.737)" fill="#263238"/>
                </g>
              </g>
              <g id="Group_673" data-name="Group 673" transform="translate(0 8.751)">
                <g id="Group_672" data-name="Group 672">
                  <path id="Path_3104" data-name="Path 3104" d="M129.443,162.267a1.141,1.141,0,0,1,.533.032,2.1,2.1,0,0,1,1.214.928,2.172,2.172,0,0,1,.351,1.08,1.808,1.808,0,0,1-.457,1.282,2.3,2.3,0,0,1-1.385.727,2.112,2.112,0,0,1-1.7-.467,3.621,3.621,0,0,1-.589-3.8,5.338,5.338,0,0,1,3.055-3.234c.757-.293,1.556-.4,2.3-.64a2.789,2.789,0,0,0,1.781-1.325,3.913,3.913,0,0,0,.28-2.355,13.8,13.8,0,0,0-.691-2.5,8.413,8.413,0,0,1-.526-2.665,3.77,3.77,0,0,1,.946-2.516,4.7,4.7,0,0,1,2.186-1.381,6.123,6.123,0,0,1,2.452-.176c1.609.163,2.935.978,4.234,1.177a2.866,2.866,0,0,0,1.812-.248,5.248,5.248,0,0,0,1.356-1.125,7.834,7.834,0,0,1,2.4-2.1,4.6,4.6,0,0,1,2.389-.395,4.185,4.185,0,0,1,1.467.425,2.341,2.341,0,0,1,.34.2q.109.077.1.089a5.816,5.816,0,0,0-1.926-.517,4.488,4.488,0,0,0-2.248.455,7.726,7.726,0,0,0-2.262,2.086,5.53,5.53,0,0,1-1.44,1.23,3.266,3.266,0,0,1-2.059.32c-1.434-.216-2.723-1-4.227-1.129a4.738,4.738,0,0,0-4.2,1.417,3.264,3.264,0,0,0-.815,2.191,8,8,0,0,0,.5,2.5,14.152,14.152,0,0,1,.71,2.59,4.4,4.4,0,0,1-.341,2.659,3.284,3.284,0,0,1-2.08,1.558c-.8.244-1.588.351-2.28.614a4.923,4.923,0,0,0-2.822,2.932,3.266,3.266,0,0,0,.431,3.389,1.957,1.957,0,0,0,2.629-.185,1.72,1.72,0,0,0,.149-2.066,2.087,2.087,0,0,0-1.074-.933C129.628,162.287,129.442,162.294,129.443,162.267Z" transform="translate(-127.141 -142.543)" fill="#263238"/>
                </g>
              </g>
              <g id="Group_675" data-name="Group 675" transform="translate(33.306 33.275)">
                <g id="Group_674" data-name="Group 674">
                  <path id="Path_3105" data-name="Path 3105" d="M161.287,167.867a.221.221,0,1,1,.157-.3A.239.239,0,0,1,161.287,167.867Z" transform="translate(-160.955 -167.441)" fill="#263238"/>
                </g>
              </g>
              <g id="Group_677" data-name="Group 677" transform="translate(35.28 32.971)">
                <g id="Group_676" data-name="Group 676">
                  <path id="Path_3106" data-name="Path 3106" d="M163.256,167.7a.288.288,0,1,1,.214-.319A.273.273,0,0,1,163.256,167.7Z" transform="translate(-162.959 -167.132)" fill="#263238"/>
                </g>
              </g>
              <g id="Group_679" data-name="Group 679" transform="translate(37.125 33.294)">
                <g id="Group_678" data-name="Group 678">
                  <path id="Path_3107" data-name="Path 3107" d="M165.049,168.107a.335.335,0,1,1,.295-.292A.3.3,0,0,1,165.049,168.107Z" transform="translate(-164.832 -167.459)" fill="#263238"/>
                </g>
              </g>
              <g id="Group_681" data-name="Group 681" transform="translate(34.998 34.67)">
                <g id="Group_680" data-name="Group 680">
                  <ellipse id="Ellipse_24" data-name="Ellipse 24" cx="0.256" cy="0.242" rx="0.256" ry="0.242" fill="#263238"/>
                </g>
              </g>
              <g id="Group_683" data-name="Group 683" transform="translate(47.23 33.619)">
                <g id="Group_682" data-name="Group 682">
                  <path id="Path_3108" data-name="Path 3108" d="M175.387,168.358a.288.288,0,1,1,.215-.318A.273.273,0,0,1,175.387,168.358Z" transform="translate(-175.091 -167.79)" fill="#263238"/>
                </g>
              </g>
              <g id="Group_685" data-name="Group 685" transform="translate(48.668 33.526)">
                <g id="Group_684" data-name="Group 684">
                  <path id="Path_3109" data-name="Path 3109" d="M176.7,168.432c-.135-.045-.189-.244-.122-.445s.23-.327.365-.282.188.243.121.444S176.836,168.476,176.7,168.432Z" transform="translate(-176.551 -167.696)" fill="#263238"/>
                </g>
              </g>
              <g id="Group_687" data-name="Group 687" transform="translate(47.956 35.474)">
                <g id="Group_686" data-name="Group 686">
                  <path id="Path_3110" data-name="Path 3110" d="M176.043,170.241a.288.288,0,1,1,.3-.244A.273.273,0,0,1,176.043,170.241Z" transform="translate(-175.828 -169.673)" fill="#263238"/>
                </g>
              </g>
            </g>
            <g id="Group_811" data-name="Group 811" transform="translate(6.572 131.9)">
              <g id="Group_689" data-name="Group 689" transform="translate(0 0.388)">
                <path id="Path_3111" data-name="Path 3111" d="M214.2,442,191.98,281h0l-.624-10.393-55.6-2.638-2.32,8.754c-7.8,27.5-47.223,160.482-47.223,160.482l19.258,6.076L162.794,290.9l26.687,150.825Z" transform="translate(-86.215 -267.964)" fill="#844299"/>
              </g>
              <g id="Group_753" data-name="Group 753" transform="translate(101.97)">
                <g id="Group_752" data-name="Group 752">
                  <g id="Group_691" data-name="Group 691">
                    <g id="Group_690" data-name="Group 690">
                      <path id="Path_3112" data-name="Path 3112" d="M190.076,269.041c-.141.014-.287-.3-.326-.71s.043-.747.184-.76.288.3.326.711S190.217,269.027,190.076,269.041Z" transform="translate(-189.74 -267.57)" fill="#455a64"/>
                    </g>
                  </g>
                  <g id="Group_693" data-name="Group 693" transform="translate(0.477 4.401)">
                    <g id="Group_692" data-name="Group 692">
                      <path id="Path_3113" data-name="Path 3113" d="M190.666,274.967c-.141.014-.321-.63-.4-1.439s-.033-1.476.108-1.49.321.629.4,1.439S190.807,274.953,190.666,274.967Z" transform="translate(-190.224 -272.038)" fill="#455a64"/>
                    </g>
                  </g>
                  <g id="Group_695" data-name="Group 695" transform="translate(1.075 10.259)">
                    <g id="Group_694" data-name="Group 694">
                      <path id="Path_3114" data-name="Path 3114" d="M191.283,280.913c-.141.015-.324-.629-.409-1.437s-.039-1.477.1-1.491.324.628.409,1.437S191.424,280.9,191.283,280.913Z" transform="translate(-190.832 -277.985)" fill="#455a64"/>
                    </g>
                  </g>
                  <g id="Group_697" data-name="Group 697" transform="translate(1.698 16.113)">
                    <g id="Group_696" data-name="Group 696">
                      <path id="Path_3115" data-name="Path 3115" d="M191.924,286.856c-.141.015-.326-.627-.415-1.436s-.044-1.475.1-1.491.326.627.414,1.436S192.065,286.841,191.924,286.856Z" transform="translate(-191.464 -283.929)" fill="#455a64"/>
                    </g>
                  </g>
                  <g id="Group_699" data-name="Group 699" transform="translate(2.343 21.966)">
                    <g id="Group_698" data-name="Group 698">
                      <path id="Path_3116" data-name="Path 3116" d="M192.588,292.8c-.141.016-.329-.626-.42-1.433s-.051-1.476.09-1.492.329.626.42,1.434S192.729,292.781,192.588,292.8Z" transform="translate(-192.119 -289.871)" fill="#455a64"/>
                    </g>
                  </g>
                  <g id="Group_701" data-name="Group 701" transform="translate(3.01 27.817)">
                    <g id="Group_700" data-name="Group 700">
                      <path id="Path_3117" data-name="Path 3117" d="M193.272,298.735c-.141.016-.331-.625-.425-1.433s-.055-1.475.085-1.491.331.624.425,1.432S193.413,298.719,193.272,298.735Z" transform="translate(-192.796 -295.811)" fill="#455a64"/>
                    </g>
                  </g>
                  <g id="Group_703" data-name="Group 703" transform="translate(3.696 33.665)">
                    <g id="Group_702" data-name="Group 702">
                      <path id="Path_3118" data-name="Path 3118" d="M193.975,304.671c-.14.017-.332-.624-.428-1.431s-.06-1.475.08-1.492.333.624.429,1.431S194.116,304.655,193.975,304.671Z" transform="translate(-193.492 -301.748)" fill="#455a64"/>
                    </g>
                  </g>
                  <g id="Group_705" data-name="Group 705" transform="translate(4.399 39.511)">
                    <g id="Group_704" data-name="Group 704">
                      <path id="Path_3119" data-name="Path 3119" d="M194.7,310.605c-.141.017-.334-.623-.433-1.43s-.064-1.475.077-1.492.334.623.432,1.43S194.836,310.588,194.7,310.605Z" transform="translate(-194.206 -307.683)" fill="#455a64"/>
                    </g>
                  </g>
                  <g id="Group_707" data-name="Group 707" transform="translate(5.119 45.354)">
                    <g id="Group_706" data-name="Group 706">
                      <path id="Path_3120" data-name="Path 3120" d="M195.432,316.537c-.141.018-.337-.622-.437-1.428s-.068-1.475.073-1.493.336.622.436,1.429S195.572,316.52,195.432,316.537Z" transform="translate(-194.937 -313.616)" fill="#455a64"/>
                    </g>
                  </g>
                  <g id="Group_709" data-name="Group 709" transform="translate(5.853 51.197)">
                    <g id="Group_708" data-name="Group 708">
                      <path id="Path_3121" data-name="Path 3121" d="M196.182,322.468c-.141.018-.338-.622-.44-1.428s-.071-1.475.069-1.492.338.621.44,1.427S196.323,322.451,196.182,322.468Z" transform="translate(-195.682 -319.548)" fill="#455a64"/>
                    </g>
                  </g>
                  <g id="Group_711" data-name="Group 711" transform="translate(6.6 57.037)">
                    <g id="Group_710" data-name="Group 710">
                      <path id="Path_3122" data-name="Path 3122" d="M196.945,328.4c-.14.018-.339-.621-.443-1.427s-.074-1.475.066-1.493.339.622.443,1.427S197.086,328.379,196.945,328.4Z" transform="translate(-196.44 -325.477)" fill="#455a64"/>
                    </g>
                  </g>
                  <g id="Group_713" data-name="Group 713" transform="translate(7.357 62.877)">
                    <g id="Group_712" data-name="Group 712">
                      <path id="Path_3123" data-name="Path 3123" d="M197.719,334.325c-.141.018-.34-.621-.445-1.426s-.078-1.475.063-1.493.34.62.445,1.426S197.859,334.307,197.719,334.325Z" transform="translate(-197.21 -331.406)" fill="#455a64"/>
                    </g>
                  </g>
                  <g id="Group_715" data-name="Group 715" transform="translate(8.125 68.715)">
                    <g id="Group_714" data-name="Group 714">
                      <path id="Path_3124" data-name="Path 3124" d="M198.5,340.251c-.141.019-.341-.62-.448-1.425s-.079-1.474.061-1.493.341.62.448,1.426S198.642,340.233,198.5,340.251Z" transform="translate(-197.989 -337.333)" fill="#455a64"/>
                    </g>
                  </g>
                  <g id="Group_717" data-name="Group 717" transform="translate(8.901 74.552)">
                    <g id="Group_716" data-name="Group 716">
                      <path id="Path_3125" data-name="Path 3125" d="M199.292,346.178c-.141.019-.342-.62-.449-1.425s-.082-1.475.059-1.493.342.62.449,1.425S199.433,346.159,199.292,346.178Z" transform="translate(-198.777 -343.259)" fill="#455a64"/>
                    </g>
                  </g>
                  <g id="Group_719" data-name="Group 719" transform="translate(9.683 80.388)">
                    <g id="Group_718" data-name="Group 718">
                      <path id="Path_3126" data-name="Path 3126" d="M200.088,352.1c-.14.019-.342-.62-.45-1.424s-.083-1.474.057-1.494.343.62.451,1.425S200.229,352.084,200.088,352.1Z" transform="translate(-199.571 -349.184)" fill="#455a64"/>
                    </g>
                  </g>
                  <g id="Group_721" data-name="Group 721" transform="translate(10.469 86.224)">
                    <g id="Group_720" data-name="Group 720">
                      <path id="Path_3127" data-name="Path 3127" d="M200.888,358.027c-.14.02-.342-.619-.451-1.424s-.084-1.475.057-1.493.342.619.451,1.424S201.029,358.008,200.888,358.027Z" transform="translate(-200.369 -355.109)" fill="#455a64"/>
                    </g>
                  </g>
                  <g id="Group_723" data-name="Group 723" transform="translate(11.259 92.059)">
                    <g id="Group_722" data-name="Group 722">
                      <path id="Path_3128" data-name="Path 3128" d="M201.691,363.951c-.141.02-.343-.619-.452-1.424s-.084-1.474.056-1.493.343.619.452,1.424S201.831,363.932,201.691,363.951Z" transform="translate(-201.171 -361.033)" fill="#455a64"/>
                    </g>
                  </g>
                  <g id="Group_725" data-name="Group 725" transform="translate(12.054 97.89)">
                    <g id="Group_724" data-name="Group 724">
                      <path id="Path_3129" data-name="Path 3129" d="M202.513,369.866c-.14.021-.347-.616-.461-1.42s-.094-1.473.046-1.492.347.618.461,1.42S202.653,369.845,202.513,369.866Z" transform="translate(-201.978 -366.953)" fill="#455a64"/>
                    </g>
                  </g>
                  <g id="Group_727" data-name="Group 727" transform="translate(12.901 103.713)">
                    <g id="Group_726" data-name="Group 726">
                      <path id="Path_3130" data-name="Path 3130" d="M203.388,375.773c-.14.021-.351-.613-.47-1.415s-.1-1.472.036-1.492.351.614.471,1.416S203.527,375.752,203.388,375.773Z" transform="translate(-202.837 -372.865)" fill="#455a64"/>
                    </g>
                  </g>
                  <g id="Group_729" data-name="Group 729" transform="translate(13.771 109.528)">
                    <g id="Group_728" data-name="Group 728">
                      <path id="Path_3131" data-name="Path 3131" d="M204.276,381.68c-.14.021-.352-.614-.473-1.417s-.105-1.473.034-1.494.352.614.473,1.417S204.415,381.658,204.276,381.68Z" transform="translate(-203.721 -378.768)" fill="#455a64"/>
                    </g>
                  </g>
                  <g id="Group_731" data-name="Group 731" transform="translate(14.65 115.351)">
                    <g id="Group_730" data-name="Group 730">
                      <path id="Path_3132" data-name="Path 3132" d="M205.17,387.588c-.141.022-.353-.613-.474-1.415s-.107-1.472.033-1.492.352.613.474,1.415S205.309,387.567,205.17,387.588Z" transform="translate(-204.613 -384.679)" fill="#455a64"/>
                    </g>
                  </g>
                  <g id="Group_733" data-name="Group 733" transform="translate(15.531 121.165)">
                    <g id="Group_732" data-name="Group 732">
                      <path id="Path_3133" data-name="Path 3133" d="M206.065,393.49c-.14.022-.353-.612-.474-1.414s-.107-1.471.033-1.492.353.613.474,1.415S206.2,393.468,206.065,393.49Z" transform="translate(-205.508 -390.583)" fill="#455a64"/>
                    </g>
                  </g>
                  <g id="Group_735" data-name="Group 735" transform="translate(16.414 126.978)">
                    <g id="Group_734" data-name="Group 734">
                      <path id="Path_3134" data-name="Path 3134" d="M206.962,399.392c-.14.022-.353-.612-.475-1.414s-.107-1.472.032-1.492.353.612.475,1.414S207.1,399.371,206.962,399.392Z" transform="translate(-206.404 -396.484)" fill="#455a64"/>
                    </g>
                  </g>
                  <g id="Group_737" data-name="Group 737" transform="translate(17.298 132.794)">
                    <g id="Group_736" data-name="Group 736">
                      <path id="Path_3135" data-name="Path 3135" d="M207.861,405.3c-.14.022-.353-.613-.475-1.416s-.108-1.471.032-1.493.353.613.475,1.416S208,405.278,207.861,405.3Z" transform="translate(-207.302 -402.388)" fill="#455a64"/>
                    </g>
                  </g>
                  <g id="Group_739" data-name="Group 739" transform="translate(18.184 138.615)">
                    <g id="Group_738" data-name="Group 738">
                      <path id="Path_3136" data-name="Path 3136" d="M208.76,411.213c-.141.022-.354-.614-.476-1.418s-.108-1.474.032-1.5.353.614.475,1.418S208.9,411.191,208.76,411.213Z" transform="translate(-208.202 -408.298)" fill="#455a64"/>
                    </g>
                  </g>
                  <g id="Group_741" data-name="Group 741" transform="translate(19.07 144.439)">
                    <g id="Group_740" data-name="Group 740">
                      <path id="Path_3137" data-name="Path 3137" d="M209.659,417.123c-.14.022-.353-.613-.475-1.416s-.107-1.473.033-1.494.353.613.475,1.417S209.8,417.1,209.659,417.123Z" transform="translate(-209.101 -414.211)" fill="#455a64"/>
                    </g>
                  </g>
                  <g id="Group_743" data-name="Group 743" transform="translate(19.955 150.26)">
                    <g id="Group_742" data-name="Group 742">
                      <path id="Path_3138" data-name="Path 3138" d="M210.556,423.034c-.14.021-.352-.614-.474-1.417s-.107-1.473.033-1.494.353.614.475,1.417S210.7,423.012,210.556,423.034Z" transform="translate(-209.999 -420.122)" fill="#455a64"/>
                    </g>
                  </g>
                  <g id="Group_745" data-name="Group 745" transform="translate(20.837 156.083)">
                    <g id="Group_744" data-name="Group 744">
                      <path id="Path_3139" data-name="Path 3139" d="M211.451,428.945c-.14.022-.352-.613-.474-1.416s-.106-1.474.033-1.494.353.613.474,1.417S211.591,428.924,211.451,428.945Z" transform="translate(-210.895 -426.033)" fill="#455a64"/>
                    </g>
                  </g>
                  <g id="Group_747" data-name="Group 747" transform="translate(21.716 161.907)">
                    <g id="Group_746" data-name="Group 746">
                      <path id="Path_3140" data-name="Path 3140" d="M212.342,434.859c-.14.021-.352-.614-.473-1.418s-.105-1.474.035-1.494.351.614.472,1.418S212.481,434.838,212.342,434.859Z" transform="translate(-211.787 -431.946)" fill="#455a64"/>
                    </g>
                  </g>
                  <g id="Group_749" data-name="Group 749" transform="translate(22.589 167.733)">
                    <g id="Group_748" data-name="Group 748">
                      <path id="Path_3141" data-name="Path 3141" d="M213.224,440.777c-.141.021-.351-.615-.47-1.419s-.1-1.476.037-1.5.35.616.47,1.42S213.363,440.756,213.224,440.777Z" transform="translate(-212.674 -437.861)" fill="#455a64"/>
                    </g>
                  </g>
                  <g id="Group_751" data-name="Group 751" transform="translate(23.396 173.596)">
                    <g id="Group_750" data-name="Group 750">
                      <path id="Path_3142" data-name="Path 3142" d="M213.869,445.274c-.14.02-.3-.292-.357-.694s.012-.746.152-.765.3.291.357.694S214.01,445.255,213.869,445.274Z" transform="translate(-213.493 -443.813)" fill="#455a64"/>
                    </g>
                  </g>
                </g>
              </g>
              <g id="Group_810" data-name="Group 810" transform="translate(17.344 23.227)">
                <g id="Group_755" data-name="Group 755" transform="translate(0 148.265)">
                  <g id="Group_754" data-name="Group 754">
                    <path id="Path_3143" data-name="Path 3143" d="M104.376,441.681c.135.042.145.392.023.781s-.332.669-.467.626-.145-.392-.023-.781S104.24,441.639,104.376,441.681Z" transform="translate(-103.823 -441.677)" fill="#455a64"/>
                  </g>
                </g>
                <g id="Group_757" data-name="Group 757" transform="translate(1.396 142.567)">
                  <g id="Group_756" data-name="Group 756">
                    <path id="Path_3144" data-name="Path 3144" d="M106.215,435.894c.135.043.04.716-.212,1.5s-.566,1.39-.7,1.346-.039-.716.213-1.5S106.08,435.851,106.215,435.894Z" transform="translate(-105.241 -435.892)" fill="#455a64"/>
                  </g>
                </g>
                <g id="Group_759" data-name="Group 759" transform="translate(3.232 136.876)">
                  <g id="Group_758" data-name="Group 758">
                    <path id="Path_3145" data-name="Path 3145" d="M108.094,430.116c.134.043.035.716-.221,1.5s-.574,1.387-.708,1.344-.036-.717.221-1.5S107.959,430.072,108.094,430.116Z" transform="translate(-107.105 -430.114)" fill="#455a64"/>
                  </g>
                </g>
                <g id="Group_761" data-name="Group 761" transform="translate(5.098 131.193)">
                  <g id="Group_760" data-name="Group 760">
                    <path id="Path_3146" data-name="Path 3146" d="M110,424.347c.134.044.032.716-.229,1.5s-.581,1.384-.715,1.34-.032-.716.229-1.5S109.867,424.3,110,424.347Z" transform="translate(-108.999 -424.345)" fill="#455a64"/>
                  </g>
                </g>
                <g id="Group_763" data-name="Group 763" transform="translate(6.992 125.519)">
                  <g id="Group_762" data-name="Group 762">
                    <path id="Path_3147" data-name="Path 3147" d="M111.938,418.586c.134.045.029.717-.235,1.5s-.587,1.381-.722,1.336-.029-.716.236-1.5S111.8,418.541,111.938,418.586Z" transform="translate(-110.922 -418.584)" fill="#455a64"/>
                  </g>
                </g>
                <g id="Group_765" data-name="Group 765" transform="translate(8.915 119.853)">
                  <g id="Group_764" data-name="Group 764">
                    <path id="Path_3148" data-name="Path 3148" d="M113.9,412.834c.134.046.026.717-.242,1.5s-.594,1.379-.728,1.333-.026-.717.242-1.5S113.767,412.789,113.9,412.834Z" transform="translate(-112.874 -412.832)" fill="#455a64"/>
                  </g>
                </g>
                <g id="Group_767" data-name="Group 767" transform="translate(10.863 114.195)">
                  <g id="Group_766" data-name="Group 766">
                    <path id="Path_3149" data-name="Path 3149" d="M115.89,407.09c.134.046.023.717-.248,1.5s-.6,1.376-.734,1.33-.023-.717.249-1.5S115.757,407.044,115.89,407.09Z" transform="translate(-114.851 -407.087)" fill="#455a64"/>
                  </g>
                </g>
                <g id="Group_769" data-name="Group 769" transform="translate(12.835 108.545)">
                  <g id="Group_768" data-name="Group 768">
                    <path id="Path_3150" data-name="Path 3150" d="M117.9,401.354c.134.046.02.717-.255,1.5s-.606,1.374-.74,1.327-.019-.717.256-1.5S117.771,401.307,117.9,401.354Z" transform="translate(-116.854 -401.351)" fill="#455a64"/>
                  </g>
                </g>
                <g id="Group_771" data-name="Group 771" transform="translate(14.831 102.902)">
                  <g id="Group_770" data-name="Group 770">
                    <path id="Path_3151" data-name="Path 3151" d="M119.941,395.625c.134.047.017.717-.261,1.5s-.612,1.371-.745,1.324-.017-.717.261-1.5S119.808,395.577,119.941,395.625Z" transform="translate(-118.88 -395.622)" fill="#455a64"/>
                  </g>
                </g>
                <g id="Group_773" data-name="Group 773" transform="translate(16.848 97.265)">
                  <g id="Group_772" data-name="Group 772">
                    <path id="Path_3152" data-name="Path 3152" d="M122,389.9c.133.048.013.718-.267,1.5s-.617,1.369-.75,1.322-.014-.718.267-1.5S121.866,389.855,122,389.9Z" transform="translate(-120.928 -389.899)" fill="#455a64"/>
                  </g>
                </g>
                <g id="Group_775" data-name="Group 775" transform="translate(18.886 91.636)">
                  <g id="Group_774" data-name="Group 774">
                    <path id="Path_3153" data-name="Path 3153" d="M124.078,384.187c.133.048.012.718-.272,1.494s-.621,1.368-.755,1.32-.011-.718.273-1.5S123.945,384.139,124.078,384.187Z" transform="translate(-122.997 -384.184)" fill="#455a64"/>
                  </g>
                </g>
                <g id="Group_777" data-name="Group 777" transform="translate(20.944 86.012)">
                  <g id="Group_776" data-name="Group 776">
                    <path id="Path_3154" data-name="Path 3154" d="M126.175,378.477c.133.049.009.718-.278,1.494s-.624,1.366-.757,1.317-.01-.717.277-1.494S126.042,378.429,126.175,378.477Z" transform="translate(-125.087 -378.474)" fill="#455a64"/>
                  </g>
                </g>
                <g id="Group_779" data-name="Group 779" transform="translate(23.019 80.394)">
                  <g id="Group_778" data-name="Group 778">
                    <path id="Path_3155" data-name="Path 3155" d="M128.289,372.774c.133.049.007.718-.281,1.493s-.629,1.364-.762,1.315-.007-.718.282-1.493S128.157,372.725,128.289,372.774Z" transform="translate(-127.193 -372.771)" fill="#455a64"/>
                  </g>
                </g>
                <g id="Group_781" data-name="Group 781" transform="translate(25.11 74.782)">
                  <g id="Group_780" data-name="Group 780">
                    <path id="Path_3156" data-name="Path 3156" d="M130.42,367.076c.133.05,0,.718-.286,1.493s-.632,1.362-.765,1.312,0-.717.286-1.492S130.288,367.027,130.42,367.076Z" transform="translate(-129.317 -367.073)" fill="#455a64"/>
                  </g>
                </g>
                <g id="Group_783" data-name="Group 783" transform="translate(27.217 69.175)">
                  <g id="Group_782" data-name="Group 782">
                    <path id="Path_3157" data-name="Path 3157" d="M132.566,361.383c.132.05,0,.719-.29,1.492s-.636,1.361-.769,1.311,0-.718.29-1.492S132.433,361.334,132.566,361.383Z" transform="translate(-131.455 -361.38)" fill="#455a64"/>
                  </g>
                </g>
                <g id="Group_785" data-name="Group 785" transform="translate(29.338 63.573)">
                  <g id="Group_784" data-name="Group 784">
                    <path id="Path_3158" data-name="Path 3158" d="M134.725,355.7c.132.05,0,.718-.293,1.491s-.64,1.359-.772,1.309,0-.718.293-1.491S134.592,355.646,134.725,355.7Z" transform="translate(-133.608 -355.693)" fill="#455a64"/>
                  </g>
                </g>
                <g id="Group_787" data-name="Group 787" transform="translate(31.47 57.974)">
                  <g id="Group_786" data-name="Group 786">
                    <path id="Path_3159" data-name="Path 3159" d="M136.895,350.012c.133.051,0,.718-.3,1.491s-.642,1.358-.774,1.307,0-.718.3-1.49S136.763,349.962,136.895,350.012Z" transform="translate(-135.774 -350.009)" fill="#455a64"/>
                  </g>
                </g>
                <g id="Group_789" data-name="Group 789" transform="translate(33.614 52.381)">
                  <g id="Group_788" data-name="Group 788">
                    <path id="Path_3160" data-name="Path 3160" d="M139.077,344.333c.132.051,0,.718-.3,1.49s-.645,1.357-.777,1.306,0-.718.3-1.49S138.944,344.282,139.077,344.333Z" transform="translate(-137.95 -344.33)" fill="#455a64"/>
                  </g>
                </g>
                <g id="Group_791" data-name="Group 791" transform="translate(35.768 46.791)">
                  <g id="Group_790" data-name="Group 790">
                    <path id="Path_3161" data-name="Path 3161" d="M141.267,338.658c.132.05,0,.718-.3,1.489s-.647,1.356-.779,1.305,0-.718.3-1.49S141.135,338.607,141.267,338.658Z" transform="translate(-140.136 -338.655)" fill="#455a64"/>
                  </g>
                </g>
                <g id="Group_793" data-name="Group 793" transform="translate(37.929 41.203)">
                  <g id="Group_792" data-name="Group 792">
                    <path id="Path_3162" data-name="Path 3162" d="M143.465,332.985c.132.051,0,.718-.3,1.489s-.649,1.355-.781,1.3,0-.718.3-1.489S143.333,332.934,143.465,332.985Z" transform="translate(-142.331 -332.982)" fill="#455a64"/>
                  </g>
                </g>
                <g id="Group_795" data-name="Group 795" transform="translate(40.098 35.619)">
                  <g id="Group_794" data-name="Group 794">
                    <path id="Path_3163" data-name="Path 3163" d="M145.67,327.316c.132.051,0,.718-.3,1.489s-.65,1.354-.782,1.3,0-.717.3-1.488S145.538,327.265,145.67,327.316Z" transform="translate(-144.533 -327.313)" fill="#455a64"/>
                  </g>
                </g>
                <g id="Group_797" data-name="Group 797" transform="translate(42.272 30.038)">
                  <g id="Group_796" data-name="Group 796">
                    <path id="Path_3164" data-name="Path 3164" d="M147.879,321.65c.132.051,0,.718-.305,1.488s-.651,1.353-.783,1.3,0-.718.305-1.489S147.747,321.6,147.879,321.65Z" transform="translate(-146.74 -321.647)" fill="#455a64"/>
                  </g>
                </g>
                <g id="Group_799" data-name="Group 799" transform="translate(44.451 24.458)">
                  <g id="Group_798" data-name="Group 798">
                    <path id="Path_3165" data-name="Path 3165" d="M150.093,315.985c.132.052-.006.718-.306,1.488s-.652,1.353-.784,1.3,0-.717.306-1.488S149.961,315.934,150.093,315.985Z" transform="translate(-148.952 -315.982)" fill="#455a64"/>
                  </g>
                </g>
                <g id="Group_801" data-name="Group 801" transform="translate(46.632 18.882)">
                  <g id="Group_800" data-name="Group 800">
                    <path id="Path_3166" data-name="Path 3166" d="M152.309,310.324c.132.052-.007.717-.307,1.486s-.653,1.352-.785,1.3.006-.718.307-1.487S152.178,310.272,152.309,310.324Z" transform="translate(-151.166 -310.321)" fill="#455a64"/>
                  </g>
                </g>
                <g id="Group_803" data-name="Group 803" transform="translate(48.846 13.346)">
                  <g id="Group_802" data-name="Group 802">
                    <path id="Path_3167" data-name="Path 3167" d="M154.627,304.7c.129.057-.026.719-.347,1.478s-.689,1.332-.82,1.279.025-.716.347-1.478S154.5,304.647,154.627,304.7Z" transform="translate(-153.414 -304.7)" fill="#455a64"/>
                  </g>
                </g>
                <g id="Group_805" data-name="Group 805" transform="translate(51.254 7.935)">
                  <g id="Group_804" data-name="Group 804">
                    <path id="Path_3168" data-name="Path 3168" d="M157.232,299.212c.125.066-.071.718-.437,1.455s-.768,1.286-.9,1.226.067-.711.437-1.455S157.107,299.145,157.232,299.212Z" transform="translate(-155.859 -299.206)" fill="#455a64"/>
                  </g>
                </g>
                <g id="Group_807" data-name="Group 807" transform="translate(54.077 2.863)">
                  <g id="Group_806" data-name="Group 806">
                    <path id="Path_3169" data-name="Path 3169" d="M160.459,294.068c.11.09-.178.706-.643,1.378s-.942,1.156-1.063,1.083.166-.69.643-1.378S160.349,293.978,160.459,294.068Z" transform="translate(-158.725 -294.057)" fill="#455a64"/>
                  </g>
                </g>
                <g id="Group_809" data-name="Group 809" transform="translate(57.912)">
                  <g id="Group_808" data-name="Group 808">
                    <path id="Path_3170" data-name="Path 3170" d="M163.942,291.249c.038.138-.222.334-.558.514s-.662.278-.747.162.125-.412.507-.615S163.905,291.113,163.942,291.249Z" transform="translate(-162.619 -291.15)" fill="#455a64"/>
                  </g>
                </g>
              </g>
            </g>
          </g>
          <g id="Group_817" data-name="Group 817" transform="translate(0 69.89)">
            <g id="Group_815" data-name="Group 815">
              <g id="Group_813" data-name="Group 813">
                <path id="Path_3171" data-name="Path 3171" d="M153.61,205.564l-35.231-.95H82.451a8.7,8.7,0,0,0-8.526,8.86v24.363a103.14,103.14,0,0,0,11.72,48.488c6.637,12.456,16.914,25.281,32.734,33.433,14.543-5.464,25.4-20.027,32.036-32.483a103.139,103.139,0,0,0,11.72-48.488V214.424A8.7,8.7,0,0,0,153.61,205.564Z" transform="translate(-73.925 -204.614)" fill="#844299"/>
              </g>
              <text id="_" data-name="?" transform="translate(27.365 70.11)" fill="#fff" font-size="51" font-family="Jost-Black, Jost" font-weight="800"><tspan x="0" y="0">?</tspan></text>
            </g>
            <g id="Group_816" data-name="Group 816" opacity="0.3">
              <path id="Path_3173" data-name="Path 3173" d="M153.61,205.564l-35.231-.95H82.451a8.7,8.7,0,0,0-8.526,8.86v24.363a103.14,103.14,0,0,0,11.72,48.488c6.637,12.456,16.914,25.281,32.734,33.433,14.543-5.464,25.4-20.027,32.036-32.483a103.139,103.139,0,0,0,11.72-48.488V214.424A8.7,8.7,0,0,0,153.61,205.564Zm-1.164,35.025a81.6,81.6,0,0,1-9.273,38.362c-5.251,9.855-12.975,20-25.492,26.452-12.516-6.45-19.949-16.6-25.2-26.452a81.6,81.6,0,0,1-9.273-38.362V221.313a6.881,6.881,0,0,1,6.745-7.009H145.7a6.881,6.881,0,0,1,6.746,7.009Z" transform="translate(-73.925 -204.614)"/>
            </g>
          </g>
        </g>
      </g>
    </g>
  </g>
</svg>
